G04 #@! TF.GenerationSoftware,KiCad,Pcbnew,(5.1.10-1-10_14)*
G04 #@! TF.CreationDate,2021-07-26T11:30:22-07:00*
G04 #@! TF.ProjectId,Synapse,53796e61-7073-4652-9e6b-696361645f70,1*
G04 #@! TF.SameCoordinates,Original*
G04 #@! TF.FileFunction,Copper,L4,Bot*
G04 #@! TF.FilePolarity,Positive*
%FSLAX46Y46*%
G04 Gerber Fmt 4.6, Leading zero omitted, Abs format (unit mm)*
G04 Created by KiCad (PCBNEW (5.1.10-1-10_14)) date 2021-07-26 11:30:22*
%MOMM*%
%LPD*%
G01*
G04 APERTURE LIST*
G04 #@! TA.AperFunction,ComponentPad*
%ADD10O,1.000000X2.100000*%
G04 #@! TD*
G04 #@! TA.AperFunction,ComponentPad*
%ADD11O,1.000000X1.600000*%
G04 #@! TD*
G04 #@! TA.AperFunction,SMDPad,CuDef*
%ADD12C,1.500000*%
G04 #@! TD*
G04 #@! TA.AperFunction,ViaPad*
%ADD13C,0.400000*%
G04 #@! TD*
G04 #@! TA.AperFunction,ViaPad*
%ADD14C,0.900000*%
G04 #@! TD*
G04 #@! TA.AperFunction,ViaPad*
%ADD15C,0.600000*%
G04 #@! TD*
G04 #@! TA.AperFunction,Conductor*
%ADD16C,0.600000*%
G04 #@! TD*
G04 #@! TA.AperFunction,Conductor*
%ADD17C,0.400000*%
G04 #@! TD*
G04 #@! TA.AperFunction,Conductor*
%ADD18C,0.300000*%
G04 #@! TD*
G04 #@! TA.AperFunction,Conductor*
%ADD19C,0.254000*%
G04 #@! TD*
G04 #@! TA.AperFunction,Conductor*
%ADD20C,0.152400*%
G04 #@! TD*
G04 APERTURE END LIST*
G04 #@! TA.AperFunction,ComponentPad*
G36*
G01*
X12936813Y-9534516D02*
X12158995Y-8756698D01*
G75*
G02*
X12158995Y-8049592I353553J353553D01*
G01*
X12158995Y-8049592D01*
G75*
G02*
X12866101Y-8049592I353553J-353553D01*
G01*
X13643919Y-8827410D01*
G75*
G02*
X13643919Y-9534516I-353553J-353553D01*
G01*
X13643919Y-9534516D01*
G75*
G02*
X12936813Y-9534516I-353553J353553D01*
G01*
G37*
G04 #@! TD.AperFunction*
G04 #@! TA.AperFunction,ComponentPad*
G36*
G01*
X6827410Y-15643919D02*
X6049592Y-14866101D01*
G75*
G02*
X6049592Y-14158995I353553J353553D01*
G01*
X6049592Y-14158995D01*
G75*
G02*
X6756698Y-14158995I353553J-353553D01*
G01*
X7534516Y-14936813D01*
G75*
G02*
X7534516Y-15643919I-353553J-353553D01*
G01*
X7534516Y-15643919D01*
G75*
G02*
X6827410Y-15643919I-353553J353553D01*
G01*
G37*
G04 #@! TD.AperFunction*
G04 #@! TA.AperFunction,ComponentPad*
G36*
G01*
X9606340Y-18422848D02*
X9182076Y-17998584D01*
G75*
G02*
X9182076Y-17291478I353553J353553D01*
G01*
X9182076Y-17291478D01*
G75*
G02*
X9889182Y-17291478I353553J-353553D01*
G01*
X10313446Y-17715742D01*
G75*
G02*
X10313446Y-18422848I-353553J-353553D01*
G01*
X10313446Y-18422848D01*
G75*
G02*
X9606340Y-18422848I-353553J353553D01*
G01*
G37*
G04 #@! TD.AperFunction*
G04 #@! TA.AperFunction,ComponentPad*
G36*
G01*
X15715742Y-12313446D02*
X15291478Y-11889182D01*
G75*
G02*
X15291478Y-11182076I353553J353553D01*
G01*
X15291478Y-11182076D01*
G75*
G02*
X15998584Y-11182076I353553J-353553D01*
G01*
X16422848Y-11606340D01*
G75*
G02*
X16422848Y-12313446I-353553J-353553D01*
G01*
X16422848Y-12313446D01*
G75*
G02*
X15715742Y-12313446I-353553J353553D01*
G01*
G37*
G04 #@! TD.AperFunction*
G04 #@! TA.AperFunction,ComponentPad*
G36*
G01*
X-7534516Y-14936813D02*
X-6756698Y-14158995D01*
G75*
G02*
X-6049592Y-14158995I353553J-353553D01*
G01*
X-6049592Y-14158995D01*
G75*
G02*
X-6049592Y-14866101I-353553J-353553D01*
G01*
X-6827410Y-15643919D01*
G75*
G02*
X-7534516Y-15643919I-353553J353553D01*
G01*
X-7534516Y-15643919D01*
G75*
G02*
X-7534516Y-14936813I353553J353553D01*
G01*
G37*
G04 #@! TD.AperFunction*
G04 #@! TA.AperFunction,ComponentPad*
G36*
G01*
X-13643919Y-8827410D02*
X-12866101Y-8049592D01*
G75*
G02*
X-12158995Y-8049592I353553J-353553D01*
G01*
X-12158995Y-8049592D01*
G75*
G02*
X-12158995Y-8756698I-353553J-353553D01*
G01*
X-12936813Y-9534516D01*
G75*
G02*
X-13643919Y-9534516I-353553J353553D01*
G01*
X-13643919Y-9534516D01*
G75*
G02*
X-13643919Y-8827410I353553J353553D01*
G01*
G37*
G04 #@! TD.AperFunction*
G04 #@! TA.AperFunction,ComponentPad*
G36*
G01*
X-16422848Y-11606340D02*
X-15998584Y-11182076D01*
G75*
G02*
X-15291478Y-11182076I353553J-353553D01*
G01*
X-15291478Y-11182076D01*
G75*
G02*
X-15291478Y-11889182I-353553J-353553D01*
G01*
X-15715742Y-12313446D01*
G75*
G02*
X-16422848Y-12313446I-353553J353553D01*
G01*
X-16422848Y-12313446D01*
G75*
G02*
X-16422848Y-11606340I353553J353553D01*
G01*
G37*
G04 #@! TD.AperFunction*
G04 #@! TA.AperFunction,ComponentPad*
G36*
G01*
X-10313446Y-17715742D02*
X-9889182Y-17291478D01*
G75*
G02*
X-9182076Y-17291478I353553J-353553D01*
G01*
X-9182076Y-17291478D01*
G75*
G02*
X-9182076Y-17998584I-353553J-353553D01*
G01*
X-9606340Y-18422848D01*
G75*
G02*
X-10313446Y-18422848I-353553J353553D01*
G01*
X-10313446Y-18422848D01*
G75*
G02*
X-10313446Y-17715742I353553J353553D01*
G01*
G37*
G04 #@! TD.AperFunction*
D10*
X-4320000Y12870000D03*
X4320000Y12870000D03*
D11*
X4320000Y17050000D03*
X-4320000Y17050000D03*
D12*
X3810000Y-13240000D03*
X1270000Y-13240000D03*
X-1270000Y-13240000D03*
X-3810000Y-13240000D03*
X3810000Y-10700000D03*
X1270000Y-10700000D03*
X-1270000Y-10700000D03*
X-3810000Y-10700000D03*
D13*
X750000Y-1850000D03*
D14*
X-1400000Y3400000D03*
X-1400000Y600000D03*
X1400000Y600000D03*
X1400000Y3400000D03*
X0Y2000000D03*
D15*
X6000000Y16400000D03*
X-6000000Y16400000D03*
X6200000Y1750000D03*
X5750000Y650000D03*
X6000000Y-17000000D03*
X-5950000Y-16950000D03*
D14*
X-3800000Y-15400000D03*
X4300000Y11100000D03*
X-4300000Y11100000D03*
X11700000Y-7600000D03*
X5700000Y-13700000D03*
X-11700000Y-7500000D03*
D15*
X4675000Y-2250000D03*
X2900000Y-6200000D03*
X-1700000Y-4000000D03*
X-5799999Y220000D03*
X-6223000Y-1800000D03*
X7454001Y-5000000D03*
X-3700000Y-6500000D03*
X6200000Y5650000D03*
X7600000Y-2600000D03*
X-5799999Y-750000D03*
X-4740000Y-2670000D03*
X-4350000Y6800000D03*
X-3300000Y-9500000D03*
X3375000Y-11875000D03*
D14*
X5425000Y7650000D03*
X9450000Y-8000000D03*
X6000000Y-11450000D03*
X-10024422Y-8574422D03*
X-6400000Y-11850000D03*
X4400000Y9700000D03*
D15*
X-5643356Y4743356D03*
X-1400000Y6950000D03*
X-7900000Y-10100000D03*
X-7500000Y-7600000D03*
X7356644Y-10593356D03*
X8600000Y-9350000D03*
X1950000Y-11900000D03*
X2750000Y-7550000D03*
X625000Y-11875000D03*
X327000Y13750000D03*
X-1200000Y13700000D03*
D14*
X1250000Y10577000D03*
X-2450000Y10577000D03*
D16*
X-3810000Y-15390000D02*
X-3800000Y-15400000D01*
X-3810000Y-13240000D02*
X-3810000Y-15390000D01*
X-3810000Y-13240000D02*
X-3810000Y-10710000D01*
D17*
X-3700000Y-6500000D02*
X-3700000Y-4300000D01*
X-3700000Y-4300000D02*
X-1250000Y-1850000D01*
X-1700000Y-4000000D02*
X400000Y-4000000D01*
X400000Y-4000000D02*
X800000Y-3600000D01*
X800000Y-3600000D02*
X-450000Y-2350000D01*
X-450000Y-2350000D02*
X-450000Y-1850000D01*
X-450000Y-1850000D02*
X750000Y-1850000D01*
X-1250000Y-1850000D02*
X-450000Y-1850000D01*
X3810000Y-11440000D02*
X3375000Y-11875000D01*
X3810000Y-10700000D02*
X3810000Y-11440000D01*
D16*
X6000000Y-10813604D02*
X8813604Y-8000000D01*
X8813604Y-8000000D02*
X9450000Y-8000000D01*
X6000000Y-11450000D02*
X6000000Y-10813604D01*
X-6400000Y-7624038D02*
X-7151039Y-6872999D01*
X-6400000Y-11850000D02*
X-6400000Y-7624038D01*
X-8004021Y-6020017D02*
X-6400000Y-7624038D01*
X-8004021Y4221941D02*
X-8004021Y-6020017D01*
X-2525962Y9700000D02*
X-8004021Y4221941D01*
X4400000Y9700000D02*
X-2525962Y9700000D01*
X-8004021Y-6554021D02*
X-8004021Y-6020017D01*
X-10024422Y-8574422D02*
X-8004021Y-6554021D01*
X1172999Y-16277001D02*
X-4220961Y-16277001D01*
X6000000Y-11450000D02*
X1172999Y-16277001D01*
X-5476136Y-12773864D02*
X-6400000Y-11850000D01*
X-5476136Y-15021826D02*
X-5476136Y-12773864D01*
X-4220961Y-16277001D02*
X-5476136Y-15021826D01*
D17*
X-1270000Y-10700000D02*
X-1270000Y-10603266D01*
X-7377011Y3009701D02*
X-5643356Y4743356D01*
X-7377011Y-5760301D02*
X-7377011Y3009701D01*
X-4264313Y-8872999D02*
X-3027001Y-8872999D01*
X-7377011Y-5760301D02*
X-4264313Y-8872999D01*
X-3027001Y-8872999D02*
X-1650000Y-10250000D01*
X-6850001Y-5542007D02*
X-6850001Y2649999D01*
X-2550000Y6950000D02*
X-6850001Y2649999D01*
X-1400000Y6950000D02*
X-2550000Y6950000D01*
X-4046019Y-8345989D02*
X-1079011Y-8345989D01*
X-6850001Y-5542007D02*
X-4046019Y-8345989D01*
X-1079011Y-8345989D02*
X1300000Y-10725000D01*
X-7900000Y-8000000D02*
X-7500000Y-7600000D01*
X-7900000Y-10100000D02*
X-7900000Y-8000000D01*
X7356644Y-10593356D02*
X8600000Y-9350000D01*
X2732999Y-7567001D02*
X2750000Y-7550000D01*
X2732999Y-11117001D02*
X2732999Y-7567001D01*
X1950000Y-11900000D02*
X2732999Y-11117001D01*
X1950000Y-11900000D02*
X1950000Y-12425000D01*
X1950000Y-12425000D02*
X1250000Y-13125000D01*
X625000Y-11875000D02*
X-750000Y-13250000D01*
X-750000Y-13250000D02*
X-1250000Y-13250000D01*
D18*
X277000Y13700000D02*
X327000Y13750000D01*
X-1200000Y13700000D02*
X277000Y13700000D01*
D16*
X1250000Y10577000D02*
X-2450000Y10577000D01*
D19*
X-8939020Y-5974075D02*
X-8943545Y-6020017D01*
X-8939021Y-6065949D01*
X-8939021Y-6166731D01*
X-10294096Y-7521807D01*
X-10340905Y-7531118D01*
X-10538362Y-7612907D01*
X-10716069Y-7731647D01*
X-10867197Y-7882775D01*
X-10985937Y-8060482D01*
X-11067726Y-8257939D01*
X-11109422Y-8467559D01*
X-11109422Y-8681285D01*
X-11067726Y-8890905D01*
X-10985937Y-9088362D01*
X-10867197Y-9266069D01*
X-10716069Y-9417197D01*
X-10538362Y-9535937D01*
X-10340905Y-9617726D01*
X-10131285Y-9659422D01*
X-9917559Y-9659422D01*
X-9707939Y-9617726D01*
X-9510482Y-9535937D01*
X-9332775Y-9417197D01*
X-9181647Y-9266069D01*
X-9062907Y-9088362D01*
X-8981118Y-8890905D01*
X-8971807Y-8844096D01*
X-8734999Y-8607289D01*
X-8735000Y-9672595D01*
X-8799068Y-9827271D01*
X-8835000Y-10007911D01*
X-8835000Y-10192089D01*
X-8799068Y-10372729D01*
X-8728586Y-10542889D01*
X-8626262Y-10696028D01*
X-8496028Y-10826262D01*
X-8342889Y-10928586D01*
X-8172729Y-10999068D01*
X-7992089Y-11035000D01*
X-7807911Y-11035000D01*
X-7627271Y-10999068D01*
X-7457111Y-10928586D01*
X-7335000Y-10846994D01*
X-7335000Y-11296377D01*
X-7361515Y-11336060D01*
X-7443304Y-11533517D01*
X-7485000Y-11743137D01*
X-7485000Y-11956863D01*
X-7443304Y-12166483D01*
X-7361515Y-12363940D01*
X-7242775Y-12541647D01*
X-7091647Y-12692775D01*
X-6913940Y-12811515D01*
X-6716483Y-12893304D01*
X-6669675Y-12902615D01*
X-6411135Y-13161155D01*
X-6411135Y-13375758D01*
X-6500013Y-13374580D01*
X-6720159Y-13415344D01*
X-6928121Y-13498273D01*
X-7115909Y-13620180D01*
X-7321038Y-13825309D01*
X-7327243Y-13810330D01*
X-7432303Y-13653097D01*
X-7566020Y-13519380D01*
X-7723253Y-13414320D01*
X-7897962Y-13341953D01*
X-8083432Y-13305061D01*
X-8272536Y-13305061D01*
X-8458006Y-13341953D01*
X-8632715Y-13414320D01*
X-8789948Y-13519380D01*
X-8923665Y-13653097D01*
X-9028725Y-13810330D01*
X-9101092Y-13985039D01*
X-9137984Y-14170509D01*
X-9137984Y-14359613D01*
X-9101092Y-14545083D01*
X-9028725Y-14719792D01*
X-8923665Y-14877025D01*
X-8789948Y-15010742D01*
X-8632715Y-15115802D01*
X-8458006Y-15188169D01*
X-8318634Y-15215892D01*
X-8315963Y-15417366D01*
X-8269378Y-15636353D01*
X-8168079Y-15850568D01*
X-7955212Y-15885010D01*
X-6971659Y-14901457D01*
X-6985802Y-14887315D01*
X-6806197Y-14707710D01*
X-6792054Y-14721852D01*
X-6777912Y-14707710D01*
X-6598307Y-14887315D01*
X-6612449Y-14901457D01*
X-6598307Y-14915600D01*
X-6777912Y-15095205D01*
X-6792054Y-15081062D01*
X-7775607Y-16064615D01*
X-7741165Y-16277482D01*
X-7526950Y-16378781D01*
X-7307963Y-16425366D01*
X-7084095Y-16428334D01*
X-6863949Y-16387570D01*
X-6655987Y-16304641D01*
X-6468199Y-16182734D01*
X-6079290Y-15793826D01*
X-6079291Y-15793826D01*
X-6052858Y-15767393D01*
X-4914587Y-16905665D01*
X-4885305Y-16941345D01*
X-4742933Y-17058187D01*
X-4646826Y-17109557D01*
X-4580502Y-17145008D01*
X-4404253Y-17198473D01*
X-4220961Y-17216525D01*
X-4175026Y-17212001D01*
X-4002837Y-17212001D01*
X-4611506Y-17439573D01*
X-4622433Y-17444438D01*
X-4633751Y-17448335D01*
X-4687911Y-17473590D01*
X-5851938Y-18079543D01*
X-5862206Y-18085713D01*
X-5872950Y-18090953D01*
X-5923628Y-18122620D01*
X-7005131Y-18865915D01*
X-7014565Y-18873285D01*
X-7024596Y-18879800D01*
X-7071038Y-18917408D01*
X-8044400Y-19778566D01*
X-8060575Y-19791840D01*
X-9649999Y-21381264D01*
X-12187719Y-18843544D01*
X-10554537Y-18843544D01*
X-10520095Y-19056411D01*
X-10305880Y-19157711D01*
X-10086893Y-19204295D01*
X-9863025Y-19207263D01*
X-9642879Y-19166499D01*
X-9434917Y-19083570D01*
X-9247129Y-18961664D01*
X-9034997Y-18749532D01*
X-9747761Y-18036768D01*
X-10554537Y-18843544D01*
X-12187719Y-18843544D01*
X-13058836Y-17972427D01*
X-11097861Y-17972427D01*
X-11094893Y-18196295D01*
X-11048309Y-18415282D01*
X-10947009Y-18629497D01*
X-10734142Y-18663939D01*
X-9927366Y-17857163D01*
X-9568156Y-17857163D01*
X-8855392Y-18569927D01*
X-8643260Y-18357795D01*
X-8521354Y-18170007D01*
X-8438425Y-17962045D01*
X-8397661Y-17741899D01*
X-8400629Y-17518031D01*
X-8447213Y-17299044D01*
X-8548513Y-17084829D01*
X-8761380Y-17050387D01*
X-9568156Y-17857163D01*
X-9927366Y-17857163D01*
X-10640130Y-17144399D01*
X-10852262Y-17356531D01*
X-10974168Y-17544319D01*
X-11057097Y-17752281D01*
X-11097861Y-17972427D01*
X-13058836Y-17972427D01*
X-14066469Y-16964794D01*
X-10460525Y-16964794D01*
X-9747761Y-17677558D01*
X-8940985Y-16870782D01*
X-8975427Y-16657915D01*
X-9189642Y-16556615D01*
X-9408629Y-16510031D01*
X-9632497Y-16507063D01*
X-9852643Y-16547827D01*
X-10060605Y-16630756D01*
X-10248393Y-16752662D01*
X-10460525Y-16964794D01*
X-14066469Y-16964794D01*
X-18297121Y-12734142D01*
X-16663939Y-12734142D01*
X-16629497Y-12947009D01*
X-16415282Y-13048309D01*
X-16196295Y-13094893D01*
X-15972427Y-13097861D01*
X-15752281Y-13057097D01*
X-15544319Y-12974168D01*
X-15356531Y-12852262D01*
X-15144399Y-12640130D01*
X-15857163Y-11927366D01*
X-16663939Y-12734142D01*
X-18297121Y-12734142D01*
X-19168238Y-11863025D01*
X-17207263Y-11863025D01*
X-17204295Y-12086893D01*
X-17157711Y-12305880D01*
X-17056411Y-12520095D01*
X-16843544Y-12554537D01*
X-16036768Y-11747761D01*
X-15677558Y-11747761D01*
X-14964794Y-12460525D01*
X-14752662Y-12248393D01*
X-14630756Y-12060605D01*
X-14547827Y-11852643D01*
X-14507063Y-11632497D01*
X-14510031Y-11408629D01*
X-14556615Y-11189642D01*
X-14657915Y-10975427D01*
X-14870782Y-10940985D01*
X-15677558Y-11747761D01*
X-16036768Y-11747761D01*
X-16749532Y-11034997D01*
X-16961664Y-11247129D01*
X-17083570Y-11434917D01*
X-17166499Y-11642879D01*
X-17207263Y-11863025D01*
X-19168238Y-11863025D01*
X-19380926Y-11650338D01*
X-18584869Y-10855392D01*
X-16569927Y-10855392D01*
X-15857163Y-11568156D01*
X-15050387Y-10761380D01*
X-15084829Y-10548513D01*
X-15299044Y-10447213D01*
X-15518031Y-10400629D01*
X-15741899Y-10397661D01*
X-15962045Y-10438425D01*
X-16170007Y-10521354D01*
X-16357795Y-10643260D01*
X-16569927Y-10855392D01*
X-18584869Y-10855392D01*
X-17683431Y-9955212D01*
X-13885010Y-9955212D01*
X-13850568Y-10168079D01*
X-13636353Y-10269378D01*
X-13417366Y-10315963D01*
X-13215892Y-10318634D01*
X-13188169Y-10458006D01*
X-13115802Y-10632715D01*
X-13010742Y-10789948D01*
X-12877025Y-10923665D01*
X-12719792Y-11028725D01*
X-12545083Y-11101092D01*
X-12359613Y-11137984D01*
X-12170509Y-11137984D01*
X-11985039Y-11101092D01*
X-11810330Y-11028725D01*
X-11653097Y-10923665D01*
X-11519380Y-10789948D01*
X-11414320Y-10632715D01*
X-11341953Y-10458006D01*
X-11305061Y-10272536D01*
X-11305061Y-10083432D01*
X-11341953Y-9897962D01*
X-11414320Y-9723253D01*
X-11519380Y-9566020D01*
X-11653097Y-9432303D01*
X-11810330Y-9327243D01*
X-11825309Y-9321038D01*
X-11620180Y-9115909D01*
X-11498273Y-8928121D01*
X-11415344Y-8720159D01*
X-11374580Y-8500013D01*
X-11377548Y-8276145D01*
X-11424133Y-8057158D01*
X-11525432Y-7842943D01*
X-11738299Y-7808501D01*
X-12721852Y-8792054D01*
X-12707710Y-8806197D01*
X-12887315Y-8985802D01*
X-12901457Y-8971659D01*
X-13885010Y-9955212D01*
X-17683431Y-9955212D01*
X-16811096Y-9084095D01*
X-14428334Y-9084095D01*
X-14425366Y-9307963D01*
X-14378781Y-9526950D01*
X-14277482Y-9741165D01*
X-14064615Y-9775607D01*
X-13081062Y-8792054D01*
X-13793826Y-8079290D01*
X-14182734Y-8468199D01*
X-14304641Y-8655987D01*
X-14387570Y-8863949D01*
X-14428334Y-9084095D01*
X-16811096Y-9084095D01*
X-15625030Y-7899685D01*
X-13614221Y-7899685D01*
X-12901457Y-8612449D01*
X-11917904Y-7628896D01*
X-11952346Y-7416029D01*
X-12166561Y-7314730D01*
X-12385548Y-7268145D01*
X-12609416Y-7265177D01*
X-12829562Y-7305941D01*
X-13037524Y-7388870D01*
X-13225312Y-7510777D01*
X-13614221Y-7899685D01*
X-15625030Y-7899685D01*
X-13088169Y-5366367D01*
X-13023963Y-5288242D01*
X-13015113Y-5271713D01*
X-11944761Y-3814605D01*
X-11943580Y-3812864D01*
X-11942295Y-3811225D01*
X-11917499Y-3774602D01*
X-10796437Y-1997827D01*
X-10794640Y-1994728D01*
X-10792641Y-1991741D01*
X-10770708Y-1953444D01*
X-10770661Y-1953362D01*
X-10770656Y-1953351D01*
X-9785974Y-97531D01*
X-9784408Y-94291D01*
X-9782646Y-91177D01*
X-9763605Y-51258D01*
X-8939021Y1831662D01*
X-8939020Y-5974075D01*
G04 #@! TA.AperFunction,Conductor*
D20*
G36*
X-8939020Y-5974075D02*
G01*
X-8943545Y-6020017D01*
X-8939021Y-6065949D01*
X-8939021Y-6166731D01*
X-10294096Y-7521807D01*
X-10340905Y-7531118D01*
X-10538362Y-7612907D01*
X-10716069Y-7731647D01*
X-10867197Y-7882775D01*
X-10985937Y-8060482D01*
X-11067726Y-8257939D01*
X-11109422Y-8467559D01*
X-11109422Y-8681285D01*
X-11067726Y-8890905D01*
X-10985937Y-9088362D01*
X-10867197Y-9266069D01*
X-10716069Y-9417197D01*
X-10538362Y-9535937D01*
X-10340905Y-9617726D01*
X-10131285Y-9659422D01*
X-9917559Y-9659422D01*
X-9707939Y-9617726D01*
X-9510482Y-9535937D01*
X-9332775Y-9417197D01*
X-9181647Y-9266069D01*
X-9062907Y-9088362D01*
X-8981118Y-8890905D01*
X-8971807Y-8844096D01*
X-8734999Y-8607289D01*
X-8735000Y-9672595D01*
X-8799068Y-9827271D01*
X-8835000Y-10007911D01*
X-8835000Y-10192089D01*
X-8799068Y-10372729D01*
X-8728586Y-10542889D01*
X-8626262Y-10696028D01*
X-8496028Y-10826262D01*
X-8342889Y-10928586D01*
X-8172729Y-10999068D01*
X-7992089Y-11035000D01*
X-7807911Y-11035000D01*
X-7627271Y-10999068D01*
X-7457111Y-10928586D01*
X-7335000Y-10846994D01*
X-7335000Y-11296377D01*
X-7361515Y-11336060D01*
X-7443304Y-11533517D01*
X-7485000Y-11743137D01*
X-7485000Y-11956863D01*
X-7443304Y-12166483D01*
X-7361515Y-12363940D01*
X-7242775Y-12541647D01*
X-7091647Y-12692775D01*
X-6913940Y-12811515D01*
X-6716483Y-12893304D01*
X-6669675Y-12902615D01*
X-6411135Y-13161155D01*
X-6411135Y-13375758D01*
X-6500013Y-13374580D01*
X-6720159Y-13415344D01*
X-6928121Y-13498273D01*
X-7115909Y-13620180D01*
X-7321038Y-13825309D01*
X-7327243Y-13810330D01*
X-7432303Y-13653097D01*
X-7566020Y-13519380D01*
X-7723253Y-13414320D01*
X-7897962Y-13341953D01*
X-8083432Y-13305061D01*
X-8272536Y-13305061D01*
X-8458006Y-13341953D01*
X-8632715Y-13414320D01*
X-8789948Y-13519380D01*
X-8923665Y-13653097D01*
X-9028725Y-13810330D01*
X-9101092Y-13985039D01*
X-9137984Y-14170509D01*
X-9137984Y-14359613D01*
X-9101092Y-14545083D01*
X-9028725Y-14719792D01*
X-8923665Y-14877025D01*
X-8789948Y-15010742D01*
X-8632715Y-15115802D01*
X-8458006Y-15188169D01*
X-8318634Y-15215892D01*
X-8315963Y-15417366D01*
X-8269378Y-15636353D01*
X-8168079Y-15850568D01*
X-7955212Y-15885010D01*
X-6971659Y-14901457D01*
X-6985802Y-14887315D01*
X-6806197Y-14707710D01*
X-6792054Y-14721852D01*
X-6777912Y-14707710D01*
X-6598307Y-14887315D01*
X-6612449Y-14901457D01*
X-6598307Y-14915600D01*
X-6777912Y-15095205D01*
X-6792054Y-15081062D01*
X-7775607Y-16064615D01*
X-7741165Y-16277482D01*
X-7526950Y-16378781D01*
X-7307963Y-16425366D01*
X-7084095Y-16428334D01*
X-6863949Y-16387570D01*
X-6655987Y-16304641D01*
X-6468199Y-16182734D01*
X-6079290Y-15793826D01*
X-6079291Y-15793826D01*
X-6052858Y-15767393D01*
X-4914587Y-16905665D01*
X-4885305Y-16941345D01*
X-4742933Y-17058187D01*
X-4646826Y-17109557D01*
X-4580502Y-17145008D01*
X-4404253Y-17198473D01*
X-4220961Y-17216525D01*
X-4175026Y-17212001D01*
X-4002837Y-17212001D01*
X-4611506Y-17439573D01*
X-4622433Y-17444438D01*
X-4633751Y-17448335D01*
X-4687911Y-17473590D01*
X-5851938Y-18079543D01*
X-5862206Y-18085713D01*
X-5872950Y-18090953D01*
X-5923628Y-18122620D01*
X-7005131Y-18865915D01*
X-7014565Y-18873285D01*
X-7024596Y-18879800D01*
X-7071038Y-18917408D01*
X-8044400Y-19778566D01*
X-8060575Y-19791840D01*
X-9649999Y-21381264D01*
X-12187719Y-18843544D01*
X-10554537Y-18843544D01*
X-10520095Y-19056411D01*
X-10305880Y-19157711D01*
X-10086893Y-19204295D01*
X-9863025Y-19207263D01*
X-9642879Y-19166499D01*
X-9434917Y-19083570D01*
X-9247129Y-18961664D01*
X-9034997Y-18749532D01*
X-9747761Y-18036768D01*
X-10554537Y-18843544D01*
X-12187719Y-18843544D01*
X-13058836Y-17972427D01*
X-11097861Y-17972427D01*
X-11094893Y-18196295D01*
X-11048309Y-18415282D01*
X-10947009Y-18629497D01*
X-10734142Y-18663939D01*
X-9927366Y-17857163D01*
X-9568156Y-17857163D01*
X-8855392Y-18569927D01*
X-8643260Y-18357795D01*
X-8521354Y-18170007D01*
X-8438425Y-17962045D01*
X-8397661Y-17741899D01*
X-8400629Y-17518031D01*
X-8447213Y-17299044D01*
X-8548513Y-17084829D01*
X-8761380Y-17050387D01*
X-9568156Y-17857163D01*
X-9927366Y-17857163D01*
X-10640130Y-17144399D01*
X-10852262Y-17356531D01*
X-10974168Y-17544319D01*
X-11057097Y-17752281D01*
X-11097861Y-17972427D01*
X-13058836Y-17972427D01*
X-14066469Y-16964794D01*
X-10460525Y-16964794D01*
X-9747761Y-17677558D01*
X-8940985Y-16870782D01*
X-8975427Y-16657915D01*
X-9189642Y-16556615D01*
X-9408629Y-16510031D01*
X-9632497Y-16507063D01*
X-9852643Y-16547827D01*
X-10060605Y-16630756D01*
X-10248393Y-16752662D01*
X-10460525Y-16964794D01*
X-14066469Y-16964794D01*
X-18297121Y-12734142D01*
X-16663939Y-12734142D01*
X-16629497Y-12947009D01*
X-16415282Y-13048309D01*
X-16196295Y-13094893D01*
X-15972427Y-13097861D01*
X-15752281Y-13057097D01*
X-15544319Y-12974168D01*
X-15356531Y-12852262D01*
X-15144399Y-12640130D01*
X-15857163Y-11927366D01*
X-16663939Y-12734142D01*
X-18297121Y-12734142D01*
X-19168238Y-11863025D01*
X-17207263Y-11863025D01*
X-17204295Y-12086893D01*
X-17157711Y-12305880D01*
X-17056411Y-12520095D01*
X-16843544Y-12554537D01*
X-16036768Y-11747761D01*
X-15677558Y-11747761D01*
X-14964794Y-12460525D01*
X-14752662Y-12248393D01*
X-14630756Y-12060605D01*
X-14547827Y-11852643D01*
X-14507063Y-11632497D01*
X-14510031Y-11408629D01*
X-14556615Y-11189642D01*
X-14657915Y-10975427D01*
X-14870782Y-10940985D01*
X-15677558Y-11747761D01*
X-16036768Y-11747761D01*
X-16749532Y-11034997D01*
X-16961664Y-11247129D01*
X-17083570Y-11434917D01*
X-17166499Y-11642879D01*
X-17207263Y-11863025D01*
X-19168238Y-11863025D01*
X-19380926Y-11650338D01*
X-18584869Y-10855392D01*
X-16569927Y-10855392D01*
X-15857163Y-11568156D01*
X-15050387Y-10761380D01*
X-15084829Y-10548513D01*
X-15299044Y-10447213D01*
X-15518031Y-10400629D01*
X-15741899Y-10397661D01*
X-15962045Y-10438425D01*
X-16170007Y-10521354D01*
X-16357795Y-10643260D01*
X-16569927Y-10855392D01*
X-18584869Y-10855392D01*
X-17683431Y-9955212D01*
X-13885010Y-9955212D01*
X-13850568Y-10168079D01*
X-13636353Y-10269378D01*
X-13417366Y-10315963D01*
X-13215892Y-10318634D01*
X-13188169Y-10458006D01*
X-13115802Y-10632715D01*
X-13010742Y-10789948D01*
X-12877025Y-10923665D01*
X-12719792Y-11028725D01*
X-12545083Y-11101092D01*
X-12359613Y-11137984D01*
X-12170509Y-11137984D01*
X-11985039Y-11101092D01*
X-11810330Y-11028725D01*
X-11653097Y-10923665D01*
X-11519380Y-10789948D01*
X-11414320Y-10632715D01*
X-11341953Y-10458006D01*
X-11305061Y-10272536D01*
X-11305061Y-10083432D01*
X-11341953Y-9897962D01*
X-11414320Y-9723253D01*
X-11519380Y-9566020D01*
X-11653097Y-9432303D01*
X-11810330Y-9327243D01*
X-11825309Y-9321038D01*
X-11620180Y-9115909D01*
X-11498273Y-8928121D01*
X-11415344Y-8720159D01*
X-11374580Y-8500013D01*
X-11377548Y-8276145D01*
X-11424133Y-8057158D01*
X-11525432Y-7842943D01*
X-11738299Y-7808501D01*
X-12721852Y-8792054D01*
X-12707710Y-8806197D01*
X-12887315Y-8985802D01*
X-12901457Y-8971659D01*
X-13885010Y-9955212D01*
X-17683431Y-9955212D01*
X-16811096Y-9084095D01*
X-14428334Y-9084095D01*
X-14425366Y-9307963D01*
X-14378781Y-9526950D01*
X-14277482Y-9741165D01*
X-14064615Y-9775607D01*
X-13081062Y-8792054D01*
X-13793826Y-8079290D01*
X-14182734Y-8468199D01*
X-14304641Y-8655987D01*
X-14387570Y-8863949D01*
X-14428334Y-9084095D01*
X-16811096Y-9084095D01*
X-15625030Y-7899685D01*
X-13614221Y-7899685D01*
X-12901457Y-8612449D01*
X-11917904Y-7628896D01*
X-11952346Y-7416029D01*
X-12166561Y-7314730D01*
X-12385548Y-7268145D01*
X-12609416Y-7265177D01*
X-12829562Y-7305941D01*
X-13037524Y-7388870D01*
X-13225312Y-7510777D01*
X-13614221Y-7899685D01*
X-15625030Y-7899685D01*
X-13088169Y-5366367D01*
X-13023963Y-5288242D01*
X-13015113Y-5271713D01*
X-11944761Y-3814605D01*
X-11943580Y-3812864D01*
X-11942295Y-3811225D01*
X-11917499Y-3774602D01*
X-10796437Y-1997827D01*
X-10794640Y-1994728D01*
X-10792641Y-1991741D01*
X-10770708Y-1953444D01*
X-10770661Y-1953362D01*
X-10770656Y-1953351D01*
X-9785974Y-97531D01*
X-9784408Y-94291D01*
X-9782646Y-91177D01*
X-9763605Y-51258D01*
X-8939021Y1831662D01*
X-8939020Y-5974075D01*
G37*
G04 #@! TD.AperFunction*
D19*
X6915001Y12376353D02*
X6916113Y12365058D01*
X6976815Y10533440D01*
X6976962Y10531356D01*
X6976966Y10529281D01*
X6980125Y10485165D01*
X7197769Y8395586D01*
X7198273Y8392040D01*
X7198549Y8388456D01*
X7205007Y8344702D01*
X7578713Y6277323D01*
X7579484Y6273817D01*
X7580026Y6270271D01*
X7589747Y6227125D01*
X8117410Y4193586D01*
X8118441Y4190150D01*
X8119248Y4186652D01*
X8132176Y4144356D01*
X8810826Y2156104D01*
X8812114Y2152749D01*
X8813179Y2149328D01*
X8829242Y2108120D01*
X9655057Y176349D01*
X9656595Y173095D01*
X9657912Y169768D01*
X9677019Y129881D01*
X10645353Y-1734533D01*
X10647123Y-1737649D01*
X10648692Y-1740881D01*
X10670655Y-1779081D01*
X10670736Y-1779224D01*
X10670749Y-1779243D01*
X11776135Y-3565786D01*
X11778143Y-3568774D01*
X11779942Y-3571866D01*
X11804799Y-3608448D01*
X13014631Y-5270812D01*
X13023963Y-5288241D01*
X13088169Y-5366365D01*
X19380925Y-11650338D01*
X9650000Y-21381264D01*
X8060574Y-19791840D01*
X8046706Y-19780459D01*
X7222304Y-19038163D01*
X7215277Y-19032574D01*
X7208821Y-19026339D01*
X7161730Y-18989548D01*
X6825240Y-18749532D01*
X9034997Y-18749532D01*
X9247129Y-18961664D01*
X9434917Y-19083570D01*
X9642879Y-19166499D01*
X9863025Y-19207263D01*
X10086893Y-19204295D01*
X10305880Y-19157711D01*
X10520095Y-19056411D01*
X10554537Y-18843544D01*
X9747761Y-18036768D01*
X9034997Y-18749532D01*
X6825240Y-18749532D01*
X6093365Y-18227491D01*
X6083217Y-18221150D01*
X6073661Y-18213949D01*
X6022438Y-18183170D01*
X5209719Y-17741899D01*
X8397661Y-17741899D01*
X8438425Y-17962045D01*
X8521354Y-18170007D01*
X8643260Y-18357795D01*
X8855392Y-18569927D01*
X9568156Y-17857163D01*
X9927366Y-17857163D01*
X10734142Y-18663939D01*
X10947009Y-18629497D01*
X11048309Y-18415282D01*
X11094893Y-18196295D01*
X11097861Y-17972427D01*
X11057097Y-17752281D01*
X10974168Y-17544319D01*
X10852262Y-17356531D01*
X10640130Y-17144399D01*
X9927366Y-17857163D01*
X9568156Y-17857163D01*
X8761380Y-17050387D01*
X8548513Y-17084829D01*
X8447213Y-17299044D01*
X8400629Y-17518031D01*
X8397661Y-17741899D01*
X5209719Y-17741899D01*
X4869164Y-17556993D01*
X4858314Y-17551933D01*
X4847955Y-17545953D01*
X4793363Y-17521647D01*
X3572374Y-17040687D01*
X3560993Y-17036989D01*
X3549979Y-17032314D01*
X3492831Y-17014842D01*
X2935793Y-16870782D01*
X8940985Y-16870782D01*
X9747761Y-17677558D01*
X10460525Y-16964794D01*
X10248393Y-16752662D01*
X10060605Y-16630756D01*
X9852643Y-16547827D01*
X9632497Y-16507063D01*
X9408629Y-16510031D01*
X9189642Y-16556615D01*
X8975427Y-16657915D01*
X8940985Y-16870782D01*
X2935793Y-16870782D01*
X2222329Y-16686268D01*
X2210579Y-16683984D01*
X2199081Y-16680687D01*
X2140230Y-16670309D01*
X2106430Y-16665859D01*
X2978463Y-15793826D01*
X6079290Y-15793826D01*
X6468199Y-16182734D01*
X6655987Y-16304641D01*
X6863949Y-16387570D01*
X7084095Y-16428334D01*
X7307963Y-16425366D01*
X7526950Y-16378781D01*
X7741165Y-16277482D01*
X7775607Y-16064615D01*
X6792054Y-15081062D01*
X6079290Y-15793826D01*
X2978463Y-15793826D01*
X4162873Y-14609416D01*
X5265177Y-14609416D01*
X5305941Y-14829562D01*
X5388870Y-15037524D01*
X5510777Y-15225312D01*
X5899685Y-15614221D01*
X6612449Y-14901457D01*
X5628896Y-13917904D01*
X5416029Y-13952346D01*
X5314730Y-14166561D01*
X5268145Y-14385548D01*
X5265177Y-14609416D01*
X4162873Y-14609416D01*
X4197169Y-14575121D01*
X4213989Y-14571775D01*
X4466043Y-14467371D01*
X4692886Y-14315799D01*
X4885799Y-14122886D01*
X5037371Y-13896043D01*
X5102710Y-13738299D01*
X5808501Y-13738299D01*
X6792054Y-14721852D01*
X6806197Y-14707710D01*
X6985802Y-14887315D01*
X6971659Y-14901457D01*
X7955212Y-15885010D01*
X8168079Y-15850568D01*
X8269378Y-15636353D01*
X8315963Y-15417366D01*
X8318634Y-15215892D01*
X8458006Y-15188169D01*
X8632715Y-15115802D01*
X8789948Y-15010742D01*
X8923665Y-14877025D01*
X9028725Y-14719792D01*
X9101092Y-14545083D01*
X9137984Y-14359613D01*
X9137984Y-14170509D01*
X9101092Y-13985039D01*
X9028725Y-13810330D01*
X8923665Y-13653097D01*
X8789948Y-13519380D01*
X8632715Y-13414320D01*
X8458006Y-13341953D01*
X8272536Y-13305061D01*
X8083432Y-13305061D01*
X7897962Y-13341953D01*
X7723253Y-13414320D01*
X7566020Y-13519380D01*
X7432303Y-13653097D01*
X7327243Y-13810330D01*
X7321038Y-13825309D01*
X7115909Y-13620180D01*
X6928121Y-13498273D01*
X6720159Y-13415344D01*
X6500013Y-13374580D01*
X6276145Y-13377548D01*
X6057158Y-13424133D01*
X5842943Y-13525432D01*
X5808501Y-13738299D01*
X5102710Y-13738299D01*
X5141775Y-13643989D01*
X5145121Y-13627169D01*
X6132160Y-12640130D01*
X15144399Y-12640130D01*
X15356531Y-12852262D01*
X15544319Y-12974168D01*
X15752281Y-13057097D01*
X15972427Y-13097861D01*
X16196295Y-13094893D01*
X16415282Y-13048309D01*
X16629497Y-12947009D01*
X16663939Y-12734142D01*
X15857163Y-11927366D01*
X15144399Y-12640130D01*
X6132160Y-12640130D01*
X6269675Y-12502615D01*
X6316483Y-12493304D01*
X6513940Y-12411515D01*
X6691647Y-12292775D01*
X6842775Y-12141647D01*
X6961515Y-11963940D01*
X7043304Y-11766483D01*
X7069955Y-11632497D01*
X14507063Y-11632497D01*
X14547827Y-11852643D01*
X14630756Y-12060605D01*
X14752662Y-12248393D01*
X14964794Y-12460525D01*
X15677558Y-11747761D01*
X16036768Y-11747761D01*
X16843544Y-12554537D01*
X17056411Y-12520095D01*
X17157711Y-12305880D01*
X17204295Y-12086893D01*
X17207263Y-11863025D01*
X17166499Y-11642879D01*
X17083570Y-11434917D01*
X16961664Y-11247129D01*
X16749532Y-11034997D01*
X16036768Y-11747761D01*
X15677558Y-11747761D01*
X14870782Y-10940985D01*
X14657915Y-10975427D01*
X14556615Y-11189642D01*
X14510031Y-11408629D01*
X14507063Y-11632497D01*
X7069955Y-11632497D01*
X7085000Y-11556863D01*
X7085000Y-11492640D01*
X7264555Y-11528356D01*
X7448733Y-11528356D01*
X7629373Y-11492424D01*
X7799533Y-11421942D01*
X7952672Y-11319618D01*
X8082906Y-11189384D01*
X8185230Y-11036245D01*
X8249298Y-10881569D01*
X8888215Y-10242654D01*
X9042889Y-10178586D01*
X9185297Y-10083432D01*
X11305061Y-10083432D01*
X11305061Y-10272536D01*
X11341953Y-10458006D01*
X11414320Y-10632715D01*
X11519380Y-10789948D01*
X11653097Y-10923665D01*
X11810330Y-11028725D01*
X11985039Y-11101092D01*
X12170509Y-11137984D01*
X12359613Y-11137984D01*
X12545083Y-11101092D01*
X12719792Y-11028725D01*
X12877025Y-10923665D01*
X13010742Y-10789948D01*
X13029830Y-10761380D01*
X15050387Y-10761380D01*
X15857163Y-11568156D01*
X16569927Y-10855392D01*
X16357795Y-10643260D01*
X16170007Y-10521354D01*
X15962045Y-10438425D01*
X15741899Y-10397661D01*
X15518031Y-10400629D01*
X15299044Y-10447213D01*
X15084829Y-10548513D01*
X15050387Y-10761380D01*
X13029830Y-10761380D01*
X13115802Y-10632715D01*
X13188169Y-10458006D01*
X13215892Y-10318634D01*
X13417366Y-10315963D01*
X13636353Y-10269378D01*
X13850568Y-10168079D01*
X13885010Y-9955212D01*
X12901457Y-8971659D01*
X12887315Y-8985802D01*
X12707710Y-8806197D01*
X12721852Y-8792054D01*
X13081062Y-8792054D01*
X14064615Y-9775607D01*
X14277482Y-9741165D01*
X14378781Y-9526950D01*
X14425366Y-9307963D01*
X14428334Y-9084095D01*
X14387570Y-8863949D01*
X14304641Y-8655987D01*
X14182734Y-8468199D01*
X13793826Y-8079290D01*
X13081062Y-8792054D01*
X12721852Y-8792054D01*
X11738299Y-7808501D01*
X11525432Y-7842943D01*
X11424133Y-8057158D01*
X11377548Y-8276145D01*
X11374580Y-8500013D01*
X11415344Y-8720159D01*
X11498273Y-8928121D01*
X11620180Y-9115909D01*
X11825309Y-9321038D01*
X11810330Y-9327243D01*
X11653097Y-9432303D01*
X11519380Y-9566020D01*
X11414320Y-9723253D01*
X11341953Y-9897962D01*
X11305061Y-10083432D01*
X9185297Y-10083432D01*
X9196028Y-10076262D01*
X9326262Y-9946028D01*
X9428586Y-9792889D01*
X9499068Y-9622729D01*
X9535000Y-9442089D01*
X9535000Y-9257911D01*
X9500605Y-9085000D01*
X9556863Y-9085000D01*
X9766483Y-9043304D01*
X9963940Y-8961515D01*
X10141647Y-8842775D01*
X10292775Y-8691647D01*
X10411515Y-8513940D01*
X10493304Y-8316483D01*
X10535000Y-8106863D01*
X10535000Y-7893137D01*
X10493304Y-7683517D01*
X10470680Y-7628896D01*
X11917904Y-7628896D01*
X12901457Y-8612449D01*
X13614221Y-7899685D01*
X13225312Y-7510777D01*
X13037524Y-7388870D01*
X12829562Y-7305941D01*
X12609416Y-7265177D01*
X12385548Y-7268145D01*
X12166561Y-7314730D01*
X11952346Y-7416029D01*
X11917904Y-7628896D01*
X10470680Y-7628896D01*
X10411515Y-7486060D01*
X10292775Y-7308353D01*
X10141647Y-7157225D01*
X9963940Y-7038485D01*
X9766483Y-6956696D01*
X9556863Y-6915000D01*
X9343137Y-6915000D01*
X9133517Y-6956696D01*
X8936060Y-7038485D01*
X8896377Y-7065000D01*
X8859536Y-7065000D01*
X8813604Y-7060476D01*
X8767672Y-7065000D01*
X8630312Y-7078529D01*
X8454064Y-7131993D01*
X8291632Y-7218814D01*
X8149260Y-7335656D01*
X8119974Y-7371341D01*
X5371336Y-10119979D01*
X5335657Y-10149260D01*
X5218815Y-10291632D01*
X5162035Y-10397862D01*
X5141775Y-10296011D01*
X5037371Y-10043957D01*
X4885799Y-9817114D01*
X4692886Y-9624201D01*
X4466043Y-9472629D01*
X4213989Y-9368225D01*
X3946411Y-9315000D01*
X3673589Y-9315000D01*
X3567999Y-9336003D01*
X3567999Y-8008734D01*
X3578586Y-7992889D01*
X3649068Y-7822729D01*
X3685000Y-7642089D01*
X3685000Y-7457911D01*
X3649068Y-7277271D01*
X3628056Y-7226543D01*
X3648195Y-7224560D01*
X3672020Y-7217333D01*
X3693976Y-7205597D01*
X3713222Y-7189803D01*
X3729016Y-7170557D01*
X3740752Y-7148601D01*
X3747979Y-7124776D01*
X3750419Y-7100000D01*
X3750419Y-3375000D01*
X3747979Y-3350224D01*
X3740752Y-3326399D01*
X3729016Y-3304443D01*
X3713222Y-3285197D01*
X3693976Y-3269403D01*
X3672020Y-3257667D01*
X3648195Y-3250440D01*
X3623419Y-3248000D01*
X1499626Y-3248000D01*
X731073Y-2507911D01*
X6665000Y-2507911D01*
X6665000Y-2692089D01*
X6700932Y-2872729D01*
X6771414Y-3042889D01*
X6873738Y-3196028D01*
X7003972Y-3326262D01*
X7157111Y-3428586D01*
X7327271Y-3499068D01*
X7507911Y-3535000D01*
X7692089Y-3535000D01*
X7872729Y-3499068D01*
X8042889Y-3428586D01*
X8196028Y-3326262D01*
X8326262Y-3196028D01*
X8428586Y-3042889D01*
X8499068Y-2872729D01*
X8535000Y-2692089D01*
X8535000Y-2507911D01*
X8499068Y-2327271D01*
X8428586Y-2157111D01*
X8326262Y-2003972D01*
X8196028Y-1873738D01*
X8042889Y-1771414D01*
X7872729Y-1700932D01*
X7692089Y-1665000D01*
X7507911Y-1665000D01*
X7327271Y-1700932D01*
X7157111Y-1771414D01*
X7003972Y-1873738D01*
X6873738Y-2003972D01*
X6771414Y-2157111D01*
X6700932Y-2327271D01*
X6665000Y-2507911D01*
X731073Y-2507911D01*
X225484Y-2021048D01*
X227000Y-750152D01*
X224589Y-725372D01*
X217391Y-701539D01*
X205681Y-679569D01*
X189910Y-660305D01*
X170683Y-644488D01*
X148741Y-632725D01*
X124925Y-625470D01*
X100000Y-623000D01*
X-2100000Y-623000D01*
X-2124776Y-625440D01*
X-2148601Y-632667D01*
X-2170557Y-644403D01*
X-2189803Y-660197D01*
X-2205597Y-679443D01*
X-2217333Y-701399D01*
X-2224560Y-725224D01*
X-2227000Y-749799D01*
X-2228499Y-1698165D01*
X-3230043Y-2723000D01*
X-3805000Y-2723000D01*
X-3805000Y-2577911D01*
X-3840932Y-2397271D01*
X-3911414Y-2227111D01*
X-4013738Y-2073972D01*
X-4143972Y-1943738D01*
X-4297111Y-1841414D01*
X-4467271Y-1770932D01*
X-4647911Y-1735000D01*
X-4832089Y-1735000D01*
X-5012729Y-1770932D01*
X-5182889Y-1841414D01*
X-5336028Y-1943738D01*
X-5466262Y-2073972D01*
X-5568586Y-2227111D01*
X-5639068Y-2397271D01*
X-5675000Y-2577911D01*
X-5675000Y-2762089D01*
X-5639068Y-2942729D01*
X-5568586Y-3112889D01*
X-5466262Y-3266028D01*
X-5336028Y-3396262D01*
X-5328581Y-3401238D01*
X-5328581Y-5882560D01*
X-6015001Y-5196140D01*
X-6015001Y-1660551D01*
X-5892088Y-1685000D01*
X-5707910Y-1685000D01*
X-5527270Y-1649068D01*
X-5357110Y-1578586D01*
X-5203971Y-1476262D01*
X-5073737Y-1346028D01*
X-4971413Y-1192889D01*
X-4900931Y-1022729D01*
X-4864999Y-842089D01*
X-4864999Y-657911D01*
X-4900931Y-477271D01*
X-4971413Y-307111D01*
X-5073737Y-153972D01*
X-5203971Y-23738D01*
X-5357110Y78586D01*
X-5527270Y149068D01*
X-5707910Y185000D01*
X-5892088Y185000D01*
X-6015001Y160551D01*
X-6015001Y2304132D01*
X-2577043Y5742089D01*
X5265000Y5742089D01*
X5265000Y5557911D01*
X5300932Y5377271D01*
X5371414Y5207111D01*
X5473738Y5053972D01*
X5603972Y4923738D01*
X5757111Y4821414D01*
X5927271Y4750932D01*
X6107911Y4715000D01*
X6292089Y4715000D01*
X6472729Y4750932D01*
X6642889Y4821414D01*
X6796028Y4923738D01*
X6926262Y5053972D01*
X7028586Y5207111D01*
X7099068Y5377271D01*
X7135000Y5557911D01*
X7135000Y5742089D01*
X7099068Y5922729D01*
X7028586Y6092889D01*
X6926262Y6246028D01*
X6796028Y6376262D01*
X6642889Y6478586D01*
X6472729Y6549068D01*
X6292089Y6585000D01*
X6107911Y6585000D01*
X5927271Y6549068D01*
X5757111Y6478586D01*
X5603972Y6376262D01*
X5473738Y6246028D01*
X5371414Y6092889D01*
X5300932Y5922729D01*
X5265000Y5742089D01*
X-2577043Y5742089D01*
X-2204131Y6115000D01*
X-1827404Y6115000D01*
X-1672729Y6050932D01*
X-1492089Y6015000D01*
X-1307911Y6015000D01*
X-1127271Y6050932D01*
X-957111Y6121414D01*
X-803972Y6223738D01*
X-673738Y6353972D01*
X-571414Y6507111D01*
X-500932Y6677271D01*
X-465000Y6857911D01*
X-465000Y7042089D01*
X-500932Y7222729D01*
X-571414Y7392889D01*
X-673738Y7546028D01*
X-803972Y7676262D01*
X-924600Y7756863D01*
X4340000Y7756863D01*
X4340000Y7543137D01*
X4381696Y7333517D01*
X4463485Y7136060D01*
X4582225Y6958353D01*
X4733353Y6807225D01*
X4911060Y6688485D01*
X5108517Y6606696D01*
X5318137Y6565000D01*
X5531863Y6565000D01*
X5741483Y6606696D01*
X5938940Y6688485D01*
X6116647Y6807225D01*
X6267775Y6958353D01*
X6386515Y7136060D01*
X6468304Y7333517D01*
X6510000Y7543137D01*
X6510000Y7756863D01*
X6468304Y7966483D01*
X6386515Y8163940D01*
X6267775Y8341647D01*
X6116647Y8492775D01*
X5938940Y8611515D01*
X5741483Y8693304D01*
X5531863Y8735000D01*
X5318137Y8735000D01*
X5108517Y8693304D01*
X4911060Y8611515D01*
X4733353Y8492775D01*
X4582225Y8341647D01*
X4463485Y8163940D01*
X4381696Y7966483D01*
X4340000Y7756863D01*
X-924600Y7756863D01*
X-957111Y7778586D01*
X-1127271Y7849068D01*
X-1307911Y7885000D01*
X-1492089Y7885000D01*
X-1672729Y7849068D01*
X-1827404Y7785000D01*
X-2508982Y7785000D01*
X-2550000Y7789040D01*
X-2591018Y7785000D01*
X-2591019Y7785000D01*
X-2713689Y7772918D01*
X-2871087Y7725172D01*
X-3016146Y7647636D01*
X-3143291Y7543291D01*
X-3169437Y7511432D01*
X-3496977Y7183892D01*
X-3521414Y7242889D01*
X-3577237Y7326435D01*
X-2138672Y8765000D01*
X3846377Y8765000D01*
X3886060Y8738485D01*
X4083517Y8656696D01*
X4293137Y8615000D01*
X4506863Y8615000D01*
X4716483Y8656696D01*
X4913940Y8738485D01*
X5091647Y8857225D01*
X5242775Y9008353D01*
X5361515Y9186060D01*
X5443304Y9383517D01*
X5485000Y9593137D01*
X5485000Y9806863D01*
X5443304Y10016483D01*
X5361515Y10213940D01*
X5242775Y10391647D01*
X5091647Y10542775D01*
X4913940Y10661515D01*
X4716483Y10743304D01*
X4506863Y10785000D01*
X4293137Y10785000D01*
X4083517Y10743304D01*
X3886060Y10661515D01*
X3846377Y10635000D01*
X2335000Y10635000D01*
X2335000Y10683863D01*
X2293304Y10893483D01*
X2211515Y11090940D01*
X2092775Y11268647D01*
X1941647Y11419775D01*
X1763940Y11538515D01*
X1566483Y11620304D01*
X1356863Y11662000D01*
X1143137Y11662000D01*
X933517Y11620304D01*
X736060Y11538515D01*
X696377Y11512000D01*
X-1896377Y11512000D01*
X-1936060Y11538515D01*
X-2133517Y11620304D01*
X-2343137Y11662000D01*
X-2556863Y11662000D01*
X-2766483Y11620304D01*
X-2963940Y11538515D01*
X-3141647Y11419775D01*
X-3292775Y11268647D01*
X-3411515Y11090940D01*
X-3493304Y10893483D01*
X-3535000Y10683863D01*
X-3535000Y10470137D01*
X-3493304Y10260517D01*
X-3433094Y10115158D01*
X-7673892Y5874360D01*
X-7645183Y5981129D01*
X-7644382Y5984628D01*
X-7643357Y5988065D01*
X-7633749Y6031047D01*
X-7633708Y6031228D01*
X-7633704Y6031254D01*
X-7241842Y8095241D01*
X-7241303Y8098803D01*
X-7240542Y8102295D01*
X-7234157Y8146060D01*
X-6998152Y10233646D01*
X-6997883Y10237229D01*
X-6997384Y10240777D01*
X-6994298Y10284898D01*
X-6916261Y12363549D01*
X-6915000Y12376353D01*
X-6915000Y12743000D01*
X-5455000Y12743000D01*
X-5455000Y12193000D01*
X-5408415Y11974013D01*
X-5320003Y11768322D01*
X-5193161Y11583831D01*
X-5032764Y11427631D01*
X-4844976Y11305724D01*
X-4621874Y11225881D01*
X-4447000Y11352046D01*
X-4447000Y12743000D01*
X-5455000Y12743000D01*
X-6915000Y12743000D01*
X-6915000Y13547000D01*
X-5455000Y13547000D01*
X-5455000Y12997000D01*
X-4447000Y12997000D01*
X-4447000Y14387954D01*
X-4193000Y14387954D01*
X-4193000Y12997000D01*
X-4173000Y12997000D01*
X-4173000Y12743000D01*
X-4193000Y12743000D01*
X-4193000Y11352046D01*
X-4018126Y11225881D01*
X-3795024Y11305724D01*
X-3607236Y11427631D01*
X-3446839Y11583831D01*
X-3319997Y11768322D01*
X-3231585Y11974013D01*
X-3185000Y12193000D01*
X-3185000Y12483096D01*
X-3170022Y12476892D01*
X-2984552Y12440000D01*
X-2795448Y12440000D01*
X-2609978Y12476892D01*
X-2435269Y12549259D01*
X-2278036Y12654319D01*
X-2144319Y12788036D01*
X-2039259Y12945269D01*
X-1966892Y13119978D01*
X-1960025Y13154502D01*
X-1926262Y13103972D01*
X-1796028Y12973738D01*
X-1642889Y12871414D01*
X-1472729Y12800932D01*
X-1292089Y12765000D01*
X-1107911Y12765000D01*
X-927271Y12800932D01*
X-757111Y12871414D01*
X-691880Y12915000D01*
X-100404Y12915000D01*
X54271Y12850932D01*
X234911Y12815000D01*
X419089Y12815000D01*
X599729Y12850932D01*
X769889Y12921414D01*
X923028Y13023738D01*
X1053262Y13153972D01*
X1155586Y13307111D01*
X1226068Y13477271D01*
X1229505Y13494552D01*
X1930000Y13494552D01*
X1930000Y13305448D01*
X1966892Y13119978D01*
X2039259Y12945269D01*
X2144319Y12788036D01*
X2278036Y12654319D01*
X2435269Y12549259D01*
X2609978Y12476892D01*
X2795448Y12440000D01*
X2984552Y12440000D01*
X3170022Y12476892D01*
X3185000Y12483096D01*
X3185000Y12193000D01*
X3231585Y11974013D01*
X3319997Y11768322D01*
X3446839Y11583831D01*
X3607236Y11427631D01*
X3795024Y11305724D01*
X4018126Y11225881D01*
X4193000Y11352046D01*
X4193000Y12743000D01*
X4447000Y12743000D01*
X4447000Y11352046D01*
X4621874Y11225881D01*
X4844976Y11305724D01*
X5032764Y11427631D01*
X5193161Y11583831D01*
X5320003Y11768322D01*
X5408415Y11974013D01*
X5455000Y12193000D01*
X5455000Y12743000D01*
X4447000Y12743000D01*
X4193000Y12743000D01*
X4173000Y12743000D01*
X4173000Y12997000D01*
X4193000Y12997000D01*
X4193000Y14387954D01*
X4447000Y14387954D01*
X4447000Y12997000D01*
X5455000Y12997000D01*
X5455000Y13547000D01*
X5408415Y13765987D01*
X5320003Y13971678D01*
X5193161Y14156169D01*
X5032764Y14312369D01*
X4844976Y14434276D01*
X4621874Y14514119D01*
X4447000Y14387954D01*
X4193000Y14387954D01*
X4018126Y14514119D01*
X3795024Y14434276D01*
X3607236Y14312369D01*
X3462884Y14171794D01*
X3344731Y14250741D01*
X3170022Y14323108D01*
X2984552Y14360000D01*
X2795448Y14360000D01*
X2609978Y14323108D01*
X2435269Y14250741D01*
X2278036Y14145681D01*
X2144319Y14011964D01*
X2039259Y13854731D01*
X1966892Y13680022D01*
X1930000Y13494552D01*
X1229505Y13494552D01*
X1262000Y13657911D01*
X1262000Y13842089D01*
X1226068Y14022729D01*
X1155586Y14192889D01*
X1053262Y14346028D01*
X923028Y14476262D01*
X769889Y14578586D01*
X599729Y14649068D01*
X419089Y14685000D01*
X234911Y14685000D01*
X54271Y14649068D01*
X-115889Y14578586D01*
X-255951Y14485000D01*
X-691880Y14485000D01*
X-757111Y14528586D01*
X-927271Y14599068D01*
X-1107911Y14635000D01*
X-1292089Y14635000D01*
X-1472729Y14599068D01*
X-1642889Y14528586D01*
X-1796028Y14426262D01*
X-1926262Y14296028D01*
X-2028586Y14142889D01*
X-2099068Y13972729D01*
X-2103435Y13950776D01*
X-2144319Y14011964D01*
X-2278036Y14145681D01*
X-2435269Y14250741D01*
X-2609978Y14323108D01*
X-2795448Y14360000D01*
X-2984552Y14360000D01*
X-3170022Y14323108D01*
X-3344731Y14250741D01*
X-3462884Y14171794D01*
X-3607236Y14312369D01*
X-3795024Y14434276D01*
X-4018126Y14514119D01*
X-4193000Y14387954D01*
X-4447000Y14387954D01*
X-4621874Y14514119D01*
X-4844976Y14434276D01*
X-5032764Y14312369D01*
X-5193161Y14156169D01*
X-5320003Y13971678D01*
X-5408415Y13765987D01*
X-5455000Y13547000D01*
X-6915000Y13547000D01*
X-6915000Y16923000D01*
X-5455000Y16923000D01*
X-5455000Y16623000D01*
X-5408415Y16404013D01*
X-5320003Y16198322D01*
X-5193161Y16013831D01*
X-5032764Y15857631D01*
X-4844976Y15735724D01*
X-4621874Y15655881D01*
X-4447000Y15782046D01*
X-4447000Y16923000D01*
X-4193000Y16923000D01*
X-4193000Y15782046D01*
X-4018126Y15655881D01*
X-3795024Y15735724D01*
X-3607236Y15857631D01*
X-3446839Y16013831D01*
X-3319997Y16198322D01*
X-3231585Y16404013D01*
X-3185000Y16623000D01*
X-3185000Y16923000D01*
X3185000Y16923000D01*
X3185000Y16623000D01*
X3231585Y16404013D01*
X3319997Y16198322D01*
X3446839Y16013831D01*
X3607236Y15857631D01*
X3795024Y15735724D01*
X4018126Y15655881D01*
X4193000Y15782046D01*
X4193000Y16923000D01*
X4447000Y16923000D01*
X4447000Y15782046D01*
X4621874Y15655881D01*
X4844976Y15735724D01*
X5032764Y15857631D01*
X5193161Y16013831D01*
X5320003Y16198322D01*
X5408415Y16404013D01*
X5455000Y16623000D01*
X5455000Y16923000D01*
X4447000Y16923000D01*
X4193000Y16923000D01*
X3185000Y16923000D01*
X-3185000Y16923000D01*
X-4193000Y16923000D01*
X-4447000Y16923000D01*
X-5455000Y16923000D01*
X-6915000Y16923000D01*
X-6915000Y17477000D01*
X-5455000Y17477000D01*
X-5455000Y17177000D01*
X-4447000Y17177000D01*
X-4447000Y18317954D01*
X-4193000Y18317954D01*
X-4193000Y17177000D01*
X-3185000Y17177000D01*
X-3185000Y17477000D01*
X3185000Y17477000D01*
X3185000Y17177000D01*
X4193000Y17177000D01*
X4193000Y18317954D01*
X4447000Y18317954D01*
X4447000Y17177000D01*
X5455000Y17177000D01*
X5455000Y17477000D01*
X5408415Y17695987D01*
X5320003Y17901678D01*
X5193161Y18086169D01*
X5032764Y18242369D01*
X4844976Y18364276D01*
X4621874Y18444119D01*
X4447000Y18317954D01*
X4193000Y18317954D01*
X4018126Y18444119D01*
X3795024Y18364276D01*
X3607236Y18242369D01*
X3446839Y18086169D01*
X3319997Y17901678D01*
X3231585Y17695987D01*
X3185000Y17477000D01*
X-3185000Y17477000D01*
X-3231585Y17695987D01*
X-3319997Y17901678D01*
X-3446839Y18086169D01*
X-3607236Y18242369D01*
X-3795024Y18364276D01*
X-4018126Y18444119D01*
X-4193000Y18317954D01*
X-4447000Y18317954D01*
X-4621874Y18444119D01*
X-4844976Y18364276D01*
X-5032764Y18242369D01*
X-5193161Y18086169D01*
X-5320003Y17901678D01*
X-5408415Y17695987D01*
X-5455000Y17477000D01*
X-6915000Y17477000D01*
X-6915000Y19515000D01*
X6915000Y19515000D01*
X6915001Y12376353D01*
G04 #@! TA.AperFunction,Conductor*
D20*
G36*
X6915001Y12376353D02*
G01*
X6916113Y12365058D01*
X6976815Y10533440D01*
X6976962Y10531356D01*
X6976966Y10529281D01*
X6980125Y10485165D01*
X7197769Y8395586D01*
X7198273Y8392040D01*
X7198549Y8388456D01*
X7205007Y8344702D01*
X7578713Y6277323D01*
X7579484Y6273817D01*
X7580026Y6270271D01*
X7589747Y6227125D01*
X8117410Y4193586D01*
X8118441Y4190150D01*
X8119248Y4186652D01*
X8132176Y4144356D01*
X8810826Y2156104D01*
X8812114Y2152749D01*
X8813179Y2149328D01*
X8829242Y2108120D01*
X9655057Y176349D01*
X9656595Y173095D01*
X9657912Y169768D01*
X9677019Y129881D01*
X10645353Y-1734533D01*
X10647123Y-1737649D01*
X10648692Y-1740881D01*
X10670655Y-1779081D01*
X10670736Y-1779224D01*
X10670749Y-1779243D01*
X11776135Y-3565786D01*
X11778143Y-3568774D01*
X11779942Y-3571866D01*
X11804799Y-3608448D01*
X13014631Y-5270812D01*
X13023963Y-5288241D01*
X13088169Y-5366365D01*
X19380925Y-11650338D01*
X9650000Y-21381264D01*
X8060574Y-19791840D01*
X8046706Y-19780459D01*
X7222304Y-19038163D01*
X7215277Y-19032574D01*
X7208821Y-19026339D01*
X7161730Y-18989548D01*
X6825240Y-18749532D01*
X9034997Y-18749532D01*
X9247129Y-18961664D01*
X9434917Y-19083570D01*
X9642879Y-19166499D01*
X9863025Y-19207263D01*
X10086893Y-19204295D01*
X10305880Y-19157711D01*
X10520095Y-19056411D01*
X10554537Y-18843544D01*
X9747761Y-18036768D01*
X9034997Y-18749532D01*
X6825240Y-18749532D01*
X6093365Y-18227491D01*
X6083217Y-18221150D01*
X6073661Y-18213949D01*
X6022438Y-18183170D01*
X5209719Y-17741899D01*
X8397661Y-17741899D01*
X8438425Y-17962045D01*
X8521354Y-18170007D01*
X8643260Y-18357795D01*
X8855392Y-18569927D01*
X9568156Y-17857163D01*
X9927366Y-17857163D01*
X10734142Y-18663939D01*
X10947009Y-18629497D01*
X11048309Y-18415282D01*
X11094893Y-18196295D01*
X11097861Y-17972427D01*
X11057097Y-17752281D01*
X10974168Y-17544319D01*
X10852262Y-17356531D01*
X10640130Y-17144399D01*
X9927366Y-17857163D01*
X9568156Y-17857163D01*
X8761380Y-17050387D01*
X8548513Y-17084829D01*
X8447213Y-17299044D01*
X8400629Y-17518031D01*
X8397661Y-17741899D01*
X5209719Y-17741899D01*
X4869164Y-17556993D01*
X4858314Y-17551933D01*
X4847955Y-17545953D01*
X4793363Y-17521647D01*
X3572374Y-17040687D01*
X3560993Y-17036989D01*
X3549979Y-17032314D01*
X3492831Y-17014842D01*
X2935793Y-16870782D01*
X8940985Y-16870782D01*
X9747761Y-17677558D01*
X10460525Y-16964794D01*
X10248393Y-16752662D01*
X10060605Y-16630756D01*
X9852643Y-16547827D01*
X9632497Y-16507063D01*
X9408629Y-16510031D01*
X9189642Y-16556615D01*
X8975427Y-16657915D01*
X8940985Y-16870782D01*
X2935793Y-16870782D01*
X2222329Y-16686268D01*
X2210579Y-16683984D01*
X2199081Y-16680687D01*
X2140230Y-16670309D01*
X2106430Y-16665859D01*
X2978463Y-15793826D01*
X6079290Y-15793826D01*
X6468199Y-16182734D01*
X6655987Y-16304641D01*
X6863949Y-16387570D01*
X7084095Y-16428334D01*
X7307963Y-16425366D01*
X7526950Y-16378781D01*
X7741165Y-16277482D01*
X7775607Y-16064615D01*
X6792054Y-15081062D01*
X6079290Y-15793826D01*
X2978463Y-15793826D01*
X4162873Y-14609416D01*
X5265177Y-14609416D01*
X5305941Y-14829562D01*
X5388870Y-15037524D01*
X5510777Y-15225312D01*
X5899685Y-15614221D01*
X6612449Y-14901457D01*
X5628896Y-13917904D01*
X5416029Y-13952346D01*
X5314730Y-14166561D01*
X5268145Y-14385548D01*
X5265177Y-14609416D01*
X4162873Y-14609416D01*
X4197169Y-14575121D01*
X4213989Y-14571775D01*
X4466043Y-14467371D01*
X4692886Y-14315799D01*
X4885799Y-14122886D01*
X5037371Y-13896043D01*
X5102710Y-13738299D01*
X5808501Y-13738299D01*
X6792054Y-14721852D01*
X6806197Y-14707710D01*
X6985802Y-14887315D01*
X6971659Y-14901457D01*
X7955212Y-15885010D01*
X8168079Y-15850568D01*
X8269378Y-15636353D01*
X8315963Y-15417366D01*
X8318634Y-15215892D01*
X8458006Y-15188169D01*
X8632715Y-15115802D01*
X8789948Y-15010742D01*
X8923665Y-14877025D01*
X9028725Y-14719792D01*
X9101092Y-14545083D01*
X9137984Y-14359613D01*
X9137984Y-14170509D01*
X9101092Y-13985039D01*
X9028725Y-13810330D01*
X8923665Y-13653097D01*
X8789948Y-13519380D01*
X8632715Y-13414320D01*
X8458006Y-13341953D01*
X8272536Y-13305061D01*
X8083432Y-13305061D01*
X7897962Y-13341953D01*
X7723253Y-13414320D01*
X7566020Y-13519380D01*
X7432303Y-13653097D01*
X7327243Y-13810330D01*
X7321038Y-13825309D01*
X7115909Y-13620180D01*
X6928121Y-13498273D01*
X6720159Y-13415344D01*
X6500013Y-13374580D01*
X6276145Y-13377548D01*
X6057158Y-13424133D01*
X5842943Y-13525432D01*
X5808501Y-13738299D01*
X5102710Y-13738299D01*
X5141775Y-13643989D01*
X5145121Y-13627169D01*
X6132160Y-12640130D01*
X15144399Y-12640130D01*
X15356531Y-12852262D01*
X15544319Y-12974168D01*
X15752281Y-13057097D01*
X15972427Y-13097861D01*
X16196295Y-13094893D01*
X16415282Y-13048309D01*
X16629497Y-12947009D01*
X16663939Y-12734142D01*
X15857163Y-11927366D01*
X15144399Y-12640130D01*
X6132160Y-12640130D01*
X6269675Y-12502615D01*
X6316483Y-12493304D01*
X6513940Y-12411515D01*
X6691647Y-12292775D01*
X6842775Y-12141647D01*
X6961515Y-11963940D01*
X7043304Y-11766483D01*
X7069955Y-11632497D01*
X14507063Y-11632497D01*
X14547827Y-11852643D01*
X14630756Y-12060605D01*
X14752662Y-12248393D01*
X14964794Y-12460525D01*
X15677558Y-11747761D01*
X16036768Y-11747761D01*
X16843544Y-12554537D01*
X17056411Y-12520095D01*
X17157711Y-12305880D01*
X17204295Y-12086893D01*
X17207263Y-11863025D01*
X17166499Y-11642879D01*
X17083570Y-11434917D01*
X16961664Y-11247129D01*
X16749532Y-11034997D01*
X16036768Y-11747761D01*
X15677558Y-11747761D01*
X14870782Y-10940985D01*
X14657915Y-10975427D01*
X14556615Y-11189642D01*
X14510031Y-11408629D01*
X14507063Y-11632497D01*
X7069955Y-11632497D01*
X7085000Y-11556863D01*
X7085000Y-11492640D01*
X7264555Y-11528356D01*
X7448733Y-11528356D01*
X7629373Y-11492424D01*
X7799533Y-11421942D01*
X7952672Y-11319618D01*
X8082906Y-11189384D01*
X8185230Y-11036245D01*
X8249298Y-10881569D01*
X8888215Y-10242654D01*
X9042889Y-10178586D01*
X9185297Y-10083432D01*
X11305061Y-10083432D01*
X11305061Y-10272536D01*
X11341953Y-10458006D01*
X11414320Y-10632715D01*
X11519380Y-10789948D01*
X11653097Y-10923665D01*
X11810330Y-11028725D01*
X11985039Y-11101092D01*
X12170509Y-11137984D01*
X12359613Y-11137984D01*
X12545083Y-11101092D01*
X12719792Y-11028725D01*
X12877025Y-10923665D01*
X13010742Y-10789948D01*
X13029830Y-10761380D01*
X15050387Y-10761380D01*
X15857163Y-11568156D01*
X16569927Y-10855392D01*
X16357795Y-10643260D01*
X16170007Y-10521354D01*
X15962045Y-10438425D01*
X15741899Y-10397661D01*
X15518031Y-10400629D01*
X15299044Y-10447213D01*
X15084829Y-10548513D01*
X15050387Y-10761380D01*
X13029830Y-10761380D01*
X13115802Y-10632715D01*
X13188169Y-10458006D01*
X13215892Y-10318634D01*
X13417366Y-10315963D01*
X13636353Y-10269378D01*
X13850568Y-10168079D01*
X13885010Y-9955212D01*
X12901457Y-8971659D01*
X12887315Y-8985802D01*
X12707710Y-8806197D01*
X12721852Y-8792054D01*
X13081062Y-8792054D01*
X14064615Y-9775607D01*
X14277482Y-9741165D01*
X14378781Y-9526950D01*
X14425366Y-9307963D01*
X14428334Y-9084095D01*
X14387570Y-8863949D01*
X14304641Y-8655987D01*
X14182734Y-8468199D01*
X13793826Y-8079290D01*
X13081062Y-8792054D01*
X12721852Y-8792054D01*
X11738299Y-7808501D01*
X11525432Y-7842943D01*
X11424133Y-8057158D01*
X11377548Y-8276145D01*
X11374580Y-8500013D01*
X11415344Y-8720159D01*
X11498273Y-8928121D01*
X11620180Y-9115909D01*
X11825309Y-9321038D01*
X11810330Y-9327243D01*
X11653097Y-9432303D01*
X11519380Y-9566020D01*
X11414320Y-9723253D01*
X11341953Y-9897962D01*
X11305061Y-10083432D01*
X9185297Y-10083432D01*
X9196028Y-10076262D01*
X9326262Y-9946028D01*
X9428586Y-9792889D01*
X9499068Y-9622729D01*
X9535000Y-9442089D01*
X9535000Y-9257911D01*
X9500605Y-9085000D01*
X9556863Y-9085000D01*
X9766483Y-9043304D01*
X9963940Y-8961515D01*
X10141647Y-8842775D01*
X10292775Y-8691647D01*
X10411515Y-8513940D01*
X10493304Y-8316483D01*
X10535000Y-8106863D01*
X10535000Y-7893137D01*
X10493304Y-7683517D01*
X10470680Y-7628896D01*
X11917904Y-7628896D01*
X12901457Y-8612449D01*
X13614221Y-7899685D01*
X13225312Y-7510777D01*
X13037524Y-7388870D01*
X12829562Y-7305941D01*
X12609416Y-7265177D01*
X12385548Y-7268145D01*
X12166561Y-7314730D01*
X11952346Y-7416029D01*
X11917904Y-7628896D01*
X10470680Y-7628896D01*
X10411515Y-7486060D01*
X10292775Y-7308353D01*
X10141647Y-7157225D01*
X9963940Y-7038485D01*
X9766483Y-6956696D01*
X9556863Y-6915000D01*
X9343137Y-6915000D01*
X9133517Y-6956696D01*
X8936060Y-7038485D01*
X8896377Y-7065000D01*
X8859536Y-7065000D01*
X8813604Y-7060476D01*
X8767672Y-7065000D01*
X8630312Y-7078529D01*
X8454064Y-7131993D01*
X8291632Y-7218814D01*
X8149260Y-7335656D01*
X8119974Y-7371341D01*
X5371336Y-10119979D01*
X5335657Y-10149260D01*
X5218815Y-10291632D01*
X5162035Y-10397862D01*
X5141775Y-10296011D01*
X5037371Y-10043957D01*
X4885799Y-9817114D01*
X4692886Y-9624201D01*
X4466043Y-9472629D01*
X4213989Y-9368225D01*
X3946411Y-9315000D01*
X3673589Y-9315000D01*
X3567999Y-9336003D01*
X3567999Y-8008734D01*
X3578586Y-7992889D01*
X3649068Y-7822729D01*
X3685000Y-7642089D01*
X3685000Y-7457911D01*
X3649068Y-7277271D01*
X3628056Y-7226543D01*
X3648195Y-7224560D01*
X3672020Y-7217333D01*
X3693976Y-7205597D01*
X3713222Y-7189803D01*
X3729016Y-7170557D01*
X3740752Y-7148601D01*
X3747979Y-7124776D01*
X3750419Y-7100000D01*
X3750419Y-3375000D01*
X3747979Y-3350224D01*
X3740752Y-3326399D01*
X3729016Y-3304443D01*
X3713222Y-3285197D01*
X3693976Y-3269403D01*
X3672020Y-3257667D01*
X3648195Y-3250440D01*
X3623419Y-3248000D01*
X1499626Y-3248000D01*
X731073Y-2507911D01*
X6665000Y-2507911D01*
X6665000Y-2692089D01*
X6700932Y-2872729D01*
X6771414Y-3042889D01*
X6873738Y-3196028D01*
X7003972Y-3326262D01*
X7157111Y-3428586D01*
X7327271Y-3499068D01*
X7507911Y-3535000D01*
X7692089Y-3535000D01*
X7872729Y-3499068D01*
X8042889Y-3428586D01*
X8196028Y-3326262D01*
X8326262Y-3196028D01*
X8428586Y-3042889D01*
X8499068Y-2872729D01*
X8535000Y-2692089D01*
X8535000Y-2507911D01*
X8499068Y-2327271D01*
X8428586Y-2157111D01*
X8326262Y-2003972D01*
X8196028Y-1873738D01*
X8042889Y-1771414D01*
X7872729Y-1700932D01*
X7692089Y-1665000D01*
X7507911Y-1665000D01*
X7327271Y-1700932D01*
X7157111Y-1771414D01*
X7003972Y-1873738D01*
X6873738Y-2003972D01*
X6771414Y-2157111D01*
X6700932Y-2327271D01*
X6665000Y-2507911D01*
X731073Y-2507911D01*
X225484Y-2021048D01*
X227000Y-750152D01*
X224589Y-725372D01*
X217391Y-701539D01*
X205681Y-679569D01*
X189910Y-660305D01*
X170683Y-644488D01*
X148741Y-632725D01*
X124925Y-625470D01*
X100000Y-623000D01*
X-2100000Y-623000D01*
X-2124776Y-625440D01*
X-2148601Y-632667D01*
X-2170557Y-644403D01*
X-2189803Y-660197D01*
X-2205597Y-679443D01*
X-2217333Y-701399D01*
X-2224560Y-725224D01*
X-2227000Y-749799D01*
X-2228499Y-1698165D01*
X-3230043Y-2723000D01*
X-3805000Y-2723000D01*
X-3805000Y-2577911D01*
X-3840932Y-2397271D01*
X-3911414Y-2227111D01*
X-4013738Y-2073972D01*
X-4143972Y-1943738D01*
X-4297111Y-1841414D01*
X-4467271Y-1770932D01*
X-4647911Y-1735000D01*
X-4832089Y-1735000D01*
X-5012729Y-1770932D01*
X-5182889Y-1841414D01*
X-5336028Y-1943738D01*
X-5466262Y-2073972D01*
X-5568586Y-2227111D01*
X-5639068Y-2397271D01*
X-5675000Y-2577911D01*
X-5675000Y-2762089D01*
X-5639068Y-2942729D01*
X-5568586Y-3112889D01*
X-5466262Y-3266028D01*
X-5336028Y-3396262D01*
X-5328581Y-3401238D01*
X-5328581Y-5882560D01*
X-6015001Y-5196140D01*
X-6015001Y-1660551D01*
X-5892088Y-1685000D01*
X-5707910Y-1685000D01*
X-5527270Y-1649068D01*
X-5357110Y-1578586D01*
X-5203971Y-1476262D01*
X-5073737Y-1346028D01*
X-4971413Y-1192889D01*
X-4900931Y-1022729D01*
X-4864999Y-842089D01*
X-4864999Y-657911D01*
X-4900931Y-477271D01*
X-4971413Y-307111D01*
X-5073737Y-153972D01*
X-5203971Y-23738D01*
X-5357110Y78586D01*
X-5527270Y149068D01*
X-5707910Y185000D01*
X-5892088Y185000D01*
X-6015001Y160551D01*
X-6015001Y2304132D01*
X-2577043Y5742089D01*
X5265000Y5742089D01*
X5265000Y5557911D01*
X5300932Y5377271D01*
X5371414Y5207111D01*
X5473738Y5053972D01*
X5603972Y4923738D01*
X5757111Y4821414D01*
X5927271Y4750932D01*
X6107911Y4715000D01*
X6292089Y4715000D01*
X6472729Y4750932D01*
X6642889Y4821414D01*
X6796028Y4923738D01*
X6926262Y5053972D01*
X7028586Y5207111D01*
X7099068Y5377271D01*
X7135000Y5557911D01*
X7135000Y5742089D01*
X7099068Y5922729D01*
X7028586Y6092889D01*
X6926262Y6246028D01*
X6796028Y6376262D01*
X6642889Y6478586D01*
X6472729Y6549068D01*
X6292089Y6585000D01*
X6107911Y6585000D01*
X5927271Y6549068D01*
X5757111Y6478586D01*
X5603972Y6376262D01*
X5473738Y6246028D01*
X5371414Y6092889D01*
X5300932Y5922729D01*
X5265000Y5742089D01*
X-2577043Y5742089D01*
X-2204131Y6115000D01*
X-1827404Y6115000D01*
X-1672729Y6050932D01*
X-1492089Y6015000D01*
X-1307911Y6015000D01*
X-1127271Y6050932D01*
X-957111Y6121414D01*
X-803972Y6223738D01*
X-673738Y6353972D01*
X-571414Y6507111D01*
X-500932Y6677271D01*
X-465000Y6857911D01*
X-465000Y7042089D01*
X-500932Y7222729D01*
X-571414Y7392889D01*
X-673738Y7546028D01*
X-803972Y7676262D01*
X-924600Y7756863D01*
X4340000Y7756863D01*
X4340000Y7543137D01*
X4381696Y7333517D01*
X4463485Y7136060D01*
X4582225Y6958353D01*
X4733353Y6807225D01*
X4911060Y6688485D01*
X5108517Y6606696D01*
X5318137Y6565000D01*
X5531863Y6565000D01*
X5741483Y6606696D01*
X5938940Y6688485D01*
X6116647Y6807225D01*
X6267775Y6958353D01*
X6386515Y7136060D01*
X6468304Y7333517D01*
X6510000Y7543137D01*
X6510000Y7756863D01*
X6468304Y7966483D01*
X6386515Y8163940D01*
X6267775Y8341647D01*
X6116647Y8492775D01*
X5938940Y8611515D01*
X5741483Y8693304D01*
X5531863Y8735000D01*
X5318137Y8735000D01*
X5108517Y8693304D01*
X4911060Y8611515D01*
X4733353Y8492775D01*
X4582225Y8341647D01*
X4463485Y8163940D01*
X4381696Y7966483D01*
X4340000Y7756863D01*
X-924600Y7756863D01*
X-957111Y7778586D01*
X-1127271Y7849068D01*
X-1307911Y7885000D01*
X-1492089Y7885000D01*
X-1672729Y7849068D01*
X-1827404Y7785000D01*
X-2508982Y7785000D01*
X-2550000Y7789040D01*
X-2591018Y7785000D01*
X-2591019Y7785000D01*
X-2713689Y7772918D01*
X-2871087Y7725172D01*
X-3016146Y7647636D01*
X-3143291Y7543291D01*
X-3169437Y7511432D01*
X-3496977Y7183892D01*
X-3521414Y7242889D01*
X-3577237Y7326435D01*
X-2138672Y8765000D01*
X3846377Y8765000D01*
X3886060Y8738485D01*
X4083517Y8656696D01*
X4293137Y8615000D01*
X4506863Y8615000D01*
X4716483Y8656696D01*
X4913940Y8738485D01*
X5091647Y8857225D01*
X5242775Y9008353D01*
X5361515Y9186060D01*
X5443304Y9383517D01*
X5485000Y9593137D01*
X5485000Y9806863D01*
X5443304Y10016483D01*
X5361515Y10213940D01*
X5242775Y10391647D01*
X5091647Y10542775D01*
X4913940Y10661515D01*
X4716483Y10743304D01*
X4506863Y10785000D01*
X4293137Y10785000D01*
X4083517Y10743304D01*
X3886060Y10661515D01*
X3846377Y10635000D01*
X2335000Y10635000D01*
X2335000Y10683863D01*
X2293304Y10893483D01*
X2211515Y11090940D01*
X2092775Y11268647D01*
X1941647Y11419775D01*
X1763940Y11538515D01*
X1566483Y11620304D01*
X1356863Y11662000D01*
X1143137Y11662000D01*
X933517Y11620304D01*
X736060Y11538515D01*
X696377Y11512000D01*
X-1896377Y11512000D01*
X-1936060Y11538515D01*
X-2133517Y11620304D01*
X-2343137Y11662000D01*
X-2556863Y11662000D01*
X-2766483Y11620304D01*
X-2963940Y11538515D01*
X-3141647Y11419775D01*
X-3292775Y11268647D01*
X-3411515Y11090940D01*
X-3493304Y10893483D01*
X-3535000Y10683863D01*
X-3535000Y10470137D01*
X-3493304Y10260517D01*
X-3433094Y10115158D01*
X-7673892Y5874360D01*
X-7645183Y5981129D01*
X-7644382Y5984628D01*
X-7643357Y5988065D01*
X-7633749Y6031047D01*
X-7633708Y6031228D01*
X-7633704Y6031254D01*
X-7241842Y8095241D01*
X-7241303Y8098803D01*
X-7240542Y8102295D01*
X-7234157Y8146060D01*
X-6998152Y10233646D01*
X-6997883Y10237229D01*
X-6997384Y10240777D01*
X-6994298Y10284898D01*
X-6916261Y12363549D01*
X-6915000Y12376353D01*
X-6915000Y12743000D01*
X-5455000Y12743000D01*
X-5455000Y12193000D01*
X-5408415Y11974013D01*
X-5320003Y11768322D01*
X-5193161Y11583831D01*
X-5032764Y11427631D01*
X-4844976Y11305724D01*
X-4621874Y11225881D01*
X-4447000Y11352046D01*
X-4447000Y12743000D01*
X-5455000Y12743000D01*
X-6915000Y12743000D01*
X-6915000Y13547000D01*
X-5455000Y13547000D01*
X-5455000Y12997000D01*
X-4447000Y12997000D01*
X-4447000Y14387954D01*
X-4193000Y14387954D01*
X-4193000Y12997000D01*
X-4173000Y12997000D01*
X-4173000Y12743000D01*
X-4193000Y12743000D01*
X-4193000Y11352046D01*
X-4018126Y11225881D01*
X-3795024Y11305724D01*
X-3607236Y11427631D01*
X-3446839Y11583831D01*
X-3319997Y11768322D01*
X-3231585Y11974013D01*
X-3185000Y12193000D01*
X-3185000Y12483096D01*
X-3170022Y12476892D01*
X-2984552Y12440000D01*
X-2795448Y12440000D01*
X-2609978Y12476892D01*
X-2435269Y12549259D01*
X-2278036Y12654319D01*
X-2144319Y12788036D01*
X-2039259Y12945269D01*
X-1966892Y13119978D01*
X-1960025Y13154502D01*
X-1926262Y13103972D01*
X-1796028Y12973738D01*
X-1642889Y12871414D01*
X-1472729Y12800932D01*
X-1292089Y12765000D01*
X-1107911Y12765000D01*
X-927271Y12800932D01*
X-757111Y12871414D01*
X-691880Y12915000D01*
X-100404Y12915000D01*
X54271Y12850932D01*
X234911Y12815000D01*
X419089Y12815000D01*
X599729Y12850932D01*
X769889Y12921414D01*
X923028Y13023738D01*
X1053262Y13153972D01*
X1155586Y13307111D01*
X1226068Y13477271D01*
X1229505Y13494552D01*
X1930000Y13494552D01*
X1930000Y13305448D01*
X1966892Y13119978D01*
X2039259Y12945269D01*
X2144319Y12788036D01*
X2278036Y12654319D01*
X2435269Y12549259D01*
X2609978Y12476892D01*
X2795448Y12440000D01*
X2984552Y12440000D01*
X3170022Y12476892D01*
X3185000Y12483096D01*
X3185000Y12193000D01*
X3231585Y11974013D01*
X3319997Y11768322D01*
X3446839Y11583831D01*
X3607236Y11427631D01*
X3795024Y11305724D01*
X4018126Y11225881D01*
X4193000Y11352046D01*
X4193000Y12743000D01*
X4447000Y12743000D01*
X4447000Y11352046D01*
X4621874Y11225881D01*
X4844976Y11305724D01*
X5032764Y11427631D01*
X5193161Y11583831D01*
X5320003Y11768322D01*
X5408415Y11974013D01*
X5455000Y12193000D01*
X5455000Y12743000D01*
X4447000Y12743000D01*
X4193000Y12743000D01*
X4173000Y12743000D01*
X4173000Y12997000D01*
X4193000Y12997000D01*
X4193000Y14387954D01*
X4447000Y14387954D01*
X4447000Y12997000D01*
X5455000Y12997000D01*
X5455000Y13547000D01*
X5408415Y13765987D01*
X5320003Y13971678D01*
X5193161Y14156169D01*
X5032764Y14312369D01*
X4844976Y14434276D01*
X4621874Y14514119D01*
X4447000Y14387954D01*
X4193000Y14387954D01*
X4018126Y14514119D01*
X3795024Y14434276D01*
X3607236Y14312369D01*
X3462884Y14171794D01*
X3344731Y14250741D01*
X3170022Y14323108D01*
X2984552Y14360000D01*
X2795448Y14360000D01*
X2609978Y14323108D01*
X2435269Y14250741D01*
X2278036Y14145681D01*
X2144319Y14011964D01*
X2039259Y13854731D01*
X1966892Y13680022D01*
X1930000Y13494552D01*
X1229505Y13494552D01*
X1262000Y13657911D01*
X1262000Y13842089D01*
X1226068Y14022729D01*
X1155586Y14192889D01*
X1053262Y14346028D01*
X923028Y14476262D01*
X769889Y14578586D01*
X599729Y14649068D01*
X419089Y14685000D01*
X234911Y14685000D01*
X54271Y14649068D01*
X-115889Y14578586D01*
X-255951Y14485000D01*
X-691880Y14485000D01*
X-757111Y14528586D01*
X-927271Y14599068D01*
X-1107911Y14635000D01*
X-1292089Y14635000D01*
X-1472729Y14599068D01*
X-1642889Y14528586D01*
X-1796028Y14426262D01*
X-1926262Y14296028D01*
X-2028586Y14142889D01*
X-2099068Y13972729D01*
X-2103435Y13950776D01*
X-2144319Y14011964D01*
X-2278036Y14145681D01*
X-2435269Y14250741D01*
X-2609978Y14323108D01*
X-2795448Y14360000D01*
X-2984552Y14360000D01*
X-3170022Y14323108D01*
X-3344731Y14250741D01*
X-3462884Y14171794D01*
X-3607236Y14312369D01*
X-3795024Y14434276D01*
X-4018126Y14514119D01*
X-4193000Y14387954D01*
X-4447000Y14387954D01*
X-4621874Y14514119D01*
X-4844976Y14434276D01*
X-5032764Y14312369D01*
X-5193161Y14156169D01*
X-5320003Y13971678D01*
X-5408415Y13765987D01*
X-5455000Y13547000D01*
X-6915000Y13547000D01*
X-6915000Y16923000D01*
X-5455000Y16923000D01*
X-5455000Y16623000D01*
X-5408415Y16404013D01*
X-5320003Y16198322D01*
X-5193161Y16013831D01*
X-5032764Y15857631D01*
X-4844976Y15735724D01*
X-4621874Y15655881D01*
X-4447000Y15782046D01*
X-4447000Y16923000D01*
X-4193000Y16923000D01*
X-4193000Y15782046D01*
X-4018126Y15655881D01*
X-3795024Y15735724D01*
X-3607236Y15857631D01*
X-3446839Y16013831D01*
X-3319997Y16198322D01*
X-3231585Y16404013D01*
X-3185000Y16623000D01*
X-3185000Y16923000D01*
X3185000Y16923000D01*
X3185000Y16623000D01*
X3231585Y16404013D01*
X3319997Y16198322D01*
X3446839Y16013831D01*
X3607236Y15857631D01*
X3795024Y15735724D01*
X4018126Y15655881D01*
X4193000Y15782046D01*
X4193000Y16923000D01*
X4447000Y16923000D01*
X4447000Y15782046D01*
X4621874Y15655881D01*
X4844976Y15735724D01*
X5032764Y15857631D01*
X5193161Y16013831D01*
X5320003Y16198322D01*
X5408415Y16404013D01*
X5455000Y16623000D01*
X5455000Y16923000D01*
X4447000Y16923000D01*
X4193000Y16923000D01*
X3185000Y16923000D01*
X-3185000Y16923000D01*
X-4193000Y16923000D01*
X-4447000Y16923000D01*
X-5455000Y16923000D01*
X-6915000Y16923000D01*
X-6915000Y17477000D01*
X-5455000Y17477000D01*
X-5455000Y17177000D01*
X-4447000Y17177000D01*
X-4447000Y18317954D01*
X-4193000Y18317954D01*
X-4193000Y17177000D01*
X-3185000Y17177000D01*
X-3185000Y17477000D01*
X3185000Y17477000D01*
X3185000Y17177000D01*
X4193000Y17177000D01*
X4193000Y18317954D01*
X4447000Y18317954D01*
X4447000Y17177000D01*
X5455000Y17177000D01*
X5455000Y17477000D01*
X5408415Y17695987D01*
X5320003Y17901678D01*
X5193161Y18086169D01*
X5032764Y18242369D01*
X4844976Y18364276D01*
X4621874Y18444119D01*
X4447000Y18317954D01*
X4193000Y18317954D01*
X4018126Y18444119D01*
X3795024Y18364276D01*
X3607236Y18242369D01*
X3446839Y18086169D01*
X3319997Y17901678D01*
X3231585Y17695987D01*
X3185000Y17477000D01*
X-3185000Y17477000D01*
X-3231585Y17695987D01*
X-3319997Y17901678D01*
X-3446839Y18086169D01*
X-3607236Y18242369D01*
X-3795024Y18364276D01*
X-4018126Y18444119D01*
X-4193000Y18317954D01*
X-4447000Y18317954D01*
X-4621874Y18444119D01*
X-4844976Y18364276D01*
X-5032764Y18242369D01*
X-5193161Y18086169D01*
X-5320003Y17901678D01*
X-5408415Y17695987D01*
X-5455000Y17477000D01*
X-6915000Y17477000D01*
X-6915000Y19515000D01*
X6915000Y19515000D01*
X6915001Y12376353D01*
G37*
G04 #@! TD.AperFunction*
D19*
X-4883750Y-9434431D02*
X-4857604Y-9466290D01*
X-4825745Y-9492436D01*
X-4825743Y-9492438D01*
X-4772739Y-9535937D01*
X-4730459Y-9570635D01*
X-4585400Y-9648171D01*
X-4563219Y-9654900D01*
X-4587388Y-9743007D01*
X-3810000Y-10520395D01*
X-3795858Y-10506253D01*
X-3616253Y-10685858D01*
X-3630395Y-10700000D01*
X-2853007Y-11477388D01*
X-2614140Y-11411863D01*
X-2539836Y-11253523D01*
X-2497371Y-11356043D01*
X-2345799Y-11582886D01*
X-2152886Y-11775799D01*
X-1926043Y-11927371D01*
X-1823127Y-11970000D01*
X-1926043Y-12012629D01*
X-2152886Y-12164201D01*
X-2345799Y-12357114D01*
X-2497371Y-12583957D01*
X-2538511Y-12683279D01*
X-2553723Y-12641168D01*
X-2614140Y-12528137D01*
X-2853007Y-12462612D01*
X-3630395Y-13240000D01*
X-2853007Y-14017388D01*
X-2614140Y-13951863D01*
X-2539836Y-13793523D01*
X-2497371Y-13896043D01*
X-2345799Y-14122886D01*
X-2152886Y-14315799D01*
X-1926043Y-14467371D01*
X-1673989Y-14571775D01*
X-1406411Y-14625000D01*
X-1133589Y-14625000D01*
X-866011Y-14571775D01*
X-613957Y-14467371D01*
X-387114Y-14315799D01*
X-194201Y-14122886D01*
X-42629Y-13896043D01*
X0Y-13793127D01*
X42629Y-13896043D01*
X194201Y-14122886D01*
X387114Y-14315799D01*
X613957Y-14467371D01*
X866011Y-14571775D01*
X1133589Y-14625000D01*
X1406411Y-14625000D01*
X1526623Y-14601088D01*
X785710Y-15342001D01*
X-3833671Y-15342001D01*
X-4541136Y-14634537D01*
X-4541136Y-14365602D01*
X-4521863Y-14435860D01*
X-4274884Y-14551760D01*
X-4010040Y-14617250D01*
X-3737508Y-14629812D01*
X-3467762Y-14588965D01*
X-3211168Y-14496277D01*
X-3098137Y-14435860D01*
X-3032612Y-14196993D01*
X-3810000Y-13419605D01*
X-3824143Y-13433748D01*
X-4003748Y-13254143D01*
X-3989605Y-13240000D01*
X-4003748Y-13225858D01*
X-3824143Y-13046253D01*
X-3810000Y-13060395D01*
X-3032612Y-12283007D01*
X-3098137Y-12044140D01*
X-3253096Y-11971422D01*
X-3211168Y-11956277D01*
X-3098137Y-11895860D01*
X-3032612Y-11656993D01*
X-3810000Y-10879605D01*
X-4587388Y-11656993D01*
X-4521863Y-11895860D01*
X-4366904Y-11968578D01*
X-4408832Y-11983723D01*
X-4521863Y-12044140D01*
X-4587387Y-12283005D01*
X-4703843Y-12166549D01*
X-4737427Y-12200133D01*
X-4811792Y-12109520D01*
X-4847472Y-12080238D01*
X-5347385Y-11580325D01*
X-5356696Y-11533517D01*
X-5438485Y-11336060D01*
X-5465000Y-11296377D01*
X-5465000Y-10772492D01*
X-5199812Y-10772492D01*
X-5158965Y-11042238D01*
X-5066277Y-11298832D01*
X-5005860Y-11411863D01*
X-4766993Y-11477388D01*
X-3989605Y-10700000D01*
X-4766993Y-9922612D01*
X-5005860Y-9988137D01*
X-5121760Y-10235116D01*
X-5187250Y-10499960D01*
X-5199812Y-10772492D01*
X-5465000Y-10772492D01*
X-5465000Y-8853181D01*
X-4883750Y-9434431D01*
G04 #@! TA.AperFunction,Conductor*
D20*
G36*
X-4883750Y-9434431D02*
G01*
X-4857604Y-9466290D01*
X-4825745Y-9492436D01*
X-4825743Y-9492438D01*
X-4772739Y-9535937D01*
X-4730459Y-9570635D01*
X-4585400Y-9648171D01*
X-4563219Y-9654900D01*
X-4587388Y-9743007D01*
X-3810000Y-10520395D01*
X-3795858Y-10506253D01*
X-3616253Y-10685858D01*
X-3630395Y-10700000D01*
X-2853007Y-11477388D01*
X-2614140Y-11411863D01*
X-2539836Y-11253523D01*
X-2497371Y-11356043D01*
X-2345799Y-11582886D01*
X-2152886Y-11775799D01*
X-1926043Y-11927371D01*
X-1823127Y-11970000D01*
X-1926043Y-12012629D01*
X-2152886Y-12164201D01*
X-2345799Y-12357114D01*
X-2497371Y-12583957D01*
X-2538511Y-12683279D01*
X-2553723Y-12641168D01*
X-2614140Y-12528137D01*
X-2853007Y-12462612D01*
X-3630395Y-13240000D01*
X-2853007Y-14017388D01*
X-2614140Y-13951863D01*
X-2539836Y-13793523D01*
X-2497371Y-13896043D01*
X-2345799Y-14122886D01*
X-2152886Y-14315799D01*
X-1926043Y-14467371D01*
X-1673989Y-14571775D01*
X-1406411Y-14625000D01*
X-1133589Y-14625000D01*
X-866011Y-14571775D01*
X-613957Y-14467371D01*
X-387114Y-14315799D01*
X-194201Y-14122886D01*
X-42629Y-13896043D01*
X0Y-13793127D01*
X42629Y-13896043D01*
X194201Y-14122886D01*
X387114Y-14315799D01*
X613957Y-14467371D01*
X866011Y-14571775D01*
X1133589Y-14625000D01*
X1406411Y-14625000D01*
X1526623Y-14601088D01*
X785710Y-15342001D01*
X-3833671Y-15342001D01*
X-4541136Y-14634537D01*
X-4541136Y-14365602D01*
X-4521863Y-14435860D01*
X-4274884Y-14551760D01*
X-4010040Y-14617250D01*
X-3737508Y-14629812D01*
X-3467762Y-14588965D01*
X-3211168Y-14496277D01*
X-3098137Y-14435860D01*
X-3032612Y-14196993D01*
X-3810000Y-13419605D01*
X-3824143Y-13433748D01*
X-4003748Y-13254143D01*
X-3989605Y-13240000D01*
X-4003748Y-13225858D01*
X-3824143Y-13046253D01*
X-3810000Y-13060395D01*
X-3032612Y-12283007D01*
X-3098137Y-12044140D01*
X-3253096Y-11971422D01*
X-3211168Y-11956277D01*
X-3098137Y-11895860D01*
X-3032612Y-11656993D01*
X-3810000Y-10879605D01*
X-4587388Y-11656993D01*
X-4521863Y-11895860D01*
X-4366904Y-11968578D01*
X-4408832Y-11983723D01*
X-4521863Y-12044140D01*
X-4587387Y-12283005D01*
X-4703843Y-12166549D01*
X-4737427Y-12200133D01*
X-4811792Y-12109520D01*
X-4847472Y-12080238D01*
X-5347385Y-11580325D01*
X-5356696Y-11533517D01*
X-5438485Y-11336060D01*
X-5465000Y-11296377D01*
X-5465000Y-10772492D01*
X-5199812Y-10772492D01*
X-5158965Y-11042238D01*
X-5066277Y-11298832D01*
X-5005860Y-11411863D01*
X-4766993Y-11477388D01*
X-3989605Y-10700000D01*
X-4766993Y-9922612D01*
X-5005860Y-9988137D01*
X-5121760Y-10235116D01*
X-5187250Y-10499960D01*
X-5199812Y-10772492D01*
X-5465000Y-10772492D01*
X-5465000Y-8853181D01*
X-4883750Y-9434431D01*
G37*
G04 #@! TD.AperFunction*
M02*
