M48
; DRILL file {KiCad (5.1.10-1-10_14)} date Sunday, July 25, 2021 at 02:23:55 AM
; FORMAT={-:-/ absolute / metric / decimal}
; #@! TF.CreationDate,2021-07-25T02:23:55-07:00
; #@! TF.GenerationSoftware,Kicad,Pcbnew,(5.1.10-1-10_14)
; #@! TF.FileFunction,Plated,1,4,PTH
FMAT,2
METRIC
T1C0.200
T2C0.300
T3C0.400
T4C0.600
%
G90
G05
T1
X5.75Y1.625
T2
X-15.125Y-2.25
X-15.125Y-4.875
X-13.875Y1.875
X-13.875Y-0.375
X-11.502Y5.623
X-10.875Y-0.75
X-10.875Y-3.875
X-10.11Y-7.51
X-9.75Y9.0
X-9.5Y2.5
X-8.07Y-1.67
X-7.75Y-4.502
X-7.06Y-6.49
X-6.5Y6.375
X-6.3Y-4.6
X-6.25Y11.375
X-5.65Y-12.25
X-5.625Y5.5
X-5.625Y0.0
X-5.625Y-2.625
X-5.5Y-1.75
X-5.375Y8.25
X-4.9Y6.7
X-4.875Y0.0
X-4.75Y-4.502
X-4.5Y-15.0
X-3.902Y10.252
X-3.375Y-7.375
X-3.375Y-8.375
X-2.75Y-4.875
X-1.875Y-11.25
X-1.375Y-5.625
X-1.125Y-10.375
X-0.75Y10.0
X-0.75Y7.25
X-0.625Y-9.625
X-0.625Y-11.25
X0.625Y-11.25
X0.75Y10.0
X1.125Y-4.875
X1.875Y-11.25
X2.0Y-5.75
X2.5Y7.25
X3.0Y-5.75
X3.125Y-6.625
X3.25Y10.25
X4.0Y-5.75
X4.375Y8.75
X4.5Y-15.0
X4.875Y-2.75
X5.0Y-5.75
X5.125Y0.375
X5.625Y4.625
X5.63Y-12.22
X5.875Y-2.75
X6.125Y0.375
X6.25Y11.375
X6.75Y-3.125
X6.875Y-11.0
X7.125Y3.5
X7.125Y2.5
X7.125Y1.5
X7.125Y0.375
X7.25Y-3.875
X7.25Y-4.625
X7.5Y-2.75
X8.125Y3.5
X8.6Y-4.625
X8.75Y-8.875
X9.125Y3.5
X9.7Y-4.625
X10.125Y3.5
X10.25Y-0.875
X10.27Y-7.68
X10.375Y-1.875
X10.8Y-4.625
X11.125Y3.5
X11.25Y-0.875
X11.25Y-1.875
X11.9Y-4.625
X12.125Y3.5
X12.25Y-1.875
X12.375Y-0.375
X12.875Y-2.875
X13.125Y0.375
X13.25Y3.5
X13.25Y2.5
X13.25Y1.5
X13.25Y-4.625
X13.375Y-3.5
X13.625Y-2.375
T3
X-2.582Y-16.324
X-2.25Y8.125
X-1.5Y1.5
X-1.5Y-1.5
X0.0Y0.0
X1.5Y1.5
X1.5Y-1.5
X2.5Y4.75
X2.697Y-16.324
X8.0Y2.625
X11.0Y0.0
X12.375Y0.875
T4
X-15.585Y-11.476G85X-16.009Y-11.9
G05
X-12.453Y-8.343G85X-13.23Y-9.121
G05
X-9.476Y-17.585G85X-9.9Y-18.009
G05
X-6.343Y-14.453G85X-7.121Y-15.23
G05
X-4.32Y16.75G85X-4.32Y17.35
G05
X-4.32Y12.32G85X-4.32Y13.42
G05
X4.32Y16.75G85X4.32Y17.35
G05
X4.32Y12.32G85X4.32Y13.42
G05
X6.343Y-14.453G85X7.121Y-15.23
G05
X9.476Y-17.585G85X9.9Y-18.009
G05
X12.453Y-8.343G85X13.23Y-9.121
G05
X15.585Y-11.476G85X16.009Y-11.9
G05
T0
M30
