G04 #@! TF.GenerationSoftware,KiCad,Pcbnew,(5.1.10-1-10_14)*
G04 #@! TF.CreationDate,2021-07-26T04:46:29-07:00*
G04 #@! TF.ProjectId,Synapse,53796e61-7073-4652-9e6b-696361645f70,1*
G04 #@! TF.SameCoordinates,Original*
G04 #@! TF.FileFunction,Legend,Top*
G04 #@! TF.FilePolarity,Positive*
%FSLAX46Y46*%
G04 Gerber Fmt 4.6, Leading zero omitted, Abs format (unit mm)*
G04 Created by KiCad (PCBNEW (5.1.10-1-10_14)) date 2021-07-26 04:46:29*
%MOMM*%
%LPD*%
G01*
G04 APERTURE LIST*
%ADD10C,0.153000*%
%ADD11C,0.020000*%
%ADD12C,0.100000*%
%ADD13C,0.120000*%
%ADD14C,0.670000*%
%ADD15C,0.152400*%
%ADD16R,0.300000X1.450000*%
%ADD17R,1.150000X1.000000*%
%ADD18R,0.600000X1.100000*%
%ADD19R,5.600000X5.600000*%
%ADD20R,0.450000X0.300000*%
%ADD21R,0.900000X1.700000*%
G04 APERTURE END LIST*
D10*
X-10807142Y-6085714D02*
X-10769047Y-5971428D01*
X-10730952Y-5933333D01*
X-10654761Y-5895238D01*
X-10540476Y-5895238D01*
X-10464285Y-5933333D01*
X-10426190Y-5971428D01*
X-10388095Y-6047619D01*
X-10388095Y-6352380D01*
X-11188095Y-6352380D01*
X-11188095Y-6085714D01*
X-11150000Y-6009523D01*
X-11111904Y-5971428D01*
X-11035714Y-5933333D01*
X-10959523Y-5933333D01*
X-10883333Y-5971428D01*
X-10845238Y-6009523D01*
X-10807142Y-6085714D01*
X-10807142Y-6352380D01*
X-11188095Y-5400000D02*
X-11188095Y-5247619D01*
X-11150000Y-5171428D01*
X-11073809Y-5095238D01*
X-10921428Y-5057142D01*
X-10654761Y-5057142D01*
X-10502380Y-5095238D01*
X-10426190Y-5171428D01*
X-10388095Y-5247619D01*
X-10388095Y-5400000D01*
X-10426190Y-5476190D01*
X-10502380Y-5552380D01*
X-10654761Y-5590476D01*
X-10921428Y-5590476D01*
X-11073809Y-5552380D01*
X-11150000Y-5476190D01*
X-11188095Y-5400000D01*
X-11188095Y-4561904D02*
X-11188095Y-4409523D01*
X-11150000Y-4333333D01*
X-11073809Y-4257142D01*
X-10921428Y-4219047D01*
X-10654761Y-4219047D01*
X-10502380Y-4257142D01*
X-10426190Y-4333333D01*
X-10388095Y-4409523D01*
X-10388095Y-4561904D01*
X-10426190Y-4638095D01*
X-10502380Y-4714285D01*
X-10654761Y-4752380D01*
X-10921428Y-4752380D01*
X-11073809Y-4714285D01*
X-11150000Y-4638095D01*
X-11188095Y-4561904D01*
X-11188095Y-3990476D02*
X-11188095Y-3533333D01*
X-10388095Y-3761904D02*
X-11188095Y-3761904D01*
X10388095Y-3838095D02*
X10769047Y-3571428D01*
X10388095Y-3380952D02*
X11188095Y-3380952D01*
X11188095Y-3685714D01*
X11150000Y-3761904D01*
X11111904Y-3800000D01*
X11035714Y-3838095D01*
X10921428Y-3838095D01*
X10845238Y-3800000D01*
X10807142Y-3761904D01*
X10769047Y-3685714D01*
X10769047Y-3380952D01*
X10807142Y-4180952D02*
X10807142Y-4447619D01*
X10388095Y-4561904D02*
X10388095Y-4180952D01*
X11188095Y-4180952D01*
X11188095Y-4561904D01*
X10426190Y-4866666D02*
X10388095Y-4980952D01*
X10388095Y-5171428D01*
X10426190Y-5247619D01*
X10464285Y-5285714D01*
X10540476Y-5323809D01*
X10616666Y-5323809D01*
X10692857Y-5285714D01*
X10730952Y-5247619D01*
X10769047Y-5171428D01*
X10807142Y-5019047D01*
X10845238Y-4942857D01*
X10883333Y-4904761D01*
X10959523Y-4866666D01*
X11035714Y-4866666D01*
X11111904Y-4904761D01*
X11150000Y-4942857D01*
X11188095Y-5019047D01*
X11188095Y-5209523D01*
X11150000Y-5323809D01*
X10807142Y-5666666D02*
X10807142Y-5933333D01*
X10388095Y-6047619D02*
X10388095Y-5666666D01*
X11188095Y-5666666D01*
X11188095Y-6047619D01*
X11188095Y-6276190D02*
X11188095Y-6733333D01*
X10388095Y-6504761D02*
X11188095Y-6504761D01*
D11*
X9957431Y-11957431D02*
X14426346Y-16426346D01*
D12*
X16830509Y-12890812D02*
X10890812Y-18830509D01*
X6506750Y-14729289D02*
X12729289Y-8506750D01*
X17749747Y-13527208D02*
X11527208Y-19749747D01*
X12729289Y-8506750D02*
X17749747Y-13527208D01*
X6506750Y-14729289D02*
X11527208Y-19749747D01*
D11*
X-9957431Y-11957431D02*
X-14426346Y-16426346D01*
D12*
X-10890812Y-18830509D02*
X-16830509Y-12890812D01*
X-12729289Y-8506750D02*
X-6506750Y-14729289D01*
X-11527208Y-19749747D02*
X-17749747Y-13527208D01*
X-6506750Y-14729289D02*
X-11527208Y-19749747D01*
X-12729289Y-8506750D02*
X-17749747Y-13527208D01*
D11*
X0Y12980000D02*
X0Y19300000D01*
D12*
X-4200000Y18500000D02*
X4200000Y18500000D01*
X4400000Y12500000D02*
X-4400000Y12500000D01*
X-4400000Y19600000D02*
X4400000Y19600000D01*
X-4400000Y12500000D02*
X-4400000Y19600000D01*
X4400000Y12500000D02*
X4400000Y19600000D01*
D13*
X-1050000Y-6500000D02*
X2250000Y-6500000D01*
X-1050000Y-3700000D02*
X-1050000Y-6500000D01*
X-4900000Y-4800000D02*
X-2500000Y-4800000D01*
X-4900000Y-3200000D02*
X-4900000Y-4800000D01*
X-2500000Y-3200000D02*
X-4900000Y-3200000D01*
X-3610000Y-1135000D02*
X-3610000Y-1610000D01*
X3610000Y5610000D02*
X3135000Y5610000D01*
X3610000Y5135000D02*
X3610000Y5610000D01*
X3610000Y-1610000D02*
X3135000Y-1610000D01*
X3610000Y-1135000D02*
X3610000Y-1610000D01*
X-3610000Y5610000D02*
X-3135000Y5610000D01*
X-3610000Y5135000D02*
X-3610000Y5610000D01*
X-2560000Y-12700000D02*
X-2560000Y-16150000D01*
X-2560000Y-12700000D02*
X-2560000Y-10750000D01*
X2560000Y-12700000D02*
X2560000Y-14650000D01*
X2560000Y-12700000D02*
X2560000Y-10750000D01*
X2500000Y7060000D02*
X950000Y7060000D01*
X950000Y8860000D02*
X2250000Y8860000D01*
X9250000Y-3600000D02*
X9250000Y-3900000D01*
X5950000Y-3600000D02*
X9250000Y-3600000D01*
X5950000Y-3900000D02*
X5950000Y-3600000D01*
X9250000Y-6400000D02*
X9250000Y-6100000D01*
X5950000Y-6400000D02*
X9250000Y-6400000D01*
X5950000Y-6100000D02*
X5950000Y-6400000D01*
X-5950000Y-3600000D02*
X-5950000Y-3900000D01*
X-9250000Y-3600000D02*
X-5950000Y-3600000D01*
X-9250000Y-3900000D02*
X-9250000Y-3600000D01*
X-5950000Y-6400000D02*
X-5950000Y-6100000D01*
X-9250000Y-6400000D02*
X-5950000Y-6400000D01*
X-9250000Y-6100000D02*
X-9250000Y-6400000D01*
X-5620000Y15153641D02*
X-5620000Y14846359D01*
X-6380000Y15153641D02*
X-6380000Y14846359D01*
X6622659Y-18160060D02*
X6839940Y-18377341D01*
X7160060Y-17622659D02*
X7377341Y-17839940D01*
X-7160060Y-17622659D02*
X-7377341Y-17839940D01*
X-6622659Y-18160060D02*
X-6839940Y-18377341D01*
X5620000Y15153641D02*
X5620000Y14846359D01*
X6380000Y15153641D02*
X6380000Y14846359D01*
X3120000Y-10246359D02*
X3120000Y-10553641D01*
X3880000Y-10246359D02*
X3880000Y-10553641D01*
X4980000Y-10553641D02*
X4980000Y-10246359D01*
X4220000Y-10553641D02*
X4220000Y-10246359D01*
X5946359Y-3180000D02*
X6253641Y-3180000D01*
X5946359Y-2420000D02*
X6253641Y-2420000D01*
X-2846359Y8380000D02*
X-3153641Y8380000D01*
X-2846359Y7620000D02*
X-3153641Y7620000D01*
X-6946359Y-2320000D02*
X-7253641Y-2320000D01*
X-6946359Y-3080000D02*
X-7253641Y-3080000D01*
X4420000Y1253641D02*
X4420000Y946359D01*
X5180000Y1253641D02*
X5180000Y946359D01*
X-6435000Y9085000D02*
X-6435000Y6800000D01*
X-4965000Y9085000D02*
X-6435000Y9085000D01*
X-4965000Y6800000D02*
X-4965000Y9085000D01*
X6207836Y-6840000D02*
X5992164Y-6840000D01*
X6207836Y-7560000D02*
X5992164Y-7560000D01*
X-5092164Y-2160000D02*
X-5307836Y-2160000D01*
X-5092164Y-1440000D02*
X-5307836Y-1440000D01*
X-3360000Y-5892164D02*
X-3360000Y-6107836D01*
X-2640000Y-5892164D02*
X-2640000Y-6107836D01*
X-4760000Y-5892164D02*
X-4760000Y-6107836D01*
X-4040000Y-5892164D02*
X-4040000Y-6107836D01*
X6140000Y-992164D02*
X6140000Y-1207836D01*
X6860000Y-992164D02*
X6860000Y-1207836D01*
X5040000Y-992164D02*
X5040000Y-1207836D01*
X5760000Y-992164D02*
X5760000Y-1207836D01*
X-8992164Y-2340000D02*
X-9207836Y-2340000D01*
X-8992164Y-3060000D02*
X-9207836Y-3060000D01*
X2540000Y-4742164D02*
X2540000Y-4957836D01*
X3260000Y-4742164D02*
X3260000Y-4957836D01*
X-1340000Y-5457836D02*
X-1340000Y-5242164D01*
X-2060000Y-5457836D02*
X-2060000Y-5242164D01*
X-5110000Y-357836D02*
X-5110000Y-142164D01*
X-4390000Y-357836D02*
X-4390000Y-142164D01*
X-3107836Y6440000D02*
X-2892164Y6440000D01*
X-3107836Y7160000D02*
X-2892164Y7160000D01*
X4440000Y4382836D02*
X4440000Y4167164D01*
X5160000Y4382836D02*
X5160000Y4167164D01*
X5690000Y3840580D02*
X5690000Y3559420D01*
X6710000Y3840580D02*
X6710000Y3559420D01*
X-2920000Y-12147836D02*
X-2920000Y-11932164D01*
X-3640000Y-12147836D02*
X-3640000Y-11932164D01*
X3792164Y7140000D02*
X4007836Y7140000D01*
X3792164Y7860000D02*
X4007836Y7860000D01*
X3792164Y8240000D02*
X4007836Y8240000D01*
X3792164Y8960000D02*
X4007836Y8960000D01*
D12*
X9986724Y-13953155D02*
X10444660Y-14411090D01*
X10525472Y-14438028D01*
X10579347Y-14438028D01*
X10660159Y-14411090D01*
X10767909Y-14303341D01*
X10794846Y-14222529D01*
X10794846Y-14168654D01*
X10767909Y-14087842D01*
X10309973Y-13629906D01*
X11091158Y-13926217D02*
X11198907Y-13872342D01*
X11333594Y-13737655D01*
X11360532Y-13656843D01*
X11360532Y-13602968D01*
X11333594Y-13522156D01*
X11279720Y-13468281D01*
X11198907Y-13441344D01*
X11145032Y-13441344D01*
X11064220Y-13468281D01*
X10929533Y-13549094D01*
X10848721Y-13576031D01*
X10794846Y-13576031D01*
X10714034Y-13549094D01*
X10660159Y-13495219D01*
X10633222Y-13414407D01*
X10633222Y-13360532D01*
X10660159Y-13279720D01*
X10794846Y-13145032D01*
X10902596Y-13091158D01*
X11576031Y-12902596D02*
X11683781Y-12848721D01*
X11737655Y-12848721D01*
X11818468Y-12875658D01*
X11899280Y-12956471D01*
X11926217Y-13037283D01*
X11926217Y-13091158D01*
X11899280Y-13171970D01*
X11683781Y-13387469D01*
X11118095Y-12821784D01*
X11306657Y-12633222D01*
X11387469Y-12606284D01*
X11441344Y-12606284D01*
X11522156Y-12633222D01*
X11576031Y-12687097D01*
X11602968Y-12767909D01*
X11602968Y-12821784D01*
X11576031Y-12902596D01*
X11387469Y-13091158D01*
X11629906Y-12309973D02*
X11980092Y-11959787D01*
X12007029Y-12363848D01*
X12087842Y-12283036D01*
X12168654Y-12256098D01*
X12222529Y-12256098D01*
X12303341Y-12283036D01*
X12438028Y-12417723D01*
X12464965Y-12498535D01*
X12464965Y-12552410D01*
X12438028Y-12633222D01*
X12276403Y-12794846D01*
X12195591Y-12821784D01*
X12141716Y-12821784D01*
X-11953155Y-11986724D02*
X-12411090Y-12444660D01*
X-12438028Y-12525472D01*
X-12438028Y-12579347D01*
X-12411090Y-12660159D01*
X-12303341Y-12767909D01*
X-12222529Y-12794846D01*
X-12168654Y-12794846D01*
X-12087842Y-12767909D01*
X-11629906Y-12309973D01*
X-11926217Y-13091158D02*
X-11872342Y-13198907D01*
X-11737655Y-13333594D01*
X-11656843Y-13360532D01*
X-11602968Y-13360532D01*
X-11522156Y-13333594D01*
X-11468281Y-13279720D01*
X-11441344Y-13198907D01*
X-11441344Y-13145032D01*
X-11468281Y-13064220D01*
X-11549094Y-12929533D01*
X-11576031Y-12848721D01*
X-11576031Y-12794846D01*
X-11549094Y-12714034D01*
X-11495219Y-12660159D01*
X-11414407Y-12633222D01*
X-11360532Y-12633222D01*
X-11279720Y-12660159D01*
X-11145032Y-12794846D01*
X-11091158Y-12902596D01*
X-10902596Y-13576031D02*
X-10848721Y-13683781D01*
X-10848721Y-13737655D01*
X-10875658Y-13818468D01*
X-10956471Y-13899280D01*
X-11037283Y-13926217D01*
X-11091158Y-13926217D01*
X-11171970Y-13899280D01*
X-11387469Y-13683781D01*
X-10821784Y-13118095D01*
X-10633222Y-13306657D01*
X-10606284Y-13387469D01*
X-10606284Y-13441344D01*
X-10633222Y-13522156D01*
X-10687097Y-13576031D01*
X-10767909Y-13602968D01*
X-10821784Y-13602968D01*
X-10902596Y-13576031D01*
X-11091158Y-13387469D01*
X-10336910Y-13710718D02*
X-10283036Y-13710718D01*
X-10202223Y-13737655D01*
X-10067536Y-13872342D01*
X-10040599Y-13953155D01*
X-10040599Y-14007029D01*
X-10067536Y-14087842D01*
X-10121411Y-14141716D01*
X-10229161Y-14195591D01*
X-10875658Y-14195591D01*
X-10525472Y-14545777D01*
X-1390476Y15288095D02*
X-1390476Y14640476D01*
X-1352380Y14564285D01*
X-1314285Y14526190D01*
X-1238095Y14488095D01*
X-1085714Y14488095D01*
X-1009523Y14526190D01*
X-971428Y14564285D01*
X-933333Y14640476D01*
X-933333Y15288095D01*
X-590476Y14526190D02*
X-476190Y14488095D01*
X-285714Y14488095D01*
X-209523Y14526190D01*
X-171428Y14564285D01*
X-133333Y14640476D01*
X-133333Y14716666D01*
X-171428Y14792857D01*
X-209523Y14830952D01*
X-285714Y14869047D01*
X-438095Y14907142D01*
X-514285Y14945238D01*
X-552380Y14983333D01*
X-590476Y15059523D01*
X-590476Y15135714D01*
X-552380Y15211904D01*
X-514285Y15250000D01*
X-438095Y15288095D01*
X-247619Y15288095D01*
X-133333Y15250000D01*
X476190Y14907142D02*
X590476Y14869047D01*
X628571Y14830952D01*
X666666Y14754761D01*
X666666Y14640476D01*
X628571Y14564285D01*
X590476Y14526190D01*
X514285Y14488095D01*
X209523Y14488095D01*
X209523Y15288095D01*
X476190Y15288095D01*
X552380Y15250000D01*
X590476Y15211904D01*
X628571Y15135714D01*
X628571Y15059523D01*
X590476Y14983333D01*
X552380Y14945238D01*
X476190Y14907142D01*
X209523Y14907142D01*
X1428571Y14488095D02*
X971428Y14488095D01*
X1200000Y14488095D02*
X1200000Y15288095D01*
X1123809Y15173809D01*
X1047619Y15097619D01*
X971428Y15059523D01*
%LPC*%
D14*
X12269670Y-10168451D03*
X8168451Y-14269670D03*
D15*
G36*
X7196178Y-14216636D02*
G01*
X6170874Y-13191332D01*
X6383006Y-12979200D01*
X7408310Y-14004504D01*
X7196178Y-14216636D01*
G37*
G36*
X7761864Y-13650951D02*
G01*
X6736560Y-12625647D01*
X6948692Y-12413515D01*
X7973996Y-13438819D01*
X7761864Y-13650951D01*
G37*
G36*
X8362905Y-13049910D02*
G01*
X7337601Y-12024606D01*
X7549733Y-11812474D01*
X8575037Y-12837778D01*
X8362905Y-13049910D01*
G37*
G36*
G01*
X9603878Y-18420386D02*
X9179614Y-17996122D01*
G75*
G02*
X9179614Y-17289016I353553J353553D01*
G01*
X9179614Y-17289016D01*
G75*
G02*
X9886720Y-17289016I353553J-353553D01*
G01*
X10310984Y-17713280D01*
G75*
G02*
X10310984Y-18420386I-353553J-353553D01*
G01*
X10310984Y-18420386D01*
G75*
G02*
X9603878Y-18420386I-353553J353553D01*
G01*
G37*
G36*
G01*
X15713280Y-12310984D02*
X15289016Y-11886720D01*
G75*
G02*
X15289016Y-11179614I353553J353553D01*
G01*
X15289016Y-11179614D01*
G75*
G02*
X15996122Y-11179614I353553J-353553D01*
G01*
X16420386Y-11603878D01*
G75*
G02*
X16420386Y-12310984I-353553J-353553D01*
G01*
X16420386Y-12310984D01*
G75*
G02*
X15713280Y-12310984I-353553J353553D01*
G01*
G37*
G36*
G01*
X12757574Y-9355277D02*
X12333310Y-8931013D01*
G75*
G02*
X12333310Y-8223907I353553J353553D01*
G01*
X12333310Y-8223907D01*
G75*
G02*
X13040416Y-8223907I353553J-353553D01*
G01*
X13464680Y-8648171D01*
G75*
G02*
X13464680Y-9355277I-353553J-353553D01*
G01*
X13464680Y-9355277D01*
G75*
G02*
X12757574Y-9355277I-353553J353553D01*
G01*
G37*
G36*
G01*
X6648171Y-15464680D02*
X6223907Y-15040416D01*
G75*
G02*
X6223907Y-14333310I353553J353553D01*
G01*
X6223907Y-14333310D01*
G75*
G02*
X6931013Y-14333310I353553J-353553D01*
G01*
X7355277Y-14757574D01*
G75*
G02*
X7355277Y-15464680I-353553J-353553D01*
G01*
X7355277Y-15464680D01*
G75*
G02*
X6648171Y-15464680I-353553J353553D01*
G01*
G37*
G36*
X7408310Y-14004504D02*
G01*
X6383006Y-12979200D01*
X6595138Y-12767068D01*
X7620442Y-13792372D01*
X7408310Y-14004504D01*
G37*
G36*
X7973996Y-13438819D02*
G01*
X6948692Y-12413515D01*
X7160824Y-12201383D01*
X8186128Y-13226687D01*
X7973996Y-13438819D01*
G37*
G36*
X8716458Y-12696357D02*
G01*
X7691154Y-11671053D01*
X7903286Y-11458921D01*
X8928590Y-12484225D01*
X8716458Y-12696357D01*
G37*
G36*
X10837778Y-10575037D02*
G01*
X9812474Y-9549733D01*
X10024606Y-9337601D01*
X11049910Y-10362905D01*
X10837778Y-10575037D01*
G37*
G36*
X11438819Y-9973996D02*
G01*
X10413515Y-8948692D01*
X10625647Y-8736560D01*
X11650951Y-9761864D01*
X11438819Y-9973996D01*
G37*
G36*
X12004504Y-9408310D02*
G01*
X10979200Y-8383006D01*
X11191332Y-8170874D01*
X12216636Y-9196178D01*
X12004504Y-9408310D01*
G37*
G36*
X11792372Y-9620442D02*
G01*
X10767068Y-8595138D01*
X10979200Y-8383006D01*
X12004504Y-9408310D01*
X11792372Y-9620442D01*
G37*
G36*
X11226687Y-10186128D02*
G01*
X10201383Y-9160824D01*
X10413515Y-8948692D01*
X11438819Y-9973996D01*
X11226687Y-10186128D01*
G37*
G36*
X10484225Y-10928590D02*
G01*
X9458921Y-9903286D01*
X9671053Y-9691154D01*
X10696357Y-10716458D01*
X10484225Y-10928590D01*
G37*
G36*
X10130672Y-11282143D02*
G01*
X9105368Y-10256839D01*
X9317500Y-10044707D01*
X10342804Y-11070011D01*
X10130672Y-11282143D01*
G37*
G36*
X9777118Y-11635697D02*
G01*
X8751814Y-10610393D01*
X8963946Y-10398261D01*
X9989250Y-11423565D01*
X9777118Y-11635697D01*
G37*
G36*
X9423565Y-11989250D02*
G01*
X8398261Y-10963946D01*
X8610393Y-10751814D01*
X9635697Y-11777118D01*
X9423565Y-11989250D01*
G37*
G36*
X9070011Y-12342804D02*
G01*
X8044707Y-11317500D01*
X8256839Y-11105368D01*
X9282143Y-12130672D01*
X9070011Y-12342804D01*
G37*
D14*
X-8168451Y-14269670D03*
X-12269670Y-10168451D03*
D15*
G36*
X-12216636Y-9196178D02*
G01*
X-11191332Y-8170874D01*
X-10979200Y-8383006D01*
X-12004504Y-9408310D01*
X-12216636Y-9196178D01*
G37*
G36*
X-11650951Y-9761864D02*
G01*
X-10625647Y-8736560D01*
X-10413515Y-8948692D01*
X-11438819Y-9973996D01*
X-11650951Y-9761864D01*
G37*
G36*
X-11049910Y-10362905D02*
G01*
X-10024606Y-9337601D01*
X-9812474Y-9549733D01*
X-10837778Y-10575037D01*
X-11049910Y-10362905D01*
G37*
G36*
G01*
X-16420386Y-11603878D02*
X-15996122Y-11179614D01*
G75*
G02*
X-15289016Y-11179614I353553J-353553D01*
G01*
X-15289016Y-11179614D01*
G75*
G02*
X-15289016Y-11886720I-353553J-353553D01*
G01*
X-15713280Y-12310984D01*
G75*
G02*
X-16420386Y-12310984I-353553J353553D01*
G01*
X-16420386Y-12310984D01*
G75*
G02*
X-16420386Y-11603878I353553J353553D01*
G01*
G37*
G36*
G01*
X-10310984Y-17713280D02*
X-9886720Y-17289016D01*
G75*
G02*
X-9179614Y-17289016I353553J-353553D01*
G01*
X-9179614Y-17289016D01*
G75*
G02*
X-9179614Y-17996122I-353553J-353553D01*
G01*
X-9603878Y-18420386D01*
G75*
G02*
X-10310984Y-18420386I-353553J353553D01*
G01*
X-10310984Y-18420386D01*
G75*
G02*
X-10310984Y-17713280I353553J353553D01*
G01*
G37*
G36*
G01*
X-7355277Y-14757574D02*
X-6931013Y-14333310D01*
G75*
G02*
X-6223907Y-14333310I353553J-353553D01*
G01*
X-6223907Y-14333310D01*
G75*
G02*
X-6223907Y-15040416I-353553J-353553D01*
G01*
X-6648171Y-15464680D01*
G75*
G02*
X-7355277Y-15464680I-353553J353553D01*
G01*
X-7355277Y-15464680D01*
G75*
G02*
X-7355277Y-14757574I353553J353553D01*
G01*
G37*
G36*
G01*
X-13464680Y-8648171D02*
X-13040416Y-8223907D01*
G75*
G02*
X-12333310Y-8223907I353553J-353553D01*
G01*
X-12333310Y-8223907D01*
G75*
G02*
X-12333310Y-8931013I-353553J-353553D01*
G01*
X-12757574Y-9355277D01*
G75*
G02*
X-13464680Y-9355277I-353553J353553D01*
G01*
X-13464680Y-9355277D01*
G75*
G02*
X-13464680Y-8648171I353553J353553D01*
G01*
G37*
G36*
X-12004504Y-9408310D02*
G01*
X-10979200Y-8383006D01*
X-10767068Y-8595138D01*
X-11792372Y-9620442D01*
X-12004504Y-9408310D01*
G37*
G36*
X-11438819Y-9973996D02*
G01*
X-10413515Y-8948692D01*
X-10201383Y-9160824D01*
X-11226687Y-10186128D01*
X-11438819Y-9973996D01*
G37*
G36*
X-10696357Y-10716458D02*
G01*
X-9671053Y-9691154D01*
X-9458921Y-9903286D01*
X-10484225Y-10928590D01*
X-10696357Y-10716458D01*
G37*
G36*
X-8575037Y-12837778D02*
G01*
X-7549733Y-11812474D01*
X-7337601Y-12024606D01*
X-8362905Y-13049910D01*
X-8575037Y-12837778D01*
G37*
G36*
X-7973996Y-13438819D02*
G01*
X-6948692Y-12413515D01*
X-6736560Y-12625647D01*
X-7761864Y-13650951D01*
X-7973996Y-13438819D01*
G37*
G36*
X-7408310Y-14004504D02*
G01*
X-6383006Y-12979200D01*
X-6170874Y-13191332D01*
X-7196178Y-14216636D01*
X-7408310Y-14004504D01*
G37*
G36*
X-7620442Y-13792372D02*
G01*
X-6595138Y-12767068D01*
X-6383006Y-12979200D01*
X-7408310Y-14004504D01*
X-7620442Y-13792372D01*
G37*
G36*
X-8186128Y-13226687D02*
G01*
X-7160824Y-12201383D01*
X-6948692Y-12413515D01*
X-7973996Y-13438819D01*
X-8186128Y-13226687D01*
G37*
G36*
X-8928590Y-12484225D02*
G01*
X-7903286Y-11458921D01*
X-7691154Y-11671053D01*
X-8716458Y-12696357D01*
X-8928590Y-12484225D01*
G37*
G36*
X-9282143Y-12130672D02*
G01*
X-8256839Y-11105368D01*
X-8044707Y-11317500D01*
X-9070011Y-12342804D01*
X-9282143Y-12130672D01*
G37*
G36*
X-9635697Y-11777118D02*
G01*
X-8610393Y-10751814D01*
X-8398261Y-10963946D01*
X-9423565Y-11989250D01*
X-9635697Y-11777118D01*
G37*
G36*
X-9989250Y-11423565D02*
G01*
X-8963946Y-10398261D01*
X-8751814Y-10610393D01*
X-9777118Y-11635697D01*
X-9989250Y-11423565D01*
G37*
G36*
X-10342804Y-11070011D02*
G01*
X-9317500Y-10044707D01*
X-9105368Y-10256839D01*
X-10130672Y-11282143D01*
X-10342804Y-11070011D01*
G37*
D14*
X-2900000Y13350000D03*
X2900000Y13350000D03*
D16*
X3400000Y11900000D03*
X2600000Y11900000D03*
X1750000Y11900000D03*
G36*
G01*
X4820000Y17300000D02*
X4820000Y16700000D01*
G75*
G02*
X4320000Y16200000I-500000J0D01*
G01*
X4320000Y16200000D01*
G75*
G02*
X3820000Y16700000I0J500000D01*
G01*
X3820000Y17300000D01*
G75*
G02*
X4320000Y17800000I500000J0D01*
G01*
X4320000Y17800000D01*
G75*
G02*
X4820000Y17300000I0J-500000D01*
G01*
G37*
G36*
G01*
X-3820000Y17300000D02*
X-3820000Y16700000D01*
G75*
G02*
X-4320000Y16200000I-500000J0D01*
G01*
X-4320000Y16200000D01*
G75*
G02*
X-4820000Y16700000I0J500000D01*
G01*
X-4820000Y17300000D01*
G75*
G02*
X-4320000Y17800000I500000J0D01*
G01*
X-4320000Y17800000D01*
G75*
G02*
X-3820000Y17300000I0J-500000D01*
G01*
G37*
G36*
G01*
X-3820000Y13120000D02*
X-3820000Y12520000D01*
G75*
G02*
X-4320000Y12020000I-500000J0D01*
G01*
X-4320000Y12020000D01*
G75*
G02*
X-4820000Y12520000I0J500000D01*
G01*
X-4820000Y13120000D01*
G75*
G02*
X-4320000Y13620000I500000J0D01*
G01*
X-4320000Y13620000D01*
G75*
G02*
X-3820000Y13120000I0J-500000D01*
G01*
G37*
G36*
G01*
X4820000Y13120000D02*
X4820000Y12520000D01*
G75*
G02*
X4320000Y12020000I-500000J0D01*
G01*
X4320000Y12020000D01*
G75*
G02*
X3820000Y12520000I0J500000D01*
G01*
X3820000Y13120000D01*
G75*
G02*
X4320000Y13620000I500000J0D01*
G01*
X4320000Y13620000D01*
G75*
G02*
X4820000Y13120000I0J-500000D01*
G01*
G37*
X3100000Y11900000D03*
X2300000Y11900000D03*
X1250000Y11900000D03*
X-1750000Y11900000D03*
X-2600000Y11900000D03*
X-3400000Y11900000D03*
X-3100000Y11900000D03*
X-2300000Y11900000D03*
X-1250000Y11900000D03*
X-750000Y11900000D03*
X-250000Y11900000D03*
X250000Y11900000D03*
X750000Y11900000D03*
D17*
X-275000Y-4400000D03*
X1475000Y-4400000D03*
X1475000Y-5800000D03*
X-275000Y-5800000D03*
D18*
X-3000000Y-4000000D03*
X-4400000Y-4000000D03*
D19*
X0Y2000000D03*
G36*
G01*
X-3062500Y-875000D02*
X-3812500Y-875000D01*
G75*
G02*
X-3875000Y-812500I0J62500D01*
G01*
X-3875000Y-687500D01*
G75*
G02*
X-3812500Y-625000I62500J0D01*
G01*
X-3062500Y-625000D01*
G75*
G02*
X-3000000Y-687500I0J-62500D01*
G01*
X-3000000Y-812500D01*
G75*
G02*
X-3062500Y-875000I-62500J0D01*
G01*
G37*
G36*
G01*
X-3062500Y-375000D02*
X-3812500Y-375000D01*
G75*
G02*
X-3875000Y-312500I0J62500D01*
G01*
X-3875000Y-187500D01*
G75*
G02*
X-3812500Y-125000I62500J0D01*
G01*
X-3062500Y-125000D01*
G75*
G02*
X-3000000Y-187500I0J-62500D01*
G01*
X-3000000Y-312500D01*
G75*
G02*
X-3062500Y-375000I-62500J0D01*
G01*
G37*
G36*
G01*
X-3062500Y125000D02*
X-3812500Y125000D01*
G75*
G02*
X-3875000Y187500I0J62500D01*
G01*
X-3875000Y312500D01*
G75*
G02*
X-3812500Y375000I62500J0D01*
G01*
X-3062500Y375000D01*
G75*
G02*
X-3000000Y312500I0J-62500D01*
G01*
X-3000000Y187500D01*
G75*
G02*
X-3062500Y125000I-62500J0D01*
G01*
G37*
G36*
G01*
X-3062500Y625000D02*
X-3812500Y625000D01*
G75*
G02*
X-3875000Y687500I0J62500D01*
G01*
X-3875000Y812500D01*
G75*
G02*
X-3812500Y875000I62500J0D01*
G01*
X-3062500Y875000D01*
G75*
G02*
X-3000000Y812500I0J-62500D01*
G01*
X-3000000Y687500D01*
G75*
G02*
X-3062500Y625000I-62500J0D01*
G01*
G37*
G36*
G01*
X-3062500Y1125000D02*
X-3812500Y1125000D01*
G75*
G02*
X-3875000Y1187500I0J62500D01*
G01*
X-3875000Y1312500D01*
G75*
G02*
X-3812500Y1375000I62500J0D01*
G01*
X-3062500Y1375000D01*
G75*
G02*
X-3000000Y1312500I0J-62500D01*
G01*
X-3000000Y1187500D01*
G75*
G02*
X-3062500Y1125000I-62500J0D01*
G01*
G37*
G36*
G01*
X-3062500Y1625000D02*
X-3812500Y1625000D01*
G75*
G02*
X-3875000Y1687500I0J62500D01*
G01*
X-3875000Y1812500D01*
G75*
G02*
X-3812500Y1875000I62500J0D01*
G01*
X-3062500Y1875000D01*
G75*
G02*
X-3000000Y1812500I0J-62500D01*
G01*
X-3000000Y1687500D01*
G75*
G02*
X-3062500Y1625000I-62500J0D01*
G01*
G37*
G36*
G01*
X-3062500Y2125000D02*
X-3812500Y2125000D01*
G75*
G02*
X-3875000Y2187500I0J62500D01*
G01*
X-3875000Y2312500D01*
G75*
G02*
X-3812500Y2375000I62500J0D01*
G01*
X-3062500Y2375000D01*
G75*
G02*
X-3000000Y2312500I0J-62500D01*
G01*
X-3000000Y2187500D01*
G75*
G02*
X-3062500Y2125000I-62500J0D01*
G01*
G37*
G36*
G01*
X-3062500Y2625000D02*
X-3812500Y2625000D01*
G75*
G02*
X-3875000Y2687500I0J62500D01*
G01*
X-3875000Y2812500D01*
G75*
G02*
X-3812500Y2875000I62500J0D01*
G01*
X-3062500Y2875000D01*
G75*
G02*
X-3000000Y2812500I0J-62500D01*
G01*
X-3000000Y2687500D01*
G75*
G02*
X-3062500Y2625000I-62500J0D01*
G01*
G37*
G36*
G01*
X-3062500Y3125000D02*
X-3812500Y3125000D01*
G75*
G02*
X-3875000Y3187500I0J62500D01*
G01*
X-3875000Y3312500D01*
G75*
G02*
X-3812500Y3375000I62500J0D01*
G01*
X-3062500Y3375000D01*
G75*
G02*
X-3000000Y3312500I0J-62500D01*
G01*
X-3000000Y3187500D01*
G75*
G02*
X-3062500Y3125000I-62500J0D01*
G01*
G37*
G36*
G01*
X-3062500Y3625000D02*
X-3812500Y3625000D01*
G75*
G02*
X-3875000Y3687500I0J62500D01*
G01*
X-3875000Y3812500D01*
G75*
G02*
X-3812500Y3875000I62500J0D01*
G01*
X-3062500Y3875000D01*
G75*
G02*
X-3000000Y3812500I0J-62500D01*
G01*
X-3000000Y3687500D01*
G75*
G02*
X-3062500Y3625000I-62500J0D01*
G01*
G37*
G36*
G01*
X-3062500Y4125000D02*
X-3812500Y4125000D01*
G75*
G02*
X-3875000Y4187500I0J62500D01*
G01*
X-3875000Y4312500D01*
G75*
G02*
X-3812500Y4375000I62500J0D01*
G01*
X-3062500Y4375000D01*
G75*
G02*
X-3000000Y4312500I0J-62500D01*
G01*
X-3000000Y4187500D01*
G75*
G02*
X-3062500Y4125000I-62500J0D01*
G01*
G37*
G36*
G01*
X-3062500Y4625000D02*
X-3812500Y4625000D01*
G75*
G02*
X-3875000Y4687500I0J62500D01*
G01*
X-3875000Y4812500D01*
G75*
G02*
X-3812500Y4875000I62500J0D01*
G01*
X-3062500Y4875000D01*
G75*
G02*
X-3000000Y4812500I0J-62500D01*
G01*
X-3000000Y4687500D01*
G75*
G02*
X-3062500Y4625000I-62500J0D01*
G01*
G37*
G36*
G01*
X-2687500Y5000000D02*
X-2812500Y5000000D01*
G75*
G02*
X-2875000Y5062500I0J62500D01*
G01*
X-2875000Y5812500D01*
G75*
G02*
X-2812500Y5875000I62500J0D01*
G01*
X-2687500Y5875000D01*
G75*
G02*
X-2625000Y5812500I0J-62500D01*
G01*
X-2625000Y5062500D01*
G75*
G02*
X-2687500Y5000000I-62500J0D01*
G01*
G37*
G36*
G01*
X-2187500Y5000000D02*
X-2312500Y5000000D01*
G75*
G02*
X-2375000Y5062500I0J62500D01*
G01*
X-2375000Y5812500D01*
G75*
G02*
X-2312500Y5875000I62500J0D01*
G01*
X-2187500Y5875000D01*
G75*
G02*
X-2125000Y5812500I0J-62500D01*
G01*
X-2125000Y5062500D01*
G75*
G02*
X-2187500Y5000000I-62500J0D01*
G01*
G37*
G36*
G01*
X-1687500Y5000000D02*
X-1812500Y5000000D01*
G75*
G02*
X-1875000Y5062500I0J62500D01*
G01*
X-1875000Y5812500D01*
G75*
G02*
X-1812500Y5875000I62500J0D01*
G01*
X-1687500Y5875000D01*
G75*
G02*
X-1625000Y5812500I0J-62500D01*
G01*
X-1625000Y5062500D01*
G75*
G02*
X-1687500Y5000000I-62500J0D01*
G01*
G37*
G36*
G01*
X-1187500Y5000000D02*
X-1312500Y5000000D01*
G75*
G02*
X-1375000Y5062500I0J62500D01*
G01*
X-1375000Y5812500D01*
G75*
G02*
X-1312500Y5875000I62500J0D01*
G01*
X-1187500Y5875000D01*
G75*
G02*
X-1125000Y5812500I0J-62500D01*
G01*
X-1125000Y5062500D01*
G75*
G02*
X-1187500Y5000000I-62500J0D01*
G01*
G37*
G36*
G01*
X-687500Y5000000D02*
X-812500Y5000000D01*
G75*
G02*
X-875000Y5062500I0J62500D01*
G01*
X-875000Y5812500D01*
G75*
G02*
X-812500Y5875000I62500J0D01*
G01*
X-687500Y5875000D01*
G75*
G02*
X-625000Y5812500I0J-62500D01*
G01*
X-625000Y5062500D01*
G75*
G02*
X-687500Y5000000I-62500J0D01*
G01*
G37*
G36*
G01*
X-187500Y5000000D02*
X-312500Y5000000D01*
G75*
G02*
X-375000Y5062500I0J62500D01*
G01*
X-375000Y5812500D01*
G75*
G02*
X-312500Y5875000I62500J0D01*
G01*
X-187500Y5875000D01*
G75*
G02*
X-125000Y5812500I0J-62500D01*
G01*
X-125000Y5062500D01*
G75*
G02*
X-187500Y5000000I-62500J0D01*
G01*
G37*
G36*
G01*
X312500Y5000000D02*
X187500Y5000000D01*
G75*
G02*
X125000Y5062500I0J62500D01*
G01*
X125000Y5812500D01*
G75*
G02*
X187500Y5875000I62500J0D01*
G01*
X312500Y5875000D01*
G75*
G02*
X375000Y5812500I0J-62500D01*
G01*
X375000Y5062500D01*
G75*
G02*
X312500Y5000000I-62500J0D01*
G01*
G37*
G36*
G01*
X812500Y5000000D02*
X687500Y5000000D01*
G75*
G02*
X625000Y5062500I0J62500D01*
G01*
X625000Y5812500D01*
G75*
G02*
X687500Y5875000I62500J0D01*
G01*
X812500Y5875000D01*
G75*
G02*
X875000Y5812500I0J-62500D01*
G01*
X875000Y5062500D01*
G75*
G02*
X812500Y5000000I-62500J0D01*
G01*
G37*
G36*
G01*
X1312500Y5000000D02*
X1187500Y5000000D01*
G75*
G02*
X1125000Y5062500I0J62500D01*
G01*
X1125000Y5812500D01*
G75*
G02*
X1187500Y5875000I62500J0D01*
G01*
X1312500Y5875000D01*
G75*
G02*
X1375000Y5812500I0J-62500D01*
G01*
X1375000Y5062500D01*
G75*
G02*
X1312500Y5000000I-62500J0D01*
G01*
G37*
G36*
G01*
X1812500Y5000000D02*
X1687500Y5000000D01*
G75*
G02*
X1625000Y5062500I0J62500D01*
G01*
X1625000Y5812500D01*
G75*
G02*
X1687500Y5875000I62500J0D01*
G01*
X1812500Y5875000D01*
G75*
G02*
X1875000Y5812500I0J-62500D01*
G01*
X1875000Y5062500D01*
G75*
G02*
X1812500Y5000000I-62500J0D01*
G01*
G37*
G36*
G01*
X2312500Y5000000D02*
X2187500Y5000000D01*
G75*
G02*
X2125000Y5062500I0J62500D01*
G01*
X2125000Y5812500D01*
G75*
G02*
X2187500Y5875000I62500J0D01*
G01*
X2312500Y5875000D01*
G75*
G02*
X2375000Y5812500I0J-62500D01*
G01*
X2375000Y5062500D01*
G75*
G02*
X2312500Y5000000I-62500J0D01*
G01*
G37*
G36*
G01*
X2812500Y5000000D02*
X2687500Y5000000D01*
G75*
G02*
X2625000Y5062500I0J62500D01*
G01*
X2625000Y5812500D01*
G75*
G02*
X2687500Y5875000I62500J0D01*
G01*
X2812500Y5875000D01*
G75*
G02*
X2875000Y5812500I0J-62500D01*
G01*
X2875000Y5062500D01*
G75*
G02*
X2812500Y5000000I-62500J0D01*
G01*
G37*
G36*
G01*
X3812500Y4625000D02*
X3062500Y4625000D01*
G75*
G02*
X3000000Y4687500I0J62500D01*
G01*
X3000000Y4812500D01*
G75*
G02*
X3062500Y4875000I62500J0D01*
G01*
X3812500Y4875000D01*
G75*
G02*
X3875000Y4812500I0J-62500D01*
G01*
X3875000Y4687500D01*
G75*
G02*
X3812500Y4625000I-62500J0D01*
G01*
G37*
G36*
G01*
X3812500Y4125000D02*
X3062500Y4125000D01*
G75*
G02*
X3000000Y4187500I0J62500D01*
G01*
X3000000Y4312500D01*
G75*
G02*
X3062500Y4375000I62500J0D01*
G01*
X3812500Y4375000D01*
G75*
G02*
X3875000Y4312500I0J-62500D01*
G01*
X3875000Y4187500D01*
G75*
G02*
X3812500Y4125000I-62500J0D01*
G01*
G37*
G36*
G01*
X3812500Y3625000D02*
X3062500Y3625000D01*
G75*
G02*
X3000000Y3687500I0J62500D01*
G01*
X3000000Y3812500D01*
G75*
G02*
X3062500Y3875000I62500J0D01*
G01*
X3812500Y3875000D01*
G75*
G02*
X3875000Y3812500I0J-62500D01*
G01*
X3875000Y3687500D01*
G75*
G02*
X3812500Y3625000I-62500J0D01*
G01*
G37*
G36*
G01*
X3812500Y3125000D02*
X3062500Y3125000D01*
G75*
G02*
X3000000Y3187500I0J62500D01*
G01*
X3000000Y3312500D01*
G75*
G02*
X3062500Y3375000I62500J0D01*
G01*
X3812500Y3375000D01*
G75*
G02*
X3875000Y3312500I0J-62500D01*
G01*
X3875000Y3187500D01*
G75*
G02*
X3812500Y3125000I-62500J0D01*
G01*
G37*
G36*
G01*
X3812500Y2625000D02*
X3062500Y2625000D01*
G75*
G02*
X3000000Y2687500I0J62500D01*
G01*
X3000000Y2812500D01*
G75*
G02*
X3062500Y2875000I62500J0D01*
G01*
X3812500Y2875000D01*
G75*
G02*
X3875000Y2812500I0J-62500D01*
G01*
X3875000Y2687500D01*
G75*
G02*
X3812500Y2625000I-62500J0D01*
G01*
G37*
G36*
G01*
X3812500Y2125000D02*
X3062500Y2125000D01*
G75*
G02*
X3000000Y2187500I0J62500D01*
G01*
X3000000Y2312500D01*
G75*
G02*
X3062500Y2375000I62500J0D01*
G01*
X3812500Y2375000D01*
G75*
G02*
X3875000Y2312500I0J-62500D01*
G01*
X3875000Y2187500D01*
G75*
G02*
X3812500Y2125000I-62500J0D01*
G01*
G37*
G36*
G01*
X3812500Y1625000D02*
X3062500Y1625000D01*
G75*
G02*
X3000000Y1687500I0J62500D01*
G01*
X3000000Y1812500D01*
G75*
G02*
X3062500Y1875000I62500J0D01*
G01*
X3812500Y1875000D01*
G75*
G02*
X3875000Y1812500I0J-62500D01*
G01*
X3875000Y1687500D01*
G75*
G02*
X3812500Y1625000I-62500J0D01*
G01*
G37*
G36*
G01*
X3812500Y1125000D02*
X3062500Y1125000D01*
G75*
G02*
X3000000Y1187500I0J62500D01*
G01*
X3000000Y1312500D01*
G75*
G02*
X3062500Y1375000I62500J0D01*
G01*
X3812500Y1375000D01*
G75*
G02*
X3875000Y1312500I0J-62500D01*
G01*
X3875000Y1187500D01*
G75*
G02*
X3812500Y1125000I-62500J0D01*
G01*
G37*
G36*
G01*
X3812500Y625000D02*
X3062500Y625000D01*
G75*
G02*
X3000000Y687500I0J62500D01*
G01*
X3000000Y812500D01*
G75*
G02*
X3062500Y875000I62500J0D01*
G01*
X3812500Y875000D01*
G75*
G02*
X3875000Y812500I0J-62500D01*
G01*
X3875000Y687500D01*
G75*
G02*
X3812500Y625000I-62500J0D01*
G01*
G37*
G36*
G01*
X3812500Y125000D02*
X3062500Y125000D01*
G75*
G02*
X3000000Y187500I0J62500D01*
G01*
X3000000Y312500D01*
G75*
G02*
X3062500Y375000I62500J0D01*
G01*
X3812500Y375000D01*
G75*
G02*
X3875000Y312500I0J-62500D01*
G01*
X3875000Y187500D01*
G75*
G02*
X3812500Y125000I-62500J0D01*
G01*
G37*
G36*
G01*
X3812500Y-375000D02*
X3062500Y-375000D01*
G75*
G02*
X3000000Y-312500I0J62500D01*
G01*
X3000000Y-187500D01*
G75*
G02*
X3062500Y-125000I62500J0D01*
G01*
X3812500Y-125000D01*
G75*
G02*
X3875000Y-187500I0J-62500D01*
G01*
X3875000Y-312500D01*
G75*
G02*
X3812500Y-375000I-62500J0D01*
G01*
G37*
G36*
G01*
X3812500Y-875000D02*
X3062500Y-875000D01*
G75*
G02*
X3000000Y-812500I0J62500D01*
G01*
X3000000Y-687500D01*
G75*
G02*
X3062500Y-625000I62500J0D01*
G01*
X3812500Y-625000D01*
G75*
G02*
X3875000Y-687500I0J-62500D01*
G01*
X3875000Y-812500D01*
G75*
G02*
X3812500Y-875000I-62500J0D01*
G01*
G37*
G36*
G01*
X2812500Y-1875000D02*
X2687500Y-1875000D01*
G75*
G02*
X2625000Y-1812500I0J62500D01*
G01*
X2625000Y-1062500D01*
G75*
G02*
X2687500Y-1000000I62500J0D01*
G01*
X2812500Y-1000000D01*
G75*
G02*
X2875000Y-1062500I0J-62500D01*
G01*
X2875000Y-1812500D01*
G75*
G02*
X2812500Y-1875000I-62500J0D01*
G01*
G37*
G36*
G01*
X2312500Y-1875000D02*
X2187500Y-1875000D01*
G75*
G02*
X2125000Y-1812500I0J62500D01*
G01*
X2125000Y-1062500D01*
G75*
G02*
X2187500Y-1000000I62500J0D01*
G01*
X2312500Y-1000000D01*
G75*
G02*
X2375000Y-1062500I0J-62500D01*
G01*
X2375000Y-1812500D01*
G75*
G02*
X2312500Y-1875000I-62500J0D01*
G01*
G37*
G36*
G01*
X1812500Y-1875000D02*
X1687500Y-1875000D01*
G75*
G02*
X1625000Y-1812500I0J62500D01*
G01*
X1625000Y-1062500D01*
G75*
G02*
X1687500Y-1000000I62500J0D01*
G01*
X1812500Y-1000000D01*
G75*
G02*
X1875000Y-1062500I0J-62500D01*
G01*
X1875000Y-1812500D01*
G75*
G02*
X1812500Y-1875000I-62500J0D01*
G01*
G37*
G36*
G01*
X1312500Y-1875000D02*
X1187500Y-1875000D01*
G75*
G02*
X1125000Y-1812500I0J62500D01*
G01*
X1125000Y-1062500D01*
G75*
G02*
X1187500Y-1000000I62500J0D01*
G01*
X1312500Y-1000000D01*
G75*
G02*
X1375000Y-1062500I0J-62500D01*
G01*
X1375000Y-1812500D01*
G75*
G02*
X1312500Y-1875000I-62500J0D01*
G01*
G37*
G36*
G01*
X812500Y-1875000D02*
X687500Y-1875000D01*
G75*
G02*
X625000Y-1812500I0J62500D01*
G01*
X625000Y-1062500D01*
G75*
G02*
X687500Y-1000000I62500J0D01*
G01*
X812500Y-1000000D01*
G75*
G02*
X875000Y-1062500I0J-62500D01*
G01*
X875000Y-1812500D01*
G75*
G02*
X812500Y-1875000I-62500J0D01*
G01*
G37*
G36*
G01*
X312500Y-1875000D02*
X187500Y-1875000D01*
G75*
G02*
X125000Y-1812500I0J62500D01*
G01*
X125000Y-1062500D01*
G75*
G02*
X187500Y-1000000I62500J0D01*
G01*
X312500Y-1000000D01*
G75*
G02*
X375000Y-1062500I0J-62500D01*
G01*
X375000Y-1812500D01*
G75*
G02*
X312500Y-1875000I-62500J0D01*
G01*
G37*
G36*
G01*
X-187500Y-1875000D02*
X-312500Y-1875000D01*
G75*
G02*
X-375000Y-1812500I0J62500D01*
G01*
X-375000Y-1062500D01*
G75*
G02*
X-312500Y-1000000I62500J0D01*
G01*
X-187500Y-1000000D01*
G75*
G02*
X-125000Y-1062500I0J-62500D01*
G01*
X-125000Y-1812500D01*
G75*
G02*
X-187500Y-1875000I-62500J0D01*
G01*
G37*
G36*
G01*
X-687500Y-1875000D02*
X-812500Y-1875000D01*
G75*
G02*
X-875000Y-1812500I0J62500D01*
G01*
X-875000Y-1062500D01*
G75*
G02*
X-812500Y-1000000I62500J0D01*
G01*
X-687500Y-1000000D01*
G75*
G02*
X-625000Y-1062500I0J-62500D01*
G01*
X-625000Y-1812500D01*
G75*
G02*
X-687500Y-1875000I-62500J0D01*
G01*
G37*
G36*
G01*
X-1187500Y-1875000D02*
X-1312500Y-1875000D01*
G75*
G02*
X-1375000Y-1812500I0J62500D01*
G01*
X-1375000Y-1062500D01*
G75*
G02*
X-1312500Y-1000000I62500J0D01*
G01*
X-1187500Y-1000000D01*
G75*
G02*
X-1125000Y-1062500I0J-62500D01*
G01*
X-1125000Y-1812500D01*
G75*
G02*
X-1187500Y-1875000I-62500J0D01*
G01*
G37*
G36*
G01*
X-1687500Y-1875000D02*
X-1812500Y-1875000D01*
G75*
G02*
X-1875000Y-1812500I0J62500D01*
G01*
X-1875000Y-1062500D01*
G75*
G02*
X-1812500Y-1000000I62500J0D01*
G01*
X-1687500Y-1000000D01*
G75*
G02*
X-1625000Y-1062500I0J-62500D01*
G01*
X-1625000Y-1812500D01*
G75*
G02*
X-1687500Y-1875000I-62500J0D01*
G01*
G37*
G36*
G01*
X-2187500Y-1875000D02*
X-2312500Y-1875000D01*
G75*
G02*
X-2375000Y-1812500I0J62500D01*
G01*
X-2375000Y-1062500D01*
G75*
G02*
X-2312500Y-1000000I62500J0D01*
G01*
X-2187500Y-1000000D01*
G75*
G02*
X-2125000Y-1062500I0J-62500D01*
G01*
X-2125000Y-1812500D01*
G75*
G02*
X-2187500Y-1875000I-62500J0D01*
G01*
G37*
G36*
G01*
X-2687500Y-1875000D02*
X-2812500Y-1875000D01*
G75*
G02*
X-2875000Y-1812500I0J62500D01*
G01*
X-2875000Y-1062500D01*
G75*
G02*
X-2812500Y-1000000I62500J0D01*
G01*
X-2687500Y-1000000D01*
G75*
G02*
X-2625000Y-1062500I0J-62500D01*
G01*
X-2625000Y-1812500D01*
G75*
G02*
X-2687500Y-1875000I-62500J0D01*
G01*
G37*
G36*
G01*
X-1755000Y-11200000D02*
X-2055000Y-11200000D01*
G75*
G02*
X-2205000Y-11050000I0J150000D01*
G01*
X-2205000Y-9400000D01*
G75*
G02*
X-2055000Y-9250000I150000J0D01*
G01*
X-1755000Y-9250000D01*
G75*
G02*
X-1605000Y-9400000I0J-150000D01*
G01*
X-1605000Y-11050000D01*
G75*
G02*
X-1755000Y-11200000I-150000J0D01*
G01*
G37*
G36*
G01*
X-485000Y-11200000D02*
X-785000Y-11200000D01*
G75*
G02*
X-935000Y-11050000I0J150000D01*
G01*
X-935000Y-9400000D01*
G75*
G02*
X-785000Y-9250000I150000J0D01*
G01*
X-485000Y-9250000D01*
G75*
G02*
X-335000Y-9400000I0J-150000D01*
G01*
X-335000Y-11050000D01*
G75*
G02*
X-485000Y-11200000I-150000J0D01*
G01*
G37*
G36*
G01*
X785000Y-11200000D02*
X485000Y-11200000D01*
G75*
G02*
X335000Y-11050000I0J150000D01*
G01*
X335000Y-9400000D01*
G75*
G02*
X485000Y-9250000I150000J0D01*
G01*
X785000Y-9250000D01*
G75*
G02*
X935000Y-9400000I0J-150000D01*
G01*
X935000Y-11050000D01*
G75*
G02*
X785000Y-11200000I-150000J0D01*
G01*
G37*
G36*
G01*
X2055000Y-11200000D02*
X1755000Y-11200000D01*
G75*
G02*
X1605000Y-11050000I0J150000D01*
G01*
X1605000Y-9400000D01*
G75*
G02*
X1755000Y-9250000I150000J0D01*
G01*
X2055000Y-9250000D01*
G75*
G02*
X2205000Y-9400000I0J-150000D01*
G01*
X2205000Y-11050000D01*
G75*
G02*
X2055000Y-11200000I-150000J0D01*
G01*
G37*
G36*
G01*
X2055000Y-16150000D02*
X1755000Y-16150000D01*
G75*
G02*
X1605000Y-16000000I0J150000D01*
G01*
X1605000Y-14350000D01*
G75*
G02*
X1755000Y-14200000I150000J0D01*
G01*
X2055000Y-14200000D01*
G75*
G02*
X2205000Y-14350000I0J-150000D01*
G01*
X2205000Y-16000000D01*
G75*
G02*
X2055000Y-16150000I-150000J0D01*
G01*
G37*
G36*
G01*
X785000Y-16150000D02*
X485000Y-16150000D01*
G75*
G02*
X335000Y-16000000I0J150000D01*
G01*
X335000Y-14350000D01*
G75*
G02*
X485000Y-14200000I150000J0D01*
G01*
X785000Y-14200000D01*
G75*
G02*
X935000Y-14350000I0J-150000D01*
G01*
X935000Y-16000000D01*
G75*
G02*
X785000Y-16150000I-150000J0D01*
G01*
G37*
G36*
G01*
X-485000Y-16150000D02*
X-785000Y-16150000D01*
G75*
G02*
X-935000Y-16000000I0J150000D01*
G01*
X-935000Y-14350000D01*
G75*
G02*
X-785000Y-14200000I150000J0D01*
G01*
X-485000Y-14200000D01*
G75*
G02*
X-335000Y-14350000I0J-150000D01*
G01*
X-335000Y-16000000D01*
G75*
G02*
X-485000Y-16150000I-150000J0D01*
G01*
G37*
G36*
G01*
X-1755000Y-16150000D02*
X-2055000Y-16150000D01*
G75*
G02*
X-2205000Y-16000000I0J150000D01*
G01*
X-2205000Y-14350000D01*
G75*
G02*
X-2055000Y-14200000I150000J0D01*
G01*
X-1755000Y-14200000D01*
G75*
G02*
X-1605000Y-14350000I0J-150000D01*
G01*
X-1605000Y-16000000D01*
G75*
G02*
X-1755000Y-16150000I-150000J0D01*
G01*
G37*
D20*
X900000Y8460000D03*
X2300000Y7960000D03*
X900000Y7460000D03*
X2300000Y8460000D03*
X2300000Y7460000D03*
D21*
X9300000Y-5000000D03*
X5900000Y-5000000D03*
X-5900000Y-5000000D03*
X-9300000Y-5000000D03*
G36*
G01*
X-6185000Y15780000D02*
X-5815000Y15780000D01*
G75*
G02*
X-5680000Y15645000I0J-135000D01*
G01*
X-5680000Y15375000D01*
G75*
G02*
X-5815000Y15240000I-135000J0D01*
G01*
X-6185000Y15240000D01*
G75*
G02*
X-6320000Y15375000I0J135000D01*
G01*
X-6320000Y15645000D01*
G75*
G02*
X-6185000Y15780000I135000J0D01*
G01*
G37*
G36*
G01*
X-6185000Y14760000D02*
X-5815000Y14760000D01*
G75*
G02*
X-5680000Y14625000I0J-135000D01*
G01*
X-5680000Y14355000D01*
G75*
G02*
X-5815000Y14220000I-135000J0D01*
G01*
X-6185000Y14220000D01*
G75*
G02*
X-6320000Y14355000I0J135000D01*
G01*
X-6320000Y14625000D01*
G75*
G02*
X-6185000Y14760000I135000J0D01*
G01*
G37*
G36*
G01*
X7038891Y-18300520D02*
X7300520Y-18038891D01*
G75*
G02*
X7491438Y-18038891I95459J-95459D01*
G01*
X7682357Y-18229810D01*
G75*
G02*
X7682357Y-18420728I-95459J-95459D01*
G01*
X7420728Y-18682357D01*
G75*
G02*
X7229810Y-18682357I-95459J95459D01*
G01*
X7038891Y-18491438D01*
G75*
G02*
X7038891Y-18300520I95459J95459D01*
G01*
G37*
G36*
G01*
X6317643Y-17579272D02*
X6579272Y-17317643D01*
G75*
G02*
X6770190Y-17317643I95459J-95459D01*
G01*
X6961109Y-17508562D01*
G75*
G02*
X6961109Y-17699480I-95459J-95459D01*
G01*
X6699480Y-17961109D01*
G75*
G02*
X6508562Y-17961109I-95459J95459D01*
G01*
X6317643Y-17770190D01*
G75*
G02*
X6317643Y-17579272I95459J95459D01*
G01*
G37*
G36*
G01*
X-7300520Y-18038891D02*
X-7038891Y-18300520D01*
G75*
G02*
X-7038891Y-18491438I-95459J-95459D01*
G01*
X-7229810Y-18682357D01*
G75*
G02*
X-7420728Y-18682357I-95459J95459D01*
G01*
X-7682357Y-18420728D01*
G75*
G02*
X-7682357Y-18229810I95459J95459D01*
G01*
X-7491438Y-18038891D01*
G75*
G02*
X-7300520Y-18038891I95459J-95459D01*
G01*
G37*
G36*
G01*
X-6579272Y-17317643D02*
X-6317643Y-17579272D01*
G75*
G02*
X-6317643Y-17770190I-95459J-95459D01*
G01*
X-6508562Y-17961109D01*
G75*
G02*
X-6699480Y-17961109I-95459J95459D01*
G01*
X-6961109Y-17699480D01*
G75*
G02*
X-6961109Y-17508562I95459J95459D01*
G01*
X-6770190Y-17317643D01*
G75*
G02*
X-6579272Y-17317643I95459J-95459D01*
G01*
G37*
G36*
G01*
X5815000Y14760000D02*
X6185000Y14760000D01*
G75*
G02*
X6320000Y14625000I0J-135000D01*
G01*
X6320000Y14355000D01*
G75*
G02*
X6185000Y14220000I-135000J0D01*
G01*
X5815000Y14220000D01*
G75*
G02*
X5680000Y14355000I0J135000D01*
G01*
X5680000Y14625000D01*
G75*
G02*
X5815000Y14760000I135000J0D01*
G01*
G37*
G36*
G01*
X5815000Y15780000D02*
X6185000Y15780000D01*
G75*
G02*
X6320000Y15645000I0J-135000D01*
G01*
X6320000Y15375000D01*
G75*
G02*
X6185000Y15240000I-135000J0D01*
G01*
X5815000Y15240000D01*
G75*
G02*
X5680000Y15375000I0J135000D01*
G01*
X5680000Y15645000D01*
G75*
G02*
X5815000Y15780000I135000J0D01*
G01*
G37*
G36*
G01*
X3315000Y-10640000D02*
X3685000Y-10640000D01*
G75*
G02*
X3820000Y-10775000I0J-135000D01*
G01*
X3820000Y-11045000D01*
G75*
G02*
X3685000Y-11180000I-135000J0D01*
G01*
X3315000Y-11180000D01*
G75*
G02*
X3180000Y-11045000I0J135000D01*
G01*
X3180000Y-10775000D01*
G75*
G02*
X3315000Y-10640000I135000J0D01*
G01*
G37*
G36*
G01*
X3315000Y-9620000D02*
X3685000Y-9620000D01*
G75*
G02*
X3820000Y-9755000I0J-135000D01*
G01*
X3820000Y-10025000D01*
G75*
G02*
X3685000Y-10160000I-135000J0D01*
G01*
X3315000Y-10160000D01*
G75*
G02*
X3180000Y-10025000I0J135000D01*
G01*
X3180000Y-9755000D01*
G75*
G02*
X3315000Y-9620000I135000J0D01*
G01*
G37*
G36*
G01*
X4785000Y-10160000D02*
X4415000Y-10160000D01*
G75*
G02*
X4280000Y-10025000I0J135000D01*
G01*
X4280000Y-9755000D01*
G75*
G02*
X4415000Y-9620000I135000J0D01*
G01*
X4785000Y-9620000D01*
G75*
G02*
X4920000Y-9755000I0J-135000D01*
G01*
X4920000Y-10025000D01*
G75*
G02*
X4785000Y-10160000I-135000J0D01*
G01*
G37*
G36*
G01*
X4785000Y-11180000D02*
X4415000Y-11180000D01*
G75*
G02*
X4280000Y-11045000I0J135000D01*
G01*
X4280000Y-10775000D01*
G75*
G02*
X4415000Y-10640000I135000J0D01*
G01*
X4785000Y-10640000D01*
G75*
G02*
X4920000Y-10775000I0J-135000D01*
G01*
X4920000Y-11045000D01*
G75*
G02*
X4785000Y-11180000I-135000J0D01*
G01*
G37*
G36*
G01*
X6340000Y-2985000D02*
X6340000Y-2615000D01*
G75*
G02*
X6475000Y-2480000I135000J0D01*
G01*
X6745000Y-2480000D01*
G75*
G02*
X6880000Y-2615000I0J-135000D01*
G01*
X6880000Y-2985000D01*
G75*
G02*
X6745000Y-3120000I-135000J0D01*
G01*
X6475000Y-3120000D01*
G75*
G02*
X6340000Y-2985000I0J135000D01*
G01*
G37*
G36*
G01*
X5320000Y-2985000D02*
X5320000Y-2615000D01*
G75*
G02*
X5455000Y-2480000I135000J0D01*
G01*
X5725000Y-2480000D01*
G75*
G02*
X5860000Y-2615000I0J-135000D01*
G01*
X5860000Y-2985000D01*
G75*
G02*
X5725000Y-3120000I-135000J0D01*
G01*
X5455000Y-3120000D01*
G75*
G02*
X5320000Y-2985000I0J135000D01*
G01*
G37*
G36*
G01*
X-3240000Y8185000D02*
X-3240000Y7815000D01*
G75*
G02*
X-3375000Y7680000I-135000J0D01*
G01*
X-3645000Y7680000D01*
G75*
G02*
X-3780000Y7815000I0J135000D01*
G01*
X-3780000Y8185000D01*
G75*
G02*
X-3645000Y8320000I135000J0D01*
G01*
X-3375000Y8320000D01*
G75*
G02*
X-3240000Y8185000I0J-135000D01*
G01*
G37*
G36*
G01*
X-2220000Y8185000D02*
X-2220000Y7815000D01*
G75*
G02*
X-2355000Y7680000I-135000J0D01*
G01*
X-2625000Y7680000D01*
G75*
G02*
X-2760000Y7815000I0J135000D01*
G01*
X-2760000Y8185000D01*
G75*
G02*
X-2625000Y8320000I135000J0D01*
G01*
X-2355000Y8320000D01*
G75*
G02*
X-2220000Y8185000I0J-135000D01*
G01*
G37*
G36*
G01*
X-7340000Y-2515000D02*
X-7340000Y-2885000D01*
G75*
G02*
X-7475000Y-3020000I-135000J0D01*
G01*
X-7745000Y-3020000D01*
G75*
G02*
X-7880000Y-2885000I0J135000D01*
G01*
X-7880000Y-2515000D01*
G75*
G02*
X-7745000Y-2380000I135000J0D01*
G01*
X-7475000Y-2380000D01*
G75*
G02*
X-7340000Y-2515000I0J-135000D01*
G01*
G37*
G36*
G01*
X-6320000Y-2515000D02*
X-6320000Y-2885000D01*
G75*
G02*
X-6455000Y-3020000I-135000J0D01*
G01*
X-6725000Y-3020000D01*
G75*
G02*
X-6860000Y-2885000I0J135000D01*
G01*
X-6860000Y-2515000D01*
G75*
G02*
X-6725000Y-2380000I135000J0D01*
G01*
X-6455000Y-2380000D01*
G75*
G02*
X-6320000Y-2515000I0J-135000D01*
G01*
G37*
G36*
G01*
X4615000Y860000D02*
X4985000Y860000D01*
G75*
G02*
X5120000Y725000I0J-135000D01*
G01*
X5120000Y455000D01*
G75*
G02*
X4985000Y320000I-135000J0D01*
G01*
X4615000Y320000D01*
G75*
G02*
X4480000Y455000I0J135000D01*
G01*
X4480000Y725000D01*
G75*
G02*
X4615000Y860000I135000J0D01*
G01*
G37*
G36*
G01*
X4615000Y1880000D02*
X4985000Y1880000D01*
G75*
G02*
X5120000Y1745000I0J-135000D01*
G01*
X5120000Y1475000D01*
G75*
G02*
X4985000Y1340000I-135000J0D01*
G01*
X4615000Y1340000D01*
G75*
G02*
X4480000Y1475000I0J135000D01*
G01*
X4480000Y1745000D01*
G75*
G02*
X4615000Y1880000I135000J0D01*
G01*
G37*
G36*
G01*
X2750000Y9872500D02*
X2750000Y9527500D01*
G75*
G02*
X2602500Y9380000I-147500J0D01*
G01*
X2307500Y9380000D01*
G75*
G02*
X2160000Y9527500I0J147500D01*
G01*
X2160000Y9872500D01*
G75*
G02*
X2307500Y10020000I147500J0D01*
G01*
X2602500Y10020000D01*
G75*
G02*
X2750000Y9872500I0J-147500D01*
G01*
G37*
G36*
G01*
X3720000Y9872500D02*
X3720000Y9527500D01*
G75*
G02*
X3572500Y9380000I-147500J0D01*
G01*
X3277500Y9380000D01*
G75*
G02*
X3130000Y9527500I0J147500D01*
G01*
X3130000Y9872500D01*
G75*
G02*
X3277500Y10020000I147500J0D01*
G01*
X3572500Y10020000D01*
G75*
G02*
X3720000Y9872500I0J-147500D01*
G01*
G37*
G36*
G01*
X7772500Y-930000D02*
X7427500Y-930000D01*
G75*
G02*
X7280000Y-782500I0J147500D01*
G01*
X7280000Y-487500D01*
G75*
G02*
X7427500Y-340000I147500J0D01*
G01*
X7772500Y-340000D01*
G75*
G02*
X7920000Y-487500I0J-147500D01*
G01*
X7920000Y-782500D01*
G75*
G02*
X7772500Y-930000I-147500J0D01*
G01*
G37*
G36*
G01*
X7772500Y-1900000D02*
X7427500Y-1900000D01*
G75*
G02*
X7280000Y-1752500I0J147500D01*
G01*
X7280000Y-1457500D01*
G75*
G02*
X7427500Y-1310000I147500J0D01*
G01*
X7772500Y-1310000D01*
G75*
G02*
X7920000Y-1457500I0J-147500D01*
G01*
X7920000Y-1752500D01*
G75*
G02*
X7772500Y-1900000I-147500J0D01*
G01*
G37*
G36*
G01*
X-5956250Y7250000D02*
X-5443750Y7250000D01*
G75*
G02*
X-5225000Y7031250I0J-218750D01*
G01*
X-5225000Y6593750D01*
G75*
G02*
X-5443750Y6375000I-218750J0D01*
G01*
X-5956250Y6375000D01*
G75*
G02*
X-6175000Y6593750I0J218750D01*
G01*
X-6175000Y7031250D01*
G75*
G02*
X-5956250Y7250000I218750J0D01*
G01*
G37*
G36*
G01*
X-5956250Y8825000D02*
X-5443750Y8825000D01*
G75*
G02*
X-5225000Y8606250I0J-218750D01*
G01*
X-5225000Y8168750D01*
G75*
G02*
X-5443750Y7950000I-218750J0D01*
G01*
X-5956250Y7950000D01*
G75*
G02*
X-6175000Y8168750I0J218750D01*
G01*
X-6175000Y8606250D01*
G75*
G02*
X-5956250Y8825000I218750J0D01*
G01*
G37*
G36*
G01*
X5900000Y-7030000D02*
X5900000Y-7370000D01*
G75*
G02*
X5760000Y-7510000I-140000J0D01*
G01*
X5480000Y-7510000D01*
G75*
G02*
X5340000Y-7370000I0J140000D01*
G01*
X5340000Y-7030000D01*
G75*
G02*
X5480000Y-6890000I140000J0D01*
G01*
X5760000Y-6890000D01*
G75*
G02*
X5900000Y-7030000I0J-140000D01*
G01*
G37*
G36*
G01*
X6860000Y-7030000D02*
X6860000Y-7370000D01*
G75*
G02*
X6720000Y-7510000I-140000J0D01*
G01*
X6440000Y-7510000D01*
G75*
G02*
X6300000Y-7370000I0J140000D01*
G01*
X6300000Y-7030000D01*
G75*
G02*
X6440000Y-6890000I140000J0D01*
G01*
X6720000Y-6890000D01*
G75*
G02*
X6860000Y-7030000I0J-140000D01*
G01*
G37*
G36*
G01*
X-4440000Y-1630000D02*
X-4440000Y-1970000D01*
G75*
G02*
X-4580000Y-2110000I-140000J0D01*
G01*
X-4860000Y-2110000D01*
G75*
G02*
X-5000000Y-1970000I0J140000D01*
G01*
X-5000000Y-1630000D01*
G75*
G02*
X-4860000Y-1490000I140000J0D01*
G01*
X-4580000Y-1490000D01*
G75*
G02*
X-4440000Y-1630000I0J-140000D01*
G01*
G37*
G36*
G01*
X-5400000Y-1630000D02*
X-5400000Y-1970000D01*
G75*
G02*
X-5540000Y-2110000I-140000J0D01*
G01*
X-5820000Y-2110000D01*
G75*
G02*
X-5960000Y-1970000I0J140000D01*
G01*
X-5960000Y-1630000D01*
G75*
G02*
X-5820000Y-1490000I140000J0D01*
G01*
X-5540000Y-1490000D01*
G75*
G02*
X-5400000Y-1630000I0J-140000D01*
G01*
G37*
G36*
G01*
X-3170000Y-6200000D02*
X-2830000Y-6200000D01*
G75*
G02*
X-2690000Y-6340000I0J-140000D01*
G01*
X-2690000Y-6620000D01*
G75*
G02*
X-2830000Y-6760000I-140000J0D01*
G01*
X-3170000Y-6760000D01*
G75*
G02*
X-3310000Y-6620000I0J140000D01*
G01*
X-3310000Y-6340000D01*
G75*
G02*
X-3170000Y-6200000I140000J0D01*
G01*
G37*
G36*
G01*
X-3170000Y-5240000D02*
X-2830000Y-5240000D01*
G75*
G02*
X-2690000Y-5380000I0J-140000D01*
G01*
X-2690000Y-5660000D01*
G75*
G02*
X-2830000Y-5800000I-140000J0D01*
G01*
X-3170000Y-5800000D01*
G75*
G02*
X-3310000Y-5660000I0J140000D01*
G01*
X-3310000Y-5380000D01*
G75*
G02*
X-3170000Y-5240000I140000J0D01*
G01*
G37*
G36*
G01*
X-4570000Y-6200000D02*
X-4230000Y-6200000D01*
G75*
G02*
X-4090000Y-6340000I0J-140000D01*
G01*
X-4090000Y-6620000D01*
G75*
G02*
X-4230000Y-6760000I-140000J0D01*
G01*
X-4570000Y-6760000D01*
G75*
G02*
X-4710000Y-6620000I0J140000D01*
G01*
X-4710000Y-6340000D01*
G75*
G02*
X-4570000Y-6200000I140000J0D01*
G01*
G37*
G36*
G01*
X-4570000Y-5240000D02*
X-4230000Y-5240000D01*
G75*
G02*
X-4090000Y-5380000I0J-140000D01*
G01*
X-4090000Y-5660000D01*
G75*
G02*
X-4230000Y-5800000I-140000J0D01*
G01*
X-4570000Y-5800000D01*
G75*
G02*
X-4710000Y-5660000I0J140000D01*
G01*
X-4710000Y-5380000D01*
G75*
G02*
X-4570000Y-5240000I140000J0D01*
G01*
G37*
G36*
G01*
X6330000Y-1300000D02*
X6670000Y-1300000D01*
G75*
G02*
X6810000Y-1440000I0J-140000D01*
G01*
X6810000Y-1720000D01*
G75*
G02*
X6670000Y-1860000I-140000J0D01*
G01*
X6330000Y-1860000D01*
G75*
G02*
X6190000Y-1720000I0J140000D01*
G01*
X6190000Y-1440000D01*
G75*
G02*
X6330000Y-1300000I140000J0D01*
G01*
G37*
G36*
G01*
X6330000Y-340000D02*
X6670000Y-340000D01*
G75*
G02*
X6810000Y-480000I0J-140000D01*
G01*
X6810000Y-760000D01*
G75*
G02*
X6670000Y-900000I-140000J0D01*
G01*
X6330000Y-900000D01*
G75*
G02*
X6190000Y-760000I0J140000D01*
G01*
X6190000Y-480000D01*
G75*
G02*
X6330000Y-340000I140000J0D01*
G01*
G37*
G36*
G01*
X5230000Y-1300000D02*
X5570000Y-1300000D01*
G75*
G02*
X5710000Y-1440000I0J-140000D01*
G01*
X5710000Y-1720000D01*
G75*
G02*
X5570000Y-1860000I-140000J0D01*
G01*
X5230000Y-1860000D01*
G75*
G02*
X5090000Y-1720000I0J140000D01*
G01*
X5090000Y-1440000D01*
G75*
G02*
X5230000Y-1300000I140000J0D01*
G01*
G37*
G36*
G01*
X5230000Y-340000D02*
X5570000Y-340000D01*
G75*
G02*
X5710000Y-480000I0J-140000D01*
G01*
X5710000Y-760000D01*
G75*
G02*
X5570000Y-900000I-140000J0D01*
G01*
X5230000Y-900000D01*
G75*
G02*
X5090000Y-760000I0J140000D01*
G01*
X5090000Y-480000D01*
G75*
G02*
X5230000Y-340000I140000J0D01*
G01*
G37*
G36*
G01*
X-9300000Y-2530000D02*
X-9300000Y-2870000D01*
G75*
G02*
X-9440000Y-3010000I-140000J0D01*
G01*
X-9720000Y-3010000D01*
G75*
G02*
X-9860000Y-2870000I0J140000D01*
G01*
X-9860000Y-2530000D01*
G75*
G02*
X-9720000Y-2390000I140000J0D01*
G01*
X-9440000Y-2390000D01*
G75*
G02*
X-9300000Y-2530000I0J-140000D01*
G01*
G37*
G36*
G01*
X-8340000Y-2530000D02*
X-8340000Y-2870000D01*
G75*
G02*
X-8480000Y-3010000I-140000J0D01*
G01*
X-8760000Y-3010000D01*
G75*
G02*
X-8900000Y-2870000I0J140000D01*
G01*
X-8900000Y-2530000D01*
G75*
G02*
X-8760000Y-2390000I140000J0D01*
G01*
X-8480000Y-2390000D01*
G75*
G02*
X-8340000Y-2530000I0J-140000D01*
G01*
G37*
G36*
G01*
X2730000Y-5050000D02*
X3070000Y-5050000D01*
G75*
G02*
X3210000Y-5190000I0J-140000D01*
G01*
X3210000Y-5470000D01*
G75*
G02*
X3070000Y-5610000I-140000J0D01*
G01*
X2730000Y-5610000D01*
G75*
G02*
X2590000Y-5470000I0J140000D01*
G01*
X2590000Y-5190000D01*
G75*
G02*
X2730000Y-5050000I140000J0D01*
G01*
G37*
G36*
G01*
X2730000Y-4090000D02*
X3070000Y-4090000D01*
G75*
G02*
X3210000Y-4230000I0J-140000D01*
G01*
X3210000Y-4510000D01*
G75*
G02*
X3070000Y-4650000I-140000J0D01*
G01*
X2730000Y-4650000D01*
G75*
G02*
X2590000Y-4510000I0J140000D01*
G01*
X2590000Y-4230000D01*
G75*
G02*
X2730000Y-4090000I140000J0D01*
G01*
G37*
G36*
G01*
X-1530000Y-5150000D02*
X-1870000Y-5150000D01*
G75*
G02*
X-2010000Y-5010000I0J140000D01*
G01*
X-2010000Y-4730000D01*
G75*
G02*
X-1870000Y-4590000I140000J0D01*
G01*
X-1530000Y-4590000D01*
G75*
G02*
X-1390000Y-4730000I0J-140000D01*
G01*
X-1390000Y-5010000D01*
G75*
G02*
X-1530000Y-5150000I-140000J0D01*
G01*
G37*
G36*
G01*
X-1530000Y-6110000D02*
X-1870000Y-6110000D01*
G75*
G02*
X-2010000Y-5970000I0J140000D01*
G01*
X-2010000Y-5690000D01*
G75*
G02*
X-1870000Y-5550000I140000J0D01*
G01*
X-1530000Y-5550000D01*
G75*
G02*
X-1390000Y-5690000I0J-140000D01*
G01*
X-1390000Y-5970000D01*
G75*
G02*
X-1530000Y-6110000I-140000J0D01*
G01*
G37*
G36*
G01*
X-4580000Y-1010000D02*
X-4920000Y-1010000D01*
G75*
G02*
X-5060000Y-870000I0J140000D01*
G01*
X-5060000Y-590000D01*
G75*
G02*
X-4920000Y-450000I140000J0D01*
G01*
X-4580000Y-450000D01*
G75*
G02*
X-4440000Y-590000I0J-140000D01*
G01*
X-4440000Y-870000D01*
G75*
G02*
X-4580000Y-1010000I-140000J0D01*
G01*
G37*
G36*
G01*
X-4580000Y-50000D02*
X-4920000Y-50000D01*
G75*
G02*
X-5060000Y90000I0J140000D01*
G01*
X-5060000Y370000D01*
G75*
G02*
X-4920000Y510000I140000J0D01*
G01*
X-4580000Y510000D01*
G75*
G02*
X-4440000Y370000I0J-140000D01*
G01*
X-4440000Y90000D01*
G75*
G02*
X-4580000Y-50000I-140000J0D01*
G01*
G37*
G36*
G01*
X-2800000Y6630000D02*
X-2800000Y6970000D01*
G75*
G02*
X-2660000Y7110000I140000J0D01*
G01*
X-2380000Y7110000D01*
G75*
G02*
X-2240000Y6970000I0J-140000D01*
G01*
X-2240000Y6630000D01*
G75*
G02*
X-2380000Y6490000I-140000J0D01*
G01*
X-2660000Y6490000D01*
G75*
G02*
X-2800000Y6630000I0J140000D01*
G01*
G37*
G36*
G01*
X-3760000Y6630000D02*
X-3760000Y6970000D01*
G75*
G02*
X-3620000Y7110000I140000J0D01*
G01*
X-3340000Y7110000D01*
G75*
G02*
X-3200000Y6970000I0J-140000D01*
G01*
X-3200000Y6630000D01*
G75*
G02*
X-3340000Y6490000I-140000J0D01*
G01*
X-3620000Y6490000D01*
G75*
G02*
X-3760000Y6630000I0J140000D01*
G01*
G37*
G36*
G01*
X4630000Y4075000D02*
X4970000Y4075000D01*
G75*
G02*
X5110000Y3935000I0J-140000D01*
G01*
X5110000Y3655000D01*
G75*
G02*
X4970000Y3515000I-140000J0D01*
G01*
X4630000Y3515000D01*
G75*
G02*
X4490000Y3655000I0J140000D01*
G01*
X4490000Y3935000D01*
G75*
G02*
X4630000Y4075000I140000J0D01*
G01*
G37*
G36*
G01*
X4630000Y5035000D02*
X4970000Y5035000D01*
G75*
G02*
X5110000Y4895000I0J-140000D01*
G01*
X5110000Y4615000D01*
G75*
G02*
X4970000Y4475000I-140000J0D01*
G01*
X4630000Y4475000D01*
G75*
G02*
X4490000Y4615000I0J140000D01*
G01*
X4490000Y4895000D01*
G75*
G02*
X4630000Y5035000I140000J0D01*
G01*
G37*
G36*
G01*
X5950000Y3375000D02*
X6450000Y3375000D01*
G75*
G02*
X6675000Y3150000I0J-225000D01*
G01*
X6675000Y2700000D01*
G75*
G02*
X6450000Y2475000I-225000J0D01*
G01*
X5950000Y2475000D01*
G75*
G02*
X5725000Y2700000I0J225000D01*
G01*
X5725000Y3150000D01*
G75*
G02*
X5950000Y3375000I225000J0D01*
G01*
G37*
G36*
G01*
X5950000Y4925000D02*
X6450000Y4925000D01*
G75*
G02*
X6675000Y4700000I0J-225000D01*
G01*
X6675000Y4250000D01*
G75*
G02*
X6450000Y4025000I-225000J0D01*
G01*
X5950000Y4025000D01*
G75*
G02*
X5725000Y4250000I0J225000D01*
G01*
X5725000Y4700000D01*
G75*
G02*
X5950000Y4925000I225000J0D01*
G01*
G37*
G36*
G01*
X-3110000Y-11840000D02*
X-3450000Y-11840000D01*
G75*
G02*
X-3590000Y-11700000I0J140000D01*
G01*
X-3590000Y-11420000D01*
G75*
G02*
X-3450000Y-11280000I140000J0D01*
G01*
X-3110000Y-11280000D01*
G75*
G02*
X-2970000Y-11420000I0J-140000D01*
G01*
X-2970000Y-11700000D01*
G75*
G02*
X-3110000Y-11840000I-140000J0D01*
G01*
G37*
G36*
G01*
X-3110000Y-12800000D02*
X-3450000Y-12800000D01*
G75*
G02*
X-3590000Y-12660000I0J140000D01*
G01*
X-3590000Y-12380000D01*
G75*
G02*
X-3450000Y-12240000I140000J0D01*
G01*
X-3110000Y-12240000D01*
G75*
G02*
X-2970000Y-12380000I0J-140000D01*
G01*
X-2970000Y-12660000D01*
G75*
G02*
X-3110000Y-12800000I-140000J0D01*
G01*
G37*
G36*
G01*
X4100000Y7330000D02*
X4100000Y7670000D01*
G75*
G02*
X4240000Y7810000I140000J0D01*
G01*
X4520000Y7810000D01*
G75*
G02*
X4660000Y7670000I0J-140000D01*
G01*
X4660000Y7330000D01*
G75*
G02*
X4520000Y7190000I-140000J0D01*
G01*
X4240000Y7190000D01*
G75*
G02*
X4100000Y7330000I0J140000D01*
G01*
G37*
G36*
G01*
X3140000Y7330000D02*
X3140000Y7670000D01*
G75*
G02*
X3280000Y7810000I140000J0D01*
G01*
X3560000Y7810000D01*
G75*
G02*
X3700000Y7670000I0J-140000D01*
G01*
X3700000Y7330000D01*
G75*
G02*
X3560000Y7190000I-140000J0D01*
G01*
X3280000Y7190000D01*
G75*
G02*
X3140000Y7330000I0J140000D01*
G01*
G37*
G36*
G01*
X4100000Y8430000D02*
X4100000Y8770000D01*
G75*
G02*
X4240000Y8910000I140000J0D01*
G01*
X4520000Y8910000D01*
G75*
G02*
X4660000Y8770000I0J-140000D01*
G01*
X4660000Y8430000D01*
G75*
G02*
X4520000Y8290000I-140000J0D01*
G01*
X4240000Y8290000D01*
G75*
G02*
X4100000Y8430000I0J140000D01*
G01*
G37*
G36*
G01*
X3140000Y8430000D02*
X3140000Y8770000D01*
G75*
G02*
X3280000Y8910000I140000J0D01*
G01*
X3560000Y8910000D01*
G75*
G02*
X3700000Y8770000I0J-140000D01*
G01*
X3700000Y8430000D01*
G75*
G02*
X3560000Y8290000I-140000J0D01*
G01*
X3280000Y8290000D01*
G75*
G02*
X3140000Y8430000I0J140000D01*
G01*
G37*
M02*
