G04 #@! TF.GenerationSoftware,KiCad,Pcbnew,(5.1.10-1-10_14)*
G04 #@! TF.CreationDate,2021-08-15T09:52:45-07:00*
G04 #@! TF.ProjectId,Synapse,53796e61-7073-4652-9e6b-696361645f70,1*
G04 #@! TF.SameCoordinates,Original*
G04 #@! TF.FileFunction,Copper,L1,Top*
G04 #@! TF.FilePolarity,Positive*
%FSLAX46Y46*%
G04 Gerber Fmt 4.6, Leading zero omitted, Abs format (unit mm)*
G04 Created by KiCad (PCBNEW (5.1.10-1-10_14)) date 2021-08-15 09:52:45*
%MOMM*%
%LPD*%
G01*
G04 APERTURE LIST*
G04 #@! TA.AperFunction,SMDPad,CuDef*
%ADD10C,0.152400*%
G04 #@! TD*
G04 #@! TA.AperFunction,SMDPad,CuDef*
%ADD11R,1.700000X0.900000*%
G04 #@! TD*
G04 #@! TA.AperFunction,SMDPad,CuDef*
%ADD12R,1.060000X1.560000*%
G04 #@! TD*
G04 #@! TA.AperFunction,SMDPad,CuDef*
%ADD13R,0.630000X0.320000*%
G04 #@! TD*
G04 #@! TA.AperFunction,SMDPad,CuDef*
%ADD14R,5.600000X5.600000*%
G04 #@! TD*
G04 #@! TA.AperFunction,SMDPad,CuDef*
%ADD15R,0.575000X1.140000*%
G04 #@! TD*
G04 #@! TA.AperFunction,SMDPad,CuDef*
%ADD16R,0.900000X0.800000*%
G04 #@! TD*
G04 #@! TA.AperFunction,ComponentPad*
%ADD17O,1.000000X1.600000*%
G04 #@! TD*
G04 #@! TA.AperFunction,ComponentPad*
%ADD18O,1.000000X2.100000*%
G04 #@! TD*
G04 #@! TA.AperFunction,SMDPad,CuDef*
%ADD19R,0.300000X1.450000*%
G04 #@! TD*
G04 #@! TA.AperFunction,SMDPad,CuDef*
%ADD20R,0.600000X1.450000*%
G04 #@! TD*
G04 #@! TA.AperFunction,ViaPad*
%ADD21C,0.900000*%
G04 #@! TD*
G04 #@! TA.AperFunction,ViaPad*
%ADD22C,0.600000*%
G04 #@! TD*
G04 #@! TA.AperFunction,Conductor*
%ADD23C,0.300000*%
G04 #@! TD*
G04 #@! TA.AperFunction,Conductor*
%ADD24C,0.600000*%
G04 #@! TD*
G04 #@! TA.AperFunction,Conductor*
%ADD25C,0.254000*%
G04 #@! TD*
G04 #@! TA.AperFunction,Conductor*
%ADD26C,0.400000*%
G04 #@! TD*
G04 #@! TA.AperFunction,Conductor*
%ADD27C,0.508000*%
G04 #@! TD*
G04 #@! TA.AperFunction,Conductor*
%ADD28C,0.152400*%
G04 #@! TD*
G04 APERTURE END LIST*
G04 #@! TA.AperFunction,SMDPad,CuDef*
D10*
G36*
X-6590975Y-6259904D02*
G01*
X-6591913Y-6259619D01*
X-6592778Y-6259157D01*
X-6593536Y-6258536D01*
X-6594157Y-6257778D01*
X-6594619Y-6256913D01*
X-6594904Y-6255975D01*
X-6595000Y-6255000D01*
X-6595000Y-6145000D01*
X-6594904Y-6144025D01*
X-6594619Y-6143087D01*
X-6594157Y-6142222D01*
X-6593536Y-6141464D01*
X-6443536Y-5991464D01*
X-6442778Y-5990843D01*
X-6441913Y-5990381D01*
X-6440975Y-5990096D01*
X-6440000Y-5990000D01*
X-6200000Y-5990000D01*
X-6199025Y-5990096D01*
X-6198087Y-5990381D01*
X-6197222Y-5990843D01*
X-6196464Y-5991464D01*
X-6195843Y-5992222D01*
X-6195381Y-5993087D01*
X-6195096Y-5994025D01*
X-6195000Y-5995000D01*
X-6195000Y-6255000D01*
X-6195096Y-6255975D01*
X-6195381Y-6256913D01*
X-6195843Y-6257778D01*
X-6196464Y-6258536D01*
X-6197222Y-6259157D01*
X-6198087Y-6259619D01*
X-6199025Y-6259904D01*
X-6200000Y-6260000D01*
X-6590000Y-6260000D01*
X-6590975Y-6259904D01*
G37*
G04 #@! TD.AperFunction*
G04 #@! TA.AperFunction,SMDPad,CuDef*
G36*
X-6440975Y-5609904D02*
G01*
X-6441913Y-5609619D01*
X-6442778Y-5609157D01*
X-6443536Y-5608536D01*
X-6593536Y-5458536D01*
X-6594157Y-5457778D01*
X-6594619Y-5456913D01*
X-6594904Y-5455975D01*
X-6595000Y-5455000D01*
X-6595000Y-5345000D01*
X-6594904Y-5344025D01*
X-6594619Y-5343087D01*
X-6594157Y-5342222D01*
X-6593536Y-5341464D01*
X-6592778Y-5340843D01*
X-6591913Y-5340381D01*
X-6590975Y-5340096D01*
X-6590000Y-5340000D01*
X-6200000Y-5340000D01*
X-6199025Y-5340096D01*
X-6198087Y-5340381D01*
X-6197222Y-5340843D01*
X-6196464Y-5341464D01*
X-6195843Y-5342222D01*
X-6195381Y-5343087D01*
X-6195096Y-5344025D01*
X-6195000Y-5345000D01*
X-6195000Y-5605000D01*
X-6195096Y-5605975D01*
X-6195381Y-5606913D01*
X-6195843Y-5607778D01*
X-6196464Y-5608536D01*
X-6197222Y-5609157D01*
X-6198087Y-5609619D01*
X-6199025Y-5609904D01*
X-6200000Y-5610000D01*
X-6440000Y-5610000D01*
X-6440975Y-5609904D01*
G37*
G04 #@! TD.AperFunction*
G04 #@! TA.AperFunction,SMDPad,CuDef*
G36*
X-7400975Y-5609904D02*
G01*
X-7401913Y-5609619D01*
X-7402778Y-5609157D01*
X-7403536Y-5608536D01*
X-7404157Y-5607778D01*
X-7404619Y-5606913D01*
X-7404904Y-5605975D01*
X-7405000Y-5605000D01*
X-7405000Y-5345000D01*
X-7404904Y-5344025D01*
X-7404619Y-5343087D01*
X-7404157Y-5342222D01*
X-7403536Y-5341464D01*
X-7402778Y-5340843D01*
X-7401913Y-5340381D01*
X-7400975Y-5340096D01*
X-7400000Y-5340000D01*
X-7010000Y-5340000D01*
X-7009025Y-5340096D01*
X-7008087Y-5340381D01*
X-7007222Y-5340843D01*
X-7006464Y-5341464D01*
X-7005843Y-5342222D01*
X-7005381Y-5343087D01*
X-7005096Y-5344025D01*
X-7005000Y-5345000D01*
X-7005000Y-5455000D01*
X-7005096Y-5455975D01*
X-7005381Y-5456913D01*
X-7005843Y-5457778D01*
X-7006464Y-5458536D01*
X-7156464Y-5608536D01*
X-7157222Y-5609157D01*
X-7158087Y-5609619D01*
X-7159025Y-5609904D01*
X-7160000Y-5610000D01*
X-7400000Y-5610000D01*
X-7400975Y-5609904D01*
G37*
G04 #@! TD.AperFunction*
G04 #@! TA.AperFunction,SMDPad,CuDef*
G36*
X-7400975Y-6259904D02*
G01*
X-7401913Y-6259619D01*
X-7402778Y-6259157D01*
X-7403536Y-6258536D01*
X-7404157Y-6257778D01*
X-7404619Y-6256913D01*
X-7404904Y-6255975D01*
X-7405000Y-6255000D01*
X-7405000Y-5995000D01*
X-7404904Y-5994025D01*
X-7404619Y-5993087D01*
X-7404157Y-5992222D01*
X-7403536Y-5991464D01*
X-7402778Y-5990843D01*
X-7401913Y-5990381D01*
X-7400975Y-5990096D01*
X-7400000Y-5990000D01*
X-7160000Y-5990000D01*
X-7159025Y-5990096D01*
X-7158087Y-5990381D01*
X-7157222Y-5990843D01*
X-7156464Y-5991464D01*
X-7006464Y-6141464D01*
X-7005843Y-6142222D01*
X-7005381Y-6143087D01*
X-7005096Y-6144025D01*
X-7005000Y-6145000D01*
X-7005000Y-6255000D01*
X-7005096Y-6255975D01*
X-7005381Y-6256913D01*
X-7005843Y-6257778D01*
X-7006464Y-6258536D01*
X-7007222Y-6259157D01*
X-7008087Y-6259619D01*
X-7009025Y-6259904D01*
X-7010000Y-6260000D01*
X-7400000Y-6260000D01*
X-7400975Y-6259904D01*
G37*
G04 #@! TD.AperFunction*
G04 #@! TA.AperFunction,SMDPad,CuDef*
G36*
X-6800000Y-5432304D02*
G01*
X-6432304Y-5800000D01*
X-6800000Y-6167696D01*
X-7167696Y-5800000D01*
X-6800000Y-5432304D01*
G37*
G04 #@! TD.AperFunction*
G04 #@! TA.AperFunction,SMDPad,CuDef*
G36*
G01*
X6200000Y3330000D02*
X6200000Y3670000D01*
G75*
G02*
X6340000Y3810000I140000J0D01*
G01*
X6620000Y3810000D01*
G75*
G02*
X6760000Y3670000I0J-140000D01*
G01*
X6760000Y3330000D01*
G75*
G02*
X6620000Y3190000I-140000J0D01*
G01*
X6340000Y3190000D01*
G75*
G02*
X6200000Y3330000I0J140000D01*
G01*
G37*
G04 #@! TD.AperFunction*
G04 #@! TA.AperFunction,SMDPad,CuDef*
G36*
G01*
X5240000Y3330000D02*
X5240000Y3670000D01*
G75*
G02*
X5380000Y3810000I140000J0D01*
G01*
X5660000Y3810000D01*
G75*
G02*
X5800000Y3670000I0J-140000D01*
G01*
X5800000Y3330000D01*
G75*
G02*
X5660000Y3190000I-140000J0D01*
G01*
X5380000Y3190000D01*
G75*
G02*
X5240000Y3330000I0J140000D01*
G01*
G37*
G04 #@! TD.AperFunction*
G04 #@! TA.AperFunction,SMDPad,CuDef*
G36*
G01*
X-2277500Y10390000D02*
X-2622500Y10390000D01*
G75*
G02*
X-2770000Y10537500I0J147500D01*
G01*
X-2770000Y10832500D01*
G75*
G02*
X-2622500Y10980000I147500J0D01*
G01*
X-2277500Y10980000D01*
G75*
G02*
X-2130000Y10832500I0J-147500D01*
G01*
X-2130000Y10537500D01*
G75*
G02*
X-2277500Y10390000I-147500J0D01*
G01*
G37*
G04 #@! TD.AperFunction*
G04 #@! TA.AperFunction,SMDPad,CuDef*
G36*
G01*
X-2277500Y9420000D02*
X-2622500Y9420000D01*
G75*
G02*
X-2770000Y9567500I0J147500D01*
G01*
X-2770000Y9862500D01*
G75*
G02*
X-2622500Y10010000I147500J0D01*
G01*
X-2277500Y10010000D01*
G75*
G02*
X-2130000Y9862500I0J-147500D01*
G01*
X-2130000Y9567500D01*
G75*
G02*
X-2277500Y9420000I-147500J0D01*
G01*
G37*
G04 #@! TD.AperFunction*
G04 #@! TA.AperFunction,SMDPad,CuDef*
G36*
G01*
X2622500Y10390000D02*
X2277500Y10390000D01*
G75*
G02*
X2130000Y10537500I0J147500D01*
G01*
X2130000Y10832500D01*
G75*
G02*
X2277500Y10980000I147500J0D01*
G01*
X2622500Y10980000D01*
G75*
G02*
X2770000Y10832500I0J-147500D01*
G01*
X2770000Y10537500D01*
G75*
G02*
X2622500Y10390000I-147500J0D01*
G01*
G37*
G04 #@! TD.AperFunction*
G04 #@! TA.AperFunction,SMDPad,CuDef*
G36*
G01*
X2622500Y9420000D02*
X2277500Y9420000D01*
G75*
G02*
X2130000Y9567500I0J147500D01*
G01*
X2130000Y9862500D01*
G75*
G02*
X2277500Y10010000I147500J0D01*
G01*
X2622500Y10010000D01*
G75*
G02*
X2770000Y9862500I0J-147500D01*
G01*
X2770000Y9567500D01*
G75*
G02*
X2622500Y9420000I-147500J0D01*
G01*
G37*
G04 #@! TD.AperFunction*
G04 #@! TA.AperFunction,SMDPad,CuDef*
G36*
G01*
X5985000Y1047500D02*
X5985000Y1392500D01*
G75*
G02*
X6132500Y1540000I147500J0D01*
G01*
X6427500Y1540000D01*
G75*
G02*
X6575000Y1392500I0J-147500D01*
G01*
X6575000Y1047500D01*
G75*
G02*
X6427500Y900000I-147500J0D01*
G01*
X6132500Y900000D01*
G75*
G02*
X5985000Y1047500I0J147500D01*
G01*
G37*
G04 #@! TD.AperFunction*
G04 #@! TA.AperFunction,SMDPad,CuDef*
G36*
G01*
X6955000Y1047500D02*
X6955000Y1392500D01*
G75*
G02*
X7102500Y1540000I147500J0D01*
G01*
X7397500Y1540000D01*
G75*
G02*
X7545000Y1392500I0J-147500D01*
G01*
X7545000Y1047500D01*
G75*
G02*
X7397500Y900000I-147500J0D01*
G01*
X7102500Y900000D01*
G75*
G02*
X6955000Y1047500I0J147500D01*
G01*
G37*
G04 #@! TD.AperFunction*
G04 #@! TA.AperFunction,SMDPad,CuDef*
G36*
G01*
X4172500Y9290000D02*
X3827500Y9290000D01*
G75*
G02*
X3680000Y9437500I0J147500D01*
G01*
X3680000Y9732500D01*
G75*
G02*
X3827500Y9880000I147500J0D01*
G01*
X4172500Y9880000D01*
G75*
G02*
X4320000Y9732500I0J-147500D01*
G01*
X4320000Y9437500D01*
G75*
G02*
X4172500Y9290000I-147500J0D01*
G01*
G37*
G04 #@! TD.AperFunction*
G04 #@! TA.AperFunction,SMDPad,CuDef*
G36*
G01*
X4172500Y8320000D02*
X3827500Y8320000D01*
G75*
G02*
X3680000Y8467500I0J147500D01*
G01*
X3680000Y8762500D01*
G75*
G02*
X3827500Y8910000I147500J0D01*
G01*
X4172500Y8910000D01*
G75*
G02*
X4320000Y8762500I0J-147500D01*
G01*
X4320000Y8467500D01*
G75*
G02*
X4172500Y8320000I-147500J0D01*
G01*
G37*
G04 #@! TD.AperFunction*
D11*
X6600000Y-3500000D03*
X6600000Y-6900000D03*
D12*
X0Y-11700000D03*
D13*
X-1335000Y-12450000D03*
X-1335000Y-11950000D03*
X-1335000Y-11450000D03*
X-1335000Y-10950000D03*
X1335000Y-10950000D03*
X1335000Y-11450000D03*
X1335000Y-11950000D03*
X1335000Y-12450000D03*
G04 #@! TA.AperFunction,SMDPad,CuDef*
G36*
G01*
X-3960000Y-12570000D02*
X-3960000Y-12230000D01*
G75*
G02*
X-3820000Y-12090000I140000J0D01*
G01*
X-3540000Y-12090000D01*
G75*
G02*
X-3400000Y-12230000I0J-140000D01*
G01*
X-3400000Y-12570000D01*
G75*
G02*
X-3540000Y-12710000I-140000J0D01*
G01*
X-3820000Y-12710000D01*
G75*
G02*
X-3960000Y-12570000I0J140000D01*
G01*
G37*
G04 #@! TD.AperFunction*
G04 #@! TA.AperFunction,SMDPad,CuDef*
G36*
G01*
X-3000000Y-12570000D02*
X-3000000Y-12230000D01*
G75*
G02*
X-2860000Y-12090000I140000J0D01*
G01*
X-2580000Y-12090000D01*
G75*
G02*
X-2440000Y-12230000I0J-140000D01*
G01*
X-2440000Y-12570000D01*
G75*
G02*
X-2580000Y-12710000I-140000J0D01*
G01*
X-2860000Y-12710000D01*
G75*
G02*
X-3000000Y-12570000I0J140000D01*
G01*
G37*
G04 #@! TD.AperFunction*
G04 #@! TA.AperFunction,SMDPad,CuDef*
G36*
G01*
X-7000000Y-7030000D02*
X-7000000Y-7370000D01*
G75*
G02*
X-7140000Y-7510000I-140000J0D01*
G01*
X-7420000Y-7510000D01*
G75*
G02*
X-7560000Y-7370000I0J140000D01*
G01*
X-7560000Y-7030000D01*
G75*
G02*
X-7420000Y-6890000I140000J0D01*
G01*
X-7140000Y-6890000D01*
G75*
G02*
X-7000000Y-7030000I0J-140000D01*
G01*
G37*
G04 #@! TD.AperFunction*
G04 #@! TA.AperFunction,SMDPad,CuDef*
G36*
G01*
X-6040000Y-7030000D02*
X-6040000Y-7370000D01*
G75*
G02*
X-6180000Y-7510000I-140000J0D01*
G01*
X-6460000Y-7510000D01*
G75*
G02*
X-6600000Y-7370000I0J140000D01*
G01*
X-6600000Y-7030000D01*
G75*
G02*
X-6460000Y-6890000I140000J0D01*
G01*
X-6180000Y-6890000D01*
G75*
G02*
X-6040000Y-7030000I0J-140000D01*
G01*
G37*
G04 #@! TD.AperFunction*
G04 #@! TA.AperFunction,SMDPad,CuDef*
G36*
G01*
X-6600000Y-4570000D02*
X-6600000Y-4230000D01*
G75*
G02*
X-6460000Y-4090000I140000J0D01*
G01*
X-6180000Y-4090000D01*
G75*
G02*
X-6040000Y-4230000I0J-140000D01*
G01*
X-6040000Y-4570000D01*
G75*
G02*
X-6180000Y-4710000I-140000J0D01*
G01*
X-6460000Y-4710000D01*
G75*
G02*
X-6600000Y-4570000I0J140000D01*
G01*
G37*
G04 #@! TD.AperFunction*
G04 #@! TA.AperFunction,SMDPad,CuDef*
G36*
G01*
X-7560000Y-4570000D02*
X-7560000Y-4230000D01*
G75*
G02*
X-7420000Y-4090000I140000J0D01*
G01*
X-7140000Y-4090000D01*
G75*
G02*
X-7000000Y-4230000I0J-140000D01*
G01*
X-7000000Y-4570000D01*
G75*
G02*
X-7140000Y-4710000I-140000J0D01*
G01*
X-7420000Y-4710000D01*
G75*
G02*
X-7560000Y-4570000I0J140000D01*
G01*
G37*
G04 #@! TD.AperFunction*
G04 #@! TA.AperFunction,SMDPad,CuDef*
G36*
G01*
X-2687500Y-1875000D02*
X-2812500Y-1875000D01*
G75*
G02*
X-2875000Y-1812500I0J62500D01*
G01*
X-2875000Y-1062500D01*
G75*
G02*
X-2812500Y-1000000I62500J0D01*
G01*
X-2687500Y-1000000D01*
G75*
G02*
X-2625000Y-1062500I0J-62500D01*
G01*
X-2625000Y-1812500D01*
G75*
G02*
X-2687500Y-1875000I-62500J0D01*
G01*
G37*
G04 #@! TD.AperFunction*
G04 #@! TA.AperFunction,SMDPad,CuDef*
G36*
G01*
X-2187500Y-1875000D02*
X-2312500Y-1875000D01*
G75*
G02*
X-2375000Y-1812500I0J62500D01*
G01*
X-2375000Y-1062500D01*
G75*
G02*
X-2312500Y-1000000I62500J0D01*
G01*
X-2187500Y-1000000D01*
G75*
G02*
X-2125000Y-1062500I0J-62500D01*
G01*
X-2125000Y-1812500D01*
G75*
G02*
X-2187500Y-1875000I-62500J0D01*
G01*
G37*
G04 #@! TD.AperFunction*
G04 #@! TA.AperFunction,SMDPad,CuDef*
G36*
G01*
X-1687500Y-1875000D02*
X-1812500Y-1875000D01*
G75*
G02*
X-1875000Y-1812500I0J62500D01*
G01*
X-1875000Y-1062500D01*
G75*
G02*
X-1812500Y-1000000I62500J0D01*
G01*
X-1687500Y-1000000D01*
G75*
G02*
X-1625000Y-1062500I0J-62500D01*
G01*
X-1625000Y-1812500D01*
G75*
G02*
X-1687500Y-1875000I-62500J0D01*
G01*
G37*
G04 #@! TD.AperFunction*
G04 #@! TA.AperFunction,SMDPad,CuDef*
G36*
G01*
X-1187500Y-1875000D02*
X-1312500Y-1875000D01*
G75*
G02*
X-1375000Y-1812500I0J62500D01*
G01*
X-1375000Y-1062500D01*
G75*
G02*
X-1312500Y-1000000I62500J0D01*
G01*
X-1187500Y-1000000D01*
G75*
G02*
X-1125000Y-1062500I0J-62500D01*
G01*
X-1125000Y-1812500D01*
G75*
G02*
X-1187500Y-1875000I-62500J0D01*
G01*
G37*
G04 #@! TD.AperFunction*
G04 #@! TA.AperFunction,SMDPad,CuDef*
G36*
G01*
X-687500Y-1875000D02*
X-812500Y-1875000D01*
G75*
G02*
X-875000Y-1812500I0J62500D01*
G01*
X-875000Y-1062500D01*
G75*
G02*
X-812500Y-1000000I62500J0D01*
G01*
X-687500Y-1000000D01*
G75*
G02*
X-625000Y-1062500I0J-62500D01*
G01*
X-625000Y-1812500D01*
G75*
G02*
X-687500Y-1875000I-62500J0D01*
G01*
G37*
G04 #@! TD.AperFunction*
G04 #@! TA.AperFunction,SMDPad,CuDef*
G36*
G01*
X-187500Y-1875000D02*
X-312500Y-1875000D01*
G75*
G02*
X-375000Y-1812500I0J62500D01*
G01*
X-375000Y-1062500D01*
G75*
G02*
X-312500Y-1000000I62500J0D01*
G01*
X-187500Y-1000000D01*
G75*
G02*
X-125000Y-1062500I0J-62500D01*
G01*
X-125000Y-1812500D01*
G75*
G02*
X-187500Y-1875000I-62500J0D01*
G01*
G37*
G04 #@! TD.AperFunction*
G04 #@! TA.AperFunction,SMDPad,CuDef*
G36*
G01*
X312500Y-1875000D02*
X187500Y-1875000D01*
G75*
G02*
X125000Y-1812500I0J62500D01*
G01*
X125000Y-1062500D01*
G75*
G02*
X187500Y-1000000I62500J0D01*
G01*
X312500Y-1000000D01*
G75*
G02*
X375000Y-1062500I0J-62500D01*
G01*
X375000Y-1812500D01*
G75*
G02*
X312500Y-1875000I-62500J0D01*
G01*
G37*
G04 #@! TD.AperFunction*
G04 #@! TA.AperFunction,SMDPad,CuDef*
G36*
G01*
X812500Y-1875000D02*
X687500Y-1875000D01*
G75*
G02*
X625000Y-1812500I0J62500D01*
G01*
X625000Y-1062500D01*
G75*
G02*
X687500Y-1000000I62500J0D01*
G01*
X812500Y-1000000D01*
G75*
G02*
X875000Y-1062500I0J-62500D01*
G01*
X875000Y-1812500D01*
G75*
G02*
X812500Y-1875000I-62500J0D01*
G01*
G37*
G04 #@! TD.AperFunction*
G04 #@! TA.AperFunction,SMDPad,CuDef*
G36*
G01*
X1312500Y-1875000D02*
X1187500Y-1875000D01*
G75*
G02*
X1125000Y-1812500I0J62500D01*
G01*
X1125000Y-1062500D01*
G75*
G02*
X1187500Y-1000000I62500J0D01*
G01*
X1312500Y-1000000D01*
G75*
G02*
X1375000Y-1062500I0J-62500D01*
G01*
X1375000Y-1812500D01*
G75*
G02*
X1312500Y-1875000I-62500J0D01*
G01*
G37*
G04 #@! TD.AperFunction*
G04 #@! TA.AperFunction,SMDPad,CuDef*
G36*
G01*
X1812500Y-1875000D02*
X1687500Y-1875000D01*
G75*
G02*
X1625000Y-1812500I0J62500D01*
G01*
X1625000Y-1062500D01*
G75*
G02*
X1687500Y-1000000I62500J0D01*
G01*
X1812500Y-1000000D01*
G75*
G02*
X1875000Y-1062500I0J-62500D01*
G01*
X1875000Y-1812500D01*
G75*
G02*
X1812500Y-1875000I-62500J0D01*
G01*
G37*
G04 #@! TD.AperFunction*
G04 #@! TA.AperFunction,SMDPad,CuDef*
G36*
G01*
X2312500Y-1875000D02*
X2187500Y-1875000D01*
G75*
G02*
X2125000Y-1812500I0J62500D01*
G01*
X2125000Y-1062500D01*
G75*
G02*
X2187500Y-1000000I62500J0D01*
G01*
X2312500Y-1000000D01*
G75*
G02*
X2375000Y-1062500I0J-62500D01*
G01*
X2375000Y-1812500D01*
G75*
G02*
X2312500Y-1875000I-62500J0D01*
G01*
G37*
G04 #@! TD.AperFunction*
G04 #@! TA.AperFunction,SMDPad,CuDef*
G36*
G01*
X2812500Y-1875000D02*
X2687500Y-1875000D01*
G75*
G02*
X2625000Y-1812500I0J62500D01*
G01*
X2625000Y-1062500D01*
G75*
G02*
X2687500Y-1000000I62500J0D01*
G01*
X2812500Y-1000000D01*
G75*
G02*
X2875000Y-1062500I0J-62500D01*
G01*
X2875000Y-1812500D01*
G75*
G02*
X2812500Y-1875000I-62500J0D01*
G01*
G37*
G04 #@! TD.AperFunction*
G04 #@! TA.AperFunction,SMDPad,CuDef*
G36*
G01*
X3812500Y-875000D02*
X3062500Y-875000D01*
G75*
G02*
X3000000Y-812500I0J62500D01*
G01*
X3000000Y-687500D01*
G75*
G02*
X3062500Y-625000I62500J0D01*
G01*
X3812500Y-625000D01*
G75*
G02*
X3875000Y-687500I0J-62500D01*
G01*
X3875000Y-812500D01*
G75*
G02*
X3812500Y-875000I-62500J0D01*
G01*
G37*
G04 #@! TD.AperFunction*
G04 #@! TA.AperFunction,SMDPad,CuDef*
G36*
G01*
X3812500Y-375000D02*
X3062500Y-375000D01*
G75*
G02*
X3000000Y-312500I0J62500D01*
G01*
X3000000Y-187500D01*
G75*
G02*
X3062500Y-125000I62500J0D01*
G01*
X3812500Y-125000D01*
G75*
G02*
X3875000Y-187500I0J-62500D01*
G01*
X3875000Y-312500D01*
G75*
G02*
X3812500Y-375000I-62500J0D01*
G01*
G37*
G04 #@! TD.AperFunction*
G04 #@! TA.AperFunction,SMDPad,CuDef*
G36*
G01*
X3812500Y125000D02*
X3062500Y125000D01*
G75*
G02*
X3000000Y187500I0J62500D01*
G01*
X3000000Y312500D01*
G75*
G02*
X3062500Y375000I62500J0D01*
G01*
X3812500Y375000D01*
G75*
G02*
X3875000Y312500I0J-62500D01*
G01*
X3875000Y187500D01*
G75*
G02*
X3812500Y125000I-62500J0D01*
G01*
G37*
G04 #@! TD.AperFunction*
G04 #@! TA.AperFunction,SMDPad,CuDef*
G36*
G01*
X3812500Y625000D02*
X3062500Y625000D01*
G75*
G02*
X3000000Y687500I0J62500D01*
G01*
X3000000Y812500D01*
G75*
G02*
X3062500Y875000I62500J0D01*
G01*
X3812500Y875000D01*
G75*
G02*
X3875000Y812500I0J-62500D01*
G01*
X3875000Y687500D01*
G75*
G02*
X3812500Y625000I-62500J0D01*
G01*
G37*
G04 #@! TD.AperFunction*
G04 #@! TA.AperFunction,SMDPad,CuDef*
G36*
G01*
X3812500Y1125000D02*
X3062500Y1125000D01*
G75*
G02*
X3000000Y1187500I0J62500D01*
G01*
X3000000Y1312500D01*
G75*
G02*
X3062500Y1375000I62500J0D01*
G01*
X3812500Y1375000D01*
G75*
G02*
X3875000Y1312500I0J-62500D01*
G01*
X3875000Y1187500D01*
G75*
G02*
X3812500Y1125000I-62500J0D01*
G01*
G37*
G04 #@! TD.AperFunction*
G04 #@! TA.AperFunction,SMDPad,CuDef*
G36*
G01*
X3812500Y1625000D02*
X3062500Y1625000D01*
G75*
G02*
X3000000Y1687500I0J62500D01*
G01*
X3000000Y1812500D01*
G75*
G02*
X3062500Y1875000I62500J0D01*
G01*
X3812500Y1875000D01*
G75*
G02*
X3875000Y1812500I0J-62500D01*
G01*
X3875000Y1687500D01*
G75*
G02*
X3812500Y1625000I-62500J0D01*
G01*
G37*
G04 #@! TD.AperFunction*
G04 #@! TA.AperFunction,SMDPad,CuDef*
G36*
G01*
X3812500Y2125000D02*
X3062500Y2125000D01*
G75*
G02*
X3000000Y2187500I0J62500D01*
G01*
X3000000Y2312500D01*
G75*
G02*
X3062500Y2375000I62500J0D01*
G01*
X3812500Y2375000D01*
G75*
G02*
X3875000Y2312500I0J-62500D01*
G01*
X3875000Y2187500D01*
G75*
G02*
X3812500Y2125000I-62500J0D01*
G01*
G37*
G04 #@! TD.AperFunction*
G04 #@! TA.AperFunction,SMDPad,CuDef*
G36*
G01*
X3812500Y2625000D02*
X3062500Y2625000D01*
G75*
G02*
X3000000Y2687500I0J62500D01*
G01*
X3000000Y2812500D01*
G75*
G02*
X3062500Y2875000I62500J0D01*
G01*
X3812500Y2875000D01*
G75*
G02*
X3875000Y2812500I0J-62500D01*
G01*
X3875000Y2687500D01*
G75*
G02*
X3812500Y2625000I-62500J0D01*
G01*
G37*
G04 #@! TD.AperFunction*
G04 #@! TA.AperFunction,SMDPad,CuDef*
G36*
G01*
X3812500Y3125000D02*
X3062500Y3125000D01*
G75*
G02*
X3000000Y3187500I0J62500D01*
G01*
X3000000Y3312500D01*
G75*
G02*
X3062500Y3375000I62500J0D01*
G01*
X3812500Y3375000D01*
G75*
G02*
X3875000Y3312500I0J-62500D01*
G01*
X3875000Y3187500D01*
G75*
G02*
X3812500Y3125000I-62500J0D01*
G01*
G37*
G04 #@! TD.AperFunction*
G04 #@! TA.AperFunction,SMDPad,CuDef*
G36*
G01*
X3812500Y3625000D02*
X3062500Y3625000D01*
G75*
G02*
X3000000Y3687500I0J62500D01*
G01*
X3000000Y3812500D01*
G75*
G02*
X3062500Y3875000I62500J0D01*
G01*
X3812500Y3875000D01*
G75*
G02*
X3875000Y3812500I0J-62500D01*
G01*
X3875000Y3687500D01*
G75*
G02*
X3812500Y3625000I-62500J0D01*
G01*
G37*
G04 #@! TD.AperFunction*
G04 #@! TA.AperFunction,SMDPad,CuDef*
G36*
G01*
X3812500Y4125000D02*
X3062500Y4125000D01*
G75*
G02*
X3000000Y4187500I0J62500D01*
G01*
X3000000Y4312500D01*
G75*
G02*
X3062500Y4375000I62500J0D01*
G01*
X3812500Y4375000D01*
G75*
G02*
X3875000Y4312500I0J-62500D01*
G01*
X3875000Y4187500D01*
G75*
G02*
X3812500Y4125000I-62500J0D01*
G01*
G37*
G04 #@! TD.AperFunction*
G04 #@! TA.AperFunction,SMDPad,CuDef*
G36*
G01*
X3812500Y4625000D02*
X3062500Y4625000D01*
G75*
G02*
X3000000Y4687500I0J62500D01*
G01*
X3000000Y4812500D01*
G75*
G02*
X3062500Y4875000I62500J0D01*
G01*
X3812500Y4875000D01*
G75*
G02*
X3875000Y4812500I0J-62500D01*
G01*
X3875000Y4687500D01*
G75*
G02*
X3812500Y4625000I-62500J0D01*
G01*
G37*
G04 #@! TD.AperFunction*
G04 #@! TA.AperFunction,SMDPad,CuDef*
G36*
G01*
X2812500Y5000000D02*
X2687500Y5000000D01*
G75*
G02*
X2625000Y5062500I0J62500D01*
G01*
X2625000Y5812500D01*
G75*
G02*
X2687500Y5875000I62500J0D01*
G01*
X2812500Y5875000D01*
G75*
G02*
X2875000Y5812500I0J-62500D01*
G01*
X2875000Y5062500D01*
G75*
G02*
X2812500Y5000000I-62500J0D01*
G01*
G37*
G04 #@! TD.AperFunction*
G04 #@! TA.AperFunction,SMDPad,CuDef*
G36*
G01*
X2312500Y5000000D02*
X2187500Y5000000D01*
G75*
G02*
X2125000Y5062500I0J62500D01*
G01*
X2125000Y5812500D01*
G75*
G02*
X2187500Y5875000I62500J0D01*
G01*
X2312500Y5875000D01*
G75*
G02*
X2375000Y5812500I0J-62500D01*
G01*
X2375000Y5062500D01*
G75*
G02*
X2312500Y5000000I-62500J0D01*
G01*
G37*
G04 #@! TD.AperFunction*
G04 #@! TA.AperFunction,SMDPad,CuDef*
G36*
G01*
X1812500Y5000000D02*
X1687500Y5000000D01*
G75*
G02*
X1625000Y5062500I0J62500D01*
G01*
X1625000Y5812500D01*
G75*
G02*
X1687500Y5875000I62500J0D01*
G01*
X1812500Y5875000D01*
G75*
G02*
X1875000Y5812500I0J-62500D01*
G01*
X1875000Y5062500D01*
G75*
G02*
X1812500Y5000000I-62500J0D01*
G01*
G37*
G04 #@! TD.AperFunction*
G04 #@! TA.AperFunction,SMDPad,CuDef*
G36*
G01*
X1312500Y5000000D02*
X1187500Y5000000D01*
G75*
G02*
X1125000Y5062500I0J62500D01*
G01*
X1125000Y5812500D01*
G75*
G02*
X1187500Y5875000I62500J0D01*
G01*
X1312500Y5875000D01*
G75*
G02*
X1375000Y5812500I0J-62500D01*
G01*
X1375000Y5062500D01*
G75*
G02*
X1312500Y5000000I-62500J0D01*
G01*
G37*
G04 #@! TD.AperFunction*
G04 #@! TA.AperFunction,SMDPad,CuDef*
G36*
G01*
X812500Y5000000D02*
X687500Y5000000D01*
G75*
G02*
X625000Y5062500I0J62500D01*
G01*
X625000Y5812500D01*
G75*
G02*
X687500Y5875000I62500J0D01*
G01*
X812500Y5875000D01*
G75*
G02*
X875000Y5812500I0J-62500D01*
G01*
X875000Y5062500D01*
G75*
G02*
X812500Y5000000I-62500J0D01*
G01*
G37*
G04 #@! TD.AperFunction*
G04 #@! TA.AperFunction,SMDPad,CuDef*
G36*
G01*
X312500Y5000000D02*
X187500Y5000000D01*
G75*
G02*
X125000Y5062500I0J62500D01*
G01*
X125000Y5812500D01*
G75*
G02*
X187500Y5875000I62500J0D01*
G01*
X312500Y5875000D01*
G75*
G02*
X375000Y5812500I0J-62500D01*
G01*
X375000Y5062500D01*
G75*
G02*
X312500Y5000000I-62500J0D01*
G01*
G37*
G04 #@! TD.AperFunction*
G04 #@! TA.AperFunction,SMDPad,CuDef*
G36*
G01*
X-187500Y5000000D02*
X-312500Y5000000D01*
G75*
G02*
X-375000Y5062500I0J62500D01*
G01*
X-375000Y5812500D01*
G75*
G02*
X-312500Y5875000I62500J0D01*
G01*
X-187500Y5875000D01*
G75*
G02*
X-125000Y5812500I0J-62500D01*
G01*
X-125000Y5062500D01*
G75*
G02*
X-187500Y5000000I-62500J0D01*
G01*
G37*
G04 #@! TD.AperFunction*
G04 #@! TA.AperFunction,SMDPad,CuDef*
G36*
G01*
X-687500Y5000000D02*
X-812500Y5000000D01*
G75*
G02*
X-875000Y5062500I0J62500D01*
G01*
X-875000Y5812500D01*
G75*
G02*
X-812500Y5875000I62500J0D01*
G01*
X-687500Y5875000D01*
G75*
G02*
X-625000Y5812500I0J-62500D01*
G01*
X-625000Y5062500D01*
G75*
G02*
X-687500Y5000000I-62500J0D01*
G01*
G37*
G04 #@! TD.AperFunction*
G04 #@! TA.AperFunction,SMDPad,CuDef*
G36*
G01*
X-1187500Y5000000D02*
X-1312500Y5000000D01*
G75*
G02*
X-1375000Y5062500I0J62500D01*
G01*
X-1375000Y5812500D01*
G75*
G02*
X-1312500Y5875000I62500J0D01*
G01*
X-1187500Y5875000D01*
G75*
G02*
X-1125000Y5812500I0J-62500D01*
G01*
X-1125000Y5062500D01*
G75*
G02*
X-1187500Y5000000I-62500J0D01*
G01*
G37*
G04 #@! TD.AperFunction*
G04 #@! TA.AperFunction,SMDPad,CuDef*
G36*
G01*
X-1687500Y5000000D02*
X-1812500Y5000000D01*
G75*
G02*
X-1875000Y5062500I0J62500D01*
G01*
X-1875000Y5812500D01*
G75*
G02*
X-1812500Y5875000I62500J0D01*
G01*
X-1687500Y5875000D01*
G75*
G02*
X-1625000Y5812500I0J-62500D01*
G01*
X-1625000Y5062500D01*
G75*
G02*
X-1687500Y5000000I-62500J0D01*
G01*
G37*
G04 #@! TD.AperFunction*
G04 #@! TA.AperFunction,SMDPad,CuDef*
G36*
G01*
X-2187500Y5000000D02*
X-2312500Y5000000D01*
G75*
G02*
X-2375000Y5062500I0J62500D01*
G01*
X-2375000Y5812500D01*
G75*
G02*
X-2312500Y5875000I62500J0D01*
G01*
X-2187500Y5875000D01*
G75*
G02*
X-2125000Y5812500I0J-62500D01*
G01*
X-2125000Y5062500D01*
G75*
G02*
X-2187500Y5000000I-62500J0D01*
G01*
G37*
G04 #@! TD.AperFunction*
G04 #@! TA.AperFunction,SMDPad,CuDef*
G36*
G01*
X-2687500Y5000000D02*
X-2812500Y5000000D01*
G75*
G02*
X-2875000Y5062500I0J62500D01*
G01*
X-2875000Y5812500D01*
G75*
G02*
X-2812500Y5875000I62500J0D01*
G01*
X-2687500Y5875000D01*
G75*
G02*
X-2625000Y5812500I0J-62500D01*
G01*
X-2625000Y5062500D01*
G75*
G02*
X-2687500Y5000000I-62500J0D01*
G01*
G37*
G04 #@! TD.AperFunction*
G04 #@! TA.AperFunction,SMDPad,CuDef*
G36*
G01*
X-3062500Y4625000D02*
X-3812500Y4625000D01*
G75*
G02*
X-3875000Y4687500I0J62500D01*
G01*
X-3875000Y4812500D01*
G75*
G02*
X-3812500Y4875000I62500J0D01*
G01*
X-3062500Y4875000D01*
G75*
G02*
X-3000000Y4812500I0J-62500D01*
G01*
X-3000000Y4687500D01*
G75*
G02*
X-3062500Y4625000I-62500J0D01*
G01*
G37*
G04 #@! TD.AperFunction*
G04 #@! TA.AperFunction,SMDPad,CuDef*
G36*
G01*
X-3062500Y4125000D02*
X-3812500Y4125000D01*
G75*
G02*
X-3875000Y4187500I0J62500D01*
G01*
X-3875000Y4312500D01*
G75*
G02*
X-3812500Y4375000I62500J0D01*
G01*
X-3062500Y4375000D01*
G75*
G02*
X-3000000Y4312500I0J-62500D01*
G01*
X-3000000Y4187500D01*
G75*
G02*
X-3062500Y4125000I-62500J0D01*
G01*
G37*
G04 #@! TD.AperFunction*
G04 #@! TA.AperFunction,SMDPad,CuDef*
G36*
G01*
X-3062500Y3625000D02*
X-3812500Y3625000D01*
G75*
G02*
X-3875000Y3687500I0J62500D01*
G01*
X-3875000Y3812500D01*
G75*
G02*
X-3812500Y3875000I62500J0D01*
G01*
X-3062500Y3875000D01*
G75*
G02*
X-3000000Y3812500I0J-62500D01*
G01*
X-3000000Y3687500D01*
G75*
G02*
X-3062500Y3625000I-62500J0D01*
G01*
G37*
G04 #@! TD.AperFunction*
G04 #@! TA.AperFunction,SMDPad,CuDef*
G36*
G01*
X-3062500Y3125000D02*
X-3812500Y3125000D01*
G75*
G02*
X-3875000Y3187500I0J62500D01*
G01*
X-3875000Y3312500D01*
G75*
G02*
X-3812500Y3375000I62500J0D01*
G01*
X-3062500Y3375000D01*
G75*
G02*
X-3000000Y3312500I0J-62500D01*
G01*
X-3000000Y3187500D01*
G75*
G02*
X-3062500Y3125000I-62500J0D01*
G01*
G37*
G04 #@! TD.AperFunction*
G04 #@! TA.AperFunction,SMDPad,CuDef*
G36*
G01*
X-3062500Y2625000D02*
X-3812500Y2625000D01*
G75*
G02*
X-3875000Y2687500I0J62500D01*
G01*
X-3875000Y2812500D01*
G75*
G02*
X-3812500Y2875000I62500J0D01*
G01*
X-3062500Y2875000D01*
G75*
G02*
X-3000000Y2812500I0J-62500D01*
G01*
X-3000000Y2687500D01*
G75*
G02*
X-3062500Y2625000I-62500J0D01*
G01*
G37*
G04 #@! TD.AperFunction*
G04 #@! TA.AperFunction,SMDPad,CuDef*
G36*
G01*
X-3062500Y2125000D02*
X-3812500Y2125000D01*
G75*
G02*
X-3875000Y2187500I0J62500D01*
G01*
X-3875000Y2312500D01*
G75*
G02*
X-3812500Y2375000I62500J0D01*
G01*
X-3062500Y2375000D01*
G75*
G02*
X-3000000Y2312500I0J-62500D01*
G01*
X-3000000Y2187500D01*
G75*
G02*
X-3062500Y2125000I-62500J0D01*
G01*
G37*
G04 #@! TD.AperFunction*
G04 #@! TA.AperFunction,SMDPad,CuDef*
G36*
G01*
X-3062500Y1625000D02*
X-3812500Y1625000D01*
G75*
G02*
X-3875000Y1687500I0J62500D01*
G01*
X-3875000Y1812500D01*
G75*
G02*
X-3812500Y1875000I62500J0D01*
G01*
X-3062500Y1875000D01*
G75*
G02*
X-3000000Y1812500I0J-62500D01*
G01*
X-3000000Y1687500D01*
G75*
G02*
X-3062500Y1625000I-62500J0D01*
G01*
G37*
G04 #@! TD.AperFunction*
G04 #@! TA.AperFunction,SMDPad,CuDef*
G36*
G01*
X-3062500Y1125000D02*
X-3812500Y1125000D01*
G75*
G02*
X-3875000Y1187500I0J62500D01*
G01*
X-3875000Y1312500D01*
G75*
G02*
X-3812500Y1375000I62500J0D01*
G01*
X-3062500Y1375000D01*
G75*
G02*
X-3000000Y1312500I0J-62500D01*
G01*
X-3000000Y1187500D01*
G75*
G02*
X-3062500Y1125000I-62500J0D01*
G01*
G37*
G04 #@! TD.AperFunction*
G04 #@! TA.AperFunction,SMDPad,CuDef*
G36*
G01*
X-3062500Y625000D02*
X-3812500Y625000D01*
G75*
G02*
X-3875000Y687500I0J62500D01*
G01*
X-3875000Y812500D01*
G75*
G02*
X-3812500Y875000I62500J0D01*
G01*
X-3062500Y875000D01*
G75*
G02*
X-3000000Y812500I0J-62500D01*
G01*
X-3000000Y687500D01*
G75*
G02*
X-3062500Y625000I-62500J0D01*
G01*
G37*
G04 #@! TD.AperFunction*
G04 #@! TA.AperFunction,SMDPad,CuDef*
G36*
G01*
X-3062500Y125000D02*
X-3812500Y125000D01*
G75*
G02*
X-3875000Y187500I0J62500D01*
G01*
X-3875000Y312500D01*
G75*
G02*
X-3812500Y375000I62500J0D01*
G01*
X-3062500Y375000D01*
G75*
G02*
X-3000000Y312500I0J-62500D01*
G01*
X-3000000Y187500D01*
G75*
G02*
X-3062500Y125000I-62500J0D01*
G01*
G37*
G04 #@! TD.AperFunction*
G04 #@! TA.AperFunction,SMDPad,CuDef*
G36*
G01*
X-3062500Y-375000D02*
X-3812500Y-375000D01*
G75*
G02*
X-3875000Y-312500I0J62500D01*
G01*
X-3875000Y-187500D01*
G75*
G02*
X-3812500Y-125000I62500J0D01*
G01*
X-3062500Y-125000D01*
G75*
G02*
X-3000000Y-187500I0J-62500D01*
G01*
X-3000000Y-312500D01*
G75*
G02*
X-3062500Y-375000I-62500J0D01*
G01*
G37*
G04 #@! TD.AperFunction*
G04 #@! TA.AperFunction,SMDPad,CuDef*
G36*
G01*
X-3062500Y-875000D02*
X-3812500Y-875000D01*
G75*
G02*
X-3875000Y-812500I0J62500D01*
G01*
X-3875000Y-687500D01*
G75*
G02*
X-3812500Y-625000I62500J0D01*
G01*
X-3062500Y-625000D01*
G75*
G02*
X-3000000Y-687500I0J-62500D01*
G01*
X-3000000Y-812500D01*
G75*
G02*
X-3062500Y-875000I-62500J0D01*
G01*
G37*
G04 #@! TD.AperFunction*
D14*
X0Y2000000D03*
D15*
X-3262500Y-3900000D03*
X-2437500Y-3900000D03*
D16*
X800000Y-5450000D03*
X2200000Y-5450000D03*
X2200000Y-4350000D03*
X800000Y-4350000D03*
G04 #@! TA.AperFunction,SMDPad,CuDef*
D10*
G36*
X12838370Y-10286440D02*
G01*
X11813066Y-9261136D01*
X12237330Y-8836872D01*
X13262634Y-9862176D01*
X12838370Y-10286440D01*
G37*
G04 #@! TD.AperFunction*
G04 #@! TA.AperFunction,SMDPad,CuDef*
G36*
X12272685Y-10852125D02*
G01*
X11247381Y-9826821D01*
X11671645Y-9402557D01*
X12696949Y-10427861D01*
X12272685Y-10852125D01*
G37*
G04 #@! TD.AperFunction*
G04 #@! TA.AperFunction,SMDPad,CuDef*
G36*
X8807861Y-14316949D02*
G01*
X7782557Y-13291645D01*
X8206821Y-12867381D01*
X9232125Y-13892685D01*
X8807861Y-14316949D01*
G37*
G04 #@! TD.AperFunction*
G04 #@! TA.AperFunction,SMDPad,CuDef*
G36*
X8242176Y-14882634D02*
G01*
X7216872Y-13857330D01*
X7641136Y-13433066D01*
X8666440Y-14458370D01*
X8242176Y-14882634D01*
G37*
G04 #@! TD.AperFunction*
G04 #@! TA.AperFunction,SMDPad,CuDef*
G36*
X8242176Y-14882634D02*
G01*
X7216872Y-13857330D01*
X7641136Y-13433066D01*
X8666440Y-14458370D01*
X8242176Y-14882634D01*
G37*
G04 #@! TD.AperFunction*
G04 #@! TA.AperFunction,SMDPad,CuDef*
G36*
X8807861Y-14316949D02*
G01*
X7782557Y-13291645D01*
X8206821Y-12867381D01*
X9232125Y-13892685D01*
X8807861Y-14316949D01*
G37*
G04 #@! TD.AperFunction*
G04 #@! TA.AperFunction,SMDPad,CuDef*
G36*
X12272685Y-10852125D02*
G01*
X11247381Y-9826821D01*
X11671645Y-9402557D01*
X12696949Y-10427861D01*
X12272685Y-10852125D01*
G37*
G04 #@! TD.AperFunction*
G04 #@! TA.AperFunction,SMDPad,CuDef*
G36*
X12838370Y-10286440D02*
G01*
X11813066Y-9261136D01*
X12237330Y-8836872D01*
X13262634Y-9862176D01*
X12838370Y-10286440D01*
G37*
G04 #@! TD.AperFunction*
G04 #@! TA.AperFunction,SMDPad,CuDef*
G36*
X9408902Y-13715908D02*
G01*
X8383598Y-12690604D01*
X8595730Y-12478472D01*
X9621034Y-13503776D01*
X9408902Y-13715908D01*
G37*
G04 #@! TD.AperFunction*
G04 #@! TA.AperFunction,SMDPad,CuDef*
G36*
X9762456Y-13362355D02*
G01*
X8737152Y-12337051D01*
X8949284Y-12124919D01*
X9974588Y-13150223D01*
X9762456Y-13362355D01*
G37*
G04 #@! TD.AperFunction*
G04 #@! TA.AperFunction,SMDPad,CuDef*
G36*
X10116009Y-13008801D02*
G01*
X9090705Y-11983497D01*
X9302837Y-11771365D01*
X10328141Y-12796669D01*
X10116009Y-13008801D01*
G37*
G04 #@! TD.AperFunction*
G04 #@! TA.AperFunction,SMDPad,CuDef*
G36*
X10823116Y-12301694D02*
G01*
X9797812Y-11276390D01*
X10009944Y-11064258D01*
X11035248Y-12089562D01*
X10823116Y-12301694D01*
G37*
G04 #@! TD.AperFunction*
G04 #@! TA.AperFunction,SMDPad,CuDef*
G36*
X11176669Y-11948141D02*
G01*
X10151365Y-10922837D01*
X10363497Y-10710705D01*
X11388801Y-11736009D01*
X11176669Y-11948141D01*
G37*
G04 #@! TD.AperFunction*
G04 #@! TA.AperFunction,SMDPad,CuDef*
G36*
X11530223Y-11594588D02*
G01*
X10504919Y-10569284D01*
X10717051Y-10357152D01*
X11742355Y-11382456D01*
X11530223Y-11594588D01*
G37*
G04 #@! TD.AperFunction*
G04 #@! TA.AperFunction,SMDPad,CuDef*
G36*
X11883776Y-11241034D02*
G01*
X10858472Y-10215730D01*
X11070604Y-10003598D01*
X12095908Y-11028902D01*
X11883776Y-11241034D01*
G37*
G04 #@! TD.AperFunction*
G04 #@! TA.AperFunction,SMDPad,CuDef*
G36*
X10469562Y-12655248D02*
G01*
X9444258Y-11629944D01*
X9656390Y-11417812D01*
X10681694Y-12443116D01*
X10469562Y-12655248D01*
G37*
G04 #@! TD.AperFunction*
G04 #@! TA.AperFunction,ComponentPad*
G36*
G01*
X13976813Y-10194516D02*
X13198995Y-9416698D01*
G75*
G02*
X13198995Y-8709592I353553J353553D01*
G01*
X13198995Y-8709592D01*
G75*
G02*
X13906101Y-8709592I353553J-353553D01*
G01*
X14683919Y-9487410D01*
G75*
G02*
X14683919Y-10194516I-353553J-353553D01*
G01*
X14683919Y-10194516D01*
G75*
G02*
X13976813Y-10194516I-353553J353553D01*
G01*
G37*
G04 #@! TD.AperFunction*
G04 #@! TA.AperFunction,ComponentPad*
G36*
G01*
X7867410Y-16303919D02*
X7089592Y-15526101D01*
G75*
G02*
X7089592Y-14818995I353553J353553D01*
G01*
X7089592Y-14818995D01*
G75*
G02*
X7796698Y-14818995I353553J-353553D01*
G01*
X8574516Y-15596813D01*
G75*
G02*
X8574516Y-16303919I-353553J-353553D01*
G01*
X8574516Y-16303919D01*
G75*
G02*
X7867410Y-16303919I-353553J353553D01*
G01*
G37*
G04 #@! TD.AperFunction*
G04 #@! TA.AperFunction,ComponentPad*
G36*
G01*
X10646340Y-19082848D02*
X10222076Y-18658584D01*
G75*
G02*
X10222076Y-17951478I353553J353553D01*
G01*
X10222076Y-17951478D01*
G75*
G02*
X10929182Y-17951478I353553J-353553D01*
G01*
X11353446Y-18375742D01*
G75*
G02*
X11353446Y-19082848I-353553J-353553D01*
G01*
X11353446Y-19082848D01*
G75*
G02*
X10646340Y-19082848I-353553J353553D01*
G01*
G37*
G04 #@! TD.AperFunction*
G04 #@! TA.AperFunction,ComponentPad*
G36*
G01*
X16755742Y-12973446D02*
X16331478Y-12549182D01*
G75*
G02*
X16331478Y-11842076I353553J353553D01*
G01*
X16331478Y-11842076D01*
G75*
G02*
X17038584Y-11842076I353553J-353553D01*
G01*
X17462848Y-12266340D01*
G75*
G02*
X17462848Y-12973446I-353553J-353553D01*
G01*
X17462848Y-12973446D01*
G75*
G02*
X16755742Y-12973446I-353553J353553D01*
G01*
G37*
G04 #@! TD.AperFunction*
G04 #@! TA.AperFunction,SMDPad,CuDef*
G36*
G01*
X-6650000Y150000D02*
X-7150000Y150000D01*
G75*
G02*
X-7375000Y375000I0J225000D01*
G01*
X-7375000Y825000D01*
G75*
G02*
X-7150000Y1050000I225000J0D01*
G01*
X-6650000Y1050000D01*
G75*
G02*
X-6425000Y825000I0J-225000D01*
G01*
X-6425000Y375000D01*
G75*
G02*
X-6650000Y150000I-225000J0D01*
G01*
G37*
G04 #@! TD.AperFunction*
G04 #@! TA.AperFunction,SMDPad,CuDef*
G36*
G01*
X-6650000Y-1400000D02*
X-7150000Y-1400000D01*
G75*
G02*
X-7375000Y-1175000I0J225000D01*
G01*
X-7375000Y-725000D01*
G75*
G02*
X-7150000Y-500000I225000J0D01*
G01*
X-6650000Y-500000D01*
G75*
G02*
X-6425000Y-725000I0J-225000D01*
G01*
X-6425000Y-1175000D01*
G75*
G02*
X-6650000Y-1400000I-225000J0D01*
G01*
G37*
G04 #@! TD.AperFunction*
G04 #@! TA.AperFunction,ComponentPad*
G36*
G01*
X-11353446Y-18375742D02*
X-10929182Y-17951478D01*
G75*
G02*
X-10222076Y-17951478I353553J-353553D01*
G01*
X-10222076Y-17951478D01*
G75*
G02*
X-10222076Y-18658584I-353553J-353553D01*
G01*
X-10646340Y-19082848D01*
G75*
G02*
X-11353446Y-19082848I-353553J353553D01*
G01*
X-11353446Y-19082848D01*
G75*
G02*
X-11353446Y-18375742I353553J353553D01*
G01*
G37*
G04 #@! TD.AperFunction*
G04 #@! TA.AperFunction,ComponentPad*
G36*
G01*
X-17462848Y-12266340D02*
X-17038584Y-11842076D01*
G75*
G02*
X-16331478Y-11842076I353553J-353553D01*
G01*
X-16331478Y-11842076D01*
G75*
G02*
X-16331478Y-12549182I-353553J-353553D01*
G01*
X-16755742Y-12973446D01*
G75*
G02*
X-17462848Y-12973446I-353553J353553D01*
G01*
X-17462848Y-12973446D01*
G75*
G02*
X-17462848Y-12266340I353553J353553D01*
G01*
G37*
G04 #@! TD.AperFunction*
G04 #@! TA.AperFunction,ComponentPad*
G36*
G01*
X-14683919Y-9487410D02*
X-13906101Y-8709592D01*
G75*
G02*
X-13198995Y-8709592I353553J-353553D01*
G01*
X-13198995Y-8709592D01*
G75*
G02*
X-13198995Y-9416698I-353553J-353553D01*
G01*
X-13976813Y-10194516D01*
G75*
G02*
X-14683919Y-10194516I-353553J353553D01*
G01*
X-14683919Y-10194516D01*
G75*
G02*
X-14683919Y-9487410I353553J353553D01*
G01*
G37*
G04 #@! TD.AperFunction*
G04 #@! TA.AperFunction,ComponentPad*
G36*
G01*
X-8574516Y-15596813D02*
X-7796698Y-14818995D01*
G75*
G02*
X-7089592Y-14818995I353553J-353553D01*
G01*
X-7089592Y-14818995D01*
G75*
G02*
X-7089592Y-15526101I-353553J-353553D01*
G01*
X-7867410Y-16303919D01*
G75*
G02*
X-8574516Y-16303919I-353553J353553D01*
G01*
X-8574516Y-16303919D01*
G75*
G02*
X-8574516Y-15596813I353553J353553D01*
G01*
G37*
G04 #@! TD.AperFunction*
G04 #@! TA.AperFunction,SMDPad,CuDef*
G36*
X-11035248Y-12089562D02*
G01*
X-10009944Y-11064258D01*
X-9797812Y-11276390D01*
X-10823116Y-12301694D01*
X-11035248Y-12089562D01*
G37*
G04 #@! TD.AperFunction*
G04 #@! TA.AperFunction,SMDPad,CuDef*
G36*
X-9621034Y-13503776D02*
G01*
X-8595730Y-12478472D01*
X-8383598Y-12690604D01*
X-9408902Y-13715908D01*
X-9621034Y-13503776D01*
G37*
G04 #@! TD.AperFunction*
G04 #@! TA.AperFunction,SMDPad,CuDef*
G36*
X-9974588Y-13150223D02*
G01*
X-8949284Y-12124919D01*
X-8737152Y-12337051D01*
X-9762456Y-13362355D01*
X-9974588Y-13150223D01*
G37*
G04 #@! TD.AperFunction*
G04 #@! TA.AperFunction,SMDPad,CuDef*
G36*
X-10328141Y-12796669D02*
G01*
X-9302837Y-11771365D01*
X-9090705Y-11983497D01*
X-10116009Y-13008801D01*
X-10328141Y-12796669D01*
G37*
G04 #@! TD.AperFunction*
G04 #@! TA.AperFunction,SMDPad,CuDef*
G36*
X-10681694Y-12443116D02*
G01*
X-9656390Y-11417812D01*
X-9444258Y-11629944D01*
X-10469562Y-12655248D01*
X-10681694Y-12443116D01*
G37*
G04 #@! TD.AperFunction*
G04 #@! TA.AperFunction,SMDPad,CuDef*
G36*
X-11388801Y-11736009D02*
G01*
X-10363497Y-10710705D01*
X-10151365Y-10922837D01*
X-11176669Y-11948141D01*
X-11388801Y-11736009D01*
G37*
G04 #@! TD.AperFunction*
G04 #@! TA.AperFunction,SMDPad,CuDef*
G36*
X-11742355Y-11382456D02*
G01*
X-10717051Y-10357152D01*
X-10504919Y-10569284D01*
X-11530223Y-11594588D01*
X-11742355Y-11382456D01*
G37*
G04 #@! TD.AperFunction*
G04 #@! TA.AperFunction,SMDPad,CuDef*
G36*
X-12095908Y-11028902D02*
G01*
X-11070604Y-10003598D01*
X-10858472Y-10215730D01*
X-11883776Y-11241034D01*
X-12095908Y-11028902D01*
G37*
G04 #@! TD.AperFunction*
G04 #@! TA.AperFunction,SMDPad,CuDef*
G36*
X-8666440Y-14458370D02*
G01*
X-7641136Y-13433066D01*
X-7216872Y-13857330D01*
X-8242176Y-14882634D01*
X-8666440Y-14458370D01*
G37*
G04 #@! TD.AperFunction*
G04 #@! TA.AperFunction,SMDPad,CuDef*
G36*
X-9232125Y-13892685D02*
G01*
X-8206821Y-12867381D01*
X-7782557Y-13291645D01*
X-8807861Y-14316949D01*
X-9232125Y-13892685D01*
G37*
G04 #@! TD.AperFunction*
G04 #@! TA.AperFunction,SMDPad,CuDef*
G36*
X-12696949Y-10427861D02*
G01*
X-11671645Y-9402557D01*
X-11247381Y-9826821D01*
X-12272685Y-10852125D01*
X-12696949Y-10427861D01*
G37*
G04 #@! TD.AperFunction*
G04 #@! TA.AperFunction,SMDPad,CuDef*
G36*
X-13262634Y-9862176D02*
G01*
X-12237330Y-8836872D01*
X-11813066Y-9261136D01*
X-12838370Y-10286440D01*
X-13262634Y-9862176D01*
G37*
G04 #@! TD.AperFunction*
G04 #@! TA.AperFunction,SMDPad,CuDef*
G36*
X-13262634Y-9862176D02*
G01*
X-12237330Y-8836872D01*
X-11813066Y-9261136D01*
X-12838370Y-10286440D01*
X-13262634Y-9862176D01*
G37*
G04 #@! TD.AperFunction*
G04 #@! TA.AperFunction,SMDPad,CuDef*
G36*
X-12696949Y-10427861D02*
G01*
X-11671645Y-9402557D01*
X-11247381Y-9826821D01*
X-12272685Y-10852125D01*
X-12696949Y-10427861D01*
G37*
G04 #@! TD.AperFunction*
G04 #@! TA.AperFunction,SMDPad,CuDef*
G36*
X-9232125Y-13892685D02*
G01*
X-8206821Y-12867381D01*
X-7782557Y-13291645D01*
X-8807861Y-14316949D01*
X-9232125Y-13892685D01*
G37*
G04 #@! TD.AperFunction*
G04 #@! TA.AperFunction,SMDPad,CuDef*
G36*
X-8666440Y-14458370D02*
G01*
X-7641136Y-13433066D01*
X-7216872Y-13857330D01*
X-8242176Y-14882634D01*
X-8666440Y-14458370D01*
G37*
G04 #@! TD.AperFunction*
D17*
X-4320000Y17920000D03*
X4320000Y17920000D03*
D18*
X4320000Y13740000D03*
X-4320000Y13740000D03*
D19*
X250000Y12825000D03*
X-1750000Y12825000D03*
X-1250000Y12825000D03*
X-750000Y12825000D03*
X-250000Y12825000D03*
X750000Y12825000D03*
X1250000Y12825000D03*
X1750000Y12825000D03*
D20*
X-3250000Y12825000D03*
X-2450000Y12825000D03*
X2450000Y12825000D03*
X3250000Y12825000D03*
X3250000Y12825000D03*
X2450000Y12825000D03*
X-2450000Y12825000D03*
X-3250000Y12825000D03*
G04 #@! TA.AperFunction,SMDPad,CuDef*
G36*
G01*
X-5815000Y14720000D02*
X-6185000Y14720000D01*
G75*
G02*
X-6320000Y14855000I0J135000D01*
G01*
X-6320000Y15125000D01*
G75*
G02*
X-6185000Y15260000I135000J0D01*
G01*
X-5815000Y15260000D01*
G75*
G02*
X-5680000Y15125000I0J-135000D01*
G01*
X-5680000Y14855000D01*
G75*
G02*
X-5815000Y14720000I-135000J0D01*
G01*
G37*
G04 #@! TD.AperFunction*
G04 #@! TA.AperFunction,SMDPad,CuDef*
G36*
G01*
X-5815000Y15740000D02*
X-6185000Y15740000D01*
G75*
G02*
X-6320000Y15875000I0J135000D01*
G01*
X-6320000Y16145000D01*
G75*
G02*
X-6185000Y16280000I135000J0D01*
G01*
X-5815000Y16280000D01*
G75*
G02*
X-5680000Y16145000I0J-135000D01*
G01*
X-5680000Y15875000D01*
G75*
G02*
X-5815000Y15740000I-135000J0D01*
G01*
G37*
G04 #@! TD.AperFunction*
G04 #@! TA.AperFunction,SMDPad,CuDef*
G36*
G01*
X7788891Y-18300520D02*
X8050520Y-18038891D01*
G75*
G02*
X8241438Y-18038891I95459J-95459D01*
G01*
X8432357Y-18229810D01*
G75*
G02*
X8432357Y-18420728I-95459J-95459D01*
G01*
X8170728Y-18682357D01*
G75*
G02*
X7979810Y-18682357I-95459J95459D01*
G01*
X7788891Y-18491438D01*
G75*
G02*
X7788891Y-18300520I95459J95459D01*
G01*
G37*
G04 #@! TD.AperFunction*
G04 #@! TA.AperFunction,SMDPad,CuDef*
G36*
G01*
X7067643Y-17579272D02*
X7329272Y-17317643D01*
G75*
G02*
X7520190Y-17317643I95459J-95459D01*
G01*
X7711109Y-17508562D01*
G75*
G02*
X7711109Y-17699480I-95459J-95459D01*
G01*
X7449480Y-17961109D01*
G75*
G02*
X7258562Y-17961109I-95459J95459D01*
G01*
X7067643Y-17770190D01*
G75*
G02*
X7067643Y-17579272I95459J95459D01*
G01*
G37*
G04 #@! TD.AperFunction*
G04 #@! TA.AperFunction,SMDPad,CuDef*
G36*
G01*
X-8050520Y-18038891D02*
X-7788891Y-18300520D01*
G75*
G02*
X-7788891Y-18491438I-95459J-95459D01*
G01*
X-7979810Y-18682357D01*
G75*
G02*
X-8170728Y-18682357I-95459J95459D01*
G01*
X-8432357Y-18420728D01*
G75*
G02*
X-8432357Y-18229810I95459J95459D01*
G01*
X-8241438Y-18038891D01*
G75*
G02*
X-8050520Y-18038891I95459J-95459D01*
G01*
G37*
G04 #@! TD.AperFunction*
G04 #@! TA.AperFunction,SMDPad,CuDef*
G36*
G01*
X-7329272Y-17317643D02*
X-7067643Y-17579272D01*
G75*
G02*
X-7067643Y-17770190I-95459J-95459D01*
G01*
X-7258562Y-17961109D01*
G75*
G02*
X-7449480Y-17961109I-95459J95459D01*
G01*
X-7711109Y-17699480D01*
G75*
G02*
X-7711109Y-17508562I95459J95459D01*
G01*
X-7520190Y-17317643D01*
G75*
G02*
X-7329272Y-17317643I95459J-95459D01*
G01*
G37*
G04 #@! TD.AperFunction*
G04 #@! TA.AperFunction,SMDPad,CuDef*
G36*
G01*
X6185000Y15740000D02*
X5815000Y15740000D01*
G75*
G02*
X5680000Y15875000I0J135000D01*
G01*
X5680000Y16145000D01*
G75*
G02*
X5815000Y16280000I135000J0D01*
G01*
X6185000Y16280000D01*
G75*
G02*
X6320000Y16145000I0J-135000D01*
G01*
X6320000Y15875000D01*
G75*
G02*
X6185000Y15740000I-135000J0D01*
G01*
G37*
G04 #@! TD.AperFunction*
G04 #@! TA.AperFunction,SMDPad,CuDef*
G36*
G01*
X6185000Y14720000D02*
X5815000Y14720000D01*
G75*
G02*
X5680000Y14855000I0J135000D01*
G01*
X5680000Y15125000D01*
G75*
G02*
X5815000Y15260000I135000J0D01*
G01*
X6185000Y15260000D01*
G75*
G02*
X6320000Y15125000I0J-135000D01*
G01*
X6320000Y14855000D01*
G75*
G02*
X6185000Y14720000I-135000J0D01*
G01*
G37*
G04 #@! TD.AperFunction*
G04 #@! TA.AperFunction,SMDPad,CuDef*
G36*
G01*
X-10360000Y-5885000D02*
X-10360000Y-5515000D01*
G75*
G02*
X-10225000Y-5380000I135000J0D01*
G01*
X-9955000Y-5380000D01*
G75*
G02*
X-9820000Y-5515000I0J-135000D01*
G01*
X-9820000Y-5885000D01*
G75*
G02*
X-9955000Y-6020000I-135000J0D01*
G01*
X-10225000Y-6020000D01*
G75*
G02*
X-10360000Y-5885000I0J135000D01*
G01*
G37*
G04 #@! TD.AperFunction*
G04 #@! TA.AperFunction,SMDPad,CuDef*
G36*
G01*
X-11380000Y-5885000D02*
X-11380000Y-5515000D01*
G75*
G02*
X-11245000Y-5380000I135000J0D01*
G01*
X-10975000Y-5380000D01*
G75*
G02*
X-10840000Y-5515000I0J-135000D01*
G01*
X-10840000Y-5885000D01*
G75*
G02*
X-10975000Y-6020000I-135000J0D01*
G01*
X-11245000Y-6020000D01*
G75*
G02*
X-11380000Y-5885000I0J135000D01*
G01*
G37*
G04 #@! TD.AperFunction*
G04 #@! TA.AperFunction,SMDPad,CuDef*
G36*
G01*
X-10360000Y-6985000D02*
X-10360000Y-6615000D01*
G75*
G02*
X-10225000Y-6480000I135000J0D01*
G01*
X-9955000Y-6480000D01*
G75*
G02*
X-9820000Y-6615000I0J-135000D01*
G01*
X-9820000Y-6985000D01*
G75*
G02*
X-9955000Y-7120000I-135000J0D01*
G01*
X-10225000Y-7120000D01*
G75*
G02*
X-10360000Y-6985000I0J135000D01*
G01*
G37*
G04 #@! TD.AperFunction*
G04 #@! TA.AperFunction,SMDPad,CuDef*
G36*
G01*
X-11380000Y-6985000D02*
X-11380000Y-6615000D01*
G75*
G02*
X-11245000Y-6480000I135000J0D01*
G01*
X-10975000Y-6480000D01*
G75*
G02*
X-10840000Y-6615000I0J-135000D01*
G01*
X-10840000Y-6985000D01*
G75*
G02*
X-10975000Y-7120000I-135000J0D01*
G01*
X-11245000Y-7120000D01*
G75*
G02*
X-11380000Y-6985000I0J135000D01*
G01*
G37*
G04 #@! TD.AperFunction*
G04 #@! TA.AperFunction,SMDPad,CuDef*
G36*
G01*
X5115000Y9880000D02*
X5485000Y9880000D01*
G75*
G02*
X5620000Y9745000I0J-135000D01*
G01*
X5620000Y9475000D01*
G75*
G02*
X5485000Y9340000I-135000J0D01*
G01*
X5115000Y9340000D01*
G75*
G02*
X4980000Y9475000I0J135000D01*
G01*
X4980000Y9745000D01*
G75*
G02*
X5115000Y9880000I135000J0D01*
G01*
G37*
G04 #@! TD.AperFunction*
G04 #@! TA.AperFunction,SMDPad,CuDef*
G36*
G01*
X5115000Y8860000D02*
X5485000Y8860000D01*
G75*
G02*
X5620000Y8725000I0J-135000D01*
G01*
X5620000Y8455000D01*
G75*
G02*
X5485000Y8320000I-135000J0D01*
G01*
X5115000Y8320000D01*
G75*
G02*
X4980000Y8455000I0J135000D01*
G01*
X4980000Y8725000D01*
G75*
G02*
X5115000Y8860000I135000J0D01*
G01*
G37*
G04 #@! TD.AperFunction*
G04 #@! TA.AperFunction,SMDPad,CuDef*
G36*
G01*
X9167000Y-7430000D02*
X8797000Y-7430000D01*
G75*
G02*
X8662000Y-7295000I0J135000D01*
G01*
X8662000Y-7025000D01*
G75*
G02*
X8797000Y-6890000I135000J0D01*
G01*
X9167000Y-6890000D01*
G75*
G02*
X9302000Y-7025000I0J-135000D01*
G01*
X9302000Y-7295000D01*
G75*
G02*
X9167000Y-7430000I-135000J0D01*
G01*
G37*
G04 #@! TD.AperFunction*
G04 #@! TA.AperFunction,SMDPad,CuDef*
G36*
G01*
X9167000Y-6410000D02*
X8797000Y-6410000D01*
G75*
G02*
X8662000Y-6275000I0J135000D01*
G01*
X8662000Y-6005000D01*
G75*
G02*
X8797000Y-5870000I135000J0D01*
G01*
X9167000Y-5870000D01*
G75*
G02*
X9302000Y-6005000I0J-135000D01*
G01*
X9302000Y-6275000D01*
G75*
G02*
X9167000Y-6410000I-135000J0D01*
G01*
G37*
G04 #@! TD.AperFunction*
G04 #@! TA.AperFunction,SMDPad,CuDef*
G36*
G01*
X6240000Y2315000D02*
X6240000Y2685000D01*
G75*
G02*
X6375000Y2820000I135000J0D01*
G01*
X6645000Y2820000D01*
G75*
G02*
X6780000Y2685000I0J-135000D01*
G01*
X6780000Y2315000D01*
G75*
G02*
X6645000Y2180000I-135000J0D01*
G01*
X6375000Y2180000D01*
G75*
G02*
X6240000Y2315000I0J135000D01*
G01*
G37*
G04 #@! TD.AperFunction*
G04 #@! TA.AperFunction,SMDPad,CuDef*
G36*
G01*
X5220000Y2315000D02*
X5220000Y2685000D01*
G75*
G02*
X5355000Y2820000I135000J0D01*
G01*
X5625000Y2820000D01*
G75*
G02*
X5760000Y2685000I0J-135000D01*
G01*
X5760000Y2315000D01*
G75*
G02*
X5625000Y2180000I-135000J0D01*
G01*
X5355000Y2180000D01*
G75*
G02*
X5220000Y2315000I0J135000D01*
G01*
G37*
G04 #@! TD.AperFunction*
G04 #@! TA.AperFunction,SMDPad,CuDef*
G36*
G01*
X5880000Y-1910000D02*
X5880000Y-2250000D01*
G75*
G02*
X5740000Y-2390000I-140000J0D01*
G01*
X5460000Y-2390000D01*
G75*
G02*
X5320000Y-2250000I0J140000D01*
G01*
X5320000Y-1910000D01*
G75*
G02*
X5460000Y-1770000I140000J0D01*
G01*
X5740000Y-1770000D01*
G75*
G02*
X5880000Y-1910000I0J-140000D01*
G01*
G37*
G04 #@! TD.AperFunction*
G04 #@! TA.AperFunction,SMDPad,CuDef*
G36*
G01*
X6840000Y-1910000D02*
X6840000Y-2250000D01*
G75*
G02*
X6700000Y-2390000I-140000J0D01*
G01*
X6420000Y-2390000D01*
G75*
G02*
X6280000Y-2250000I0J140000D01*
G01*
X6280000Y-1910000D01*
G75*
G02*
X6420000Y-1770000I140000J0D01*
G01*
X6700000Y-1770000D01*
G75*
G02*
X6840000Y-1910000I0J-140000D01*
G01*
G37*
G04 #@! TD.AperFunction*
G04 #@! TA.AperFunction,SMDPad,CuDef*
G36*
G01*
X-6250000Y-2280000D02*
X-6250000Y-2620000D01*
G75*
G02*
X-6390000Y-2760000I-140000J0D01*
G01*
X-6670000Y-2760000D01*
G75*
G02*
X-6810000Y-2620000I0J140000D01*
G01*
X-6810000Y-2280000D01*
G75*
G02*
X-6670000Y-2140000I140000J0D01*
G01*
X-6390000Y-2140000D01*
G75*
G02*
X-6250000Y-2280000I0J-140000D01*
G01*
G37*
G04 #@! TD.AperFunction*
G04 #@! TA.AperFunction,SMDPad,CuDef*
G36*
G01*
X-5290000Y-2280000D02*
X-5290000Y-2620000D01*
G75*
G02*
X-5430000Y-2760000I-140000J0D01*
G01*
X-5710000Y-2760000D01*
G75*
G02*
X-5850000Y-2620000I0J140000D01*
G01*
X-5850000Y-2280000D01*
G75*
G02*
X-5710000Y-2140000I140000J0D01*
G01*
X-5430000Y-2140000D01*
G75*
G02*
X-5290000Y-2280000I0J-140000D01*
G01*
G37*
G04 #@! TD.AperFunction*
G04 #@! TA.AperFunction,SMDPad,CuDef*
G36*
G01*
X-2470000Y-4940000D02*
X-2130000Y-4940000D01*
G75*
G02*
X-1990000Y-5080000I0J-140000D01*
G01*
X-1990000Y-5360000D01*
G75*
G02*
X-2130000Y-5500000I-140000J0D01*
G01*
X-2470000Y-5500000D01*
G75*
G02*
X-2610000Y-5360000I0J140000D01*
G01*
X-2610000Y-5080000D01*
G75*
G02*
X-2470000Y-4940000I140000J0D01*
G01*
G37*
G04 #@! TD.AperFunction*
G04 #@! TA.AperFunction,SMDPad,CuDef*
G36*
G01*
X-2470000Y-5900000D02*
X-2130000Y-5900000D01*
G75*
G02*
X-1990000Y-6040000I0J-140000D01*
G01*
X-1990000Y-6320000D01*
G75*
G02*
X-2130000Y-6460000I-140000J0D01*
G01*
X-2470000Y-6460000D01*
G75*
G02*
X-2610000Y-6320000I0J140000D01*
G01*
X-2610000Y-6040000D01*
G75*
G02*
X-2470000Y-5900000I140000J0D01*
G01*
G37*
G04 #@! TD.AperFunction*
G04 #@! TA.AperFunction,SMDPad,CuDef*
G36*
G01*
X-3570000Y-4940000D02*
X-3230000Y-4940000D01*
G75*
G02*
X-3090000Y-5080000I0J-140000D01*
G01*
X-3090000Y-5360000D01*
G75*
G02*
X-3230000Y-5500000I-140000J0D01*
G01*
X-3570000Y-5500000D01*
G75*
G02*
X-3710000Y-5360000I0J140000D01*
G01*
X-3710000Y-5080000D01*
G75*
G02*
X-3570000Y-4940000I140000J0D01*
G01*
G37*
G04 #@! TD.AperFunction*
G04 #@! TA.AperFunction,SMDPad,CuDef*
G36*
G01*
X-3570000Y-5900000D02*
X-3230000Y-5900000D01*
G75*
G02*
X-3090000Y-6040000I0J-140000D01*
G01*
X-3090000Y-6320000D01*
G75*
G02*
X-3230000Y-6460000I-140000J0D01*
G01*
X-3570000Y-6460000D01*
G75*
G02*
X-3710000Y-6320000I0J140000D01*
G01*
X-3710000Y-6040000D01*
G75*
G02*
X-3570000Y-5900000I140000J0D01*
G01*
G37*
G04 #@! TD.AperFunction*
G04 #@! TA.AperFunction,SMDPad,CuDef*
G36*
G01*
X6510000Y-770000D02*
X6850000Y-770000D01*
G75*
G02*
X6990000Y-910000I0J-140000D01*
G01*
X6990000Y-1190000D01*
G75*
G02*
X6850000Y-1330000I-140000J0D01*
G01*
X6510000Y-1330000D01*
G75*
G02*
X6370000Y-1190000I0J140000D01*
G01*
X6370000Y-910000D01*
G75*
G02*
X6510000Y-770000I140000J0D01*
G01*
G37*
G04 #@! TD.AperFunction*
G04 #@! TA.AperFunction,SMDPad,CuDef*
G36*
G01*
X6510000Y190000D02*
X6850000Y190000D01*
G75*
G02*
X6990000Y50000I0J-140000D01*
G01*
X6990000Y-230000D01*
G75*
G02*
X6850000Y-370000I-140000J0D01*
G01*
X6510000Y-370000D01*
G75*
G02*
X6370000Y-230000I0J140000D01*
G01*
X6370000Y50000D01*
G75*
G02*
X6510000Y190000I140000J0D01*
G01*
G37*
G04 #@! TD.AperFunction*
G04 #@! TA.AperFunction,SMDPad,CuDef*
G36*
G01*
X5410000Y-770000D02*
X5750000Y-770000D01*
G75*
G02*
X5890000Y-910000I0J-140000D01*
G01*
X5890000Y-1190000D01*
G75*
G02*
X5750000Y-1330000I-140000J0D01*
G01*
X5410000Y-1330000D01*
G75*
G02*
X5270000Y-1190000I0J140000D01*
G01*
X5270000Y-910000D01*
G75*
G02*
X5410000Y-770000I140000J0D01*
G01*
G37*
G04 #@! TD.AperFunction*
G04 #@! TA.AperFunction,SMDPad,CuDef*
G36*
G01*
X5410000Y190000D02*
X5750000Y190000D01*
G75*
G02*
X5890000Y50000I0J-140000D01*
G01*
X5890000Y-230000D01*
G75*
G02*
X5750000Y-370000I-140000J0D01*
G01*
X5410000Y-370000D01*
G75*
G02*
X5270000Y-230000I0J140000D01*
G01*
X5270000Y50000D01*
G75*
G02*
X5410000Y190000I140000J0D01*
G01*
G37*
G04 #@! TD.AperFunction*
G04 #@! TA.AperFunction,SMDPad,CuDef*
G36*
G01*
X10030000Y-5910000D02*
X10370000Y-5910000D01*
G75*
G02*
X10510000Y-6050000I0J-140000D01*
G01*
X10510000Y-6330000D01*
G75*
G02*
X10370000Y-6470000I-140000J0D01*
G01*
X10030000Y-6470000D01*
G75*
G02*
X9890000Y-6330000I0J140000D01*
G01*
X9890000Y-6050000D01*
G75*
G02*
X10030000Y-5910000I140000J0D01*
G01*
G37*
G04 #@! TD.AperFunction*
G04 #@! TA.AperFunction,SMDPad,CuDef*
G36*
G01*
X10030000Y-6870000D02*
X10370000Y-6870000D01*
G75*
G02*
X10510000Y-7010000I0J-140000D01*
G01*
X10510000Y-7290000D01*
G75*
G02*
X10370000Y-7430000I-140000J0D01*
G01*
X10030000Y-7430000D01*
G75*
G02*
X9890000Y-7290000I0J140000D01*
G01*
X9890000Y-7010000D01*
G75*
G02*
X10030000Y-6870000I140000J0D01*
G01*
G37*
G04 #@! TD.AperFunction*
G04 #@! TA.AperFunction,SMDPad,CuDef*
G36*
G01*
X3330000Y-4540000D02*
X3670000Y-4540000D01*
G75*
G02*
X3810000Y-4680000I0J-140000D01*
G01*
X3810000Y-4960000D01*
G75*
G02*
X3670000Y-5100000I-140000J0D01*
G01*
X3330000Y-5100000D01*
G75*
G02*
X3190000Y-4960000I0J140000D01*
G01*
X3190000Y-4680000D01*
G75*
G02*
X3330000Y-4540000I140000J0D01*
G01*
G37*
G04 #@! TD.AperFunction*
G04 #@! TA.AperFunction,SMDPad,CuDef*
G36*
G01*
X3330000Y-5500000D02*
X3670000Y-5500000D01*
G75*
G02*
X3810000Y-5640000I0J-140000D01*
G01*
X3810000Y-5920000D01*
G75*
G02*
X3670000Y-6060000I-140000J0D01*
G01*
X3330000Y-6060000D01*
G75*
G02*
X3190000Y-5920000I0J140000D01*
G01*
X3190000Y-5640000D01*
G75*
G02*
X3330000Y-5500000I140000J0D01*
G01*
G37*
G04 #@! TD.AperFunction*
G04 #@! TA.AperFunction,SMDPad,CuDef*
G36*
G01*
X-670000Y-4520000D02*
X-330000Y-4520000D01*
G75*
G02*
X-190000Y-4660000I0J-140000D01*
G01*
X-190000Y-4940000D01*
G75*
G02*
X-330000Y-5080000I-140000J0D01*
G01*
X-670000Y-5080000D01*
G75*
G02*
X-810000Y-4940000I0J140000D01*
G01*
X-810000Y-4660000D01*
G75*
G02*
X-670000Y-4520000I140000J0D01*
G01*
G37*
G04 #@! TD.AperFunction*
G04 #@! TA.AperFunction,SMDPad,CuDef*
G36*
G01*
X-670000Y-5480000D02*
X-330000Y-5480000D01*
G75*
G02*
X-190000Y-5620000I0J-140000D01*
G01*
X-190000Y-5900000D01*
G75*
G02*
X-330000Y-6040000I-140000J0D01*
G01*
X-670000Y-6040000D01*
G75*
G02*
X-810000Y-5900000I0J140000D01*
G01*
X-810000Y-5620000D01*
G75*
G02*
X-670000Y-5480000I140000J0D01*
G01*
G37*
G04 #@! TD.AperFunction*
G04 #@! TA.AperFunction,SMDPad,CuDef*
G36*
G01*
X-5430000Y-1060000D02*
X-5770000Y-1060000D01*
G75*
G02*
X-5910000Y-920000I0J140000D01*
G01*
X-5910000Y-640000D01*
G75*
G02*
X-5770000Y-500000I140000J0D01*
G01*
X-5430000Y-500000D01*
G75*
G02*
X-5290000Y-640000I0J-140000D01*
G01*
X-5290000Y-920000D01*
G75*
G02*
X-5430000Y-1060000I-140000J0D01*
G01*
G37*
G04 #@! TD.AperFunction*
G04 #@! TA.AperFunction,SMDPad,CuDef*
G36*
G01*
X-5430000Y-100000D02*
X-5770000Y-100000D01*
G75*
G02*
X-5910000Y40000I0J140000D01*
G01*
X-5910000Y320000D01*
G75*
G02*
X-5770000Y460000I140000J0D01*
G01*
X-5430000Y460000D01*
G75*
G02*
X-5290000Y320000I0J-140000D01*
G01*
X-5290000Y40000D01*
G75*
G02*
X-5430000Y-100000I-140000J0D01*
G01*
G37*
G04 #@! TD.AperFunction*
G04 #@! TA.AperFunction,SMDPad,CuDef*
G36*
G01*
X-3300000Y7450000D02*
X-3300000Y7790000D01*
G75*
G02*
X-3160000Y7930000I140000J0D01*
G01*
X-2880000Y7930000D01*
G75*
G02*
X-2740000Y7790000I0J-140000D01*
G01*
X-2740000Y7450000D01*
G75*
G02*
X-2880000Y7310000I-140000J0D01*
G01*
X-3160000Y7310000D01*
G75*
G02*
X-3300000Y7450000I0J140000D01*
G01*
G37*
G04 #@! TD.AperFunction*
G04 #@! TA.AperFunction,SMDPad,CuDef*
G36*
G01*
X-4260000Y7450000D02*
X-4260000Y7790000D01*
G75*
G02*
X-4120000Y7930000I140000J0D01*
G01*
X-3840000Y7930000D01*
G75*
G02*
X-3700000Y7790000I0J-140000D01*
G01*
X-3700000Y7450000D01*
G75*
G02*
X-3840000Y7310000I-140000J0D01*
G01*
X-4120000Y7310000D01*
G75*
G02*
X-4260000Y7450000I0J140000D01*
G01*
G37*
G04 #@! TD.AperFunction*
G04 #@! TA.AperFunction,SMDPad,CuDef*
G36*
G01*
X5330000Y5050000D02*
X5670000Y5050000D01*
G75*
G02*
X5810000Y4910000I0J-140000D01*
G01*
X5810000Y4630000D01*
G75*
G02*
X5670000Y4490000I-140000J0D01*
G01*
X5330000Y4490000D01*
G75*
G02*
X5190000Y4630000I0J140000D01*
G01*
X5190000Y4910000D01*
G75*
G02*
X5330000Y5050000I140000J0D01*
G01*
G37*
G04 #@! TD.AperFunction*
G04 #@! TA.AperFunction,SMDPad,CuDef*
G36*
G01*
X5330000Y6010000D02*
X5670000Y6010000D01*
G75*
G02*
X5810000Y5870000I0J-140000D01*
G01*
X5810000Y5590000D01*
G75*
G02*
X5670000Y5450000I-140000J0D01*
G01*
X5330000Y5450000D01*
G75*
G02*
X5190000Y5590000I0J140000D01*
G01*
X5190000Y5870000D01*
G75*
G02*
X5330000Y6010000I140000J0D01*
G01*
G37*
G04 #@! TD.AperFunction*
D21*
X4000000Y11500000D03*
X0Y2000000D03*
X-2000000Y4000000D03*
X2000000Y4000000D03*
X2000000Y0D03*
X-2000000Y0D03*
D22*
X1500000Y-6500000D03*
X750000Y-500000D03*
X-1400000Y-3200000D03*
X-6344Y-3700000D03*
X-2837010Y-6550000D03*
D21*
X0Y4000000D03*
X-2000000Y2000000D03*
X2000000Y2000000D03*
X0Y0D03*
X-4000014Y11500000D03*
X11599996Y-7699996D03*
X6000000Y-12800000D03*
D22*
X-2150000Y7620000D03*
X7300002Y2500000D03*
X7200002Y3500000D03*
X6269996Y4770000D03*
X7380000Y-2080000D03*
X7549998Y-1050000D03*
D21*
X-8700000Y-3300000D03*
D22*
X2300000Y-11700000D03*
X-7627010Y-2364262D03*
X-6500000Y1793357D03*
X-8700000Y-6000000D03*
D21*
X-5500000Y-12750000D03*
X-12249999Y-7350001D03*
D22*
X5500014Y6825000D03*
X-5600000Y-3400000D03*
X-5600000Y-1500000D03*
X5320062Y1220000D03*
X7100000Y-5399998D03*
D21*
X-5577010Y-7200000D03*
D22*
X-4000000Y6600000D03*
X5700000Y-5300000D03*
X-4674617Y1649574D03*
X1450000Y9720000D03*
X-3520000Y9720000D03*
D21*
X10500000Y-8600000D03*
X6999994Y-12000006D03*
X-9400000Y-4400000D03*
D22*
X-11100000Y-4700000D03*
X-4700000Y-11300000D03*
D21*
X-7250000Y-11250000D03*
X-10722412Y-8877588D03*
D22*
X4786684Y-2345434D03*
X-4750000Y4800000D03*
X-1600000Y6900000D03*
X-8671999Y-10754447D03*
X10850000Y-13750000D03*
X11821626Y-12591647D03*
X-11188981Y-13221019D03*
X-12200002Y-12200000D03*
X-2400000Y-8600000D03*
X-8425061Y-8672990D03*
X-2400000Y-10200016D03*
X-6756636Y3056636D03*
X11806636Y-13756636D03*
X12600002Y-12549998D03*
X-11300000Y-14250000D03*
X-12154768Y-13429768D03*
X-9298999Y-9300000D03*
X-6400000Y4300000D03*
X1550010Y10685000D03*
X-1550000Y10700000D03*
D23*
X3800000Y-6500000D02*
X4100000Y-6200000D01*
X-659742Y-6500000D02*
X1500000Y-6500000D01*
D24*
X6680000Y-1050000D02*
X5580000Y-1050000D01*
X3250000Y12825000D02*
X3300000Y12775000D01*
X3250000Y12250000D02*
X4000000Y11500000D01*
X3250000Y12825000D02*
X3250000Y12250000D01*
D23*
X5266116Y-1050000D02*
X5580000Y-1050000D01*
X750000Y-1959023D02*
X1369996Y-2579019D01*
X750000Y-1437500D02*
X750000Y-1959023D01*
X1369996Y-2579019D02*
X3737097Y-2579019D01*
X3737097Y-2579019D02*
X5266116Y-1050000D01*
D25*
X1495999Y-4953201D02*
X1992798Y-5450000D01*
X1000000Y-4350000D02*
X1495999Y-4845999D01*
X1495999Y-4845999D02*
X1495999Y-4953201D01*
X800000Y-4350000D02*
X1000000Y-4350000D01*
X1992798Y-5450000D02*
X2200000Y-5450000D01*
D26*
X2200000Y-5450000D02*
X3170000Y-5450000D01*
X3170000Y-5450000D02*
X3500000Y-5780000D01*
D23*
X1500000Y-6500000D02*
X3800000Y-6500000D01*
X750000Y-1437500D02*
X750000Y-500000D01*
X-3437500Y-250000D02*
X-2550000Y-250000D01*
X-2250000Y5437500D02*
X-2250000Y4550000D01*
X3437500Y4250000D02*
X2650000Y4250000D01*
X-1100000Y-3200000D02*
X-1100000Y-6059742D01*
X-1100000Y-6059742D02*
X-659742Y-6500000D01*
X-1100000Y-3200000D02*
X-1400000Y-3200000D01*
D26*
X643656Y-4350000D02*
X-6344Y-3700000D01*
X800000Y-4350000D02*
X643656Y-4350000D01*
X3500000Y-5780000D02*
X3680000Y-5780000D01*
X3680000Y-5780000D02*
X4100000Y-6200000D01*
X-500000Y-6340258D02*
X-659742Y-6500000D01*
X-500000Y-5760000D02*
X-500000Y-6340258D01*
X-2300000Y-6180000D02*
X-3400000Y-6180000D01*
X-2837010Y-6550000D02*
X-2837010Y-6180000D01*
D23*
X-1637010Y-6600000D02*
X-1937010Y-6900000D01*
X-1637010Y-3200000D02*
X-1637010Y-6600000D01*
X-1400000Y-3200000D02*
X-1637010Y-3200000D01*
D26*
X-2837010Y-6887010D02*
X-2850000Y-6900000D01*
X-2837010Y-6550000D02*
X-2837010Y-6887010D01*
D23*
X-1937010Y-6900000D02*
X-2850000Y-6900000D01*
D26*
X4005000Y11495000D02*
X4000000Y11500000D01*
D23*
X3437500Y4250000D02*
X4250000Y4250000D01*
D26*
X5500000Y4770000D02*
X4770000Y4770000D01*
X4770000Y4770000D02*
X4250000Y4250000D01*
D24*
X-3250000Y12825000D02*
X-3250000Y12250014D01*
X-3250000Y12250014D02*
X-4000014Y11500000D01*
D26*
X8982000Y-6140000D02*
X10540000Y-6140000D01*
D24*
X11800000Y-7900000D02*
X11599996Y-7699996D01*
X11800000Y-8800000D02*
X11800000Y-7900000D01*
X12537850Y-9537850D02*
X11800000Y-8800000D01*
X12537850Y-9561656D02*
X12537850Y-9537850D01*
X7941656Y-14141656D02*
X6600000Y-12800000D01*
X6600000Y-12800000D02*
X6000000Y-12800000D01*
X7941656Y-14157850D02*
X7941656Y-14141656D01*
D23*
X-3437500Y-250000D02*
X-5170000Y-250000D01*
X-5170000Y-250000D02*
X-5600000Y180000D01*
D24*
X-5600000Y180000D02*
X-6480000Y180000D01*
X-6480000Y180000D02*
X-6900000Y600000D01*
D23*
X-2250000Y5437500D02*
X-2250000Y6850000D01*
X-2250000Y6850000D02*
X-3000000Y7600000D01*
D24*
X-3020000Y7620000D02*
X-2150000Y7620000D01*
X6510000Y2500000D02*
X7300002Y2500000D01*
X6480000Y3500000D02*
X7200002Y3500000D01*
X5500000Y4770000D02*
X6269996Y4770000D01*
X6560000Y-2080000D02*
X7380000Y-2080000D01*
X6680000Y-1050000D02*
X7549998Y-1050000D01*
X-7110000Y-3300000D02*
X-8700000Y-3300000D01*
X-6320000Y-4090000D02*
X-7110000Y-3300000D01*
X-6320000Y-4400000D02*
X-6320000Y-4090000D01*
X0Y-11700000D02*
X2300000Y-11700000D01*
X-6530000Y-2450000D02*
X-7541272Y-2450000D01*
X-7541272Y-2450000D02*
X-7627010Y-2364262D01*
X-6900000Y600000D02*
X-6900000Y1393357D01*
X-6900000Y1393357D02*
X-6500000Y1793357D01*
X-7500000Y-7200000D02*
X-8700000Y-6000000D01*
X-7280000Y-7200000D02*
X-7500000Y-7200000D01*
D27*
X-6800000Y-5800000D02*
X-6300000Y-5300000D01*
X-6300000Y-5300000D02*
X-6300000Y-4400000D01*
D24*
X-7941656Y-14157850D02*
X-7907850Y-14157850D01*
X-6500000Y-12750000D02*
X-5500000Y-12750000D01*
X-7907850Y-14157850D02*
X-6500000Y-12750000D01*
D26*
X-3680000Y-12400000D02*
X-5150000Y-12400000D01*
X-5150000Y-12400000D02*
X-5500000Y-12750000D01*
D24*
X-11900000Y-8923806D02*
X-11900000Y-7700000D01*
X-11900000Y-7700000D02*
X-12249999Y-7350001D01*
X-12537850Y-9561656D02*
X-11900000Y-8923806D01*
D23*
X4100000Y-4520258D02*
X3179742Y-3600000D01*
X4100000Y-6200000D02*
X4100000Y-4520258D01*
X3179742Y-3600000D02*
X2100000Y-3600000D01*
X-2850000Y-6900000D02*
X-3700000Y-6900000D01*
X-3700000Y-6900000D02*
X-4000000Y-6600000D01*
X-4000000Y-6600000D02*
X-4000000Y-3200000D01*
D24*
X5300000Y10200000D02*
X4000000Y11500000D01*
X5300000Y9610000D02*
X5300000Y10200000D01*
X5500000Y5730000D02*
X5500000Y6824986D01*
X5500000Y6824986D02*
X5500014Y6825000D01*
D26*
X5500000Y5730000D02*
X4980000Y5730000D01*
X4980000Y5730000D02*
X4150000Y4900000D01*
D23*
X4000000Y4750000D02*
X4150000Y4900000D01*
X3437500Y4750000D02*
X4000000Y4750000D01*
X-3437500Y-750000D02*
X-5570000Y-750000D01*
D24*
X-5600000Y-780000D02*
X-6730000Y-780000D01*
X-6730000Y-780000D02*
X-6900000Y-950000D01*
D23*
X-2750000Y-1437500D02*
X-2750000Y-2000000D01*
X-2750000Y-2000000D02*
X-3200000Y-2450000D01*
X-3200000Y-2450000D02*
X-5570000Y-2450000D01*
X-2750000Y5437500D02*
X-2750000Y6350000D01*
X-2750000Y6350000D02*
X-3900000Y7500000D01*
D24*
X-5570000Y-3370000D02*
X-5600000Y-3400000D01*
X-5570000Y-2450000D02*
X-5570000Y-3370000D01*
X-6150000Y-950000D02*
X-5600000Y-1500000D01*
X-6900000Y-950000D02*
X-6150000Y-950000D01*
X6280000Y1220000D02*
X5320062Y1220000D01*
D26*
X6600000Y-3500000D02*
X6600000Y-4899998D01*
X6600000Y-4899998D02*
X7100000Y-5399998D01*
D24*
X-6320000Y-7200000D02*
X-5577010Y-7200000D01*
X-3980000Y6620000D02*
X-4000000Y6600000D01*
X-3980000Y7620000D02*
X-3980000Y6620000D01*
D23*
X-250000Y-2600000D02*
X-250000Y-1437500D01*
X1512500Y-3637500D02*
X787500Y-3637500D01*
X787500Y-3637500D02*
X-250000Y-2600000D01*
X2200000Y-4325000D02*
X1512500Y-3637500D01*
X3005000Y-4325000D02*
X2200000Y-4325000D01*
X3500000Y-4820000D02*
X3005000Y-4325000D01*
X-500000Y-4800000D02*
X150000Y-5450000D01*
X150000Y-5450000D02*
X800000Y-5450000D01*
X-583346Y-4716654D02*
X-500000Y-4800000D01*
X-583346Y-3112771D02*
X-583346Y-4716654D01*
X-750000Y-2946117D02*
X-583346Y-3112771D01*
X-750000Y-1437500D02*
X-750000Y-2946117D01*
X-1750000Y-1875000D02*
X-1750000Y-1437500D01*
X-3262500Y-3387500D02*
X-1750000Y-1875000D01*
X-3262500Y-3900000D02*
X-3262500Y-3387500D01*
D26*
X-3262500Y-3900000D02*
X-3262500Y-5082500D01*
X-3262500Y-5082500D02*
X-3400000Y-5220000D01*
D23*
X-2437500Y-3900000D02*
X-2437500Y-3297500D01*
X-1250000Y-1437500D02*
X-1250000Y-2110000D01*
X-2437500Y-3297500D02*
X-1250000Y-2110000D01*
D26*
X-2437500Y-3900000D02*
X-2437500Y-5082500D01*
X-2437500Y-5082500D02*
X-2300000Y-5220000D01*
D24*
X5580000Y-90000D02*
X6670000Y-90000D01*
D23*
X3517992Y-2152008D02*
X5580000Y-90000D01*
X1546866Y-2152008D02*
X3517992Y-2152008D01*
X1250000Y-1855142D02*
X1546866Y-2152008D01*
X1250000Y-1437500D02*
X1250000Y-1855142D01*
D24*
X6680000Y-90000D02*
X7250000Y480000D01*
X7250000Y480000D02*
X7250000Y1250000D01*
D26*
X10200000Y-7150000D02*
X6850000Y-7150000D01*
X6850000Y-7150000D02*
X6600000Y-6900000D01*
X6600000Y-6200000D02*
X5700000Y-5300000D01*
X6600000Y-6900000D02*
X6600000Y-6200000D01*
D23*
X-4275043Y1250000D02*
X-4674617Y1649574D01*
X-3437500Y1250000D02*
X-4275043Y1250000D01*
D24*
X1455000Y9715000D02*
X1450000Y9720000D01*
X2450000Y9715000D02*
X1455000Y9715000D01*
X-2450000Y9715000D02*
X-3515000Y9715000D01*
X-3515000Y9715000D02*
X-3520000Y9720000D01*
X10500000Y-8655176D02*
X10500000Y-8600000D01*
X11972165Y-10127341D02*
X10500000Y-8655176D01*
X8507341Y-13592165D02*
X6999994Y-12084818D01*
X6999994Y-12084818D02*
X6999994Y-12000006D01*
X-7280000Y-4400000D02*
X-9400000Y-4400000D01*
D26*
X-1335000Y-12450000D02*
X-2750000Y-12450000D01*
X-11110000Y-4710000D02*
X-11100000Y-4700000D01*
X-11110000Y-6800000D02*
X-11110000Y-4710000D01*
D24*
X-3510000Y-11300000D02*
X-4700000Y-11300000D01*
X-2720000Y-12090000D02*
X-3510000Y-11300000D01*
X-2720000Y-12400000D02*
X-2720000Y-12090000D01*
X-7250000Y-12334824D02*
X-7250000Y-11250000D01*
X-8507341Y-13592165D02*
X-7250000Y-12334824D01*
X-11972165Y-10127341D02*
X-10722412Y-8877588D01*
X2450000Y9715000D02*
X3885000Y9715000D01*
X3885000Y9715000D02*
X4000000Y9600000D01*
D23*
X1193123Y-3006029D02*
X4126089Y-3006029D01*
X4126089Y-3006029D02*
X4786684Y-2345434D01*
X250000Y-2062906D02*
X1193123Y-3006029D01*
X250000Y-1437500D02*
X250000Y-2062906D01*
D26*
X5052118Y-2080000D02*
X4786684Y-2345434D01*
X5600000Y-2080000D02*
X5052118Y-2080000D01*
D23*
X-4700000Y4750000D02*
X-4750000Y4800000D01*
X-3437500Y4750000D02*
X-4700000Y4750000D01*
X-1750000Y6750000D02*
X-1600000Y6900000D01*
X-1750000Y5437500D02*
X-1750000Y6750000D01*
X3437500Y2750000D02*
X5250000Y2750000D01*
X5250000Y2750000D02*
X5500000Y2500000D01*
X9874355Y-10974355D02*
X8200000Y-9300000D01*
X9874355Y-11140801D02*
X9874355Y-10974355D01*
X10416530Y-11682976D02*
X9874355Y-11140801D01*
X-8780893Y-10754447D02*
X-8671999Y-10754447D01*
X-10062976Y-12036530D02*
X-8780893Y-10754447D01*
X9709423Y-12390083D02*
X10850000Y-13530660D01*
X10850000Y-13530660D02*
X10850000Y-13750000D01*
X10416530Y-11682976D02*
X11325201Y-12591647D01*
X11325201Y-12591647D02*
X11821626Y-12591647D01*
X-10062976Y-12036530D02*
X-10066530Y-12036530D01*
X-11188981Y-13158981D02*
X-11188981Y-13221019D01*
X-10066530Y-12036530D02*
X-11188981Y-13158981D01*
X-11640660Y-12200000D02*
X-12200002Y-12200000D01*
X-10770083Y-11329423D02*
X-11640660Y-12200000D01*
D26*
X7400000Y-8500000D02*
X8200000Y-9300000D01*
X-2300000Y-8500000D02*
X7400000Y-8500000D01*
X-8352071Y-8600000D02*
X-8425061Y-8672990D01*
X-2400000Y-8600000D02*
X-8352071Y-8600000D01*
X-8474338Y-8623713D02*
X-8425061Y-8672990D01*
D23*
X-1650016Y-10950000D02*
X-2400000Y-10200016D01*
X-1335000Y-10950000D02*
X-1650016Y-10950000D01*
D26*
X-10090000Y-5700000D02*
X-8425061Y-7364939D01*
X-8425061Y-7364939D02*
X-8425061Y-8672990D01*
D23*
X-3437500Y1750000D02*
X-3959026Y1750000D01*
X-3959026Y1750000D02*
X-5265662Y3056636D01*
X-5265662Y3056636D02*
X-6756636Y3056636D01*
X10062976Y-11962976D02*
X8100000Y-10000000D01*
X10062976Y-12036530D02*
X10062976Y-11962976D01*
X10062976Y-12036530D02*
X11783082Y-13756636D01*
X10770083Y-11329423D02*
X11455305Y-12014645D01*
X11455305Y-12014645D02*
X12064649Y-12014645D01*
X12064649Y-12014645D02*
X12600002Y-12549998D01*
X-9709423Y-12390083D02*
X-10391532Y-13072192D01*
X-10391532Y-13072192D02*
X-10391532Y-13341532D01*
X-10391532Y-13341532D02*
X-11300000Y-14250000D01*
X-12154768Y-13370804D02*
X-12154768Y-13429768D01*
X-10466940Y-11682976D02*
X-12154768Y-13370804D01*
X-10416530Y-11682976D02*
X-10466940Y-11682976D01*
D26*
X-3400000Y-9300000D02*
X-9200000Y-9300000D01*
X7400000Y-9300000D02*
X8100000Y-10000000D01*
X-3400000Y-9300000D02*
X7400000Y-9300000D01*
D23*
X-9200000Y-10466446D02*
X-9200000Y-9300000D01*
X-10416530Y-11682976D02*
X-9200000Y-10466446D01*
D26*
X-3400000Y-10100000D02*
X-3400000Y-9300000D01*
X-2050000Y-11450000D02*
X-3400000Y-10100000D01*
X-1335000Y-11450000D02*
X-2050000Y-11450000D01*
X-9300000Y-9298999D02*
X-9298999Y-9300000D01*
X-10090000Y-6810000D02*
X-9300000Y-7600000D01*
X-9300000Y-7600000D02*
X-9300000Y-9298999D01*
X-10090000Y-6800000D02*
X-10090000Y-6810000D01*
D23*
X-3437500Y2250000D02*
X-3855142Y2250000D01*
X-5905142Y4300000D02*
X-6400000Y4300000D01*
X-3855142Y2250000D02*
X-5905142Y4300000D01*
X-1250000Y5437500D02*
X-1250000Y5750000D01*
X250000Y13698602D02*
X250000Y13000000D01*
X121601Y13827001D02*
X250000Y13698602D01*
X-621601Y13827001D02*
X121601Y13827001D01*
X-750000Y6459026D02*
X-750000Y13698602D01*
X-1250000Y5959026D02*
X-750000Y6459026D01*
X-750000Y13698602D02*
X-621601Y13827001D01*
X-1250000Y5437500D02*
X-1250000Y5959026D01*
X621601Y11822999D02*
X750000Y11951398D01*
X-250000Y11951398D02*
X-121601Y11822999D01*
X-250000Y12825000D02*
X-250000Y11951398D01*
X750000Y11951398D02*
X750000Y12750000D01*
X-121601Y11822999D02*
X621601Y11822999D01*
X-100000Y11801398D02*
X-250000Y11951398D01*
X-100000Y6505142D02*
X-100000Y11801398D01*
X-750000Y5855142D02*
X-100000Y6505142D01*
X-750000Y5437500D02*
X-750000Y5855142D01*
D24*
X5300000Y8590000D02*
X4010000Y8590000D01*
D23*
X-9002316Y-13097190D02*
X-9702563Y-13797437D01*
D26*
X-9702563Y-13797437D02*
X-11171643Y-15266517D01*
D23*
X-11770761Y-11622994D02*
X-12676958Y-11622994D01*
X-11123637Y-10975870D02*
X-11770761Y-11622994D01*
D26*
X-13275000Y-13196248D02*
X-8110624Y-18360624D01*
X-12822994Y-11622994D02*
X-13275000Y-12075000D01*
X-13275000Y-12075000D02*
X-13275000Y-13196248D01*
D24*
X2450000Y12825000D02*
X2450000Y10690000D01*
X2450000Y10685000D02*
X1550010Y10685000D01*
X-2450000Y10685000D02*
X-1565000Y10685000D01*
X-1565000Y10685000D02*
X-1550000Y10700000D01*
X-2450000Y12825000D02*
X-2450000Y10690000D01*
D23*
X1250000Y13850000D02*
X3400000Y16000000D01*
X1250000Y12825000D02*
X1250000Y13850000D01*
X3400000Y16000000D02*
X6000000Y16000000D01*
D26*
X10100000Y-16350000D02*
X8100000Y-18350000D01*
D23*
X11477190Y-10622316D02*
X12454874Y-11600000D01*
X9355870Y-12743637D02*
X10100000Y-13487767D01*
D26*
X10177964Y-16350000D02*
X10100000Y-16350000D01*
X12454874Y-11600000D02*
X13150000Y-11600000D01*
X13150000Y-11600000D02*
X13450000Y-11900000D01*
X13450000Y-13077964D02*
X10177964Y-16350000D01*
X13450000Y-11900000D02*
X13450000Y-13077964D01*
X10200000Y-16250000D02*
X10100000Y-16350000D01*
X10100000Y-13487767D02*
X10200000Y-13587767D01*
X10200000Y-13587767D02*
X10200000Y-16250000D01*
D23*
X-1750000Y14020962D02*
X-3729038Y16000000D01*
X-1750000Y12825000D02*
X-1750000Y14020962D01*
X-3729038Y16000000D02*
X-6000000Y16000000D01*
X3437500Y3750000D02*
X5250000Y3750000D01*
X5250000Y3750000D02*
X5500000Y3500000D01*
D25*
X6147000Y14863000D02*
X6127000Y14863000D01*
X6127000Y14243750D01*
X6285750Y14085000D01*
X6312119Y14081977D01*
X6369780Y14086938D01*
X6370896Y14046976D01*
X6371661Y14034463D01*
X6372056Y14021897D01*
X6373341Y14005209D01*
X6583647Y11648776D01*
X6585394Y11634552D01*
X6586795Y11620258D01*
X6589183Y11603692D01*
X6955197Y9266377D01*
X6957882Y9252298D01*
X6960228Y9238131D01*
X6963708Y9221759D01*
X7483820Y6913842D01*
X7487426Y6899999D01*
X7490712Y6885990D01*
X7495269Y6869886D01*
X8167192Y4601511D01*
X8171716Y4587910D01*
X8175915Y4574177D01*
X8181530Y4558410D01*
X9002310Y2339553D01*
X9007725Y2326284D01*
X9012825Y2312858D01*
X9019473Y2297498D01*
X9985501Y137915D01*
X9991782Y125038D01*
X9997762Y111976D01*
X10005413Y97090D01*
X11112440Y-1993722D01*
X11119573Y-2006177D01*
X11126394Y-2018792D01*
X11135014Y-2033138D01*
X12378174Y-4045986D01*
X12386105Y-4057923D01*
X12393758Y-4070076D01*
X12403311Y-4083820D01*
X13777138Y-6009853D01*
X13785845Y-6021242D01*
X13794284Y-6032857D01*
X13804726Y-6045937D01*
X15303179Y-7876688D01*
X15312603Y-7887454D01*
X15321811Y-7898505D01*
X15333077Y-7910841D01*
X15333098Y-7910865D01*
X15333113Y-7910880D01*
X16934383Y-9622036D01*
X16941587Y-9630814D01*
X19662991Y-12352219D01*
X10732233Y-21282978D01*
X8858787Y-19409532D01*
X10074997Y-19409532D01*
X10287129Y-19621664D01*
X10474917Y-19743570D01*
X10682879Y-19826499D01*
X10903025Y-19867263D01*
X11126893Y-19864295D01*
X11345880Y-19817711D01*
X11560095Y-19716411D01*
X11594537Y-19503544D01*
X10787761Y-18696768D01*
X10074997Y-19409532D01*
X8858787Y-19409532D01*
X8600429Y-19151174D01*
X8621913Y-19133542D01*
X8883542Y-18871913D01*
X8979684Y-18754765D01*
X9051123Y-18621111D01*
X9069136Y-18561731D01*
X9440465Y-18190402D01*
X9437661Y-18401899D01*
X9478425Y-18622045D01*
X9561354Y-18830007D01*
X9683260Y-19017795D01*
X9895392Y-19229927D01*
X10608156Y-18517163D01*
X10967366Y-18517163D01*
X11774142Y-19323939D01*
X11987009Y-19289497D01*
X12088309Y-19075282D01*
X12134893Y-18856295D01*
X12137861Y-18632427D01*
X12097097Y-18412281D01*
X12014168Y-18204319D01*
X11892262Y-18016531D01*
X11680130Y-17804399D01*
X10967366Y-18517163D01*
X10608156Y-18517163D01*
X10594014Y-18503021D01*
X10773619Y-18323416D01*
X10787761Y-18337558D01*
X11500525Y-17624794D01*
X11288393Y-17412662D01*
X11100605Y-17290756D01*
X10892643Y-17207827D01*
X10672497Y-17167063D01*
X10461001Y-17169867D01*
X10513326Y-17117542D01*
X10644110Y-17047636D01*
X10771255Y-16943291D01*
X10797410Y-16911421D01*
X14011432Y-13697401D01*
X14043291Y-13671255D01*
X14073363Y-13634613D01*
X14147636Y-13544110D01*
X14225172Y-13399051D01*
X14233741Y-13370804D01*
X14255179Y-13300130D01*
X16184399Y-13300130D01*
X16396531Y-13512262D01*
X16584319Y-13634168D01*
X16792281Y-13717097D01*
X17012427Y-13757861D01*
X17236295Y-13754893D01*
X17455282Y-13708309D01*
X17669497Y-13607009D01*
X17703939Y-13394142D01*
X16897163Y-12587366D01*
X16184399Y-13300130D01*
X14255179Y-13300130D01*
X14272918Y-13241653D01*
X14285000Y-13118983D01*
X14285000Y-13118982D01*
X14289040Y-13077964D01*
X14285000Y-13036946D01*
X14285000Y-12292497D01*
X15547063Y-12292497D01*
X15587827Y-12512643D01*
X15670756Y-12720605D01*
X15792662Y-12908393D01*
X16004794Y-13120525D01*
X16717558Y-12407761D01*
X17076768Y-12407761D01*
X17883544Y-13214537D01*
X18096411Y-13180095D01*
X18197711Y-12965880D01*
X18244295Y-12746893D01*
X18247263Y-12523025D01*
X18206499Y-12302879D01*
X18123570Y-12094917D01*
X18001664Y-11907129D01*
X17789532Y-11694997D01*
X17076768Y-12407761D01*
X16717558Y-12407761D01*
X15910782Y-11600985D01*
X15697915Y-11635427D01*
X15596615Y-11849642D01*
X15550031Y-12068629D01*
X15547063Y-12292497D01*
X14285000Y-12292497D01*
X14285000Y-11941018D01*
X14289040Y-11899999D01*
X14272918Y-11736311D01*
X14261468Y-11698565D01*
X14225172Y-11578913D01*
X14147636Y-11433854D01*
X14137399Y-11421380D01*
X16090387Y-11421380D01*
X16897163Y-12228156D01*
X17609927Y-11515392D01*
X17397795Y-11303260D01*
X17210007Y-11181354D01*
X17002045Y-11098425D01*
X16781899Y-11057661D01*
X16558031Y-11060629D01*
X16339044Y-11107213D01*
X16124829Y-11208513D01*
X16090387Y-11421380D01*
X14137399Y-11421380D01*
X14100154Y-11375997D01*
X14155802Y-11292715D01*
X14228169Y-11118006D01*
X14255892Y-10978634D01*
X14457366Y-10975963D01*
X14676353Y-10929378D01*
X14890568Y-10828079D01*
X14925010Y-10615212D01*
X13941457Y-9631659D01*
X13927315Y-9645802D01*
X13797738Y-9516225D01*
X13793172Y-9507683D01*
X13753979Y-9459927D01*
X13761852Y-9452054D01*
X14121062Y-9452054D01*
X15104615Y-10435607D01*
X15317482Y-10401165D01*
X15418781Y-10186950D01*
X15465366Y-9967963D01*
X15468334Y-9744095D01*
X15427570Y-9523949D01*
X15344641Y-9315987D01*
X15222734Y-9128199D01*
X14833826Y-8739290D01*
X14121062Y-9452054D01*
X13761852Y-9452054D01*
X12778299Y-8468501D01*
X12771296Y-8469634D01*
X12688515Y-8385687D01*
X12591823Y-8306334D01*
X12559200Y-8288896D01*
X12957904Y-8288896D01*
X13941457Y-9272449D01*
X14654221Y-8559685D01*
X14265312Y-8170777D01*
X14077524Y-8048870D01*
X13869562Y-7965941D01*
X13649416Y-7925177D01*
X13425548Y-7928145D01*
X13206561Y-7974730D01*
X12992346Y-8076029D01*
X12957904Y-8288896D01*
X12559200Y-8288896D01*
X12481509Y-8247369D01*
X12361811Y-8211060D01*
X12237330Y-8198800D01*
X12112848Y-8211060D01*
X11993150Y-8247369D01*
X11882836Y-8306334D01*
X11786145Y-8385687D01*
X11778241Y-8397935D01*
X11778241Y-8611128D01*
X11566315Y-8399202D01*
X11543304Y-8283517D01*
X11461515Y-8086060D01*
X11342775Y-7908353D01*
X11191647Y-7757225D01*
X11049153Y-7662014D01*
X11088845Y-7587755D01*
X11133122Y-7441794D01*
X11148072Y-7290000D01*
X11148072Y-7010000D01*
X11133122Y-6858206D01*
X11093172Y-6726509D01*
X11098377Y-6716878D01*
X11135235Y-6597348D01*
X11145000Y-6475750D01*
X10986250Y-6317000D01*
X10716108Y-6317000D01*
X10667755Y-6291155D01*
X10521794Y-6246878D01*
X10370000Y-6231928D01*
X10030000Y-6231928D01*
X9878206Y-6246878D01*
X9786076Y-6274826D01*
X9778250Y-6267000D01*
X9318538Y-6267000D01*
X9317819Y-6266782D01*
X9167000Y-6251928D01*
X8797000Y-6251928D01*
X8646181Y-6266782D01*
X8645462Y-6267000D01*
X8185750Y-6267000D01*
X8137750Y-6315000D01*
X8072621Y-6315000D01*
X8039502Y-6205820D01*
X7980537Y-6095506D01*
X7901185Y-5998815D01*
X7851593Y-5958116D01*
X7920993Y-5854250D01*
X8027000Y-5854250D01*
X8185750Y-6013000D01*
X8855000Y-6013000D01*
X8855000Y-5393750D01*
X9109000Y-5393750D01*
X9109000Y-6013000D01*
X9363750Y-6013000D01*
X9413750Y-6063000D01*
X10073000Y-6063000D01*
X10073000Y-5433750D01*
X10327000Y-5433750D01*
X10327000Y-6063000D01*
X10986250Y-6063000D01*
X11145000Y-5904250D01*
X11135235Y-5782652D01*
X11098377Y-5663122D01*
X11038908Y-5553079D01*
X10959113Y-5456753D01*
X10862059Y-5377844D01*
X10751476Y-5319386D01*
X10631613Y-5283625D01*
X10507077Y-5271935D01*
X10485750Y-5275000D01*
X10327000Y-5433750D01*
X10073000Y-5433750D01*
X9914250Y-5275000D01*
X9892923Y-5271935D01*
X9768387Y-5283625D01*
X9648524Y-5319386D01*
X9634186Y-5326966D01*
X9538879Y-5277527D01*
X9418742Y-5242699D01*
X9294119Y-5231977D01*
X9267750Y-5235000D01*
X9109000Y-5393750D01*
X8855000Y-5393750D01*
X8696250Y-5235000D01*
X8669881Y-5231977D01*
X8545258Y-5242699D01*
X8425121Y-5277527D01*
X8314086Y-5335124D01*
X8216422Y-5413276D01*
X8135882Y-5508980D01*
X8075559Y-5618558D01*
X8037774Y-5737798D01*
X8027000Y-5854250D01*
X7920993Y-5854250D01*
X7928586Y-5842887D01*
X7999068Y-5672727D01*
X8035000Y-5492087D01*
X8035000Y-5307909D01*
X7999068Y-5127269D01*
X7928586Y-4957109D01*
X7826262Y-4803970D01*
X7696028Y-4673736D01*
X7552687Y-4577959D01*
X7574482Y-4575812D01*
X7694180Y-4539502D01*
X7804494Y-4480537D01*
X7901185Y-4401185D01*
X7980537Y-4304494D01*
X8039502Y-4194180D01*
X8075812Y-4074482D01*
X8088072Y-3950000D01*
X8088072Y-3050000D01*
X8075812Y-2925518D01*
X8039502Y-2805820D01*
X7980537Y-2695506D01*
X7901185Y-2598815D01*
X7804494Y-2519463D01*
X7694180Y-2460498D01*
X7574482Y-2424188D01*
X7475497Y-2414439D01*
X7478065Y-2387077D01*
X7475000Y-2365750D01*
X7316250Y-2207000D01*
X6687000Y-2207000D01*
X6687000Y-2227000D01*
X6518072Y-2227000D01*
X6518072Y-1910000D01*
X6511902Y-1847348D01*
X6553000Y-1806250D01*
X6553000Y-1293750D01*
X6687000Y-1293750D01*
X6687000Y-1953000D01*
X6953750Y-1953000D01*
X6965750Y-1965000D01*
X6987077Y-1968065D01*
X7111613Y-1956375D01*
X7122925Y-1953000D01*
X7316250Y-1953000D01*
X7475000Y-1794250D01*
X7478065Y-1772923D01*
X7474971Y-1739961D01*
X7518908Y-1686921D01*
X7578377Y-1576878D01*
X7615235Y-1457348D01*
X7625000Y-1335750D01*
X7466250Y-1177000D01*
X7071886Y-1177000D01*
X6967348Y-1144765D01*
X6845750Y-1135000D01*
X6687000Y-1293750D01*
X6553000Y-1293750D01*
X6553000Y-1177000D01*
X6316250Y-1177000D01*
X6274250Y-1135000D01*
X6152652Y-1144765D01*
X6048114Y-1177000D01*
X5991092Y-1177000D01*
X5891794Y-1146878D01*
X5740000Y-1131928D01*
X5648229Y-1131928D01*
X5755157Y-1025000D01*
X6634068Y-1025000D01*
X6680000Y-1029524D01*
X6863291Y-1011471D01*
X6886273Y-1004500D01*
X7001794Y-993122D01*
X7147755Y-948845D01*
X7196108Y-923000D01*
X7466250Y-923000D01*
X7625000Y-764250D01*
X7615235Y-642652D01*
X7578377Y-523122D01*
X7575146Y-517143D01*
X7878655Y-213633D01*
X7914344Y-184344D01*
X8031186Y-41972D01*
X8118007Y120460D01*
X8142679Y201794D01*
X8171472Y296708D01*
X8189524Y480000D01*
X8185000Y525935D01*
X8185000Y1295932D01*
X8183072Y1315507D01*
X8183072Y1392500D01*
X8167977Y1545757D01*
X8123274Y1693125D01*
X8050679Y1828940D01*
X7952983Y1947983D01*
X7833940Y2045679D01*
X7698125Y2118274D01*
X7550757Y2162977D01*
X7417014Y2176150D01*
X7418023Y2187881D01*
X7415000Y2214250D01*
X7256250Y2373000D01*
X6637000Y2373000D01*
X6637000Y2353000D01*
X6398072Y2353000D01*
X6398072Y2685000D01*
X6383218Y2835819D01*
X6383000Y2836538D01*
X6383000Y3045942D01*
X6423122Y3178206D01*
X6438072Y3330000D01*
X6438072Y3373000D01*
X6607000Y3373000D01*
X6607000Y2713750D01*
X6637000Y2683750D01*
X6637000Y2627000D01*
X6693750Y2627000D01*
X6765750Y2555000D01*
X6887348Y2564765D01*
X7006878Y2601623D01*
X7053836Y2627000D01*
X7256250Y2627000D01*
X7415000Y2785750D01*
X7418023Y2812119D01*
X7407301Y2936742D01*
X7377632Y3039083D01*
X7386375Y3068387D01*
X7398065Y3192923D01*
X7395000Y3214250D01*
X7236250Y3373000D01*
X7092188Y3373000D01*
X7031442Y3406441D01*
X6912202Y3444226D01*
X6795750Y3455000D01*
X6713750Y3373000D01*
X6607000Y3373000D01*
X6438072Y3373000D01*
X6438072Y3670000D01*
X6423122Y3821794D01*
X6378845Y3967755D01*
X6353000Y4016108D01*
X6353000Y4159155D01*
X6398377Y4243122D01*
X6411675Y4286250D01*
X6607000Y4286250D01*
X6607000Y3627000D01*
X7236250Y3627000D01*
X7395000Y3785750D01*
X7398065Y3807077D01*
X7386375Y3931613D01*
X7350614Y4051476D01*
X7292156Y4162059D01*
X7213247Y4259113D01*
X7116921Y4338908D01*
X7006878Y4398377D01*
X6887348Y4435235D01*
X6765750Y4445000D01*
X6607000Y4286250D01*
X6411675Y4286250D01*
X6435235Y4362652D01*
X6445000Y4484250D01*
X6286250Y4643000D01*
X5627000Y4643000D01*
X5627000Y4623000D01*
X5373000Y4623000D01*
X5373000Y4643000D01*
X5353000Y4643000D01*
X5353000Y4804954D01*
X5500000Y4790476D01*
X5683291Y4808529D01*
X5706273Y4815500D01*
X5821794Y4826878D01*
X5967755Y4871155D01*
X6016108Y4897000D01*
X6286250Y4897000D01*
X6445000Y5055750D01*
X6435235Y5177348D01*
X6398377Y5296878D01*
X6393172Y5306509D01*
X6433122Y5438206D01*
X6448072Y5590000D01*
X6448072Y5870000D01*
X6435000Y6002726D01*
X6435000Y6732841D01*
X6435014Y6732911D01*
X6435014Y6779066D01*
X6439538Y6825000D01*
X6435014Y6870935D01*
X6435014Y6917089D01*
X6426011Y6962352D01*
X6421486Y7008292D01*
X6408085Y7052466D01*
X6399082Y7097729D01*
X6381418Y7140374D01*
X6368020Y7184540D01*
X6346266Y7225238D01*
X6328600Y7267889D01*
X6302952Y7306274D01*
X6281199Y7346971D01*
X6251925Y7382641D01*
X6226276Y7421028D01*
X6193629Y7453675D01*
X6164357Y7489343D01*
X6128689Y7518615D01*
X6096042Y7551262D01*
X6057655Y7576911D01*
X6021985Y7606185D01*
X5981288Y7627938D01*
X5942903Y7653586D01*
X5900252Y7671252D01*
X5859554Y7693006D01*
X5815388Y7706404D01*
X5772743Y7724068D01*
X5744371Y7729712D01*
X5780842Y7740775D01*
X5914496Y7812214D01*
X6031644Y7908356D01*
X6127786Y8025504D01*
X6199225Y8159158D01*
X6243218Y8304181D01*
X6258072Y8455000D01*
X6258072Y8725000D01*
X6243218Y8875819D01*
X6199225Y9020842D01*
X6184416Y9048549D01*
X6206441Y9088558D01*
X6244226Y9207798D01*
X6255000Y9324250D01*
X6096250Y9483000D01*
X5636538Y9483000D01*
X5635819Y9483218D01*
X5547878Y9491879D01*
X5483292Y9511471D01*
X5345932Y9525000D01*
X5153000Y9525000D01*
X5153000Y9737000D01*
X5173000Y9737000D01*
X5173000Y10356250D01*
X5427000Y10356250D01*
X5427000Y9737000D01*
X6096250Y9737000D01*
X6255000Y9895750D01*
X6244226Y10012202D01*
X6206441Y10131442D01*
X6146118Y10241020D01*
X6065578Y10336724D01*
X5967914Y10414876D01*
X5856879Y10472473D01*
X5736742Y10507301D01*
X5612119Y10518023D01*
X5585750Y10515000D01*
X5427000Y10356250D01*
X5173000Y10356250D01*
X5014250Y10515000D01*
X4987881Y10518023D01*
X4863258Y10507301D01*
X4743121Y10472473D01*
X4632086Y10414876D01*
X4600942Y10389954D01*
X4473125Y10458274D01*
X4441466Y10467878D01*
X4406972Y10496186D01*
X4244540Y10583007D01*
X4068292Y10636471D01*
X3930932Y10650000D01*
X3885000Y10654524D01*
X3839068Y10650000D01*
X3408072Y10650000D01*
X3408072Y10832500D01*
X3392977Y10985757D01*
X3385000Y11012054D01*
X3385000Y11615750D01*
X3535750Y11465000D01*
X3550000Y11461928D01*
X3674482Y11474188D01*
X3794180Y11510498D01*
X3904494Y11569463D01*
X4001185Y11648815D01*
X4080537Y11745506D01*
X4139502Y11855820D01*
X4175812Y11975518D01*
X4188072Y12100000D01*
X4187247Y12217896D01*
X4193000Y12222046D01*
X4193000Y13613000D01*
X4447000Y13613000D01*
X4447000Y12222046D01*
X4621874Y12095881D01*
X4844976Y12175724D01*
X5032764Y12297631D01*
X5193161Y12453831D01*
X5320003Y12638322D01*
X5408415Y12844013D01*
X5455000Y13063000D01*
X5455000Y13613000D01*
X4447000Y13613000D01*
X4193000Y13613000D01*
X4181867Y13613000D01*
X4175812Y13674482D01*
X4173000Y13683752D01*
X4173000Y13867000D01*
X4193000Y13867000D01*
X4193000Y13887000D01*
X4447000Y13887000D01*
X4447000Y13867000D01*
X5455000Y13867000D01*
X5455000Y14124083D01*
X5563258Y14092699D01*
X5687881Y14081977D01*
X5714250Y14085000D01*
X5873000Y14243750D01*
X5873000Y14863000D01*
X5853000Y14863000D01*
X5853000Y15101928D01*
X6147000Y15101928D01*
X6147000Y14863000D01*
G04 #@! TA.AperFunction,Conductor*
D28*
G36*
X6147000Y14863000D02*
G01*
X6127000Y14863000D01*
X6127000Y14243750D01*
X6285750Y14085000D01*
X6312119Y14081977D01*
X6369780Y14086938D01*
X6370896Y14046976D01*
X6371661Y14034463D01*
X6372056Y14021897D01*
X6373341Y14005209D01*
X6583647Y11648776D01*
X6585394Y11634552D01*
X6586795Y11620258D01*
X6589183Y11603692D01*
X6955197Y9266377D01*
X6957882Y9252298D01*
X6960228Y9238131D01*
X6963708Y9221759D01*
X7483820Y6913842D01*
X7487426Y6899999D01*
X7490712Y6885990D01*
X7495269Y6869886D01*
X8167192Y4601511D01*
X8171716Y4587910D01*
X8175915Y4574177D01*
X8181530Y4558410D01*
X9002310Y2339553D01*
X9007725Y2326284D01*
X9012825Y2312858D01*
X9019473Y2297498D01*
X9985501Y137915D01*
X9991782Y125038D01*
X9997762Y111976D01*
X10005413Y97090D01*
X11112440Y-1993722D01*
X11119573Y-2006177D01*
X11126394Y-2018792D01*
X11135014Y-2033138D01*
X12378174Y-4045986D01*
X12386105Y-4057923D01*
X12393758Y-4070076D01*
X12403311Y-4083820D01*
X13777138Y-6009853D01*
X13785845Y-6021242D01*
X13794284Y-6032857D01*
X13804726Y-6045937D01*
X15303179Y-7876688D01*
X15312603Y-7887454D01*
X15321811Y-7898505D01*
X15333077Y-7910841D01*
X15333098Y-7910865D01*
X15333113Y-7910880D01*
X16934383Y-9622036D01*
X16941587Y-9630814D01*
X19662991Y-12352219D01*
X10732233Y-21282978D01*
X8858787Y-19409532D01*
X10074997Y-19409532D01*
X10287129Y-19621664D01*
X10474917Y-19743570D01*
X10682879Y-19826499D01*
X10903025Y-19867263D01*
X11126893Y-19864295D01*
X11345880Y-19817711D01*
X11560095Y-19716411D01*
X11594537Y-19503544D01*
X10787761Y-18696768D01*
X10074997Y-19409532D01*
X8858787Y-19409532D01*
X8600429Y-19151174D01*
X8621913Y-19133542D01*
X8883542Y-18871913D01*
X8979684Y-18754765D01*
X9051123Y-18621111D01*
X9069136Y-18561731D01*
X9440465Y-18190402D01*
X9437661Y-18401899D01*
X9478425Y-18622045D01*
X9561354Y-18830007D01*
X9683260Y-19017795D01*
X9895392Y-19229927D01*
X10608156Y-18517163D01*
X10967366Y-18517163D01*
X11774142Y-19323939D01*
X11987009Y-19289497D01*
X12088309Y-19075282D01*
X12134893Y-18856295D01*
X12137861Y-18632427D01*
X12097097Y-18412281D01*
X12014168Y-18204319D01*
X11892262Y-18016531D01*
X11680130Y-17804399D01*
X10967366Y-18517163D01*
X10608156Y-18517163D01*
X10594014Y-18503021D01*
X10773619Y-18323416D01*
X10787761Y-18337558D01*
X11500525Y-17624794D01*
X11288393Y-17412662D01*
X11100605Y-17290756D01*
X10892643Y-17207827D01*
X10672497Y-17167063D01*
X10461001Y-17169867D01*
X10513326Y-17117542D01*
X10644110Y-17047636D01*
X10771255Y-16943291D01*
X10797410Y-16911421D01*
X14011432Y-13697401D01*
X14043291Y-13671255D01*
X14073363Y-13634613D01*
X14147636Y-13544110D01*
X14225172Y-13399051D01*
X14233741Y-13370804D01*
X14255179Y-13300130D01*
X16184399Y-13300130D01*
X16396531Y-13512262D01*
X16584319Y-13634168D01*
X16792281Y-13717097D01*
X17012427Y-13757861D01*
X17236295Y-13754893D01*
X17455282Y-13708309D01*
X17669497Y-13607009D01*
X17703939Y-13394142D01*
X16897163Y-12587366D01*
X16184399Y-13300130D01*
X14255179Y-13300130D01*
X14272918Y-13241653D01*
X14285000Y-13118983D01*
X14285000Y-13118982D01*
X14289040Y-13077964D01*
X14285000Y-13036946D01*
X14285000Y-12292497D01*
X15547063Y-12292497D01*
X15587827Y-12512643D01*
X15670756Y-12720605D01*
X15792662Y-12908393D01*
X16004794Y-13120525D01*
X16717558Y-12407761D01*
X17076768Y-12407761D01*
X17883544Y-13214537D01*
X18096411Y-13180095D01*
X18197711Y-12965880D01*
X18244295Y-12746893D01*
X18247263Y-12523025D01*
X18206499Y-12302879D01*
X18123570Y-12094917D01*
X18001664Y-11907129D01*
X17789532Y-11694997D01*
X17076768Y-12407761D01*
X16717558Y-12407761D01*
X15910782Y-11600985D01*
X15697915Y-11635427D01*
X15596615Y-11849642D01*
X15550031Y-12068629D01*
X15547063Y-12292497D01*
X14285000Y-12292497D01*
X14285000Y-11941018D01*
X14289040Y-11899999D01*
X14272918Y-11736311D01*
X14261468Y-11698565D01*
X14225172Y-11578913D01*
X14147636Y-11433854D01*
X14137399Y-11421380D01*
X16090387Y-11421380D01*
X16897163Y-12228156D01*
X17609927Y-11515392D01*
X17397795Y-11303260D01*
X17210007Y-11181354D01*
X17002045Y-11098425D01*
X16781899Y-11057661D01*
X16558031Y-11060629D01*
X16339044Y-11107213D01*
X16124829Y-11208513D01*
X16090387Y-11421380D01*
X14137399Y-11421380D01*
X14100154Y-11375997D01*
X14155802Y-11292715D01*
X14228169Y-11118006D01*
X14255892Y-10978634D01*
X14457366Y-10975963D01*
X14676353Y-10929378D01*
X14890568Y-10828079D01*
X14925010Y-10615212D01*
X13941457Y-9631659D01*
X13927315Y-9645802D01*
X13797738Y-9516225D01*
X13793172Y-9507683D01*
X13753979Y-9459927D01*
X13761852Y-9452054D01*
X14121062Y-9452054D01*
X15104615Y-10435607D01*
X15317482Y-10401165D01*
X15418781Y-10186950D01*
X15465366Y-9967963D01*
X15468334Y-9744095D01*
X15427570Y-9523949D01*
X15344641Y-9315987D01*
X15222734Y-9128199D01*
X14833826Y-8739290D01*
X14121062Y-9452054D01*
X13761852Y-9452054D01*
X12778299Y-8468501D01*
X12771296Y-8469634D01*
X12688515Y-8385687D01*
X12591823Y-8306334D01*
X12559200Y-8288896D01*
X12957904Y-8288896D01*
X13941457Y-9272449D01*
X14654221Y-8559685D01*
X14265312Y-8170777D01*
X14077524Y-8048870D01*
X13869562Y-7965941D01*
X13649416Y-7925177D01*
X13425548Y-7928145D01*
X13206561Y-7974730D01*
X12992346Y-8076029D01*
X12957904Y-8288896D01*
X12559200Y-8288896D01*
X12481509Y-8247369D01*
X12361811Y-8211060D01*
X12237330Y-8198800D01*
X12112848Y-8211060D01*
X11993150Y-8247369D01*
X11882836Y-8306334D01*
X11786145Y-8385687D01*
X11778241Y-8397935D01*
X11778241Y-8611128D01*
X11566315Y-8399202D01*
X11543304Y-8283517D01*
X11461515Y-8086060D01*
X11342775Y-7908353D01*
X11191647Y-7757225D01*
X11049153Y-7662014D01*
X11088845Y-7587755D01*
X11133122Y-7441794D01*
X11148072Y-7290000D01*
X11148072Y-7010000D01*
X11133122Y-6858206D01*
X11093172Y-6726509D01*
X11098377Y-6716878D01*
X11135235Y-6597348D01*
X11145000Y-6475750D01*
X10986250Y-6317000D01*
X10716108Y-6317000D01*
X10667755Y-6291155D01*
X10521794Y-6246878D01*
X10370000Y-6231928D01*
X10030000Y-6231928D01*
X9878206Y-6246878D01*
X9786076Y-6274826D01*
X9778250Y-6267000D01*
X9318538Y-6267000D01*
X9317819Y-6266782D01*
X9167000Y-6251928D01*
X8797000Y-6251928D01*
X8646181Y-6266782D01*
X8645462Y-6267000D01*
X8185750Y-6267000D01*
X8137750Y-6315000D01*
X8072621Y-6315000D01*
X8039502Y-6205820D01*
X7980537Y-6095506D01*
X7901185Y-5998815D01*
X7851593Y-5958116D01*
X7920993Y-5854250D01*
X8027000Y-5854250D01*
X8185750Y-6013000D01*
X8855000Y-6013000D01*
X8855000Y-5393750D01*
X9109000Y-5393750D01*
X9109000Y-6013000D01*
X9363750Y-6013000D01*
X9413750Y-6063000D01*
X10073000Y-6063000D01*
X10073000Y-5433750D01*
X10327000Y-5433750D01*
X10327000Y-6063000D01*
X10986250Y-6063000D01*
X11145000Y-5904250D01*
X11135235Y-5782652D01*
X11098377Y-5663122D01*
X11038908Y-5553079D01*
X10959113Y-5456753D01*
X10862059Y-5377844D01*
X10751476Y-5319386D01*
X10631613Y-5283625D01*
X10507077Y-5271935D01*
X10485750Y-5275000D01*
X10327000Y-5433750D01*
X10073000Y-5433750D01*
X9914250Y-5275000D01*
X9892923Y-5271935D01*
X9768387Y-5283625D01*
X9648524Y-5319386D01*
X9634186Y-5326966D01*
X9538879Y-5277527D01*
X9418742Y-5242699D01*
X9294119Y-5231977D01*
X9267750Y-5235000D01*
X9109000Y-5393750D01*
X8855000Y-5393750D01*
X8696250Y-5235000D01*
X8669881Y-5231977D01*
X8545258Y-5242699D01*
X8425121Y-5277527D01*
X8314086Y-5335124D01*
X8216422Y-5413276D01*
X8135882Y-5508980D01*
X8075559Y-5618558D01*
X8037774Y-5737798D01*
X8027000Y-5854250D01*
X7920993Y-5854250D01*
X7928586Y-5842887D01*
X7999068Y-5672727D01*
X8035000Y-5492087D01*
X8035000Y-5307909D01*
X7999068Y-5127269D01*
X7928586Y-4957109D01*
X7826262Y-4803970D01*
X7696028Y-4673736D01*
X7552687Y-4577959D01*
X7574482Y-4575812D01*
X7694180Y-4539502D01*
X7804494Y-4480537D01*
X7901185Y-4401185D01*
X7980537Y-4304494D01*
X8039502Y-4194180D01*
X8075812Y-4074482D01*
X8088072Y-3950000D01*
X8088072Y-3050000D01*
X8075812Y-2925518D01*
X8039502Y-2805820D01*
X7980537Y-2695506D01*
X7901185Y-2598815D01*
X7804494Y-2519463D01*
X7694180Y-2460498D01*
X7574482Y-2424188D01*
X7475497Y-2414439D01*
X7478065Y-2387077D01*
X7475000Y-2365750D01*
X7316250Y-2207000D01*
X6687000Y-2207000D01*
X6687000Y-2227000D01*
X6518072Y-2227000D01*
X6518072Y-1910000D01*
X6511902Y-1847348D01*
X6553000Y-1806250D01*
X6553000Y-1293750D01*
X6687000Y-1293750D01*
X6687000Y-1953000D01*
X6953750Y-1953000D01*
X6965750Y-1965000D01*
X6987077Y-1968065D01*
X7111613Y-1956375D01*
X7122925Y-1953000D01*
X7316250Y-1953000D01*
X7475000Y-1794250D01*
X7478065Y-1772923D01*
X7474971Y-1739961D01*
X7518908Y-1686921D01*
X7578377Y-1576878D01*
X7615235Y-1457348D01*
X7625000Y-1335750D01*
X7466250Y-1177000D01*
X7071886Y-1177000D01*
X6967348Y-1144765D01*
X6845750Y-1135000D01*
X6687000Y-1293750D01*
X6553000Y-1293750D01*
X6553000Y-1177000D01*
X6316250Y-1177000D01*
X6274250Y-1135000D01*
X6152652Y-1144765D01*
X6048114Y-1177000D01*
X5991092Y-1177000D01*
X5891794Y-1146878D01*
X5740000Y-1131928D01*
X5648229Y-1131928D01*
X5755157Y-1025000D01*
X6634068Y-1025000D01*
X6680000Y-1029524D01*
X6863291Y-1011471D01*
X6886273Y-1004500D01*
X7001794Y-993122D01*
X7147755Y-948845D01*
X7196108Y-923000D01*
X7466250Y-923000D01*
X7625000Y-764250D01*
X7615235Y-642652D01*
X7578377Y-523122D01*
X7575146Y-517143D01*
X7878655Y-213633D01*
X7914344Y-184344D01*
X8031186Y-41972D01*
X8118007Y120460D01*
X8142679Y201794D01*
X8171472Y296708D01*
X8189524Y480000D01*
X8185000Y525935D01*
X8185000Y1295932D01*
X8183072Y1315507D01*
X8183072Y1392500D01*
X8167977Y1545757D01*
X8123274Y1693125D01*
X8050679Y1828940D01*
X7952983Y1947983D01*
X7833940Y2045679D01*
X7698125Y2118274D01*
X7550757Y2162977D01*
X7417014Y2176150D01*
X7418023Y2187881D01*
X7415000Y2214250D01*
X7256250Y2373000D01*
X6637000Y2373000D01*
X6637000Y2353000D01*
X6398072Y2353000D01*
X6398072Y2685000D01*
X6383218Y2835819D01*
X6383000Y2836538D01*
X6383000Y3045942D01*
X6423122Y3178206D01*
X6438072Y3330000D01*
X6438072Y3373000D01*
X6607000Y3373000D01*
X6607000Y2713750D01*
X6637000Y2683750D01*
X6637000Y2627000D01*
X6693750Y2627000D01*
X6765750Y2555000D01*
X6887348Y2564765D01*
X7006878Y2601623D01*
X7053836Y2627000D01*
X7256250Y2627000D01*
X7415000Y2785750D01*
X7418023Y2812119D01*
X7407301Y2936742D01*
X7377632Y3039083D01*
X7386375Y3068387D01*
X7398065Y3192923D01*
X7395000Y3214250D01*
X7236250Y3373000D01*
X7092188Y3373000D01*
X7031442Y3406441D01*
X6912202Y3444226D01*
X6795750Y3455000D01*
X6713750Y3373000D01*
X6607000Y3373000D01*
X6438072Y3373000D01*
X6438072Y3670000D01*
X6423122Y3821794D01*
X6378845Y3967755D01*
X6353000Y4016108D01*
X6353000Y4159155D01*
X6398377Y4243122D01*
X6411675Y4286250D01*
X6607000Y4286250D01*
X6607000Y3627000D01*
X7236250Y3627000D01*
X7395000Y3785750D01*
X7398065Y3807077D01*
X7386375Y3931613D01*
X7350614Y4051476D01*
X7292156Y4162059D01*
X7213247Y4259113D01*
X7116921Y4338908D01*
X7006878Y4398377D01*
X6887348Y4435235D01*
X6765750Y4445000D01*
X6607000Y4286250D01*
X6411675Y4286250D01*
X6435235Y4362652D01*
X6445000Y4484250D01*
X6286250Y4643000D01*
X5627000Y4643000D01*
X5627000Y4623000D01*
X5373000Y4623000D01*
X5373000Y4643000D01*
X5353000Y4643000D01*
X5353000Y4804954D01*
X5500000Y4790476D01*
X5683291Y4808529D01*
X5706273Y4815500D01*
X5821794Y4826878D01*
X5967755Y4871155D01*
X6016108Y4897000D01*
X6286250Y4897000D01*
X6445000Y5055750D01*
X6435235Y5177348D01*
X6398377Y5296878D01*
X6393172Y5306509D01*
X6433122Y5438206D01*
X6448072Y5590000D01*
X6448072Y5870000D01*
X6435000Y6002726D01*
X6435000Y6732841D01*
X6435014Y6732911D01*
X6435014Y6779066D01*
X6439538Y6825000D01*
X6435014Y6870935D01*
X6435014Y6917089D01*
X6426011Y6962352D01*
X6421486Y7008292D01*
X6408085Y7052466D01*
X6399082Y7097729D01*
X6381418Y7140374D01*
X6368020Y7184540D01*
X6346266Y7225238D01*
X6328600Y7267889D01*
X6302952Y7306274D01*
X6281199Y7346971D01*
X6251925Y7382641D01*
X6226276Y7421028D01*
X6193629Y7453675D01*
X6164357Y7489343D01*
X6128689Y7518615D01*
X6096042Y7551262D01*
X6057655Y7576911D01*
X6021985Y7606185D01*
X5981288Y7627938D01*
X5942903Y7653586D01*
X5900252Y7671252D01*
X5859554Y7693006D01*
X5815388Y7706404D01*
X5772743Y7724068D01*
X5744371Y7729712D01*
X5780842Y7740775D01*
X5914496Y7812214D01*
X6031644Y7908356D01*
X6127786Y8025504D01*
X6199225Y8159158D01*
X6243218Y8304181D01*
X6258072Y8455000D01*
X6258072Y8725000D01*
X6243218Y8875819D01*
X6199225Y9020842D01*
X6184416Y9048549D01*
X6206441Y9088558D01*
X6244226Y9207798D01*
X6255000Y9324250D01*
X6096250Y9483000D01*
X5636538Y9483000D01*
X5635819Y9483218D01*
X5547878Y9491879D01*
X5483292Y9511471D01*
X5345932Y9525000D01*
X5153000Y9525000D01*
X5153000Y9737000D01*
X5173000Y9737000D01*
X5173000Y10356250D01*
X5427000Y10356250D01*
X5427000Y9737000D01*
X6096250Y9737000D01*
X6255000Y9895750D01*
X6244226Y10012202D01*
X6206441Y10131442D01*
X6146118Y10241020D01*
X6065578Y10336724D01*
X5967914Y10414876D01*
X5856879Y10472473D01*
X5736742Y10507301D01*
X5612119Y10518023D01*
X5585750Y10515000D01*
X5427000Y10356250D01*
X5173000Y10356250D01*
X5014250Y10515000D01*
X4987881Y10518023D01*
X4863258Y10507301D01*
X4743121Y10472473D01*
X4632086Y10414876D01*
X4600942Y10389954D01*
X4473125Y10458274D01*
X4441466Y10467878D01*
X4406972Y10496186D01*
X4244540Y10583007D01*
X4068292Y10636471D01*
X3930932Y10650000D01*
X3885000Y10654524D01*
X3839068Y10650000D01*
X3408072Y10650000D01*
X3408072Y10832500D01*
X3392977Y10985757D01*
X3385000Y11012054D01*
X3385000Y11615750D01*
X3535750Y11465000D01*
X3550000Y11461928D01*
X3674482Y11474188D01*
X3794180Y11510498D01*
X3904494Y11569463D01*
X4001185Y11648815D01*
X4080537Y11745506D01*
X4139502Y11855820D01*
X4175812Y11975518D01*
X4188072Y12100000D01*
X4187247Y12217896D01*
X4193000Y12222046D01*
X4193000Y13613000D01*
X4447000Y13613000D01*
X4447000Y12222046D01*
X4621874Y12095881D01*
X4844976Y12175724D01*
X5032764Y12297631D01*
X5193161Y12453831D01*
X5320003Y12638322D01*
X5408415Y12844013D01*
X5455000Y13063000D01*
X5455000Y13613000D01*
X4447000Y13613000D01*
X4193000Y13613000D01*
X4181867Y13613000D01*
X4175812Y13674482D01*
X4173000Y13683752D01*
X4173000Y13867000D01*
X4193000Y13867000D01*
X4193000Y13887000D01*
X4447000Y13887000D01*
X4447000Y13867000D01*
X5455000Y13867000D01*
X5455000Y14124083D01*
X5563258Y14092699D01*
X5687881Y14081977D01*
X5714250Y14085000D01*
X5873000Y14243750D01*
X5873000Y14863000D01*
X5853000Y14863000D01*
X5853000Y15101928D01*
X6147000Y15101928D01*
X6147000Y14863000D01*
G37*
G04 #@! TD.AperFunction*
D25*
X-5853000Y14863000D02*
X-5873000Y14863000D01*
X-5873000Y14243750D01*
X-5714250Y14085000D01*
X-5687881Y14081977D01*
X-5563258Y14092699D01*
X-5455000Y14124083D01*
X-5455000Y13867000D01*
X-4447000Y13867000D01*
X-4447000Y13887000D01*
X-4193000Y13887000D01*
X-4193000Y13867000D01*
X-4173000Y13867000D01*
X-4173000Y13683752D01*
X-4175812Y13674482D01*
X-4181867Y13613000D01*
X-4193000Y13613000D01*
X-4193000Y12222046D01*
X-4187247Y12217896D01*
X-4188072Y12100000D01*
X-4175812Y11975518D01*
X-4139502Y11855820D01*
X-4080537Y11745506D01*
X-4001185Y11648815D01*
X-3904494Y11569463D01*
X-3794180Y11510498D01*
X-3674482Y11474188D01*
X-3550000Y11461928D01*
X-3535750Y11465000D01*
X-3384999Y11615751D01*
X-3384999Y11012057D01*
X-3392977Y10985757D01*
X-3408072Y10832500D01*
X-3408072Y10651054D01*
X-3427911Y10655000D01*
X-3474068Y10655000D01*
X-3520000Y10659524D01*
X-3565932Y10655000D01*
X-3612089Y10655000D01*
X-3657360Y10645995D01*
X-3703291Y10641471D01*
X-3747457Y10628073D01*
X-3792729Y10619068D01*
X-3835377Y10601403D01*
X-3879540Y10588006D01*
X-3920238Y10566252D01*
X-3962889Y10548586D01*
X-4001274Y10522938D01*
X-4041971Y10501185D01*
X-4077641Y10471911D01*
X-4116028Y10446262D01*
X-4148675Y10413615D01*
X-4184343Y10384343D01*
X-4213615Y10348675D01*
X-4246262Y10316028D01*
X-4271911Y10277641D01*
X-4301185Y10241971D01*
X-4322938Y10201274D01*
X-4348586Y10162889D01*
X-4366252Y10120238D01*
X-4388006Y10079540D01*
X-4401403Y10035377D01*
X-4419068Y9992729D01*
X-4428073Y9947457D01*
X-4441471Y9903291D01*
X-4445995Y9857360D01*
X-4455000Y9812089D01*
X-4455000Y9765932D01*
X-4459524Y9720000D01*
X-4455000Y9674068D01*
X-4455000Y9627911D01*
X-4445995Y9582640D01*
X-4441471Y9536709D01*
X-4428073Y9492543D01*
X-4419068Y9447271D01*
X-4401403Y9404623D01*
X-4388006Y9360460D01*
X-4366252Y9319762D01*
X-4348586Y9277111D01*
X-4322938Y9238726D01*
X-4301185Y9198029D01*
X-4271911Y9162358D01*
X-4246262Y9123972D01*
X-4208625Y9086335D01*
X-4179344Y9050656D01*
X-4143665Y9021375D01*
X-4116028Y8993738D01*
X-4083532Y8972025D01*
X-4036972Y8933814D01*
X-3983852Y8905421D01*
X-3962889Y8891414D01*
X-3939595Y8881766D01*
X-3874540Y8846993D01*
X-3803950Y8825580D01*
X-3792729Y8820932D01*
X-3780817Y8818562D01*
X-3733842Y8804313D01*
X-3698292Y8793529D01*
X-3612473Y8785076D01*
X-3612089Y8785000D01*
X-3611698Y8785000D01*
X-3515001Y8775476D01*
X-3469069Y8780000D01*
X-2404068Y8780000D01*
X-2384493Y8781928D01*
X-2277500Y8781928D01*
X-2124243Y8797023D01*
X-1976875Y8841726D01*
X-1841060Y8914321D01*
X-1722017Y9012017D01*
X-1624321Y9131060D01*
X-1551726Y9266875D01*
X-1535000Y9322015D01*
X-1535000Y7835000D01*
X-1692089Y7835000D01*
X-1872729Y7799068D01*
X-2042889Y7728586D01*
X-2105000Y7687085D01*
X-2105000Y7747002D01*
X-2263748Y7747002D01*
X-2105000Y7905750D01*
X-2101935Y7927077D01*
X-2113625Y8051613D01*
X-2149386Y8171476D01*
X-2207844Y8282059D01*
X-2286753Y8379113D01*
X-2383079Y8458908D01*
X-2493122Y8518377D01*
X-2612652Y8555235D01*
X-2734250Y8565000D01*
X-2893000Y8406250D01*
X-2893000Y7747000D01*
X-2873000Y7747000D01*
X-2873000Y7583157D01*
X-3054748Y7764905D01*
X-3058529Y7803292D01*
X-3065501Y7826274D01*
X-3076878Y7941794D01*
X-3121155Y8087755D01*
X-3147000Y8136108D01*
X-3147000Y8406250D01*
X-3305750Y8565000D01*
X-3427348Y8555235D01*
X-3546878Y8518377D01*
X-3556509Y8513172D01*
X-3688206Y8553122D01*
X-3840000Y8568072D01*
X-4120000Y8568072D01*
X-4271794Y8553122D01*
X-4417755Y8508845D01*
X-4552274Y8436943D01*
X-4670180Y8340180D01*
X-4766943Y8222274D01*
X-4838845Y8087755D01*
X-4883122Y7941794D01*
X-4894500Y7826273D01*
X-4901471Y7803291D01*
X-4915000Y7665931D01*
X-4914999Y6804625D01*
X-4921471Y6783291D01*
X-4925995Y6737360D01*
X-4935000Y6692089D01*
X-4935000Y6645932D01*
X-4939524Y6600000D01*
X-4935000Y6554068D01*
X-4935000Y6507911D01*
X-4925995Y6462640D01*
X-4921471Y6416709D01*
X-4908073Y6372543D01*
X-4899068Y6327271D01*
X-4881403Y6284623D01*
X-4868006Y6240460D01*
X-4846252Y6199762D01*
X-4828586Y6157111D01*
X-4802938Y6118726D01*
X-4781185Y6078029D01*
X-4751911Y6042359D01*
X-4726262Y6003972D01*
X-4693615Y5971325D01*
X-4664343Y5935657D01*
X-4628675Y5906385D01*
X-4596028Y5873738D01*
X-4557641Y5848089D01*
X-4521971Y5818815D01*
X-4481274Y5797062D01*
X-4442889Y5771414D01*
X-4400238Y5753748D01*
X-4359540Y5731994D01*
X-4315377Y5718597D01*
X-4272729Y5700932D01*
X-4227457Y5691927D01*
X-4183291Y5678529D01*
X-4137360Y5674005D01*
X-4092089Y5665000D01*
X-4045932Y5665000D01*
X-4000000Y5660476D01*
X-3954068Y5665000D01*
X-3907911Y5665000D01*
X-3862640Y5674005D01*
X-3816709Y5678529D01*
X-3772543Y5691927D01*
X-3727271Y5700932D01*
X-3684623Y5718597D01*
X-3640460Y5731994D01*
X-3599762Y5753748D01*
X-3557111Y5771414D01*
X-3535000Y5786188D01*
X-3535000Y5535000D01*
X-4167049Y5535000D01*
X-4307111Y5628586D01*
X-4477271Y5699068D01*
X-4657911Y5735000D01*
X-4842089Y5735000D01*
X-5022729Y5699068D01*
X-5192889Y5628586D01*
X-5346028Y5526262D01*
X-5476262Y5396028D01*
X-5578586Y5242889D01*
X-5649068Y5072729D01*
X-5654712Y5044355D01*
X-5751255Y5073641D01*
X-5866581Y5085000D01*
X-5866589Y5085000D01*
X-5896252Y5087921D01*
X-5957111Y5128586D01*
X-6127271Y5199068D01*
X-6307911Y5235000D01*
X-6492089Y5235000D01*
X-6672729Y5199068D01*
X-6842889Y5128586D01*
X-6996028Y5026262D01*
X-7126262Y4896028D01*
X-7228586Y4742889D01*
X-7299068Y4572729D01*
X-7335000Y4392089D01*
X-7335000Y4207911D01*
X-7299068Y4027271D01*
X-7231406Y3863920D01*
X-7352664Y3782898D01*
X-7482898Y3652664D01*
X-7585222Y3499525D01*
X-7655704Y3329365D01*
X-7691636Y3148725D01*
X-7691636Y2964547D01*
X-7655704Y2783907D01*
X-7585222Y2613747D01*
X-7482898Y2460608D01*
X-7352664Y2330374D01*
X-7199525Y2228050D01*
X-7029365Y2157568D01*
X-6848725Y2121636D01*
X-6664547Y2121636D01*
X-6483907Y2157568D01*
X-6313747Y2228050D01*
X-6248516Y2271636D01*
X-5590819Y2271636D01*
X-5466531Y2147347D01*
X-5503203Y2092463D01*
X-5573685Y1922303D01*
X-5609617Y1741663D01*
X-5609617Y1557485D01*
X-5573685Y1376845D01*
X-5503203Y1206685D01*
X-5400879Y1053546D01*
X-5378292Y1030959D01*
X-5473000Y936250D01*
X-5473000Y307000D01*
X-4813750Y307000D01*
X-4655000Y465750D01*
X-4663159Y567350D01*
X-4602231Y534784D01*
X-4576903Y521246D01*
X-4486104Y493702D01*
X-4499611Y449175D01*
X-4513072Y312500D01*
X-4513072Y187500D01*
X-4499611Y50825D01*
X-4494810Y35000D01*
X-4795750Y35000D01*
X-4813750Y53000D01*
X-5083892Y53000D01*
X-5132245Y78845D01*
X-5278206Y123122D01*
X-5393726Y134499D01*
X-5416708Y141471D01*
X-5554068Y155000D01*
X-5747000Y155000D01*
X-5747000Y307000D01*
X-5727000Y307000D01*
X-5727000Y936250D01*
X-5787916Y997166D01*
X-5786928Y1050000D01*
X-5799188Y1174482D01*
X-5835498Y1294180D01*
X-5894463Y1404494D01*
X-5973815Y1501185D01*
X-6070506Y1580537D01*
X-6180820Y1639502D01*
X-6300518Y1675812D01*
X-6425000Y1688072D01*
X-6614250Y1685000D01*
X-6773000Y1526250D01*
X-6773000Y727000D01*
X-6753000Y727000D01*
X-6753000Y473000D01*
X-6773000Y473000D01*
X-6773000Y453000D01*
X-7027000Y453000D01*
X-7027000Y473000D01*
X-7851250Y473000D01*
X-8010000Y314250D01*
X-8013072Y150000D01*
X-8000812Y25518D01*
X-7964502Y-94180D01*
X-7905537Y-204494D01*
X-7869300Y-248649D01*
X-7947375Y-394717D01*
X-7996488Y-556623D01*
X-8013072Y-725000D01*
X-8013072Y-1175000D01*
X-7996488Y-1343377D01*
X-7947375Y-1505283D01*
X-7867618Y-1654497D01*
X-7760284Y-1785284D01*
X-7629497Y-1892618D01*
X-7480283Y-1972375D01*
X-7427431Y-1988407D01*
X-7436375Y-2018387D01*
X-7448065Y-2142923D01*
X-7445000Y-2164250D01*
X-7286250Y-2323000D01*
X-6657000Y-2323000D01*
X-6657000Y-2303000D01*
X-6495045Y-2303000D01*
X-6505000Y-2404069D01*
X-6505000Y-2597000D01*
X-6657000Y-2597000D01*
X-6657000Y-2577000D01*
X-7286250Y-2577000D01*
X-7445000Y-2735750D01*
X-7448065Y-2757077D01*
X-7436375Y-2881613D01*
X-7400614Y-3001476D01*
X-7342156Y-3112059D01*
X-7263247Y-3209113D01*
X-7166921Y-3288908D01*
X-7056878Y-3348377D01*
X-7012533Y-3362051D01*
X-7600000Y-3362051D01*
X-7723882Y-3374252D01*
X-7843004Y-3410387D01*
X-7945176Y-3465000D01*
X-8846377Y-3465000D01*
X-8886060Y-3438485D01*
X-9083517Y-3356696D01*
X-9293137Y-3315000D01*
X-9506863Y-3315000D01*
X-9716483Y-3356696D01*
X-9913940Y-3438485D01*
X-10091647Y-3557225D01*
X-10242775Y-3708353D01*
X-10361515Y-3886060D01*
X-10428920Y-4048790D01*
X-10503972Y-3973738D01*
X-10657111Y-3871414D01*
X-10827271Y-3800932D01*
X-11007911Y-3765000D01*
X-11192089Y-3765000D01*
X-11372729Y-3800932D01*
X-11542889Y-3871414D01*
X-11696028Y-3973738D01*
X-11826262Y-4103972D01*
X-11928586Y-4257111D01*
X-11999068Y-4427271D01*
X-12035000Y-4607911D01*
X-12035000Y-4792089D01*
X-11999068Y-4972729D01*
X-11944999Y-5103264D01*
X-11944999Y-5192543D01*
X-11959225Y-5219158D01*
X-12003218Y-5364181D01*
X-12018072Y-5515000D01*
X-12018072Y-5885000D01*
X-12003218Y-6035819D01*
X-11959225Y-6180842D01*
X-11945000Y-6207456D01*
X-11945000Y-6292544D01*
X-11959225Y-6319158D01*
X-12003218Y-6464181D01*
X-12018072Y-6615000D01*
X-12018072Y-6985000D01*
X-12003218Y-7135819D01*
X-11959225Y-7280842D01*
X-11887786Y-7414496D01*
X-11791644Y-7531644D01*
X-11674496Y-7627786D01*
X-11540842Y-7699225D01*
X-11395819Y-7743218D01*
X-11245000Y-7758072D01*
X-10975000Y-7758072D01*
X-10824181Y-7743218D01*
X-10679158Y-7699225D01*
X-10600000Y-7656914D01*
X-10520842Y-7699225D01*
X-10375819Y-7743218D01*
X-10333480Y-7747388D01*
X-10135000Y-7945869D01*
X-10135000Y-7965166D01*
X-10208472Y-7916073D01*
X-10405929Y-7834284D01*
X-10615549Y-7792588D01*
X-10829275Y-7792588D01*
X-11038895Y-7834284D01*
X-11236352Y-7916073D01*
X-11414059Y-8034813D01*
X-11565187Y-8185941D01*
X-11683927Y-8363648D01*
X-11765716Y-8561105D01*
X-11775027Y-8607914D01*
X-11778241Y-8611128D01*
X-11778241Y-8397935D01*
X-11786145Y-8385687D01*
X-11882836Y-8306334D01*
X-11993150Y-8247369D01*
X-12112848Y-8211060D01*
X-12237330Y-8198800D01*
X-12361811Y-8211060D01*
X-12481509Y-8247369D01*
X-12591823Y-8306334D01*
X-12688515Y-8385687D01*
X-12771296Y-8469634D01*
X-12778299Y-8468501D01*
X-13761852Y-9452054D01*
X-13753979Y-9459927D01*
X-13793172Y-9507683D01*
X-13797738Y-9516225D01*
X-13927315Y-9645802D01*
X-13941457Y-9631659D01*
X-14925010Y-10615212D01*
X-14890568Y-10828079D01*
X-14676353Y-10929378D01*
X-14457366Y-10975963D01*
X-14255892Y-10978634D01*
X-14228169Y-11118006D01*
X-14155802Y-11292715D01*
X-14050742Y-11449948D01*
X-13936215Y-11564475D01*
X-13960758Y-11594382D01*
X-13972636Y-11608855D01*
X-14050172Y-11753914D01*
X-14097918Y-11911312D01*
X-14114040Y-12075000D01*
X-14110000Y-12116019D01*
X-14109999Y-13155220D01*
X-14114040Y-13196248D01*
X-14097918Y-13359936D01*
X-14050172Y-13517334D01*
X-13972636Y-13662393D01*
X-13954455Y-13684546D01*
X-13868290Y-13789539D01*
X-13836426Y-13815689D01*
X-10482535Y-17169581D01*
X-10672497Y-17167063D01*
X-10892643Y-17207827D01*
X-11100605Y-17290756D01*
X-11288393Y-17412662D01*
X-11500525Y-17624794D01*
X-10787761Y-18337558D01*
X-10773619Y-18323416D01*
X-10594014Y-18503021D01*
X-10608156Y-18517163D01*
X-9895392Y-19229927D01*
X-9683260Y-19017795D01*
X-9561354Y-18830007D01*
X-9478425Y-18622045D01*
X-9437661Y-18401899D01*
X-9440179Y-18211937D01*
X-9059883Y-18592234D01*
X-9051123Y-18621111D01*
X-8979684Y-18754765D01*
X-8883542Y-18871913D01*
X-8621913Y-19133542D01*
X-8600429Y-19151174D01*
X-10732233Y-21282978D01*
X-12511666Y-19503544D01*
X-11594537Y-19503544D01*
X-11560095Y-19716411D01*
X-11345880Y-19817711D01*
X-11126893Y-19864295D01*
X-10903025Y-19867263D01*
X-10682879Y-19826499D01*
X-10474917Y-19743570D01*
X-10287129Y-19621664D01*
X-10074997Y-19409532D01*
X-10787761Y-18696768D01*
X-11594537Y-19503544D01*
X-12511666Y-19503544D01*
X-13382783Y-18632427D01*
X-12137861Y-18632427D01*
X-12134893Y-18856295D01*
X-12088309Y-19075282D01*
X-11987009Y-19289497D01*
X-11774142Y-19323939D01*
X-10967366Y-18517163D01*
X-11680130Y-17804399D01*
X-11892262Y-18016531D01*
X-12014168Y-18204319D01*
X-12097097Y-18412281D01*
X-12137861Y-18632427D01*
X-13382783Y-18632427D01*
X-18621068Y-13394142D01*
X-17703939Y-13394142D01*
X-17669497Y-13607009D01*
X-17455282Y-13708309D01*
X-17236295Y-13754893D01*
X-17012427Y-13757861D01*
X-16792281Y-13717097D01*
X-16584319Y-13634168D01*
X-16396531Y-13512262D01*
X-16184399Y-13300130D01*
X-16897163Y-12587366D01*
X-17703939Y-13394142D01*
X-18621068Y-13394142D01*
X-19492185Y-12523025D01*
X-18247263Y-12523025D01*
X-18244295Y-12746893D01*
X-18197711Y-12965880D01*
X-18096411Y-13180095D01*
X-17883544Y-13214537D01*
X-17076768Y-12407761D01*
X-16717558Y-12407761D01*
X-16004794Y-13120525D01*
X-15792662Y-12908393D01*
X-15670756Y-12720605D01*
X-15587827Y-12512643D01*
X-15547063Y-12292497D01*
X-15550031Y-12068629D01*
X-15596615Y-11849642D01*
X-15697915Y-11635427D01*
X-15910782Y-11600985D01*
X-16717558Y-12407761D01*
X-17076768Y-12407761D01*
X-17789532Y-11694997D01*
X-18001664Y-11907129D01*
X-18123570Y-12094917D01*
X-18206499Y-12302879D01*
X-18247263Y-12523025D01*
X-19492185Y-12523025D01*
X-19662991Y-12352219D01*
X-18826164Y-11515392D01*
X-17609927Y-11515392D01*
X-16897163Y-12228156D01*
X-16090387Y-11421380D01*
X-16124829Y-11208513D01*
X-16339044Y-11107213D01*
X-16558031Y-11060629D01*
X-16781899Y-11057661D01*
X-17002045Y-11098425D01*
X-17210007Y-11181354D01*
X-17397795Y-11303260D01*
X-17609927Y-11515392D01*
X-18826164Y-11515392D01*
X-17054867Y-9744095D01*
X-15468334Y-9744095D01*
X-15465366Y-9967963D01*
X-15418781Y-10186950D01*
X-15317482Y-10401165D01*
X-15104615Y-10435607D01*
X-14121062Y-9452054D01*
X-14833826Y-8739290D01*
X-15222734Y-9128199D01*
X-15344641Y-9315987D01*
X-15427570Y-9523949D01*
X-15468334Y-9744095D01*
X-17054867Y-9744095D01*
X-16941587Y-9630815D01*
X-16935509Y-9623409D01*
X-15929595Y-8559685D01*
X-14654221Y-8559685D01*
X-13941457Y-9272449D01*
X-12957904Y-8288896D01*
X-12992346Y-8076029D01*
X-13206561Y-7974730D01*
X-13425548Y-7928145D01*
X-13649416Y-7925177D01*
X-13869562Y-7965941D01*
X-14077524Y-8048870D01*
X-14265312Y-8170777D01*
X-14654221Y-8559685D01*
X-15929595Y-8559685D01*
X-15583118Y-8193296D01*
X-15574795Y-8183888D01*
X-15566206Y-8174742D01*
X-15555314Y-8162034D01*
X-14037774Y-6347076D01*
X-14028950Y-6335781D01*
X-14019835Y-6324685D01*
X-14009809Y-6311283D01*
X-12615888Y-4399740D01*
X-12607835Y-4387891D01*
X-12599472Y-4376210D01*
X-12590378Y-4362205D01*
X-12590356Y-4362172D01*
X-12590343Y-4362150D01*
X-11326187Y-2362452D01*
X-11318944Y-2350106D01*
X-11311366Y-2337885D01*
X-11303201Y-2323275D01*
X-10174340Y-244171D01*
X-10167921Y-231352D01*
X-10161181Y-218676D01*
X-10154002Y-203556D01*
X-9577431Y1050000D01*
X-8013072Y1050000D01*
X-8010000Y885750D01*
X-7851250Y727000D01*
X-7027000Y727000D01*
X-7027000Y1526250D01*
X-7185750Y1685000D01*
X-7375000Y1688072D01*
X-7499482Y1675812D01*
X-7619180Y1639502D01*
X-7729494Y1580537D01*
X-7826185Y1501185D01*
X-7905537Y1404494D01*
X-7964502Y1294180D01*
X-8000812Y1174482D01*
X-8013072Y1050000D01*
X-9577431Y1050000D01*
X-9165412Y1945792D01*
X-9159858Y1959004D01*
X-9153971Y1972103D01*
X-9147810Y1987666D01*
X-8303840Y4197806D01*
X-8299177Y4211347D01*
X-8294168Y4224817D01*
X-8289052Y4240753D01*
X-7593412Y6501968D01*
X-7589658Y6515786D01*
X-7585551Y6529561D01*
X-7581511Y6545769D01*
X-7581502Y6545802D01*
X-7581498Y6545824D01*
X-7037250Y8848147D01*
X-7034414Y8862214D01*
X-7031236Y8876201D01*
X-7028272Y8892673D01*
X-6637803Y11226026D01*
X-6635907Y11240238D01*
X-6633661Y11254417D01*
X-6631796Y11271050D01*
X-6398038Y13613000D01*
X-5455000Y13613000D01*
X-5455000Y13063000D01*
X-5408415Y12844013D01*
X-5320003Y12638322D01*
X-5193161Y12453831D01*
X-5032764Y12297631D01*
X-4844976Y12175724D01*
X-4621874Y12095881D01*
X-4447000Y12222046D01*
X-4447000Y13613000D01*
X-5455000Y13613000D01*
X-6398038Y13613000D01*
X-6396825Y13625152D01*
X-6395877Y13639429D01*
X-6394573Y13653755D01*
X-6393815Y13670475D01*
X-6379971Y14087815D01*
X-6312119Y14081977D01*
X-6285750Y14085000D01*
X-6127000Y14243750D01*
X-6127000Y14863000D01*
X-6147000Y14863000D01*
X-6147000Y15101928D01*
X-5853000Y15101928D01*
X-5853000Y14863000D01*
G04 #@! TA.AperFunction,Conductor*
D28*
G36*
X-5853000Y14863000D02*
G01*
X-5873000Y14863000D01*
X-5873000Y14243750D01*
X-5714250Y14085000D01*
X-5687881Y14081977D01*
X-5563258Y14092699D01*
X-5455000Y14124083D01*
X-5455000Y13867000D01*
X-4447000Y13867000D01*
X-4447000Y13887000D01*
X-4193000Y13887000D01*
X-4193000Y13867000D01*
X-4173000Y13867000D01*
X-4173000Y13683752D01*
X-4175812Y13674482D01*
X-4181867Y13613000D01*
X-4193000Y13613000D01*
X-4193000Y12222046D01*
X-4187247Y12217896D01*
X-4188072Y12100000D01*
X-4175812Y11975518D01*
X-4139502Y11855820D01*
X-4080537Y11745506D01*
X-4001185Y11648815D01*
X-3904494Y11569463D01*
X-3794180Y11510498D01*
X-3674482Y11474188D01*
X-3550000Y11461928D01*
X-3535750Y11465000D01*
X-3384999Y11615751D01*
X-3384999Y11012057D01*
X-3392977Y10985757D01*
X-3408072Y10832500D01*
X-3408072Y10651054D01*
X-3427911Y10655000D01*
X-3474068Y10655000D01*
X-3520000Y10659524D01*
X-3565932Y10655000D01*
X-3612089Y10655000D01*
X-3657360Y10645995D01*
X-3703291Y10641471D01*
X-3747457Y10628073D01*
X-3792729Y10619068D01*
X-3835377Y10601403D01*
X-3879540Y10588006D01*
X-3920238Y10566252D01*
X-3962889Y10548586D01*
X-4001274Y10522938D01*
X-4041971Y10501185D01*
X-4077641Y10471911D01*
X-4116028Y10446262D01*
X-4148675Y10413615D01*
X-4184343Y10384343D01*
X-4213615Y10348675D01*
X-4246262Y10316028D01*
X-4271911Y10277641D01*
X-4301185Y10241971D01*
X-4322938Y10201274D01*
X-4348586Y10162889D01*
X-4366252Y10120238D01*
X-4388006Y10079540D01*
X-4401403Y10035377D01*
X-4419068Y9992729D01*
X-4428073Y9947457D01*
X-4441471Y9903291D01*
X-4445995Y9857360D01*
X-4455000Y9812089D01*
X-4455000Y9765932D01*
X-4459524Y9720000D01*
X-4455000Y9674068D01*
X-4455000Y9627911D01*
X-4445995Y9582640D01*
X-4441471Y9536709D01*
X-4428073Y9492543D01*
X-4419068Y9447271D01*
X-4401403Y9404623D01*
X-4388006Y9360460D01*
X-4366252Y9319762D01*
X-4348586Y9277111D01*
X-4322938Y9238726D01*
X-4301185Y9198029D01*
X-4271911Y9162358D01*
X-4246262Y9123972D01*
X-4208625Y9086335D01*
X-4179344Y9050656D01*
X-4143665Y9021375D01*
X-4116028Y8993738D01*
X-4083532Y8972025D01*
X-4036972Y8933814D01*
X-3983852Y8905421D01*
X-3962889Y8891414D01*
X-3939595Y8881766D01*
X-3874540Y8846993D01*
X-3803950Y8825580D01*
X-3792729Y8820932D01*
X-3780817Y8818562D01*
X-3733842Y8804313D01*
X-3698292Y8793529D01*
X-3612473Y8785076D01*
X-3612089Y8785000D01*
X-3611698Y8785000D01*
X-3515001Y8775476D01*
X-3469069Y8780000D01*
X-2404068Y8780000D01*
X-2384493Y8781928D01*
X-2277500Y8781928D01*
X-2124243Y8797023D01*
X-1976875Y8841726D01*
X-1841060Y8914321D01*
X-1722017Y9012017D01*
X-1624321Y9131060D01*
X-1551726Y9266875D01*
X-1535000Y9322015D01*
X-1535000Y7835000D01*
X-1692089Y7835000D01*
X-1872729Y7799068D01*
X-2042889Y7728586D01*
X-2105000Y7687085D01*
X-2105000Y7747002D01*
X-2263748Y7747002D01*
X-2105000Y7905750D01*
X-2101935Y7927077D01*
X-2113625Y8051613D01*
X-2149386Y8171476D01*
X-2207844Y8282059D01*
X-2286753Y8379113D01*
X-2383079Y8458908D01*
X-2493122Y8518377D01*
X-2612652Y8555235D01*
X-2734250Y8565000D01*
X-2893000Y8406250D01*
X-2893000Y7747000D01*
X-2873000Y7747000D01*
X-2873000Y7583157D01*
X-3054748Y7764905D01*
X-3058529Y7803292D01*
X-3065501Y7826274D01*
X-3076878Y7941794D01*
X-3121155Y8087755D01*
X-3147000Y8136108D01*
X-3147000Y8406250D01*
X-3305750Y8565000D01*
X-3427348Y8555235D01*
X-3546878Y8518377D01*
X-3556509Y8513172D01*
X-3688206Y8553122D01*
X-3840000Y8568072D01*
X-4120000Y8568072D01*
X-4271794Y8553122D01*
X-4417755Y8508845D01*
X-4552274Y8436943D01*
X-4670180Y8340180D01*
X-4766943Y8222274D01*
X-4838845Y8087755D01*
X-4883122Y7941794D01*
X-4894500Y7826273D01*
X-4901471Y7803291D01*
X-4915000Y7665931D01*
X-4914999Y6804625D01*
X-4921471Y6783291D01*
X-4925995Y6737360D01*
X-4935000Y6692089D01*
X-4935000Y6645932D01*
X-4939524Y6600000D01*
X-4935000Y6554068D01*
X-4935000Y6507911D01*
X-4925995Y6462640D01*
X-4921471Y6416709D01*
X-4908073Y6372543D01*
X-4899068Y6327271D01*
X-4881403Y6284623D01*
X-4868006Y6240460D01*
X-4846252Y6199762D01*
X-4828586Y6157111D01*
X-4802938Y6118726D01*
X-4781185Y6078029D01*
X-4751911Y6042359D01*
X-4726262Y6003972D01*
X-4693615Y5971325D01*
X-4664343Y5935657D01*
X-4628675Y5906385D01*
X-4596028Y5873738D01*
X-4557641Y5848089D01*
X-4521971Y5818815D01*
X-4481274Y5797062D01*
X-4442889Y5771414D01*
X-4400238Y5753748D01*
X-4359540Y5731994D01*
X-4315377Y5718597D01*
X-4272729Y5700932D01*
X-4227457Y5691927D01*
X-4183291Y5678529D01*
X-4137360Y5674005D01*
X-4092089Y5665000D01*
X-4045932Y5665000D01*
X-4000000Y5660476D01*
X-3954068Y5665000D01*
X-3907911Y5665000D01*
X-3862640Y5674005D01*
X-3816709Y5678529D01*
X-3772543Y5691927D01*
X-3727271Y5700932D01*
X-3684623Y5718597D01*
X-3640460Y5731994D01*
X-3599762Y5753748D01*
X-3557111Y5771414D01*
X-3535000Y5786188D01*
X-3535000Y5535000D01*
X-4167049Y5535000D01*
X-4307111Y5628586D01*
X-4477271Y5699068D01*
X-4657911Y5735000D01*
X-4842089Y5735000D01*
X-5022729Y5699068D01*
X-5192889Y5628586D01*
X-5346028Y5526262D01*
X-5476262Y5396028D01*
X-5578586Y5242889D01*
X-5649068Y5072729D01*
X-5654712Y5044355D01*
X-5751255Y5073641D01*
X-5866581Y5085000D01*
X-5866589Y5085000D01*
X-5896252Y5087921D01*
X-5957111Y5128586D01*
X-6127271Y5199068D01*
X-6307911Y5235000D01*
X-6492089Y5235000D01*
X-6672729Y5199068D01*
X-6842889Y5128586D01*
X-6996028Y5026262D01*
X-7126262Y4896028D01*
X-7228586Y4742889D01*
X-7299068Y4572729D01*
X-7335000Y4392089D01*
X-7335000Y4207911D01*
X-7299068Y4027271D01*
X-7231406Y3863920D01*
X-7352664Y3782898D01*
X-7482898Y3652664D01*
X-7585222Y3499525D01*
X-7655704Y3329365D01*
X-7691636Y3148725D01*
X-7691636Y2964547D01*
X-7655704Y2783907D01*
X-7585222Y2613747D01*
X-7482898Y2460608D01*
X-7352664Y2330374D01*
X-7199525Y2228050D01*
X-7029365Y2157568D01*
X-6848725Y2121636D01*
X-6664547Y2121636D01*
X-6483907Y2157568D01*
X-6313747Y2228050D01*
X-6248516Y2271636D01*
X-5590819Y2271636D01*
X-5466531Y2147347D01*
X-5503203Y2092463D01*
X-5573685Y1922303D01*
X-5609617Y1741663D01*
X-5609617Y1557485D01*
X-5573685Y1376845D01*
X-5503203Y1206685D01*
X-5400879Y1053546D01*
X-5378292Y1030959D01*
X-5473000Y936250D01*
X-5473000Y307000D01*
X-4813750Y307000D01*
X-4655000Y465750D01*
X-4663159Y567350D01*
X-4602231Y534784D01*
X-4576903Y521246D01*
X-4486104Y493702D01*
X-4499611Y449175D01*
X-4513072Y312500D01*
X-4513072Y187500D01*
X-4499611Y50825D01*
X-4494810Y35000D01*
X-4795750Y35000D01*
X-4813750Y53000D01*
X-5083892Y53000D01*
X-5132245Y78845D01*
X-5278206Y123122D01*
X-5393726Y134499D01*
X-5416708Y141471D01*
X-5554068Y155000D01*
X-5747000Y155000D01*
X-5747000Y307000D01*
X-5727000Y307000D01*
X-5727000Y936250D01*
X-5787916Y997166D01*
X-5786928Y1050000D01*
X-5799188Y1174482D01*
X-5835498Y1294180D01*
X-5894463Y1404494D01*
X-5973815Y1501185D01*
X-6070506Y1580537D01*
X-6180820Y1639502D01*
X-6300518Y1675812D01*
X-6425000Y1688072D01*
X-6614250Y1685000D01*
X-6773000Y1526250D01*
X-6773000Y727000D01*
X-6753000Y727000D01*
X-6753000Y473000D01*
X-6773000Y473000D01*
X-6773000Y453000D01*
X-7027000Y453000D01*
X-7027000Y473000D01*
X-7851250Y473000D01*
X-8010000Y314250D01*
X-8013072Y150000D01*
X-8000812Y25518D01*
X-7964502Y-94180D01*
X-7905537Y-204494D01*
X-7869300Y-248649D01*
X-7947375Y-394717D01*
X-7996488Y-556623D01*
X-8013072Y-725000D01*
X-8013072Y-1175000D01*
X-7996488Y-1343377D01*
X-7947375Y-1505283D01*
X-7867618Y-1654497D01*
X-7760284Y-1785284D01*
X-7629497Y-1892618D01*
X-7480283Y-1972375D01*
X-7427431Y-1988407D01*
X-7436375Y-2018387D01*
X-7448065Y-2142923D01*
X-7445000Y-2164250D01*
X-7286250Y-2323000D01*
X-6657000Y-2323000D01*
X-6657000Y-2303000D01*
X-6495045Y-2303000D01*
X-6505000Y-2404069D01*
X-6505000Y-2597000D01*
X-6657000Y-2597000D01*
X-6657000Y-2577000D01*
X-7286250Y-2577000D01*
X-7445000Y-2735750D01*
X-7448065Y-2757077D01*
X-7436375Y-2881613D01*
X-7400614Y-3001476D01*
X-7342156Y-3112059D01*
X-7263247Y-3209113D01*
X-7166921Y-3288908D01*
X-7056878Y-3348377D01*
X-7012533Y-3362051D01*
X-7600000Y-3362051D01*
X-7723882Y-3374252D01*
X-7843004Y-3410387D01*
X-7945176Y-3465000D01*
X-8846377Y-3465000D01*
X-8886060Y-3438485D01*
X-9083517Y-3356696D01*
X-9293137Y-3315000D01*
X-9506863Y-3315000D01*
X-9716483Y-3356696D01*
X-9913940Y-3438485D01*
X-10091647Y-3557225D01*
X-10242775Y-3708353D01*
X-10361515Y-3886060D01*
X-10428920Y-4048790D01*
X-10503972Y-3973738D01*
X-10657111Y-3871414D01*
X-10827271Y-3800932D01*
X-11007911Y-3765000D01*
X-11192089Y-3765000D01*
X-11372729Y-3800932D01*
X-11542889Y-3871414D01*
X-11696028Y-3973738D01*
X-11826262Y-4103972D01*
X-11928586Y-4257111D01*
X-11999068Y-4427271D01*
X-12035000Y-4607911D01*
X-12035000Y-4792089D01*
X-11999068Y-4972729D01*
X-11944999Y-5103264D01*
X-11944999Y-5192543D01*
X-11959225Y-5219158D01*
X-12003218Y-5364181D01*
X-12018072Y-5515000D01*
X-12018072Y-5885000D01*
X-12003218Y-6035819D01*
X-11959225Y-6180842D01*
X-11945000Y-6207456D01*
X-11945000Y-6292544D01*
X-11959225Y-6319158D01*
X-12003218Y-6464181D01*
X-12018072Y-6615000D01*
X-12018072Y-6985000D01*
X-12003218Y-7135819D01*
X-11959225Y-7280842D01*
X-11887786Y-7414496D01*
X-11791644Y-7531644D01*
X-11674496Y-7627786D01*
X-11540842Y-7699225D01*
X-11395819Y-7743218D01*
X-11245000Y-7758072D01*
X-10975000Y-7758072D01*
X-10824181Y-7743218D01*
X-10679158Y-7699225D01*
X-10600000Y-7656914D01*
X-10520842Y-7699225D01*
X-10375819Y-7743218D01*
X-10333480Y-7747388D01*
X-10135000Y-7945869D01*
X-10135000Y-7965166D01*
X-10208472Y-7916073D01*
X-10405929Y-7834284D01*
X-10615549Y-7792588D01*
X-10829275Y-7792588D01*
X-11038895Y-7834284D01*
X-11236352Y-7916073D01*
X-11414059Y-8034813D01*
X-11565187Y-8185941D01*
X-11683927Y-8363648D01*
X-11765716Y-8561105D01*
X-11775027Y-8607914D01*
X-11778241Y-8611128D01*
X-11778241Y-8397935D01*
X-11786145Y-8385687D01*
X-11882836Y-8306334D01*
X-11993150Y-8247369D01*
X-12112848Y-8211060D01*
X-12237330Y-8198800D01*
X-12361811Y-8211060D01*
X-12481509Y-8247369D01*
X-12591823Y-8306334D01*
X-12688515Y-8385687D01*
X-12771296Y-8469634D01*
X-12778299Y-8468501D01*
X-13761852Y-9452054D01*
X-13753979Y-9459927D01*
X-13793172Y-9507683D01*
X-13797738Y-9516225D01*
X-13927315Y-9645802D01*
X-13941457Y-9631659D01*
X-14925010Y-10615212D01*
X-14890568Y-10828079D01*
X-14676353Y-10929378D01*
X-14457366Y-10975963D01*
X-14255892Y-10978634D01*
X-14228169Y-11118006D01*
X-14155802Y-11292715D01*
X-14050742Y-11449948D01*
X-13936215Y-11564475D01*
X-13960758Y-11594382D01*
X-13972636Y-11608855D01*
X-14050172Y-11753914D01*
X-14097918Y-11911312D01*
X-14114040Y-12075000D01*
X-14110000Y-12116019D01*
X-14109999Y-13155220D01*
X-14114040Y-13196248D01*
X-14097918Y-13359936D01*
X-14050172Y-13517334D01*
X-13972636Y-13662393D01*
X-13954455Y-13684546D01*
X-13868290Y-13789539D01*
X-13836426Y-13815689D01*
X-10482535Y-17169581D01*
X-10672497Y-17167063D01*
X-10892643Y-17207827D01*
X-11100605Y-17290756D01*
X-11288393Y-17412662D01*
X-11500525Y-17624794D01*
X-10787761Y-18337558D01*
X-10773619Y-18323416D01*
X-10594014Y-18503021D01*
X-10608156Y-18517163D01*
X-9895392Y-19229927D01*
X-9683260Y-19017795D01*
X-9561354Y-18830007D01*
X-9478425Y-18622045D01*
X-9437661Y-18401899D01*
X-9440179Y-18211937D01*
X-9059883Y-18592234D01*
X-9051123Y-18621111D01*
X-8979684Y-18754765D01*
X-8883542Y-18871913D01*
X-8621913Y-19133542D01*
X-8600429Y-19151174D01*
X-10732233Y-21282978D01*
X-12511666Y-19503544D01*
X-11594537Y-19503544D01*
X-11560095Y-19716411D01*
X-11345880Y-19817711D01*
X-11126893Y-19864295D01*
X-10903025Y-19867263D01*
X-10682879Y-19826499D01*
X-10474917Y-19743570D01*
X-10287129Y-19621664D01*
X-10074997Y-19409532D01*
X-10787761Y-18696768D01*
X-11594537Y-19503544D01*
X-12511666Y-19503544D01*
X-13382783Y-18632427D01*
X-12137861Y-18632427D01*
X-12134893Y-18856295D01*
X-12088309Y-19075282D01*
X-11987009Y-19289497D01*
X-11774142Y-19323939D01*
X-10967366Y-18517163D01*
X-11680130Y-17804399D01*
X-11892262Y-18016531D01*
X-12014168Y-18204319D01*
X-12097097Y-18412281D01*
X-12137861Y-18632427D01*
X-13382783Y-18632427D01*
X-18621068Y-13394142D01*
X-17703939Y-13394142D01*
X-17669497Y-13607009D01*
X-17455282Y-13708309D01*
X-17236295Y-13754893D01*
X-17012427Y-13757861D01*
X-16792281Y-13717097D01*
X-16584319Y-13634168D01*
X-16396531Y-13512262D01*
X-16184399Y-13300130D01*
X-16897163Y-12587366D01*
X-17703939Y-13394142D01*
X-18621068Y-13394142D01*
X-19492185Y-12523025D01*
X-18247263Y-12523025D01*
X-18244295Y-12746893D01*
X-18197711Y-12965880D01*
X-18096411Y-13180095D01*
X-17883544Y-13214537D01*
X-17076768Y-12407761D01*
X-16717558Y-12407761D01*
X-16004794Y-13120525D01*
X-15792662Y-12908393D01*
X-15670756Y-12720605D01*
X-15587827Y-12512643D01*
X-15547063Y-12292497D01*
X-15550031Y-12068629D01*
X-15596615Y-11849642D01*
X-15697915Y-11635427D01*
X-15910782Y-11600985D01*
X-16717558Y-12407761D01*
X-17076768Y-12407761D01*
X-17789532Y-11694997D01*
X-18001664Y-11907129D01*
X-18123570Y-12094917D01*
X-18206499Y-12302879D01*
X-18247263Y-12523025D01*
X-19492185Y-12523025D01*
X-19662991Y-12352219D01*
X-18826164Y-11515392D01*
X-17609927Y-11515392D01*
X-16897163Y-12228156D01*
X-16090387Y-11421380D01*
X-16124829Y-11208513D01*
X-16339044Y-11107213D01*
X-16558031Y-11060629D01*
X-16781899Y-11057661D01*
X-17002045Y-11098425D01*
X-17210007Y-11181354D01*
X-17397795Y-11303260D01*
X-17609927Y-11515392D01*
X-18826164Y-11515392D01*
X-17054867Y-9744095D01*
X-15468334Y-9744095D01*
X-15465366Y-9967963D01*
X-15418781Y-10186950D01*
X-15317482Y-10401165D01*
X-15104615Y-10435607D01*
X-14121062Y-9452054D01*
X-14833826Y-8739290D01*
X-15222734Y-9128199D01*
X-15344641Y-9315987D01*
X-15427570Y-9523949D01*
X-15468334Y-9744095D01*
X-17054867Y-9744095D01*
X-16941587Y-9630815D01*
X-16935509Y-9623409D01*
X-15929595Y-8559685D01*
X-14654221Y-8559685D01*
X-13941457Y-9272449D01*
X-12957904Y-8288896D01*
X-12992346Y-8076029D01*
X-13206561Y-7974730D01*
X-13425548Y-7928145D01*
X-13649416Y-7925177D01*
X-13869562Y-7965941D01*
X-14077524Y-8048870D01*
X-14265312Y-8170777D01*
X-14654221Y-8559685D01*
X-15929595Y-8559685D01*
X-15583118Y-8193296D01*
X-15574795Y-8183888D01*
X-15566206Y-8174742D01*
X-15555314Y-8162034D01*
X-14037774Y-6347076D01*
X-14028950Y-6335781D01*
X-14019835Y-6324685D01*
X-14009809Y-6311283D01*
X-12615888Y-4399740D01*
X-12607835Y-4387891D01*
X-12599472Y-4376210D01*
X-12590378Y-4362205D01*
X-12590356Y-4362172D01*
X-12590343Y-4362150D01*
X-11326187Y-2362452D01*
X-11318944Y-2350106D01*
X-11311366Y-2337885D01*
X-11303201Y-2323275D01*
X-10174340Y-244171D01*
X-10167921Y-231352D01*
X-10161181Y-218676D01*
X-10154002Y-203556D01*
X-9577431Y1050000D01*
X-8013072Y1050000D01*
X-8010000Y885750D01*
X-7851250Y727000D01*
X-7027000Y727000D01*
X-7027000Y1526250D01*
X-7185750Y1685000D01*
X-7375000Y1688072D01*
X-7499482Y1675812D01*
X-7619180Y1639502D01*
X-7729494Y1580537D01*
X-7826185Y1501185D01*
X-7905537Y1404494D01*
X-7964502Y1294180D01*
X-8000812Y1174482D01*
X-8013072Y1050000D01*
X-9577431Y1050000D01*
X-9165412Y1945792D01*
X-9159858Y1959004D01*
X-9153971Y1972103D01*
X-9147810Y1987666D01*
X-8303840Y4197806D01*
X-8299177Y4211347D01*
X-8294168Y4224817D01*
X-8289052Y4240753D01*
X-7593412Y6501968D01*
X-7589658Y6515786D01*
X-7585551Y6529561D01*
X-7581511Y6545769D01*
X-7581502Y6545802D01*
X-7581498Y6545824D01*
X-7037250Y8848147D01*
X-7034414Y8862214D01*
X-7031236Y8876201D01*
X-7028272Y8892673D01*
X-6637803Y11226026D01*
X-6635907Y11240238D01*
X-6633661Y11254417D01*
X-6631796Y11271050D01*
X-6398038Y13613000D01*
X-5455000Y13613000D01*
X-5455000Y13063000D01*
X-5408415Y12844013D01*
X-5320003Y12638322D01*
X-5193161Y12453831D01*
X-5032764Y12297631D01*
X-4844976Y12175724D01*
X-4621874Y12095881D01*
X-4447000Y12222046D01*
X-4447000Y13613000D01*
X-5455000Y13613000D01*
X-6398038Y13613000D01*
X-6396825Y13625152D01*
X-6395877Y13639429D01*
X-6394573Y13653755D01*
X-6393815Y13670475D01*
X-6379971Y14087815D01*
X-6312119Y14081977D01*
X-6285750Y14085000D01*
X-6127000Y14243750D01*
X-6127000Y14863000D01*
X-6147000Y14863000D01*
X-6147000Y15101928D01*
X-5853000Y15101928D01*
X-5853000Y14863000D01*
G37*
G04 #@! TD.AperFunction*
D25*
X-4231519Y-10176359D02*
X-4222918Y-10263688D01*
X-4192185Y-10365000D01*
X-4792089Y-10365000D01*
X-4837359Y-10374005D01*
X-4883292Y-10378529D01*
X-4927462Y-10391928D01*
X-4972729Y-10400932D01*
X-5015369Y-10418594D01*
X-5059540Y-10431993D01*
X-5100248Y-10453752D01*
X-5142889Y-10471414D01*
X-5181264Y-10497055D01*
X-5221972Y-10518814D01*
X-5257653Y-10548097D01*
X-5296028Y-10573738D01*
X-5328665Y-10606375D01*
X-5364344Y-10635656D01*
X-5393625Y-10671335D01*
X-5426262Y-10703972D01*
X-5451903Y-10742347D01*
X-5481186Y-10778028D01*
X-5502945Y-10818736D01*
X-5528586Y-10857111D01*
X-5546248Y-10899752D01*
X-5568007Y-10940460D01*
X-5581406Y-10984631D01*
X-5599068Y-11027271D01*
X-5608072Y-11072538D01*
X-5621471Y-11116708D01*
X-5625995Y-11162641D01*
X-5635000Y-11207911D01*
X-5635000Y-11254068D01*
X-5639524Y-11300000D01*
X-5635000Y-11345932D01*
X-5635000Y-11392089D01*
X-5625995Y-11437359D01*
X-5621471Y-11483292D01*
X-5608072Y-11527462D01*
X-5599068Y-11572729D01*
X-5581406Y-11615369D01*
X-5568007Y-11659540D01*
X-5546248Y-11700248D01*
X-5528586Y-11742889D01*
X-5502945Y-11781264D01*
X-5481186Y-11821972D01*
X-5451903Y-11857653D01*
X-5426262Y-11896028D01*
X-5393625Y-11928665D01*
X-5364344Y-11964344D01*
X-5328665Y-11993625D01*
X-5296028Y-12026262D01*
X-5257653Y-12051903D01*
X-5221972Y-12081186D01*
X-5181264Y-12102945D01*
X-5142889Y-12128586D01*
X-5100248Y-12146248D01*
X-5059540Y-12168007D01*
X-5015369Y-12181406D01*
X-4972729Y-12199068D01*
X-4927462Y-12208072D01*
X-4883292Y-12221471D01*
X-4837359Y-12225995D01*
X-4792089Y-12235000D01*
X-4474250Y-12235000D01*
X-4436250Y-12273000D01*
X-3859289Y-12273000D01*
X-3651574Y-12480715D01*
X-3641471Y-12583291D01*
X-3634500Y-12606273D01*
X-3623122Y-12721794D01*
X-3578845Y-12867755D01*
X-3553000Y-12916108D01*
X-3553000Y-13186250D01*
X-3394250Y-13345000D01*
X-3272652Y-13335235D01*
X-3153122Y-13298377D01*
X-3143491Y-13293172D01*
X-3011794Y-13333122D01*
X-2860000Y-13348072D01*
X-2580000Y-13348072D01*
X-2428206Y-13333122D01*
X-2282245Y-13288845D01*
X-2275052Y-13285000D01*
X-1293981Y-13285000D01*
X-1171311Y-13272918D01*
X-1089404Y-13248072D01*
X-1020000Y-13248072D01*
X-895518Y-13235812D01*
X-775820Y-13199502D01*
X-665506Y-13140537D01*
X-626546Y-13108563D01*
X-530000Y-13118072D01*
X-285750Y-13115000D01*
X-127000Y-12956250D01*
X-127000Y-11827000D01*
X-147000Y-11827000D01*
X-147000Y-11573000D01*
X-127000Y-11573000D01*
X-127000Y-10443750D01*
X127000Y-10443750D01*
X127000Y-11573000D01*
X147000Y-11573000D01*
X147000Y-11827000D01*
X127000Y-11827000D01*
X127000Y-12956250D01*
X285750Y-13115000D01*
X530000Y-13118072D01*
X626697Y-13108549D01*
X678929Y-13149265D01*
X790688Y-13205443D01*
X911260Y-13238738D01*
X1036010Y-13247871D01*
X1049250Y-13245000D01*
X1208000Y-13086250D01*
X1208000Y-10313750D01*
X1462000Y-10313750D01*
X1462000Y-13086250D01*
X1620750Y-13245000D01*
X1633990Y-13247871D01*
X1758740Y-13238738D01*
X1879312Y-13205443D01*
X1991071Y-13149265D01*
X2089722Y-13072364D01*
X2171476Y-12977694D01*
X2233189Y-12868894D01*
X2272491Y-12750145D01*
X2285000Y-12641750D01*
X2148060Y-12504810D01*
X2171476Y-12477694D01*
X2233189Y-12368894D01*
X2262293Y-12280957D01*
X2285000Y-12258250D01*
X2278278Y-12200000D01*
X2285000Y-12141750D01*
X2262293Y-12119043D01*
X2233189Y-12031106D01*
X2187184Y-11950000D01*
X2233189Y-11868894D01*
X2262293Y-11780957D01*
X2285000Y-11758250D01*
X2278278Y-11700000D01*
X2285000Y-11641750D01*
X2262293Y-11619043D01*
X2233189Y-11531106D01*
X2187184Y-11450000D01*
X2233189Y-11368894D01*
X2262293Y-11280957D01*
X2285000Y-11258250D01*
X2278278Y-11200000D01*
X2285000Y-11141750D01*
X2262293Y-11119043D01*
X2233189Y-11031106D01*
X2171476Y-10922306D01*
X2148060Y-10895190D01*
X2285000Y-10758250D01*
X2272491Y-10649855D01*
X2233189Y-10531106D01*
X2171476Y-10422306D01*
X2089722Y-10327636D01*
X1991071Y-10250735D01*
X1879312Y-10194557D01*
X1758740Y-10161262D01*
X1633990Y-10152129D01*
X1620750Y-10155000D01*
X1462000Y-10313750D01*
X1208000Y-10313750D01*
X1049250Y-10155000D01*
X1036010Y-10152129D01*
X911260Y-10161262D01*
X790688Y-10194557D01*
X678929Y-10250735D01*
X626697Y-10291451D01*
X530000Y-10281928D01*
X285750Y-10285000D01*
X127000Y-10443750D01*
X-127000Y-10443750D01*
X-285750Y-10285000D01*
X-530000Y-10281928D01*
X-626546Y-10291437D01*
X-665506Y-10259463D01*
X-775820Y-10200498D01*
X-895518Y-10164188D01*
X-1020000Y-10151928D01*
X-1337931Y-10151928D01*
X-1354859Y-10135000D01*
X7054133Y-10135000D01*
X7538570Y-10619438D01*
X7633854Y-10697636D01*
X7749054Y-10759211D01*
X8586617Y-11596775D01*
X8575771Y-11609990D01*
X8498099Y-11673734D01*
X8285967Y-11885866D01*
X8222223Y-11963538D01*
X8210568Y-11973103D01*
X8073668Y-11836203D01*
X8043298Y-11683523D01*
X7961509Y-11486066D01*
X7842769Y-11308359D01*
X7691641Y-11157231D01*
X7513934Y-11038491D01*
X7316477Y-10956702D01*
X7106857Y-10915006D01*
X6893131Y-10915006D01*
X6683511Y-10956702D01*
X6486054Y-11038491D01*
X6308347Y-11157231D01*
X6157219Y-11308359D01*
X6038479Y-11486066D01*
X5956690Y-11683523D01*
X5914994Y-11893143D01*
X5914994Y-12106869D01*
X5956690Y-12316489D01*
X6038479Y-12513946D01*
X6157219Y-12691653D01*
X6308347Y-12842781D01*
X6486054Y-12961521D01*
X6602741Y-13009854D01*
X6991128Y-13398241D01*
X6777935Y-13398241D01*
X6765687Y-13406145D01*
X6686334Y-13502836D01*
X6627369Y-13613150D01*
X6591060Y-13732848D01*
X6578800Y-13857330D01*
X6591060Y-13981811D01*
X6627369Y-14101509D01*
X6686334Y-14211823D01*
X6765687Y-14308515D01*
X6849634Y-14391296D01*
X6848501Y-14398299D01*
X7832054Y-15381852D01*
X7839927Y-15373979D01*
X7887683Y-15413172D01*
X7896225Y-15417738D01*
X8025802Y-15547315D01*
X8011659Y-15561457D01*
X8025802Y-15575600D01*
X7846197Y-15755205D01*
X7832054Y-15741062D01*
X7119290Y-16453826D01*
X7270425Y-16604961D01*
X7173288Y-16635743D01*
X7063712Y-16696065D01*
X6968008Y-16776605D01*
X6951500Y-16797389D01*
X6951500Y-17021895D01*
X7389376Y-17459771D01*
X7403519Y-17445629D01*
X7572466Y-17614576D01*
X7364576Y-17822466D01*
X7195629Y-17653519D01*
X7209771Y-17639376D01*
X6771895Y-17201500D01*
X6547389Y-17201500D01*
X6526605Y-17218008D01*
X6461001Y-17295964D01*
X6056084Y-17007139D01*
X6045932Y-17000795D01*
X6036378Y-16993596D01*
X5985155Y-16962818D01*
X4839430Y-16340741D01*
X4828585Y-16335684D01*
X4818222Y-16329701D01*
X4763630Y-16305395D01*
X3550634Y-15827583D01*
X3539253Y-15823885D01*
X3528239Y-15819210D01*
X3471091Y-15801738D01*
X2208906Y-15475314D01*
X2197151Y-15473029D01*
X2185656Y-15469733D01*
X2126805Y-15459355D01*
X834246Y-15289187D01*
X822305Y-15288352D01*
X810491Y-15286481D01*
X750814Y-15283353D01*
X-552849Y-15271976D01*
X-564804Y-15272602D01*
X-576758Y-15272185D01*
X-636368Y-15276353D01*
X-636374Y-15276353D01*
X-1931703Y-15423937D01*
X-1943489Y-15426015D01*
X-1955408Y-15427058D01*
X-2014069Y-15438461D01*
X-3281759Y-15742807D01*
X-3293207Y-15746307D01*
X-3304907Y-15748794D01*
X-3361742Y-15767260D01*
X-4582892Y-16223830D01*
X-4593824Y-16228697D01*
X-4605138Y-16232593D01*
X-4659298Y-16257848D01*
X-5815705Y-16859834D01*
X-5825972Y-16866003D01*
X-5836717Y-16871244D01*
X-5887396Y-16902911D01*
X-6460374Y-17296709D01*
X-6526605Y-17218008D01*
X-6547389Y-17201500D01*
X-6771895Y-17201500D01*
X-7209771Y-17639376D01*
X-7195629Y-17653519D01*
X-7364576Y-17822466D01*
X-7572466Y-17614576D01*
X-7403519Y-17445629D01*
X-7389376Y-17459771D01*
X-6951500Y-17021895D01*
X-6951500Y-16797389D01*
X-6968008Y-16776605D01*
X-7063712Y-16696065D01*
X-7173288Y-16635743D01*
X-7270425Y-16604961D01*
X-7119290Y-16453826D01*
X-7832054Y-15741062D01*
X-7846197Y-15755205D01*
X-8025802Y-15575600D01*
X-8011659Y-15561457D01*
X-7652449Y-15561457D01*
X-6939685Y-16274221D01*
X-6550777Y-15885312D01*
X-6428870Y-15697524D01*
X-6345941Y-15489562D01*
X-6305177Y-15269416D01*
X6305177Y-15269416D01*
X6345941Y-15489562D01*
X6428870Y-15697524D01*
X6550777Y-15885312D01*
X6939685Y-16274221D01*
X7652449Y-15561457D01*
X6668896Y-14577904D01*
X6456029Y-14612346D01*
X6354730Y-14826561D01*
X6308145Y-15045548D01*
X6305177Y-15269416D01*
X-6305177Y-15269416D01*
X-6308145Y-15045548D01*
X-6354730Y-14826561D01*
X-6456029Y-14612346D01*
X-6668896Y-14577904D01*
X-7652449Y-15561457D01*
X-8011659Y-15561457D01*
X-8025802Y-15547315D01*
X-7896225Y-15417738D01*
X-7887683Y-15413172D01*
X-7839927Y-15373979D01*
X-7832054Y-15381852D01*
X-6848501Y-14398299D01*
X-6849634Y-14391296D01*
X-6765687Y-14308515D01*
X-6686334Y-14211823D01*
X-6627369Y-14101509D01*
X-6591060Y-13981811D01*
X-6578800Y-13857330D01*
X-6591060Y-13732848D01*
X-6627369Y-13613150D01*
X-6686334Y-13502836D01*
X-6765687Y-13406145D01*
X-6777935Y-13398241D01*
X-6991128Y-13398241D01*
X-6621340Y-13028453D01*
X-6585656Y-12999168D01*
X-6468814Y-12856796D01*
X-6408330Y-12743637D01*
X-6388788Y-12707077D01*
X-4598065Y-12707077D01*
X-4586375Y-12831613D01*
X-4550614Y-12951476D01*
X-4492156Y-13062059D01*
X-4413247Y-13159113D01*
X-4316921Y-13238908D01*
X-4206878Y-13298377D01*
X-4087348Y-13335235D01*
X-3965750Y-13345000D01*
X-3807000Y-13186250D01*
X-3807000Y-12527000D01*
X-4436250Y-12527000D01*
X-4595000Y-12685750D01*
X-4598065Y-12707077D01*
X-6388788Y-12707077D01*
X-6381993Y-12694365D01*
X-6328528Y-12518116D01*
X-6310476Y-12334824D01*
X-6315000Y-12288889D01*
X-6315000Y-11803623D01*
X-6288485Y-11763940D01*
X-6206696Y-11566483D01*
X-6165000Y-11356863D01*
X-6165000Y-11143137D01*
X-6206696Y-10933517D01*
X-6288485Y-10736060D01*
X-6407225Y-10558353D01*
X-6558353Y-10407225D01*
X-6736060Y-10288485D01*
X-6933517Y-10206696D01*
X-7143137Y-10165000D01*
X-7356863Y-10165000D01*
X-7566483Y-10206696D01*
X-7763940Y-10288485D01*
X-7833671Y-10335078D01*
X-7843413Y-10311558D01*
X-7945737Y-10158419D01*
X-7969156Y-10135000D01*
X-4235593Y-10135000D01*
X-4231519Y-10176359D01*
G04 #@! TA.AperFunction,Conductor*
D28*
G36*
X-4231519Y-10176359D02*
G01*
X-4222918Y-10263688D01*
X-4192185Y-10365000D01*
X-4792089Y-10365000D01*
X-4837359Y-10374005D01*
X-4883292Y-10378529D01*
X-4927462Y-10391928D01*
X-4972729Y-10400932D01*
X-5015369Y-10418594D01*
X-5059540Y-10431993D01*
X-5100248Y-10453752D01*
X-5142889Y-10471414D01*
X-5181264Y-10497055D01*
X-5221972Y-10518814D01*
X-5257653Y-10548097D01*
X-5296028Y-10573738D01*
X-5328665Y-10606375D01*
X-5364344Y-10635656D01*
X-5393625Y-10671335D01*
X-5426262Y-10703972D01*
X-5451903Y-10742347D01*
X-5481186Y-10778028D01*
X-5502945Y-10818736D01*
X-5528586Y-10857111D01*
X-5546248Y-10899752D01*
X-5568007Y-10940460D01*
X-5581406Y-10984631D01*
X-5599068Y-11027271D01*
X-5608072Y-11072538D01*
X-5621471Y-11116708D01*
X-5625995Y-11162641D01*
X-5635000Y-11207911D01*
X-5635000Y-11254068D01*
X-5639524Y-11300000D01*
X-5635000Y-11345932D01*
X-5635000Y-11392089D01*
X-5625995Y-11437359D01*
X-5621471Y-11483292D01*
X-5608072Y-11527462D01*
X-5599068Y-11572729D01*
X-5581406Y-11615369D01*
X-5568007Y-11659540D01*
X-5546248Y-11700248D01*
X-5528586Y-11742889D01*
X-5502945Y-11781264D01*
X-5481186Y-11821972D01*
X-5451903Y-11857653D01*
X-5426262Y-11896028D01*
X-5393625Y-11928665D01*
X-5364344Y-11964344D01*
X-5328665Y-11993625D01*
X-5296028Y-12026262D01*
X-5257653Y-12051903D01*
X-5221972Y-12081186D01*
X-5181264Y-12102945D01*
X-5142889Y-12128586D01*
X-5100248Y-12146248D01*
X-5059540Y-12168007D01*
X-5015369Y-12181406D01*
X-4972729Y-12199068D01*
X-4927462Y-12208072D01*
X-4883292Y-12221471D01*
X-4837359Y-12225995D01*
X-4792089Y-12235000D01*
X-4474250Y-12235000D01*
X-4436250Y-12273000D01*
X-3859289Y-12273000D01*
X-3651574Y-12480715D01*
X-3641471Y-12583291D01*
X-3634500Y-12606273D01*
X-3623122Y-12721794D01*
X-3578845Y-12867755D01*
X-3553000Y-12916108D01*
X-3553000Y-13186250D01*
X-3394250Y-13345000D01*
X-3272652Y-13335235D01*
X-3153122Y-13298377D01*
X-3143491Y-13293172D01*
X-3011794Y-13333122D01*
X-2860000Y-13348072D01*
X-2580000Y-13348072D01*
X-2428206Y-13333122D01*
X-2282245Y-13288845D01*
X-2275052Y-13285000D01*
X-1293981Y-13285000D01*
X-1171311Y-13272918D01*
X-1089404Y-13248072D01*
X-1020000Y-13248072D01*
X-895518Y-13235812D01*
X-775820Y-13199502D01*
X-665506Y-13140537D01*
X-626546Y-13108563D01*
X-530000Y-13118072D01*
X-285750Y-13115000D01*
X-127000Y-12956250D01*
X-127000Y-11827000D01*
X-147000Y-11827000D01*
X-147000Y-11573000D01*
X-127000Y-11573000D01*
X-127000Y-10443750D01*
X127000Y-10443750D01*
X127000Y-11573000D01*
X147000Y-11573000D01*
X147000Y-11827000D01*
X127000Y-11827000D01*
X127000Y-12956250D01*
X285750Y-13115000D01*
X530000Y-13118072D01*
X626697Y-13108549D01*
X678929Y-13149265D01*
X790688Y-13205443D01*
X911260Y-13238738D01*
X1036010Y-13247871D01*
X1049250Y-13245000D01*
X1208000Y-13086250D01*
X1208000Y-10313750D01*
X1462000Y-10313750D01*
X1462000Y-13086250D01*
X1620750Y-13245000D01*
X1633990Y-13247871D01*
X1758740Y-13238738D01*
X1879312Y-13205443D01*
X1991071Y-13149265D01*
X2089722Y-13072364D01*
X2171476Y-12977694D01*
X2233189Y-12868894D01*
X2272491Y-12750145D01*
X2285000Y-12641750D01*
X2148060Y-12504810D01*
X2171476Y-12477694D01*
X2233189Y-12368894D01*
X2262293Y-12280957D01*
X2285000Y-12258250D01*
X2278278Y-12200000D01*
X2285000Y-12141750D01*
X2262293Y-12119043D01*
X2233189Y-12031106D01*
X2187184Y-11950000D01*
X2233189Y-11868894D01*
X2262293Y-11780957D01*
X2285000Y-11758250D01*
X2278278Y-11700000D01*
X2285000Y-11641750D01*
X2262293Y-11619043D01*
X2233189Y-11531106D01*
X2187184Y-11450000D01*
X2233189Y-11368894D01*
X2262293Y-11280957D01*
X2285000Y-11258250D01*
X2278278Y-11200000D01*
X2285000Y-11141750D01*
X2262293Y-11119043D01*
X2233189Y-11031106D01*
X2171476Y-10922306D01*
X2148060Y-10895190D01*
X2285000Y-10758250D01*
X2272491Y-10649855D01*
X2233189Y-10531106D01*
X2171476Y-10422306D01*
X2089722Y-10327636D01*
X1991071Y-10250735D01*
X1879312Y-10194557D01*
X1758740Y-10161262D01*
X1633990Y-10152129D01*
X1620750Y-10155000D01*
X1462000Y-10313750D01*
X1208000Y-10313750D01*
X1049250Y-10155000D01*
X1036010Y-10152129D01*
X911260Y-10161262D01*
X790688Y-10194557D01*
X678929Y-10250735D01*
X626697Y-10291451D01*
X530000Y-10281928D01*
X285750Y-10285000D01*
X127000Y-10443750D01*
X-127000Y-10443750D01*
X-285750Y-10285000D01*
X-530000Y-10281928D01*
X-626546Y-10291437D01*
X-665506Y-10259463D01*
X-775820Y-10200498D01*
X-895518Y-10164188D01*
X-1020000Y-10151928D01*
X-1337931Y-10151928D01*
X-1354859Y-10135000D01*
X7054133Y-10135000D01*
X7538570Y-10619438D01*
X7633854Y-10697636D01*
X7749054Y-10759211D01*
X8586617Y-11596775D01*
X8575771Y-11609990D01*
X8498099Y-11673734D01*
X8285967Y-11885866D01*
X8222223Y-11963538D01*
X8210568Y-11973103D01*
X8073668Y-11836203D01*
X8043298Y-11683523D01*
X7961509Y-11486066D01*
X7842769Y-11308359D01*
X7691641Y-11157231D01*
X7513934Y-11038491D01*
X7316477Y-10956702D01*
X7106857Y-10915006D01*
X6893131Y-10915006D01*
X6683511Y-10956702D01*
X6486054Y-11038491D01*
X6308347Y-11157231D01*
X6157219Y-11308359D01*
X6038479Y-11486066D01*
X5956690Y-11683523D01*
X5914994Y-11893143D01*
X5914994Y-12106869D01*
X5956690Y-12316489D01*
X6038479Y-12513946D01*
X6157219Y-12691653D01*
X6308347Y-12842781D01*
X6486054Y-12961521D01*
X6602741Y-13009854D01*
X6991128Y-13398241D01*
X6777935Y-13398241D01*
X6765687Y-13406145D01*
X6686334Y-13502836D01*
X6627369Y-13613150D01*
X6591060Y-13732848D01*
X6578800Y-13857330D01*
X6591060Y-13981811D01*
X6627369Y-14101509D01*
X6686334Y-14211823D01*
X6765687Y-14308515D01*
X6849634Y-14391296D01*
X6848501Y-14398299D01*
X7832054Y-15381852D01*
X7839927Y-15373979D01*
X7887683Y-15413172D01*
X7896225Y-15417738D01*
X8025802Y-15547315D01*
X8011659Y-15561457D01*
X8025802Y-15575600D01*
X7846197Y-15755205D01*
X7832054Y-15741062D01*
X7119290Y-16453826D01*
X7270425Y-16604961D01*
X7173288Y-16635743D01*
X7063712Y-16696065D01*
X6968008Y-16776605D01*
X6951500Y-16797389D01*
X6951500Y-17021895D01*
X7389376Y-17459771D01*
X7403519Y-17445629D01*
X7572466Y-17614576D01*
X7364576Y-17822466D01*
X7195629Y-17653519D01*
X7209771Y-17639376D01*
X6771895Y-17201500D01*
X6547389Y-17201500D01*
X6526605Y-17218008D01*
X6461001Y-17295964D01*
X6056084Y-17007139D01*
X6045932Y-17000795D01*
X6036378Y-16993596D01*
X5985155Y-16962818D01*
X4839430Y-16340741D01*
X4828585Y-16335684D01*
X4818222Y-16329701D01*
X4763630Y-16305395D01*
X3550634Y-15827583D01*
X3539253Y-15823885D01*
X3528239Y-15819210D01*
X3471091Y-15801738D01*
X2208906Y-15475314D01*
X2197151Y-15473029D01*
X2185656Y-15469733D01*
X2126805Y-15459355D01*
X834246Y-15289187D01*
X822305Y-15288352D01*
X810491Y-15286481D01*
X750814Y-15283353D01*
X-552849Y-15271976D01*
X-564804Y-15272602D01*
X-576758Y-15272185D01*
X-636368Y-15276353D01*
X-636374Y-15276353D01*
X-1931703Y-15423937D01*
X-1943489Y-15426015D01*
X-1955408Y-15427058D01*
X-2014069Y-15438461D01*
X-3281759Y-15742807D01*
X-3293207Y-15746307D01*
X-3304907Y-15748794D01*
X-3361742Y-15767260D01*
X-4582892Y-16223830D01*
X-4593824Y-16228697D01*
X-4605138Y-16232593D01*
X-4659298Y-16257848D01*
X-5815705Y-16859834D01*
X-5825972Y-16866003D01*
X-5836717Y-16871244D01*
X-5887396Y-16902911D01*
X-6460374Y-17296709D01*
X-6526605Y-17218008D01*
X-6547389Y-17201500D01*
X-6771895Y-17201500D01*
X-7209771Y-17639376D01*
X-7195629Y-17653519D01*
X-7364576Y-17822466D01*
X-7572466Y-17614576D01*
X-7403519Y-17445629D01*
X-7389376Y-17459771D01*
X-6951500Y-17021895D01*
X-6951500Y-16797389D01*
X-6968008Y-16776605D01*
X-7063712Y-16696065D01*
X-7173288Y-16635743D01*
X-7270425Y-16604961D01*
X-7119290Y-16453826D01*
X-7832054Y-15741062D01*
X-7846197Y-15755205D01*
X-8025802Y-15575600D01*
X-8011659Y-15561457D01*
X-7652449Y-15561457D01*
X-6939685Y-16274221D01*
X-6550777Y-15885312D01*
X-6428870Y-15697524D01*
X-6345941Y-15489562D01*
X-6305177Y-15269416D01*
X6305177Y-15269416D01*
X6345941Y-15489562D01*
X6428870Y-15697524D01*
X6550777Y-15885312D01*
X6939685Y-16274221D01*
X7652449Y-15561457D01*
X6668896Y-14577904D01*
X6456029Y-14612346D01*
X6354730Y-14826561D01*
X6308145Y-15045548D01*
X6305177Y-15269416D01*
X-6305177Y-15269416D01*
X-6308145Y-15045548D01*
X-6354730Y-14826561D01*
X-6456029Y-14612346D01*
X-6668896Y-14577904D01*
X-7652449Y-15561457D01*
X-8011659Y-15561457D01*
X-8025802Y-15547315D01*
X-7896225Y-15417738D01*
X-7887683Y-15413172D01*
X-7839927Y-15373979D01*
X-7832054Y-15381852D01*
X-6848501Y-14398299D01*
X-6849634Y-14391296D01*
X-6765687Y-14308515D01*
X-6686334Y-14211823D01*
X-6627369Y-14101509D01*
X-6591060Y-13981811D01*
X-6578800Y-13857330D01*
X-6591060Y-13732848D01*
X-6627369Y-13613150D01*
X-6686334Y-13502836D01*
X-6765687Y-13406145D01*
X-6777935Y-13398241D01*
X-6991128Y-13398241D01*
X-6621340Y-13028453D01*
X-6585656Y-12999168D01*
X-6468814Y-12856796D01*
X-6408330Y-12743637D01*
X-6388788Y-12707077D01*
X-4598065Y-12707077D01*
X-4586375Y-12831613D01*
X-4550614Y-12951476D01*
X-4492156Y-13062059D01*
X-4413247Y-13159113D01*
X-4316921Y-13238908D01*
X-4206878Y-13298377D01*
X-4087348Y-13335235D01*
X-3965750Y-13345000D01*
X-3807000Y-13186250D01*
X-3807000Y-12527000D01*
X-4436250Y-12527000D01*
X-4595000Y-12685750D01*
X-4598065Y-12707077D01*
X-6388788Y-12707077D01*
X-6381993Y-12694365D01*
X-6328528Y-12518116D01*
X-6310476Y-12334824D01*
X-6315000Y-12288889D01*
X-6315000Y-11803623D01*
X-6288485Y-11763940D01*
X-6206696Y-11566483D01*
X-6165000Y-11356863D01*
X-6165000Y-11143137D01*
X-6206696Y-10933517D01*
X-6288485Y-10736060D01*
X-6407225Y-10558353D01*
X-6558353Y-10407225D01*
X-6736060Y-10288485D01*
X-6933517Y-10206696D01*
X-7143137Y-10165000D01*
X-7356863Y-10165000D01*
X-7566483Y-10206696D01*
X-7763940Y-10288485D01*
X-7833671Y-10335078D01*
X-7843413Y-10311558D01*
X-7945737Y-10158419D01*
X-7969156Y-10135000D01*
X-4235593Y-10135000D01*
X-4231519Y-10176359D01*
G37*
G04 #@! TD.AperFunction*
D25*
X-7335000Y-7347000D02*
X-7407000Y-7347000D01*
X-7407000Y-7327000D01*
X-7427000Y-7327000D01*
X-7427000Y-7073000D01*
X-7407000Y-7073000D01*
X-7407000Y-7053000D01*
X-7335000Y-7053000D01*
X-7335000Y-7347000D01*
G04 #@! TA.AperFunction,Conductor*
D28*
G36*
X-7335000Y-7347000D02*
G01*
X-7407000Y-7347000D01*
X-7407000Y-7327000D01*
X-7427000Y-7327000D01*
X-7427000Y-7073000D01*
X-7407000Y-7073000D01*
X-7407000Y-7053000D01*
X-7335000Y-7053000D01*
X-7335000Y-7347000D01*
G37*
G04 #@! TD.AperFunction*
D25*
X-8235000Y-6297051D02*
X-8226579Y-6382553D01*
X-9152172Y-5456960D01*
X-9083517Y-5443304D01*
X-8886060Y-5361515D01*
X-8846377Y-5335000D01*
X-8235000Y-5335000D01*
X-8235000Y-6297051D01*
G04 #@! TA.AperFunction,Conductor*
D28*
G36*
X-8235000Y-6297051D02*
G01*
X-8226579Y-6382553D01*
X-9152172Y-5456960D01*
X-9083517Y-5443304D01*
X-8886060Y-5361515D01*
X-8846377Y-5335000D01*
X-8235000Y-5335000D01*
X-8235000Y-6297051D01*
G37*
G04 #@! TD.AperFunction*
D25*
X127000Y2127000D02*
X147000Y2127000D01*
X147000Y1873000D01*
X127000Y1873000D01*
X127000Y1853000D01*
X-127000Y1853000D01*
X-127000Y1873000D01*
X-147000Y1873000D01*
X-147000Y2127000D01*
X-127000Y2127000D01*
X-127000Y2147000D01*
X127000Y2147000D01*
X127000Y2127000D01*
G04 #@! TA.AperFunction,Conductor*
D28*
G36*
X127000Y2127000D02*
G01*
X147000Y2127000D01*
X147000Y1873000D01*
X127000Y1873000D01*
X127000Y1853000D01*
X-127000Y1853000D01*
X-127000Y1873000D01*
X-147000Y1873000D01*
X-147000Y2127000D01*
X-127000Y2127000D01*
X-127000Y2147000D01*
X127000Y2147000D01*
X127000Y2127000D01*
G37*
G04 #@! TD.AperFunction*
D25*
X6315001Y16905268D02*
X6185000Y16918072D01*
X5815000Y16918072D01*
X5664181Y16903218D01*
X5519158Y16859225D01*
X5385504Y16787786D01*
X5382109Y16785000D01*
X5091674Y16785000D01*
X5193161Y16883831D01*
X5320003Y17068322D01*
X5408415Y17274013D01*
X5455000Y17493000D01*
X5455000Y17793000D01*
X4447000Y17793000D01*
X4447000Y17773000D01*
X4193000Y17773000D01*
X4193000Y17793000D01*
X3185000Y17793000D01*
X3185000Y17493000D01*
X3231585Y17274013D01*
X3319997Y17068322D01*
X3446839Y16883831D01*
X3548326Y16785000D01*
X3438552Y16785000D01*
X3399999Y16788797D01*
X3361446Y16785000D01*
X3361439Y16785000D01*
X3260490Y16775057D01*
X3246112Y16773641D01*
X3118668Y16734981D01*
X3098140Y16728754D01*
X2961767Y16655862D01*
X2928911Y16628897D01*
X2872187Y16582345D01*
X2872184Y16582342D01*
X2842236Y16557764D01*
X2817658Y16527816D01*
X722185Y14432342D01*
X692237Y14407764D01*
X675778Y14387709D01*
X559834Y14482863D01*
X423461Y14555755D01*
X275488Y14600642D01*
X160162Y14612001D01*
X160154Y14612001D01*
X121601Y14615798D01*
X83048Y14612001D01*
X-583045Y14612001D01*
X-621601Y14615798D01*
X-660156Y14612001D01*
X-660162Y14612001D01*
X-704552Y14607629D01*
X-775487Y14600643D01*
X-847736Y14578726D01*
X-923461Y14555755D01*
X-1059834Y14482863D01*
X-1092472Y14456078D01*
X-1094138Y14459195D01*
X-1143550Y14519403D01*
X-1167655Y14548775D01*
X-1167658Y14548778D01*
X-1192236Y14578726D01*
X-1222184Y14603304D01*
X-3146691Y16527810D01*
X-3171274Y16557764D01*
X-3290805Y16655862D01*
X-3427178Y16728754D01*
X-3563591Y16770134D01*
X-3446839Y16883831D01*
X-3319997Y17068322D01*
X-3231585Y17274013D01*
X-3185000Y17493000D01*
X-3185000Y17793000D01*
X-4193000Y17793000D01*
X-4193000Y17773000D01*
X-4447000Y17773000D01*
X-4447000Y17793000D01*
X-5455000Y17793000D01*
X-5455000Y17493000D01*
X-5408415Y17274013D01*
X-5320003Y17068322D01*
X-5193161Y16883831D01*
X-5091674Y16785000D01*
X-5382109Y16785000D01*
X-5385504Y16787786D01*
X-5519158Y16859225D01*
X-5664181Y16903218D01*
X-5815000Y16918072D01*
X-6185000Y16918072D01*
X-6315000Y16905268D01*
X-6315000Y18347000D01*
X-5455000Y18347000D01*
X-5455000Y18047000D01*
X-4447000Y18047000D01*
X-4447000Y19187954D01*
X-4193000Y19187954D01*
X-4193000Y18047000D01*
X-3185000Y18047000D01*
X-3185000Y18347000D01*
X3185000Y18347000D01*
X3185000Y18047000D01*
X4193000Y18047000D01*
X4193000Y19187954D01*
X4447000Y19187954D01*
X4447000Y18047000D01*
X5455000Y18047000D01*
X5455000Y18347000D01*
X5408415Y18565987D01*
X5320003Y18771678D01*
X5193161Y18956169D01*
X5032764Y19112369D01*
X4844976Y19234276D01*
X4621874Y19314119D01*
X4447000Y19187954D01*
X4193000Y19187954D01*
X4018126Y19314119D01*
X3795024Y19234276D01*
X3607236Y19112369D01*
X3446839Y18956169D01*
X3319997Y18771678D01*
X3231585Y18565987D01*
X3185000Y18347000D01*
X-3185000Y18347000D01*
X-3231585Y18565987D01*
X-3319997Y18771678D01*
X-3446839Y18956169D01*
X-3607236Y19112369D01*
X-3795024Y19234276D01*
X-4018126Y19314119D01*
X-4193000Y19187954D01*
X-4447000Y19187954D01*
X-4621874Y19314119D01*
X-4844976Y19234276D01*
X-5032764Y19112369D01*
X-5193161Y18956169D01*
X-5320003Y18771678D01*
X-5408415Y18565987D01*
X-5455000Y18347000D01*
X-6315000Y18347000D01*
X-6315000Y19872683D01*
X6315000Y19872683D01*
X6315001Y16905268D01*
G04 #@! TA.AperFunction,Conductor*
D28*
G36*
X6315001Y16905268D02*
G01*
X6185000Y16918072D01*
X5815000Y16918072D01*
X5664181Y16903218D01*
X5519158Y16859225D01*
X5385504Y16787786D01*
X5382109Y16785000D01*
X5091674Y16785000D01*
X5193161Y16883831D01*
X5320003Y17068322D01*
X5408415Y17274013D01*
X5455000Y17493000D01*
X5455000Y17793000D01*
X4447000Y17793000D01*
X4447000Y17773000D01*
X4193000Y17773000D01*
X4193000Y17793000D01*
X3185000Y17793000D01*
X3185000Y17493000D01*
X3231585Y17274013D01*
X3319997Y17068322D01*
X3446839Y16883831D01*
X3548326Y16785000D01*
X3438552Y16785000D01*
X3399999Y16788797D01*
X3361446Y16785000D01*
X3361439Y16785000D01*
X3260490Y16775057D01*
X3246112Y16773641D01*
X3118668Y16734981D01*
X3098140Y16728754D01*
X2961767Y16655862D01*
X2928911Y16628897D01*
X2872187Y16582345D01*
X2872184Y16582342D01*
X2842236Y16557764D01*
X2817658Y16527816D01*
X722185Y14432342D01*
X692237Y14407764D01*
X675778Y14387709D01*
X559834Y14482863D01*
X423461Y14555755D01*
X275488Y14600642D01*
X160162Y14612001D01*
X160154Y14612001D01*
X121601Y14615798D01*
X83048Y14612001D01*
X-583045Y14612001D01*
X-621601Y14615798D01*
X-660156Y14612001D01*
X-660162Y14612001D01*
X-704552Y14607629D01*
X-775487Y14600643D01*
X-847736Y14578726D01*
X-923461Y14555755D01*
X-1059834Y14482863D01*
X-1092472Y14456078D01*
X-1094138Y14459195D01*
X-1143550Y14519403D01*
X-1167655Y14548775D01*
X-1167658Y14548778D01*
X-1192236Y14578726D01*
X-1222184Y14603304D01*
X-3146691Y16527810D01*
X-3171274Y16557764D01*
X-3290805Y16655862D01*
X-3427178Y16728754D01*
X-3563591Y16770134D01*
X-3446839Y16883831D01*
X-3319997Y17068322D01*
X-3231585Y17274013D01*
X-3185000Y17493000D01*
X-3185000Y17793000D01*
X-4193000Y17793000D01*
X-4193000Y17773000D01*
X-4447000Y17773000D01*
X-4447000Y17793000D01*
X-5455000Y17793000D01*
X-5455000Y17493000D01*
X-5408415Y17274013D01*
X-5320003Y17068322D01*
X-5193161Y16883831D01*
X-5091674Y16785000D01*
X-5382109Y16785000D01*
X-5385504Y16787786D01*
X-5519158Y16859225D01*
X-5664181Y16903218D01*
X-5815000Y16918072D01*
X-6185000Y16918072D01*
X-6315000Y16905268D01*
X-6315000Y18347000D01*
X-5455000Y18347000D01*
X-5455000Y18047000D01*
X-4447000Y18047000D01*
X-4447000Y19187954D01*
X-4193000Y19187954D01*
X-4193000Y18047000D01*
X-3185000Y18047000D01*
X-3185000Y18347000D01*
X3185000Y18347000D01*
X3185000Y18047000D01*
X4193000Y18047000D01*
X4193000Y19187954D01*
X4447000Y19187954D01*
X4447000Y18047000D01*
X5455000Y18047000D01*
X5455000Y18347000D01*
X5408415Y18565987D01*
X5320003Y18771678D01*
X5193161Y18956169D01*
X5032764Y19112369D01*
X4844976Y19234276D01*
X4621874Y19314119D01*
X4447000Y19187954D01*
X4193000Y19187954D01*
X4018126Y19314119D01*
X3795024Y19234276D01*
X3607236Y19112369D01*
X3446839Y18956169D01*
X3319997Y18771678D01*
X3231585Y18565987D01*
X3185000Y18347000D01*
X-3185000Y18347000D01*
X-3231585Y18565987D01*
X-3319997Y18771678D01*
X-3446839Y18956169D01*
X-3607236Y19112369D01*
X-3795024Y19234276D01*
X-4018126Y19314119D01*
X-4193000Y19187954D01*
X-4447000Y19187954D01*
X-4621874Y19314119D01*
X-4844976Y19234276D01*
X-5032764Y19112369D01*
X-5193161Y18956169D01*
X-5320003Y18771678D01*
X-5408415Y18565987D01*
X-5455000Y18347000D01*
X-6315000Y18347000D01*
X-6315000Y19872683D01*
X6315000Y19872683D01*
X6315001Y16905268D01*
G37*
G04 #@! TD.AperFunction*
D25*
X-7153000Y-4273000D02*
X-7133000Y-4273000D01*
X-7133000Y-4527000D01*
X-7153000Y-4527000D01*
X-7153000Y-5186250D01*
X-7077000Y-5262250D01*
X-7077000Y-5348358D01*
X-7348169Y-5619527D01*
X-7379910Y-5658203D01*
X-7403496Y-5702328D01*
X-7418020Y-5750207D01*
X-7422924Y-5800000D01*
X-7418020Y-5849793D01*
X-7403496Y-5897672D01*
X-7379910Y-5941797D01*
X-7348169Y-5980473D01*
X-7158591Y-6170051D01*
X-7473000Y-6170051D01*
X-7473000Y-5252250D01*
X-7407000Y-5186250D01*
X-7407000Y-4527000D01*
X-7427000Y-4527000D01*
X-7427000Y-4273000D01*
X-7407000Y-4273000D01*
X-7407000Y-4253000D01*
X-7153000Y-4253000D01*
X-7153000Y-4273000D01*
G04 #@! TA.AperFunction,Conductor*
D28*
G36*
X-7153000Y-4273000D02*
G01*
X-7133000Y-4273000D01*
X-7133000Y-4527000D01*
X-7153000Y-4527000D01*
X-7153000Y-5186250D01*
X-7077000Y-5262250D01*
X-7077000Y-5348358D01*
X-7348169Y-5619527D01*
X-7379910Y-5658203D01*
X-7403496Y-5702328D01*
X-7418020Y-5750207D01*
X-7422924Y-5800000D01*
X-7418020Y-5849793D01*
X-7403496Y-5897672D01*
X-7379910Y-5941797D01*
X-7348169Y-5980473D01*
X-7158591Y-6170051D01*
X-7473000Y-6170051D01*
X-7473000Y-5252250D01*
X-7407000Y-5186250D01*
X-7407000Y-4527000D01*
X-7427000Y-4527000D01*
X-7427000Y-4273000D01*
X-7407000Y-4273000D01*
X-7407000Y-4253000D01*
X-7153000Y-4253000D01*
X-7153000Y-4273000D01*
G37*
G04 #@! TD.AperFunction*
D25*
X-6127000Y-6347750D02*
X-6193000Y-6413750D01*
X-6193000Y-7073000D01*
X-6173000Y-7073000D01*
X-6173000Y-7327000D01*
X-6193000Y-7327000D01*
X-6193000Y-7347000D01*
X-6447000Y-7347000D01*
X-6447000Y-7327000D01*
X-6467000Y-7327000D01*
X-6467000Y-7073000D01*
X-6447000Y-7073000D01*
X-6447000Y-6413750D01*
X-6566054Y-6294696D01*
X-6348358Y-6077000D01*
X-6127000Y-6077000D01*
X-6127000Y-6347750D01*
G04 #@! TA.AperFunction,Conductor*
D28*
G36*
X-6127000Y-6347750D02*
G01*
X-6193000Y-6413750D01*
X-6193000Y-7073000D01*
X-6173000Y-7073000D01*
X-6173000Y-7327000D01*
X-6193000Y-7327000D01*
X-6193000Y-7347000D01*
X-6447000Y-7347000D01*
X-6447000Y-7327000D01*
X-6467000Y-7327000D01*
X-6467000Y-7073000D01*
X-6447000Y-7073000D01*
X-6447000Y-6413750D01*
X-6566054Y-6294696D01*
X-6348358Y-6077000D01*
X-6127000Y-6077000D01*
X-6127000Y-6347750D01*
G37*
G04 #@! TD.AperFunction*
D25*
X4473000Y-13873000D02*
X-3373000Y-13873000D01*
X-3373000Y-12220475D01*
X-3274000Y-12319475D01*
X-3274000Y-12427211D01*
X-3265984Y-12508602D01*
X-3255228Y-12544059D01*
X-3255228Y-12570000D01*
X-3247634Y-12647105D01*
X-3225143Y-12721247D01*
X-3188620Y-12789577D01*
X-3139468Y-12849468D01*
X-3079577Y-12898620D01*
X-3011247Y-12935143D01*
X-2937105Y-12957634D01*
X-2860000Y-12965228D01*
X-2580000Y-12965228D01*
X-2502895Y-12957634D01*
X-2428753Y-12935143D01*
X-2370488Y-12904000D01*
X-1312705Y-12904000D01*
X-1246001Y-12897430D01*
X-1160421Y-12871470D01*
X-1148743Y-12865228D01*
X-1020000Y-12865228D01*
X-970207Y-12860324D01*
X-922328Y-12845800D01*
X-878203Y-12822214D01*
X-839527Y-12790473D01*
X-807786Y-12751797D01*
X-784200Y-12707672D01*
X-769676Y-12659793D01*
X-764772Y-12610000D01*
X-764772Y-12290000D01*
X-769676Y-12240207D01*
X-784200Y-12192328D01*
X-807786Y-12148203D01*
X-839527Y-12109527D01*
X-878203Y-12077786D01*
X-922328Y-12054200D01*
X-970207Y-12039676D01*
X-1020000Y-12034772D01*
X-1148743Y-12034772D01*
X-1160421Y-12028530D01*
X-1246001Y-12002570D01*
X-1312705Y-11996000D01*
X-2172578Y-11996000D01*
X-2174016Y-11981398D01*
X-2205618Y-11877222D01*
X-2139000Y-11897430D01*
X-2129699Y-11898346D01*
X-2072295Y-11904000D01*
X-2072289Y-11904000D01*
X-2050001Y-11906195D01*
X-2027713Y-11904000D01*
X-1312705Y-11904000D01*
X-1246001Y-11897430D01*
X-1160421Y-11871470D01*
X-1148743Y-11865228D01*
X-1020000Y-11865228D01*
X-970207Y-11860324D01*
X-922328Y-11845800D01*
X-878203Y-11822214D01*
X-839527Y-11790473D01*
X-807786Y-11751797D01*
X-784200Y-11707672D01*
X-769676Y-11659793D01*
X-764772Y-11610000D01*
X-764772Y-11290000D01*
X-769676Y-11240207D01*
X-781873Y-11200000D01*
X-769676Y-11159793D01*
X-764772Y-11110000D01*
X-764772Y-10790000D01*
X-769676Y-10740207D01*
X-784200Y-10692328D01*
X-807786Y-10648203D01*
X-839527Y-10609527D01*
X-878203Y-10577786D01*
X-922328Y-10554200D01*
X-970207Y-10539676D01*
X-1020000Y-10534772D01*
X-1493902Y-10534772D01*
X-1846000Y-10182674D01*
X-1846000Y-10145452D01*
X-1849670Y-10127000D01*
X4473000Y-10127000D01*
X4473000Y-13873000D01*
G04 #@! TA.AperFunction,Conductor*
D28*
G36*
X4473000Y-13873000D02*
G01*
X-3373000Y-13873000D01*
X-3373000Y-12220475D01*
X-3274000Y-12319475D01*
X-3274000Y-12427211D01*
X-3265984Y-12508602D01*
X-3255228Y-12544059D01*
X-3255228Y-12570000D01*
X-3247634Y-12647105D01*
X-3225143Y-12721247D01*
X-3188620Y-12789577D01*
X-3139468Y-12849468D01*
X-3079577Y-12898620D01*
X-3011247Y-12935143D01*
X-2937105Y-12957634D01*
X-2860000Y-12965228D01*
X-2580000Y-12965228D01*
X-2502895Y-12957634D01*
X-2428753Y-12935143D01*
X-2370488Y-12904000D01*
X-1312705Y-12904000D01*
X-1246001Y-12897430D01*
X-1160421Y-12871470D01*
X-1148743Y-12865228D01*
X-1020000Y-12865228D01*
X-970207Y-12860324D01*
X-922328Y-12845800D01*
X-878203Y-12822214D01*
X-839527Y-12790473D01*
X-807786Y-12751797D01*
X-784200Y-12707672D01*
X-769676Y-12659793D01*
X-764772Y-12610000D01*
X-764772Y-12290000D01*
X-769676Y-12240207D01*
X-784200Y-12192328D01*
X-807786Y-12148203D01*
X-839527Y-12109527D01*
X-878203Y-12077786D01*
X-922328Y-12054200D01*
X-970207Y-12039676D01*
X-1020000Y-12034772D01*
X-1148743Y-12034772D01*
X-1160421Y-12028530D01*
X-1246001Y-12002570D01*
X-1312705Y-11996000D01*
X-2172578Y-11996000D01*
X-2174016Y-11981398D01*
X-2205618Y-11877222D01*
X-2139000Y-11897430D01*
X-2129699Y-11898346D01*
X-2072295Y-11904000D01*
X-2072289Y-11904000D01*
X-2050001Y-11906195D01*
X-2027713Y-11904000D01*
X-1312705Y-11904000D01*
X-1246001Y-11897430D01*
X-1160421Y-11871470D01*
X-1148743Y-11865228D01*
X-1020000Y-11865228D01*
X-970207Y-11860324D01*
X-922328Y-11845800D01*
X-878203Y-11822214D01*
X-839527Y-11790473D01*
X-807786Y-11751797D01*
X-784200Y-11707672D01*
X-769676Y-11659793D01*
X-764772Y-11610000D01*
X-764772Y-11290000D01*
X-769676Y-11240207D01*
X-781873Y-11200000D01*
X-769676Y-11159793D01*
X-764772Y-11110000D01*
X-764772Y-10790000D01*
X-769676Y-10740207D01*
X-784200Y-10692328D01*
X-807786Y-10648203D01*
X-839527Y-10609527D01*
X-878203Y-10577786D01*
X-922328Y-10554200D01*
X-970207Y-10539676D01*
X-1020000Y-10534772D01*
X-1493902Y-10534772D01*
X-1846000Y-10182674D01*
X-1846000Y-10145452D01*
X-1849670Y-10127000D01*
X4473000Y-10127000D01*
X4473000Y-13873000D01*
G37*
G04 #@! TD.AperFunction*
D25*
X-6077000Y-5696000D02*
X-6696000Y-5696000D01*
X-6696000Y-5376606D01*
X-6675224Y-5374560D01*
X-6651399Y-5367333D01*
X-6629443Y-5355597D01*
X-6610197Y-5339803D01*
X-6594403Y-5320557D01*
X-6582667Y-5298601D01*
X-6575440Y-5274776D01*
X-6573000Y-5250000D01*
X-6573000Y-4227000D01*
X-6077000Y-4227000D01*
X-6077000Y-5696000D01*
G04 #@! TA.AperFunction,Conductor*
D28*
G36*
X-6077000Y-5696000D02*
G01*
X-6696000Y-5696000D01*
X-6696000Y-5376606D01*
X-6675224Y-5374560D01*
X-6651399Y-5367333D01*
X-6629443Y-5355597D01*
X-6610197Y-5339803D01*
X-6594403Y-5320557D01*
X-6582667Y-5298601D01*
X-6575440Y-5274776D01*
X-6573000Y-5250000D01*
X-6573000Y-4227000D01*
X-6077000Y-4227000D01*
X-6077000Y-5696000D01*
G37*
G04 #@! TD.AperFunction*
M02*
