G04 #@! TF.GenerationSoftware,KiCad,Pcbnew,(5.1.10-1-10_14)*
G04 #@! TF.CreationDate,2021-07-25T02:22:53-07:00*
G04 #@! TF.ProjectId,Synapse,53796e61-7073-4652-9e6b-696361645f70,1*
G04 #@! TF.SameCoordinates,Original*
G04 #@! TF.FileFunction,Copper,L4,Bot*
G04 #@! TF.FilePolarity,Positive*
%FSLAX46Y46*%
G04 Gerber Fmt 4.6, Leading zero omitted, Abs format (unit mm)*
G04 Created by KiCad (PCBNEW (5.1.10-1-10_14)) date 2021-07-25 02:22:53*
%MOMM*%
%LPD*%
G01*
G04 APERTURE LIST*
G04 #@! TA.AperFunction,SMDPad,CuDef*
%ADD10C,1.500000*%
G04 #@! TD*
G04 #@! TA.AperFunction,ComponentPad*
%ADD11O,1.000000X2.100000*%
G04 #@! TD*
G04 #@! TA.AperFunction,ComponentPad*
%ADD12O,1.000000X1.600000*%
G04 #@! TD*
G04 #@! TA.AperFunction,ViaPad*
%ADD13C,0.900000*%
G04 #@! TD*
G04 #@! TA.AperFunction,ViaPad*
%ADD14C,0.600000*%
G04 #@! TD*
G04 #@! TA.AperFunction,ViaPad*
%ADD15C,0.400000*%
G04 #@! TD*
G04 #@! TA.AperFunction,Conductor*
%ADD16C,0.600000*%
G04 #@! TD*
G04 #@! TA.AperFunction,Conductor*
%ADD17C,0.400000*%
G04 #@! TD*
G04 #@! TA.AperFunction,Conductor*
%ADD18C,0.300000*%
G04 #@! TD*
G04 APERTURE END LIST*
D10*
X3810000Y-18000000D03*
X1270000Y-18000000D03*
X-1270000Y-18000000D03*
X-3810000Y-18000000D03*
G04 #@! TA.AperFunction,ComponentPad*
G36*
G01*
X12876813Y-9474516D02*
X12098995Y-8696698D01*
G75*
G02*
X12098995Y-7989592I353553J353553D01*
G01*
X12098995Y-7989592D01*
G75*
G02*
X12806101Y-7989592I353553J-353553D01*
G01*
X13583919Y-8767410D01*
G75*
G02*
X13583919Y-9474516I-353553J-353553D01*
G01*
X13583919Y-9474516D01*
G75*
G02*
X12876813Y-9474516I-353553J353553D01*
G01*
G37*
G04 #@! TD.AperFunction*
G04 #@! TA.AperFunction,ComponentPad*
G36*
G01*
X6767410Y-15583919D02*
X5989592Y-14806101D01*
G75*
G02*
X5989592Y-14098995I353553J353553D01*
G01*
X5989592Y-14098995D01*
G75*
G02*
X6696698Y-14098995I353553J-353553D01*
G01*
X7474516Y-14876813D01*
G75*
G02*
X7474516Y-15583919I-353553J-353553D01*
G01*
X7474516Y-15583919D01*
G75*
G02*
X6767410Y-15583919I-353553J353553D01*
G01*
G37*
G04 #@! TD.AperFunction*
G04 #@! TA.AperFunction,ComponentPad*
G36*
G01*
X9546340Y-18362848D02*
X9122076Y-17938584D01*
G75*
G02*
X9122076Y-17231478I353553J353553D01*
G01*
X9122076Y-17231478D01*
G75*
G02*
X9829182Y-17231478I353553J-353553D01*
G01*
X10253446Y-17655742D01*
G75*
G02*
X10253446Y-18362848I-353553J-353553D01*
G01*
X10253446Y-18362848D01*
G75*
G02*
X9546340Y-18362848I-353553J353553D01*
G01*
G37*
G04 #@! TD.AperFunction*
G04 #@! TA.AperFunction,ComponentPad*
G36*
G01*
X15655742Y-12253446D02*
X15231478Y-11829182D01*
G75*
G02*
X15231478Y-11122076I353553J353553D01*
G01*
X15231478Y-11122076D01*
G75*
G02*
X15938584Y-11122076I353553J-353553D01*
G01*
X16362848Y-11546340D01*
G75*
G02*
X16362848Y-12253446I-353553J-353553D01*
G01*
X16362848Y-12253446D01*
G75*
G02*
X15655742Y-12253446I-353553J353553D01*
G01*
G37*
G04 #@! TD.AperFunction*
G04 #@! TA.AperFunction,ComponentPad*
G36*
G01*
X-10253446Y-17655742D02*
X-9829182Y-17231478D01*
G75*
G02*
X-9122076Y-17231478I353553J-353553D01*
G01*
X-9122076Y-17231478D01*
G75*
G02*
X-9122076Y-17938584I-353553J-353553D01*
G01*
X-9546340Y-18362848D01*
G75*
G02*
X-10253446Y-18362848I-353553J353553D01*
G01*
X-10253446Y-18362848D01*
G75*
G02*
X-10253446Y-17655742I353553J353553D01*
G01*
G37*
G04 #@! TD.AperFunction*
G04 #@! TA.AperFunction,ComponentPad*
G36*
G01*
X-16362848Y-11546340D02*
X-15938584Y-11122076D01*
G75*
G02*
X-15231478Y-11122076I353553J-353553D01*
G01*
X-15231478Y-11122076D01*
G75*
G02*
X-15231478Y-11829182I-353553J-353553D01*
G01*
X-15655742Y-12253446D01*
G75*
G02*
X-16362848Y-12253446I-353553J353553D01*
G01*
X-16362848Y-12253446D01*
G75*
G02*
X-16362848Y-11546340I353553J353553D01*
G01*
G37*
G04 #@! TD.AperFunction*
G04 #@! TA.AperFunction,ComponentPad*
G36*
G01*
X-13583919Y-8767410D02*
X-12806101Y-7989592D01*
G75*
G02*
X-12098995Y-7989592I353553J-353553D01*
G01*
X-12098995Y-7989592D01*
G75*
G02*
X-12098995Y-8696698I-353553J-353553D01*
G01*
X-12876813Y-9474516D01*
G75*
G02*
X-13583919Y-9474516I-353553J353553D01*
G01*
X-13583919Y-9474516D01*
G75*
G02*
X-13583919Y-8767410I353553J353553D01*
G01*
G37*
G04 #@! TD.AperFunction*
G04 #@! TA.AperFunction,ComponentPad*
G36*
G01*
X-7474516Y-14876813D02*
X-6696698Y-14098995D01*
G75*
G02*
X-5989592Y-14098995I353553J-353553D01*
G01*
X-5989592Y-14098995D01*
G75*
G02*
X-5989592Y-14806101I-353553J-353553D01*
G01*
X-6767410Y-15583919D01*
G75*
G02*
X-7474516Y-15583919I-353553J353553D01*
G01*
X-7474516Y-15583919D01*
G75*
G02*
X-7474516Y-14876813I353553J353553D01*
G01*
G37*
G04 #@! TD.AperFunction*
D11*
X-4320000Y12870000D03*
X4320000Y12870000D03*
D12*
X4320000Y17050000D03*
X-4320000Y17050000D03*
D13*
X-1500000Y-1500000D03*
X1500000Y-1500000D03*
X-1500000Y1500000D03*
X1500000Y1500000D03*
X0Y0D03*
D14*
X5125000Y375000D03*
X7125000Y375000D03*
X7125000Y1500000D03*
X7125000Y2500000D03*
X8125000Y3500000D03*
X9125000Y3500000D03*
X7125000Y3500000D03*
X10125000Y3500000D03*
X6125000Y375000D03*
X11125000Y3500000D03*
X12125000Y3500000D03*
X13250000Y3500000D03*
X13250000Y2500000D03*
X13125000Y375000D03*
X13250000Y1500000D03*
X12375000Y-375000D03*
X7250000Y-4625000D03*
X8600000Y-4625000D03*
X9700000Y-4625000D03*
X10800000Y-4625000D03*
X13250000Y-4625000D03*
X11900000Y-4625000D03*
X13375000Y-3500000D03*
X13625000Y-2375000D03*
X12250000Y-1875000D03*
D13*
X11000000Y0D03*
D14*
X12875000Y-2875000D03*
X7500000Y-2750000D03*
X7250000Y-3875000D03*
X4875000Y-2750000D03*
X6750000Y-3125000D03*
X5875000Y-2750000D03*
D13*
X8000000Y2625000D03*
X12375000Y875000D03*
D14*
X5625000Y4625000D03*
X-750000Y7250000D03*
D13*
X-2250000Y8125000D03*
D14*
X4375000Y8750000D03*
X6250000Y11375000D03*
X-6250000Y11375000D03*
X-5375000Y8250000D03*
X-9500000Y2500000D03*
X-13875000Y1875000D03*
X-15125000Y-2250000D03*
X-15125000Y-4875000D03*
X-9750000Y9000000D03*
X-5625000Y5500000D03*
X-4500000Y-15000000D03*
X4500000Y-15000000D03*
X-5650000Y-12250000D03*
X10270000Y-7680000D03*
X-10110000Y-7510000D03*
X5630000Y-12220000D03*
X2000000Y-5750000D03*
X5000000Y-5750000D03*
X-1875000Y-11250000D03*
X-625000Y-11250000D03*
X625000Y-11250000D03*
X1875000Y-11250000D03*
X-1125000Y-10375000D03*
X-625000Y-9625000D03*
X-8070000Y-1670000D03*
X-5625000Y-2625000D03*
X3250000Y10250000D03*
X-3901567Y10251567D03*
X11250000Y-1875000D03*
X10375000Y-1875000D03*
X10250000Y-875000D03*
X11250000Y-875000D03*
D13*
X-2581950Y-16324050D03*
D14*
X-4900000Y6700000D03*
D13*
X2500000Y4750000D03*
D14*
X2500000Y7250000D03*
X-13875000Y-375000D03*
X-6500000Y6375000D03*
X3000000Y-5750000D03*
X4000000Y-5750000D03*
X-3375000Y-8375000D03*
X-3375000Y-7375000D03*
X-4750000Y-4502000D03*
X-7750000Y-4502000D03*
D13*
X2696950Y-16324050D03*
D14*
X-10875000Y-3875000D03*
X1125000Y-4875000D03*
X-11502001Y5622999D03*
X-7060000Y-6490000D03*
D15*
X5750000Y1625000D03*
D14*
X-10875001Y-750000D03*
X-2750000Y-4875000D03*
X-5500000Y-1750000D03*
X-6300000Y-4600000D03*
X-1375000Y-5625000D03*
X3125000Y-6625000D03*
X8750000Y-8875000D03*
X6875000Y-11000000D03*
X-5625000Y0D03*
X-750000Y10000000D03*
X750000Y10000000D03*
X-4875000Y0D03*
D16*
X-3810000Y-17552100D02*
X-2581950Y-16324050D01*
X-3810000Y-18000000D02*
X-3810000Y-17552100D01*
X3810000Y-18000000D02*
X3810000Y-17437100D01*
X3810000Y-17437100D02*
X2696950Y-16324050D01*
D17*
X-1822038Y-4875000D02*
X1125000Y-4875000D01*
X-2822038Y-3875000D02*
X-1822038Y-4875000D01*
X-10875000Y-3875000D02*
X-2822038Y-3875000D01*
X-11502001Y-5190037D02*
X-11502001Y5622999D01*
X-10202038Y-6490000D02*
X-11502001Y-5190037D01*
X-7060000Y-6490000D02*
X-10202038Y-6490000D01*
X-10848000Y-722999D02*
X-10875001Y-750000D01*
X-1127039Y-722999D02*
X-10848000Y-722999D01*
X-1073037Y-777001D02*
X-1127039Y-722999D01*
X372961Y-777001D02*
X-1073037Y-777001D01*
X2774962Y1625000D02*
X372961Y-777001D01*
X5750000Y1625000D02*
X2774962Y1625000D01*
X-2502001Y-5122999D02*
X-2750000Y-4875000D01*
X-2502001Y-14227999D02*
X-2502001Y-5122999D01*
X1270000Y-18000000D02*
X-2502001Y-14227999D01*
X-4002001Y-13473303D02*
X-4002001Y-6897999D01*
X-4002001Y-6897999D02*
X-6300000Y-4600000D01*
X-1270000Y-16205304D02*
X-4002001Y-13473303D01*
X-1270000Y-18000000D02*
X-1270000Y-16205304D01*
X-375000Y-6625000D02*
X3125000Y-6625000D01*
X-1375000Y-5625000D02*
X-375000Y-6625000D01*
D18*
X8750000Y-9125000D02*
X6875000Y-11000000D01*
X8750000Y-8875000D02*
X8750000Y-9125000D01*
D17*
X-750000Y8177962D02*
X-750000Y10000000D01*
X-5625000Y3302962D02*
X-750000Y8177962D01*
X-5625000Y0D02*
X-5625000Y3302962D01*
X-4875000Y2197038D02*
X-4875000Y0D01*
X750000Y7822038D02*
X-4875000Y2197038D01*
X750000Y10000000D02*
X750000Y7822038D01*
M02*
