G04 #@! TF.GenerationSoftware,KiCad,Pcbnew,(5.1.10-1-10_14)*
G04 #@! TF.CreationDate,2021-08-15T09:52:45-07:00*
G04 #@! TF.ProjectId,Synapse,53796e61-7073-4652-9e6b-696361645f70,1*
G04 #@! TF.SameCoordinates,Original*
G04 #@! TF.FileFunction,Copper,L4,Bot*
G04 #@! TF.FilePolarity,Positive*
%FSLAX46Y46*%
G04 Gerber Fmt 4.6, Leading zero omitted, Abs format (unit mm)*
G04 Created by KiCad (PCBNEW (5.1.10-1-10_14)) date 2021-08-15 09:52:45*
%MOMM*%
%LPD*%
G01*
G04 APERTURE LIST*
G04 #@! TA.AperFunction,SMDPad,CuDef*
%ADD10C,1.500000*%
G04 #@! TD*
G04 #@! TA.AperFunction,ComponentPad*
%ADD11O,1.000000X1.600000*%
G04 #@! TD*
G04 #@! TA.AperFunction,ComponentPad*
%ADD12O,1.000000X2.100000*%
G04 #@! TD*
G04 #@! TA.AperFunction,ViaPad*
%ADD13C,0.900000*%
G04 #@! TD*
G04 #@! TA.AperFunction,ViaPad*
%ADD14C,0.600000*%
G04 #@! TD*
G04 #@! TA.AperFunction,Conductor*
%ADD15C,0.400000*%
G04 #@! TD*
G04 #@! TA.AperFunction,Conductor*
%ADD16C,0.600000*%
G04 #@! TD*
G04 #@! TA.AperFunction,Conductor*
%ADD17C,0.254000*%
G04 #@! TD*
G04 #@! TA.AperFunction,Conductor*
%ADD18C,0.152400*%
G04 #@! TD*
G04 APERTURE END LIST*
G04 #@! TA.AperFunction,ComponentPad*
G36*
G01*
X13976813Y-10194516D02*
X13198995Y-9416698D01*
G75*
G02*
X13198995Y-8709592I353553J353553D01*
G01*
X13198995Y-8709592D01*
G75*
G02*
X13906101Y-8709592I353553J-353553D01*
G01*
X14683919Y-9487410D01*
G75*
G02*
X14683919Y-10194516I-353553J-353553D01*
G01*
X14683919Y-10194516D01*
G75*
G02*
X13976813Y-10194516I-353553J353553D01*
G01*
G37*
G04 #@! TD.AperFunction*
G04 #@! TA.AperFunction,ComponentPad*
G36*
G01*
X7867410Y-16303919D02*
X7089592Y-15526101D01*
G75*
G02*
X7089592Y-14818995I353553J353553D01*
G01*
X7089592Y-14818995D01*
G75*
G02*
X7796698Y-14818995I353553J-353553D01*
G01*
X8574516Y-15596813D01*
G75*
G02*
X8574516Y-16303919I-353553J-353553D01*
G01*
X8574516Y-16303919D01*
G75*
G02*
X7867410Y-16303919I-353553J353553D01*
G01*
G37*
G04 #@! TD.AperFunction*
G04 #@! TA.AperFunction,ComponentPad*
G36*
G01*
X10646340Y-19082848D02*
X10222076Y-18658584D01*
G75*
G02*
X10222076Y-17951478I353553J353553D01*
G01*
X10222076Y-17951478D01*
G75*
G02*
X10929182Y-17951478I353553J-353553D01*
G01*
X11353446Y-18375742D01*
G75*
G02*
X11353446Y-19082848I-353553J-353553D01*
G01*
X11353446Y-19082848D01*
G75*
G02*
X10646340Y-19082848I-353553J353553D01*
G01*
G37*
G04 #@! TD.AperFunction*
G04 #@! TA.AperFunction,ComponentPad*
G36*
G01*
X16755742Y-12973446D02*
X16331478Y-12549182D01*
G75*
G02*
X16331478Y-11842076I353553J353553D01*
G01*
X16331478Y-11842076D01*
G75*
G02*
X17038584Y-11842076I353553J-353553D01*
G01*
X17462848Y-12266340D01*
G75*
G02*
X17462848Y-12973446I-353553J-353553D01*
G01*
X17462848Y-12973446D01*
G75*
G02*
X16755742Y-12973446I-353553J353553D01*
G01*
G37*
G04 #@! TD.AperFunction*
D10*
X5080000Y-14250000D03*
X2540000Y-14250000D03*
X0Y-14250000D03*
X-2540000Y-14250000D03*
X-5080000Y-14250000D03*
G04 #@! TA.AperFunction,ComponentPad*
G36*
G01*
X-11353446Y-18375742D02*
X-10929182Y-17951478D01*
G75*
G02*
X-10222076Y-17951478I353553J-353553D01*
G01*
X-10222076Y-17951478D01*
G75*
G02*
X-10222076Y-18658584I-353553J-353553D01*
G01*
X-10646340Y-19082848D01*
G75*
G02*
X-11353446Y-19082848I-353553J353553D01*
G01*
X-11353446Y-19082848D01*
G75*
G02*
X-11353446Y-18375742I353553J353553D01*
G01*
G37*
G04 #@! TD.AperFunction*
G04 #@! TA.AperFunction,ComponentPad*
G36*
G01*
X-17462848Y-12266340D02*
X-17038584Y-11842076D01*
G75*
G02*
X-16331478Y-11842076I353553J-353553D01*
G01*
X-16331478Y-11842076D01*
G75*
G02*
X-16331478Y-12549182I-353553J-353553D01*
G01*
X-16755742Y-12973446D01*
G75*
G02*
X-17462848Y-12973446I-353553J353553D01*
G01*
X-17462848Y-12973446D01*
G75*
G02*
X-17462848Y-12266340I353553J353553D01*
G01*
G37*
G04 #@! TD.AperFunction*
G04 #@! TA.AperFunction,ComponentPad*
G36*
G01*
X-14683919Y-9487410D02*
X-13906101Y-8709592D01*
G75*
G02*
X-13198995Y-8709592I353553J-353553D01*
G01*
X-13198995Y-8709592D01*
G75*
G02*
X-13198995Y-9416698I-353553J-353553D01*
G01*
X-13976813Y-10194516D01*
G75*
G02*
X-14683919Y-10194516I-353553J353553D01*
G01*
X-14683919Y-10194516D01*
G75*
G02*
X-14683919Y-9487410I353553J353553D01*
G01*
G37*
G04 #@! TD.AperFunction*
G04 #@! TA.AperFunction,ComponentPad*
G36*
G01*
X-8574516Y-15596813D02*
X-7796698Y-14818995D01*
G75*
G02*
X-7089592Y-14818995I353553J-353553D01*
G01*
X-7089592Y-14818995D01*
G75*
G02*
X-7089592Y-15526101I-353553J-353553D01*
G01*
X-7867410Y-16303919D01*
G75*
G02*
X-8574516Y-16303919I-353553J353553D01*
G01*
X-8574516Y-16303919D01*
G75*
G02*
X-8574516Y-15596813I353553J353553D01*
G01*
G37*
G04 #@! TD.AperFunction*
D11*
X-4320000Y17920000D03*
X4320000Y17920000D03*
D12*
X4320000Y13740000D03*
X-4320000Y13740000D03*
D13*
X4000000Y11500000D03*
X0Y2000000D03*
X-2000000Y4000000D03*
X2000000Y4000000D03*
X2000000Y0D03*
X-2000000Y0D03*
D14*
X1500000Y-6500000D03*
X750000Y-500000D03*
X-1400000Y-3200000D03*
X-6344Y-3700000D03*
X-2837010Y-6550000D03*
D13*
X0Y4000000D03*
X-2000000Y2000000D03*
X2000000Y2000000D03*
X0Y0D03*
X-4000014Y11500000D03*
X11599996Y-7699996D03*
X6000000Y-12800000D03*
D14*
X-2150000Y7620000D03*
X7300002Y2500000D03*
X7200002Y3500000D03*
X6269996Y4770000D03*
X7380000Y-2080000D03*
X7549998Y-1050000D03*
D13*
X-8700000Y-3300000D03*
D14*
X2300000Y-11700000D03*
X-7627010Y-2364262D03*
X-6500000Y1793357D03*
X-8700000Y-6000000D03*
D13*
X-5500000Y-12750000D03*
X-12249999Y-7350001D03*
D14*
X5500014Y6825000D03*
X-5600000Y-3400000D03*
X-5600000Y-1500000D03*
X5320062Y1220000D03*
X7100000Y-5399998D03*
D13*
X-5577010Y-7200000D03*
D14*
X-4000000Y6600000D03*
X5700000Y-5300000D03*
X-4674617Y1649574D03*
X1450000Y9720000D03*
X-3520000Y9720000D03*
D13*
X10500000Y-8600000D03*
X6999994Y-12000006D03*
X-9400000Y-4400000D03*
D14*
X-11100000Y-4700000D03*
X-4700000Y-11300000D03*
D13*
X-7250000Y-11250000D03*
X-10722412Y-8877588D03*
D14*
X4786684Y-2345434D03*
X-4750000Y4800000D03*
X-1600000Y6900000D03*
X-8671999Y-10754447D03*
X10850000Y-13750000D03*
X11821626Y-12591647D03*
X-11188981Y-13221019D03*
X-12200002Y-12200000D03*
X-2400000Y-8600000D03*
X-8425061Y-8672990D03*
X-2400000Y-10200016D03*
X-6756636Y3056636D03*
X11806636Y-13756636D03*
X12600002Y-12549998D03*
X-11300000Y-14250000D03*
X-12154768Y-13429768D03*
X-9298999Y-9300000D03*
X-6400000Y4300000D03*
X1550010Y10685000D03*
X-1550000Y10700000D03*
D15*
X-1400000Y-2650000D02*
X750000Y-500000D01*
X-1400000Y-3200000D02*
X-1400000Y-2650000D01*
X5100000Y-7399998D02*
X7100000Y-5399998D01*
X5100000Y-14200000D02*
X5100000Y-7399998D01*
X3300000Y900000D02*
X5700000Y-1500000D01*
X5700000Y-1500000D02*
X5700000Y-5300000D01*
X-3925043Y900000D02*
X3300000Y900000D01*
X-4674617Y1649574D02*
X-3925043Y900000D01*
X4472991Y-2659127D02*
X4472991Y-12327009D01*
X4786684Y-2345434D02*
X4472991Y-2659127D01*
X4472991Y-12327009D02*
X2500000Y-14300000D01*
X-5828628Y3721372D02*
X-4750000Y4800000D01*
X-5828628Y428628D02*
X-5828628Y3721372D01*
X-4800000Y-10200000D02*
X-4800000Y-600000D01*
X-2600000Y-14200000D02*
X-2600000Y-12400000D01*
X-2600000Y-12400000D02*
X-4800000Y-10200000D01*
X-4800000Y-600000D02*
X-5828628Y428628D01*
X-5301618Y3198382D02*
X-1600000Y6900000D01*
X-4200000Y-10000000D02*
X-4200000Y246995D01*
X0Y-14200000D02*
X-4200000Y-10000000D01*
X-4200000Y246995D02*
X-5301618Y1348613D01*
X-5301618Y1348613D02*
X-5301618Y3198382D01*
X11821626Y-12591647D02*
X11821626Y-12678374D01*
X10850000Y-13650000D02*
X10850000Y-13750000D01*
X11821626Y-12678374D02*
X10850000Y-13650000D01*
X-12200000Y-12200000D02*
X-12200002Y-12200000D01*
X-11188981Y-13211021D02*
X-12200002Y-12200000D01*
X-11188981Y-13221019D02*
X-11188981Y-13211021D01*
X-8671999Y-10754447D02*
X-8671999Y-8919928D01*
X-8671999Y-8919928D02*
X-8425061Y-8672990D01*
X-2400000Y-8600000D02*
X-2400000Y-10200016D01*
X-7199999Y999999D02*
X-7199999Y2613273D01*
X-6472990Y272990D02*
X-7199999Y999999D01*
X-6472990Y-6720919D02*
X-6472990Y272990D01*
X-8425061Y-8672990D02*
X-6472990Y-6720919D01*
X-7199999Y2613273D02*
X-6756636Y3056636D01*
X11806636Y-13756636D02*
X12600002Y-12963270D01*
X12600002Y-12963270D02*
X12600002Y-12549998D01*
X-11350000Y-14250000D02*
X-11300000Y-14250000D01*
X-12162500Y-13437500D02*
X-11350000Y-14250000D01*
X-7800000Y2900000D02*
X-6400000Y4300000D01*
X-9298999Y-8598999D02*
X-7000001Y-6300001D01*
X-9298999Y-9300000D02*
X-9298999Y-8598999D01*
X-7000001Y-6300001D02*
X-7000001Y-99999D01*
X-7000001Y-99999D02*
X-7800000Y700000D01*
X-7800000Y700000D02*
X-7800000Y2900000D01*
D16*
X-1550000Y10700000D02*
X1535010Y10700000D01*
X1535010Y10700000D02*
X1550010Y10685000D01*
D17*
X6315001Y16024036D02*
X6315938Y16014518D01*
X6370896Y14046976D01*
X6371661Y14034463D01*
X6372056Y14021897D01*
X6373341Y14005209D01*
X6583647Y11648776D01*
X6585394Y11634552D01*
X6586795Y11620258D01*
X6589183Y11603692D01*
X6955197Y9266377D01*
X6957882Y9252298D01*
X6960228Y9238131D01*
X6963708Y9221759D01*
X7483820Y6913842D01*
X7487426Y6899999D01*
X7490712Y6885990D01*
X7495269Y6869886D01*
X8167192Y4601511D01*
X8171716Y4587910D01*
X8175915Y4574177D01*
X8181530Y4558410D01*
X9002310Y2339553D01*
X9007725Y2326284D01*
X9012825Y2312858D01*
X9019473Y2297498D01*
X9985501Y137915D01*
X9991782Y125038D01*
X9997762Y111976D01*
X10005413Y97090D01*
X11112440Y-1993722D01*
X11119573Y-2006177D01*
X11126394Y-2018792D01*
X11135014Y-2033138D01*
X12378174Y-4045986D01*
X12386105Y-4057923D01*
X12393758Y-4070076D01*
X12403311Y-4083820D01*
X13777138Y-6009853D01*
X13785845Y-6021242D01*
X13794284Y-6032857D01*
X13804726Y-6045937D01*
X15303179Y-7876688D01*
X15312603Y-7887454D01*
X15321811Y-7898505D01*
X15333077Y-7910841D01*
X15333098Y-7910865D01*
X15333113Y-7910880D01*
X16934383Y-9622036D01*
X16941587Y-9630814D01*
X19662991Y-12352219D01*
X10732233Y-21282978D01*
X8858787Y-19409532D01*
X10074997Y-19409532D01*
X10287129Y-19621664D01*
X10474917Y-19743570D01*
X10682879Y-19826499D01*
X10903025Y-19867263D01*
X11126893Y-19864295D01*
X11345880Y-19817711D01*
X11560095Y-19716411D01*
X11594537Y-19503544D01*
X10787761Y-18696768D01*
X10074997Y-19409532D01*
X8858787Y-19409532D01*
X8010828Y-18561573D01*
X7996961Y-18550193D01*
X7832264Y-18401899D01*
X9437661Y-18401899D01*
X9478425Y-18622045D01*
X9561354Y-18830007D01*
X9683260Y-19017795D01*
X9895392Y-19229927D01*
X10608156Y-18517163D01*
X10967366Y-18517163D01*
X11774142Y-19323939D01*
X11987009Y-19289497D01*
X12088309Y-19075282D01*
X12134893Y-18856295D01*
X12137861Y-18632427D01*
X12097097Y-18412281D01*
X12014168Y-18204319D01*
X11892262Y-18016531D01*
X11680130Y-17804399D01*
X10967366Y-18517163D01*
X10608156Y-18517163D01*
X9801380Y-17710387D01*
X9588513Y-17744829D01*
X9487213Y-17959044D01*
X9440629Y-18178031D01*
X9437661Y-18401899D01*
X7832264Y-18401899D01*
X7178030Y-17812824D01*
X7171003Y-17807235D01*
X7164547Y-17801000D01*
X7117457Y-17764209D01*
X6790205Y-17530782D01*
X9980985Y-17530782D01*
X10787761Y-18337558D01*
X11500525Y-17624794D01*
X11288393Y-17412662D01*
X11100605Y-17290756D01*
X10892643Y-17207827D01*
X10672497Y-17167063D01*
X10448629Y-17170031D01*
X10229642Y-17216615D01*
X10015427Y-17317915D01*
X9980985Y-17530782D01*
X6790205Y-17530782D01*
X6056084Y-17007139D01*
X6045932Y-17000795D01*
X6036378Y-16993596D01*
X5985155Y-16962818D01*
X5047707Y-16453826D01*
X7119290Y-16453826D01*
X7508199Y-16842734D01*
X7695987Y-16964641D01*
X7903949Y-17047570D01*
X8124095Y-17088334D01*
X8347963Y-17085366D01*
X8566950Y-17038781D01*
X8781165Y-16937482D01*
X8815607Y-16724615D01*
X7832054Y-15741062D01*
X7119290Y-16453826D01*
X5047707Y-16453826D01*
X4839430Y-16340741D01*
X4828585Y-16335684D01*
X4818222Y-16329701D01*
X4763630Y-16305395D01*
X3550634Y-15827583D01*
X3539253Y-15823885D01*
X3528239Y-15819210D01*
X3471091Y-15801738D01*
X2761172Y-15618140D01*
X2943989Y-15581775D01*
X3196043Y-15477371D01*
X3422886Y-15325799D01*
X3615799Y-15132886D01*
X3767371Y-14906043D01*
X3810000Y-14803127D01*
X3852629Y-14906043D01*
X4004201Y-15132886D01*
X4197114Y-15325799D01*
X4423957Y-15477371D01*
X4676011Y-15581775D01*
X4943589Y-15635000D01*
X5216411Y-15635000D01*
X5483989Y-15581775D01*
X5736043Y-15477371D01*
X5962886Y-15325799D01*
X6019269Y-15269416D01*
X6305177Y-15269416D01*
X6345941Y-15489562D01*
X6428870Y-15697524D01*
X6550777Y-15885312D01*
X6939685Y-16274221D01*
X7652449Y-15561457D01*
X6668896Y-14577904D01*
X6456029Y-14612346D01*
X6354730Y-14826561D01*
X6308145Y-15045548D01*
X6305177Y-15269416D01*
X6019269Y-15269416D01*
X6155799Y-15132886D01*
X6307371Y-14906043D01*
X6411775Y-14653989D01*
X6462635Y-14398299D01*
X6848501Y-14398299D01*
X7832054Y-15381852D01*
X7846197Y-15367710D01*
X8025802Y-15547315D01*
X8011659Y-15561457D01*
X8995212Y-16545010D01*
X9208079Y-16510568D01*
X9309378Y-16296353D01*
X9355963Y-16077366D01*
X9358634Y-15875892D01*
X9498006Y-15848169D01*
X9672715Y-15775802D01*
X9829948Y-15670742D01*
X9963665Y-15537025D01*
X10068725Y-15379792D01*
X10141092Y-15205083D01*
X10177984Y-15019613D01*
X10177984Y-14830509D01*
X10141092Y-14645039D01*
X10068725Y-14470330D01*
X9963665Y-14313097D01*
X9829948Y-14179380D01*
X9672715Y-14074320D01*
X9498006Y-14001953D01*
X9312536Y-13965061D01*
X9123432Y-13965061D01*
X8937962Y-14001953D01*
X8763253Y-14074320D01*
X8606020Y-14179380D01*
X8472303Y-14313097D01*
X8367243Y-14470330D01*
X8361038Y-14485309D01*
X8155909Y-14280180D01*
X7968121Y-14158273D01*
X7760159Y-14075344D01*
X7540013Y-14034580D01*
X7316145Y-14037548D01*
X7097158Y-14084133D01*
X6882943Y-14185432D01*
X6848501Y-14398299D01*
X6462635Y-14398299D01*
X6465000Y-14386411D01*
X6465000Y-14113589D01*
X6411775Y-13846011D01*
X6333862Y-13657911D01*
X9915000Y-13657911D01*
X9915000Y-13842089D01*
X9950932Y-14022729D01*
X10021414Y-14192889D01*
X10123738Y-14346028D01*
X10253972Y-14476262D01*
X10407111Y-14578586D01*
X10577271Y-14649068D01*
X10757911Y-14685000D01*
X10942089Y-14685000D01*
X11122729Y-14649068D01*
X11292889Y-14578586D01*
X11323352Y-14558231D01*
X11363747Y-14585222D01*
X11533907Y-14655704D01*
X11714547Y-14691636D01*
X11898725Y-14691636D01*
X12079365Y-14655704D01*
X12249525Y-14585222D01*
X12402664Y-14482898D01*
X12532898Y-14352664D01*
X12635222Y-14199525D01*
X12699290Y-14044850D01*
X13161435Y-13582706D01*
X13193293Y-13556561D01*
X13229649Y-13512262D01*
X13297638Y-13429416D01*
X13366743Y-13300130D01*
X16184399Y-13300130D01*
X16396531Y-13512262D01*
X16584319Y-13634168D01*
X16792281Y-13717097D01*
X17012427Y-13757861D01*
X17236295Y-13754893D01*
X17455282Y-13708309D01*
X17669497Y-13607009D01*
X17703939Y-13394142D01*
X16897163Y-12587366D01*
X16184399Y-13300130D01*
X13366743Y-13300130D01*
X13375174Y-13284357D01*
X13422920Y-13126959D01*
X13430092Y-13054140D01*
X13435002Y-13004289D01*
X13435002Y-13004288D01*
X13438476Y-12969015D01*
X13499070Y-12822727D01*
X13535002Y-12642087D01*
X13535002Y-12457909D01*
X13502100Y-12292497D01*
X15547063Y-12292497D01*
X15587827Y-12512643D01*
X15670756Y-12720605D01*
X15792662Y-12908393D01*
X16004794Y-13120525D01*
X16717558Y-12407761D01*
X17076768Y-12407761D01*
X17883544Y-13214537D01*
X18096411Y-13180095D01*
X18197711Y-12965880D01*
X18244295Y-12746893D01*
X18247263Y-12523025D01*
X18206499Y-12302879D01*
X18123570Y-12094917D01*
X18001664Y-11907129D01*
X17789532Y-11694997D01*
X17076768Y-12407761D01*
X16717558Y-12407761D01*
X15910782Y-11600985D01*
X15697915Y-11635427D01*
X15596615Y-11849642D01*
X15550031Y-12068629D01*
X15547063Y-12292497D01*
X13502100Y-12292497D01*
X13499070Y-12277269D01*
X13428588Y-12107109D01*
X13326264Y-11953970D01*
X13196030Y-11823736D01*
X13135016Y-11782968D01*
X13210509Y-11797984D01*
X13399613Y-11797984D01*
X13585083Y-11761092D01*
X13759792Y-11688725D01*
X13917025Y-11583665D01*
X14050742Y-11449948D01*
X14069830Y-11421380D01*
X16090387Y-11421380D01*
X16897163Y-12228156D01*
X17609927Y-11515392D01*
X17397795Y-11303260D01*
X17210007Y-11181354D01*
X17002045Y-11098425D01*
X16781899Y-11057661D01*
X16558031Y-11060629D01*
X16339044Y-11107213D01*
X16124829Y-11208513D01*
X16090387Y-11421380D01*
X14069830Y-11421380D01*
X14155802Y-11292715D01*
X14228169Y-11118006D01*
X14255892Y-10978634D01*
X14457366Y-10975963D01*
X14676353Y-10929378D01*
X14890568Y-10828079D01*
X14925010Y-10615212D01*
X13941457Y-9631659D01*
X13927315Y-9645802D01*
X13747710Y-9466197D01*
X13761852Y-9452054D01*
X14121062Y-9452054D01*
X15104615Y-10435607D01*
X15317482Y-10401165D01*
X15418781Y-10186950D01*
X15465366Y-9967963D01*
X15468334Y-9744095D01*
X15427570Y-9523949D01*
X15344641Y-9315987D01*
X15222734Y-9128199D01*
X14833826Y-8739290D01*
X14121062Y-9452054D01*
X13761852Y-9452054D01*
X12778299Y-8468501D01*
X12565432Y-8502943D01*
X12464133Y-8717158D01*
X12417548Y-8936145D01*
X12414580Y-9160013D01*
X12455344Y-9380159D01*
X12538273Y-9588121D01*
X12660180Y-9775909D01*
X12865309Y-9981038D01*
X12850330Y-9987243D01*
X12693097Y-10092303D01*
X12559380Y-10226020D01*
X12454320Y-10383253D01*
X12381953Y-10557962D01*
X12345061Y-10743432D01*
X12345061Y-10932536D01*
X12381953Y-11118006D01*
X12454320Y-11292715D01*
X12559380Y-11449948D01*
X12693097Y-11583665D01*
X12760294Y-11628565D01*
X12692091Y-11614998D01*
X12507913Y-11614998D01*
X12327273Y-11650930D01*
X12160539Y-11719993D01*
X12094355Y-11692579D01*
X11913715Y-11656647D01*
X11729537Y-11656647D01*
X11548897Y-11692579D01*
X11378737Y-11763061D01*
X11225598Y-11865385D01*
X11095364Y-11995619D01*
X10993040Y-12148758D01*
X10922558Y-12318918D01*
X10903276Y-12415856D01*
X10378806Y-12940327D01*
X10253972Y-13023738D01*
X10123738Y-13153972D01*
X10021414Y-13307111D01*
X9950932Y-13477271D01*
X9915000Y-13657911D01*
X6333862Y-13657911D01*
X6307371Y-13593957D01*
X6155799Y-13367114D01*
X5962886Y-13174201D01*
X5935000Y-13155568D01*
X5935000Y-12207446D01*
X5956690Y-12316489D01*
X6038479Y-12513946D01*
X6157219Y-12691653D01*
X6308347Y-12842781D01*
X6486054Y-12961521D01*
X6683511Y-13043310D01*
X6893131Y-13085006D01*
X7106857Y-13085006D01*
X7316477Y-13043310D01*
X7513934Y-12961521D01*
X7691641Y-12842781D01*
X7842769Y-12691653D01*
X7961509Y-12513946D01*
X8043298Y-12316489D01*
X8084994Y-12106869D01*
X8084994Y-11893143D01*
X8043298Y-11683523D01*
X7961509Y-11486066D01*
X7842769Y-11308359D01*
X7691641Y-11157231D01*
X7513934Y-11038491D01*
X7316477Y-10956702D01*
X7106857Y-10915006D01*
X6893131Y-10915006D01*
X6683511Y-10956702D01*
X6486054Y-11038491D01*
X6308347Y-11157231D01*
X6157219Y-11308359D01*
X6038479Y-11486066D01*
X5956690Y-11683523D01*
X5935000Y-11792566D01*
X5935000Y-8493137D01*
X9415000Y-8493137D01*
X9415000Y-8706863D01*
X9456696Y-8916483D01*
X9538485Y-9113940D01*
X9657225Y-9291647D01*
X9808353Y-9442775D01*
X9986060Y-9561515D01*
X10183517Y-9643304D01*
X10393137Y-9685000D01*
X10606863Y-9685000D01*
X10816483Y-9643304D01*
X11013940Y-9561515D01*
X11191647Y-9442775D01*
X11342775Y-9291647D01*
X11461515Y-9113940D01*
X11543304Y-8916483D01*
X11585000Y-8706863D01*
X11585000Y-8493137D01*
X11544374Y-8288896D01*
X12957904Y-8288896D01*
X13941457Y-9272449D01*
X14654221Y-8559685D01*
X14265312Y-8170777D01*
X14077524Y-8048870D01*
X13869562Y-7965941D01*
X13649416Y-7925177D01*
X13425548Y-7928145D01*
X13206561Y-7974730D01*
X12992346Y-8076029D01*
X12957904Y-8288896D01*
X11544374Y-8288896D01*
X11543304Y-8283517D01*
X11461515Y-8086060D01*
X11342775Y-7908353D01*
X11191647Y-7757225D01*
X11013940Y-7638485D01*
X10816483Y-7556696D01*
X10606863Y-7515000D01*
X10393137Y-7515000D01*
X10183517Y-7556696D01*
X9986060Y-7638485D01*
X9808353Y-7757225D01*
X9657225Y-7908353D01*
X9538485Y-8086060D01*
X9456696Y-8283517D01*
X9415000Y-8493137D01*
X5935000Y-8493137D01*
X5935000Y-7745865D01*
X7388214Y-6292652D01*
X7542889Y-6228584D01*
X7696028Y-6126260D01*
X7826262Y-5996026D01*
X7928586Y-5842887D01*
X7999068Y-5672727D01*
X8035000Y-5492087D01*
X8035000Y-5307909D01*
X7999068Y-5127269D01*
X7928586Y-4957109D01*
X7826262Y-4803970D01*
X7696028Y-4673736D01*
X7542889Y-4571412D01*
X7372729Y-4500930D01*
X7192089Y-4464998D01*
X7007911Y-4464998D01*
X6827271Y-4500930D01*
X6657111Y-4571412D01*
X6535000Y-4653004D01*
X6535000Y-1541018D01*
X6539040Y-1500000D01*
X6534021Y-1449046D01*
X6522918Y-1336311D01*
X6475172Y-1178913D01*
X6397636Y-1033854D01*
X6293291Y-906709D01*
X6261433Y-880564D01*
X5063065Y317803D01*
X5227973Y285000D01*
X5412151Y285000D01*
X5592791Y320932D01*
X5762951Y391414D01*
X5916090Y493738D01*
X6046324Y623972D01*
X6148648Y777111D01*
X6219130Y947271D01*
X6255062Y1127911D01*
X6255062Y1312089D01*
X6219130Y1492729D01*
X6148648Y1662889D01*
X6046324Y1816028D01*
X5916090Y1946262D01*
X5762951Y2048586D01*
X5592791Y2119068D01*
X5412151Y2155000D01*
X5227973Y2155000D01*
X5047333Y2119068D01*
X4877173Y2048586D01*
X4724034Y1946262D01*
X4593800Y1816028D01*
X4491476Y1662889D01*
X4420994Y1492729D01*
X4385062Y1312089D01*
X4385062Y1127911D01*
X4417865Y963003D01*
X3919446Y1461421D01*
X3893291Y1493291D01*
X3766146Y1597636D01*
X3621087Y1675172D01*
X3463689Y1722918D01*
X3341019Y1735000D01*
X3341018Y1735000D01*
X3300000Y1739040D01*
X3258982Y1735000D01*
X-3579175Y1735000D01*
X-3781963Y1937788D01*
X-3846031Y2092463D01*
X-3948355Y2245602D01*
X-4078589Y2375836D01*
X-4231728Y2478160D01*
X-4401888Y2548642D01*
X-4466618Y2561518D01*
X-4466618Y2852515D01*
X-1311786Y6007346D01*
X-1157111Y6071414D01*
X-1003972Y6173738D01*
X-873738Y6303972D01*
X-771414Y6457111D01*
X-700932Y6627271D01*
X-665000Y6807911D01*
X-665000Y6917089D01*
X4565014Y6917089D01*
X4565014Y6732911D01*
X4600946Y6552271D01*
X4671428Y6382111D01*
X4773752Y6228972D01*
X4903986Y6098738D01*
X5057125Y5996414D01*
X5227285Y5925932D01*
X5407925Y5890000D01*
X5592103Y5890000D01*
X5772743Y5925932D01*
X5942903Y5996414D01*
X6096042Y6098738D01*
X6226276Y6228972D01*
X6328600Y6382111D01*
X6399082Y6552271D01*
X6435014Y6732911D01*
X6435014Y6917089D01*
X6399082Y7097729D01*
X6328600Y7267889D01*
X6226276Y7421028D01*
X6096042Y7551262D01*
X5942903Y7653586D01*
X5772743Y7724068D01*
X5592103Y7760000D01*
X5407925Y7760000D01*
X5227285Y7724068D01*
X5057125Y7653586D01*
X4903986Y7551262D01*
X4773752Y7421028D01*
X4671428Y7267889D01*
X4600946Y7097729D01*
X4565014Y6917089D01*
X-665000Y6917089D01*
X-665000Y6992089D01*
X-700932Y7172729D01*
X-771414Y7342889D01*
X-873738Y7496028D01*
X-1003972Y7626262D01*
X-1157111Y7728586D01*
X-1327271Y7799068D01*
X-1507911Y7835000D01*
X-1692089Y7835000D01*
X-1872729Y7799068D01*
X-2042889Y7728586D01*
X-2196028Y7626262D01*
X-2326262Y7496028D01*
X-2428586Y7342889D01*
X-2492654Y7188214D01*
X-3065000Y6615868D01*
X-3065000Y6692089D01*
X-3100932Y6872729D01*
X-3171414Y7042889D01*
X-3273738Y7196028D01*
X-3403972Y7326262D01*
X-3557111Y7428586D01*
X-3727271Y7499068D01*
X-3907911Y7535000D01*
X-4092089Y7535000D01*
X-4272729Y7499068D01*
X-4442889Y7428586D01*
X-4596028Y7326262D01*
X-4726262Y7196028D01*
X-4828586Y7042889D01*
X-4899068Y6872729D01*
X-4935000Y6692089D01*
X-4935000Y6507911D01*
X-4899068Y6327271D01*
X-4828586Y6157111D01*
X-4726262Y6003972D01*
X-4596028Y5873738D01*
X-4442889Y5771414D01*
X-4272729Y5700932D01*
X-4092089Y5665000D01*
X-4015868Y5665000D01*
X-4154352Y5526516D01*
X-4307111Y5628586D01*
X-4477271Y5699068D01*
X-4657911Y5735000D01*
X-4842089Y5735000D01*
X-5022729Y5699068D01*
X-5192889Y5628586D01*
X-5346028Y5526262D01*
X-5476262Y5396028D01*
X-5578586Y5242889D01*
X-5642654Y5088214D01*
X-5754289Y4976579D01*
X-5803972Y5026262D01*
X-5957111Y5128586D01*
X-6127271Y5199068D01*
X-6307911Y5235000D01*
X-6492089Y5235000D01*
X-6672729Y5199068D01*
X-6842889Y5128586D01*
X-6996028Y5026262D01*
X-7126262Y4896028D01*
X-7228586Y4742889D01*
X-7292654Y4588214D01*
X-8361426Y3519441D01*
X-8393290Y3493291D01*
X-8469087Y3400932D01*
X-8497636Y3366145D01*
X-8575172Y3221086D01*
X-8622918Y3063688D01*
X-8639040Y2900000D01*
X-8634999Y2858972D01*
X-8635000Y741019D01*
X-8639040Y700000D01*
X-8629080Y598874D01*
X-8622918Y536312D01*
X-8575172Y378914D01*
X-8497636Y233855D01*
X-8393291Y106709D01*
X-8361421Y80554D01*
X-7835000Y-445868D01*
X-7835001Y-5954133D01*
X-9860425Y-7979558D01*
X-9892289Y-8005708D01*
X-9967827Y-8097751D01*
X-10030765Y-8034813D01*
X-10208472Y-7916073D01*
X-10405929Y-7834284D01*
X-10615549Y-7792588D01*
X-10829275Y-7792588D01*
X-11038895Y-7834284D01*
X-11236352Y-7916073D01*
X-11414059Y-8034813D01*
X-11565187Y-8185941D01*
X-11683927Y-8363648D01*
X-11765716Y-8561105D01*
X-11807412Y-8770725D01*
X-11807412Y-8984451D01*
X-11765716Y-9194071D01*
X-11683927Y-9391528D01*
X-11565187Y-9569235D01*
X-11414059Y-9720363D01*
X-11236352Y-9839103D01*
X-11038895Y-9920892D01*
X-10829275Y-9962588D01*
X-10615549Y-9962588D01*
X-10405929Y-9920892D01*
X-10208472Y-9839103D01*
X-10108106Y-9772041D01*
X-10025261Y-9896028D01*
X-9895027Y-10026262D01*
X-9741888Y-10128586D01*
X-9571728Y-10199068D01*
X-9506999Y-10211944D01*
X-9506999Y-10327042D01*
X-9571067Y-10481718D01*
X-9606999Y-10662358D01*
X-9606999Y-10846536D01*
X-9571067Y-11027176D01*
X-9500585Y-11197336D01*
X-9398261Y-11350475D01*
X-9268027Y-11480709D01*
X-9114888Y-11583033D01*
X-8944728Y-11653515D01*
X-8764088Y-11689447D01*
X-8579910Y-11689447D01*
X-8399270Y-11653515D01*
X-8278052Y-11603305D01*
X-8211515Y-11763940D01*
X-8092775Y-11941647D01*
X-7941647Y-12092775D01*
X-7763940Y-12211515D01*
X-7566483Y-12293304D01*
X-7356863Y-12335000D01*
X-7143137Y-12335000D01*
X-6933517Y-12293304D01*
X-6736060Y-12211515D01*
X-6558353Y-12092775D01*
X-6407225Y-11941647D01*
X-6288485Y-11763940D01*
X-6206696Y-11566483D01*
X-6165000Y-11356863D01*
X-6165000Y-11143137D01*
X-6206696Y-10933517D01*
X-6288485Y-10736060D01*
X-6407225Y-10558353D01*
X-6558353Y-10407225D01*
X-6736060Y-10288485D01*
X-6933517Y-10206696D01*
X-7143137Y-10165000D01*
X-7356863Y-10165000D01*
X-7566483Y-10206696D01*
X-7763940Y-10288485D01*
X-7833671Y-10335078D01*
X-7836999Y-10327043D01*
X-7836999Y-9404575D01*
X-7829033Y-9399252D01*
X-7698799Y-9269018D01*
X-7596475Y-9115879D01*
X-7532406Y-8961203D01*
X-6437035Y-7865831D01*
X-6419785Y-7891647D01*
X-6268657Y-8042775D01*
X-6090950Y-8161515D01*
X-5893493Y-8243304D01*
X-5683873Y-8285000D01*
X-5635000Y-8285000D01*
X-5635000Y-10158981D01*
X-5639040Y-10200000D01*
X-5635000Y-10241018D01*
X-5622918Y-10363688D01*
X-5575172Y-10521086D01*
X-5497636Y-10666145D01*
X-5444362Y-10731060D01*
X-5528586Y-10857111D01*
X-5599068Y-11027271D01*
X-5635000Y-11207911D01*
X-5635000Y-11392089D01*
X-5599068Y-11572729D01*
X-5528586Y-11742889D01*
X-5426262Y-11896028D01*
X-5296028Y-12026262D01*
X-5142889Y-12128586D01*
X-4972729Y-12199068D01*
X-4792089Y-12235000D01*
X-4607911Y-12235000D01*
X-4427271Y-12199068D01*
X-4257111Y-12128586D01*
X-4134325Y-12046543D01*
X-3434999Y-12745870D01*
X-3434999Y-13186314D01*
X-3615799Y-13367114D01*
X-3767371Y-13593957D01*
X-3808511Y-13693279D01*
X-3823723Y-13651168D01*
X-3884140Y-13538137D01*
X-4123007Y-13472612D01*
X-4900395Y-14250000D01*
X-4123007Y-15027388D01*
X-3884140Y-14961863D01*
X-3809836Y-14803523D01*
X-3767371Y-14906043D01*
X-3615799Y-15132886D01*
X-3422886Y-15325799D01*
X-3196043Y-15477371D01*
X-2943989Y-15581775D01*
X-2761889Y-15617997D01*
X-3281759Y-15742807D01*
X-3293207Y-15746307D01*
X-3304907Y-15748794D01*
X-3361742Y-15767260D01*
X-4582892Y-16223830D01*
X-4593824Y-16228697D01*
X-4605138Y-16232593D01*
X-4659298Y-16257848D01*
X-5815705Y-16859834D01*
X-5825972Y-16866003D01*
X-5836717Y-16871244D01*
X-5887396Y-16902911D01*
X-6961818Y-17641342D01*
X-6971246Y-17648708D01*
X-6981283Y-17655226D01*
X-7027724Y-17692833D01*
X-7994655Y-18548300D01*
X-8010828Y-18561573D01*
X-10732233Y-21282978D01*
X-12511666Y-19503544D01*
X-11594537Y-19503544D01*
X-11560095Y-19716411D01*
X-11345880Y-19817711D01*
X-11126893Y-19864295D01*
X-10903025Y-19867263D01*
X-10682879Y-19826499D01*
X-10474917Y-19743570D01*
X-10287129Y-19621664D01*
X-10074997Y-19409532D01*
X-10787761Y-18696768D01*
X-11594537Y-19503544D01*
X-12511666Y-19503544D01*
X-13382783Y-18632427D01*
X-12137861Y-18632427D01*
X-12134893Y-18856295D01*
X-12088309Y-19075282D01*
X-11987009Y-19289497D01*
X-11774142Y-19323939D01*
X-10967366Y-18517163D01*
X-10608156Y-18517163D01*
X-9895392Y-19229927D01*
X-9683260Y-19017795D01*
X-9561354Y-18830007D01*
X-9478425Y-18622045D01*
X-9437661Y-18401899D01*
X-9440629Y-18178031D01*
X-9487213Y-17959044D01*
X-9588513Y-17744829D01*
X-9801380Y-17710387D01*
X-10608156Y-18517163D01*
X-10967366Y-18517163D01*
X-11680130Y-17804399D01*
X-11892262Y-18016531D01*
X-12014168Y-18204319D01*
X-12097097Y-18412281D01*
X-12137861Y-18632427D01*
X-13382783Y-18632427D01*
X-14390416Y-17624794D01*
X-11500525Y-17624794D01*
X-10787761Y-18337558D01*
X-9980985Y-17530782D01*
X-10015427Y-17317915D01*
X-10229642Y-17216615D01*
X-10448629Y-17170031D01*
X-10672497Y-17167063D01*
X-10892643Y-17207827D01*
X-11100605Y-17290756D01*
X-11288393Y-17412662D01*
X-11500525Y-17624794D01*
X-14390416Y-17624794D01*
X-15290595Y-16724615D01*
X-8815607Y-16724615D01*
X-8781165Y-16937482D01*
X-8566950Y-17038781D01*
X-8347963Y-17085366D01*
X-8124095Y-17088334D01*
X-7903949Y-17047570D01*
X-7695987Y-16964641D01*
X-7508199Y-16842734D01*
X-7119290Y-16453826D01*
X-7832054Y-15741062D01*
X-8815607Y-16724615D01*
X-15290595Y-16724615D01*
X-18621068Y-13394142D01*
X-17703939Y-13394142D01*
X-17669497Y-13607009D01*
X-17455282Y-13708309D01*
X-17236295Y-13754893D01*
X-17012427Y-13757861D01*
X-16792281Y-13717097D01*
X-16584319Y-13634168D01*
X-16396531Y-13512262D01*
X-16184399Y-13300130D01*
X-16897163Y-12587366D01*
X-17703939Y-13394142D01*
X-18621068Y-13394142D01*
X-19492185Y-12523025D01*
X-18247263Y-12523025D01*
X-18244295Y-12746893D01*
X-18197711Y-12965880D01*
X-18096411Y-13180095D01*
X-17883544Y-13214537D01*
X-17076768Y-12407761D01*
X-16717558Y-12407761D01*
X-16004794Y-13120525D01*
X-15792662Y-12908393D01*
X-15670756Y-12720605D01*
X-15587827Y-12512643D01*
X-15547063Y-12292497D01*
X-15550031Y-12068629D01*
X-15596615Y-11849642D01*
X-15697915Y-11635427D01*
X-15910782Y-11600985D01*
X-16717558Y-12407761D01*
X-17076768Y-12407761D01*
X-17789532Y-11694997D01*
X-18001664Y-11907129D01*
X-18123570Y-12094917D01*
X-18206499Y-12302879D01*
X-18247263Y-12523025D01*
X-19492185Y-12523025D01*
X-19662991Y-12352219D01*
X-18826164Y-11515392D01*
X-17609927Y-11515392D01*
X-16897163Y-12228156D01*
X-16090387Y-11421380D01*
X-16124829Y-11208513D01*
X-16339044Y-11107213D01*
X-16558031Y-11060629D01*
X-16781899Y-11057661D01*
X-17002045Y-11098425D01*
X-17210007Y-11181354D01*
X-17397795Y-11303260D01*
X-17609927Y-11515392D01*
X-18826164Y-11515392D01*
X-17925984Y-10615212D01*
X-14925010Y-10615212D01*
X-14890568Y-10828079D01*
X-14676353Y-10929378D01*
X-14457366Y-10975963D01*
X-14255892Y-10978634D01*
X-14228169Y-11118006D01*
X-14155802Y-11292715D01*
X-14050742Y-11449948D01*
X-13917025Y-11583665D01*
X-13759792Y-11688725D01*
X-13585083Y-11761092D01*
X-13399613Y-11797984D01*
X-13210509Y-11797984D01*
X-13030704Y-11762219D01*
X-13099070Y-11927271D01*
X-13135002Y-12107911D01*
X-13135002Y-12292089D01*
X-13099070Y-12472729D01*
X-13028588Y-12642889D01*
X-12926264Y-12796028D01*
X-12884043Y-12838249D01*
X-12983354Y-12986879D01*
X-13053836Y-13157039D01*
X-13089768Y-13337679D01*
X-13089768Y-13521857D01*
X-13053836Y-13702497D01*
X-12983354Y-13872657D01*
X-12881030Y-14025796D01*
X-12750796Y-14156030D01*
X-12597657Y-14258354D01*
X-12469380Y-14311488D01*
X-12157299Y-14623570D01*
X-12128586Y-14692889D01*
X-12026262Y-14846028D01*
X-11896028Y-14976262D01*
X-11742889Y-15078586D01*
X-11572729Y-15149068D01*
X-11392089Y-15185000D01*
X-11207911Y-15185000D01*
X-11027271Y-15149068D01*
X-10857111Y-15078586D01*
X-10703972Y-14976262D01*
X-10573738Y-14846028D01*
X-10563369Y-14830509D01*
X-10177984Y-14830509D01*
X-10177984Y-15019613D01*
X-10141092Y-15205083D01*
X-10068725Y-15379792D01*
X-9963665Y-15537025D01*
X-9829948Y-15670742D01*
X-9672715Y-15775802D01*
X-9498006Y-15848169D01*
X-9358634Y-15875892D01*
X-9355963Y-16077366D01*
X-9309378Y-16296353D01*
X-9208079Y-16510568D01*
X-8995212Y-16545010D01*
X-8011659Y-15561457D01*
X-7652449Y-15561457D01*
X-6939685Y-16274221D01*
X-6550777Y-15885312D01*
X-6428870Y-15697524D01*
X-6345941Y-15489562D01*
X-6305177Y-15269416D01*
X-6306004Y-15206993D01*
X-5857388Y-15206993D01*
X-5791863Y-15445860D01*
X-5544884Y-15561760D01*
X-5280040Y-15627250D01*
X-5007508Y-15639812D01*
X-4737762Y-15598965D01*
X-4481168Y-15506277D01*
X-4368137Y-15445860D01*
X-4302612Y-15206993D01*
X-5080000Y-14429605D01*
X-5857388Y-15206993D01*
X-6306004Y-15206993D01*
X-6308145Y-15045548D01*
X-6354730Y-14826561D01*
X-6456029Y-14612346D01*
X-6668896Y-14577904D01*
X-7652449Y-15561457D01*
X-8011659Y-15561457D01*
X-8025802Y-15547315D01*
X-7846197Y-15367710D01*
X-7832054Y-15381852D01*
X-6848501Y-14398299D01*
X-6860766Y-14322492D01*
X-6469812Y-14322492D01*
X-6428965Y-14592238D01*
X-6336277Y-14848832D01*
X-6275860Y-14961863D01*
X-6036993Y-15027388D01*
X-5259605Y-14250000D01*
X-6036993Y-13472612D01*
X-6275860Y-13538137D01*
X-6391760Y-13785116D01*
X-6457250Y-14049960D01*
X-6469812Y-14322492D01*
X-6860766Y-14322492D01*
X-6882943Y-14185432D01*
X-7097158Y-14084133D01*
X-7316145Y-14037548D01*
X-7540013Y-14034580D01*
X-7760159Y-14075344D01*
X-7968121Y-14158273D01*
X-8155909Y-14280180D01*
X-8361038Y-14485309D01*
X-8367243Y-14470330D01*
X-8472303Y-14313097D01*
X-8606020Y-14179380D01*
X-8763253Y-14074320D01*
X-8937962Y-14001953D01*
X-9123432Y-13965061D01*
X-9312536Y-13965061D01*
X-9498006Y-14001953D01*
X-9672715Y-14074320D01*
X-9829948Y-14179380D01*
X-9963665Y-14313097D01*
X-10068725Y-14470330D01*
X-10141092Y-14645039D01*
X-10177984Y-14830509D01*
X-10563369Y-14830509D01*
X-10471414Y-14692889D01*
X-10400932Y-14522729D01*
X-10365000Y-14342089D01*
X-10365000Y-14157911D01*
X-10400932Y-13977271D01*
X-10465957Y-13820285D01*
X-10462719Y-13817047D01*
X-10360395Y-13663908D01*
X-10289913Y-13493748D01*
X-10253981Y-13313108D01*
X-10253981Y-13293007D01*
X-5857388Y-13293007D01*
X-5080000Y-14070395D01*
X-4302612Y-13293007D01*
X-4368137Y-13054140D01*
X-4615116Y-12938240D01*
X-4879960Y-12872750D01*
X-5152492Y-12860188D01*
X-5422238Y-12901035D01*
X-5678832Y-12993723D01*
X-5791863Y-13054140D01*
X-5857388Y-13293007D01*
X-10253981Y-13293007D01*
X-10253981Y-13128930D01*
X-10289913Y-12948290D01*
X-10360395Y-12778130D01*
X-10462719Y-12624991D01*
X-10592953Y-12494757D01*
X-10746092Y-12392433D01*
X-10883699Y-12335435D01*
X-11307348Y-11911787D01*
X-11371416Y-11757111D01*
X-11473740Y-11603972D01*
X-11603974Y-11473738D01*
X-11757113Y-11371414D01*
X-11927273Y-11300932D01*
X-12107913Y-11265000D01*
X-12292091Y-11265000D01*
X-12457830Y-11297968D01*
X-12454320Y-11292715D01*
X-12381953Y-11118006D01*
X-12345061Y-10932536D01*
X-12345061Y-10743432D01*
X-12381953Y-10557962D01*
X-12454320Y-10383253D01*
X-12559380Y-10226020D01*
X-12693097Y-10092303D01*
X-12850330Y-9987243D01*
X-12865309Y-9981038D01*
X-12660180Y-9775909D01*
X-12538273Y-9588121D01*
X-12455344Y-9380159D01*
X-12414580Y-9160013D01*
X-12417548Y-8936145D01*
X-12464133Y-8717158D01*
X-12565432Y-8502943D01*
X-12778299Y-8468501D01*
X-13761852Y-9452054D01*
X-13747710Y-9466197D01*
X-13927315Y-9645802D01*
X-13941457Y-9631659D01*
X-14925010Y-10615212D01*
X-17925984Y-10615212D01*
X-17054867Y-9744095D01*
X-15468334Y-9744095D01*
X-15465366Y-9967963D01*
X-15418781Y-10186950D01*
X-15317482Y-10401165D01*
X-15104615Y-10435607D01*
X-14121062Y-9452054D01*
X-14833826Y-8739290D01*
X-15222734Y-9128199D01*
X-15344641Y-9315987D01*
X-15427570Y-9523949D01*
X-15468334Y-9744095D01*
X-17054867Y-9744095D01*
X-16941587Y-9630815D01*
X-16935509Y-9623409D01*
X-15929595Y-8559685D01*
X-14654221Y-8559685D01*
X-13941457Y-9272449D01*
X-12957904Y-8288896D01*
X-12992346Y-8076029D01*
X-13206561Y-7974730D01*
X-13425548Y-7928145D01*
X-13649416Y-7925177D01*
X-13869562Y-7965941D01*
X-14077524Y-8048870D01*
X-14265312Y-8170777D01*
X-14654221Y-8559685D01*
X-15929595Y-8559685D01*
X-15583118Y-8193296D01*
X-15574795Y-8183888D01*
X-15566206Y-8174742D01*
X-15555314Y-8162034D01*
X-14037774Y-6347076D01*
X-14028950Y-6335781D01*
X-14019835Y-6324685D01*
X-14009809Y-6311283D01*
X-12767689Y-4607911D01*
X-12035000Y-4607911D01*
X-12035000Y-4792089D01*
X-11999068Y-4972729D01*
X-11928586Y-5142889D01*
X-11826262Y-5296028D01*
X-11696028Y-5426262D01*
X-11542889Y-5528586D01*
X-11372729Y-5599068D01*
X-11192089Y-5635000D01*
X-11007911Y-5635000D01*
X-10827271Y-5599068D01*
X-10657111Y-5528586D01*
X-10503972Y-5426262D01*
X-10373738Y-5296028D01*
X-10271414Y-5142889D01*
X-10247352Y-5084797D01*
X-10242775Y-5091647D01*
X-10091647Y-5242775D01*
X-9913940Y-5361515D01*
X-9716483Y-5443304D01*
X-9506863Y-5485000D01*
X-9293137Y-5485000D01*
X-9083517Y-5443304D01*
X-8886060Y-5361515D01*
X-8708353Y-5242775D01*
X-8557225Y-5091647D01*
X-8438485Y-4913940D01*
X-8356696Y-4716483D01*
X-8315000Y-4506863D01*
X-8315000Y-4293137D01*
X-8356696Y-4083517D01*
X-8438485Y-3886060D01*
X-8557225Y-3708353D01*
X-8708353Y-3557225D01*
X-8886060Y-3438485D01*
X-9083517Y-3356696D01*
X-9293137Y-3315000D01*
X-9506863Y-3315000D01*
X-9716483Y-3356696D01*
X-9913940Y-3438485D01*
X-10091647Y-3557225D01*
X-10242775Y-3708353D01*
X-10361515Y-3886060D01*
X-10428920Y-4048790D01*
X-10503972Y-3973738D01*
X-10657111Y-3871414D01*
X-10827271Y-3800932D01*
X-11007911Y-3765000D01*
X-11192089Y-3765000D01*
X-11372729Y-3800932D01*
X-11542889Y-3871414D01*
X-11696028Y-3973738D01*
X-11826262Y-4103972D01*
X-11928586Y-4257111D01*
X-11999068Y-4427271D01*
X-12035000Y-4607911D01*
X-12767689Y-4607911D01*
X-12615888Y-4399740D01*
X-12607835Y-4387891D01*
X-12599472Y-4376210D01*
X-12590378Y-4362205D01*
X-12590356Y-4362172D01*
X-12590343Y-4362150D01*
X-11326187Y-2362452D01*
X-11318944Y-2350106D01*
X-11311366Y-2337885D01*
X-11303201Y-2323275D01*
X-10174340Y-244171D01*
X-10167921Y-231352D01*
X-10161181Y-218676D01*
X-10154002Y-203556D01*
X-9165412Y1945792D01*
X-9159858Y1959004D01*
X-9153971Y1972103D01*
X-9147810Y1987666D01*
X-8303840Y4197806D01*
X-8299177Y4211347D01*
X-8294168Y4224817D01*
X-8289052Y4240753D01*
X-7593412Y6501968D01*
X-7589658Y6515786D01*
X-7585551Y6529561D01*
X-7581511Y6545769D01*
X-7581502Y6545802D01*
X-7581498Y6545824D01*
X-7037250Y8848147D01*
X-7034414Y8862214D01*
X-7031236Y8876201D01*
X-7028272Y8892673D01*
X-6874415Y9812089D01*
X-4455000Y9812089D01*
X-4455000Y9627911D01*
X-4419068Y9447271D01*
X-4348586Y9277111D01*
X-4246262Y9123972D01*
X-4116028Y8993738D01*
X-3962889Y8891414D01*
X-3792729Y8820932D01*
X-3612089Y8785000D01*
X-3427911Y8785000D01*
X-3247271Y8820932D01*
X-3077111Y8891414D01*
X-2923972Y8993738D01*
X-2793738Y9123972D01*
X-2691414Y9277111D01*
X-2620932Y9447271D01*
X-2585000Y9627911D01*
X-2585000Y9812089D01*
X-2620932Y9992729D01*
X-2691414Y10162889D01*
X-2793738Y10316028D01*
X-2923972Y10446262D01*
X-3077111Y10548586D01*
X-3247271Y10619068D01*
X-3427911Y10655000D01*
X-3612089Y10655000D01*
X-3792729Y10619068D01*
X-3962889Y10548586D01*
X-4116028Y10446262D01*
X-4246262Y10316028D01*
X-4348586Y10162889D01*
X-4419068Y9992729D01*
X-4455000Y9812089D01*
X-6874415Y9812089D01*
X-6725830Y10700000D01*
X-2489524Y10700000D01*
X-2485000Y10654068D01*
X-2485000Y10607911D01*
X-2475995Y10562641D01*
X-2471471Y10516708D01*
X-2458072Y10472538D01*
X-2449068Y10427271D01*
X-2431406Y10384631D01*
X-2418007Y10340460D01*
X-2396248Y10299752D01*
X-2378586Y10257111D01*
X-2352945Y10218736D01*
X-2331186Y10178028D01*
X-2301903Y10142347D01*
X-2276262Y10103972D01*
X-2243625Y10071335D01*
X-2214344Y10035656D01*
X-2178665Y10006375D01*
X-2146028Y9973738D01*
X-2107653Y9948097D01*
X-2071972Y9918814D01*
X-2031264Y9897055D01*
X-1992889Y9871414D01*
X-1950248Y9853752D01*
X-1909540Y9831993D01*
X-1865369Y9818594D01*
X-1822729Y9800932D01*
X-1777462Y9791928D01*
X-1733292Y9778529D01*
X-1687359Y9774005D01*
X-1642089Y9765000D01*
X515000Y9765000D01*
X515000Y9627911D01*
X550932Y9447271D01*
X621414Y9277111D01*
X723738Y9123972D01*
X853972Y8993738D01*
X1007111Y8891414D01*
X1177271Y8820932D01*
X1357911Y8785000D01*
X1542089Y8785000D01*
X1722729Y8820932D01*
X1892889Y8891414D01*
X2046028Y8993738D01*
X2176262Y9123972D01*
X2278586Y9277111D01*
X2349068Y9447271D01*
X2385000Y9627911D01*
X2385000Y9812089D01*
X2349068Y9992729D01*
X2296601Y10119397D01*
X2301921Y10127359D01*
X2331195Y10163029D01*
X2352948Y10203726D01*
X2378596Y10242111D01*
X2396262Y10284762D01*
X2418016Y10325460D01*
X2431413Y10369623D01*
X2449078Y10412271D01*
X2458083Y10457543D01*
X2471481Y10501709D01*
X2476005Y10547640D01*
X2485010Y10592911D01*
X2485010Y10639069D01*
X2489534Y10685001D01*
X2485010Y10730933D01*
X2485010Y10777089D01*
X2476005Y10822359D01*
X2471481Y10868292D01*
X2458083Y10912459D01*
X2449078Y10957729D01*
X2431413Y11000376D01*
X2418016Y11044540D01*
X2396262Y11085238D01*
X2378596Y11127889D01*
X2352948Y11166274D01*
X2331195Y11206971D01*
X2301921Y11242642D01*
X2276272Y11281028D01*
X2228635Y11328665D01*
X2199354Y11364344D01*
X2163675Y11393625D01*
X2146038Y11411262D01*
X2125300Y11425118D01*
X2056982Y11481186D01*
X1894550Y11568007D01*
X1718302Y11621471D01*
X1580942Y11635000D01*
X1535010Y11639524D01*
X1489078Y11635000D01*
X-1642089Y11635000D01*
X-1687359Y11625995D01*
X-1733292Y11621471D01*
X-1777462Y11608072D01*
X-1822729Y11599068D01*
X-1865369Y11581406D01*
X-1909540Y11568007D01*
X-1950248Y11546248D01*
X-1992889Y11528586D01*
X-2031264Y11502945D01*
X-2071972Y11481186D01*
X-2107653Y11451903D01*
X-2146028Y11426262D01*
X-2178665Y11393625D01*
X-2214344Y11364344D01*
X-2243625Y11328665D01*
X-2276262Y11296028D01*
X-2301903Y11257653D01*
X-2331186Y11221972D01*
X-2352945Y11181264D01*
X-2378586Y11142889D01*
X-2396248Y11100248D01*
X-2418007Y11059540D01*
X-2431406Y11015369D01*
X-2449068Y10972729D01*
X-2458072Y10927462D01*
X-2471471Y10883292D01*
X-2475995Y10837359D01*
X-2485000Y10792089D01*
X-2485000Y10745932D01*
X-2489524Y10700000D01*
X-6725830Y10700000D01*
X-6637803Y11226026D01*
X-6635907Y11240238D01*
X-6633661Y11254417D01*
X-6631796Y11271050D01*
X-6398038Y13613000D01*
X-5455000Y13613000D01*
X-5455000Y13063000D01*
X-5408415Y12844013D01*
X-5320003Y12638322D01*
X-5193161Y12453831D01*
X-5032764Y12297631D01*
X-4844976Y12175724D01*
X-4621874Y12095881D01*
X-4447000Y12222046D01*
X-4447000Y13613000D01*
X-5455000Y13613000D01*
X-6398038Y13613000D01*
X-6396825Y13625152D01*
X-6395877Y13639429D01*
X-6394573Y13653755D01*
X-6393815Y13670475D01*
X-6369051Y14417000D01*
X-5455000Y14417000D01*
X-5455000Y13867000D01*
X-4447000Y13867000D01*
X-4447000Y15257954D01*
X-4193000Y15257954D01*
X-4193000Y13867000D01*
X-4173000Y13867000D01*
X-4173000Y13613000D01*
X-4193000Y13613000D01*
X-4193000Y12222046D01*
X-4018126Y12095881D01*
X-3795024Y12175724D01*
X-3607236Y12297631D01*
X-3446839Y12453831D01*
X-3319997Y12638322D01*
X-3231585Y12844013D01*
X-3185000Y13063000D01*
X-3185000Y13353096D01*
X-3170022Y13346892D01*
X-2984552Y13310000D01*
X-2795448Y13310000D01*
X-2609978Y13346892D01*
X-2435269Y13419259D01*
X-2278036Y13524319D01*
X-2144319Y13658036D01*
X-2039259Y13815269D01*
X-1966892Y13989978D01*
X-1930000Y14175448D01*
X-1930000Y14364552D01*
X1930000Y14364552D01*
X1930000Y14175448D01*
X1966892Y13989978D01*
X2039259Y13815269D01*
X2144319Y13658036D01*
X2278036Y13524319D01*
X2435269Y13419259D01*
X2609978Y13346892D01*
X2795448Y13310000D01*
X2984552Y13310000D01*
X3170022Y13346892D01*
X3185000Y13353096D01*
X3185000Y13063000D01*
X3231585Y12844013D01*
X3319997Y12638322D01*
X3446839Y12453831D01*
X3607236Y12297631D01*
X3795024Y12175724D01*
X4018126Y12095881D01*
X4193000Y12222046D01*
X4193000Y13613000D01*
X4447000Y13613000D01*
X4447000Y12222046D01*
X4621874Y12095881D01*
X4844976Y12175724D01*
X5032764Y12297631D01*
X5193161Y12453831D01*
X5320003Y12638322D01*
X5408415Y12844013D01*
X5455000Y13063000D01*
X5455000Y13613000D01*
X4447000Y13613000D01*
X4193000Y13613000D01*
X4173000Y13613000D01*
X4173000Y13867000D01*
X4193000Y13867000D01*
X4193000Y15257954D01*
X4447000Y15257954D01*
X4447000Y13867000D01*
X5455000Y13867000D01*
X5455000Y14417000D01*
X5408415Y14635987D01*
X5320003Y14841678D01*
X5193161Y15026169D01*
X5032764Y15182369D01*
X4844976Y15304276D01*
X4621874Y15384119D01*
X4447000Y15257954D01*
X4193000Y15257954D01*
X4018126Y15384119D01*
X3795024Y15304276D01*
X3607236Y15182369D01*
X3462884Y15041794D01*
X3344731Y15120741D01*
X3170022Y15193108D01*
X2984552Y15230000D01*
X2795448Y15230000D01*
X2609978Y15193108D01*
X2435269Y15120741D01*
X2278036Y15015681D01*
X2144319Y14881964D01*
X2039259Y14724731D01*
X1966892Y14550022D01*
X1930000Y14364552D01*
X-1930000Y14364552D01*
X-1966892Y14550022D01*
X-2039259Y14724731D01*
X-2144319Y14881964D01*
X-2278036Y15015681D01*
X-2435269Y15120741D01*
X-2609978Y15193108D01*
X-2795448Y15230000D01*
X-2984552Y15230000D01*
X-3170022Y15193108D01*
X-3344731Y15120741D01*
X-3462884Y15041794D01*
X-3607236Y15182369D01*
X-3795024Y15304276D01*
X-4018126Y15384119D01*
X-4193000Y15257954D01*
X-4447000Y15257954D01*
X-4621874Y15384119D01*
X-4844976Y15304276D01*
X-5032764Y15182369D01*
X-5193161Y15026169D01*
X-5320003Y14841678D01*
X-5408415Y14635987D01*
X-5455000Y14417000D01*
X-6369051Y14417000D01*
X-6316116Y16012710D01*
X-6315000Y16024036D01*
X-6315000Y17793000D01*
X-5455000Y17793000D01*
X-5455000Y17493000D01*
X-5408415Y17274013D01*
X-5320003Y17068322D01*
X-5193161Y16883831D01*
X-5032764Y16727631D01*
X-4844976Y16605724D01*
X-4621874Y16525881D01*
X-4447000Y16652046D01*
X-4447000Y17793000D01*
X-4193000Y17793000D01*
X-4193000Y16652046D01*
X-4018126Y16525881D01*
X-3795024Y16605724D01*
X-3607236Y16727631D01*
X-3446839Y16883831D01*
X-3319997Y17068322D01*
X-3231585Y17274013D01*
X-3185000Y17493000D01*
X-3185000Y17793000D01*
X3185000Y17793000D01*
X3185000Y17493000D01*
X3231585Y17274013D01*
X3319997Y17068322D01*
X3446839Y16883831D01*
X3607236Y16727631D01*
X3795024Y16605724D01*
X4018126Y16525881D01*
X4193000Y16652046D01*
X4193000Y17793000D01*
X4447000Y17793000D01*
X4447000Y16652046D01*
X4621874Y16525881D01*
X4844976Y16605724D01*
X5032764Y16727631D01*
X5193161Y16883831D01*
X5320003Y17068322D01*
X5408415Y17274013D01*
X5455000Y17493000D01*
X5455000Y17793000D01*
X4447000Y17793000D01*
X4193000Y17793000D01*
X3185000Y17793000D01*
X-3185000Y17793000D01*
X-4193000Y17793000D01*
X-4447000Y17793000D01*
X-5455000Y17793000D01*
X-6315000Y17793000D01*
X-6315000Y18347000D01*
X-5455000Y18347000D01*
X-5455000Y18047000D01*
X-4447000Y18047000D01*
X-4447000Y19187954D01*
X-4193000Y19187954D01*
X-4193000Y18047000D01*
X-3185000Y18047000D01*
X-3185000Y18347000D01*
X3185000Y18347000D01*
X3185000Y18047000D01*
X4193000Y18047000D01*
X4193000Y19187954D01*
X4447000Y19187954D01*
X4447000Y18047000D01*
X5455000Y18047000D01*
X5455000Y18347000D01*
X5408415Y18565987D01*
X5320003Y18771678D01*
X5193161Y18956169D01*
X5032764Y19112369D01*
X4844976Y19234276D01*
X4621874Y19314119D01*
X4447000Y19187954D01*
X4193000Y19187954D01*
X4018126Y19314119D01*
X3795024Y19234276D01*
X3607236Y19112369D01*
X3446839Y18956169D01*
X3319997Y18771678D01*
X3231585Y18565987D01*
X3185000Y18347000D01*
X-3185000Y18347000D01*
X-3231585Y18565987D01*
X-3319997Y18771678D01*
X-3446839Y18956169D01*
X-3607236Y19112369D01*
X-3795024Y19234276D01*
X-4018126Y19314119D01*
X-4193000Y19187954D01*
X-4447000Y19187954D01*
X-4621874Y19314119D01*
X-4844976Y19234276D01*
X-5032764Y19112369D01*
X-5193161Y18956169D01*
X-5320003Y18771678D01*
X-5408415Y18565987D01*
X-5455000Y18347000D01*
X-6315000Y18347000D01*
X-6315000Y19872683D01*
X6315000Y19872683D01*
X6315001Y16024036D01*
G04 #@! TA.AperFunction,Conductor*
D18*
G36*
X6315001Y16024036D02*
G01*
X6315938Y16014518D01*
X6370896Y14046976D01*
X6371661Y14034463D01*
X6372056Y14021897D01*
X6373341Y14005209D01*
X6583647Y11648776D01*
X6585394Y11634552D01*
X6586795Y11620258D01*
X6589183Y11603692D01*
X6955197Y9266377D01*
X6957882Y9252298D01*
X6960228Y9238131D01*
X6963708Y9221759D01*
X7483820Y6913842D01*
X7487426Y6899999D01*
X7490712Y6885990D01*
X7495269Y6869886D01*
X8167192Y4601511D01*
X8171716Y4587910D01*
X8175915Y4574177D01*
X8181530Y4558410D01*
X9002310Y2339553D01*
X9007725Y2326284D01*
X9012825Y2312858D01*
X9019473Y2297498D01*
X9985501Y137915D01*
X9991782Y125038D01*
X9997762Y111976D01*
X10005413Y97090D01*
X11112440Y-1993722D01*
X11119573Y-2006177D01*
X11126394Y-2018792D01*
X11135014Y-2033138D01*
X12378174Y-4045986D01*
X12386105Y-4057923D01*
X12393758Y-4070076D01*
X12403311Y-4083820D01*
X13777138Y-6009853D01*
X13785845Y-6021242D01*
X13794284Y-6032857D01*
X13804726Y-6045937D01*
X15303179Y-7876688D01*
X15312603Y-7887454D01*
X15321811Y-7898505D01*
X15333077Y-7910841D01*
X15333098Y-7910865D01*
X15333113Y-7910880D01*
X16934383Y-9622036D01*
X16941587Y-9630814D01*
X19662991Y-12352219D01*
X10732233Y-21282978D01*
X8858787Y-19409532D01*
X10074997Y-19409532D01*
X10287129Y-19621664D01*
X10474917Y-19743570D01*
X10682879Y-19826499D01*
X10903025Y-19867263D01*
X11126893Y-19864295D01*
X11345880Y-19817711D01*
X11560095Y-19716411D01*
X11594537Y-19503544D01*
X10787761Y-18696768D01*
X10074997Y-19409532D01*
X8858787Y-19409532D01*
X8010828Y-18561573D01*
X7996961Y-18550193D01*
X7832264Y-18401899D01*
X9437661Y-18401899D01*
X9478425Y-18622045D01*
X9561354Y-18830007D01*
X9683260Y-19017795D01*
X9895392Y-19229927D01*
X10608156Y-18517163D01*
X10967366Y-18517163D01*
X11774142Y-19323939D01*
X11987009Y-19289497D01*
X12088309Y-19075282D01*
X12134893Y-18856295D01*
X12137861Y-18632427D01*
X12097097Y-18412281D01*
X12014168Y-18204319D01*
X11892262Y-18016531D01*
X11680130Y-17804399D01*
X10967366Y-18517163D01*
X10608156Y-18517163D01*
X9801380Y-17710387D01*
X9588513Y-17744829D01*
X9487213Y-17959044D01*
X9440629Y-18178031D01*
X9437661Y-18401899D01*
X7832264Y-18401899D01*
X7178030Y-17812824D01*
X7171003Y-17807235D01*
X7164547Y-17801000D01*
X7117457Y-17764209D01*
X6790205Y-17530782D01*
X9980985Y-17530782D01*
X10787761Y-18337558D01*
X11500525Y-17624794D01*
X11288393Y-17412662D01*
X11100605Y-17290756D01*
X10892643Y-17207827D01*
X10672497Y-17167063D01*
X10448629Y-17170031D01*
X10229642Y-17216615D01*
X10015427Y-17317915D01*
X9980985Y-17530782D01*
X6790205Y-17530782D01*
X6056084Y-17007139D01*
X6045932Y-17000795D01*
X6036378Y-16993596D01*
X5985155Y-16962818D01*
X5047707Y-16453826D01*
X7119290Y-16453826D01*
X7508199Y-16842734D01*
X7695987Y-16964641D01*
X7903949Y-17047570D01*
X8124095Y-17088334D01*
X8347963Y-17085366D01*
X8566950Y-17038781D01*
X8781165Y-16937482D01*
X8815607Y-16724615D01*
X7832054Y-15741062D01*
X7119290Y-16453826D01*
X5047707Y-16453826D01*
X4839430Y-16340741D01*
X4828585Y-16335684D01*
X4818222Y-16329701D01*
X4763630Y-16305395D01*
X3550634Y-15827583D01*
X3539253Y-15823885D01*
X3528239Y-15819210D01*
X3471091Y-15801738D01*
X2761172Y-15618140D01*
X2943989Y-15581775D01*
X3196043Y-15477371D01*
X3422886Y-15325799D01*
X3615799Y-15132886D01*
X3767371Y-14906043D01*
X3810000Y-14803127D01*
X3852629Y-14906043D01*
X4004201Y-15132886D01*
X4197114Y-15325799D01*
X4423957Y-15477371D01*
X4676011Y-15581775D01*
X4943589Y-15635000D01*
X5216411Y-15635000D01*
X5483989Y-15581775D01*
X5736043Y-15477371D01*
X5962886Y-15325799D01*
X6019269Y-15269416D01*
X6305177Y-15269416D01*
X6345941Y-15489562D01*
X6428870Y-15697524D01*
X6550777Y-15885312D01*
X6939685Y-16274221D01*
X7652449Y-15561457D01*
X6668896Y-14577904D01*
X6456029Y-14612346D01*
X6354730Y-14826561D01*
X6308145Y-15045548D01*
X6305177Y-15269416D01*
X6019269Y-15269416D01*
X6155799Y-15132886D01*
X6307371Y-14906043D01*
X6411775Y-14653989D01*
X6462635Y-14398299D01*
X6848501Y-14398299D01*
X7832054Y-15381852D01*
X7846197Y-15367710D01*
X8025802Y-15547315D01*
X8011659Y-15561457D01*
X8995212Y-16545010D01*
X9208079Y-16510568D01*
X9309378Y-16296353D01*
X9355963Y-16077366D01*
X9358634Y-15875892D01*
X9498006Y-15848169D01*
X9672715Y-15775802D01*
X9829948Y-15670742D01*
X9963665Y-15537025D01*
X10068725Y-15379792D01*
X10141092Y-15205083D01*
X10177984Y-15019613D01*
X10177984Y-14830509D01*
X10141092Y-14645039D01*
X10068725Y-14470330D01*
X9963665Y-14313097D01*
X9829948Y-14179380D01*
X9672715Y-14074320D01*
X9498006Y-14001953D01*
X9312536Y-13965061D01*
X9123432Y-13965061D01*
X8937962Y-14001953D01*
X8763253Y-14074320D01*
X8606020Y-14179380D01*
X8472303Y-14313097D01*
X8367243Y-14470330D01*
X8361038Y-14485309D01*
X8155909Y-14280180D01*
X7968121Y-14158273D01*
X7760159Y-14075344D01*
X7540013Y-14034580D01*
X7316145Y-14037548D01*
X7097158Y-14084133D01*
X6882943Y-14185432D01*
X6848501Y-14398299D01*
X6462635Y-14398299D01*
X6465000Y-14386411D01*
X6465000Y-14113589D01*
X6411775Y-13846011D01*
X6333862Y-13657911D01*
X9915000Y-13657911D01*
X9915000Y-13842089D01*
X9950932Y-14022729D01*
X10021414Y-14192889D01*
X10123738Y-14346028D01*
X10253972Y-14476262D01*
X10407111Y-14578586D01*
X10577271Y-14649068D01*
X10757911Y-14685000D01*
X10942089Y-14685000D01*
X11122729Y-14649068D01*
X11292889Y-14578586D01*
X11323352Y-14558231D01*
X11363747Y-14585222D01*
X11533907Y-14655704D01*
X11714547Y-14691636D01*
X11898725Y-14691636D01*
X12079365Y-14655704D01*
X12249525Y-14585222D01*
X12402664Y-14482898D01*
X12532898Y-14352664D01*
X12635222Y-14199525D01*
X12699290Y-14044850D01*
X13161435Y-13582706D01*
X13193293Y-13556561D01*
X13229649Y-13512262D01*
X13297638Y-13429416D01*
X13366743Y-13300130D01*
X16184399Y-13300130D01*
X16396531Y-13512262D01*
X16584319Y-13634168D01*
X16792281Y-13717097D01*
X17012427Y-13757861D01*
X17236295Y-13754893D01*
X17455282Y-13708309D01*
X17669497Y-13607009D01*
X17703939Y-13394142D01*
X16897163Y-12587366D01*
X16184399Y-13300130D01*
X13366743Y-13300130D01*
X13375174Y-13284357D01*
X13422920Y-13126959D01*
X13430092Y-13054140D01*
X13435002Y-13004289D01*
X13435002Y-13004288D01*
X13438476Y-12969015D01*
X13499070Y-12822727D01*
X13535002Y-12642087D01*
X13535002Y-12457909D01*
X13502100Y-12292497D01*
X15547063Y-12292497D01*
X15587827Y-12512643D01*
X15670756Y-12720605D01*
X15792662Y-12908393D01*
X16004794Y-13120525D01*
X16717558Y-12407761D01*
X17076768Y-12407761D01*
X17883544Y-13214537D01*
X18096411Y-13180095D01*
X18197711Y-12965880D01*
X18244295Y-12746893D01*
X18247263Y-12523025D01*
X18206499Y-12302879D01*
X18123570Y-12094917D01*
X18001664Y-11907129D01*
X17789532Y-11694997D01*
X17076768Y-12407761D01*
X16717558Y-12407761D01*
X15910782Y-11600985D01*
X15697915Y-11635427D01*
X15596615Y-11849642D01*
X15550031Y-12068629D01*
X15547063Y-12292497D01*
X13502100Y-12292497D01*
X13499070Y-12277269D01*
X13428588Y-12107109D01*
X13326264Y-11953970D01*
X13196030Y-11823736D01*
X13135016Y-11782968D01*
X13210509Y-11797984D01*
X13399613Y-11797984D01*
X13585083Y-11761092D01*
X13759792Y-11688725D01*
X13917025Y-11583665D01*
X14050742Y-11449948D01*
X14069830Y-11421380D01*
X16090387Y-11421380D01*
X16897163Y-12228156D01*
X17609927Y-11515392D01*
X17397795Y-11303260D01*
X17210007Y-11181354D01*
X17002045Y-11098425D01*
X16781899Y-11057661D01*
X16558031Y-11060629D01*
X16339044Y-11107213D01*
X16124829Y-11208513D01*
X16090387Y-11421380D01*
X14069830Y-11421380D01*
X14155802Y-11292715D01*
X14228169Y-11118006D01*
X14255892Y-10978634D01*
X14457366Y-10975963D01*
X14676353Y-10929378D01*
X14890568Y-10828079D01*
X14925010Y-10615212D01*
X13941457Y-9631659D01*
X13927315Y-9645802D01*
X13747710Y-9466197D01*
X13761852Y-9452054D01*
X14121062Y-9452054D01*
X15104615Y-10435607D01*
X15317482Y-10401165D01*
X15418781Y-10186950D01*
X15465366Y-9967963D01*
X15468334Y-9744095D01*
X15427570Y-9523949D01*
X15344641Y-9315987D01*
X15222734Y-9128199D01*
X14833826Y-8739290D01*
X14121062Y-9452054D01*
X13761852Y-9452054D01*
X12778299Y-8468501D01*
X12565432Y-8502943D01*
X12464133Y-8717158D01*
X12417548Y-8936145D01*
X12414580Y-9160013D01*
X12455344Y-9380159D01*
X12538273Y-9588121D01*
X12660180Y-9775909D01*
X12865309Y-9981038D01*
X12850330Y-9987243D01*
X12693097Y-10092303D01*
X12559380Y-10226020D01*
X12454320Y-10383253D01*
X12381953Y-10557962D01*
X12345061Y-10743432D01*
X12345061Y-10932536D01*
X12381953Y-11118006D01*
X12454320Y-11292715D01*
X12559380Y-11449948D01*
X12693097Y-11583665D01*
X12760294Y-11628565D01*
X12692091Y-11614998D01*
X12507913Y-11614998D01*
X12327273Y-11650930D01*
X12160539Y-11719993D01*
X12094355Y-11692579D01*
X11913715Y-11656647D01*
X11729537Y-11656647D01*
X11548897Y-11692579D01*
X11378737Y-11763061D01*
X11225598Y-11865385D01*
X11095364Y-11995619D01*
X10993040Y-12148758D01*
X10922558Y-12318918D01*
X10903276Y-12415856D01*
X10378806Y-12940327D01*
X10253972Y-13023738D01*
X10123738Y-13153972D01*
X10021414Y-13307111D01*
X9950932Y-13477271D01*
X9915000Y-13657911D01*
X6333862Y-13657911D01*
X6307371Y-13593957D01*
X6155799Y-13367114D01*
X5962886Y-13174201D01*
X5935000Y-13155568D01*
X5935000Y-12207446D01*
X5956690Y-12316489D01*
X6038479Y-12513946D01*
X6157219Y-12691653D01*
X6308347Y-12842781D01*
X6486054Y-12961521D01*
X6683511Y-13043310D01*
X6893131Y-13085006D01*
X7106857Y-13085006D01*
X7316477Y-13043310D01*
X7513934Y-12961521D01*
X7691641Y-12842781D01*
X7842769Y-12691653D01*
X7961509Y-12513946D01*
X8043298Y-12316489D01*
X8084994Y-12106869D01*
X8084994Y-11893143D01*
X8043298Y-11683523D01*
X7961509Y-11486066D01*
X7842769Y-11308359D01*
X7691641Y-11157231D01*
X7513934Y-11038491D01*
X7316477Y-10956702D01*
X7106857Y-10915006D01*
X6893131Y-10915006D01*
X6683511Y-10956702D01*
X6486054Y-11038491D01*
X6308347Y-11157231D01*
X6157219Y-11308359D01*
X6038479Y-11486066D01*
X5956690Y-11683523D01*
X5935000Y-11792566D01*
X5935000Y-8493137D01*
X9415000Y-8493137D01*
X9415000Y-8706863D01*
X9456696Y-8916483D01*
X9538485Y-9113940D01*
X9657225Y-9291647D01*
X9808353Y-9442775D01*
X9986060Y-9561515D01*
X10183517Y-9643304D01*
X10393137Y-9685000D01*
X10606863Y-9685000D01*
X10816483Y-9643304D01*
X11013940Y-9561515D01*
X11191647Y-9442775D01*
X11342775Y-9291647D01*
X11461515Y-9113940D01*
X11543304Y-8916483D01*
X11585000Y-8706863D01*
X11585000Y-8493137D01*
X11544374Y-8288896D01*
X12957904Y-8288896D01*
X13941457Y-9272449D01*
X14654221Y-8559685D01*
X14265312Y-8170777D01*
X14077524Y-8048870D01*
X13869562Y-7965941D01*
X13649416Y-7925177D01*
X13425548Y-7928145D01*
X13206561Y-7974730D01*
X12992346Y-8076029D01*
X12957904Y-8288896D01*
X11544374Y-8288896D01*
X11543304Y-8283517D01*
X11461515Y-8086060D01*
X11342775Y-7908353D01*
X11191647Y-7757225D01*
X11013940Y-7638485D01*
X10816483Y-7556696D01*
X10606863Y-7515000D01*
X10393137Y-7515000D01*
X10183517Y-7556696D01*
X9986060Y-7638485D01*
X9808353Y-7757225D01*
X9657225Y-7908353D01*
X9538485Y-8086060D01*
X9456696Y-8283517D01*
X9415000Y-8493137D01*
X5935000Y-8493137D01*
X5935000Y-7745865D01*
X7388214Y-6292652D01*
X7542889Y-6228584D01*
X7696028Y-6126260D01*
X7826262Y-5996026D01*
X7928586Y-5842887D01*
X7999068Y-5672727D01*
X8035000Y-5492087D01*
X8035000Y-5307909D01*
X7999068Y-5127269D01*
X7928586Y-4957109D01*
X7826262Y-4803970D01*
X7696028Y-4673736D01*
X7542889Y-4571412D01*
X7372729Y-4500930D01*
X7192089Y-4464998D01*
X7007911Y-4464998D01*
X6827271Y-4500930D01*
X6657111Y-4571412D01*
X6535000Y-4653004D01*
X6535000Y-1541018D01*
X6539040Y-1500000D01*
X6534021Y-1449046D01*
X6522918Y-1336311D01*
X6475172Y-1178913D01*
X6397636Y-1033854D01*
X6293291Y-906709D01*
X6261433Y-880564D01*
X5063065Y317803D01*
X5227973Y285000D01*
X5412151Y285000D01*
X5592791Y320932D01*
X5762951Y391414D01*
X5916090Y493738D01*
X6046324Y623972D01*
X6148648Y777111D01*
X6219130Y947271D01*
X6255062Y1127911D01*
X6255062Y1312089D01*
X6219130Y1492729D01*
X6148648Y1662889D01*
X6046324Y1816028D01*
X5916090Y1946262D01*
X5762951Y2048586D01*
X5592791Y2119068D01*
X5412151Y2155000D01*
X5227973Y2155000D01*
X5047333Y2119068D01*
X4877173Y2048586D01*
X4724034Y1946262D01*
X4593800Y1816028D01*
X4491476Y1662889D01*
X4420994Y1492729D01*
X4385062Y1312089D01*
X4385062Y1127911D01*
X4417865Y963003D01*
X3919446Y1461421D01*
X3893291Y1493291D01*
X3766146Y1597636D01*
X3621087Y1675172D01*
X3463689Y1722918D01*
X3341019Y1735000D01*
X3341018Y1735000D01*
X3300000Y1739040D01*
X3258982Y1735000D01*
X-3579175Y1735000D01*
X-3781963Y1937788D01*
X-3846031Y2092463D01*
X-3948355Y2245602D01*
X-4078589Y2375836D01*
X-4231728Y2478160D01*
X-4401888Y2548642D01*
X-4466618Y2561518D01*
X-4466618Y2852515D01*
X-1311786Y6007346D01*
X-1157111Y6071414D01*
X-1003972Y6173738D01*
X-873738Y6303972D01*
X-771414Y6457111D01*
X-700932Y6627271D01*
X-665000Y6807911D01*
X-665000Y6917089D01*
X4565014Y6917089D01*
X4565014Y6732911D01*
X4600946Y6552271D01*
X4671428Y6382111D01*
X4773752Y6228972D01*
X4903986Y6098738D01*
X5057125Y5996414D01*
X5227285Y5925932D01*
X5407925Y5890000D01*
X5592103Y5890000D01*
X5772743Y5925932D01*
X5942903Y5996414D01*
X6096042Y6098738D01*
X6226276Y6228972D01*
X6328600Y6382111D01*
X6399082Y6552271D01*
X6435014Y6732911D01*
X6435014Y6917089D01*
X6399082Y7097729D01*
X6328600Y7267889D01*
X6226276Y7421028D01*
X6096042Y7551262D01*
X5942903Y7653586D01*
X5772743Y7724068D01*
X5592103Y7760000D01*
X5407925Y7760000D01*
X5227285Y7724068D01*
X5057125Y7653586D01*
X4903986Y7551262D01*
X4773752Y7421028D01*
X4671428Y7267889D01*
X4600946Y7097729D01*
X4565014Y6917089D01*
X-665000Y6917089D01*
X-665000Y6992089D01*
X-700932Y7172729D01*
X-771414Y7342889D01*
X-873738Y7496028D01*
X-1003972Y7626262D01*
X-1157111Y7728586D01*
X-1327271Y7799068D01*
X-1507911Y7835000D01*
X-1692089Y7835000D01*
X-1872729Y7799068D01*
X-2042889Y7728586D01*
X-2196028Y7626262D01*
X-2326262Y7496028D01*
X-2428586Y7342889D01*
X-2492654Y7188214D01*
X-3065000Y6615868D01*
X-3065000Y6692089D01*
X-3100932Y6872729D01*
X-3171414Y7042889D01*
X-3273738Y7196028D01*
X-3403972Y7326262D01*
X-3557111Y7428586D01*
X-3727271Y7499068D01*
X-3907911Y7535000D01*
X-4092089Y7535000D01*
X-4272729Y7499068D01*
X-4442889Y7428586D01*
X-4596028Y7326262D01*
X-4726262Y7196028D01*
X-4828586Y7042889D01*
X-4899068Y6872729D01*
X-4935000Y6692089D01*
X-4935000Y6507911D01*
X-4899068Y6327271D01*
X-4828586Y6157111D01*
X-4726262Y6003972D01*
X-4596028Y5873738D01*
X-4442889Y5771414D01*
X-4272729Y5700932D01*
X-4092089Y5665000D01*
X-4015868Y5665000D01*
X-4154352Y5526516D01*
X-4307111Y5628586D01*
X-4477271Y5699068D01*
X-4657911Y5735000D01*
X-4842089Y5735000D01*
X-5022729Y5699068D01*
X-5192889Y5628586D01*
X-5346028Y5526262D01*
X-5476262Y5396028D01*
X-5578586Y5242889D01*
X-5642654Y5088214D01*
X-5754289Y4976579D01*
X-5803972Y5026262D01*
X-5957111Y5128586D01*
X-6127271Y5199068D01*
X-6307911Y5235000D01*
X-6492089Y5235000D01*
X-6672729Y5199068D01*
X-6842889Y5128586D01*
X-6996028Y5026262D01*
X-7126262Y4896028D01*
X-7228586Y4742889D01*
X-7292654Y4588214D01*
X-8361426Y3519441D01*
X-8393290Y3493291D01*
X-8469087Y3400932D01*
X-8497636Y3366145D01*
X-8575172Y3221086D01*
X-8622918Y3063688D01*
X-8639040Y2900000D01*
X-8634999Y2858972D01*
X-8635000Y741019D01*
X-8639040Y700000D01*
X-8629080Y598874D01*
X-8622918Y536312D01*
X-8575172Y378914D01*
X-8497636Y233855D01*
X-8393291Y106709D01*
X-8361421Y80554D01*
X-7835000Y-445868D01*
X-7835001Y-5954133D01*
X-9860425Y-7979558D01*
X-9892289Y-8005708D01*
X-9967827Y-8097751D01*
X-10030765Y-8034813D01*
X-10208472Y-7916073D01*
X-10405929Y-7834284D01*
X-10615549Y-7792588D01*
X-10829275Y-7792588D01*
X-11038895Y-7834284D01*
X-11236352Y-7916073D01*
X-11414059Y-8034813D01*
X-11565187Y-8185941D01*
X-11683927Y-8363648D01*
X-11765716Y-8561105D01*
X-11807412Y-8770725D01*
X-11807412Y-8984451D01*
X-11765716Y-9194071D01*
X-11683927Y-9391528D01*
X-11565187Y-9569235D01*
X-11414059Y-9720363D01*
X-11236352Y-9839103D01*
X-11038895Y-9920892D01*
X-10829275Y-9962588D01*
X-10615549Y-9962588D01*
X-10405929Y-9920892D01*
X-10208472Y-9839103D01*
X-10108106Y-9772041D01*
X-10025261Y-9896028D01*
X-9895027Y-10026262D01*
X-9741888Y-10128586D01*
X-9571728Y-10199068D01*
X-9506999Y-10211944D01*
X-9506999Y-10327042D01*
X-9571067Y-10481718D01*
X-9606999Y-10662358D01*
X-9606999Y-10846536D01*
X-9571067Y-11027176D01*
X-9500585Y-11197336D01*
X-9398261Y-11350475D01*
X-9268027Y-11480709D01*
X-9114888Y-11583033D01*
X-8944728Y-11653515D01*
X-8764088Y-11689447D01*
X-8579910Y-11689447D01*
X-8399270Y-11653515D01*
X-8278052Y-11603305D01*
X-8211515Y-11763940D01*
X-8092775Y-11941647D01*
X-7941647Y-12092775D01*
X-7763940Y-12211515D01*
X-7566483Y-12293304D01*
X-7356863Y-12335000D01*
X-7143137Y-12335000D01*
X-6933517Y-12293304D01*
X-6736060Y-12211515D01*
X-6558353Y-12092775D01*
X-6407225Y-11941647D01*
X-6288485Y-11763940D01*
X-6206696Y-11566483D01*
X-6165000Y-11356863D01*
X-6165000Y-11143137D01*
X-6206696Y-10933517D01*
X-6288485Y-10736060D01*
X-6407225Y-10558353D01*
X-6558353Y-10407225D01*
X-6736060Y-10288485D01*
X-6933517Y-10206696D01*
X-7143137Y-10165000D01*
X-7356863Y-10165000D01*
X-7566483Y-10206696D01*
X-7763940Y-10288485D01*
X-7833671Y-10335078D01*
X-7836999Y-10327043D01*
X-7836999Y-9404575D01*
X-7829033Y-9399252D01*
X-7698799Y-9269018D01*
X-7596475Y-9115879D01*
X-7532406Y-8961203D01*
X-6437035Y-7865831D01*
X-6419785Y-7891647D01*
X-6268657Y-8042775D01*
X-6090950Y-8161515D01*
X-5893493Y-8243304D01*
X-5683873Y-8285000D01*
X-5635000Y-8285000D01*
X-5635000Y-10158981D01*
X-5639040Y-10200000D01*
X-5635000Y-10241018D01*
X-5622918Y-10363688D01*
X-5575172Y-10521086D01*
X-5497636Y-10666145D01*
X-5444362Y-10731060D01*
X-5528586Y-10857111D01*
X-5599068Y-11027271D01*
X-5635000Y-11207911D01*
X-5635000Y-11392089D01*
X-5599068Y-11572729D01*
X-5528586Y-11742889D01*
X-5426262Y-11896028D01*
X-5296028Y-12026262D01*
X-5142889Y-12128586D01*
X-4972729Y-12199068D01*
X-4792089Y-12235000D01*
X-4607911Y-12235000D01*
X-4427271Y-12199068D01*
X-4257111Y-12128586D01*
X-4134325Y-12046543D01*
X-3434999Y-12745870D01*
X-3434999Y-13186314D01*
X-3615799Y-13367114D01*
X-3767371Y-13593957D01*
X-3808511Y-13693279D01*
X-3823723Y-13651168D01*
X-3884140Y-13538137D01*
X-4123007Y-13472612D01*
X-4900395Y-14250000D01*
X-4123007Y-15027388D01*
X-3884140Y-14961863D01*
X-3809836Y-14803523D01*
X-3767371Y-14906043D01*
X-3615799Y-15132886D01*
X-3422886Y-15325799D01*
X-3196043Y-15477371D01*
X-2943989Y-15581775D01*
X-2761889Y-15617997D01*
X-3281759Y-15742807D01*
X-3293207Y-15746307D01*
X-3304907Y-15748794D01*
X-3361742Y-15767260D01*
X-4582892Y-16223830D01*
X-4593824Y-16228697D01*
X-4605138Y-16232593D01*
X-4659298Y-16257848D01*
X-5815705Y-16859834D01*
X-5825972Y-16866003D01*
X-5836717Y-16871244D01*
X-5887396Y-16902911D01*
X-6961818Y-17641342D01*
X-6971246Y-17648708D01*
X-6981283Y-17655226D01*
X-7027724Y-17692833D01*
X-7994655Y-18548300D01*
X-8010828Y-18561573D01*
X-10732233Y-21282978D01*
X-12511666Y-19503544D01*
X-11594537Y-19503544D01*
X-11560095Y-19716411D01*
X-11345880Y-19817711D01*
X-11126893Y-19864295D01*
X-10903025Y-19867263D01*
X-10682879Y-19826499D01*
X-10474917Y-19743570D01*
X-10287129Y-19621664D01*
X-10074997Y-19409532D01*
X-10787761Y-18696768D01*
X-11594537Y-19503544D01*
X-12511666Y-19503544D01*
X-13382783Y-18632427D01*
X-12137861Y-18632427D01*
X-12134893Y-18856295D01*
X-12088309Y-19075282D01*
X-11987009Y-19289497D01*
X-11774142Y-19323939D01*
X-10967366Y-18517163D01*
X-10608156Y-18517163D01*
X-9895392Y-19229927D01*
X-9683260Y-19017795D01*
X-9561354Y-18830007D01*
X-9478425Y-18622045D01*
X-9437661Y-18401899D01*
X-9440629Y-18178031D01*
X-9487213Y-17959044D01*
X-9588513Y-17744829D01*
X-9801380Y-17710387D01*
X-10608156Y-18517163D01*
X-10967366Y-18517163D01*
X-11680130Y-17804399D01*
X-11892262Y-18016531D01*
X-12014168Y-18204319D01*
X-12097097Y-18412281D01*
X-12137861Y-18632427D01*
X-13382783Y-18632427D01*
X-14390416Y-17624794D01*
X-11500525Y-17624794D01*
X-10787761Y-18337558D01*
X-9980985Y-17530782D01*
X-10015427Y-17317915D01*
X-10229642Y-17216615D01*
X-10448629Y-17170031D01*
X-10672497Y-17167063D01*
X-10892643Y-17207827D01*
X-11100605Y-17290756D01*
X-11288393Y-17412662D01*
X-11500525Y-17624794D01*
X-14390416Y-17624794D01*
X-15290595Y-16724615D01*
X-8815607Y-16724615D01*
X-8781165Y-16937482D01*
X-8566950Y-17038781D01*
X-8347963Y-17085366D01*
X-8124095Y-17088334D01*
X-7903949Y-17047570D01*
X-7695987Y-16964641D01*
X-7508199Y-16842734D01*
X-7119290Y-16453826D01*
X-7832054Y-15741062D01*
X-8815607Y-16724615D01*
X-15290595Y-16724615D01*
X-18621068Y-13394142D01*
X-17703939Y-13394142D01*
X-17669497Y-13607009D01*
X-17455282Y-13708309D01*
X-17236295Y-13754893D01*
X-17012427Y-13757861D01*
X-16792281Y-13717097D01*
X-16584319Y-13634168D01*
X-16396531Y-13512262D01*
X-16184399Y-13300130D01*
X-16897163Y-12587366D01*
X-17703939Y-13394142D01*
X-18621068Y-13394142D01*
X-19492185Y-12523025D01*
X-18247263Y-12523025D01*
X-18244295Y-12746893D01*
X-18197711Y-12965880D01*
X-18096411Y-13180095D01*
X-17883544Y-13214537D01*
X-17076768Y-12407761D01*
X-16717558Y-12407761D01*
X-16004794Y-13120525D01*
X-15792662Y-12908393D01*
X-15670756Y-12720605D01*
X-15587827Y-12512643D01*
X-15547063Y-12292497D01*
X-15550031Y-12068629D01*
X-15596615Y-11849642D01*
X-15697915Y-11635427D01*
X-15910782Y-11600985D01*
X-16717558Y-12407761D01*
X-17076768Y-12407761D01*
X-17789532Y-11694997D01*
X-18001664Y-11907129D01*
X-18123570Y-12094917D01*
X-18206499Y-12302879D01*
X-18247263Y-12523025D01*
X-19492185Y-12523025D01*
X-19662991Y-12352219D01*
X-18826164Y-11515392D01*
X-17609927Y-11515392D01*
X-16897163Y-12228156D01*
X-16090387Y-11421380D01*
X-16124829Y-11208513D01*
X-16339044Y-11107213D01*
X-16558031Y-11060629D01*
X-16781899Y-11057661D01*
X-17002045Y-11098425D01*
X-17210007Y-11181354D01*
X-17397795Y-11303260D01*
X-17609927Y-11515392D01*
X-18826164Y-11515392D01*
X-17925984Y-10615212D01*
X-14925010Y-10615212D01*
X-14890568Y-10828079D01*
X-14676353Y-10929378D01*
X-14457366Y-10975963D01*
X-14255892Y-10978634D01*
X-14228169Y-11118006D01*
X-14155802Y-11292715D01*
X-14050742Y-11449948D01*
X-13917025Y-11583665D01*
X-13759792Y-11688725D01*
X-13585083Y-11761092D01*
X-13399613Y-11797984D01*
X-13210509Y-11797984D01*
X-13030704Y-11762219D01*
X-13099070Y-11927271D01*
X-13135002Y-12107911D01*
X-13135002Y-12292089D01*
X-13099070Y-12472729D01*
X-13028588Y-12642889D01*
X-12926264Y-12796028D01*
X-12884043Y-12838249D01*
X-12983354Y-12986879D01*
X-13053836Y-13157039D01*
X-13089768Y-13337679D01*
X-13089768Y-13521857D01*
X-13053836Y-13702497D01*
X-12983354Y-13872657D01*
X-12881030Y-14025796D01*
X-12750796Y-14156030D01*
X-12597657Y-14258354D01*
X-12469380Y-14311488D01*
X-12157299Y-14623570D01*
X-12128586Y-14692889D01*
X-12026262Y-14846028D01*
X-11896028Y-14976262D01*
X-11742889Y-15078586D01*
X-11572729Y-15149068D01*
X-11392089Y-15185000D01*
X-11207911Y-15185000D01*
X-11027271Y-15149068D01*
X-10857111Y-15078586D01*
X-10703972Y-14976262D01*
X-10573738Y-14846028D01*
X-10563369Y-14830509D01*
X-10177984Y-14830509D01*
X-10177984Y-15019613D01*
X-10141092Y-15205083D01*
X-10068725Y-15379792D01*
X-9963665Y-15537025D01*
X-9829948Y-15670742D01*
X-9672715Y-15775802D01*
X-9498006Y-15848169D01*
X-9358634Y-15875892D01*
X-9355963Y-16077366D01*
X-9309378Y-16296353D01*
X-9208079Y-16510568D01*
X-8995212Y-16545010D01*
X-8011659Y-15561457D01*
X-7652449Y-15561457D01*
X-6939685Y-16274221D01*
X-6550777Y-15885312D01*
X-6428870Y-15697524D01*
X-6345941Y-15489562D01*
X-6305177Y-15269416D01*
X-6306004Y-15206993D01*
X-5857388Y-15206993D01*
X-5791863Y-15445860D01*
X-5544884Y-15561760D01*
X-5280040Y-15627250D01*
X-5007508Y-15639812D01*
X-4737762Y-15598965D01*
X-4481168Y-15506277D01*
X-4368137Y-15445860D01*
X-4302612Y-15206993D01*
X-5080000Y-14429605D01*
X-5857388Y-15206993D01*
X-6306004Y-15206993D01*
X-6308145Y-15045548D01*
X-6354730Y-14826561D01*
X-6456029Y-14612346D01*
X-6668896Y-14577904D01*
X-7652449Y-15561457D01*
X-8011659Y-15561457D01*
X-8025802Y-15547315D01*
X-7846197Y-15367710D01*
X-7832054Y-15381852D01*
X-6848501Y-14398299D01*
X-6860766Y-14322492D01*
X-6469812Y-14322492D01*
X-6428965Y-14592238D01*
X-6336277Y-14848832D01*
X-6275860Y-14961863D01*
X-6036993Y-15027388D01*
X-5259605Y-14250000D01*
X-6036993Y-13472612D01*
X-6275860Y-13538137D01*
X-6391760Y-13785116D01*
X-6457250Y-14049960D01*
X-6469812Y-14322492D01*
X-6860766Y-14322492D01*
X-6882943Y-14185432D01*
X-7097158Y-14084133D01*
X-7316145Y-14037548D01*
X-7540013Y-14034580D01*
X-7760159Y-14075344D01*
X-7968121Y-14158273D01*
X-8155909Y-14280180D01*
X-8361038Y-14485309D01*
X-8367243Y-14470330D01*
X-8472303Y-14313097D01*
X-8606020Y-14179380D01*
X-8763253Y-14074320D01*
X-8937962Y-14001953D01*
X-9123432Y-13965061D01*
X-9312536Y-13965061D01*
X-9498006Y-14001953D01*
X-9672715Y-14074320D01*
X-9829948Y-14179380D01*
X-9963665Y-14313097D01*
X-10068725Y-14470330D01*
X-10141092Y-14645039D01*
X-10177984Y-14830509D01*
X-10563369Y-14830509D01*
X-10471414Y-14692889D01*
X-10400932Y-14522729D01*
X-10365000Y-14342089D01*
X-10365000Y-14157911D01*
X-10400932Y-13977271D01*
X-10465957Y-13820285D01*
X-10462719Y-13817047D01*
X-10360395Y-13663908D01*
X-10289913Y-13493748D01*
X-10253981Y-13313108D01*
X-10253981Y-13293007D01*
X-5857388Y-13293007D01*
X-5080000Y-14070395D01*
X-4302612Y-13293007D01*
X-4368137Y-13054140D01*
X-4615116Y-12938240D01*
X-4879960Y-12872750D01*
X-5152492Y-12860188D01*
X-5422238Y-12901035D01*
X-5678832Y-12993723D01*
X-5791863Y-13054140D01*
X-5857388Y-13293007D01*
X-10253981Y-13293007D01*
X-10253981Y-13128930D01*
X-10289913Y-12948290D01*
X-10360395Y-12778130D01*
X-10462719Y-12624991D01*
X-10592953Y-12494757D01*
X-10746092Y-12392433D01*
X-10883699Y-12335435D01*
X-11307348Y-11911787D01*
X-11371416Y-11757111D01*
X-11473740Y-11603972D01*
X-11603974Y-11473738D01*
X-11757113Y-11371414D01*
X-11927273Y-11300932D01*
X-12107913Y-11265000D01*
X-12292091Y-11265000D01*
X-12457830Y-11297968D01*
X-12454320Y-11292715D01*
X-12381953Y-11118006D01*
X-12345061Y-10932536D01*
X-12345061Y-10743432D01*
X-12381953Y-10557962D01*
X-12454320Y-10383253D01*
X-12559380Y-10226020D01*
X-12693097Y-10092303D01*
X-12850330Y-9987243D01*
X-12865309Y-9981038D01*
X-12660180Y-9775909D01*
X-12538273Y-9588121D01*
X-12455344Y-9380159D01*
X-12414580Y-9160013D01*
X-12417548Y-8936145D01*
X-12464133Y-8717158D01*
X-12565432Y-8502943D01*
X-12778299Y-8468501D01*
X-13761852Y-9452054D01*
X-13747710Y-9466197D01*
X-13927315Y-9645802D01*
X-13941457Y-9631659D01*
X-14925010Y-10615212D01*
X-17925984Y-10615212D01*
X-17054867Y-9744095D01*
X-15468334Y-9744095D01*
X-15465366Y-9967963D01*
X-15418781Y-10186950D01*
X-15317482Y-10401165D01*
X-15104615Y-10435607D01*
X-14121062Y-9452054D01*
X-14833826Y-8739290D01*
X-15222734Y-9128199D01*
X-15344641Y-9315987D01*
X-15427570Y-9523949D01*
X-15468334Y-9744095D01*
X-17054867Y-9744095D01*
X-16941587Y-9630815D01*
X-16935509Y-9623409D01*
X-15929595Y-8559685D01*
X-14654221Y-8559685D01*
X-13941457Y-9272449D01*
X-12957904Y-8288896D01*
X-12992346Y-8076029D01*
X-13206561Y-7974730D01*
X-13425548Y-7928145D01*
X-13649416Y-7925177D01*
X-13869562Y-7965941D01*
X-14077524Y-8048870D01*
X-14265312Y-8170777D01*
X-14654221Y-8559685D01*
X-15929595Y-8559685D01*
X-15583118Y-8193296D01*
X-15574795Y-8183888D01*
X-15566206Y-8174742D01*
X-15555314Y-8162034D01*
X-14037774Y-6347076D01*
X-14028950Y-6335781D01*
X-14019835Y-6324685D01*
X-14009809Y-6311283D01*
X-12767689Y-4607911D01*
X-12035000Y-4607911D01*
X-12035000Y-4792089D01*
X-11999068Y-4972729D01*
X-11928586Y-5142889D01*
X-11826262Y-5296028D01*
X-11696028Y-5426262D01*
X-11542889Y-5528586D01*
X-11372729Y-5599068D01*
X-11192089Y-5635000D01*
X-11007911Y-5635000D01*
X-10827271Y-5599068D01*
X-10657111Y-5528586D01*
X-10503972Y-5426262D01*
X-10373738Y-5296028D01*
X-10271414Y-5142889D01*
X-10247352Y-5084797D01*
X-10242775Y-5091647D01*
X-10091647Y-5242775D01*
X-9913940Y-5361515D01*
X-9716483Y-5443304D01*
X-9506863Y-5485000D01*
X-9293137Y-5485000D01*
X-9083517Y-5443304D01*
X-8886060Y-5361515D01*
X-8708353Y-5242775D01*
X-8557225Y-5091647D01*
X-8438485Y-4913940D01*
X-8356696Y-4716483D01*
X-8315000Y-4506863D01*
X-8315000Y-4293137D01*
X-8356696Y-4083517D01*
X-8438485Y-3886060D01*
X-8557225Y-3708353D01*
X-8708353Y-3557225D01*
X-8886060Y-3438485D01*
X-9083517Y-3356696D01*
X-9293137Y-3315000D01*
X-9506863Y-3315000D01*
X-9716483Y-3356696D01*
X-9913940Y-3438485D01*
X-10091647Y-3557225D01*
X-10242775Y-3708353D01*
X-10361515Y-3886060D01*
X-10428920Y-4048790D01*
X-10503972Y-3973738D01*
X-10657111Y-3871414D01*
X-10827271Y-3800932D01*
X-11007911Y-3765000D01*
X-11192089Y-3765000D01*
X-11372729Y-3800932D01*
X-11542889Y-3871414D01*
X-11696028Y-3973738D01*
X-11826262Y-4103972D01*
X-11928586Y-4257111D01*
X-11999068Y-4427271D01*
X-12035000Y-4607911D01*
X-12767689Y-4607911D01*
X-12615888Y-4399740D01*
X-12607835Y-4387891D01*
X-12599472Y-4376210D01*
X-12590378Y-4362205D01*
X-12590356Y-4362172D01*
X-12590343Y-4362150D01*
X-11326187Y-2362452D01*
X-11318944Y-2350106D01*
X-11311366Y-2337885D01*
X-11303201Y-2323275D01*
X-10174340Y-244171D01*
X-10167921Y-231352D01*
X-10161181Y-218676D01*
X-10154002Y-203556D01*
X-9165412Y1945792D01*
X-9159858Y1959004D01*
X-9153971Y1972103D01*
X-9147810Y1987666D01*
X-8303840Y4197806D01*
X-8299177Y4211347D01*
X-8294168Y4224817D01*
X-8289052Y4240753D01*
X-7593412Y6501968D01*
X-7589658Y6515786D01*
X-7585551Y6529561D01*
X-7581511Y6545769D01*
X-7581502Y6545802D01*
X-7581498Y6545824D01*
X-7037250Y8848147D01*
X-7034414Y8862214D01*
X-7031236Y8876201D01*
X-7028272Y8892673D01*
X-6874415Y9812089D01*
X-4455000Y9812089D01*
X-4455000Y9627911D01*
X-4419068Y9447271D01*
X-4348586Y9277111D01*
X-4246262Y9123972D01*
X-4116028Y8993738D01*
X-3962889Y8891414D01*
X-3792729Y8820932D01*
X-3612089Y8785000D01*
X-3427911Y8785000D01*
X-3247271Y8820932D01*
X-3077111Y8891414D01*
X-2923972Y8993738D01*
X-2793738Y9123972D01*
X-2691414Y9277111D01*
X-2620932Y9447271D01*
X-2585000Y9627911D01*
X-2585000Y9812089D01*
X-2620932Y9992729D01*
X-2691414Y10162889D01*
X-2793738Y10316028D01*
X-2923972Y10446262D01*
X-3077111Y10548586D01*
X-3247271Y10619068D01*
X-3427911Y10655000D01*
X-3612089Y10655000D01*
X-3792729Y10619068D01*
X-3962889Y10548586D01*
X-4116028Y10446262D01*
X-4246262Y10316028D01*
X-4348586Y10162889D01*
X-4419068Y9992729D01*
X-4455000Y9812089D01*
X-6874415Y9812089D01*
X-6725830Y10700000D01*
X-2489524Y10700000D01*
X-2485000Y10654068D01*
X-2485000Y10607911D01*
X-2475995Y10562641D01*
X-2471471Y10516708D01*
X-2458072Y10472538D01*
X-2449068Y10427271D01*
X-2431406Y10384631D01*
X-2418007Y10340460D01*
X-2396248Y10299752D01*
X-2378586Y10257111D01*
X-2352945Y10218736D01*
X-2331186Y10178028D01*
X-2301903Y10142347D01*
X-2276262Y10103972D01*
X-2243625Y10071335D01*
X-2214344Y10035656D01*
X-2178665Y10006375D01*
X-2146028Y9973738D01*
X-2107653Y9948097D01*
X-2071972Y9918814D01*
X-2031264Y9897055D01*
X-1992889Y9871414D01*
X-1950248Y9853752D01*
X-1909540Y9831993D01*
X-1865369Y9818594D01*
X-1822729Y9800932D01*
X-1777462Y9791928D01*
X-1733292Y9778529D01*
X-1687359Y9774005D01*
X-1642089Y9765000D01*
X515000Y9765000D01*
X515000Y9627911D01*
X550932Y9447271D01*
X621414Y9277111D01*
X723738Y9123972D01*
X853972Y8993738D01*
X1007111Y8891414D01*
X1177271Y8820932D01*
X1357911Y8785000D01*
X1542089Y8785000D01*
X1722729Y8820932D01*
X1892889Y8891414D01*
X2046028Y8993738D01*
X2176262Y9123972D01*
X2278586Y9277111D01*
X2349068Y9447271D01*
X2385000Y9627911D01*
X2385000Y9812089D01*
X2349068Y9992729D01*
X2296601Y10119397D01*
X2301921Y10127359D01*
X2331195Y10163029D01*
X2352948Y10203726D01*
X2378596Y10242111D01*
X2396262Y10284762D01*
X2418016Y10325460D01*
X2431413Y10369623D01*
X2449078Y10412271D01*
X2458083Y10457543D01*
X2471481Y10501709D01*
X2476005Y10547640D01*
X2485010Y10592911D01*
X2485010Y10639069D01*
X2489534Y10685001D01*
X2485010Y10730933D01*
X2485010Y10777089D01*
X2476005Y10822359D01*
X2471481Y10868292D01*
X2458083Y10912459D01*
X2449078Y10957729D01*
X2431413Y11000376D01*
X2418016Y11044540D01*
X2396262Y11085238D01*
X2378596Y11127889D01*
X2352948Y11166274D01*
X2331195Y11206971D01*
X2301921Y11242642D01*
X2276272Y11281028D01*
X2228635Y11328665D01*
X2199354Y11364344D01*
X2163675Y11393625D01*
X2146038Y11411262D01*
X2125300Y11425118D01*
X2056982Y11481186D01*
X1894550Y11568007D01*
X1718302Y11621471D01*
X1580942Y11635000D01*
X1535010Y11639524D01*
X1489078Y11635000D01*
X-1642089Y11635000D01*
X-1687359Y11625995D01*
X-1733292Y11621471D01*
X-1777462Y11608072D01*
X-1822729Y11599068D01*
X-1865369Y11581406D01*
X-1909540Y11568007D01*
X-1950248Y11546248D01*
X-1992889Y11528586D01*
X-2031264Y11502945D01*
X-2071972Y11481186D01*
X-2107653Y11451903D01*
X-2146028Y11426262D01*
X-2178665Y11393625D01*
X-2214344Y11364344D01*
X-2243625Y11328665D01*
X-2276262Y11296028D01*
X-2301903Y11257653D01*
X-2331186Y11221972D01*
X-2352945Y11181264D01*
X-2378586Y11142889D01*
X-2396248Y11100248D01*
X-2418007Y11059540D01*
X-2431406Y11015369D01*
X-2449068Y10972729D01*
X-2458072Y10927462D01*
X-2471471Y10883292D01*
X-2475995Y10837359D01*
X-2485000Y10792089D01*
X-2485000Y10745932D01*
X-2489524Y10700000D01*
X-6725830Y10700000D01*
X-6637803Y11226026D01*
X-6635907Y11240238D01*
X-6633661Y11254417D01*
X-6631796Y11271050D01*
X-6398038Y13613000D01*
X-5455000Y13613000D01*
X-5455000Y13063000D01*
X-5408415Y12844013D01*
X-5320003Y12638322D01*
X-5193161Y12453831D01*
X-5032764Y12297631D01*
X-4844976Y12175724D01*
X-4621874Y12095881D01*
X-4447000Y12222046D01*
X-4447000Y13613000D01*
X-5455000Y13613000D01*
X-6398038Y13613000D01*
X-6396825Y13625152D01*
X-6395877Y13639429D01*
X-6394573Y13653755D01*
X-6393815Y13670475D01*
X-6369051Y14417000D01*
X-5455000Y14417000D01*
X-5455000Y13867000D01*
X-4447000Y13867000D01*
X-4447000Y15257954D01*
X-4193000Y15257954D01*
X-4193000Y13867000D01*
X-4173000Y13867000D01*
X-4173000Y13613000D01*
X-4193000Y13613000D01*
X-4193000Y12222046D01*
X-4018126Y12095881D01*
X-3795024Y12175724D01*
X-3607236Y12297631D01*
X-3446839Y12453831D01*
X-3319997Y12638322D01*
X-3231585Y12844013D01*
X-3185000Y13063000D01*
X-3185000Y13353096D01*
X-3170022Y13346892D01*
X-2984552Y13310000D01*
X-2795448Y13310000D01*
X-2609978Y13346892D01*
X-2435269Y13419259D01*
X-2278036Y13524319D01*
X-2144319Y13658036D01*
X-2039259Y13815269D01*
X-1966892Y13989978D01*
X-1930000Y14175448D01*
X-1930000Y14364552D01*
X1930000Y14364552D01*
X1930000Y14175448D01*
X1966892Y13989978D01*
X2039259Y13815269D01*
X2144319Y13658036D01*
X2278036Y13524319D01*
X2435269Y13419259D01*
X2609978Y13346892D01*
X2795448Y13310000D01*
X2984552Y13310000D01*
X3170022Y13346892D01*
X3185000Y13353096D01*
X3185000Y13063000D01*
X3231585Y12844013D01*
X3319997Y12638322D01*
X3446839Y12453831D01*
X3607236Y12297631D01*
X3795024Y12175724D01*
X4018126Y12095881D01*
X4193000Y12222046D01*
X4193000Y13613000D01*
X4447000Y13613000D01*
X4447000Y12222046D01*
X4621874Y12095881D01*
X4844976Y12175724D01*
X5032764Y12297631D01*
X5193161Y12453831D01*
X5320003Y12638322D01*
X5408415Y12844013D01*
X5455000Y13063000D01*
X5455000Y13613000D01*
X4447000Y13613000D01*
X4193000Y13613000D01*
X4173000Y13613000D01*
X4173000Y13867000D01*
X4193000Y13867000D01*
X4193000Y15257954D01*
X4447000Y15257954D01*
X4447000Y13867000D01*
X5455000Y13867000D01*
X5455000Y14417000D01*
X5408415Y14635987D01*
X5320003Y14841678D01*
X5193161Y15026169D01*
X5032764Y15182369D01*
X4844976Y15304276D01*
X4621874Y15384119D01*
X4447000Y15257954D01*
X4193000Y15257954D01*
X4018126Y15384119D01*
X3795024Y15304276D01*
X3607236Y15182369D01*
X3462884Y15041794D01*
X3344731Y15120741D01*
X3170022Y15193108D01*
X2984552Y15230000D01*
X2795448Y15230000D01*
X2609978Y15193108D01*
X2435269Y15120741D01*
X2278036Y15015681D01*
X2144319Y14881964D01*
X2039259Y14724731D01*
X1966892Y14550022D01*
X1930000Y14364552D01*
X-1930000Y14364552D01*
X-1966892Y14550022D01*
X-2039259Y14724731D01*
X-2144319Y14881964D01*
X-2278036Y15015681D01*
X-2435269Y15120741D01*
X-2609978Y15193108D01*
X-2795448Y15230000D01*
X-2984552Y15230000D01*
X-3170022Y15193108D01*
X-3344731Y15120741D01*
X-3462884Y15041794D01*
X-3607236Y15182369D01*
X-3795024Y15304276D01*
X-4018126Y15384119D01*
X-4193000Y15257954D01*
X-4447000Y15257954D01*
X-4621874Y15384119D01*
X-4844976Y15304276D01*
X-5032764Y15182369D01*
X-5193161Y15026169D01*
X-5320003Y14841678D01*
X-5408415Y14635987D01*
X-5455000Y14417000D01*
X-6369051Y14417000D01*
X-6316116Y16012710D01*
X-6315000Y16024036D01*
X-6315000Y17793000D01*
X-5455000Y17793000D01*
X-5455000Y17493000D01*
X-5408415Y17274013D01*
X-5320003Y17068322D01*
X-5193161Y16883831D01*
X-5032764Y16727631D01*
X-4844976Y16605724D01*
X-4621874Y16525881D01*
X-4447000Y16652046D01*
X-4447000Y17793000D01*
X-4193000Y17793000D01*
X-4193000Y16652046D01*
X-4018126Y16525881D01*
X-3795024Y16605724D01*
X-3607236Y16727631D01*
X-3446839Y16883831D01*
X-3319997Y17068322D01*
X-3231585Y17274013D01*
X-3185000Y17493000D01*
X-3185000Y17793000D01*
X3185000Y17793000D01*
X3185000Y17493000D01*
X3231585Y17274013D01*
X3319997Y17068322D01*
X3446839Y16883831D01*
X3607236Y16727631D01*
X3795024Y16605724D01*
X4018126Y16525881D01*
X4193000Y16652046D01*
X4193000Y17793000D01*
X4447000Y17793000D01*
X4447000Y16652046D01*
X4621874Y16525881D01*
X4844976Y16605724D01*
X5032764Y16727631D01*
X5193161Y16883831D01*
X5320003Y17068322D01*
X5408415Y17274013D01*
X5455000Y17493000D01*
X5455000Y17793000D01*
X4447000Y17793000D01*
X4193000Y17793000D01*
X3185000Y17793000D01*
X-3185000Y17793000D01*
X-4193000Y17793000D01*
X-4447000Y17793000D01*
X-5455000Y17793000D01*
X-6315000Y17793000D01*
X-6315000Y18347000D01*
X-5455000Y18347000D01*
X-5455000Y18047000D01*
X-4447000Y18047000D01*
X-4447000Y19187954D01*
X-4193000Y19187954D01*
X-4193000Y18047000D01*
X-3185000Y18047000D01*
X-3185000Y18347000D01*
X3185000Y18347000D01*
X3185000Y18047000D01*
X4193000Y18047000D01*
X4193000Y19187954D01*
X4447000Y19187954D01*
X4447000Y18047000D01*
X5455000Y18047000D01*
X5455000Y18347000D01*
X5408415Y18565987D01*
X5320003Y18771678D01*
X5193161Y18956169D01*
X5032764Y19112369D01*
X4844976Y19234276D01*
X4621874Y19314119D01*
X4447000Y19187954D01*
X4193000Y19187954D01*
X4018126Y19314119D01*
X3795024Y19234276D01*
X3607236Y19112369D01*
X3446839Y18956169D01*
X3319997Y18771678D01*
X3231585Y18565987D01*
X3185000Y18347000D01*
X-3185000Y18347000D01*
X-3231585Y18565987D01*
X-3319997Y18771678D01*
X-3446839Y18956169D01*
X-3607236Y19112369D01*
X-3795024Y19234276D01*
X-4018126Y19314119D01*
X-4193000Y19187954D01*
X-4447000Y19187954D01*
X-4621874Y19314119D01*
X-4844976Y19234276D01*
X-5032764Y19112369D01*
X-5193161Y18956169D01*
X-5320003Y18771678D01*
X-5408415Y18565987D01*
X-5455000Y18347000D01*
X-6315000Y18347000D01*
X-6315000Y19872683D01*
X6315000Y19872683D01*
X6315001Y16024036D01*
G37*
G04 #@! TD.AperFunction*
D17*
X3637992Y-11981139D02*
X2741237Y-12877895D01*
X2676411Y-12865000D01*
X2403589Y-12865000D01*
X2136011Y-12918225D01*
X1883957Y-13022629D01*
X1657114Y-13174201D01*
X1464201Y-13367114D01*
X1312629Y-13593957D01*
X1270000Y-13696873D01*
X1227371Y-13593957D01*
X1075799Y-13367114D01*
X882886Y-13174201D01*
X656043Y-13022629D01*
X403989Y-12918225D01*
X136411Y-12865000D01*
X-136411Y-12865000D01*
X-151191Y-12867940D01*
X-1980742Y-11038390D01*
X-1957111Y-11028602D01*
X-1803972Y-10926278D01*
X-1673738Y-10796044D01*
X-1571414Y-10642905D01*
X-1500932Y-10472745D01*
X-1465000Y-10292105D01*
X-1465000Y-10107927D01*
X-1500932Y-9927287D01*
X-1565000Y-9772612D01*
X-1565000Y-9027404D01*
X-1500932Y-8872729D01*
X-1465000Y-8692089D01*
X-1465000Y-8507911D01*
X-1500932Y-8327271D01*
X-1571414Y-8157111D01*
X-1673738Y-8003972D01*
X-1803972Y-7873738D01*
X-1957111Y-7771414D01*
X-2127271Y-7700932D01*
X-2307911Y-7665000D01*
X-2492089Y-7665000D01*
X-2672729Y-7700932D01*
X-2842889Y-7771414D01*
X-2996028Y-7873738D01*
X-3126262Y-8003972D01*
X-3228586Y-8157111D01*
X-3299068Y-8327271D01*
X-3335000Y-8507911D01*
X-3335000Y-8692089D01*
X-3299068Y-8872729D01*
X-3235000Y-9027405D01*
X-3234999Y-9772610D01*
X-3238374Y-9780758D01*
X-3365000Y-9654133D01*
X-3365000Y-7327000D01*
X3637991Y-7327000D01*
X3637992Y-11981139D01*
G04 #@! TA.AperFunction,Conductor*
D18*
G36*
X3637992Y-11981139D02*
G01*
X2741237Y-12877895D01*
X2676411Y-12865000D01*
X2403589Y-12865000D01*
X2136011Y-12918225D01*
X1883957Y-13022629D01*
X1657114Y-13174201D01*
X1464201Y-13367114D01*
X1312629Y-13593957D01*
X1270000Y-13696873D01*
X1227371Y-13593957D01*
X1075799Y-13367114D01*
X882886Y-13174201D01*
X656043Y-13022629D01*
X403989Y-12918225D01*
X136411Y-12865000D01*
X-136411Y-12865000D01*
X-151191Y-12867940D01*
X-1980742Y-11038390D01*
X-1957111Y-11028602D01*
X-1803972Y-10926278D01*
X-1673738Y-10796044D01*
X-1571414Y-10642905D01*
X-1500932Y-10472745D01*
X-1465000Y-10292105D01*
X-1465000Y-10107927D01*
X-1500932Y-9927287D01*
X-1565000Y-9772612D01*
X-1565000Y-9027404D01*
X-1500932Y-8872729D01*
X-1465000Y-8692089D01*
X-1465000Y-8507911D01*
X-1500932Y-8327271D01*
X-1571414Y-8157111D01*
X-1673738Y-8003972D01*
X-1803972Y-7873738D01*
X-1957111Y-7771414D01*
X-2127271Y-7700932D01*
X-2307911Y-7665000D01*
X-2492089Y-7665000D01*
X-2672729Y-7700932D01*
X-2842889Y-7771414D01*
X-2996028Y-7873738D01*
X-3126262Y-8003972D01*
X-3228586Y-8157111D01*
X-3299068Y-8327271D01*
X-3335000Y-8507911D01*
X-3335000Y-8692089D01*
X-3299068Y-8872729D01*
X-3235000Y-9027405D01*
X-3234999Y-9772610D01*
X-3238374Y-9780758D01*
X-3365000Y-9654133D01*
X-3365000Y-7327000D01*
X3637991Y-7327000D01*
X3637992Y-11981139D01*
G37*
G04 #@! TD.AperFunction*
D17*
X4479690Y-1460559D02*
X4343795Y-1516848D01*
X4190656Y-1619172D01*
X4060422Y-1749406D01*
X3958098Y-1902545D01*
X3896003Y-2052456D01*
X3879700Y-2065836D01*
X3799600Y-2163439D01*
X3775355Y-2192982D01*
X3697819Y-2338041D01*
X3650073Y-2495439D01*
X3633951Y-2659127D01*
X3637991Y-2700146D01*
X3637991Y-3073000D01*
X1152606Y-3073000D01*
X327000Y-2247394D01*
X327000Y-750000D01*
X324560Y-725224D01*
X317333Y-701399D01*
X305597Y-679443D01*
X289803Y-660197D01*
X270557Y-644403D01*
X248601Y-632667D01*
X224776Y-625440D01*
X200000Y-623000D01*
X-2200000Y-623000D01*
X-2224776Y-625440D01*
X-2248601Y-632667D01*
X-2270557Y-644403D01*
X-2289803Y-660197D01*
X-2305597Y-679443D01*
X-2317333Y-701399D01*
X-2324560Y-725224D01*
X-2327000Y-750000D01*
X-2327000Y-1644132D01*
X-3365000Y-2595632D01*
X-3365000Y65000D01*
X2954133Y65000D01*
X4479690Y-1460559D01*
G04 #@! TA.AperFunction,Conductor*
D18*
G36*
X4479690Y-1460559D02*
G01*
X4343795Y-1516848D01*
X4190656Y-1619172D01*
X4060422Y-1749406D01*
X3958098Y-1902545D01*
X3896003Y-2052456D01*
X3879700Y-2065836D01*
X3799600Y-2163439D01*
X3775355Y-2192982D01*
X3697819Y-2338041D01*
X3650073Y-2495439D01*
X3633951Y-2659127D01*
X3637991Y-2700146D01*
X3637991Y-3073000D01*
X1152606Y-3073000D01*
X327000Y-2247394D01*
X327000Y-750000D01*
X324560Y-725224D01*
X317333Y-701399D01*
X305597Y-679443D01*
X289803Y-660197D01*
X270557Y-644403D01*
X248601Y-632667D01*
X224776Y-625440D01*
X200000Y-623000D01*
X-2200000Y-623000D01*
X-2224776Y-625440D01*
X-2248601Y-632667D01*
X-2270557Y-644403D01*
X-2289803Y-660197D01*
X-2305597Y-679443D01*
X-2317333Y-701399D01*
X-2324560Y-725224D01*
X-2327000Y-750000D01*
X-2327000Y-1644132D01*
X-3365000Y-2595632D01*
X-3365000Y65000D01*
X2954133Y65000D01*
X4479690Y-1460559D01*
G37*
G04 #@! TD.AperFunction*
M02*
