G04 #@! TF.GenerationSoftware,KiCad,Pcbnew,(5.1.10-1-10_14)*
G04 #@! TF.CreationDate,2021-08-15T09:52:45-07:00*
G04 #@! TF.ProjectId,Synapse,53796e61-7073-4652-9e6b-696361645f70,1*
G04 #@! TF.SameCoordinates,Original*
G04 #@! TF.FileFunction,Legend,Bot*
G04 #@! TF.FilePolarity,Positive*
%FSLAX46Y46*%
G04 Gerber Fmt 4.6, Leading zero omitted, Abs format (unit mm)*
G04 Created by KiCad (PCBNEW (5.1.10-1-10_14)) date 2021-08-15 09:52:45*
%MOMM*%
%LPD*%
G01*
G04 APERTURE LIST*
%ADD10C,0.153000*%
%ADD11C,0.120000*%
%ADD12C,0.650000*%
%ADD13C,1.500000*%
%ADD14O,1.000000X1.600000*%
%ADD15O,1.000000X2.100000*%
G04 APERTURE END LIST*
D10*
X2978095Y-12261904D02*
X3244761Y-11880952D01*
X3435238Y-12261904D02*
X3435238Y-11461904D01*
X3130476Y-11461904D01*
X3054285Y-11500000D01*
X3016190Y-11538095D01*
X2978095Y-11614285D01*
X2978095Y-11728571D01*
X3016190Y-11804761D01*
X3054285Y-11842857D01*
X3130476Y-11880952D01*
X3435238Y-11880952D01*
X2673333Y-12223809D02*
X2559047Y-12261904D01*
X2368571Y-12261904D01*
X2292380Y-12223809D01*
X2254285Y-12185714D01*
X2216190Y-12109523D01*
X2216190Y-12033333D01*
X2254285Y-11957142D01*
X2292380Y-11919047D01*
X2368571Y-11880952D01*
X2520952Y-11842857D01*
X2597142Y-11804761D01*
X2635238Y-11766666D01*
X2673333Y-11690476D01*
X2673333Y-11614285D01*
X2635238Y-11538095D01*
X2597142Y-11500000D01*
X2520952Y-11461904D01*
X2330476Y-11461904D01*
X2216190Y-11500000D01*
X1987619Y-11461904D02*
X1530476Y-11461904D01*
X1759047Y-12261904D02*
X1759047Y-11461904D01*
X3695238Y8314595D02*
X3695238Y9114595D01*
X3504761Y9114595D01*
X3390476Y9076500D01*
X3314285Y9000309D01*
X3276190Y8924119D01*
X3238095Y8771738D01*
X3238095Y8657452D01*
X3276190Y8505071D01*
X3314285Y8428880D01*
X3390476Y8352690D01*
X3504761Y8314595D01*
X3695238Y8314595D01*
X2971428Y8847928D02*
X2780952Y8314595D01*
X2590476Y8847928D02*
X2780952Y8314595D01*
X2857142Y8124119D01*
X2895238Y8086023D01*
X2971428Y8047928D01*
X1942857Y8847928D02*
X1942857Y8200309D01*
X1980952Y8124119D01*
X2019047Y8086023D01*
X2095238Y8047928D01*
X2209523Y8047928D01*
X2285714Y8086023D01*
X1942857Y8352690D02*
X2019047Y8314595D01*
X2171428Y8314595D01*
X2247619Y8352690D01*
X2285714Y8390785D01*
X2323809Y8466976D01*
X2323809Y8695547D01*
X2285714Y8771738D01*
X2247619Y8809833D01*
X2171428Y8847928D01*
X2019047Y8847928D01*
X1942857Y8809833D01*
X1561904Y8314595D02*
X1561904Y8847928D01*
X1561904Y8771738D02*
X1523809Y8809833D01*
X1447619Y8847928D01*
X1333333Y8847928D01*
X1257142Y8809833D01*
X1219047Y8733642D01*
X1219047Y8314595D01*
X1219047Y8733642D02*
X1180952Y8809833D01*
X1104761Y8847928D01*
X990476Y8847928D01*
X914285Y8809833D01*
X876190Y8733642D01*
X876190Y8314595D01*
X152380Y8314595D02*
X152380Y8733642D01*
X190476Y8809833D01*
X266666Y8847928D01*
X419047Y8847928D01*
X495238Y8809833D01*
X152380Y8352690D02*
X228571Y8314595D01*
X419047Y8314595D01*
X495238Y8352690D01*
X533333Y8428880D01*
X533333Y8505071D01*
X495238Y8581261D01*
X419047Y8619357D01*
X228571Y8619357D01*
X152380Y8657452D01*
X-1295238Y8314595D02*
X-1028571Y8695547D01*
X-838095Y8314595D02*
X-838095Y9114595D01*
X-1142857Y9114595D01*
X-1219047Y9076500D01*
X-1257142Y9038404D01*
X-1295238Y8962214D01*
X-1295238Y8847928D01*
X-1257142Y8771738D01*
X-1219047Y8733642D01*
X-1142857Y8695547D01*
X-838095Y8695547D01*
X-1980952Y8314595D02*
X-1980952Y8733642D01*
X-1942857Y8809833D01*
X-1866666Y8847928D01*
X-1714285Y8847928D01*
X-1638095Y8809833D01*
X-1980952Y8352690D02*
X-1904761Y8314595D01*
X-1714285Y8314595D01*
X-1638095Y8352690D01*
X-1599999Y8428880D01*
X-1599999Y8505071D01*
X-1638095Y8581261D01*
X-1714285Y8619357D01*
X-1904761Y8619357D01*
X-1980952Y8657452D01*
X-2361904Y8314595D02*
X-2361904Y8847928D01*
X-2361904Y9114595D02*
X-2323809Y9076500D01*
X-2361904Y9038404D01*
X-2399999Y9076500D01*
X-2361904Y9114595D01*
X-2361904Y9038404D01*
X-2704761Y8352690D02*
X-2780952Y8314595D01*
X-2933333Y8314595D01*
X-3009523Y8352690D01*
X-3047619Y8428880D01*
X-3047619Y8466976D01*
X-3009523Y8543166D01*
X-2933333Y8581261D01*
X-2819047Y8581261D01*
X-2742857Y8619357D01*
X-2704761Y8695547D01*
X-2704761Y8733642D01*
X-2742857Y8809833D01*
X-2819047Y8847928D01*
X-2933333Y8847928D01*
X-3009523Y8809833D01*
X-3695238Y8352690D02*
X-3619047Y8314595D01*
X-3466666Y8314595D01*
X-3390476Y8352690D01*
X-3352380Y8428880D01*
X-3352380Y8733642D01*
X-3390476Y8809833D01*
X-3466666Y8847928D01*
X-3619047Y8847928D01*
X-3695238Y8809833D01*
X-3733333Y8733642D01*
X-3733333Y8657452D01*
X-3352380Y8581261D01*
X3885714Y6999690D02*
X3771428Y6961595D01*
X3580952Y6961595D01*
X3504761Y6999690D01*
X3466666Y7037785D01*
X3428571Y7113976D01*
X3428571Y7190166D01*
X3466666Y7266357D01*
X3504761Y7304452D01*
X3580952Y7342547D01*
X3733333Y7380642D01*
X3809523Y7418738D01*
X3847619Y7456833D01*
X3885714Y7533023D01*
X3885714Y7609214D01*
X3847619Y7685404D01*
X3809523Y7723500D01*
X3733333Y7761595D01*
X3542857Y7761595D01*
X3428571Y7723500D01*
X3161904Y7494928D02*
X2971428Y6961595D01*
X2780952Y7494928D02*
X2971428Y6961595D01*
X3047619Y6771119D01*
X3085714Y6733023D01*
X3161904Y6694928D01*
X2476190Y7494928D02*
X2476190Y6961595D01*
X2476190Y7418738D02*
X2438095Y7456833D01*
X2361904Y7494928D01*
X2247619Y7494928D01*
X2171428Y7456833D01*
X2133333Y7380642D01*
X2133333Y6961595D01*
X1409523Y6961595D02*
X1409523Y7380642D01*
X1447619Y7456833D01*
X1523809Y7494928D01*
X1676190Y7494928D01*
X1752380Y7456833D01*
X1409523Y6999690D02*
X1485714Y6961595D01*
X1676190Y6961595D01*
X1752380Y6999690D01*
X1790476Y7075880D01*
X1790476Y7152071D01*
X1752380Y7228261D01*
X1676190Y7266357D01*
X1485714Y7266357D01*
X1409523Y7304452D01*
X1028571Y7494928D02*
X1028571Y6694928D01*
X1028571Y7456833D02*
X952380Y7494928D01*
X799999Y7494928D01*
X723809Y7456833D01*
X685714Y7418738D01*
X647619Y7342547D01*
X647619Y7113976D01*
X685714Y7037785D01*
X723809Y6999690D01*
X799999Y6961595D01*
X952380Y6961595D01*
X1028571Y6999690D01*
X342857Y6999690D02*
X266666Y6961595D01*
X114285Y6961595D01*
X38095Y6999690D01*
X0Y7075880D01*
X0Y7113976D01*
X38095Y7190166D01*
X114285Y7228261D01*
X228571Y7228261D01*
X304761Y7266357D01*
X342857Y7342547D01*
X342857Y7380642D01*
X304761Y7456833D01*
X228571Y7494928D01*
X114285Y7494928D01*
X38095Y7456833D01*
X-647619Y6999690D02*
X-571428Y6961595D01*
X-419047Y6961595D01*
X-342857Y6999690D01*
X-304761Y7075880D01*
X-304761Y7380642D01*
X-342857Y7456833D01*
X-419047Y7494928D01*
X-571428Y7494928D01*
X-647619Y7456833D01*
X-685714Y7380642D01*
X-685714Y7304452D01*
X-304761Y7228261D01*
X-1523809Y7761595D02*
X-1790476Y6961595D01*
X-2057142Y7761595D01*
X-2285714Y7685404D02*
X-2323809Y7723500D01*
X-2399999Y7761595D01*
X-2590476Y7761595D01*
X-2666666Y7723500D01*
X-2704761Y7685404D01*
X-2742857Y7609214D01*
X-2742857Y7533023D01*
X-2704761Y7418738D01*
X-2247619Y6961595D01*
X-2742857Y6961595D01*
X-3085714Y7037785D02*
X-3123809Y6999690D01*
X-3085714Y6961595D01*
X-3047619Y6999690D01*
X-3085714Y7037785D01*
X-3085714Y6961595D01*
X-3619047Y7761595D02*
X-3695238Y7761595D01*
X-3771428Y7723500D01*
X-3809523Y7685404D01*
X-3847619Y7609214D01*
X-3885714Y7456833D01*
X-3885714Y7266357D01*
X-3847619Y7113976D01*
X-3809523Y7037785D01*
X-3771428Y6999690D01*
X-3695238Y6961595D01*
X-3619047Y6961595D01*
X-3542857Y6999690D01*
X-3504761Y7037785D01*
X-3466666Y7113976D01*
X-3428571Y7266357D01*
X-3428571Y7456833D01*
X-3466666Y7609214D01*
X-3504761Y7685404D01*
X-3542857Y7723500D01*
X-3619047Y7761595D01*
X-4470476Y-11500000D02*
X-4394285Y-11461904D01*
X-4280000Y-11461904D01*
X-4165714Y-11500000D01*
X-4089523Y-11576190D01*
X-4051428Y-11652380D01*
X-4013333Y-11804761D01*
X-4013333Y-11919047D01*
X-4051428Y-12071428D01*
X-4089523Y-12147619D01*
X-4165714Y-12223809D01*
X-4280000Y-12261904D01*
X-4356190Y-12261904D01*
X-4470476Y-12223809D01*
X-4508571Y-12185714D01*
X-4508571Y-11919047D01*
X-4356190Y-11919047D01*
X-4851428Y-12261904D02*
X-4851428Y-11461904D01*
X-5308571Y-12261904D01*
X-5308571Y-11461904D01*
X-5689523Y-12261904D02*
X-5689523Y-11461904D01*
X-5880000Y-11461904D01*
X-5994285Y-11500000D01*
X-6070476Y-11576190D01*
X-6108571Y-11652380D01*
X-6146666Y-11804761D01*
X-6146666Y-11919047D01*
X-6108571Y-12071428D01*
X-6070476Y-12147619D01*
X-5994285Y-12223809D01*
X-5880000Y-12261904D01*
X-5689523Y-12261904D01*
X819047Y-12261904D02*
X819047Y-11461904D01*
X628571Y-11461904D01*
X514285Y-11500000D01*
X438095Y-11576190D01*
X400000Y-11652380D01*
X361904Y-11804761D01*
X361904Y-11919047D01*
X400000Y-12071428D01*
X438095Y-12147619D01*
X514285Y-12223809D01*
X628571Y-12261904D01*
X819047Y-12261904D01*
X19047Y-12261904D02*
X19047Y-11461904D01*
X-514285Y-11461904D02*
X-666666Y-11461904D01*
X-742857Y-11500000D01*
X-819047Y-11576190D01*
X-857142Y-11728571D01*
X-857142Y-11995238D01*
X-819047Y-12147619D01*
X-742857Y-12223809D01*
X-666666Y-12261904D01*
X-514285Y-12261904D01*
X-438095Y-12223809D01*
X-361904Y-12147619D01*
X-323809Y-11995238D01*
X-323809Y-11728571D01*
X-361904Y-11576190D01*
X-438095Y-11500000D01*
X-514285Y-11461904D01*
X-2063809Y-12185714D02*
X-2025714Y-12223809D01*
X-1911428Y-12261904D01*
X-1835238Y-12261904D01*
X-1720952Y-12223809D01*
X-1644761Y-12147619D01*
X-1606666Y-12071428D01*
X-1568571Y-11919047D01*
X-1568571Y-11804761D01*
X-1606666Y-11652380D01*
X-1644761Y-11576190D01*
X-1720952Y-11500000D01*
X-1835238Y-11461904D01*
X-1911428Y-11461904D01*
X-2025714Y-11500000D01*
X-2063809Y-11538095D01*
X-2787619Y-12261904D02*
X-2406666Y-12261904D01*
X-2406666Y-11461904D01*
X-3054285Y-12261904D02*
X-3054285Y-11461904D01*
X-3511428Y-12261904D02*
X-3168571Y-11804761D01*
X-3511428Y-11461904D02*
X-3054285Y-11919047D01*
X6070476Y-11461904D02*
X5575238Y-11461904D01*
X5841904Y-11766666D01*
X5727619Y-11766666D01*
X5651428Y-11804761D01*
X5613333Y-11842857D01*
X5575238Y-11919047D01*
X5575238Y-12109523D01*
X5613333Y-12185714D01*
X5651428Y-12223809D01*
X5727619Y-12261904D01*
X5956190Y-12261904D01*
X6032380Y-12223809D01*
X6070476Y-12185714D01*
X5346666Y-11461904D02*
X5080000Y-12261904D01*
X4813333Y-11461904D01*
X4622857Y-11461904D02*
X4127619Y-11461904D01*
X4394285Y-11766666D01*
X4280000Y-11766666D01*
X4203809Y-11804761D01*
X4165714Y-11842857D01*
X4127619Y-11919047D01*
X4127619Y-12109523D01*
X4165714Y-12185714D01*
X4203809Y-12223809D01*
X4280000Y-12261904D01*
X4508571Y-12261904D01*
X4584761Y-12223809D01*
X4622857Y-12185714D01*
D11*
X6030000Y-14250000D02*
G75*
G03*
X6030000Y-14250000I-950000J0D01*
G01*
X-4130000Y-14250000D02*
G75*
G03*
X-4130000Y-14250000I-950000J0D01*
G01*
X-1590000Y-14250000D02*
G75*
G03*
X-1590000Y-14250000I-950000J0D01*
G01*
X950000Y-14250000D02*
G75*
G03*
X950000Y-14250000I-950000J0D01*
G01*
X3490000Y-14250000D02*
G75*
G03*
X3490000Y-14250000I-950000J0D01*
G01*
%LPC*%
G36*
G01*
X13976813Y-10194516D02*
X13198995Y-9416698D01*
G75*
G02*
X13198995Y-8709592I353553J353553D01*
G01*
X13198995Y-8709592D01*
G75*
G02*
X13906101Y-8709592I353553J-353553D01*
G01*
X14683919Y-9487410D01*
G75*
G02*
X14683919Y-10194516I-353553J-353553D01*
G01*
X14683919Y-10194516D01*
G75*
G02*
X13976813Y-10194516I-353553J353553D01*
G01*
G37*
G36*
G01*
X7867410Y-16303919D02*
X7089592Y-15526101D01*
G75*
G02*
X7089592Y-14818995I353553J353553D01*
G01*
X7089592Y-14818995D01*
G75*
G02*
X7796698Y-14818995I353553J-353553D01*
G01*
X8574516Y-15596813D01*
G75*
G02*
X8574516Y-16303919I-353553J-353553D01*
G01*
X8574516Y-16303919D01*
G75*
G02*
X7867410Y-16303919I-353553J353553D01*
G01*
G37*
D12*
X9217984Y-14925061D03*
G36*
G01*
X10646340Y-19082848D02*
X10222076Y-18658584D01*
G75*
G02*
X10222076Y-17951478I353553J353553D01*
G01*
X10222076Y-17951478D01*
G75*
G02*
X10929182Y-17951478I353553J-353553D01*
G01*
X11353446Y-18375742D01*
G75*
G02*
X11353446Y-19082848I-353553J-353553D01*
G01*
X11353446Y-19082848D01*
G75*
G02*
X10646340Y-19082848I-353553J353553D01*
G01*
G37*
X13305061Y-10837984D03*
G36*
G01*
X16755742Y-12973446D02*
X16331478Y-12549182D01*
G75*
G02*
X16331478Y-11842076I353553J353553D01*
G01*
X16331478Y-11842076D01*
G75*
G02*
X17038584Y-11842076I353553J-353553D01*
G01*
X17462848Y-12266340D01*
G75*
G02*
X17462848Y-12973446I-353553J-353553D01*
G01*
X17462848Y-12973446D01*
G75*
G02*
X16755742Y-12973446I-353553J353553D01*
G01*
G37*
D13*
X5080000Y-14250000D03*
X2540000Y-14250000D03*
X0Y-14250000D03*
X-2540000Y-14250000D03*
X-5080000Y-14250000D03*
G36*
G01*
X-11353446Y-18375742D02*
X-10929182Y-17951478D01*
G75*
G02*
X-10222076Y-17951478I353553J-353553D01*
G01*
X-10222076Y-17951478D01*
G75*
G02*
X-10222076Y-18658584I-353553J-353553D01*
G01*
X-10646340Y-19082848D01*
G75*
G02*
X-11353446Y-19082848I-353553J353553D01*
G01*
X-11353446Y-19082848D01*
G75*
G02*
X-11353446Y-18375742I353553J353553D01*
G01*
G37*
D12*
X-9217984Y-14925061D03*
G36*
G01*
X-17462848Y-12266340D02*
X-17038584Y-11842076D01*
G75*
G02*
X-16331478Y-11842076I353553J-353553D01*
G01*
X-16331478Y-11842076D01*
G75*
G02*
X-16331478Y-12549182I-353553J-353553D01*
G01*
X-16755742Y-12973446D01*
G75*
G02*
X-17462848Y-12973446I-353553J353553D01*
G01*
X-17462848Y-12973446D01*
G75*
G02*
X-17462848Y-12266340I353553J353553D01*
G01*
G37*
X-13305061Y-10837984D03*
G36*
G01*
X-14683919Y-9487410D02*
X-13906101Y-8709592D01*
G75*
G02*
X-13198995Y-8709592I353553J-353553D01*
G01*
X-13198995Y-8709592D01*
G75*
G02*
X-13198995Y-9416698I-353553J-353553D01*
G01*
X-13976813Y-10194516D01*
G75*
G02*
X-14683919Y-10194516I-353553J353553D01*
G01*
X-14683919Y-10194516D01*
G75*
G02*
X-14683919Y-9487410I353553J353553D01*
G01*
G37*
G36*
G01*
X-8574516Y-15596813D02*
X-7796698Y-14818995D01*
G75*
G02*
X-7089592Y-14818995I353553J-353553D01*
G01*
X-7089592Y-14818995D01*
G75*
G02*
X-7089592Y-15526101I-353553J-353553D01*
G01*
X-7867410Y-16303919D01*
G75*
G02*
X-8574516Y-16303919I-353553J353553D01*
G01*
X-8574516Y-16303919D01*
G75*
G02*
X-8574516Y-15596813I353553J353553D01*
G01*
G37*
D14*
X-4320000Y17920000D03*
D12*
X-2890000Y14270000D03*
D14*
X4320000Y17920000D03*
D12*
X2890000Y14270000D03*
D15*
X4320000Y13740000D03*
X-4320000Y13740000D03*
M02*
