G04 #@! TF.GenerationSoftware,KiCad,Pcbnew,(5.1.10-1-10_14)*
G04 #@! TF.CreationDate,2021-07-25T02:22:53-07:00*
G04 #@! TF.ProjectId,Synapse,53796e61-7073-4652-9e6b-696361645f70,1*
G04 #@! TF.SameCoordinates,Original*
G04 #@! TF.FileFunction,Soldermask,Bot*
G04 #@! TF.FilePolarity,Negative*
%FSLAX46Y46*%
G04 Gerber Fmt 4.6, Leading zero omitted, Abs format (unit mm)*
G04 Created by KiCad (PCBNEW (5.1.10-1-10_14)) date 2021-07-25 02:22:53*
%MOMM*%
%LPD*%
G01*
G04 APERTURE LIST*
%ADD10C,1.500000*%
%ADD11C,0.650000*%
%ADD12O,1.000000X2.100000*%
%ADD13O,1.000000X1.600000*%
G04 APERTURE END LIST*
D10*
X3810000Y-18000000D03*
X1270000Y-18000000D03*
X-1270000Y-18000000D03*
X-3810000Y-18000000D03*
G36*
G01*
X12876813Y-9474516D02*
X12098995Y-8696698D01*
G75*
G02*
X12098995Y-7989592I353553J353553D01*
G01*
X12098995Y-7989592D01*
G75*
G02*
X12806101Y-7989592I353553J-353553D01*
G01*
X13583919Y-8767410D01*
G75*
G02*
X13583919Y-9474516I-353553J-353553D01*
G01*
X13583919Y-9474516D01*
G75*
G02*
X12876813Y-9474516I-353553J353553D01*
G01*
G37*
G36*
G01*
X6767410Y-15583919D02*
X5989592Y-14806101D01*
G75*
G02*
X5989592Y-14098995I353553J353553D01*
G01*
X5989592Y-14098995D01*
G75*
G02*
X6696698Y-14098995I353553J-353553D01*
G01*
X7474516Y-14876813D01*
G75*
G02*
X7474516Y-15583919I-353553J-353553D01*
G01*
X7474516Y-15583919D01*
G75*
G02*
X6767410Y-15583919I-353553J353553D01*
G01*
G37*
D11*
X8117984Y-14205061D03*
G36*
G01*
X9546340Y-18362848D02*
X9122076Y-17938584D01*
G75*
G02*
X9122076Y-17231478I353553J353553D01*
G01*
X9122076Y-17231478D01*
G75*
G02*
X9829182Y-17231478I353553J-353553D01*
G01*
X10253446Y-17655742D01*
G75*
G02*
X10253446Y-18362848I-353553J-353553D01*
G01*
X10253446Y-18362848D01*
G75*
G02*
X9546340Y-18362848I-353553J353553D01*
G01*
G37*
X12205061Y-10117984D03*
G36*
G01*
X15655742Y-12253446D02*
X15231478Y-11829182D01*
G75*
G02*
X15231478Y-11122076I353553J353553D01*
G01*
X15231478Y-11122076D01*
G75*
G02*
X15938584Y-11122076I353553J-353553D01*
G01*
X16362848Y-11546340D01*
G75*
G02*
X16362848Y-12253446I-353553J-353553D01*
G01*
X16362848Y-12253446D01*
G75*
G02*
X15655742Y-12253446I-353553J353553D01*
G01*
G37*
G36*
G01*
X-10253446Y-17655742D02*
X-9829182Y-17231478D01*
G75*
G02*
X-9122076Y-17231478I353553J-353553D01*
G01*
X-9122076Y-17231478D01*
G75*
G02*
X-9122076Y-17938584I-353553J-353553D01*
G01*
X-9546340Y-18362848D01*
G75*
G02*
X-10253446Y-18362848I-353553J353553D01*
G01*
X-10253446Y-18362848D01*
G75*
G02*
X-10253446Y-17655742I353553J353553D01*
G01*
G37*
X-8117984Y-14205061D03*
G36*
G01*
X-16362848Y-11546340D02*
X-15938584Y-11122076D01*
G75*
G02*
X-15231478Y-11122076I353553J-353553D01*
G01*
X-15231478Y-11122076D01*
G75*
G02*
X-15231478Y-11829182I-353553J-353553D01*
G01*
X-15655742Y-12253446D01*
G75*
G02*
X-16362848Y-12253446I-353553J353553D01*
G01*
X-16362848Y-12253446D01*
G75*
G02*
X-16362848Y-11546340I353553J353553D01*
G01*
G37*
X-12205061Y-10117984D03*
G36*
G01*
X-13583919Y-8767410D02*
X-12806101Y-7989592D01*
G75*
G02*
X-12098995Y-7989592I353553J-353553D01*
G01*
X-12098995Y-7989592D01*
G75*
G02*
X-12098995Y-8696698I-353553J-353553D01*
G01*
X-12876813Y-9474516D01*
G75*
G02*
X-13583919Y-9474516I-353553J353553D01*
G01*
X-13583919Y-9474516D01*
G75*
G02*
X-13583919Y-8767410I353553J353553D01*
G01*
G37*
G36*
G01*
X-7474516Y-14876813D02*
X-6696698Y-14098995D01*
G75*
G02*
X-5989592Y-14098995I353553J-353553D01*
G01*
X-5989592Y-14098995D01*
G75*
G02*
X-5989592Y-14806101I-353553J-353553D01*
G01*
X-6767410Y-15583919D01*
G75*
G02*
X-7474516Y-15583919I-353553J353553D01*
G01*
X-7474516Y-15583919D01*
G75*
G02*
X-7474516Y-14876813I353553J353553D01*
G01*
G37*
D12*
X-4320000Y12870000D03*
X4320000Y12870000D03*
D11*
X2890000Y13400000D03*
D13*
X4320000Y17050000D03*
D11*
X-2890000Y13400000D03*
D13*
X-4320000Y17050000D03*
M02*
