G04 #@! TF.GenerationSoftware,KiCad,Pcbnew,(5.1.10-1-10_14)*
G04 #@! TF.CreationDate,2021-07-25T02:22:53-07:00*
G04 #@! TF.ProjectId,Synapse,53796e61-7073-4652-9e6b-696361645f70,1*
G04 #@! TF.SameCoordinates,Original*
G04 #@! TF.FileFunction,Copper,L1,Top*
G04 #@! TF.FilePolarity,Positive*
%FSLAX46Y46*%
G04 Gerber Fmt 4.6, Leading zero omitted, Abs format (unit mm)*
G04 Created by KiCad (PCBNEW (5.1.10-1-10_14)) date 2021-07-25 02:22:53*
%MOMM*%
%LPD*%
G01*
G04 APERTURE LIST*
G04 #@! TA.AperFunction,SMDPad,CuDef*
%ADD10R,0.300000X0.450000*%
G04 #@! TD*
G04 #@! TA.AperFunction,SMDPad,CuDef*
%ADD11R,0.450000X0.500000*%
G04 #@! TD*
G04 #@! TA.AperFunction,SMDPad,CuDef*
%ADD12R,0.450000X0.400000*%
G04 #@! TD*
G04 #@! TA.AperFunction,SMDPad,CuDef*
%ADD13R,0.900000X1.700000*%
G04 #@! TD*
G04 #@! TA.AperFunction,SMDPad,CuDef*
%ADD14R,0.600000X1.100000*%
G04 #@! TD*
G04 #@! TA.AperFunction,SMDPad,CuDef*
%ADD15R,1.150000X1.000000*%
G04 #@! TD*
G04 #@! TA.AperFunction,SMDPad,CuDef*
%ADD16C,0.152400*%
G04 #@! TD*
G04 #@! TA.AperFunction,SMDPad,CuDef*
%ADD17R,0.600000X1.450000*%
G04 #@! TD*
G04 #@! TA.AperFunction,SMDPad,CuDef*
%ADD18R,0.300000X1.450000*%
G04 #@! TD*
G04 #@! TA.AperFunction,ComponentPad*
%ADD19O,1.000000X2.100000*%
G04 #@! TD*
G04 #@! TA.AperFunction,ComponentPad*
%ADD20O,1.000000X1.600000*%
G04 #@! TD*
G04 #@! TA.AperFunction,SMDPad,CuDef*
%ADD21R,5.600000X5.600000*%
G04 #@! TD*
G04 #@! TA.AperFunction,ViaPad*
%ADD22C,0.900000*%
G04 #@! TD*
G04 #@! TA.AperFunction,ViaPad*
%ADD23C,0.600000*%
G04 #@! TD*
G04 #@! TA.AperFunction,ViaPad*
%ADD24C,0.400000*%
G04 #@! TD*
G04 #@! TA.AperFunction,Conductor*
%ADD25C,0.600000*%
G04 #@! TD*
G04 #@! TA.AperFunction,Conductor*
%ADD26C,0.300000*%
G04 #@! TD*
G04 #@! TA.AperFunction,Conductor*
%ADD27C,0.400000*%
G04 #@! TD*
G04 APERTURE END LIST*
G04 #@! TA.AperFunction,SMDPad,CuDef*
G36*
G01*
X5140000Y7415000D02*
X5140000Y7785000D01*
G75*
G02*
X5275000Y7920000I135000J0D01*
G01*
X5545000Y7920000D01*
G75*
G02*
X5680000Y7785000I0J-135000D01*
G01*
X5680000Y7415000D01*
G75*
G02*
X5545000Y7280000I-135000J0D01*
G01*
X5275000Y7280000D01*
G75*
G02*
X5140000Y7415000I0J135000D01*
G01*
G37*
G04 #@! TD.AperFunction*
G04 #@! TA.AperFunction,SMDPad,CuDef*
G36*
G01*
X4120000Y7415000D02*
X4120000Y7785000D01*
G75*
G02*
X4255000Y7920000I135000J0D01*
G01*
X4525000Y7920000D01*
G75*
G02*
X4660000Y7785000I0J-135000D01*
G01*
X4660000Y7415000D01*
G75*
G02*
X4525000Y7280000I-135000J0D01*
G01*
X4255000Y7280000D01*
G75*
G02*
X4120000Y7415000I0J135000D01*
G01*
G37*
G04 #@! TD.AperFunction*
G04 #@! TA.AperFunction,SMDPad,CuDef*
G36*
G01*
X-6310000Y-7230000D02*
X-5940000Y-7230000D01*
G75*
G02*
X-5805000Y-7365000I0J-135000D01*
G01*
X-5805000Y-7635000D01*
G75*
G02*
X-5940000Y-7770000I-135000J0D01*
G01*
X-6310000Y-7770000D01*
G75*
G02*
X-6445000Y-7635000I0J135000D01*
G01*
X-6445000Y-7365000D01*
G75*
G02*
X-6310000Y-7230000I135000J0D01*
G01*
G37*
G04 #@! TD.AperFunction*
G04 #@! TA.AperFunction,SMDPad,CuDef*
G36*
G01*
X-6310000Y-6210000D02*
X-5940000Y-6210000D01*
G75*
G02*
X-5805000Y-6345000I0J-135000D01*
G01*
X-5805000Y-6615000D01*
G75*
G02*
X-5940000Y-6750000I-135000J0D01*
G01*
X-6310000Y-6750000D01*
G75*
G02*
X-6445000Y-6615000I0J135000D01*
G01*
X-6445000Y-6345000D01*
G75*
G02*
X-6310000Y-6210000I135000J0D01*
G01*
G37*
G04 #@! TD.AperFunction*
G04 #@! TA.AperFunction,SMDPad,CuDef*
G36*
G01*
X-8175000Y-7230000D02*
X-7805000Y-7230000D01*
G75*
G02*
X-7670000Y-7365000I0J-135000D01*
G01*
X-7670000Y-7635000D01*
G75*
G02*
X-7805000Y-7770000I-135000J0D01*
G01*
X-8175000Y-7770000D01*
G75*
G02*
X-8310000Y-7635000I0J135000D01*
G01*
X-8310000Y-7365000D01*
G75*
G02*
X-8175000Y-7230000I135000J0D01*
G01*
G37*
G04 #@! TD.AperFunction*
G04 #@! TA.AperFunction,SMDPad,CuDef*
G36*
G01*
X-8175000Y-6210000D02*
X-7805000Y-6210000D01*
G75*
G02*
X-7670000Y-6345000I0J-135000D01*
G01*
X-7670000Y-6615000D01*
G75*
G02*
X-7805000Y-6750000I-135000J0D01*
G01*
X-8175000Y-6750000D01*
G75*
G02*
X-8310000Y-6615000I0J135000D01*
G01*
X-8310000Y-6345000D01*
G75*
G02*
X-8175000Y-6210000I135000J0D01*
G01*
G37*
G04 #@! TD.AperFunction*
G04 #@! TA.AperFunction,SMDPad,CuDef*
G36*
G01*
X4315000Y4577500D02*
X4315000Y4922500D01*
G75*
G02*
X4462500Y5070000I147500J0D01*
G01*
X4757500Y5070000D01*
G75*
G02*
X4905000Y4922500I0J-147500D01*
G01*
X4905000Y4577500D01*
G75*
G02*
X4757500Y4430000I-147500J0D01*
G01*
X4462500Y4430000D01*
G75*
G02*
X4315000Y4577500I0J147500D01*
G01*
G37*
G04 #@! TD.AperFunction*
G04 #@! TA.AperFunction,SMDPad,CuDef*
G36*
G01*
X3345000Y4577500D02*
X3345000Y4922500D01*
G75*
G02*
X3492500Y5070000I147500J0D01*
G01*
X3787500Y5070000D01*
G75*
G02*
X3935000Y4922500I0J-147500D01*
G01*
X3935000Y4577500D01*
G75*
G02*
X3787500Y4430000I-147500J0D01*
G01*
X3492500Y4430000D01*
G75*
G02*
X3345000Y4577500I0J147500D01*
G01*
G37*
G04 #@! TD.AperFunction*
G04 #@! TA.AperFunction,SMDPad,CuDef*
G36*
G01*
X-8490000Y9472500D02*
X-8490000Y9127500D01*
G75*
G02*
X-8637500Y8980000I-147500J0D01*
G01*
X-8932500Y8980000D01*
G75*
G02*
X-9080000Y9127500I0J147500D01*
G01*
X-9080000Y9472500D01*
G75*
G02*
X-8932500Y9620000I147500J0D01*
G01*
X-8637500Y9620000D01*
G75*
G02*
X-8490000Y9472500I0J-147500D01*
G01*
G37*
G04 #@! TD.AperFunction*
G04 #@! TA.AperFunction,SMDPad,CuDef*
G36*
G01*
X-7520000Y9472500D02*
X-7520000Y9127500D01*
G75*
G02*
X-7667500Y8980000I-147500J0D01*
G01*
X-7962500Y8980000D01*
G75*
G02*
X-8110000Y9127500I0J147500D01*
G01*
X-8110000Y9472500D01*
G75*
G02*
X-7962500Y9620000I147500J0D01*
G01*
X-7667500Y9620000D01*
G75*
G02*
X-7520000Y9472500I0J-147500D01*
G01*
G37*
G04 #@! TD.AperFunction*
G04 #@! TA.AperFunction,SMDPad,CuDef*
G36*
G01*
X-11190000Y3672500D02*
X-11190000Y3327500D01*
G75*
G02*
X-11337500Y3180000I-147500J0D01*
G01*
X-11632500Y3180000D01*
G75*
G02*
X-11780000Y3327500I0J147500D01*
G01*
X-11780000Y3672500D01*
G75*
G02*
X-11632500Y3820000I147500J0D01*
G01*
X-11337500Y3820000D01*
G75*
G02*
X-11190000Y3672500I0J-147500D01*
G01*
G37*
G04 #@! TD.AperFunction*
G04 #@! TA.AperFunction,SMDPad,CuDef*
G36*
G01*
X-10220000Y3672500D02*
X-10220000Y3327500D01*
G75*
G02*
X-10367500Y3180000I-147500J0D01*
G01*
X-10662500Y3180000D01*
G75*
G02*
X-10810000Y3327500I0J147500D01*
G01*
X-10810000Y3672500D01*
G75*
G02*
X-10662500Y3820000I147500J0D01*
G01*
X-10367500Y3820000D01*
G75*
G02*
X-10220000Y3672500I0J-147500D01*
G01*
G37*
G04 #@! TD.AperFunction*
D10*
X-8750000Y6725000D03*
X-8250000Y8125000D03*
X-7750000Y6725000D03*
X-8750000Y8125000D03*
X-7750000Y8125000D03*
D11*
X-8875000Y5025000D03*
D12*
X-7725000Y5425000D03*
X-7725000Y4625000D03*
G04 #@! TA.AperFunction,SMDPad,CuDef*
G36*
G01*
X-11400000Y4925000D02*
X-11400000Y4325000D01*
G75*
G02*
X-11450000Y4275000I-50000J0D01*
G01*
X-11750000Y4275000D01*
G75*
G02*
X-11800000Y4325000I0J50000D01*
G01*
X-11800000Y4925000D01*
G75*
G02*
X-11750000Y4975000I50000J0D01*
G01*
X-11450000Y4975000D01*
G75*
G02*
X-11400000Y4925000I0J-50000D01*
G01*
G37*
G04 #@! TD.AperFunction*
G04 #@! TA.AperFunction,SMDPad,CuDef*
G36*
G01*
X-10700000Y4925000D02*
X-10700000Y4775000D01*
G75*
G02*
X-10750000Y4725000I-50000J0D01*
G01*
X-11050000Y4725000D01*
G75*
G02*
X-11100000Y4775000I0J50000D01*
G01*
X-11100000Y4925000D01*
G75*
G02*
X-11050000Y4975000I50000J0D01*
G01*
X-10750000Y4975000D01*
G75*
G02*
X-10700000Y4925000I0J-50000D01*
G01*
G37*
G04 #@! TD.AperFunction*
G04 #@! TA.AperFunction,SMDPad,CuDef*
G36*
G01*
X-10700000Y4475000D02*
X-10700000Y4325000D01*
G75*
G02*
X-10750000Y4275000I-50000J0D01*
G01*
X-11050000Y4275000D01*
G75*
G02*
X-11100000Y4325000I0J50000D01*
G01*
X-11100000Y4475000D01*
G75*
G02*
X-11050000Y4525000I50000J0D01*
G01*
X-10750000Y4525000D01*
G75*
G02*
X-10700000Y4475000I0J-50000D01*
G01*
G37*
G04 #@! TD.AperFunction*
G04 #@! TA.AperFunction,SMDPad,CuDef*
G36*
G01*
X4365000Y2460000D02*
X4365000Y2800000D01*
G75*
G02*
X4505000Y2940000I140000J0D01*
G01*
X4785000Y2940000D01*
G75*
G02*
X4925000Y2800000I0J-140000D01*
G01*
X4925000Y2460000D01*
G75*
G02*
X4785000Y2320000I-140000J0D01*
G01*
X4505000Y2320000D01*
G75*
G02*
X4365000Y2460000I0J140000D01*
G01*
G37*
G04 #@! TD.AperFunction*
G04 #@! TA.AperFunction,SMDPad,CuDef*
G36*
G01*
X5325000Y2460000D02*
X5325000Y2800000D01*
G75*
G02*
X5465000Y2940000I140000J0D01*
G01*
X5745000Y2940000D01*
G75*
G02*
X5885000Y2800000I0J-140000D01*
G01*
X5885000Y2460000D01*
G75*
G02*
X5745000Y2320000I-140000J0D01*
G01*
X5465000Y2320000D01*
G75*
G02*
X5325000Y2460000I0J140000D01*
G01*
G37*
G04 #@! TD.AperFunction*
D13*
X-8550000Y-250000D03*
X-11950000Y-250000D03*
X-8550000Y-3750000D03*
X-11950000Y-3750000D03*
D14*
X10876000Y-3302000D03*
X9476000Y-3302000D03*
D15*
X9301000Y2315200D03*
X11051000Y2315200D03*
X11051000Y915200D03*
X9301000Y915200D03*
G04 #@! TA.AperFunction,SMDPad,CuDef*
D16*
G36*
X11738370Y-9566440D02*
G01*
X10713066Y-8541136D01*
X11137330Y-8116872D01*
X12162634Y-9142176D01*
X11738370Y-9566440D01*
G37*
G04 #@! TD.AperFunction*
G04 #@! TA.AperFunction,SMDPad,CuDef*
G36*
X11172685Y-10132125D02*
G01*
X10147381Y-9106821D01*
X10571645Y-8682557D01*
X11596949Y-9707861D01*
X11172685Y-10132125D01*
G37*
G04 #@! TD.AperFunction*
G04 #@! TA.AperFunction,SMDPad,CuDef*
G36*
X7707861Y-13596949D02*
G01*
X6682557Y-12571645D01*
X7106821Y-12147381D01*
X8132125Y-13172685D01*
X7707861Y-13596949D01*
G37*
G04 #@! TD.AperFunction*
G04 #@! TA.AperFunction,SMDPad,CuDef*
G36*
X7142176Y-14162634D02*
G01*
X6116872Y-13137330D01*
X6541136Y-12713066D01*
X7566440Y-13738370D01*
X7142176Y-14162634D01*
G37*
G04 #@! TD.AperFunction*
G04 #@! TA.AperFunction,SMDPad,CuDef*
G36*
X7142176Y-14162634D02*
G01*
X6116872Y-13137330D01*
X6541136Y-12713066D01*
X7566440Y-13738370D01*
X7142176Y-14162634D01*
G37*
G04 #@! TD.AperFunction*
G04 #@! TA.AperFunction,SMDPad,CuDef*
G36*
X7707861Y-13596949D02*
G01*
X6682557Y-12571645D01*
X7106821Y-12147381D01*
X8132125Y-13172685D01*
X7707861Y-13596949D01*
G37*
G04 #@! TD.AperFunction*
G04 #@! TA.AperFunction,SMDPad,CuDef*
G36*
X11172685Y-10132125D02*
G01*
X10147381Y-9106821D01*
X10571645Y-8682557D01*
X11596949Y-9707861D01*
X11172685Y-10132125D01*
G37*
G04 #@! TD.AperFunction*
G04 #@! TA.AperFunction,SMDPad,CuDef*
G36*
X11738370Y-9566440D02*
G01*
X10713066Y-8541136D01*
X11137330Y-8116872D01*
X12162634Y-9142176D01*
X11738370Y-9566440D01*
G37*
G04 #@! TD.AperFunction*
G04 #@! TA.AperFunction,SMDPad,CuDef*
G36*
X8308902Y-12995908D02*
G01*
X7283598Y-11970604D01*
X7495730Y-11758472D01*
X8521034Y-12783776D01*
X8308902Y-12995908D01*
G37*
G04 #@! TD.AperFunction*
G04 #@! TA.AperFunction,SMDPad,CuDef*
G36*
X8662456Y-12642355D02*
G01*
X7637152Y-11617051D01*
X7849284Y-11404919D01*
X8874588Y-12430223D01*
X8662456Y-12642355D01*
G37*
G04 #@! TD.AperFunction*
G04 #@! TA.AperFunction,SMDPad,CuDef*
G36*
X9016009Y-12288801D02*
G01*
X7990705Y-11263497D01*
X8202837Y-11051365D01*
X9228141Y-12076669D01*
X9016009Y-12288801D01*
G37*
G04 #@! TD.AperFunction*
G04 #@! TA.AperFunction,SMDPad,CuDef*
G36*
X9723116Y-11581694D02*
G01*
X8697812Y-10556390D01*
X8909944Y-10344258D01*
X9935248Y-11369562D01*
X9723116Y-11581694D01*
G37*
G04 #@! TD.AperFunction*
G04 #@! TA.AperFunction,SMDPad,CuDef*
G36*
X10076669Y-11228141D02*
G01*
X9051365Y-10202837D01*
X9263497Y-9990705D01*
X10288801Y-11016009D01*
X10076669Y-11228141D01*
G37*
G04 #@! TD.AperFunction*
G04 #@! TA.AperFunction,SMDPad,CuDef*
G36*
X10430223Y-10874588D02*
G01*
X9404919Y-9849284D01*
X9617051Y-9637152D01*
X10642355Y-10662456D01*
X10430223Y-10874588D01*
G37*
G04 #@! TD.AperFunction*
G04 #@! TA.AperFunction,SMDPad,CuDef*
G36*
X10783776Y-10521034D02*
G01*
X9758472Y-9495730D01*
X9970604Y-9283598D01*
X10995908Y-10308902D01*
X10783776Y-10521034D01*
G37*
G04 #@! TD.AperFunction*
G04 #@! TA.AperFunction,SMDPad,CuDef*
G36*
X9369562Y-11935248D02*
G01*
X8344258Y-10909944D01*
X8556390Y-10697812D01*
X9581694Y-11723116D01*
X9369562Y-11935248D01*
G37*
G04 #@! TD.AperFunction*
G04 #@! TA.AperFunction,ComponentPad*
G36*
G01*
X12876813Y-9474516D02*
X12098995Y-8696698D01*
G75*
G02*
X12098995Y-7989592I353553J353553D01*
G01*
X12098995Y-7989592D01*
G75*
G02*
X12806101Y-7989592I353553J-353553D01*
G01*
X13583919Y-8767410D01*
G75*
G02*
X13583919Y-9474516I-353553J-353553D01*
G01*
X13583919Y-9474516D01*
G75*
G02*
X12876813Y-9474516I-353553J353553D01*
G01*
G37*
G04 #@! TD.AperFunction*
G04 #@! TA.AperFunction,ComponentPad*
G36*
G01*
X6767410Y-15583919D02*
X5989592Y-14806101D01*
G75*
G02*
X5989592Y-14098995I353553J353553D01*
G01*
X5989592Y-14098995D01*
G75*
G02*
X6696698Y-14098995I353553J-353553D01*
G01*
X7474516Y-14876813D01*
G75*
G02*
X7474516Y-15583919I-353553J-353553D01*
G01*
X7474516Y-15583919D01*
G75*
G02*
X6767410Y-15583919I-353553J353553D01*
G01*
G37*
G04 #@! TD.AperFunction*
G04 #@! TA.AperFunction,ComponentPad*
G36*
G01*
X9546340Y-18362848D02*
X9122076Y-17938584D01*
G75*
G02*
X9122076Y-17231478I353553J353553D01*
G01*
X9122076Y-17231478D01*
G75*
G02*
X9829182Y-17231478I353553J-353553D01*
G01*
X10253446Y-17655742D01*
G75*
G02*
X10253446Y-18362848I-353553J-353553D01*
G01*
X10253446Y-18362848D01*
G75*
G02*
X9546340Y-18362848I-353553J353553D01*
G01*
G37*
G04 #@! TD.AperFunction*
G04 #@! TA.AperFunction,ComponentPad*
G36*
G01*
X15655742Y-12253446D02*
X15231478Y-11829182D01*
G75*
G02*
X15231478Y-11122076I353553J353553D01*
G01*
X15231478Y-11122076D01*
G75*
G02*
X15938584Y-11122076I353553J-353553D01*
G01*
X16362848Y-11546340D01*
G75*
G02*
X16362848Y-12253446I-353553J-353553D01*
G01*
X16362848Y-12253446D01*
G75*
G02*
X15655742Y-12253446I-353553J353553D01*
G01*
G37*
G04 #@! TD.AperFunction*
G04 #@! TA.AperFunction,ComponentPad*
G36*
G01*
X-10253446Y-17655742D02*
X-9829182Y-17231478D01*
G75*
G02*
X-9122076Y-17231478I353553J-353553D01*
G01*
X-9122076Y-17231478D01*
G75*
G02*
X-9122076Y-17938584I-353553J-353553D01*
G01*
X-9546340Y-18362848D01*
G75*
G02*
X-10253446Y-18362848I-353553J353553D01*
G01*
X-10253446Y-18362848D01*
G75*
G02*
X-10253446Y-17655742I353553J353553D01*
G01*
G37*
G04 #@! TD.AperFunction*
G04 #@! TA.AperFunction,ComponentPad*
G36*
G01*
X-16362848Y-11546340D02*
X-15938584Y-11122076D01*
G75*
G02*
X-15231478Y-11122076I353553J-353553D01*
G01*
X-15231478Y-11122076D01*
G75*
G02*
X-15231478Y-11829182I-353553J-353553D01*
G01*
X-15655742Y-12253446D01*
G75*
G02*
X-16362848Y-12253446I-353553J353553D01*
G01*
X-16362848Y-12253446D01*
G75*
G02*
X-16362848Y-11546340I353553J353553D01*
G01*
G37*
G04 #@! TD.AperFunction*
G04 #@! TA.AperFunction,ComponentPad*
G36*
G01*
X-13583919Y-8767410D02*
X-12806101Y-7989592D01*
G75*
G02*
X-12098995Y-7989592I353553J-353553D01*
G01*
X-12098995Y-7989592D01*
G75*
G02*
X-12098995Y-8696698I-353553J-353553D01*
G01*
X-12876813Y-9474516D01*
G75*
G02*
X-13583919Y-9474516I-353553J353553D01*
G01*
X-13583919Y-9474516D01*
G75*
G02*
X-13583919Y-8767410I353553J353553D01*
G01*
G37*
G04 #@! TD.AperFunction*
G04 #@! TA.AperFunction,ComponentPad*
G36*
G01*
X-7474516Y-14876813D02*
X-6696698Y-14098995D01*
G75*
G02*
X-5989592Y-14098995I353553J-353553D01*
G01*
X-5989592Y-14098995D01*
G75*
G02*
X-5989592Y-14806101I-353553J-353553D01*
G01*
X-6767410Y-15583919D01*
G75*
G02*
X-7474516Y-15583919I-353553J353553D01*
G01*
X-7474516Y-15583919D01*
G75*
G02*
X-7474516Y-14876813I353553J353553D01*
G01*
G37*
G04 #@! TD.AperFunction*
G04 #@! TA.AperFunction,SMDPad,CuDef*
G36*
X-9935248Y-11369562D02*
G01*
X-8909944Y-10344258D01*
X-8697812Y-10556390D01*
X-9723116Y-11581694D01*
X-9935248Y-11369562D01*
G37*
G04 #@! TD.AperFunction*
G04 #@! TA.AperFunction,SMDPad,CuDef*
G36*
X-8521034Y-12783776D02*
G01*
X-7495730Y-11758472D01*
X-7283598Y-11970604D01*
X-8308902Y-12995908D01*
X-8521034Y-12783776D01*
G37*
G04 #@! TD.AperFunction*
G04 #@! TA.AperFunction,SMDPad,CuDef*
G36*
X-8874588Y-12430223D02*
G01*
X-7849284Y-11404919D01*
X-7637152Y-11617051D01*
X-8662456Y-12642355D01*
X-8874588Y-12430223D01*
G37*
G04 #@! TD.AperFunction*
G04 #@! TA.AperFunction,SMDPad,CuDef*
G36*
X-9228141Y-12076669D02*
G01*
X-8202837Y-11051365D01*
X-7990705Y-11263497D01*
X-9016009Y-12288801D01*
X-9228141Y-12076669D01*
G37*
G04 #@! TD.AperFunction*
G04 #@! TA.AperFunction,SMDPad,CuDef*
G36*
X-9581694Y-11723116D02*
G01*
X-8556390Y-10697812D01*
X-8344258Y-10909944D01*
X-9369562Y-11935248D01*
X-9581694Y-11723116D01*
G37*
G04 #@! TD.AperFunction*
G04 #@! TA.AperFunction,SMDPad,CuDef*
G36*
X-10288801Y-11016009D02*
G01*
X-9263497Y-9990705D01*
X-9051365Y-10202837D01*
X-10076669Y-11228141D01*
X-10288801Y-11016009D01*
G37*
G04 #@! TD.AperFunction*
G04 #@! TA.AperFunction,SMDPad,CuDef*
G36*
X-10642355Y-10662456D02*
G01*
X-9617051Y-9637152D01*
X-9404919Y-9849284D01*
X-10430223Y-10874588D01*
X-10642355Y-10662456D01*
G37*
G04 #@! TD.AperFunction*
G04 #@! TA.AperFunction,SMDPad,CuDef*
G36*
X-10995908Y-10308902D02*
G01*
X-9970604Y-9283598D01*
X-9758472Y-9495730D01*
X-10783776Y-10521034D01*
X-10995908Y-10308902D01*
G37*
G04 #@! TD.AperFunction*
G04 #@! TA.AperFunction,SMDPad,CuDef*
G36*
X-7566440Y-13738370D02*
G01*
X-6541136Y-12713066D01*
X-6116872Y-13137330D01*
X-7142176Y-14162634D01*
X-7566440Y-13738370D01*
G37*
G04 #@! TD.AperFunction*
G04 #@! TA.AperFunction,SMDPad,CuDef*
G36*
X-8132125Y-13172685D02*
G01*
X-7106821Y-12147381D01*
X-6682557Y-12571645D01*
X-7707861Y-13596949D01*
X-8132125Y-13172685D01*
G37*
G04 #@! TD.AperFunction*
G04 #@! TA.AperFunction,SMDPad,CuDef*
G36*
X-11596949Y-9707861D02*
G01*
X-10571645Y-8682557D01*
X-10147381Y-9106821D01*
X-11172685Y-10132125D01*
X-11596949Y-9707861D01*
G37*
G04 #@! TD.AperFunction*
G04 #@! TA.AperFunction,SMDPad,CuDef*
G36*
X-12162634Y-9142176D02*
G01*
X-11137330Y-8116872D01*
X-10713066Y-8541136D01*
X-11738370Y-9566440D01*
X-12162634Y-9142176D01*
G37*
G04 #@! TD.AperFunction*
G04 #@! TA.AperFunction,SMDPad,CuDef*
G36*
X-12162634Y-9142176D02*
G01*
X-11137330Y-8116872D01*
X-10713066Y-8541136D01*
X-11738370Y-9566440D01*
X-12162634Y-9142176D01*
G37*
G04 #@! TD.AperFunction*
G04 #@! TA.AperFunction,SMDPad,CuDef*
G36*
X-11596949Y-9707861D02*
G01*
X-10571645Y-8682557D01*
X-10147381Y-9106821D01*
X-11172685Y-10132125D01*
X-11596949Y-9707861D01*
G37*
G04 #@! TD.AperFunction*
G04 #@! TA.AperFunction,SMDPad,CuDef*
G36*
X-8132125Y-13172685D02*
G01*
X-7106821Y-12147381D01*
X-6682557Y-12571645D01*
X-7707861Y-13596949D01*
X-8132125Y-13172685D01*
G37*
G04 #@! TD.AperFunction*
G04 #@! TA.AperFunction,SMDPad,CuDef*
G36*
X-7566440Y-13738370D02*
G01*
X-6541136Y-12713066D01*
X-6116872Y-13137330D01*
X-7142176Y-14162634D01*
X-7566440Y-13738370D01*
G37*
G04 #@! TD.AperFunction*
D17*
X-3250000Y11955000D03*
X-2450000Y11955000D03*
X2450000Y11955000D03*
X3250000Y11955000D03*
X3250000Y11955000D03*
X2450000Y11955000D03*
X-2450000Y11955000D03*
X-3250000Y11955000D03*
D18*
X1750000Y11955000D03*
X1250000Y11955000D03*
X750000Y11955000D03*
X-250000Y11955000D03*
X-750000Y11955000D03*
X-1250000Y11955000D03*
X-1750000Y11955000D03*
X250000Y11955000D03*
D19*
X-4320000Y12870000D03*
X4320000Y12870000D03*
D20*
X4320000Y17050000D03*
X-4320000Y17050000D03*
G04 #@! TA.AperFunction,SMDPad,CuDef*
G36*
G01*
X-1755000Y-8750000D02*
X-2055000Y-8750000D01*
G75*
G02*
X-2205000Y-8600000I0J150000D01*
G01*
X-2205000Y-6950000D01*
G75*
G02*
X-2055000Y-6800000I150000J0D01*
G01*
X-1755000Y-6800000D01*
G75*
G02*
X-1605000Y-6950000I0J-150000D01*
G01*
X-1605000Y-8600000D01*
G75*
G02*
X-1755000Y-8750000I-150000J0D01*
G01*
G37*
G04 #@! TD.AperFunction*
G04 #@! TA.AperFunction,SMDPad,CuDef*
G36*
G01*
X-485000Y-8750000D02*
X-785000Y-8750000D01*
G75*
G02*
X-935000Y-8600000I0J150000D01*
G01*
X-935000Y-6950000D01*
G75*
G02*
X-785000Y-6800000I150000J0D01*
G01*
X-485000Y-6800000D01*
G75*
G02*
X-335000Y-6950000I0J-150000D01*
G01*
X-335000Y-8600000D01*
G75*
G02*
X-485000Y-8750000I-150000J0D01*
G01*
G37*
G04 #@! TD.AperFunction*
G04 #@! TA.AperFunction,SMDPad,CuDef*
G36*
G01*
X785000Y-8750000D02*
X485000Y-8750000D01*
G75*
G02*
X335000Y-8600000I0J150000D01*
G01*
X335000Y-6950000D01*
G75*
G02*
X485000Y-6800000I150000J0D01*
G01*
X785000Y-6800000D01*
G75*
G02*
X935000Y-6950000I0J-150000D01*
G01*
X935000Y-8600000D01*
G75*
G02*
X785000Y-8750000I-150000J0D01*
G01*
G37*
G04 #@! TD.AperFunction*
G04 #@! TA.AperFunction,SMDPad,CuDef*
G36*
G01*
X2055000Y-8750000D02*
X1755000Y-8750000D01*
G75*
G02*
X1605000Y-8600000I0J150000D01*
G01*
X1605000Y-6950000D01*
G75*
G02*
X1755000Y-6800000I150000J0D01*
G01*
X2055000Y-6800000D01*
G75*
G02*
X2205000Y-6950000I0J-150000D01*
G01*
X2205000Y-8600000D01*
G75*
G02*
X2055000Y-8750000I-150000J0D01*
G01*
G37*
G04 #@! TD.AperFunction*
G04 #@! TA.AperFunction,SMDPad,CuDef*
G36*
G01*
X2055000Y-13700000D02*
X1755000Y-13700000D01*
G75*
G02*
X1605000Y-13550000I0J150000D01*
G01*
X1605000Y-11900000D01*
G75*
G02*
X1755000Y-11750000I150000J0D01*
G01*
X2055000Y-11750000D01*
G75*
G02*
X2205000Y-11900000I0J-150000D01*
G01*
X2205000Y-13550000D01*
G75*
G02*
X2055000Y-13700000I-150000J0D01*
G01*
G37*
G04 #@! TD.AperFunction*
G04 #@! TA.AperFunction,SMDPad,CuDef*
G36*
G01*
X785000Y-13700000D02*
X485000Y-13700000D01*
G75*
G02*
X335000Y-13550000I0J150000D01*
G01*
X335000Y-11900000D01*
G75*
G02*
X485000Y-11750000I150000J0D01*
G01*
X785000Y-11750000D01*
G75*
G02*
X935000Y-11900000I0J-150000D01*
G01*
X935000Y-13550000D01*
G75*
G02*
X785000Y-13700000I-150000J0D01*
G01*
G37*
G04 #@! TD.AperFunction*
G04 #@! TA.AperFunction,SMDPad,CuDef*
G36*
G01*
X-485000Y-13700000D02*
X-785000Y-13700000D01*
G75*
G02*
X-935000Y-13550000I0J150000D01*
G01*
X-935000Y-11900000D01*
G75*
G02*
X-785000Y-11750000I150000J0D01*
G01*
X-485000Y-11750000D01*
G75*
G02*
X-335000Y-11900000I0J-150000D01*
G01*
X-335000Y-13550000D01*
G75*
G02*
X-485000Y-13700000I-150000J0D01*
G01*
G37*
G04 #@! TD.AperFunction*
G04 #@! TA.AperFunction,SMDPad,CuDef*
G36*
G01*
X-1755000Y-13700000D02*
X-2055000Y-13700000D01*
G75*
G02*
X-2205000Y-13550000I0J150000D01*
G01*
X-2205000Y-11900000D01*
G75*
G02*
X-2055000Y-11750000I150000J0D01*
G01*
X-1755000Y-11750000D01*
G75*
G02*
X-1605000Y-11900000I0J-150000D01*
G01*
X-1605000Y-13550000D01*
G75*
G02*
X-1755000Y-13700000I-150000J0D01*
G01*
G37*
G04 #@! TD.AperFunction*
D21*
X0Y0D03*
G04 #@! TA.AperFunction,SMDPad,CuDef*
G36*
G01*
X2875000Y-3062500D02*
X2875000Y-3812500D01*
G75*
G02*
X2812500Y-3875000I-62500J0D01*
G01*
X2687500Y-3875000D01*
G75*
G02*
X2625000Y-3812500I0J62500D01*
G01*
X2625000Y-3062500D01*
G75*
G02*
X2687500Y-3000000I62500J0D01*
G01*
X2812500Y-3000000D01*
G75*
G02*
X2875000Y-3062500I0J-62500D01*
G01*
G37*
G04 #@! TD.AperFunction*
G04 #@! TA.AperFunction,SMDPad,CuDef*
G36*
G01*
X2375000Y-3062500D02*
X2375000Y-3812500D01*
G75*
G02*
X2312500Y-3875000I-62500J0D01*
G01*
X2187500Y-3875000D01*
G75*
G02*
X2125000Y-3812500I0J62500D01*
G01*
X2125000Y-3062500D01*
G75*
G02*
X2187500Y-3000000I62500J0D01*
G01*
X2312500Y-3000000D01*
G75*
G02*
X2375000Y-3062500I0J-62500D01*
G01*
G37*
G04 #@! TD.AperFunction*
G04 #@! TA.AperFunction,SMDPad,CuDef*
G36*
G01*
X1875000Y-3062500D02*
X1875000Y-3812500D01*
G75*
G02*
X1812500Y-3875000I-62500J0D01*
G01*
X1687500Y-3875000D01*
G75*
G02*
X1625000Y-3812500I0J62500D01*
G01*
X1625000Y-3062500D01*
G75*
G02*
X1687500Y-3000000I62500J0D01*
G01*
X1812500Y-3000000D01*
G75*
G02*
X1875000Y-3062500I0J-62500D01*
G01*
G37*
G04 #@! TD.AperFunction*
G04 #@! TA.AperFunction,SMDPad,CuDef*
G36*
G01*
X1375000Y-3062500D02*
X1375000Y-3812500D01*
G75*
G02*
X1312500Y-3875000I-62500J0D01*
G01*
X1187500Y-3875000D01*
G75*
G02*
X1125000Y-3812500I0J62500D01*
G01*
X1125000Y-3062500D01*
G75*
G02*
X1187500Y-3000000I62500J0D01*
G01*
X1312500Y-3000000D01*
G75*
G02*
X1375000Y-3062500I0J-62500D01*
G01*
G37*
G04 #@! TD.AperFunction*
G04 #@! TA.AperFunction,SMDPad,CuDef*
G36*
G01*
X875000Y-3062500D02*
X875000Y-3812500D01*
G75*
G02*
X812500Y-3875000I-62500J0D01*
G01*
X687500Y-3875000D01*
G75*
G02*
X625000Y-3812500I0J62500D01*
G01*
X625000Y-3062500D01*
G75*
G02*
X687500Y-3000000I62500J0D01*
G01*
X812500Y-3000000D01*
G75*
G02*
X875000Y-3062500I0J-62500D01*
G01*
G37*
G04 #@! TD.AperFunction*
G04 #@! TA.AperFunction,SMDPad,CuDef*
G36*
G01*
X375000Y-3062500D02*
X375000Y-3812500D01*
G75*
G02*
X312500Y-3875000I-62500J0D01*
G01*
X187500Y-3875000D01*
G75*
G02*
X125000Y-3812500I0J62500D01*
G01*
X125000Y-3062500D01*
G75*
G02*
X187500Y-3000000I62500J0D01*
G01*
X312500Y-3000000D01*
G75*
G02*
X375000Y-3062500I0J-62500D01*
G01*
G37*
G04 #@! TD.AperFunction*
G04 #@! TA.AperFunction,SMDPad,CuDef*
G36*
G01*
X-125000Y-3062500D02*
X-125000Y-3812500D01*
G75*
G02*
X-187500Y-3875000I-62500J0D01*
G01*
X-312500Y-3875000D01*
G75*
G02*
X-375000Y-3812500I0J62500D01*
G01*
X-375000Y-3062500D01*
G75*
G02*
X-312500Y-3000000I62500J0D01*
G01*
X-187500Y-3000000D01*
G75*
G02*
X-125000Y-3062500I0J-62500D01*
G01*
G37*
G04 #@! TD.AperFunction*
G04 #@! TA.AperFunction,SMDPad,CuDef*
G36*
G01*
X-625000Y-3062500D02*
X-625000Y-3812500D01*
G75*
G02*
X-687500Y-3875000I-62500J0D01*
G01*
X-812500Y-3875000D01*
G75*
G02*
X-875000Y-3812500I0J62500D01*
G01*
X-875000Y-3062500D01*
G75*
G02*
X-812500Y-3000000I62500J0D01*
G01*
X-687500Y-3000000D01*
G75*
G02*
X-625000Y-3062500I0J-62500D01*
G01*
G37*
G04 #@! TD.AperFunction*
G04 #@! TA.AperFunction,SMDPad,CuDef*
G36*
G01*
X-1125000Y-3062500D02*
X-1125000Y-3812500D01*
G75*
G02*
X-1187500Y-3875000I-62500J0D01*
G01*
X-1312500Y-3875000D01*
G75*
G02*
X-1375000Y-3812500I0J62500D01*
G01*
X-1375000Y-3062500D01*
G75*
G02*
X-1312500Y-3000000I62500J0D01*
G01*
X-1187500Y-3000000D01*
G75*
G02*
X-1125000Y-3062500I0J-62500D01*
G01*
G37*
G04 #@! TD.AperFunction*
G04 #@! TA.AperFunction,SMDPad,CuDef*
G36*
G01*
X-1625000Y-3062500D02*
X-1625000Y-3812500D01*
G75*
G02*
X-1687500Y-3875000I-62500J0D01*
G01*
X-1812500Y-3875000D01*
G75*
G02*
X-1875000Y-3812500I0J62500D01*
G01*
X-1875000Y-3062500D01*
G75*
G02*
X-1812500Y-3000000I62500J0D01*
G01*
X-1687500Y-3000000D01*
G75*
G02*
X-1625000Y-3062500I0J-62500D01*
G01*
G37*
G04 #@! TD.AperFunction*
G04 #@! TA.AperFunction,SMDPad,CuDef*
G36*
G01*
X-2125000Y-3062500D02*
X-2125000Y-3812500D01*
G75*
G02*
X-2187500Y-3875000I-62500J0D01*
G01*
X-2312500Y-3875000D01*
G75*
G02*
X-2375000Y-3812500I0J62500D01*
G01*
X-2375000Y-3062500D01*
G75*
G02*
X-2312500Y-3000000I62500J0D01*
G01*
X-2187500Y-3000000D01*
G75*
G02*
X-2125000Y-3062500I0J-62500D01*
G01*
G37*
G04 #@! TD.AperFunction*
G04 #@! TA.AperFunction,SMDPad,CuDef*
G36*
G01*
X-2625000Y-3062500D02*
X-2625000Y-3812500D01*
G75*
G02*
X-2687500Y-3875000I-62500J0D01*
G01*
X-2812500Y-3875000D01*
G75*
G02*
X-2875000Y-3812500I0J62500D01*
G01*
X-2875000Y-3062500D01*
G75*
G02*
X-2812500Y-3000000I62500J0D01*
G01*
X-2687500Y-3000000D01*
G75*
G02*
X-2625000Y-3062500I0J-62500D01*
G01*
G37*
G04 #@! TD.AperFunction*
G04 #@! TA.AperFunction,SMDPad,CuDef*
G36*
G01*
X-3000000Y-2687500D02*
X-3000000Y-2812500D01*
G75*
G02*
X-3062500Y-2875000I-62500J0D01*
G01*
X-3812500Y-2875000D01*
G75*
G02*
X-3875000Y-2812500I0J62500D01*
G01*
X-3875000Y-2687500D01*
G75*
G02*
X-3812500Y-2625000I62500J0D01*
G01*
X-3062500Y-2625000D01*
G75*
G02*
X-3000000Y-2687500I0J-62500D01*
G01*
G37*
G04 #@! TD.AperFunction*
G04 #@! TA.AperFunction,SMDPad,CuDef*
G36*
G01*
X-3000000Y-2187500D02*
X-3000000Y-2312500D01*
G75*
G02*
X-3062500Y-2375000I-62500J0D01*
G01*
X-3812500Y-2375000D01*
G75*
G02*
X-3875000Y-2312500I0J62500D01*
G01*
X-3875000Y-2187500D01*
G75*
G02*
X-3812500Y-2125000I62500J0D01*
G01*
X-3062500Y-2125000D01*
G75*
G02*
X-3000000Y-2187500I0J-62500D01*
G01*
G37*
G04 #@! TD.AperFunction*
G04 #@! TA.AperFunction,SMDPad,CuDef*
G36*
G01*
X-3000000Y-1687500D02*
X-3000000Y-1812500D01*
G75*
G02*
X-3062500Y-1875000I-62500J0D01*
G01*
X-3812500Y-1875000D01*
G75*
G02*
X-3875000Y-1812500I0J62500D01*
G01*
X-3875000Y-1687500D01*
G75*
G02*
X-3812500Y-1625000I62500J0D01*
G01*
X-3062500Y-1625000D01*
G75*
G02*
X-3000000Y-1687500I0J-62500D01*
G01*
G37*
G04 #@! TD.AperFunction*
G04 #@! TA.AperFunction,SMDPad,CuDef*
G36*
G01*
X-3000000Y-1187500D02*
X-3000000Y-1312500D01*
G75*
G02*
X-3062500Y-1375000I-62500J0D01*
G01*
X-3812500Y-1375000D01*
G75*
G02*
X-3875000Y-1312500I0J62500D01*
G01*
X-3875000Y-1187500D01*
G75*
G02*
X-3812500Y-1125000I62500J0D01*
G01*
X-3062500Y-1125000D01*
G75*
G02*
X-3000000Y-1187500I0J-62500D01*
G01*
G37*
G04 #@! TD.AperFunction*
G04 #@! TA.AperFunction,SMDPad,CuDef*
G36*
G01*
X-3000000Y-687500D02*
X-3000000Y-812500D01*
G75*
G02*
X-3062500Y-875000I-62500J0D01*
G01*
X-3812500Y-875000D01*
G75*
G02*
X-3875000Y-812500I0J62500D01*
G01*
X-3875000Y-687500D01*
G75*
G02*
X-3812500Y-625000I62500J0D01*
G01*
X-3062500Y-625000D01*
G75*
G02*
X-3000000Y-687500I0J-62500D01*
G01*
G37*
G04 #@! TD.AperFunction*
G04 #@! TA.AperFunction,SMDPad,CuDef*
G36*
G01*
X-3000000Y-187500D02*
X-3000000Y-312500D01*
G75*
G02*
X-3062500Y-375000I-62500J0D01*
G01*
X-3812500Y-375000D01*
G75*
G02*
X-3875000Y-312500I0J62500D01*
G01*
X-3875000Y-187500D01*
G75*
G02*
X-3812500Y-125000I62500J0D01*
G01*
X-3062500Y-125000D01*
G75*
G02*
X-3000000Y-187500I0J-62500D01*
G01*
G37*
G04 #@! TD.AperFunction*
G04 #@! TA.AperFunction,SMDPad,CuDef*
G36*
G01*
X-3000000Y312500D02*
X-3000000Y187500D01*
G75*
G02*
X-3062500Y125000I-62500J0D01*
G01*
X-3812500Y125000D01*
G75*
G02*
X-3875000Y187500I0J62500D01*
G01*
X-3875000Y312500D01*
G75*
G02*
X-3812500Y375000I62500J0D01*
G01*
X-3062500Y375000D01*
G75*
G02*
X-3000000Y312500I0J-62500D01*
G01*
G37*
G04 #@! TD.AperFunction*
G04 #@! TA.AperFunction,SMDPad,CuDef*
G36*
G01*
X-3000000Y812500D02*
X-3000000Y687500D01*
G75*
G02*
X-3062500Y625000I-62500J0D01*
G01*
X-3812500Y625000D01*
G75*
G02*
X-3875000Y687500I0J62500D01*
G01*
X-3875000Y812500D01*
G75*
G02*
X-3812500Y875000I62500J0D01*
G01*
X-3062500Y875000D01*
G75*
G02*
X-3000000Y812500I0J-62500D01*
G01*
G37*
G04 #@! TD.AperFunction*
G04 #@! TA.AperFunction,SMDPad,CuDef*
G36*
G01*
X-3000000Y1312500D02*
X-3000000Y1187500D01*
G75*
G02*
X-3062500Y1125000I-62500J0D01*
G01*
X-3812500Y1125000D01*
G75*
G02*
X-3875000Y1187500I0J62500D01*
G01*
X-3875000Y1312500D01*
G75*
G02*
X-3812500Y1375000I62500J0D01*
G01*
X-3062500Y1375000D01*
G75*
G02*
X-3000000Y1312500I0J-62500D01*
G01*
G37*
G04 #@! TD.AperFunction*
G04 #@! TA.AperFunction,SMDPad,CuDef*
G36*
G01*
X-3000000Y1812500D02*
X-3000000Y1687500D01*
G75*
G02*
X-3062500Y1625000I-62500J0D01*
G01*
X-3812500Y1625000D01*
G75*
G02*
X-3875000Y1687500I0J62500D01*
G01*
X-3875000Y1812500D01*
G75*
G02*
X-3812500Y1875000I62500J0D01*
G01*
X-3062500Y1875000D01*
G75*
G02*
X-3000000Y1812500I0J-62500D01*
G01*
G37*
G04 #@! TD.AperFunction*
G04 #@! TA.AperFunction,SMDPad,CuDef*
G36*
G01*
X-3000000Y2312500D02*
X-3000000Y2187500D01*
G75*
G02*
X-3062500Y2125000I-62500J0D01*
G01*
X-3812500Y2125000D01*
G75*
G02*
X-3875000Y2187500I0J62500D01*
G01*
X-3875000Y2312500D01*
G75*
G02*
X-3812500Y2375000I62500J0D01*
G01*
X-3062500Y2375000D01*
G75*
G02*
X-3000000Y2312500I0J-62500D01*
G01*
G37*
G04 #@! TD.AperFunction*
G04 #@! TA.AperFunction,SMDPad,CuDef*
G36*
G01*
X-3000000Y2812500D02*
X-3000000Y2687500D01*
G75*
G02*
X-3062500Y2625000I-62500J0D01*
G01*
X-3812500Y2625000D01*
G75*
G02*
X-3875000Y2687500I0J62500D01*
G01*
X-3875000Y2812500D01*
G75*
G02*
X-3812500Y2875000I62500J0D01*
G01*
X-3062500Y2875000D01*
G75*
G02*
X-3000000Y2812500I0J-62500D01*
G01*
G37*
G04 #@! TD.AperFunction*
G04 #@! TA.AperFunction,SMDPad,CuDef*
G36*
G01*
X-2625000Y3812500D02*
X-2625000Y3062500D01*
G75*
G02*
X-2687500Y3000000I-62500J0D01*
G01*
X-2812500Y3000000D01*
G75*
G02*
X-2875000Y3062500I0J62500D01*
G01*
X-2875000Y3812500D01*
G75*
G02*
X-2812500Y3875000I62500J0D01*
G01*
X-2687500Y3875000D01*
G75*
G02*
X-2625000Y3812500I0J-62500D01*
G01*
G37*
G04 #@! TD.AperFunction*
G04 #@! TA.AperFunction,SMDPad,CuDef*
G36*
G01*
X-2125000Y3812500D02*
X-2125000Y3062500D01*
G75*
G02*
X-2187500Y3000000I-62500J0D01*
G01*
X-2312500Y3000000D01*
G75*
G02*
X-2375000Y3062500I0J62500D01*
G01*
X-2375000Y3812500D01*
G75*
G02*
X-2312500Y3875000I62500J0D01*
G01*
X-2187500Y3875000D01*
G75*
G02*
X-2125000Y3812500I0J-62500D01*
G01*
G37*
G04 #@! TD.AperFunction*
G04 #@! TA.AperFunction,SMDPad,CuDef*
G36*
G01*
X-1625000Y3812500D02*
X-1625000Y3062500D01*
G75*
G02*
X-1687500Y3000000I-62500J0D01*
G01*
X-1812500Y3000000D01*
G75*
G02*
X-1875000Y3062500I0J62500D01*
G01*
X-1875000Y3812500D01*
G75*
G02*
X-1812500Y3875000I62500J0D01*
G01*
X-1687500Y3875000D01*
G75*
G02*
X-1625000Y3812500I0J-62500D01*
G01*
G37*
G04 #@! TD.AperFunction*
G04 #@! TA.AperFunction,SMDPad,CuDef*
G36*
G01*
X-1125000Y3812500D02*
X-1125000Y3062500D01*
G75*
G02*
X-1187500Y3000000I-62500J0D01*
G01*
X-1312500Y3000000D01*
G75*
G02*
X-1375000Y3062500I0J62500D01*
G01*
X-1375000Y3812500D01*
G75*
G02*
X-1312500Y3875000I62500J0D01*
G01*
X-1187500Y3875000D01*
G75*
G02*
X-1125000Y3812500I0J-62500D01*
G01*
G37*
G04 #@! TD.AperFunction*
G04 #@! TA.AperFunction,SMDPad,CuDef*
G36*
G01*
X-625000Y3812500D02*
X-625000Y3062500D01*
G75*
G02*
X-687500Y3000000I-62500J0D01*
G01*
X-812500Y3000000D01*
G75*
G02*
X-875000Y3062500I0J62500D01*
G01*
X-875000Y3812500D01*
G75*
G02*
X-812500Y3875000I62500J0D01*
G01*
X-687500Y3875000D01*
G75*
G02*
X-625000Y3812500I0J-62500D01*
G01*
G37*
G04 #@! TD.AperFunction*
G04 #@! TA.AperFunction,SMDPad,CuDef*
G36*
G01*
X-125000Y3812500D02*
X-125000Y3062500D01*
G75*
G02*
X-187500Y3000000I-62500J0D01*
G01*
X-312500Y3000000D01*
G75*
G02*
X-375000Y3062500I0J62500D01*
G01*
X-375000Y3812500D01*
G75*
G02*
X-312500Y3875000I62500J0D01*
G01*
X-187500Y3875000D01*
G75*
G02*
X-125000Y3812500I0J-62500D01*
G01*
G37*
G04 #@! TD.AperFunction*
G04 #@! TA.AperFunction,SMDPad,CuDef*
G36*
G01*
X375000Y3812500D02*
X375000Y3062500D01*
G75*
G02*
X312500Y3000000I-62500J0D01*
G01*
X187500Y3000000D01*
G75*
G02*
X125000Y3062500I0J62500D01*
G01*
X125000Y3812500D01*
G75*
G02*
X187500Y3875000I62500J0D01*
G01*
X312500Y3875000D01*
G75*
G02*
X375000Y3812500I0J-62500D01*
G01*
G37*
G04 #@! TD.AperFunction*
G04 #@! TA.AperFunction,SMDPad,CuDef*
G36*
G01*
X875000Y3812500D02*
X875000Y3062500D01*
G75*
G02*
X812500Y3000000I-62500J0D01*
G01*
X687500Y3000000D01*
G75*
G02*
X625000Y3062500I0J62500D01*
G01*
X625000Y3812500D01*
G75*
G02*
X687500Y3875000I62500J0D01*
G01*
X812500Y3875000D01*
G75*
G02*
X875000Y3812500I0J-62500D01*
G01*
G37*
G04 #@! TD.AperFunction*
G04 #@! TA.AperFunction,SMDPad,CuDef*
G36*
G01*
X1375000Y3812500D02*
X1375000Y3062500D01*
G75*
G02*
X1312500Y3000000I-62500J0D01*
G01*
X1187500Y3000000D01*
G75*
G02*
X1125000Y3062500I0J62500D01*
G01*
X1125000Y3812500D01*
G75*
G02*
X1187500Y3875000I62500J0D01*
G01*
X1312500Y3875000D01*
G75*
G02*
X1375000Y3812500I0J-62500D01*
G01*
G37*
G04 #@! TD.AperFunction*
G04 #@! TA.AperFunction,SMDPad,CuDef*
G36*
G01*
X1875000Y3812500D02*
X1875000Y3062500D01*
G75*
G02*
X1812500Y3000000I-62500J0D01*
G01*
X1687500Y3000000D01*
G75*
G02*
X1625000Y3062500I0J62500D01*
G01*
X1625000Y3812500D01*
G75*
G02*
X1687500Y3875000I62500J0D01*
G01*
X1812500Y3875000D01*
G75*
G02*
X1875000Y3812500I0J-62500D01*
G01*
G37*
G04 #@! TD.AperFunction*
G04 #@! TA.AperFunction,SMDPad,CuDef*
G36*
G01*
X2375000Y3812500D02*
X2375000Y3062500D01*
G75*
G02*
X2312500Y3000000I-62500J0D01*
G01*
X2187500Y3000000D01*
G75*
G02*
X2125000Y3062500I0J62500D01*
G01*
X2125000Y3812500D01*
G75*
G02*
X2187500Y3875000I62500J0D01*
G01*
X2312500Y3875000D01*
G75*
G02*
X2375000Y3812500I0J-62500D01*
G01*
G37*
G04 #@! TD.AperFunction*
G04 #@! TA.AperFunction,SMDPad,CuDef*
G36*
G01*
X2875000Y3812500D02*
X2875000Y3062500D01*
G75*
G02*
X2812500Y3000000I-62500J0D01*
G01*
X2687500Y3000000D01*
G75*
G02*
X2625000Y3062500I0J62500D01*
G01*
X2625000Y3812500D01*
G75*
G02*
X2687500Y3875000I62500J0D01*
G01*
X2812500Y3875000D01*
G75*
G02*
X2875000Y3812500I0J-62500D01*
G01*
G37*
G04 #@! TD.AperFunction*
G04 #@! TA.AperFunction,SMDPad,CuDef*
G36*
G01*
X3875000Y2812500D02*
X3875000Y2687500D01*
G75*
G02*
X3812500Y2625000I-62500J0D01*
G01*
X3062500Y2625000D01*
G75*
G02*
X3000000Y2687500I0J62500D01*
G01*
X3000000Y2812500D01*
G75*
G02*
X3062500Y2875000I62500J0D01*
G01*
X3812500Y2875000D01*
G75*
G02*
X3875000Y2812500I0J-62500D01*
G01*
G37*
G04 #@! TD.AperFunction*
G04 #@! TA.AperFunction,SMDPad,CuDef*
G36*
G01*
X3875000Y2312500D02*
X3875000Y2187500D01*
G75*
G02*
X3812500Y2125000I-62500J0D01*
G01*
X3062500Y2125000D01*
G75*
G02*
X3000000Y2187500I0J62500D01*
G01*
X3000000Y2312500D01*
G75*
G02*
X3062500Y2375000I62500J0D01*
G01*
X3812500Y2375000D01*
G75*
G02*
X3875000Y2312500I0J-62500D01*
G01*
G37*
G04 #@! TD.AperFunction*
G04 #@! TA.AperFunction,SMDPad,CuDef*
G36*
G01*
X3875000Y1812500D02*
X3875000Y1687500D01*
G75*
G02*
X3812500Y1625000I-62500J0D01*
G01*
X3062500Y1625000D01*
G75*
G02*
X3000000Y1687500I0J62500D01*
G01*
X3000000Y1812500D01*
G75*
G02*
X3062500Y1875000I62500J0D01*
G01*
X3812500Y1875000D01*
G75*
G02*
X3875000Y1812500I0J-62500D01*
G01*
G37*
G04 #@! TD.AperFunction*
G04 #@! TA.AperFunction,SMDPad,CuDef*
G36*
G01*
X3875000Y1312500D02*
X3875000Y1187500D01*
G75*
G02*
X3812500Y1125000I-62500J0D01*
G01*
X3062500Y1125000D01*
G75*
G02*
X3000000Y1187500I0J62500D01*
G01*
X3000000Y1312500D01*
G75*
G02*
X3062500Y1375000I62500J0D01*
G01*
X3812500Y1375000D01*
G75*
G02*
X3875000Y1312500I0J-62500D01*
G01*
G37*
G04 #@! TD.AperFunction*
G04 #@! TA.AperFunction,SMDPad,CuDef*
G36*
G01*
X3875000Y812500D02*
X3875000Y687500D01*
G75*
G02*
X3812500Y625000I-62500J0D01*
G01*
X3062500Y625000D01*
G75*
G02*
X3000000Y687500I0J62500D01*
G01*
X3000000Y812500D01*
G75*
G02*
X3062500Y875000I62500J0D01*
G01*
X3812500Y875000D01*
G75*
G02*
X3875000Y812500I0J-62500D01*
G01*
G37*
G04 #@! TD.AperFunction*
G04 #@! TA.AperFunction,SMDPad,CuDef*
G36*
G01*
X3875000Y312500D02*
X3875000Y187500D01*
G75*
G02*
X3812500Y125000I-62500J0D01*
G01*
X3062500Y125000D01*
G75*
G02*
X3000000Y187500I0J62500D01*
G01*
X3000000Y312500D01*
G75*
G02*
X3062500Y375000I62500J0D01*
G01*
X3812500Y375000D01*
G75*
G02*
X3875000Y312500I0J-62500D01*
G01*
G37*
G04 #@! TD.AperFunction*
G04 #@! TA.AperFunction,SMDPad,CuDef*
G36*
G01*
X3875000Y-187500D02*
X3875000Y-312500D01*
G75*
G02*
X3812500Y-375000I-62500J0D01*
G01*
X3062500Y-375000D01*
G75*
G02*
X3000000Y-312500I0J62500D01*
G01*
X3000000Y-187500D01*
G75*
G02*
X3062500Y-125000I62500J0D01*
G01*
X3812500Y-125000D01*
G75*
G02*
X3875000Y-187500I0J-62500D01*
G01*
G37*
G04 #@! TD.AperFunction*
G04 #@! TA.AperFunction,SMDPad,CuDef*
G36*
G01*
X3875000Y-687500D02*
X3875000Y-812500D01*
G75*
G02*
X3812500Y-875000I-62500J0D01*
G01*
X3062500Y-875000D01*
G75*
G02*
X3000000Y-812500I0J62500D01*
G01*
X3000000Y-687500D01*
G75*
G02*
X3062500Y-625000I62500J0D01*
G01*
X3812500Y-625000D01*
G75*
G02*
X3875000Y-687500I0J-62500D01*
G01*
G37*
G04 #@! TD.AperFunction*
G04 #@! TA.AperFunction,SMDPad,CuDef*
G36*
G01*
X3875000Y-1187500D02*
X3875000Y-1312500D01*
G75*
G02*
X3812500Y-1375000I-62500J0D01*
G01*
X3062500Y-1375000D01*
G75*
G02*
X3000000Y-1312500I0J62500D01*
G01*
X3000000Y-1187500D01*
G75*
G02*
X3062500Y-1125000I62500J0D01*
G01*
X3812500Y-1125000D01*
G75*
G02*
X3875000Y-1187500I0J-62500D01*
G01*
G37*
G04 #@! TD.AperFunction*
G04 #@! TA.AperFunction,SMDPad,CuDef*
G36*
G01*
X3875000Y-1687500D02*
X3875000Y-1812500D01*
G75*
G02*
X3812500Y-1875000I-62500J0D01*
G01*
X3062500Y-1875000D01*
G75*
G02*
X3000000Y-1812500I0J62500D01*
G01*
X3000000Y-1687500D01*
G75*
G02*
X3062500Y-1625000I62500J0D01*
G01*
X3812500Y-1625000D01*
G75*
G02*
X3875000Y-1687500I0J-62500D01*
G01*
G37*
G04 #@! TD.AperFunction*
G04 #@! TA.AperFunction,SMDPad,CuDef*
G36*
G01*
X3875000Y-2187500D02*
X3875000Y-2312500D01*
G75*
G02*
X3812500Y-2375000I-62500J0D01*
G01*
X3062500Y-2375000D01*
G75*
G02*
X3000000Y-2312500I0J62500D01*
G01*
X3000000Y-2187500D01*
G75*
G02*
X3062500Y-2125000I62500J0D01*
G01*
X3812500Y-2125000D01*
G75*
G02*
X3875000Y-2187500I0J-62500D01*
G01*
G37*
G04 #@! TD.AperFunction*
G04 #@! TA.AperFunction,SMDPad,CuDef*
G36*
G01*
X3875000Y-2687500D02*
X3875000Y-2812500D01*
G75*
G02*
X3812500Y-2875000I-62500J0D01*
G01*
X3062500Y-2875000D01*
G75*
G02*
X3000000Y-2812500I0J62500D01*
G01*
X3000000Y-2687500D01*
G75*
G02*
X3062500Y-2625000I62500J0D01*
G01*
X3812500Y-2625000D01*
G75*
G02*
X3875000Y-2687500I0J-62500D01*
G01*
G37*
G04 #@! TD.AperFunction*
G04 #@! TA.AperFunction,SMDPad,CuDef*
G36*
G01*
X-6065000Y13240000D02*
X-6435000Y13240000D01*
G75*
G02*
X-6570000Y13375000I0J135000D01*
G01*
X-6570000Y13645000D01*
G75*
G02*
X-6435000Y13780000I135000J0D01*
G01*
X-6065000Y13780000D01*
G75*
G02*
X-5930000Y13645000I0J-135000D01*
G01*
X-5930000Y13375000D01*
G75*
G02*
X-6065000Y13240000I-135000J0D01*
G01*
G37*
G04 #@! TD.AperFunction*
G04 #@! TA.AperFunction,SMDPad,CuDef*
G36*
G01*
X-6065000Y12220000D02*
X-6435000Y12220000D01*
G75*
G02*
X-6570000Y12355000I0J135000D01*
G01*
X-6570000Y12625000D01*
G75*
G02*
X-6435000Y12760000I135000J0D01*
G01*
X-6065000Y12760000D01*
G75*
G02*
X-5930000Y12625000I0J-135000D01*
G01*
X-5930000Y12355000D01*
G75*
G02*
X-6065000Y12220000I-135000J0D01*
G01*
G37*
G04 #@! TD.AperFunction*
G04 #@! TA.AperFunction,SMDPad,CuDef*
G36*
G01*
X5538891Y-16300520D02*
X5800520Y-16038891D01*
G75*
G02*
X5991438Y-16038891I95459J-95459D01*
G01*
X6182357Y-16229810D01*
G75*
G02*
X6182357Y-16420728I-95459J-95459D01*
G01*
X5920728Y-16682357D01*
G75*
G02*
X5729810Y-16682357I-95459J95459D01*
G01*
X5538891Y-16491438D01*
G75*
G02*
X5538891Y-16300520I95459J95459D01*
G01*
G37*
G04 #@! TD.AperFunction*
G04 #@! TA.AperFunction,SMDPad,CuDef*
G36*
G01*
X4817643Y-15579272D02*
X5079272Y-15317643D01*
G75*
G02*
X5270190Y-15317643I95459J-95459D01*
G01*
X5461109Y-15508562D01*
G75*
G02*
X5461109Y-15699480I-95459J-95459D01*
G01*
X5199480Y-15961109D01*
G75*
G02*
X5008562Y-15961109I-95459J95459D01*
G01*
X4817643Y-15770190D01*
G75*
G02*
X4817643Y-15579272I95459J95459D01*
G01*
G37*
G04 #@! TD.AperFunction*
G04 #@! TA.AperFunction,SMDPad,CuDef*
G36*
G01*
X-5800520Y-16038891D02*
X-5538891Y-16300520D01*
G75*
G02*
X-5538891Y-16491438I-95459J-95459D01*
G01*
X-5729810Y-16682357D01*
G75*
G02*
X-5920728Y-16682357I-95459J95459D01*
G01*
X-6182357Y-16420728D01*
G75*
G02*
X-6182357Y-16229810I95459J95459D01*
G01*
X-5991438Y-16038891D01*
G75*
G02*
X-5800520Y-16038891I95459J-95459D01*
G01*
G37*
G04 #@! TD.AperFunction*
G04 #@! TA.AperFunction,SMDPad,CuDef*
G36*
G01*
X-5079272Y-15317643D02*
X-4817643Y-15579272D01*
G75*
G02*
X-4817643Y-15770190I-95459J-95459D01*
G01*
X-5008562Y-15961109D01*
G75*
G02*
X-5199480Y-15961109I-95459J95459D01*
G01*
X-5461109Y-15699480D01*
G75*
G02*
X-5461109Y-15508562I95459J95459D01*
G01*
X-5270190Y-15317643D01*
G75*
G02*
X-5079272Y-15317643I95459J-95459D01*
G01*
G37*
G04 #@! TD.AperFunction*
G04 #@! TA.AperFunction,SMDPad,CuDef*
G36*
G01*
X6435000Y13240000D02*
X6065000Y13240000D01*
G75*
G02*
X5930000Y13375000I0J135000D01*
G01*
X5930000Y13645000D01*
G75*
G02*
X6065000Y13780000I135000J0D01*
G01*
X6435000Y13780000D01*
G75*
G02*
X6570000Y13645000I0J-135000D01*
G01*
X6570000Y13375000D01*
G75*
G02*
X6435000Y13240000I-135000J0D01*
G01*
G37*
G04 #@! TD.AperFunction*
G04 #@! TA.AperFunction,SMDPad,CuDef*
G36*
G01*
X6435000Y12220000D02*
X6065000Y12220000D01*
G75*
G02*
X5930000Y12355000I0J135000D01*
G01*
X5930000Y12625000D01*
G75*
G02*
X6065000Y12760000I135000J0D01*
G01*
X6435000Y12760000D01*
G75*
G02*
X6570000Y12625000I0J-135000D01*
G01*
X6570000Y12355000D01*
G75*
G02*
X6435000Y12220000I-135000J0D01*
G01*
G37*
G04 #@! TD.AperFunction*
G04 #@! TA.AperFunction,SMDPad,CuDef*
G36*
G01*
X-6615000Y5265000D02*
X-6985000Y5265000D01*
G75*
G02*
X-7120000Y5400000I0J135000D01*
G01*
X-7120000Y5670000D01*
G75*
G02*
X-6985000Y5805000I135000J0D01*
G01*
X-6615000Y5805000D01*
G75*
G02*
X-6480000Y5670000I0J-135000D01*
G01*
X-6480000Y5400000D01*
G75*
G02*
X-6615000Y5265000I-135000J0D01*
G01*
G37*
G04 #@! TD.AperFunction*
G04 #@! TA.AperFunction,SMDPad,CuDef*
G36*
G01*
X-6615000Y4245000D02*
X-6985000Y4245000D01*
G75*
G02*
X-7120000Y4380000I0J135000D01*
G01*
X-7120000Y4650000D01*
G75*
G02*
X-6985000Y4785000I135000J0D01*
G01*
X-6615000Y4785000D01*
G75*
G02*
X-6480000Y4650000I0J-135000D01*
G01*
X-6480000Y4380000D01*
G75*
G02*
X-6615000Y4245000I-135000J0D01*
G01*
G37*
G04 #@! TD.AperFunction*
G04 #@! TA.AperFunction,SMDPad,CuDef*
G36*
G01*
X-9985000Y4785000D02*
X-9615000Y4785000D01*
G75*
G02*
X-9480000Y4650000I0J-135000D01*
G01*
X-9480000Y4380000D01*
G75*
G02*
X-9615000Y4245000I-135000J0D01*
G01*
X-9985000Y4245000D01*
G75*
G02*
X-10120000Y4380000I0J135000D01*
G01*
X-10120000Y4650000D01*
G75*
G02*
X-9985000Y4785000I135000J0D01*
G01*
G37*
G04 #@! TD.AperFunction*
G04 #@! TA.AperFunction,SMDPad,CuDef*
G36*
G01*
X-9985000Y5805000D02*
X-9615000Y5805000D01*
G75*
G02*
X-9480000Y5670000I0J-135000D01*
G01*
X-9480000Y5400000D01*
G75*
G02*
X-9615000Y5265000I-135000J0D01*
G01*
X-9985000Y5265000D01*
G75*
G02*
X-10120000Y5400000I0J135000D01*
G01*
X-10120000Y5670000D01*
G75*
G02*
X-9985000Y5805000I135000J0D01*
G01*
G37*
G04 #@! TD.AperFunction*
G04 #@! TA.AperFunction,SMDPad,CuDef*
G36*
G01*
X-13510000Y-1560000D02*
X-13510000Y-1190000D01*
G75*
G02*
X-13375000Y-1055000I135000J0D01*
G01*
X-13105000Y-1055000D01*
G75*
G02*
X-12970000Y-1190000I0J-135000D01*
G01*
X-12970000Y-1560000D01*
G75*
G02*
X-13105000Y-1695000I-135000J0D01*
G01*
X-13375000Y-1695000D01*
G75*
G02*
X-13510000Y-1560000I0J135000D01*
G01*
G37*
G04 #@! TD.AperFunction*
G04 #@! TA.AperFunction,SMDPad,CuDef*
G36*
G01*
X-14530000Y-1560000D02*
X-14530000Y-1190000D01*
G75*
G02*
X-14395000Y-1055000I135000J0D01*
G01*
X-14125000Y-1055000D01*
G75*
G02*
X-13990000Y-1190000I0J-135000D01*
G01*
X-13990000Y-1560000D01*
G75*
G02*
X-14125000Y-1695000I-135000J0D01*
G01*
X-14395000Y-1695000D01*
G75*
G02*
X-14530000Y-1560000I0J135000D01*
G01*
G37*
G04 #@! TD.AperFunction*
G04 #@! TA.AperFunction,SMDPad,CuDef*
G36*
G01*
X-13990000Y-2440000D02*
X-13990000Y-2810000D01*
G75*
G02*
X-14125000Y-2945000I-135000J0D01*
G01*
X-14395000Y-2945000D01*
G75*
G02*
X-14530000Y-2810000I0J135000D01*
G01*
X-14530000Y-2440000D01*
G75*
G02*
X-14395000Y-2305000I135000J0D01*
G01*
X-14125000Y-2305000D01*
G75*
G02*
X-13990000Y-2440000I0J-135000D01*
G01*
G37*
G04 #@! TD.AperFunction*
G04 #@! TA.AperFunction,SMDPad,CuDef*
G36*
G01*
X-12970000Y-2440000D02*
X-12970000Y-2810000D01*
G75*
G02*
X-13105000Y-2945000I-135000J0D01*
G01*
X-13375000Y-2945000D01*
G75*
G02*
X-13510000Y-2810000I0J135000D01*
G01*
X-13510000Y-2440000D01*
G75*
G02*
X-13375000Y-2305000I135000J0D01*
G01*
X-13105000Y-2305000D01*
G75*
G02*
X-12970000Y-2440000I0J-135000D01*
G01*
G37*
G04 #@! TD.AperFunction*
G04 #@! TA.AperFunction,SMDPad,CuDef*
G36*
G01*
X-565000Y6115000D02*
X-935000Y6115000D01*
G75*
G02*
X-1070000Y6250000I0J135000D01*
G01*
X-1070000Y6520000D01*
G75*
G02*
X-935000Y6655000I135000J0D01*
G01*
X-565000Y6655000D01*
G75*
G02*
X-430000Y6520000I0J-135000D01*
G01*
X-430000Y6250000D01*
G75*
G02*
X-565000Y6115000I-135000J0D01*
G01*
G37*
G04 #@! TD.AperFunction*
G04 #@! TA.AperFunction,SMDPad,CuDef*
G36*
G01*
X-565000Y5095000D02*
X-935000Y5095000D01*
G75*
G02*
X-1070000Y5230000I0J135000D01*
G01*
X-1070000Y5500000D01*
G75*
G02*
X-935000Y5635000I135000J0D01*
G01*
X-565000Y5635000D01*
G75*
G02*
X-430000Y5500000I0J-135000D01*
G01*
X-430000Y5230000D01*
G75*
G02*
X-565000Y5095000I-135000J0D01*
G01*
G37*
G04 #@! TD.AperFunction*
G04 #@! TA.AperFunction,SMDPad,CuDef*
G36*
G01*
X4250000Y6556250D02*
X4250000Y6043750D01*
G75*
G02*
X4031250Y5825000I-218750J0D01*
G01*
X3593750Y5825000D01*
G75*
G02*
X3375000Y6043750I0J218750D01*
G01*
X3375000Y6556250D01*
G75*
G02*
X3593750Y6775000I218750J0D01*
G01*
X4031250Y6775000D01*
G75*
G02*
X4250000Y6556250I0J-218750D01*
G01*
G37*
G04 #@! TD.AperFunction*
G04 #@! TA.AperFunction,SMDPad,CuDef*
G36*
G01*
X5825000Y6556250D02*
X5825000Y6043750D01*
G75*
G02*
X5606250Y5825000I-218750J0D01*
G01*
X5168750Y5825000D01*
G75*
G02*
X4950000Y6043750I0J218750D01*
G01*
X4950000Y6556250D01*
G75*
G02*
X5168750Y6775000I218750J0D01*
G01*
X5606250Y6775000D01*
G75*
G02*
X5825000Y6556250I0J-218750D01*
G01*
G37*
G04 #@! TD.AperFunction*
G04 #@! TA.AperFunction,SMDPad,CuDef*
G36*
G01*
X-3205000Y-9675000D02*
X-3545000Y-9675000D01*
G75*
G02*
X-3685000Y-9535000I0J140000D01*
G01*
X-3685000Y-9255000D01*
G75*
G02*
X-3545000Y-9115000I140000J0D01*
G01*
X-3205000Y-9115000D01*
G75*
G02*
X-3065000Y-9255000I0J-140000D01*
G01*
X-3065000Y-9535000D01*
G75*
G02*
X-3205000Y-9675000I-140000J0D01*
G01*
G37*
G04 #@! TD.AperFunction*
G04 #@! TA.AperFunction,SMDPad,CuDef*
G36*
G01*
X-3205000Y-10635000D02*
X-3545000Y-10635000D01*
G75*
G02*
X-3685000Y-10495000I0J140000D01*
G01*
X-3685000Y-10215000D01*
G75*
G02*
X-3545000Y-10075000I140000J0D01*
G01*
X-3205000Y-10075000D01*
G75*
G02*
X-3065000Y-10215000I0J-140000D01*
G01*
X-3065000Y-10495000D01*
G75*
G02*
X-3205000Y-10635000I-140000J0D01*
G01*
G37*
G04 #@! TD.AperFunction*
G04 #@! TA.AperFunction,SMDPad,CuDef*
G36*
G01*
X-13550000Y830000D02*
X-13550000Y1170000D01*
G75*
G02*
X-13410000Y1310000I140000J0D01*
G01*
X-13130000Y1310000D01*
G75*
G02*
X-12990000Y1170000I0J-140000D01*
G01*
X-12990000Y830000D01*
G75*
G02*
X-13130000Y690000I-140000J0D01*
G01*
X-13410000Y690000D01*
G75*
G02*
X-13550000Y830000I0J140000D01*
G01*
G37*
G04 #@! TD.AperFunction*
G04 #@! TA.AperFunction,SMDPad,CuDef*
G36*
G01*
X-14510000Y830000D02*
X-14510000Y1170000D01*
G75*
G02*
X-14370000Y1310000I140000J0D01*
G01*
X-14090000Y1310000D01*
G75*
G02*
X-13950000Y1170000I0J-140000D01*
G01*
X-13950000Y830000D01*
G75*
G02*
X-14090000Y690000I-140000J0D01*
G01*
X-14370000Y690000D01*
G75*
G02*
X-14510000Y830000I0J140000D01*
G01*
G37*
G04 #@! TD.AperFunction*
G04 #@! TA.AperFunction,SMDPad,CuDef*
G36*
G01*
X-6330000Y7900000D02*
X-6670000Y7900000D01*
G75*
G02*
X-6810000Y8040000I0J140000D01*
G01*
X-6810000Y8320000D01*
G75*
G02*
X-6670000Y8460000I140000J0D01*
G01*
X-6330000Y8460000D01*
G75*
G02*
X-6190000Y8320000I0J-140000D01*
G01*
X-6190000Y8040000D01*
G75*
G02*
X-6330000Y7900000I-140000J0D01*
G01*
G37*
G04 #@! TD.AperFunction*
G04 #@! TA.AperFunction,SMDPad,CuDef*
G36*
G01*
X-6330000Y6940000D02*
X-6670000Y6940000D01*
G75*
G02*
X-6810000Y7080000I0J140000D01*
G01*
X-6810000Y7360000D01*
G75*
G02*
X-6670000Y7500000I140000J0D01*
G01*
X-6330000Y7500000D01*
G75*
G02*
X-6190000Y7360000I0J-140000D01*
G01*
X-6190000Y7080000D01*
G75*
G02*
X-6330000Y6940000I-140000J0D01*
G01*
G37*
G04 #@! TD.AperFunction*
G04 #@! TA.AperFunction,SMDPad,CuDef*
G36*
G01*
X-9830000Y7900000D02*
X-10170000Y7900000D01*
G75*
G02*
X-10310000Y8040000I0J140000D01*
G01*
X-10310000Y8320000D01*
G75*
G02*
X-10170000Y8460000I140000J0D01*
G01*
X-9830000Y8460000D01*
G75*
G02*
X-9690000Y8320000I0J-140000D01*
G01*
X-9690000Y8040000D01*
G75*
G02*
X-9830000Y7900000I-140000J0D01*
G01*
G37*
G04 #@! TD.AperFunction*
G04 #@! TA.AperFunction,SMDPad,CuDef*
G36*
G01*
X-9830000Y6940000D02*
X-10170000Y6940000D01*
G75*
G02*
X-10310000Y7080000I0J140000D01*
G01*
X-10310000Y7360000D01*
G75*
G02*
X-10170000Y7500000I140000J0D01*
G01*
X-9830000Y7500000D01*
G75*
G02*
X-9690000Y7360000I0J-140000D01*
G01*
X-9690000Y7080000D01*
G75*
G02*
X-9830000Y6940000I-140000J0D01*
G01*
G37*
G04 #@! TD.AperFunction*
G04 #@! TA.AperFunction,SMDPad,CuDef*
G36*
G01*
X-10800000Y2330000D02*
X-10800000Y2670000D01*
G75*
G02*
X-10660000Y2810000I140000J0D01*
G01*
X-10380000Y2810000D01*
G75*
G02*
X-10240000Y2670000I0J-140000D01*
G01*
X-10240000Y2330000D01*
G75*
G02*
X-10380000Y2190000I-140000J0D01*
G01*
X-10660000Y2190000D01*
G75*
G02*
X-10800000Y2330000I0J140000D01*
G01*
G37*
G04 #@! TD.AperFunction*
G04 #@! TA.AperFunction,SMDPad,CuDef*
G36*
G01*
X-11760000Y2330000D02*
X-11760000Y2670000D01*
G75*
G02*
X-11620000Y2810000I140000J0D01*
G01*
X-11340000Y2810000D01*
G75*
G02*
X-11200000Y2670000I0J-140000D01*
G01*
X-11200000Y2330000D01*
G75*
G02*
X-11340000Y2190000I-140000J0D01*
G01*
X-11620000Y2190000D01*
G75*
G02*
X-11760000Y2330000I0J140000D01*
G01*
G37*
G04 #@! TD.AperFunction*
G04 #@! TA.AperFunction,SMDPad,CuDef*
G36*
G01*
X-13550000Y-5045000D02*
X-13550000Y-4705000D01*
G75*
G02*
X-13410000Y-4565000I140000J0D01*
G01*
X-13130000Y-4565000D01*
G75*
G02*
X-12990000Y-4705000I0J-140000D01*
G01*
X-12990000Y-5045000D01*
G75*
G02*
X-13130000Y-5185000I-140000J0D01*
G01*
X-13410000Y-5185000D01*
G75*
G02*
X-13550000Y-5045000I0J140000D01*
G01*
G37*
G04 #@! TD.AperFunction*
G04 #@! TA.AperFunction,SMDPad,CuDef*
G36*
G01*
X-14510000Y-5045000D02*
X-14510000Y-4705000D01*
G75*
G02*
X-14370000Y-4565000I140000J0D01*
G01*
X-14090000Y-4565000D01*
G75*
G02*
X-13950000Y-4705000I0J-140000D01*
G01*
X-13950000Y-5045000D01*
G75*
G02*
X-14090000Y-5185000I-140000J0D01*
G01*
X-14370000Y-5185000D01*
G75*
G02*
X-14510000Y-5045000I0J140000D01*
G01*
G37*
G04 #@! TD.AperFunction*
G04 #@! TA.AperFunction,SMDPad,CuDef*
G36*
G01*
X5325000Y3460000D02*
X5325000Y3800000D01*
G75*
G02*
X5465000Y3940000I140000J0D01*
G01*
X5745000Y3940000D01*
G75*
G02*
X5885000Y3800000I0J-140000D01*
G01*
X5885000Y3460000D01*
G75*
G02*
X5745000Y3320000I-140000J0D01*
G01*
X5465000Y3320000D01*
G75*
G02*
X5325000Y3460000I0J140000D01*
G01*
G37*
G04 #@! TD.AperFunction*
G04 #@! TA.AperFunction,SMDPad,CuDef*
G36*
G01*
X4365000Y3460000D02*
X4365000Y3800000D01*
G75*
G02*
X4505000Y3940000I140000J0D01*
G01*
X4785000Y3940000D01*
G75*
G02*
X4925000Y3800000I0J-140000D01*
G01*
X4925000Y3460000D01*
G75*
G02*
X4785000Y3320000I-140000J0D01*
G01*
X4505000Y3320000D01*
G75*
G02*
X4365000Y3460000I0J140000D01*
G01*
G37*
G04 #@! TD.AperFunction*
G04 #@! TA.AperFunction,SMDPad,CuDef*
G36*
G01*
X12200200Y-3102000D02*
X11860200Y-3102000D01*
G75*
G02*
X11720200Y-2962000I0J140000D01*
G01*
X11720200Y-2682000D01*
G75*
G02*
X11860200Y-2542000I140000J0D01*
G01*
X12200200Y-2542000D01*
G75*
G02*
X12340200Y-2682000I0J-140000D01*
G01*
X12340200Y-2962000D01*
G75*
G02*
X12200200Y-3102000I-140000J0D01*
G01*
G37*
G04 #@! TD.AperFunction*
G04 #@! TA.AperFunction,SMDPad,CuDef*
G36*
G01*
X12200200Y-4062000D02*
X11860200Y-4062000D01*
G75*
G02*
X11720200Y-3922000I0J140000D01*
G01*
X11720200Y-3642000D01*
G75*
G02*
X11860200Y-3502000I140000J0D01*
G01*
X12200200Y-3502000D01*
G75*
G02*
X12340200Y-3642000I0J-140000D01*
G01*
X12340200Y-3922000D01*
G75*
G02*
X12200200Y-4062000I-140000J0D01*
G01*
G37*
G04 #@! TD.AperFunction*
G04 #@! TA.AperFunction,SMDPad,CuDef*
G36*
G01*
X8491800Y-3102000D02*
X8151800Y-3102000D01*
G75*
G02*
X8011800Y-2962000I0J140000D01*
G01*
X8011800Y-2682000D01*
G75*
G02*
X8151800Y-2542000I140000J0D01*
G01*
X8491800Y-2542000D01*
G75*
G02*
X8631800Y-2682000I0J-140000D01*
G01*
X8631800Y-2962000D01*
G75*
G02*
X8491800Y-3102000I-140000J0D01*
G01*
G37*
G04 #@! TD.AperFunction*
G04 #@! TA.AperFunction,SMDPad,CuDef*
G36*
G01*
X8491800Y-4062000D02*
X8151800Y-4062000D01*
G75*
G02*
X8011800Y-3922000I0J140000D01*
G01*
X8011800Y-3642000D01*
G75*
G02*
X8151800Y-3502000I140000J0D01*
G01*
X8491800Y-3502000D01*
G75*
G02*
X8631800Y-3642000I0J-140000D01*
G01*
X8631800Y-3922000D01*
G75*
G02*
X8491800Y-4062000I-140000J0D01*
G01*
G37*
G04 #@! TD.AperFunction*
G04 #@! TA.AperFunction,SMDPad,CuDef*
G36*
G01*
X12266600Y2050000D02*
X12606600Y2050000D01*
G75*
G02*
X12746600Y1910000I0J-140000D01*
G01*
X12746600Y1630000D01*
G75*
G02*
X12606600Y1490000I-140000J0D01*
G01*
X12266600Y1490000D01*
G75*
G02*
X12126600Y1630000I0J140000D01*
G01*
X12126600Y1910000D01*
G75*
G02*
X12266600Y2050000I140000J0D01*
G01*
G37*
G04 #@! TD.AperFunction*
G04 #@! TA.AperFunction,SMDPad,CuDef*
G36*
G01*
X12266600Y3010000D02*
X12606600Y3010000D01*
G75*
G02*
X12746600Y2870000I0J-140000D01*
G01*
X12746600Y2590000D01*
G75*
G02*
X12606600Y2450000I-140000J0D01*
G01*
X12266600Y2450000D01*
G75*
G02*
X12126600Y2590000I0J140000D01*
G01*
X12126600Y2870000D01*
G75*
G02*
X12266600Y3010000I140000J0D01*
G01*
G37*
G04 #@! TD.AperFunction*
G04 #@! TA.AperFunction,SMDPad,CuDef*
G36*
G01*
X8085400Y1450000D02*
X7745400Y1450000D01*
G75*
G02*
X7605400Y1590000I0J140000D01*
G01*
X7605400Y1870000D01*
G75*
G02*
X7745400Y2010000I140000J0D01*
G01*
X8085400Y2010000D01*
G75*
G02*
X8225400Y1870000I0J-140000D01*
G01*
X8225400Y1590000D01*
G75*
G02*
X8085400Y1450000I-140000J0D01*
G01*
G37*
G04 #@! TD.AperFunction*
G04 #@! TA.AperFunction,SMDPad,CuDef*
G36*
G01*
X8085400Y490000D02*
X7745400Y490000D01*
G75*
G02*
X7605400Y630000I0J140000D01*
G01*
X7605400Y910000D01*
G75*
G02*
X7745400Y1050000I140000J0D01*
G01*
X8085400Y1050000D01*
G75*
G02*
X8225400Y910000I0J-140000D01*
G01*
X8225400Y630000D01*
G75*
G02*
X8085400Y490000I-140000J0D01*
G01*
G37*
G04 #@! TD.AperFunction*
G04 #@! TA.AperFunction,SMDPad,CuDef*
G36*
G01*
X-2300000Y5210000D02*
X-2300000Y5550000D01*
G75*
G02*
X-2160000Y5690000I140000J0D01*
G01*
X-1880000Y5690000D01*
G75*
G02*
X-1740000Y5550000I0J-140000D01*
G01*
X-1740000Y5210000D01*
G75*
G02*
X-1880000Y5070000I-140000J0D01*
G01*
X-2160000Y5070000D01*
G75*
G02*
X-2300000Y5210000I0J140000D01*
G01*
G37*
G04 #@! TD.AperFunction*
G04 #@! TA.AperFunction,SMDPad,CuDef*
G36*
G01*
X-3260000Y5210000D02*
X-3260000Y5550000D01*
G75*
G02*
X-3120000Y5690000I140000J0D01*
G01*
X-2840000Y5690000D01*
G75*
G02*
X-2700000Y5550000I0J-140000D01*
G01*
X-2700000Y5210000D01*
G75*
G02*
X-2840000Y5070000I-140000J0D01*
G01*
X-3120000Y5070000D01*
G75*
G02*
X-3260000Y5210000I0J140000D01*
G01*
G37*
G04 #@! TD.AperFunction*
G04 #@! TA.AperFunction,SMDPad,CuDef*
G36*
G01*
X2300000Y-4580000D02*
X2300000Y-4920000D01*
G75*
G02*
X2160000Y-5060000I-140000J0D01*
G01*
X1880000Y-5060000D01*
G75*
G02*
X1740000Y-4920000I0J140000D01*
G01*
X1740000Y-4580000D01*
G75*
G02*
X1880000Y-4440000I140000J0D01*
G01*
X2160000Y-4440000D01*
G75*
G02*
X2300000Y-4580000I0J-140000D01*
G01*
G37*
G04 #@! TD.AperFunction*
G04 #@! TA.AperFunction,SMDPad,CuDef*
G36*
G01*
X3260000Y-4580000D02*
X3260000Y-4920000D01*
G75*
G02*
X3120000Y-5060000I-140000J0D01*
G01*
X2840000Y-5060000D01*
G75*
G02*
X2700000Y-4920000I0J140000D01*
G01*
X2700000Y-4580000D01*
G75*
G02*
X2840000Y-4440000I140000J0D01*
G01*
X3120000Y-4440000D01*
G75*
G02*
X3260000Y-4580000I0J-140000D01*
G01*
G37*
G04 #@! TD.AperFunction*
G04 #@! TA.AperFunction,SMDPad,CuDef*
G36*
G01*
X-4656000Y-2975000D02*
X-4996000Y-2975000D01*
G75*
G02*
X-5136000Y-2835000I0J140000D01*
G01*
X-5136000Y-2555000D01*
G75*
G02*
X-4996000Y-2415000I140000J0D01*
G01*
X-4656000Y-2415000D01*
G75*
G02*
X-4516000Y-2555000I0J-140000D01*
G01*
X-4516000Y-2835000D01*
G75*
G02*
X-4656000Y-2975000I-140000J0D01*
G01*
G37*
G04 #@! TD.AperFunction*
G04 #@! TA.AperFunction,SMDPad,CuDef*
G36*
G01*
X-4656000Y-3935000D02*
X-4996000Y-3935000D01*
G75*
G02*
X-5136000Y-3795000I0J140000D01*
G01*
X-5136000Y-3515000D01*
G75*
G02*
X-4996000Y-3375000I140000J0D01*
G01*
X-4656000Y-3375000D01*
G75*
G02*
X-4516000Y-3515000I0J-140000D01*
G01*
X-4516000Y-3795000D01*
G75*
G02*
X-4656000Y-3935000I-140000J0D01*
G01*
G37*
G04 #@! TD.AperFunction*
G04 #@! TA.AperFunction,SMDPad,CuDef*
G36*
G01*
X-2750000Y6450000D02*
X-2750000Y6950000D01*
G75*
G02*
X-2525000Y7175000I225000J0D01*
G01*
X-2075000Y7175000D01*
G75*
G02*
X-1850000Y6950000I0J-225000D01*
G01*
X-1850000Y6450000D01*
G75*
G02*
X-2075000Y6225000I-225000J0D01*
G01*
X-2525000Y6225000D01*
G75*
G02*
X-2750000Y6450000I0J225000D01*
G01*
G37*
G04 #@! TD.AperFunction*
G04 #@! TA.AperFunction,SMDPad,CuDef*
G36*
G01*
X-4300000Y6450000D02*
X-4300000Y6950000D01*
G75*
G02*
X-4075000Y7175000I225000J0D01*
G01*
X-3625000Y7175000D01*
G75*
G02*
X-3400000Y6950000I0J-225000D01*
G01*
X-3400000Y6450000D01*
G75*
G02*
X-3625000Y6225000I-225000J0D01*
G01*
X-4075000Y6225000D01*
G75*
G02*
X-4300000Y6450000I0J225000D01*
G01*
G37*
G04 #@! TD.AperFunction*
G04 #@! TA.AperFunction,SMDPad,CuDef*
G36*
G01*
X3740000Y-4920000D02*
X3740000Y-4580000D01*
G75*
G02*
X3880000Y-4440000I140000J0D01*
G01*
X4160000Y-4440000D01*
G75*
G02*
X4300000Y-4580000I0J-140000D01*
G01*
X4300000Y-4920000D01*
G75*
G02*
X4160000Y-5060000I-140000J0D01*
G01*
X3880000Y-5060000D01*
G75*
G02*
X3740000Y-4920000I0J140000D01*
G01*
G37*
G04 #@! TD.AperFunction*
G04 #@! TA.AperFunction,SMDPad,CuDef*
G36*
G01*
X4700000Y-4920000D02*
X4700000Y-4580000D01*
G75*
G02*
X4840000Y-4440000I140000J0D01*
G01*
X5120000Y-4440000D01*
G75*
G02*
X5260000Y-4580000I0J-140000D01*
G01*
X5260000Y-4920000D01*
G75*
G02*
X5120000Y-5060000I-140000J0D01*
G01*
X4840000Y-5060000D01*
G75*
G02*
X4700000Y-4920000I0J140000D01*
G01*
G37*
G04 #@! TD.AperFunction*
D22*
X-1500000Y-1500000D03*
X1500000Y-1500000D03*
X-1500000Y1500000D03*
X1500000Y1500000D03*
X0Y0D03*
D23*
X5125000Y375000D03*
X7125000Y375000D03*
X7125000Y1500000D03*
X7125000Y2500000D03*
X8125000Y3500000D03*
X9125000Y3500000D03*
X7125000Y3500000D03*
X10125000Y3500000D03*
X6125000Y375000D03*
X11125000Y3500000D03*
X12125000Y3500000D03*
X13250000Y3500000D03*
X13250000Y2500000D03*
X13125000Y375000D03*
X13250000Y1500000D03*
X12375000Y-375000D03*
X7250000Y-4625000D03*
X8600000Y-4625000D03*
X9700000Y-4625000D03*
X10800000Y-4625000D03*
X13250000Y-4625000D03*
X11900000Y-4625000D03*
X13375000Y-3500000D03*
X13625000Y-2375000D03*
X12250000Y-1875000D03*
D22*
X11000000Y0D03*
D23*
X12875000Y-2875000D03*
X7500000Y-2750000D03*
X7250000Y-3875000D03*
X4875000Y-2750000D03*
X6750000Y-3125000D03*
X5875000Y-2750000D03*
D22*
X8000000Y2625000D03*
X12375000Y875000D03*
D23*
X5625000Y4625000D03*
X-750000Y7250000D03*
D22*
X-2250000Y8125000D03*
D23*
X4375000Y8750000D03*
X6250000Y11375000D03*
X-6250000Y11375000D03*
X-5375000Y8250000D03*
X-9500000Y2500000D03*
X-13875000Y1875000D03*
X-15125000Y-2250000D03*
X-15125000Y-4875000D03*
X-9750000Y9000000D03*
X-5625000Y5500000D03*
X-4500000Y-15000000D03*
X4500000Y-15000000D03*
X-5650000Y-12250000D03*
X10270000Y-7680000D03*
X-10110000Y-7510000D03*
X5630000Y-12220000D03*
X2000000Y-5750000D03*
X5000000Y-5750000D03*
X-1875000Y-11250000D03*
X-625000Y-11250000D03*
X625000Y-11250000D03*
X1875000Y-11250000D03*
X-1125000Y-10375000D03*
X-625000Y-9625000D03*
X-8070000Y-1670000D03*
X-5625000Y-2625000D03*
X3250000Y10250000D03*
X-3901567Y10251567D03*
X11250000Y-1875000D03*
X10375000Y-1875000D03*
X10250000Y-875000D03*
X11250000Y-875000D03*
D22*
X-2581950Y-16324050D03*
D23*
X-4900000Y6700000D03*
D22*
X2500000Y4750000D03*
D23*
X2500000Y7250000D03*
X-13875000Y-375000D03*
X-6500000Y6375000D03*
X3000000Y-5750000D03*
X4000000Y-5750000D03*
X-3375000Y-8375000D03*
X-3375000Y-7375000D03*
X-4750000Y-4502000D03*
X-7750000Y-4502000D03*
D22*
X2696950Y-16324050D03*
D23*
X-10875000Y-3875000D03*
X1125000Y-4875000D03*
X-11502001Y5622999D03*
X-7060000Y-6490000D03*
D24*
X5750000Y1625000D03*
D23*
X-10875001Y-750000D03*
X-2750000Y-4875000D03*
X-5500000Y-1750000D03*
X-6300000Y-4600000D03*
X-1375000Y-5625000D03*
X3125000Y-6625000D03*
X8750000Y-8875000D03*
X6875000Y-11000000D03*
X-5625000Y0D03*
X-750000Y10000000D03*
X750000Y10000000D03*
X-4875000Y0D03*
D25*
X11051000Y51000D02*
X11000000Y0D01*
X11051000Y915200D02*
X11051000Y51000D01*
D26*
X5625000Y2396118D02*
X5625000Y2625000D01*
D27*
X5125000Y375000D02*
X7125000Y375000D01*
X7125000Y3500000D02*
X7125000Y375000D01*
X7125000Y3500000D02*
X13250000Y3500000D01*
X13250000Y500000D02*
X13125000Y375000D01*
X13250000Y3500000D02*
X13250000Y500000D01*
X13125000Y375000D02*
X12375000Y-375000D01*
X11875000Y-875000D02*
X12375000Y-375000D01*
D25*
X12822000Y-2822000D02*
X12875000Y-2875000D01*
X12030200Y-2822000D02*
X12822000Y-2822000D01*
X7572000Y-2822000D02*
X7500000Y-2750000D01*
X8321800Y-2822000D02*
X7572000Y-2822000D01*
D27*
X7250000Y-3625000D02*
X6750000Y-3125000D01*
X7250000Y-3875000D02*
X7250000Y-3625000D01*
X7250000Y-4625000D02*
X7250000Y-3875000D01*
X7250000Y-4625000D02*
X13250000Y-4625000D01*
X13250000Y-3625000D02*
X13375000Y-3500000D01*
X13250000Y-4625000D02*
X13250000Y-3625000D01*
X13125000Y-1875000D02*
X13625000Y-2375000D01*
X13625000Y-3250000D02*
X13375000Y-3500000D01*
X13625000Y-2375000D02*
X13625000Y-3250000D01*
X4875000Y-2750000D02*
X5875000Y-2750000D01*
X6375000Y-2750000D02*
X6750000Y-3125000D01*
X5875000Y-2750000D02*
X6375000Y-2750000D01*
D25*
X12334800Y915200D02*
X12375000Y875000D01*
X11051000Y915200D02*
X12334800Y915200D01*
D27*
X7915400Y2540400D02*
X8000000Y2625000D01*
X12436600Y936600D02*
X12375000Y875000D01*
X12436600Y1770000D02*
X12436600Y936600D01*
D26*
X-2250000Y3437500D02*
X-2250000Y5125000D01*
X-2250000Y5125000D02*
X-2000000Y5375000D01*
D27*
X-2020000Y5380000D02*
X-2020000Y6395000D01*
X-2020000Y6395000D02*
X-2250000Y6625000D01*
D25*
X5605000Y2630000D02*
X5605000Y3605000D01*
X5605000Y4605000D02*
X5625000Y4625000D01*
X5605000Y3630000D02*
X5605000Y4605000D01*
D27*
X-750000Y6385000D02*
X-750000Y7250000D01*
D25*
X-2300000Y8075000D02*
X-2250000Y8125000D01*
X-2300000Y6700000D02*
X-2300000Y8075000D01*
D27*
X4390000Y8735000D02*
X4375000Y8750000D01*
X4390000Y7600000D02*
X4390000Y8735000D01*
D25*
X6250000Y12490000D02*
X6250000Y11375000D01*
X-6250000Y12490000D02*
X-6250000Y11375000D01*
X-5445000Y8180000D02*
X-5375000Y8250000D01*
X-6500000Y8180000D02*
X-5445000Y8180000D01*
D27*
X-10520000Y2500000D02*
X-9500000Y2500000D01*
X-14230000Y1520000D02*
X-13875000Y1875000D01*
X-14230000Y1000000D02*
X-14230000Y1520000D01*
X-14750000Y-2625000D02*
X-15125000Y-2250000D01*
X-14260000Y-2625000D02*
X-14750000Y-2625000D01*
X-14230000Y-4875000D02*
X-15125000Y-4875000D01*
X-6500000Y8180000D02*
X-7667990Y8180000D01*
X-7667990Y8180000D02*
X-7722990Y8125000D01*
X-10000000Y8750000D02*
X-9750000Y9000000D01*
X-10000000Y8180000D02*
X-10000000Y8750000D01*
X-7725000Y5425000D02*
X-6825000Y5425000D01*
X-6825000Y5425000D02*
X-6750000Y5500000D01*
X-5660000Y5535000D02*
X-5625000Y5500000D01*
X-6800000Y5535000D02*
X-5660000Y5535000D01*
X-5139376Y-15639376D02*
X-4500000Y-15000000D01*
X5139376Y-15639376D02*
X4500000Y-15000000D01*
D25*
X-6837850Y-13437850D02*
X-5650000Y-12250000D01*
X-6841656Y-13437850D02*
X-6837850Y-13437850D01*
X11431656Y-8841656D02*
X10270000Y-7680000D01*
X11437850Y-8841656D02*
X11431656Y-8841656D01*
X-11437850Y-8837850D02*
X-10110000Y-7510000D01*
X-11437850Y-8841656D02*
X-11437850Y-8837850D01*
X6841656Y-13431656D02*
X5630000Y-12220000D01*
X6841656Y-13437850D02*
X6841656Y-13431656D01*
D26*
X2250000Y-3437500D02*
X2250000Y-4500000D01*
X2250000Y-4500000D02*
X2000000Y-4750000D01*
D27*
X2020000Y-5730000D02*
X2000000Y-5750000D01*
X2020000Y-4750000D02*
X2020000Y-5730000D01*
X4980000Y-5730000D02*
X5000000Y-5750000D01*
X4980000Y-4750000D02*
X4980000Y-5730000D01*
X-1905000Y-11280000D02*
X-1875000Y-11250000D01*
X-1905000Y-12762000D02*
X-1905000Y-11280000D01*
X-635000Y-11260000D02*
X-625000Y-11250000D01*
X-635000Y-12762000D02*
X-635000Y-11260000D01*
X635000Y-11260000D02*
X625000Y-11250000D01*
X635000Y-12762000D02*
X635000Y-11260000D01*
X1905000Y-11280000D02*
X1875000Y-11250000D01*
X1905000Y-12762000D02*
X1905000Y-11280000D01*
X-635000Y-8750000D02*
X-2260000Y-10375000D01*
X-635000Y-7775000D02*
X-635000Y-8750000D01*
X-2260000Y-10375000D02*
X-3375000Y-10375000D01*
X-2260000Y-10375000D02*
X-1125000Y-10375000D01*
X-635000Y-9615000D02*
X-625000Y-9625000D01*
X-635000Y-7775000D02*
X-635000Y-9615000D01*
D26*
X-3437500Y-2250000D02*
X-4375000Y-2250000D01*
X-4375000Y-2250000D02*
X-4875000Y-2750000D01*
D25*
X-8550000Y-1190000D02*
X-8070000Y-1670000D01*
X-8550000Y-250000D02*
X-8550000Y-1190000D01*
D27*
X-5555000Y-2695000D02*
X-5625000Y-2625000D01*
X-4826000Y-2695000D02*
X-5555000Y-2695000D01*
D26*
X3978883Y750000D02*
X5625000Y2396117D01*
X3437500Y750000D02*
X3978883Y750000D01*
X2250000Y-3437500D02*
X2250000Y-3250000D01*
D25*
X9301000Y2315200D02*
X8515200Y2315200D01*
X8515200Y2315200D02*
X7925000Y1725000D01*
X8000000Y2625000D02*
X8975000Y2625000D01*
X8975000Y2625000D02*
X9300000Y2300000D01*
X3250000Y11955000D02*
X3250000Y10250000D01*
X-3250000Y10903134D02*
X-3901567Y10251567D01*
X-3250000Y11955000D02*
X-3250000Y10903134D01*
D26*
X3437500Y750000D02*
X2350000Y750000D01*
D27*
X10375000Y-1875000D02*
X13125000Y-1875000D01*
X10250000Y-875000D02*
X11875000Y-875000D01*
X-3850000Y6700000D02*
X-4900000Y6700000D01*
D26*
X-2750000Y3437500D02*
X-2750000Y5125000D01*
X-2750000Y5125000D02*
X-3000000Y5375000D01*
D27*
X-2980000Y5380000D02*
X-2980000Y5855000D01*
X-2980000Y5855000D02*
X-3875000Y6750000D01*
D25*
X3640000Y4750000D02*
X2500000Y4750000D01*
D27*
X3450000Y6300000D02*
X2500000Y7250000D01*
X3812500Y6300000D02*
X3450000Y6300000D01*
X-14260000Y-760000D02*
X-13875000Y-375000D01*
X-14260000Y-1375000D02*
X-14260000Y-760000D01*
D25*
X-6500000Y7220000D02*
X-6500000Y6375000D01*
D27*
X-7865603Y7277001D02*
X-6527001Y7277001D01*
X-8250000Y7661398D02*
X-7865603Y7277001D01*
X-8250000Y8125000D02*
X-8250000Y7661398D01*
D26*
X2750000Y-3437500D02*
X2750000Y-4500000D01*
X2750000Y-4500000D02*
X3000000Y-4750000D01*
D27*
X3437500Y-2750000D02*
X3437500Y-4187500D01*
X3437500Y-4187500D02*
X4000000Y-4750000D01*
X2980000Y-5730000D02*
X3000000Y-5750000D01*
X2980000Y-4750000D02*
X2980000Y-5730000D01*
X4020000Y-5730000D02*
X4000000Y-5750000D01*
X4020000Y-4750000D02*
X4020000Y-5730000D01*
X-1905000Y-7812000D02*
X-1905000Y-9155000D01*
X-1905000Y-9155000D02*
X-2125000Y-9375000D01*
X-2125000Y-9375000D02*
X-3375000Y-9375000D01*
X-3375000Y-9395000D02*
X-3375000Y-8375000D01*
X-2975000Y-7775000D02*
X-3375000Y-7375000D01*
X-1905000Y-7775000D02*
X-2975000Y-7775000D01*
X-3437500Y-2750000D02*
X-4312500Y-3625000D01*
X-4312500Y-3625000D02*
X-4750000Y-3625000D01*
X-4750000Y-3625000D02*
X-4750000Y-4502000D01*
D25*
X-8502000Y-3750000D02*
X-7750000Y-4502000D01*
X-8550000Y-3750000D02*
X-8502000Y-3750000D01*
D26*
X3437500Y-250000D02*
X8125000Y-250000D01*
X8125000Y-250000D02*
X9250000Y875000D01*
X9250000Y875000D02*
X9000000Y1125000D01*
D25*
X7915400Y770000D02*
X9170000Y770000D01*
X9170000Y770000D02*
X9300000Y900000D01*
D26*
X10198999Y239597D02*
X10198999Y1573999D01*
X9209402Y-750000D02*
X10198999Y239597D01*
X3437500Y-750000D02*
X9209402Y-750000D01*
X10198999Y1573999D02*
X11000000Y2375000D01*
X11000000Y2375000D02*
X11250000Y2125000D01*
D27*
X11051000Y2315200D02*
X11360800Y2625000D01*
X11360800Y2625000D02*
X12500000Y2625000D01*
D26*
X3437500Y-1750000D02*
X4000000Y-1750000D01*
X4000000Y-1750000D02*
X4375000Y-2125000D01*
X4375000Y-2125000D02*
X8750000Y-2125000D01*
X8750000Y-2125000D02*
X9500000Y-2875000D01*
X9500000Y-2875000D02*
X9500000Y-3250000D01*
X8321800Y-3782000D02*
X8968000Y-3782000D01*
X8968000Y-3782000D02*
X9500000Y-3250000D01*
X4103883Y-1250000D02*
X4427010Y-1573127D01*
X3437500Y-1250000D02*
X4103883Y-1250000D01*
X4551873Y-1697990D02*
X8926873Y-1697990D01*
X4427010Y-1573127D02*
X4551873Y-1697990D01*
X9220592Y-1697990D02*
X10772602Y-3250000D01*
X8926873Y-1697990D02*
X9220592Y-1697990D01*
X12030200Y-3782000D02*
X11407000Y-3782000D01*
X11407000Y-3782000D02*
X10875000Y-3250000D01*
X3875000Y1250000D02*
X4625000Y2000000D01*
X3437500Y1250000D02*
X3875000Y1250000D01*
X4625000Y2000000D02*
X4625000Y2750000D01*
D25*
X4645000Y2630000D02*
X4645000Y3605000D01*
X4645000Y3630000D02*
X4645000Y4730000D01*
D27*
X-13240000Y-2625000D02*
X-13125000Y-2625000D01*
X-13125000Y-2625000D02*
X-12000000Y-3750000D01*
X-12000000Y-3750000D02*
X-13125000Y-4875000D01*
X-13125000Y-4875000D02*
X-13375000Y-4875000D01*
X-10875000Y-3875000D02*
X-11875000Y-3875000D01*
D26*
X750000Y-4500000D02*
X1125000Y-4875000D01*
X750000Y-3437500D02*
X750000Y-4500000D01*
D25*
X-10000000Y5750000D02*
X-9875000Y5625000D01*
X-9800000Y5535000D02*
X-10292010Y5535000D01*
X-10292010Y5535000D02*
X-10875000Y4952010D01*
D27*
X-8785000Y9300000D02*
X-8785000Y8132990D01*
D25*
X-10737010Y7805136D02*
X-10181874Y7250000D01*
X-10737010Y9088952D02*
X-10737010Y7805136D01*
X-9212001Y9727001D02*
X-10098961Y9727001D01*
X-10098961Y9727001D02*
X-10737010Y9088952D01*
X-8785000Y9300000D02*
X-9212001Y9727001D01*
X-10000000Y7220000D02*
X-10000000Y5750000D01*
D27*
X-11502001Y5622999D02*
X-10002001Y5622999D01*
X-7050000Y-6480000D02*
X-7060000Y-6490000D01*
X-6125000Y-6480000D02*
X-7050000Y-6480000D01*
X-7070000Y-6480000D02*
X-7060000Y-6490000D01*
X-7990000Y-6480000D02*
X-7070000Y-6480000D01*
D26*
X5521038Y1625000D02*
X5750000Y1625000D01*
X4146038Y250000D02*
X5521038Y1625000D01*
X3437500Y250000D02*
X4146038Y250000D01*
D27*
X-13240000Y-1375000D02*
X-13125000Y-1375000D01*
X-13125000Y-1375000D02*
X-12000000Y-250000D01*
X-12000000Y-250000D02*
X-13250000Y1000000D01*
X-10875001Y-750000D02*
X-11500000Y-750000D01*
X-11500000Y-750000D02*
X-11875000Y-375000D01*
D25*
X-9424038Y3500000D02*
X-8625000Y2700962D01*
X-8625000Y2700962D02*
X-8625000Y1743602D01*
X-10515000Y3500000D02*
X-9424038Y3500000D01*
X-7407341Y-12872165D02*
X-7407341Y-12867341D01*
X-3458950Y-13365088D02*
X-3458950Y-17201050D01*
X-5301039Y-11522999D02*
X-3458950Y-13365088D01*
X-6062999Y-11522999D02*
X-5301039Y-11522999D01*
X-7407341Y-12867341D02*
X-6062999Y-11522999D01*
X-5644618Y-17201050D02*
X-3458950Y-17201050D01*
X-7065152Y-17201050D02*
X-5644618Y-17201050D01*
X-14157375Y-8736982D02*
X-14157375Y-10108827D01*
X-12203384Y-6782991D02*
X-14157375Y-8736982D01*
X-14157375Y-10108827D02*
X-7065152Y-17201050D01*
X-9808863Y-6782991D02*
X-12203384Y-6782991D01*
X-9210000Y-7381854D02*
X-9808863Y-6782991D01*
X-9210000Y-7745176D02*
X-9210000Y-7381854D01*
X-10872165Y-9407341D02*
X-9210000Y-7745176D01*
X-9427001Y941601D02*
X-9427001Y-6401129D01*
X-9427001Y-6401129D02*
X-9808863Y-6782991D01*
X-8625000Y1743602D02*
X-9427001Y941601D01*
X-3458950Y-17201050D02*
X3573950Y-17201050D01*
X3573950Y-13247904D02*
X3573950Y-17201050D01*
X7380000Y-12840000D02*
X6000825Y-11460826D01*
X5361028Y-11460826D02*
X3573950Y-13247904D01*
X6000825Y-11460826D02*
X5361028Y-11460826D01*
X10867341Y-9407341D02*
X10872165Y-9407341D01*
X9542999Y-8082999D02*
X10867341Y-9407341D01*
X9542999Y-7331039D02*
X9542999Y-8082999D01*
X9921039Y-6952999D02*
X9542999Y-7331039D01*
X12373392Y-6952999D02*
X9921039Y-6952999D01*
X14157375Y-10108826D02*
X14157375Y-8736982D01*
X3573950Y-17201050D02*
X7065151Y-17201050D01*
X14157375Y-8736982D02*
X12373392Y-6952999D01*
X7065151Y-17201050D02*
X14157375Y-10108826D01*
D26*
X-2750000Y-3437500D02*
X-2750000Y-4875000D01*
X-3437500Y-1750000D02*
X-5500000Y-1750000D01*
D27*
X-5924264Y-1750000D02*
X-5500000Y-1750000D01*
X-6300000Y-2125736D02*
X-5924264Y-1750000D01*
X-6300000Y-4600000D02*
X-6300000Y-2125736D01*
X-8875000Y5025000D02*
X-9400000Y4500000D01*
X-10440284Y4500000D02*
X-10615283Y4325001D01*
X-9400000Y4500000D02*
X-10440284Y4500000D01*
X-10615283Y4325001D02*
X-10875000Y4325001D01*
X-3437500Y2750000D02*
X-5000000Y2750000D01*
X-5000000Y2750000D02*
X-6875000Y4625000D01*
X-6875000Y4625000D02*
X-7625000Y4625000D01*
D26*
X-750000Y3437500D02*
X-750000Y5375000D01*
X8798044Y-14652143D02*
X7075187Y-16375000D01*
X7075187Y-16375000D02*
X5875000Y-16375000D01*
X8255870Y-12023637D02*
X8255870Y-12025870D01*
X10270186Y-13180000D02*
X10495093Y-12955093D01*
X9410000Y-13180000D02*
X10270186Y-13180000D01*
X8255870Y-12025870D02*
X9410000Y-13180000D01*
X10495093Y-12955093D02*
X8798044Y-14652143D01*
X10919365Y-12530822D02*
X10495093Y-12955093D01*
X10377190Y-9902316D02*
X10382316Y-9902316D01*
X11080000Y-12370187D02*
X10919365Y-12530822D01*
X11080000Y-10600000D02*
X11080000Y-12370187D01*
X10382316Y-9902316D02*
X11080000Y-10600000D01*
X-2796048Y14197010D02*
X-5552990Y14197010D01*
X-1750000Y13150962D02*
X-2796048Y14197010D01*
X-1750000Y11955000D02*
X-1750000Y13150962D01*
X-5552990Y14197010D02*
X-6250000Y13500000D01*
D27*
X1905000Y-7775000D02*
X1905000Y-9034696D01*
X1905000Y-9034696D02*
X2593294Y-9722990D01*
X2593294Y-9722990D02*
X7625000Y-9722990D01*
X7625000Y-9722990D02*
X8114740Y-9722990D01*
D26*
X9316530Y-10924780D02*
X8114740Y-9722990D01*
X9316530Y-10962976D02*
X9316530Y-10924780D01*
X9875000Y-11821562D02*
X9875000Y-11500000D01*
X9484304Y-12212258D02*
X9875000Y-11821562D01*
X9151598Y-12212258D02*
X9484304Y-12212258D01*
X8609423Y-11670083D02*
X9151598Y-12212258D01*
X9875000Y-11500000D02*
X9375000Y-11000000D01*
D27*
X1905000Y-7775000D02*
X1905000Y-6582962D01*
X-8637010Y-6852990D02*
X-8637010Y-6153628D01*
X-8637010Y-6153628D02*
X-8108382Y-5625000D01*
X-7990000Y-7500000D02*
X-8637010Y-6852990D01*
X-8108382Y-5625000D02*
X-1375000Y-5625000D01*
X1947038Y-6625000D02*
X1905000Y-6582962D01*
X3125000Y-6625000D02*
X1947038Y-6625000D01*
X1947038Y-6625000D02*
X250000Y-4927962D01*
D26*
X250000Y-4927962D02*
X250000Y-4375000D01*
X250000Y-4375000D02*
X250000Y-3500000D01*
X-10212258Y-11484304D02*
X-10212258Y-11151594D01*
X-9505150Y-11858704D02*
X-9837858Y-11858704D01*
X-9837858Y-11858704D02*
X-10212258Y-11484304D01*
X-8962976Y-11316530D02*
X-9505150Y-11858704D01*
X-10212258Y-11151594D02*
X-9670332Y-10609668D01*
X-9670083Y-10609423D02*
X-9670083Y-10609420D01*
D27*
X-7574768Y-7915232D02*
X-7574768Y-8514106D01*
X-7990000Y-7500000D02*
X-7574768Y-7915232D01*
D26*
X-8810331Y-9749669D02*
X-8560332Y-9499669D01*
D27*
X-7574768Y-8514106D02*
X-8810331Y-9749669D01*
D26*
X-9670083Y-10609420D02*
X-8810331Y-9749669D01*
X8962976Y-11316530D02*
X7896446Y-10250000D01*
D27*
X7896446Y-10250000D02*
X2375000Y-10250000D01*
X2375000Y-10250000D02*
X625000Y-8500000D01*
D26*
X8750000Y-9689340D02*
X8750000Y-8875000D01*
X9670083Y-10609423D02*
X8750000Y-9689340D01*
X7625000Y-10250000D02*
X7896446Y-10250000D01*
X6875000Y-11000000D02*
X7625000Y-10250000D01*
X-250000Y-3437500D02*
X-250000Y-4700406D01*
D27*
X635000Y-7775000D02*
X635000Y-6510000D01*
X-6125000Y-7500000D02*
X-4877001Y-6252001D01*
X377001Y-6252001D02*
X635000Y-6510000D01*
X-4877001Y-6252001D02*
X377001Y-6252001D01*
X-303490Y-4683186D02*
X-285355Y-4665051D01*
X-303490Y-5571510D02*
X-303490Y-4683186D01*
X377001Y-6252001D02*
X-303490Y-5571510D01*
X-6125000Y-7500000D02*
X-6125000Y-9185660D01*
D26*
X-7764670Y-10825330D02*
X-7339670Y-10400330D01*
D27*
X-6125000Y-9185660D02*
X-7764670Y-10825330D01*
D26*
X-8609423Y-11670083D02*
X-7764670Y-10825330D01*
X-8169198Y-10420802D02*
X-7764670Y-10825330D01*
X-8774356Y-10420802D02*
X-8169198Y-10420802D01*
X-9316530Y-10962976D02*
X-8774356Y-10420802D01*
X-4478962Y-1250000D02*
X-5625000Y-103962D01*
X-5625000Y-103962D02*
X-5625000Y0D01*
X-3437500Y-1250000D02*
X-4478962Y-1250000D01*
X250000Y11955000D02*
X250000Y11081398D01*
X-750000Y10750000D02*
X-750000Y10000000D01*
X250000Y11081398D02*
X-81398Y10750000D01*
X-81398Y10750000D02*
X-750000Y10750000D01*
X-750000Y11955000D02*
X-750000Y10750000D01*
X750000Y11955000D02*
X750000Y10000000D01*
X750000Y12828602D02*
X453602Y13125000D01*
X750000Y11955000D02*
X750000Y12828602D01*
X46398Y13125000D02*
X-250000Y12828602D01*
X453602Y13125000D02*
X46398Y13125000D01*
X-250000Y12828602D02*
X-250000Y12375000D01*
X-4125000Y-750000D02*
X-4875000Y0D01*
X-3437500Y-750000D02*
X-4125000Y-750000D01*
D25*
X1098961Y9272999D02*
X2500000Y10674038D01*
X-7815000Y9300000D02*
X-7787999Y9272999D01*
X2500000Y10674038D02*
X2500000Y12000000D01*
X-2450000Y10675000D02*
X-3852001Y9272999D01*
X-3852001Y9272999D02*
X1098961Y9272999D01*
X-2450000Y11955000D02*
X-2450000Y10675000D01*
X-7787999Y9272999D02*
X-3852001Y9272999D01*
D26*
X-8719985Y-13194859D02*
X-8719985Y-14730202D01*
X-7902316Y-12377190D02*
X-8719985Y-13194859D01*
X-7075187Y-16375000D02*
X-5875000Y-16375000D01*
X-10023637Y-10359091D02*
X-10639268Y-10974722D01*
X-10639268Y-12810920D02*
X-8600094Y-14850094D01*
X-10023637Y-10255870D02*
X-10023637Y-10359091D01*
X-10639268Y-10974722D02*
X-10639268Y-12810920D01*
X-8719985Y-14730202D02*
X-8600094Y-14850094D01*
X-8600094Y-14850094D02*
X-7075187Y-16375000D01*
D27*
X5410000Y7600000D02*
X5410000Y6285000D01*
X-11600000Y4625000D02*
X-11600000Y3600000D01*
X-11600000Y3600000D02*
X-11500000Y3500000D01*
X-11485000Y3500000D02*
X-11485000Y2515000D01*
D26*
X2467010Y14197010D02*
X5552990Y14197010D01*
X1250000Y12980000D02*
X2467010Y14197010D01*
X1250000Y11955000D02*
X1250000Y12980000D01*
X5552990Y14197010D02*
X6250000Y13500000D01*
M02*
