G04 #@! TF.GenerationSoftware,KiCad,Pcbnew,(5.1.10-1-10_14)*
G04 #@! TF.CreationDate,2021-07-25T02:22:53-07:00*
G04 #@! TF.ProjectId,Synapse,53796e61-7073-4652-9e6b-696361645f70,1*
G04 #@! TF.SameCoordinates,Original*
G04 #@! TF.FileFunction,Copper,L3,Inr*
G04 #@! TF.FilePolarity,Positive*
%FSLAX46Y46*%
G04 Gerber Fmt 4.6, Leading zero omitted, Abs format (unit mm)*
G04 Created by KiCad (PCBNEW (5.1.10-1-10_14)) date 2021-07-25 02:22:53*
%MOMM*%
%LPD*%
G01*
G04 APERTURE LIST*
G04 #@! TA.AperFunction,ComponentPad*
%ADD10O,1.000000X2.100000*%
G04 #@! TD*
G04 #@! TA.AperFunction,ComponentPad*
%ADD11O,1.000000X1.600000*%
G04 #@! TD*
G04 #@! TA.AperFunction,ViaPad*
%ADD12C,0.900000*%
G04 #@! TD*
G04 #@! TA.AperFunction,ViaPad*
%ADD13C,0.600000*%
G04 #@! TD*
G04 #@! TA.AperFunction,ViaPad*
%ADD14C,0.400000*%
G04 #@! TD*
G04 #@! TA.AperFunction,Conductor*
%ADD15C,0.254000*%
G04 #@! TD*
G04 #@! TA.AperFunction,Conductor*
%ADD16C,0.152400*%
G04 #@! TD*
G04 APERTURE END LIST*
G04 #@! TA.AperFunction,ComponentPad*
G36*
G01*
X12876813Y-9474516D02*
X12098995Y-8696698D01*
G75*
G02*
X12098995Y-7989592I353553J353553D01*
G01*
X12098995Y-7989592D01*
G75*
G02*
X12806101Y-7989592I353553J-353553D01*
G01*
X13583919Y-8767410D01*
G75*
G02*
X13583919Y-9474516I-353553J-353553D01*
G01*
X13583919Y-9474516D01*
G75*
G02*
X12876813Y-9474516I-353553J353553D01*
G01*
G37*
G04 #@! TD.AperFunction*
G04 #@! TA.AperFunction,ComponentPad*
G36*
G01*
X6767410Y-15583919D02*
X5989592Y-14806101D01*
G75*
G02*
X5989592Y-14098995I353553J353553D01*
G01*
X5989592Y-14098995D01*
G75*
G02*
X6696698Y-14098995I353553J-353553D01*
G01*
X7474516Y-14876813D01*
G75*
G02*
X7474516Y-15583919I-353553J-353553D01*
G01*
X7474516Y-15583919D01*
G75*
G02*
X6767410Y-15583919I-353553J353553D01*
G01*
G37*
G04 #@! TD.AperFunction*
G04 #@! TA.AperFunction,ComponentPad*
G36*
G01*
X9546340Y-18362848D02*
X9122076Y-17938584D01*
G75*
G02*
X9122076Y-17231478I353553J353553D01*
G01*
X9122076Y-17231478D01*
G75*
G02*
X9829182Y-17231478I353553J-353553D01*
G01*
X10253446Y-17655742D01*
G75*
G02*
X10253446Y-18362848I-353553J-353553D01*
G01*
X10253446Y-18362848D01*
G75*
G02*
X9546340Y-18362848I-353553J353553D01*
G01*
G37*
G04 #@! TD.AperFunction*
G04 #@! TA.AperFunction,ComponentPad*
G36*
G01*
X15655742Y-12253446D02*
X15231478Y-11829182D01*
G75*
G02*
X15231478Y-11122076I353553J353553D01*
G01*
X15231478Y-11122076D01*
G75*
G02*
X15938584Y-11122076I353553J-353553D01*
G01*
X16362848Y-11546340D01*
G75*
G02*
X16362848Y-12253446I-353553J-353553D01*
G01*
X16362848Y-12253446D01*
G75*
G02*
X15655742Y-12253446I-353553J353553D01*
G01*
G37*
G04 #@! TD.AperFunction*
G04 #@! TA.AperFunction,ComponentPad*
G36*
G01*
X-10253446Y-17655742D02*
X-9829182Y-17231478D01*
G75*
G02*
X-9122076Y-17231478I353553J-353553D01*
G01*
X-9122076Y-17231478D01*
G75*
G02*
X-9122076Y-17938584I-353553J-353553D01*
G01*
X-9546340Y-18362848D01*
G75*
G02*
X-10253446Y-18362848I-353553J353553D01*
G01*
X-10253446Y-18362848D01*
G75*
G02*
X-10253446Y-17655742I353553J353553D01*
G01*
G37*
G04 #@! TD.AperFunction*
G04 #@! TA.AperFunction,ComponentPad*
G36*
G01*
X-16362848Y-11546340D02*
X-15938584Y-11122076D01*
G75*
G02*
X-15231478Y-11122076I353553J-353553D01*
G01*
X-15231478Y-11122076D01*
G75*
G02*
X-15231478Y-11829182I-353553J-353553D01*
G01*
X-15655742Y-12253446D01*
G75*
G02*
X-16362848Y-12253446I-353553J353553D01*
G01*
X-16362848Y-12253446D01*
G75*
G02*
X-16362848Y-11546340I353553J353553D01*
G01*
G37*
G04 #@! TD.AperFunction*
G04 #@! TA.AperFunction,ComponentPad*
G36*
G01*
X-13583919Y-8767410D02*
X-12806101Y-7989592D01*
G75*
G02*
X-12098995Y-7989592I353553J-353553D01*
G01*
X-12098995Y-7989592D01*
G75*
G02*
X-12098995Y-8696698I-353553J-353553D01*
G01*
X-12876813Y-9474516D01*
G75*
G02*
X-13583919Y-9474516I-353553J353553D01*
G01*
X-13583919Y-9474516D01*
G75*
G02*
X-13583919Y-8767410I353553J353553D01*
G01*
G37*
G04 #@! TD.AperFunction*
G04 #@! TA.AperFunction,ComponentPad*
G36*
G01*
X-7474516Y-14876813D02*
X-6696698Y-14098995D01*
G75*
G02*
X-5989592Y-14098995I353553J-353553D01*
G01*
X-5989592Y-14098995D01*
G75*
G02*
X-5989592Y-14806101I-353553J-353553D01*
G01*
X-6767410Y-15583919D01*
G75*
G02*
X-7474516Y-15583919I-353553J353553D01*
G01*
X-7474516Y-15583919D01*
G75*
G02*
X-7474516Y-14876813I353553J353553D01*
G01*
G37*
G04 #@! TD.AperFunction*
D10*
X-4320000Y12870000D03*
X4320000Y12870000D03*
D11*
X4320000Y17050000D03*
X-4320000Y17050000D03*
D12*
X-1500000Y-1500000D03*
X1500000Y-1500000D03*
X-1500000Y1500000D03*
X1500000Y1500000D03*
X0Y0D03*
D13*
X5125000Y375000D03*
X7125000Y375000D03*
X7125000Y1500000D03*
X7125000Y2500000D03*
X8125000Y3500000D03*
X9125000Y3500000D03*
X7125000Y3500000D03*
X10125000Y3500000D03*
X6125000Y375000D03*
X11125000Y3500000D03*
X12125000Y3500000D03*
X13250000Y3500000D03*
X13250000Y2500000D03*
X13125000Y375000D03*
X13250000Y1500000D03*
X12375000Y-375000D03*
X7250000Y-4625000D03*
X8600000Y-4625000D03*
X9700000Y-4625000D03*
X10800000Y-4625000D03*
X13250000Y-4625000D03*
X11900000Y-4625000D03*
X13375000Y-3500000D03*
X13625000Y-2375000D03*
X12250000Y-1875000D03*
D12*
X11000000Y0D03*
D13*
X12875000Y-2875000D03*
X7500000Y-2750000D03*
X7250000Y-3875000D03*
X4875000Y-2750000D03*
X6750000Y-3125000D03*
X5875000Y-2750000D03*
D12*
X8000000Y2625000D03*
X12375000Y875000D03*
D13*
X5625000Y4625000D03*
X-750000Y7250000D03*
D12*
X-2250000Y8125000D03*
D13*
X4375000Y8750000D03*
X6250000Y11375000D03*
X-6250000Y11375000D03*
X-5375000Y8250000D03*
X-9500000Y2500000D03*
X-13875000Y1875000D03*
X-15125000Y-2250000D03*
X-15125000Y-4875000D03*
X-9750000Y9000000D03*
X-5625000Y5500000D03*
X-4500000Y-15000000D03*
X4500000Y-15000000D03*
X-5650000Y-12250000D03*
X10270000Y-7680000D03*
X-10110000Y-7510000D03*
X5630000Y-12220000D03*
X2000000Y-5750000D03*
X5000000Y-5750000D03*
X-1875000Y-11250000D03*
X-625000Y-11250000D03*
X625000Y-11250000D03*
X1875000Y-11250000D03*
X-1125000Y-10375000D03*
X-625000Y-9625000D03*
X-8070000Y-1670000D03*
X-5625000Y-2625000D03*
X3250000Y10250000D03*
X-3901567Y10251567D03*
X11250000Y-1875000D03*
X10375000Y-1875000D03*
X10250000Y-875000D03*
X11250000Y-875000D03*
D12*
X-2581950Y-16324050D03*
D13*
X-4900000Y6700000D03*
D12*
X2500000Y4750000D03*
D13*
X2500000Y7250000D03*
X-13875000Y-375000D03*
X-6500000Y6375000D03*
X3000000Y-5750000D03*
X4000000Y-5750000D03*
X-3375000Y-8375000D03*
X-3375000Y-7375000D03*
X-4750000Y-4502000D03*
X-7750000Y-4502000D03*
D12*
X2696950Y-16324050D03*
D13*
X-10875000Y-3875000D03*
X1125000Y-4875000D03*
X-11502001Y5622999D03*
X-7060000Y-6490000D03*
D14*
X5750000Y1625000D03*
D13*
X-10875001Y-750000D03*
X-2750000Y-4875000D03*
X-5500000Y-1750000D03*
X-6300000Y-4600000D03*
X-1375000Y-5625000D03*
X3125000Y-6625000D03*
X8750000Y-8875000D03*
X6875000Y-11000000D03*
X-5625000Y0D03*
X-750000Y10000000D03*
X750000Y10000000D03*
X-4875000Y0D03*
D15*
X13173102Y4435000D02*
X13157911Y4435000D01*
X12977271Y4399068D01*
X12807111Y4328586D01*
X12687500Y4248665D01*
X12567889Y4328586D01*
X12397729Y4399068D01*
X12217089Y4435000D01*
X12032911Y4435000D01*
X11852271Y4399068D01*
X11682111Y4328586D01*
X11625000Y4290426D01*
X11567889Y4328586D01*
X11397729Y4399068D01*
X11217089Y4435000D01*
X11032911Y4435000D01*
X10852271Y4399068D01*
X10682111Y4328586D01*
X10625000Y4290426D01*
X10567889Y4328586D01*
X10397729Y4399068D01*
X10217089Y4435000D01*
X10032911Y4435000D01*
X9852271Y4399068D01*
X9682111Y4328586D01*
X9625000Y4290426D01*
X9567889Y4328586D01*
X9397729Y4399068D01*
X9217089Y4435000D01*
X9032911Y4435000D01*
X8852271Y4399068D01*
X8682111Y4328586D01*
X8625000Y4290426D01*
X8567889Y4328586D01*
X8397729Y4399068D01*
X8217089Y4435000D01*
X8032911Y4435000D01*
X7852271Y4399068D01*
X7682111Y4328586D01*
X7625000Y4290426D01*
X7567889Y4328586D01*
X7397729Y4399068D01*
X7217089Y4435000D01*
X7032911Y4435000D01*
X6852271Y4399068D01*
X6682111Y4328586D01*
X6530076Y4227000D01*
X6500000Y4227000D01*
X6475224Y4224560D01*
X6470586Y4223153D01*
X6524068Y4352271D01*
X6560000Y4532911D01*
X6560000Y4717089D01*
X6524068Y4897729D01*
X6453586Y5067889D01*
X6351262Y5221028D01*
X6221028Y5351262D01*
X6067889Y5453586D01*
X5897729Y5524068D01*
X5717089Y5560000D01*
X5532911Y5560000D01*
X5352271Y5524068D01*
X5182111Y5453586D01*
X5028972Y5351262D01*
X4898738Y5221028D01*
X4796414Y5067889D01*
X4725932Y4897729D01*
X4690000Y4717089D01*
X4690000Y4532911D01*
X4725932Y4352271D01*
X4796414Y4182111D01*
X4898738Y4028972D01*
X5028972Y3898738D01*
X5182111Y3796414D01*
X5352271Y3725932D01*
X5532911Y3690000D01*
X5717089Y3690000D01*
X5897729Y3725932D01*
X6067889Y3796414D01*
X6221028Y3898738D01*
X6351262Y4028972D01*
X6373000Y4061505D01*
X6373000Y4057508D01*
X6296414Y3942889D01*
X6225932Y3772729D01*
X6190000Y3592089D01*
X6190000Y3407911D01*
X6225932Y3227271D01*
X6296414Y3057111D01*
X6334574Y3000000D01*
X6296414Y2942889D01*
X6225932Y2772729D01*
X6190000Y2592089D01*
X6190000Y2407911D01*
X6206669Y2324109D01*
X6145521Y2364967D01*
X5993560Y2427911D01*
X5832240Y2460000D01*
X5667760Y2460000D01*
X5506440Y2427911D01*
X5354479Y2364967D01*
X5217719Y2273587D01*
X5101413Y2157281D01*
X5010033Y2020521D01*
X4947089Y1868560D01*
X4915000Y1707240D01*
X4915000Y1542760D01*
X4947089Y1381440D01*
X4980961Y1299666D01*
X4852271Y1274068D01*
X4682111Y1203586D01*
X4528972Y1101262D01*
X4398738Y971028D01*
X4296414Y817889D01*
X4225932Y647729D01*
X4190000Y467089D01*
X4190000Y327000D01*
X2700000Y327000D01*
X2675224Y324560D01*
X2651399Y317333D01*
X2629443Y305597D01*
X2610197Y289803D01*
X2594403Y270557D01*
X2582667Y248601D01*
X2575440Y224776D01*
X2573000Y200000D01*
X2573000Y-1332809D01*
X2543304Y-1183517D01*
X2461515Y-986060D01*
X2342775Y-808353D01*
X2191647Y-657225D01*
X2013940Y-538485D01*
X1816483Y-456696D01*
X1606863Y-415000D01*
X1393137Y-415000D01*
X1183517Y-456696D01*
X986060Y-538485D01*
X912090Y-587910D01*
X961515Y-513940D01*
X1043304Y-316483D01*
X1085000Y-106863D01*
X1085000Y106863D01*
X1043304Y316483D01*
X961515Y513940D01*
X912090Y587910D01*
X986060Y538485D01*
X1183517Y456696D01*
X1393137Y415000D01*
X1606863Y415000D01*
X1816483Y456696D01*
X2013940Y538485D01*
X2191647Y657225D01*
X2342775Y808353D01*
X2461515Y986060D01*
X2543304Y1183517D01*
X2585000Y1393137D01*
X2585000Y1606863D01*
X2543304Y1816483D01*
X2461515Y2013940D01*
X2342775Y2191647D01*
X2191647Y2342775D01*
X2013940Y2461515D01*
X1816483Y2543304D01*
X1606863Y2585000D01*
X1393137Y2585000D01*
X1183517Y2543304D01*
X986060Y2461515D01*
X808353Y2342775D01*
X657225Y2191647D01*
X538485Y2013940D01*
X456696Y1816483D01*
X415000Y1606863D01*
X415000Y1393137D01*
X456696Y1183517D01*
X538485Y986060D01*
X587910Y912090D01*
X513940Y961515D01*
X316483Y1043304D01*
X106863Y1085000D01*
X-106863Y1085000D01*
X-316483Y1043304D01*
X-513940Y961515D01*
X-587910Y912090D01*
X-538485Y986060D01*
X-456696Y1183517D01*
X-415000Y1393137D01*
X-415000Y1606863D01*
X-456696Y1816483D01*
X-538485Y2013940D01*
X-657225Y2191647D01*
X-808353Y2342775D01*
X-986060Y2461515D01*
X-1183517Y2543304D01*
X-1393137Y2585000D01*
X-1606863Y2585000D01*
X-1816483Y2543304D01*
X-2013940Y2461515D01*
X-2191647Y2342775D01*
X-2342775Y2191647D01*
X-2461515Y2013940D01*
X-2543304Y1816483D01*
X-2585000Y1606863D01*
X-2585000Y1393137D01*
X-2543304Y1183517D01*
X-2461515Y986060D01*
X-2342775Y808353D01*
X-2191647Y657225D01*
X-2013940Y538485D01*
X-1816483Y456696D01*
X-1606863Y415000D01*
X-1393137Y415000D01*
X-1183517Y456696D01*
X-986060Y538485D01*
X-912090Y587910D01*
X-961515Y513940D01*
X-1043304Y316483D01*
X-1085000Y106863D01*
X-1085000Y-106863D01*
X-1043304Y-316483D01*
X-961515Y-513940D01*
X-912090Y-587910D01*
X-986060Y-538485D01*
X-1183517Y-456696D01*
X-1393137Y-415000D01*
X-1606863Y-415000D01*
X-1816483Y-456696D01*
X-2013940Y-538485D01*
X-2191647Y-657225D01*
X-2342775Y-808353D01*
X-2461515Y-986060D01*
X-2543304Y-1183517D01*
X-2585000Y-1393137D01*
X-2585000Y-1606863D01*
X-2543304Y-1816483D01*
X-2461515Y-2013940D01*
X-2342775Y-2191647D01*
X-2191647Y-2342775D01*
X-2013940Y-2461515D01*
X-1816483Y-2543304D01*
X-1606863Y-2585000D01*
X-1393137Y-2585000D01*
X-1183517Y-2543304D01*
X-986060Y-2461515D01*
X-808353Y-2342775D01*
X-657225Y-2191647D01*
X-538485Y-2013940D01*
X-456696Y-1816483D01*
X-415000Y-1606863D01*
X-415000Y-1393137D01*
X-456696Y-1183517D01*
X-538485Y-986060D01*
X-587910Y-912090D01*
X-513940Y-961515D01*
X-316483Y-1043304D01*
X-106863Y-1085000D01*
X106863Y-1085000D01*
X316483Y-1043304D01*
X513940Y-961515D01*
X587910Y-912090D01*
X538485Y-986060D01*
X456696Y-1183517D01*
X415000Y-1393137D01*
X415000Y-1606863D01*
X456696Y-1816483D01*
X538485Y-2013940D01*
X657225Y-2191647D01*
X808353Y-2342775D01*
X986060Y-2461515D01*
X1183517Y-2543304D01*
X1393137Y-2585000D01*
X1606863Y-2585000D01*
X1816483Y-2543304D01*
X2013940Y-2461515D01*
X2191647Y-2342775D01*
X2342775Y-2191647D01*
X2461515Y-2013940D01*
X2543304Y-1816483D01*
X2573000Y-1667191D01*
X2573000Y-2200000D01*
X2575440Y-2224776D01*
X2582667Y-2248601D01*
X2594403Y-2270557D01*
X2610197Y-2289803D01*
X2629443Y-2305597D01*
X2651399Y-2317333D01*
X2675224Y-2324560D01*
X2700000Y-2327000D01*
X3747394Y-2327000D01*
X3962947Y-2542553D01*
X3940000Y-2657911D01*
X3940000Y-2842089D01*
X3975932Y-3022729D01*
X4046414Y-3192889D01*
X4148738Y-3346028D01*
X4278972Y-3476262D01*
X4432111Y-3578586D01*
X4602271Y-3649068D01*
X4782911Y-3685000D01*
X4967089Y-3685000D01*
X5147729Y-3649068D01*
X5317889Y-3578586D01*
X5375000Y-3540426D01*
X5432111Y-3578586D01*
X5602271Y-3649068D01*
X5782911Y-3685000D01*
X5967089Y-3685000D01*
X5995843Y-3679280D01*
X6023738Y-3721028D01*
X6153972Y-3851262D01*
X6307111Y-3953586D01*
X6315000Y-3956854D01*
X6315000Y-3967089D01*
X6350932Y-4147729D01*
X6373000Y-4201006D01*
X6373000Y-4298994D01*
X6350932Y-4352271D01*
X6315000Y-4532911D01*
X6315000Y-4717089D01*
X6350932Y-4897729D01*
X6373000Y-4951006D01*
X6373000Y-5200000D01*
X6375440Y-5224776D01*
X6382667Y-5248601D01*
X6394403Y-5270557D01*
X6410197Y-5289803D01*
X6429443Y-5305597D01*
X6451399Y-5317333D01*
X6475224Y-5324560D01*
X6500000Y-5327000D01*
X6629710Y-5327000D01*
X6653972Y-5351262D01*
X6807111Y-5453586D01*
X6977271Y-5524068D01*
X7157911Y-5560000D01*
X7342089Y-5560000D01*
X7522729Y-5524068D01*
X7692889Y-5453586D01*
X7846028Y-5351262D01*
X7870290Y-5327000D01*
X7979710Y-5327000D01*
X8003972Y-5351262D01*
X8157111Y-5453586D01*
X8327271Y-5524068D01*
X8507911Y-5560000D01*
X8692089Y-5560000D01*
X8872729Y-5524068D01*
X9042889Y-5453586D01*
X9150000Y-5382017D01*
X9257111Y-5453586D01*
X9427271Y-5524068D01*
X9607911Y-5560000D01*
X9792089Y-5560000D01*
X9972729Y-5524068D01*
X10142889Y-5453586D01*
X10250000Y-5382017D01*
X10357111Y-5453586D01*
X10527271Y-5524068D01*
X10707911Y-5560000D01*
X10892089Y-5560000D01*
X11072729Y-5524068D01*
X11242889Y-5453586D01*
X11350000Y-5382017D01*
X11457111Y-5453586D01*
X11627271Y-5524068D01*
X11807911Y-5560000D01*
X11992089Y-5560000D01*
X12172729Y-5524068D01*
X12342889Y-5453586D01*
X12496028Y-5351262D01*
X12520290Y-5327000D01*
X12629710Y-5327000D01*
X12653972Y-5351262D01*
X12807111Y-5453586D01*
X12977271Y-5524068D01*
X13157911Y-5560000D01*
X13342089Y-5560000D01*
X13522729Y-5524068D01*
X13692889Y-5453586D01*
X13846028Y-5351262D01*
X13870290Y-5327000D01*
X14000000Y-5327000D01*
X14024776Y-5324560D01*
X14048601Y-5317333D01*
X14070557Y-5305597D01*
X14089803Y-5289803D01*
X14105597Y-5270557D01*
X14117333Y-5248601D01*
X14124560Y-5224776D01*
X14127000Y-5200000D01*
X14127000Y-4951006D01*
X14149068Y-4897729D01*
X14185000Y-4717089D01*
X14185000Y-4532911D01*
X14149068Y-4352271D01*
X14127000Y-4298994D01*
X14127000Y-4057508D01*
X14203586Y-3942889D01*
X14274068Y-3772729D01*
X14286327Y-3711100D01*
X14396426Y-3582651D01*
X14410697Y-3562251D01*
X14420715Y-3539459D01*
X14426093Y-3515150D01*
X14427000Y-3500000D01*
X14427000Y-2857678D01*
X14453586Y-2817889D01*
X14524068Y-2647729D01*
X14560000Y-2467089D01*
X14560000Y-2282911D01*
X14524068Y-2102271D01*
X14453586Y-1932111D01*
X14351262Y-1778972D01*
X14221028Y-1648738D01*
X14067889Y-1546414D01*
X13897729Y-1475932D01*
X13720231Y-1440625D01*
X13489803Y-1210197D01*
X13470557Y-1194403D01*
X13448601Y-1182667D01*
X13424776Y-1175440D01*
X13400000Y-1173000D01*
X12870290Y-1173000D01*
X12867636Y-1170346D01*
X12971028Y-1101262D01*
X13101262Y-971028D01*
X13203586Y-817889D01*
X13233191Y-746415D01*
X13496415Y-483191D01*
X13567889Y-453586D01*
X13721028Y-351262D01*
X13851262Y-221028D01*
X13953586Y-67889D01*
X14024068Y102271D01*
X14060000Y282911D01*
X14060000Y467089D01*
X14024068Y647729D01*
X13953586Y817889D01*
X13928189Y855899D01*
X13976262Y903972D01*
X14078586Y1057111D01*
X14149068Y1227271D01*
X14185000Y1407911D01*
X14185000Y1592089D01*
X14149068Y1772729D01*
X14078586Y1942889D01*
X14040426Y2000000D01*
X14078586Y2057111D01*
X14102191Y2114099D01*
X19546147Y-11485116D01*
X9366264Y-21665000D01*
X-9366263Y-21665000D01*
X-13021968Y-18009295D01*
X-11040384Y-18009295D01*
X-11018470Y-18231793D01*
X-10953569Y-18445741D01*
X-10848176Y-18642917D01*
X-10706341Y-18815743D01*
X-10533515Y-18957578D01*
X-10336339Y-19062971D01*
X-10122391Y-19127872D01*
X-9899893Y-19149786D01*
X-9677395Y-19127872D01*
X-9463447Y-19062971D01*
X-9266271Y-18957578D01*
X-9136750Y-18851283D01*
X-8633641Y-18348174D01*
X-8527345Y-18218653D01*
X-8421953Y-18021477D01*
X-8357052Y-17807530D01*
X-8335138Y-17585031D01*
X8335138Y-17585031D01*
X8357052Y-17807529D01*
X8421953Y-18021477D01*
X8527346Y-18218653D01*
X8633641Y-18348174D01*
X9136750Y-18851283D01*
X9266271Y-18957579D01*
X9463447Y-19062971D01*
X9677394Y-19127872D01*
X9899893Y-19149786D01*
X10122391Y-19127872D01*
X10336339Y-19062971D01*
X10533515Y-18957579D01*
X10706341Y-18815743D01*
X10848177Y-18642917D01*
X10953569Y-18445741D01*
X11018470Y-18231793D01*
X11040384Y-18009295D01*
X11018470Y-17786796D01*
X10953569Y-17572849D01*
X10848177Y-17375673D01*
X10741881Y-17246152D01*
X10238772Y-16743043D01*
X10109251Y-16636748D01*
X9912075Y-16531355D01*
X9698127Y-16466454D01*
X9475629Y-16444540D01*
X9253131Y-16466454D01*
X9039183Y-16531355D01*
X8842007Y-16636748D01*
X8669181Y-16778583D01*
X8527346Y-16951409D01*
X8421953Y-17148585D01*
X8357052Y-17362533D01*
X8335138Y-17585031D01*
X-8335138Y-17585031D01*
X-8357052Y-17362533D01*
X-8421953Y-17148585D01*
X-8527345Y-16951409D01*
X-8669181Y-16778583D01*
X-8842007Y-16636747D01*
X-9039183Y-16531355D01*
X-9253131Y-16466454D01*
X-9475629Y-16444540D01*
X-9698128Y-16466454D01*
X-9912075Y-16531355D01*
X-10109251Y-16636747D01*
X-10238772Y-16743043D01*
X-10741881Y-17246152D01*
X-10848176Y-17375673D01*
X-10953569Y-17572849D01*
X-11018470Y-17786797D01*
X-11040384Y-18009295D01*
X-13021968Y-18009295D01*
X-16920754Y-14110509D01*
X-9077984Y-14110509D01*
X-9077984Y-14299613D01*
X-9041092Y-14485083D01*
X-8968725Y-14659792D01*
X-8863665Y-14817025D01*
X-8729948Y-14950742D01*
X-8572715Y-15055802D01*
X-8398006Y-15128169D01*
X-8254206Y-15156772D01*
X-8261454Y-15230366D01*
X-8239540Y-15452864D01*
X-8174639Y-15666812D01*
X-8069246Y-15863988D01*
X-7927411Y-16036814D01*
X-7754585Y-16178649D01*
X-7557409Y-16284042D01*
X-7343461Y-16348943D01*
X-7120963Y-16370857D01*
X-6898465Y-16348943D01*
X-6684517Y-16284042D01*
X-6559441Y-16217187D01*
X-3666950Y-16217187D01*
X-3666950Y-16430913D01*
X-3625254Y-16640533D01*
X-3543465Y-16837990D01*
X-3424725Y-17015697D01*
X-3273597Y-17166825D01*
X-3095890Y-17285565D01*
X-2898433Y-17367354D01*
X-2688813Y-17409050D01*
X-2475087Y-17409050D01*
X-2265467Y-17367354D01*
X-2068010Y-17285565D01*
X-1890303Y-17166825D01*
X-1739175Y-17015697D01*
X-1620435Y-16837990D01*
X-1538646Y-16640533D01*
X-1496950Y-16430913D01*
X-1496950Y-16217187D01*
X-1538646Y-16007567D01*
X-1620435Y-15810110D01*
X-1739175Y-15632403D01*
X-1890303Y-15481275D01*
X-2068010Y-15362535D01*
X-2265467Y-15280746D01*
X-2475087Y-15239050D01*
X-2688813Y-15239050D01*
X-2898433Y-15280746D01*
X-3095890Y-15362535D01*
X-3273597Y-15481275D01*
X-3424725Y-15632403D01*
X-3543465Y-15810110D01*
X-3625254Y-16007567D01*
X-3666950Y-16217187D01*
X-6559441Y-16217187D01*
X-6487341Y-16178649D01*
X-6357820Y-16072354D01*
X-5501157Y-15215692D01*
X-5428117Y-15126693D01*
X-5399068Y-15272729D01*
X-5328586Y-15442889D01*
X-5226262Y-15596028D01*
X-5096028Y-15726262D01*
X-4942889Y-15828586D01*
X-4772729Y-15899068D01*
X-4592089Y-15935000D01*
X-4407911Y-15935000D01*
X-4227271Y-15899068D01*
X-4057111Y-15828586D01*
X-3903972Y-15726262D01*
X-3773738Y-15596028D01*
X-3671414Y-15442889D01*
X-3600932Y-15272729D01*
X-3565000Y-15092089D01*
X-3565000Y-14907911D01*
X3565000Y-14907911D01*
X3565000Y-15092089D01*
X3600932Y-15272729D01*
X3671414Y-15442889D01*
X3773738Y-15596028D01*
X3903972Y-15726262D01*
X4057111Y-15828586D01*
X4227271Y-15899068D01*
X4407911Y-15935000D01*
X4592089Y-15935000D01*
X4772729Y-15899068D01*
X4942889Y-15828586D01*
X5096028Y-15726262D01*
X5226262Y-15596028D01*
X5328586Y-15442889D01*
X5399068Y-15272729D01*
X5428117Y-15126691D01*
X5501157Y-15215691D01*
X6357819Y-16072354D01*
X6487340Y-16178650D01*
X6684516Y-16284042D01*
X6898464Y-16348943D01*
X7120963Y-16370857D01*
X7343462Y-16348943D01*
X7557409Y-16284042D01*
X7754585Y-16178650D01*
X7927412Y-16036815D01*
X8069247Y-15863988D01*
X8174639Y-15666812D01*
X8239540Y-15452865D01*
X8261454Y-15230366D01*
X8254206Y-15156772D01*
X8398006Y-15128169D01*
X8572715Y-15055802D01*
X8729948Y-14950742D01*
X8863665Y-14817025D01*
X8968725Y-14659792D01*
X9041092Y-14485083D01*
X9077984Y-14299613D01*
X9077984Y-14110509D01*
X9041092Y-13925039D01*
X8968725Y-13750330D01*
X8863665Y-13593097D01*
X8729948Y-13459380D01*
X8572715Y-13354320D01*
X8398006Y-13281953D01*
X8212536Y-13245061D01*
X8023432Y-13245061D01*
X7837962Y-13281953D01*
X7663253Y-13354320D01*
X7506020Y-13459380D01*
X7372303Y-13593097D01*
X7267243Y-13750330D01*
X7261038Y-13765310D01*
X7106288Y-13610560D01*
X6976767Y-13504265D01*
X6779591Y-13398872D01*
X6565643Y-13333971D01*
X6343145Y-13312057D01*
X6120647Y-13333971D01*
X5906699Y-13398872D01*
X5709523Y-13504265D01*
X5536697Y-13646100D01*
X5394862Y-13818926D01*
X5289469Y-14016102D01*
X5224568Y-14230050D01*
X5209126Y-14386836D01*
X5096028Y-14273738D01*
X4942889Y-14171414D01*
X4772729Y-14100932D01*
X4592089Y-14065000D01*
X4407911Y-14065000D01*
X4227271Y-14100932D01*
X4057111Y-14171414D01*
X3903972Y-14273738D01*
X3773738Y-14403972D01*
X3671414Y-14557111D01*
X3600932Y-14727271D01*
X3565000Y-14907911D01*
X-3565000Y-14907911D01*
X-3600932Y-14727271D01*
X-3671414Y-14557111D01*
X-3773738Y-14403972D01*
X-3903972Y-14273738D01*
X-4057111Y-14171414D01*
X-4227271Y-14100932D01*
X-4407911Y-14065000D01*
X-4592089Y-14065000D01*
X-4772729Y-14100932D01*
X-4942889Y-14171414D01*
X-5096028Y-14273738D01*
X-5209126Y-14386836D01*
X-5224568Y-14230049D01*
X-5289469Y-14016102D01*
X-5394861Y-13818926D01*
X-5536696Y-13646099D01*
X-5709523Y-13504264D01*
X-5906699Y-13398872D01*
X-6120646Y-13333971D01*
X-6343145Y-13312057D01*
X-6565644Y-13333971D01*
X-6779592Y-13398872D01*
X-6976768Y-13504264D01*
X-7106289Y-13610560D01*
X-7261038Y-13765309D01*
X-7267243Y-13750330D01*
X-7372303Y-13593097D01*
X-7506020Y-13459380D01*
X-7663253Y-13354320D01*
X-7837962Y-13281953D01*
X-8023432Y-13245061D01*
X-8212536Y-13245061D01*
X-8398006Y-13281953D01*
X-8572715Y-13354320D01*
X-8729948Y-13459380D01*
X-8863665Y-13593097D01*
X-8968725Y-13750330D01*
X-9041092Y-13925039D01*
X-9077984Y-14110509D01*
X-16920754Y-14110509D01*
X-19131370Y-11899893D01*
X-17149786Y-11899893D01*
X-17127872Y-12122391D01*
X-17062971Y-12336339D01*
X-16957578Y-12533515D01*
X-16815743Y-12706341D01*
X-16642917Y-12848176D01*
X-16445741Y-12953569D01*
X-16231793Y-13018470D01*
X-16009295Y-13040384D01*
X-15786797Y-13018470D01*
X-15572849Y-12953569D01*
X-15375673Y-12848176D01*
X-15246152Y-12741881D01*
X-14743043Y-12238772D01*
X-14676682Y-12157911D01*
X-6585000Y-12157911D01*
X-6585000Y-12342089D01*
X-6549068Y-12522729D01*
X-6478586Y-12692889D01*
X-6376262Y-12846028D01*
X-6246028Y-12976262D01*
X-6092889Y-13078586D01*
X-5922729Y-13149068D01*
X-5742089Y-13185000D01*
X-5557911Y-13185000D01*
X-5377271Y-13149068D01*
X-5207111Y-13078586D01*
X-5053972Y-12976262D01*
X-4923738Y-12846028D01*
X-4821414Y-12692889D01*
X-4750932Y-12522729D01*
X-4715000Y-12342089D01*
X-4715000Y-12157911D01*
X-4750932Y-11977271D01*
X-4821414Y-11807111D01*
X-4923738Y-11653972D01*
X-5053972Y-11523738D01*
X-5207111Y-11421414D01*
X-5377271Y-11350932D01*
X-5557911Y-11315000D01*
X-5742089Y-11315000D01*
X-5922729Y-11350932D01*
X-6092889Y-11421414D01*
X-6246028Y-11523738D01*
X-6376262Y-11653972D01*
X-6478586Y-11807111D01*
X-6549068Y-11977271D01*
X-6585000Y-12157911D01*
X-14676682Y-12157911D01*
X-14636747Y-12109251D01*
X-14531355Y-11912075D01*
X-14466454Y-11698128D01*
X-14444540Y-11475629D01*
X-14466454Y-11253131D01*
X-14495338Y-11157911D01*
X-2810000Y-11157911D01*
X-2810000Y-11342089D01*
X-2774068Y-11522729D01*
X-2703586Y-11692889D01*
X-2601262Y-11846028D01*
X-2471028Y-11976262D01*
X-2317889Y-12078586D01*
X-2147729Y-12149068D01*
X-1967089Y-12185000D01*
X-1782911Y-12185000D01*
X-1602271Y-12149068D01*
X-1432111Y-12078586D01*
X-1278972Y-11976262D01*
X-1250000Y-11947290D01*
X-1221028Y-11976262D01*
X-1067889Y-12078586D01*
X-897729Y-12149068D01*
X-717089Y-12185000D01*
X-532911Y-12185000D01*
X-352271Y-12149068D01*
X-182111Y-12078586D01*
X-28972Y-11976262D01*
X0Y-11947290D01*
X28972Y-11976262D01*
X182111Y-12078586D01*
X352271Y-12149068D01*
X532911Y-12185000D01*
X717089Y-12185000D01*
X897729Y-12149068D01*
X1067889Y-12078586D01*
X1221028Y-11976262D01*
X1250000Y-11947290D01*
X1278972Y-11976262D01*
X1432111Y-12078586D01*
X1602271Y-12149068D01*
X1782911Y-12185000D01*
X1967089Y-12185000D01*
X2147729Y-12149068D01*
X2198806Y-12127911D01*
X4695000Y-12127911D01*
X4695000Y-12312089D01*
X4730932Y-12492729D01*
X4801414Y-12662889D01*
X4903738Y-12816028D01*
X5033972Y-12946262D01*
X5187111Y-13048586D01*
X5357271Y-13119068D01*
X5537911Y-13155000D01*
X5722089Y-13155000D01*
X5902729Y-13119068D01*
X6072889Y-13048586D01*
X6226028Y-12946262D01*
X6356262Y-12816028D01*
X6458586Y-12662889D01*
X6529068Y-12492729D01*
X6565000Y-12312089D01*
X6565000Y-12127911D01*
X6529068Y-11947271D01*
X6489806Y-11852484D01*
X6602271Y-11899068D01*
X6782911Y-11935000D01*
X6967089Y-11935000D01*
X7147729Y-11899068D01*
X7317889Y-11828586D01*
X7471028Y-11726262D01*
X7601262Y-11596028D01*
X7681709Y-11475629D01*
X14444540Y-11475629D01*
X14466454Y-11698127D01*
X14531355Y-11912075D01*
X14636748Y-12109251D01*
X14743043Y-12238772D01*
X15246152Y-12741881D01*
X15375673Y-12848177D01*
X15572849Y-12953569D01*
X15786796Y-13018470D01*
X16009295Y-13040384D01*
X16231793Y-13018470D01*
X16445741Y-12953569D01*
X16642917Y-12848177D01*
X16815743Y-12706341D01*
X16957579Y-12533515D01*
X17062971Y-12336339D01*
X17127872Y-12122391D01*
X17149786Y-11899893D01*
X17127872Y-11677394D01*
X17062971Y-11463447D01*
X16957579Y-11266271D01*
X16851283Y-11136750D01*
X16348174Y-10633641D01*
X16218653Y-10527346D01*
X16021477Y-10421953D01*
X15807529Y-10357052D01*
X15585031Y-10335138D01*
X15362533Y-10357052D01*
X15148585Y-10421953D01*
X14951409Y-10527346D01*
X14778583Y-10669181D01*
X14636748Y-10842007D01*
X14531355Y-11039183D01*
X14466454Y-11253131D01*
X14444540Y-11475629D01*
X7681709Y-11475629D01*
X7703586Y-11442889D01*
X7774068Y-11272729D01*
X7810000Y-11092089D01*
X7810000Y-10907911D01*
X7774068Y-10727271D01*
X7703586Y-10557111D01*
X7601262Y-10403972D01*
X7471028Y-10273738D01*
X7317889Y-10171414D01*
X7147729Y-10100932D01*
X6967089Y-10065000D01*
X6782911Y-10065000D01*
X6602271Y-10100932D01*
X6432111Y-10171414D01*
X6278972Y-10273738D01*
X6148738Y-10403972D01*
X6046414Y-10557111D01*
X5975932Y-10727271D01*
X5940000Y-10907911D01*
X5940000Y-11092089D01*
X5975932Y-11272729D01*
X6015194Y-11367516D01*
X5902729Y-11320932D01*
X5722089Y-11285000D01*
X5537911Y-11285000D01*
X5357271Y-11320932D01*
X5187111Y-11391414D01*
X5033972Y-11493738D01*
X4903738Y-11623972D01*
X4801414Y-11777111D01*
X4730932Y-11947271D01*
X4695000Y-12127911D01*
X2198806Y-12127911D01*
X2317889Y-12078586D01*
X2471028Y-11976262D01*
X2601262Y-11846028D01*
X2703586Y-11692889D01*
X2774068Y-11522729D01*
X2810000Y-11342089D01*
X2810000Y-11157911D01*
X2774068Y-10977271D01*
X2703586Y-10807111D01*
X2601262Y-10653972D01*
X2471028Y-10523738D01*
X2317889Y-10421414D01*
X2147729Y-10350932D01*
X1967089Y-10315000D01*
X1782911Y-10315000D01*
X1602271Y-10350932D01*
X1432111Y-10421414D01*
X1278972Y-10523738D01*
X1250000Y-10552710D01*
X1221028Y-10523738D01*
X1067889Y-10421414D01*
X897729Y-10350932D01*
X717089Y-10315000D01*
X532911Y-10315000D01*
X352271Y-10350932D01*
X182111Y-10421414D01*
X28972Y-10523738D01*
X0Y-10552710D01*
X-28972Y-10523738D01*
X-158037Y-10437500D01*
X-28972Y-10351262D01*
X101262Y-10221028D01*
X203586Y-10067889D01*
X222000Y-10023432D01*
X11245061Y-10023432D01*
X11245061Y-10212536D01*
X11281953Y-10398006D01*
X11354320Y-10572715D01*
X11459380Y-10729948D01*
X11593097Y-10863665D01*
X11750330Y-10968725D01*
X11925039Y-11041092D01*
X12110509Y-11077984D01*
X12299613Y-11077984D01*
X12485083Y-11041092D01*
X12659792Y-10968725D01*
X12817025Y-10863665D01*
X12950742Y-10729948D01*
X13055802Y-10572715D01*
X13128169Y-10398006D01*
X13156772Y-10254206D01*
X13230366Y-10261454D01*
X13452865Y-10239540D01*
X13666812Y-10174639D01*
X13863988Y-10069247D01*
X14036815Y-9927412D01*
X14178650Y-9754585D01*
X14284042Y-9557409D01*
X14348943Y-9343462D01*
X14370857Y-9120963D01*
X14348943Y-8898464D01*
X14284042Y-8684516D01*
X14178650Y-8487340D01*
X14072354Y-8357819D01*
X13215691Y-7501157D01*
X13086170Y-7394862D01*
X12888994Y-7289469D01*
X12675046Y-7224568D01*
X12452548Y-7202654D01*
X12230050Y-7224568D01*
X12016102Y-7289469D01*
X11818926Y-7394862D01*
X11646100Y-7536697D01*
X11504265Y-7709523D01*
X11398872Y-7906699D01*
X11333971Y-8120647D01*
X11312057Y-8343145D01*
X11333971Y-8565643D01*
X11398872Y-8779591D01*
X11504265Y-8976767D01*
X11610560Y-9106288D01*
X11765310Y-9261038D01*
X11750330Y-9267243D01*
X11593097Y-9372303D01*
X11459380Y-9506020D01*
X11354320Y-9663253D01*
X11281953Y-9837962D01*
X11245061Y-10023432D01*
X222000Y-10023432D01*
X274068Y-9897729D01*
X310000Y-9717089D01*
X310000Y-9532911D01*
X274068Y-9352271D01*
X203586Y-9182111D01*
X101262Y-9028972D01*
X-28972Y-8898738D01*
X-182111Y-8796414D01*
X-214710Y-8782911D01*
X7815000Y-8782911D01*
X7815000Y-8967089D01*
X7850932Y-9147729D01*
X7921414Y-9317889D01*
X8023738Y-9471028D01*
X8153972Y-9601262D01*
X8307111Y-9703586D01*
X8477271Y-9774068D01*
X8657911Y-9810000D01*
X8842089Y-9810000D01*
X9022729Y-9774068D01*
X9192889Y-9703586D01*
X9346028Y-9601262D01*
X9476262Y-9471028D01*
X9578586Y-9317889D01*
X9649068Y-9147729D01*
X9685000Y-8967089D01*
X9685000Y-8782911D01*
X9649068Y-8602271D01*
X9578586Y-8432111D01*
X9476262Y-8278972D01*
X9346028Y-8148738D01*
X9192889Y-8046414D01*
X9022729Y-7975932D01*
X8842089Y-7940000D01*
X8657911Y-7940000D01*
X8477271Y-7975932D01*
X8307111Y-8046414D01*
X8153972Y-8148738D01*
X8023738Y-8278972D01*
X7921414Y-8432111D01*
X7850932Y-8602271D01*
X7815000Y-8782911D01*
X-214710Y-8782911D01*
X-352271Y-8725932D01*
X-532911Y-8690000D01*
X-717089Y-8690000D01*
X-897729Y-8725932D01*
X-1067889Y-8796414D01*
X-1221028Y-8898738D01*
X-1351262Y-9028972D01*
X-1453586Y-9182111D01*
X-1524068Y-9352271D01*
X-1560000Y-9532911D01*
X-1560000Y-9543146D01*
X-1567889Y-9546414D01*
X-1721028Y-9648738D01*
X-1851262Y-9778972D01*
X-1953586Y-9932111D01*
X-2024068Y-10102271D01*
X-2060000Y-10282911D01*
X-2060000Y-10333481D01*
X-2147729Y-10350932D01*
X-2317889Y-10421414D01*
X-2471028Y-10523738D01*
X-2601262Y-10653972D01*
X-2703586Y-10807111D01*
X-2774068Y-10977271D01*
X-2810000Y-11157911D01*
X-14495338Y-11157911D01*
X-14531355Y-11039183D01*
X-14636747Y-10842007D01*
X-14778583Y-10669181D01*
X-14951409Y-10527345D01*
X-15148585Y-10421953D01*
X-15362533Y-10357052D01*
X-15585031Y-10335138D01*
X-15807530Y-10357052D01*
X-16021477Y-10421953D01*
X-16218653Y-10527345D01*
X-16348174Y-10633641D01*
X-16851283Y-11136750D01*
X-16957578Y-11266271D01*
X-17062971Y-11463447D01*
X-17127872Y-11677395D01*
X-17149786Y-11899893D01*
X-19131370Y-11899893D01*
X-19546148Y-11485116D01*
X-18599745Y-9120963D01*
X-14370857Y-9120963D01*
X-14348943Y-9343461D01*
X-14284042Y-9557409D01*
X-14178649Y-9754585D01*
X-14036814Y-9927411D01*
X-13863988Y-10069246D01*
X-13666812Y-10174639D01*
X-13452864Y-10239540D01*
X-13230366Y-10261454D01*
X-13156772Y-10254206D01*
X-13128169Y-10398006D01*
X-13055802Y-10572715D01*
X-12950742Y-10729948D01*
X-12817025Y-10863665D01*
X-12659792Y-10968725D01*
X-12485083Y-11041092D01*
X-12299613Y-11077984D01*
X-12110509Y-11077984D01*
X-11925039Y-11041092D01*
X-11750330Y-10968725D01*
X-11593097Y-10863665D01*
X-11459380Y-10729948D01*
X-11354320Y-10572715D01*
X-11281953Y-10398006D01*
X-11245061Y-10212536D01*
X-11245061Y-10023432D01*
X-11281953Y-9837962D01*
X-11354320Y-9663253D01*
X-11459380Y-9506020D01*
X-11593097Y-9372303D01*
X-11750330Y-9267243D01*
X-11765309Y-9261038D01*
X-11610560Y-9106289D01*
X-11504264Y-8976768D01*
X-11398872Y-8779592D01*
X-11333971Y-8565644D01*
X-11312057Y-8343145D01*
X-11333971Y-8120646D01*
X-11398872Y-7906699D01*
X-11504264Y-7709523D01*
X-11646099Y-7536696D01*
X-11790839Y-7417911D01*
X-11045000Y-7417911D01*
X-11045000Y-7602089D01*
X-11009068Y-7782729D01*
X-10938586Y-7952889D01*
X-10836262Y-8106028D01*
X-10706028Y-8236262D01*
X-10552889Y-8338586D01*
X-10382729Y-8409068D01*
X-10202089Y-8445000D01*
X-10017911Y-8445000D01*
X-9837271Y-8409068D01*
X-9667111Y-8338586D01*
X-9513972Y-8236262D01*
X-9383738Y-8106028D01*
X-9281414Y-7952889D01*
X-9210932Y-7782729D01*
X-9175000Y-7602089D01*
X-9175000Y-7587911D01*
X9335000Y-7587911D01*
X9335000Y-7772089D01*
X9370932Y-7952729D01*
X9441414Y-8122889D01*
X9543738Y-8276028D01*
X9673972Y-8406262D01*
X9827111Y-8508586D01*
X9997271Y-8579068D01*
X10177911Y-8615000D01*
X10362089Y-8615000D01*
X10542729Y-8579068D01*
X10712889Y-8508586D01*
X10866028Y-8406262D01*
X10996262Y-8276028D01*
X11098586Y-8122889D01*
X11169068Y-7952729D01*
X11205000Y-7772089D01*
X11205000Y-7587911D01*
X11169068Y-7407271D01*
X11098586Y-7237111D01*
X10996262Y-7083972D01*
X10866028Y-6953738D01*
X10712889Y-6851414D01*
X10542729Y-6780932D01*
X10362089Y-6745000D01*
X10177911Y-6745000D01*
X9997271Y-6780932D01*
X9827111Y-6851414D01*
X9673972Y-6953738D01*
X9543738Y-7083972D01*
X9441414Y-7237111D01*
X9370932Y-7407271D01*
X9335000Y-7587911D01*
X-9175000Y-7587911D01*
X-9175000Y-7417911D01*
X-9210932Y-7237271D01*
X-9281414Y-7067111D01*
X-9383738Y-6913972D01*
X-9513972Y-6783738D01*
X-9667111Y-6681414D01*
X-9837271Y-6610932D01*
X-10017911Y-6575000D01*
X-10202089Y-6575000D01*
X-10382729Y-6610932D01*
X-10552889Y-6681414D01*
X-10706028Y-6783738D01*
X-10836262Y-6913972D01*
X-10938586Y-7067111D01*
X-11009068Y-7237271D01*
X-11045000Y-7417911D01*
X-11790839Y-7417911D01*
X-11818926Y-7394861D01*
X-12016102Y-7289469D01*
X-12230049Y-7224568D01*
X-12452548Y-7202654D01*
X-12675047Y-7224568D01*
X-12888995Y-7289469D01*
X-13086171Y-7394861D01*
X-13215692Y-7501157D01*
X-14072354Y-8357820D01*
X-14178649Y-8487341D01*
X-14284042Y-8684517D01*
X-14348943Y-8898465D01*
X-14370857Y-9120963D01*
X-18599745Y-9120963D01*
X-17509670Y-6397911D01*
X-7995000Y-6397911D01*
X-7995000Y-6582089D01*
X-7959068Y-6762729D01*
X-7888586Y-6932889D01*
X-7786262Y-7086028D01*
X-7656028Y-7216262D01*
X-7502889Y-7318586D01*
X-7332729Y-7389068D01*
X-7152089Y-7425000D01*
X-6967911Y-7425000D01*
X-6787271Y-7389068D01*
X-6617111Y-7318586D01*
X-6463972Y-7216262D01*
X-6333738Y-7086028D01*
X-6231414Y-6932889D01*
X-6160932Y-6762729D01*
X-6125000Y-6582089D01*
X-6125000Y-6397911D01*
X-6160932Y-6217271D01*
X-6231414Y-6047111D01*
X-6333738Y-5893972D01*
X-6463972Y-5763738D01*
X-6617111Y-5661414D01*
X-6787271Y-5590932D01*
X-6967911Y-5555000D01*
X-7152089Y-5555000D01*
X-7332729Y-5590932D01*
X-7502889Y-5661414D01*
X-7656028Y-5763738D01*
X-7786262Y-5893972D01*
X-7888586Y-6047111D01*
X-7959068Y-6217271D01*
X-7995000Y-6397911D01*
X-17509670Y-6397911D01*
X-16863162Y-4782911D01*
X-16060000Y-4782911D01*
X-16060000Y-4967089D01*
X-16024068Y-5147729D01*
X-15953586Y-5317889D01*
X-15851262Y-5471028D01*
X-15721028Y-5601262D01*
X-15567889Y-5703586D01*
X-15397729Y-5774068D01*
X-15217089Y-5810000D01*
X-15032911Y-5810000D01*
X-14852271Y-5774068D01*
X-14682111Y-5703586D01*
X-14528972Y-5601262D01*
X-14398738Y-5471028D01*
X-14296414Y-5317889D01*
X-14225932Y-5147729D01*
X-14190000Y-4967089D01*
X-14190000Y-4782911D01*
X-14225932Y-4602271D01*
X-14296414Y-4432111D01*
X-14398738Y-4278972D01*
X-14528972Y-4148738D01*
X-14682111Y-4046414D01*
X-14852271Y-3975932D01*
X-15032911Y-3940000D01*
X-15217089Y-3940000D01*
X-15397729Y-3975932D01*
X-15567889Y-4046414D01*
X-15721028Y-4148738D01*
X-15851262Y-4278972D01*
X-15953586Y-4432111D01*
X-16024068Y-4602271D01*
X-16060000Y-4782911D01*
X-16863162Y-4782911D01*
X-16462848Y-3782911D01*
X-11810000Y-3782911D01*
X-11810000Y-3967089D01*
X-11774068Y-4147729D01*
X-11703586Y-4317889D01*
X-11601262Y-4471028D01*
X-11471028Y-4601262D01*
X-11317889Y-4703586D01*
X-11147729Y-4774068D01*
X-10967089Y-4810000D01*
X-10782911Y-4810000D01*
X-10602271Y-4774068D01*
X-10432111Y-4703586D01*
X-10278972Y-4601262D01*
X-10185621Y-4507911D01*
X-7235000Y-4507911D01*
X-7235000Y-4692089D01*
X-7199068Y-4872729D01*
X-7128586Y-5042889D01*
X-7026262Y-5196028D01*
X-6896028Y-5326262D01*
X-6742889Y-5428586D01*
X-6572729Y-5499068D01*
X-6392089Y-5535000D01*
X-6207911Y-5535000D01*
X-6027271Y-5499068D01*
X-5857111Y-5428586D01*
X-5703972Y-5326262D01*
X-5573738Y-5196028D01*
X-5471414Y-5042889D01*
X-5400932Y-4872729D01*
X-5383066Y-4782911D01*
X-3685000Y-4782911D01*
X-3685000Y-4967089D01*
X-3649068Y-5147729D01*
X-3578586Y-5317889D01*
X-3476262Y-5471028D01*
X-3346028Y-5601262D01*
X-3192889Y-5703586D01*
X-3022729Y-5774068D01*
X-2842089Y-5810000D01*
X-2657911Y-5810000D01*
X-2477271Y-5774068D01*
X-2310000Y-5704783D01*
X-2310000Y-5717089D01*
X-2274068Y-5897729D01*
X-2203586Y-6067889D01*
X-2101262Y-6221028D01*
X-1971028Y-6351262D01*
X-1817889Y-6453586D01*
X-1647729Y-6524068D01*
X-1467089Y-6560000D01*
X-1282911Y-6560000D01*
X-1102271Y-6524068D01*
X-932111Y-6453586D01*
X-778972Y-6351262D01*
X-648738Y-6221028D01*
X-546414Y-6067889D01*
X-475932Y-5897729D01*
X-440000Y-5717089D01*
X-440000Y-5532911D01*
X-475932Y-5352271D01*
X-546414Y-5182111D01*
X-648738Y-5028972D01*
X-778972Y-4898738D01*
X-932111Y-4796414D01*
X-964710Y-4782911D01*
X190000Y-4782911D01*
X190000Y-4967089D01*
X225932Y-5147729D01*
X296414Y-5317889D01*
X398738Y-5471028D01*
X528972Y-5601262D01*
X682111Y-5703586D01*
X852271Y-5774068D01*
X1032911Y-5810000D01*
X1065000Y-5810000D01*
X1065000Y-5842089D01*
X1100932Y-6022729D01*
X1171414Y-6192889D01*
X1273738Y-6346028D01*
X1403972Y-6476262D01*
X1557111Y-6578586D01*
X1727271Y-6649068D01*
X1907911Y-6685000D01*
X2092089Y-6685000D01*
X2190000Y-6665524D01*
X2190000Y-6717089D01*
X2225932Y-6897729D01*
X2296414Y-7067889D01*
X2398738Y-7221028D01*
X2528972Y-7351262D01*
X2682111Y-7453586D01*
X2852271Y-7524068D01*
X3032911Y-7560000D01*
X3217089Y-7560000D01*
X3397729Y-7524068D01*
X3567889Y-7453586D01*
X3721028Y-7351262D01*
X3851262Y-7221028D01*
X3953586Y-7067889D01*
X4024068Y-6897729D01*
X4060000Y-6717089D01*
X4060000Y-6532911D01*
X4024068Y-6352271D01*
X3953586Y-6182111D01*
X3851262Y-6028972D01*
X3721028Y-5898738D01*
X3567889Y-5796414D01*
X3397729Y-5725932D01*
X3217089Y-5690000D01*
X3032911Y-5690000D01*
X2935000Y-5709476D01*
X2935000Y-5657911D01*
X4065000Y-5657911D01*
X4065000Y-5842089D01*
X4100932Y-6022729D01*
X4171414Y-6192889D01*
X4273738Y-6346028D01*
X4403972Y-6476262D01*
X4557111Y-6578586D01*
X4727271Y-6649068D01*
X4907911Y-6685000D01*
X5092089Y-6685000D01*
X5272729Y-6649068D01*
X5442889Y-6578586D01*
X5596028Y-6476262D01*
X5726262Y-6346028D01*
X5828586Y-6192889D01*
X5899068Y-6022729D01*
X5935000Y-5842089D01*
X5935000Y-5657911D01*
X5899068Y-5477271D01*
X5828586Y-5307111D01*
X5726262Y-5153972D01*
X5596028Y-5023738D01*
X5442889Y-4921414D01*
X5272729Y-4850932D01*
X5092089Y-4815000D01*
X4907911Y-4815000D01*
X4727271Y-4850932D01*
X4557111Y-4921414D01*
X4403972Y-5023738D01*
X4273738Y-5153972D01*
X4171414Y-5307111D01*
X4100932Y-5477271D01*
X4065000Y-5657911D01*
X2935000Y-5657911D01*
X2899068Y-5477271D01*
X2828586Y-5307111D01*
X2726262Y-5153972D01*
X2596028Y-5023738D01*
X2442889Y-4921414D01*
X2272729Y-4850932D01*
X2092089Y-4815000D01*
X2060000Y-4815000D01*
X2060000Y-4782911D01*
X2024068Y-4602271D01*
X1953586Y-4432111D01*
X1851262Y-4278972D01*
X1721028Y-4148738D01*
X1567889Y-4046414D01*
X1397729Y-3975932D01*
X1217089Y-3940000D01*
X1032911Y-3940000D01*
X852271Y-3975932D01*
X682111Y-4046414D01*
X528972Y-4148738D01*
X398738Y-4278972D01*
X296414Y-4432111D01*
X225932Y-4602271D01*
X190000Y-4782911D01*
X-964710Y-4782911D01*
X-1102271Y-4725932D01*
X-1282911Y-4690000D01*
X-1467089Y-4690000D01*
X-1647729Y-4725932D01*
X-1815000Y-4795217D01*
X-1815000Y-4782911D01*
X-1850932Y-4602271D01*
X-1921414Y-4432111D01*
X-2023738Y-4278972D01*
X-2153972Y-4148738D01*
X-2307111Y-4046414D01*
X-2477271Y-3975932D01*
X-2657911Y-3940000D01*
X-2842089Y-3940000D01*
X-3022729Y-3975932D01*
X-3192889Y-4046414D01*
X-3346028Y-4148738D01*
X-3476262Y-4278972D01*
X-3578586Y-4432111D01*
X-3649068Y-4602271D01*
X-3685000Y-4782911D01*
X-5383066Y-4782911D01*
X-5365000Y-4692089D01*
X-5365000Y-4507911D01*
X-5400932Y-4327271D01*
X-5471414Y-4157111D01*
X-5573738Y-4003972D01*
X-5703972Y-3873738D01*
X-5857111Y-3771414D01*
X-6027271Y-3700932D01*
X-6207911Y-3665000D01*
X-6392089Y-3665000D01*
X-6572729Y-3700932D01*
X-6742889Y-3771414D01*
X-6896028Y-3873738D01*
X-7026262Y-4003972D01*
X-7128586Y-4157111D01*
X-7199068Y-4327271D01*
X-7235000Y-4507911D01*
X-10185621Y-4507911D01*
X-10148738Y-4471028D01*
X-10046414Y-4317889D01*
X-9975932Y-4147729D01*
X-9940000Y-3967089D01*
X-9940000Y-3782911D01*
X-9975932Y-3602271D01*
X-10046414Y-3432111D01*
X-10148738Y-3278972D01*
X-10278972Y-3148738D01*
X-10432111Y-3046414D01*
X-10602271Y-2975932D01*
X-10782911Y-2940000D01*
X-10967089Y-2940000D01*
X-11147729Y-2975932D01*
X-11317889Y-3046414D01*
X-11471028Y-3148738D01*
X-11601262Y-3278972D01*
X-11703586Y-3432111D01*
X-11774068Y-3602271D01*
X-11810000Y-3782911D01*
X-16462848Y-3782911D01*
X-15990663Y-2603376D01*
X-15953586Y-2692889D01*
X-15851262Y-2846028D01*
X-15721028Y-2976262D01*
X-15567889Y-3078586D01*
X-15397729Y-3149068D01*
X-15217089Y-3185000D01*
X-15032911Y-3185000D01*
X-14852271Y-3149068D01*
X-14682111Y-3078586D01*
X-14528972Y-2976262D01*
X-14398738Y-2846028D01*
X-14296414Y-2692889D01*
X-14225932Y-2522729D01*
X-14190000Y-2342089D01*
X-14190000Y-2157911D01*
X-14225932Y-1977271D01*
X-14296414Y-1807111D01*
X-14398738Y-1653972D01*
X-14528972Y-1523738D01*
X-14682111Y-1421414D01*
X-14852271Y-1350932D01*
X-15032911Y-1315000D01*
X-15217089Y-1315000D01*
X-15397729Y-1350932D01*
X-15507492Y-1396397D01*
X-15211866Y-657911D01*
X-11810001Y-657911D01*
X-11810001Y-842089D01*
X-11774069Y-1022729D01*
X-11703587Y-1192889D01*
X-11601263Y-1346028D01*
X-11471029Y-1476262D01*
X-11317890Y-1578586D01*
X-11147730Y-1649068D01*
X-10967090Y-1685000D01*
X-10782912Y-1685000D01*
X-10602272Y-1649068D01*
X-10432112Y-1578586D01*
X-10431102Y-1577911D01*
X-9005000Y-1577911D01*
X-9005000Y-1762089D01*
X-8969068Y-1942729D01*
X-8898586Y-2112889D01*
X-8796262Y-2266028D01*
X-8666028Y-2396262D01*
X-8512889Y-2498586D01*
X-8342729Y-2569068D01*
X-8162089Y-2605000D01*
X-7977911Y-2605000D01*
X-7797271Y-2569068D01*
X-7627111Y-2498586D01*
X-7473972Y-2396262D01*
X-7343738Y-2266028D01*
X-7241414Y-2112889D01*
X-7170932Y-1942729D01*
X-7135000Y-1762089D01*
X-7135000Y-1577911D01*
X-7170932Y-1397271D01*
X-7241414Y-1227111D01*
X-7343738Y-1073972D01*
X-7473972Y-943738D01*
X-7627111Y-841414D01*
X-7797271Y-770932D01*
X-7977911Y-735000D01*
X-8162089Y-735000D01*
X-8342729Y-770932D01*
X-8512889Y-841414D01*
X-8666028Y-943738D01*
X-8796262Y-1073972D01*
X-8898586Y-1227111D01*
X-8969068Y-1397271D01*
X-9005000Y-1577911D01*
X-10431102Y-1577911D01*
X-10278973Y-1476262D01*
X-10148739Y-1346028D01*
X-10046415Y-1192889D01*
X-9975933Y-1022729D01*
X-9940001Y-842089D01*
X-9940001Y-657911D01*
X-9975933Y-477271D01*
X-10046415Y-307111D01*
X-10148739Y-153972D01*
X-10278973Y-23738D01*
X-10432112Y78586D01*
X-10464711Y92089D01*
X-6560000Y92089D01*
X-6560000Y-92089D01*
X-6524068Y-272729D01*
X-6453586Y-442889D01*
X-6351262Y-596028D01*
X-6221028Y-726262D01*
X-6067889Y-828586D01*
X-5897729Y-899068D01*
X-5891792Y-900249D01*
X-5942889Y-921414D01*
X-6096028Y-1023738D01*
X-6226262Y-1153972D01*
X-6328586Y-1307111D01*
X-6399068Y-1477271D01*
X-6435000Y-1657911D01*
X-6435000Y-1842089D01*
X-6399068Y-2022729D01*
X-6379177Y-2070750D01*
X-6453586Y-2182111D01*
X-6524068Y-2352271D01*
X-6560000Y-2532911D01*
X-6560000Y-2717089D01*
X-6524068Y-2897729D01*
X-6453586Y-3067889D01*
X-6351262Y-3221028D01*
X-6221028Y-3351262D01*
X-6067889Y-3453586D01*
X-5897729Y-3524068D01*
X-5717089Y-3560000D01*
X-5532911Y-3560000D01*
X-5352271Y-3524068D01*
X-5182111Y-3453586D01*
X-5028972Y-3351262D01*
X-4898738Y-3221028D01*
X-4796414Y-3067889D01*
X-4725932Y-2897729D01*
X-4690000Y-2717089D01*
X-4690000Y-2532911D01*
X-4725932Y-2352271D01*
X-4745823Y-2304250D01*
X-4671414Y-2192889D01*
X-4600932Y-2022729D01*
X-4565000Y-1842089D01*
X-4565000Y-1657911D01*
X-4600932Y-1477271D01*
X-4671414Y-1307111D01*
X-4773738Y-1153972D01*
X-4903972Y-1023738D01*
X-5057111Y-921414D01*
X-5077180Y-913101D01*
X-4967089Y-935000D01*
X-4782911Y-935000D01*
X-4602271Y-899068D01*
X-4432111Y-828586D01*
X-4278972Y-726262D01*
X-4148738Y-596028D01*
X-4046414Y-442889D01*
X-3975932Y-272729D01*
X-3940000Y-92089D01*
X-3940000Y92089D01*
X-3975932Y272729D01*
X-4046414Y442889D01*
X-4148738Y596028D01*
X-4278972Y726262D01*
X-4432111Y828586D01*
X-4602271Y899068D01*
X-4782911Y935000D01*
X-4967089Y935000D01*
X-5147729Y899068D01*
X-5250000Y856706D01*
X-5352271Y899068D01*
X-5532911Y935000D01*
X-5717089Y935000D01*
X-5897729Y899068D01*
X-6067889Y828586D01*
X-6221028Y726262D01*
X-6351262Y596028D01*
X-6453586Y442889D01*
X-6524068Y272729D01*
X-6560000Y92089D01*
X-10464711Y92089D01*
X-10602272Y149068D01*
X-10782912Y185000D01*
X-10967090Y185000D01*
X-11147730Y149068D01*
X-11317890Y78586D01*
X-11471029Y-23738D01*
X-11601263Y-153972D01*
X-11703587Y-307111D01*
X-11774069Y-477271D01*
X-11810001Y-657911D01*
X-15211866Y-657911D01*
X-14483605Y1161315D01*
X-14471028Y1148738D01*
X-14317889Y1046414D01*
X-14147729Y975932D01*
X-13967089Y940000D01*
X-13782911Y940000D01*
X-13602271Y975932D01*
X-13432111Y1046414D01*
X-13278972Y1148738D01*
X-13148738Y1278972D01*
X-13046414Y1432111D01*
X-12975932Y1602271D01*
X-12940000Y1782911D01*
X-12940000Y1967089D01*
X-12975932Y2147729D01*
X-13046414Y2317889D01*
X-13148738Y2471028D01*
X-13269799Y2592089D01*
X-10435000Y2592089D01*
X-10435000Y2407911D01*
X-10399068Y2227271D01*
X-10328586Y2057111D01*
X-10226262Y1903972D01*
X-10096028Y1773738D01*
X-9942889Y1671414D01*
X-9772729Y1600932D01*
X-9592089Y1565000D01*
X-9407911Y1565000D01*
X-9227271Y1600932D01*
X-9057111Y1671414D01*
X-8903972Y1773738D01*
X-8773738Y1903972D01*
X-8671414Y2057111D01*
X-8600932Y2227271D01*
X-8565000Y2407911D01*
X-8565000Y2592089D01*
X-8600932Y2772729D01*
X-8671414Y2942889D01*
X-8773738Y3096028D01*
X-8903972Y3226262D01*
X-9057111Y3328586D01*
X-9227271Y3399068D01*
X-9407911Y3435000D01*
X-9592089Y3435000D01*
X-9772729Y3399068D01*
X-9942889Y3328586D01*
X-10096028Y3226262D01*
X-10226262Y3096028D01*
X-10328586Y2942889D01*
X-10399068Y2772729D01*
X-10435000Y2592089D01*
X-13269799Y2592089D01*
X-13278972Y2601262D01*
X-13432111Y2703586D01*
X-13602271Y2774068D01*
X-13782911Y2810000D01*
X-13823613Y2810000D01*
X-12660666Y5715088D01*
X-12437001Y5715088D01*
X-12437001Y5530910D01*
X-12401069Y5350270D01*
X-12330587Y5180110D01*
X-12228263Y5026971D01*
X-12098029Y4896737D01*
X-11944890Y4794413D01*
X-11774730Y4723931D01*
X-11594090Y4687999D01*
X-11409912Y4687999D01*
X-11229272Y4723931D01*
X-11059112Y4794413D01*
X-10905973Y4896737D01*
X-10775739Y5026971D01*
X-10673415Y5180110D01*
X-10602933Y5350270D01*
X-10567001Y5530910D01*
X-10567001Y5592089D01*
X-6560000Y5592089D01*
X-6560000Y5407911D01*
X-6524068Y5227271D01*
X-6453586Y5057111D01*
X-6351262Y4903972D01*
X-6221028Y4773738D01*
X-6067889Y4671414D01*
X-5897729Y4600932D01*
X-5717089Y4565000D01*
X-5532911Y4565000D01*
X-5352271Y4600932D01*
X-5182111Y4671414D01*
X-5028972Y4773738D01*
X-4898738Y4903972D01*
X-4796414Y5057111D01*
X-4725932Y5227271D01*
X-4690000Y5407911D01*
X-4690000Y5592089D01*
X-4725932Y5772729D01*
X-4796414Y5942889D01*
X-4898738Y6096028D01*
X-5028972Y6226262D01*
X-5182111Y6328586D01*
X-5352271Y6399068D01*
X-5532911Y6435000D01*
X-5717089Y6435000D01*
X-5897729Y6399068D01*
X-6067889Y6328586D01*
X-6221028Y6226262D01*
X-6351262Y6096028D01*
X-6453586Y5942889D01*
X-6524068Y5772729D01*
X-6560000Y5592089D01*
X-10567001Y5592089D01*
X-10567001Y5715088D01*
X-10602933Y5895728D01*
X-10673415Y6065888D01*
X-10775739Y6219027D01*
X-10905973Y6349261D01*
X-11059112Y6451585D01*
X-11229272Y6522067D01*
X-11409912Y6557999D01*
X-11594090Y6557999D01*
X-11774730Y6522067D01*
X-11944890Y6451585D01*
X-12098029Y6349261D01*
X-12228263Y6219027D01*
X-12330587Y6065888D01*
X-12401069Y5895728D01*
X-12437001Y5715088D01*
X-12660666Y5715088D01*
X-11308806Y9092089D01*
X-10685000Y9092089D01*
X-10685000Y8907911D01*
X-10649068Y8727271D01*
X-10578586Y8557111D01*
X-10476262Y8403972D01*
X-10346028Y8273738D01*
X-10192889Y8171414D01*
X-10022729Y8100932D01*
X-9842089Y8065000D01*
X-9657911Y8065000D01*
X-9477271Y8100932D01*
X-9307111Y8171414D01*
X-9153972Y8273738D01*
X-9085621Y8342089D01*
X-6310000Y8342089D01*
X-6310000Y8157911D01*
X-6274068Y7977271D01*
X-6203586Y7807111D01*
X-6101262Y7653972D01*
X-5971028Y7523738D01*
X-5817889Y7421414D01*
X-5647729Y7350932D01*
X-5467089Y7315000D01*
X-5282911Y7315000D01*
X-5102271Y7350932D01*
X-4932111Y7421414D01*
X-4778972Y7523738D01*
X-4648738Y7653972D01*
X-4546414Y7807111D01*
X-4475932Y7977271D01*
X-4440000Y8157911D01*
X-4440000Y8231863D01*
X-3335000Y8231863D01*
X-3335000Y8018137D01*
X-3293304Y7808517D01*
X-3211515Y7611060D01*
X-3092775Y7433353D01*
X-2941647Y7282225D01*
X-2763940Y7163485D01*
X-2566483Y7081696D01*
X-2356863Y7040000D01*
X-2143137Y7040000D01*
X-1933517Y7081696D01*
X-1736060Y7163485D01*
X-1685000Y7197602D01*
X-1685000Y7157911D01*
X-1649068Y6977271D01*
X-1578586Y6807111D01*
X-1476262Y6653972D01*
X-1346028Y6523738D01*
X-1192889Y6421414D01*
X-1022729Y6350932D01*
X-842089Y6315000D01*
X-657911Y6315000D01*
X-477271Y6350932D01*
X-307111Y6421414D01*
X-153972Y6523738D01*
X-23738Y6653972D01*
X78586Y6807111D01*
X149068Y6977271D01*
X185000Y7157911D01*
X185000Y7342089D01*
X149068Y7522729D01*
X78586Y7692889D01*
X-23738Y7846028D01*
X-153972Y7976262D01*
X-307111Y8078586D01*
X-477271Y8149068D01*
X-657911Y8185000D01*
X-842089Y8185000D01*
X-1022729Y8149068D01*
X-1165000Y8090138D01*
X-1165000Y8231863D01*
X-1206696Y8441483D01*
X-1288485Y8638940D01*
X-1407225Y8816647D01*
X-1432667Y8842089D01*
X3440000Y8842089D01*
X3440000Y8657911D01*
X3475932Y8477271D01*
X3546414Y8307111D01*
X3648738Y8153972D01*
X3778972Y8023738D01*
X3932111Y7921414D01*
X4102271Y7850932D01*
X4282911Y7815000D01*
X4467089Y7815000D01*
X4647729Y7850932D01*
X4817889Y7921414D01*
X4971028Y8023738D01*
X5101262Y8153972D01*
X5203586Y8307111D01*
X5274068Y8477271D01*
X5310000Y8657911D01*
X5310000Y8842089D01*
X5274068Y9022729D01*
X5203586Y9192889D01*
X5101262Y9346028D01*
X4971028Y9476262D01*
X4817889Y9578586D01*
X4647729Y9649068D01*
X4467089Y9685000D01*
X4282911Y9685000D01*
X4102271Y9649068D01*
X3932111Y9578586D01*
X3778972Y9476262D01*
X3648738Y9346028D01*
X3546414Y9192889D01*
X3475932Y9022729D01*
X3440000Y8842089D01*
X-1432667Y8842089D01*
X-1558353Y8967775D01*
X-1736060Y9086515D01*
X-1933517Y9168304D01*
X-2143137Y9210000D01*
X-2356863Y9210000D01*
X-2566483Y9168304D01*
X-2763940Y9086515D01*
X-2941647Y8967775D01*
X-3092775Y8816647D01*
X-3211515Y8638940D01*
X-3293304Y8441483D01*
X-3335000Y8231863D01*
X-4440000Y8231863D01*
X-4440000Y8342089D01*
X-4475932Y8522729D01*
X-4546414Y8692889D01*
X-4648738Y8846028D01*
X-4778972Y8976262D01*
X-4932111Y9078586D01*
X-5102271Y9149068D01*
X-5282911Y9185000D01*
X-5467089Y9185000D01*
X-5647729Y9149068D01*
X-5817889Y9078586D01*
X-5971028Y8976262D01*
X-6101262Y8846028D01*
X-6203586Y8692889D01*
X-6274068Y8522729D01*
X-6310000Y8342089D01*
X-9085621Y8342089D01*
X-9023738Y8403972D01*
X-8921414Y8557111D01*
X-8850932Y8727271D01*
X-8815000Y8907911D01*
X-8815000Y9092089D01*
X-8850932Y9272729D01*
X-8921414Y9442889D01*
X-9023738Y9596028D01*
X-9153972Y9726262D01*
X-9307111Y9828586D01*
X-9477271Y9899068D01*
X-9657911Y9935000D01*
X-9842089Y9935000D01*
X-10022729Y9899068D01*
X-10192889Y9828586D01*
X-10346028Y9726262D01*
X-10476262Y9596028D01*
X-10578586Y9442889D01*
X-10649068Y9272729D01*
X-10685000Y9092089D01*
X-11308806Y9092089D01*
X-10807787Y10343656D01*
X-4836567Y10343656D01*
X-4836567Y10159478D01*
X-4800635Y9978838D01*
X-4730153Y9808678D01*
X-4627829Y9655539D01*
X-4497595Y9525305D01*
X-4344456Y9422981D01*
X-4174296Y9352499D01*
X-3993656Y9316567D01*
X-3809478Y9316567D01*
X-3628838Y9352499D01*
X-3458678Y9422981D01*
X-3305539Y9525305D01*
X-3175305Y9655539D01*
X-3072981Y9808678D01*
X-3002499Y9978838D01*
X-2979972Y10092089D01*
X-1685000Y10092089D01*
X-1685000Y9907911D01*
X-1649068Y9727271D01*
X-1578586Y9557111D01*
X-1476262Y9403972D01*
X-1346028Y9273738D01*
X-1192889Y9171414D01*
X-1022729Y9100932D01*
X-842089Y9065000D01*
X-657911Y9065000D01*
X-477271Y9100932D01*
X-307111Y9171414D01*
X-153972Y9273738D01*
X-23738Y9403972D01*
X0Y9439498D01*
X23738Y9403972D01*
X153972Y9273738D01*
X307111Y9171414D01*
X477271Y9100932D01*
X657911Y9065000D01*
X842089Y9065000D01*
X1022729Y9100932D01*
X1192889Y9171414D01*
X1346028Y9273738D01*
X1476262Y9403972D01*
X1578586Y9557111D01*
X1649068Y9727271D01*
X1685000Y9907911D01*
X1685000Y10092089D01*
X1649068Y10272729D01*
X1620339Y10342089D01*
X2315000Y10342089D01*
X2315000Y10157911D01*
X2350932Y9977271D01*
X2421414Y9807111D01*
X2523738Y9653972D01*
X2653972Y9523738D01*
X2807111Y9421414D01*
X2977271Y9350932D01*
X3157911Y9315000D01*
X3342089Y9315000D01*
X3522729Y9350932D01*
X3692889Y9421414D01*
X3846028Y9523738D01*
X3976262Y9653972D01*
X4078586Y9807111D01*
X4149068Y9977271D01*
X4185000Y10157911D01*
X4185000Y10342089D01*
X4149068Y10522729D01*
X4078586Y10692889D01*
X3976262Y10846028D01*
X3846028Y10976262D01*
X3692889Y11078586D01*
X3522729Y11149068D01*
X3342089Y11185000D01*
X3157911Y11185000D01*
X2977271Y11149068D01*
X2807111Y11078586D01*
X2653972Y10976262D01*
X2523738Y10846028D01*
X2421414Y10692889D01*
X2350932Y10522729D01*
X2315000Y10342089D01*
X1620339Y10342089D01*
X1578586Y10442889D01*
X1476262Y10596028D01*
X1346028Y10726262D01*
X1192889Y10828586D01*
X1022729Y10899068D01*
X842089Y10935000D01*
X657911Y10935000D01*
X477271Y10899068D01*
X307111Y10828586D01*
X153972Y10726262D01*
X23738Y10596028D01*
X0Y10560502D01*
X-23738Y10596028D01*
X-153972Y10726262D01*
X-307111Y10828586D01*
X-477271Y10899068D01*
X-657911Y10935000D01*
X-842089Y10935000D01*
X-1022729Y10899068D01*
X-1192889Y10828586D01*
X-1346028Y10726262D01*
X-1476262Y10596028D01*
X-1578586Y10442889D01*
X-1649068Y10272729D01*
X-1685000Y10092089D01*
X-2979972Y10092089D01*
X-2966567Y10159478D01*
X-2966567Y10343656D01*
X-3002499Y10524296D01*
X-3072981Y10694456D01*
X-3175305Y10847595D01*
X-3305539Y10977829D01*
X-3458678Y11080153D01*
X-3628838Y11150635D01*
X-3809478Y11186567D01*
X-3993656Y11186567D01*
X-4174296Y11150635D01*
X-4344456Y11080153D01*
X-4497595Y10977829D01*
X-4627829Y10847595D01*
X-4730153Y10694456D01*
X-4800635Y10524296D01*
X-4836567Y10343656D01*
X-10807787Y10343656D01*
X-10358061Y11467089D01*
X-7185000Y11467089D01*
X-7185000Y11282911D01*
X-7149068Y11102271D01*
X-7078586Y10932111D01*
X-6976262Y10778972D01*
X-6846028Y10648738D01*
X-6692889Y10546414D01*
X-6522729Y10475932D01*
X-6342089Y10440000D01*
X-6157911Y10440000D01*
X-5977271Y10475932D01*
X-5807111Y10546414D01*
X-5653972Y10648738D01*
X-5523738Y10778972D01*
X-5421414Y10932111D01*
X-5350932Y11102271D01*
X-5315000Y11282911D01*
X-5315000Y11467089D01*
X-5350932Y11647729D01*
X-5421414Y11817889D01*
X-5523738Y11971028D01*
X-5653972Y12101262D01*
X-5807111Y12203586D01*
X-5977271Y12274068D01*
X-6157911Y12310000D01*
X-6342089Y12310000D01*
X-6522729Y12274068D01*
X-6692889Y12203586D01*
X-6846028Y12101262D01*
X-6976262Y11971028D01*
X-7078586Y11817889D01*
X-7149068Y11647729D01*
X-7185000Y11467089D01*
X-10358061Y11467089D01*
X-9553965Y13475752D01*
X-5455000Y13475752D01*
X-5455000Y12264249D01*
X-5438577Y12097502D01*
X-5373676Y11883554D01*
X-5268284Y11686377D01*
X-5126449Y11513551D01*
X-4953623Y11371716D01*
X-4756447Y11266324D01*
X-4542499Y11201423D01*
X-4320000Y11179509D01*
X-4097502Y11201423D01*
X-3883554Y11266324D01*
X-3686377Y11371716D01*
X-3513551Y11513551D01*
X-3371716Y11686377D01*
X-3266324Y11883553D01*
X-3201423Y12097501D01*
X-3185000Y12264248D01*
X-3185000Y12483096D01*
X-3170022Y12476892D01*
X-2984552Y12440000D01*
X-2795448Y12440000D01*
X-2609978Y12476892D01*
X-2435269Y12549259D01*
X-2278036Y12654319D01*
X-2144319Y12788036D01*
X-2039259Y12945269D01*
X-1966892Y13119978D01*
X-1930000Y13305448D01*
X-1930000Y13494552D01*
X1930000Y13494552D01*
X1930000Y13305448D01*
X1966892Y13119978D01*
X2039259Y12945269D01*
X2144319Y12788036D01*
X2278036Y12654319D01*
X2435269Y12549259D01*
X2609978Y12476892D01*
X2795448Y12440000D01*
X2984552Y12440000D01*
X3170022Y12476892D01*
X3185000Y12483096D01*
X3185000Y12264249D01*
X3201423Y12097502D01*
X3266324Y11883554D01*
X3371716Y11686377D01*
X3513551Y11513551D01*
X3686377Y11371716D01*
X3883553Y11266324D01*
X4097501Y11201423D01*
X4320000Y11179509D01*
X4542498Y11201423D01*
X4756446Y11266324D01*
X4953623Y11371716D01*
X5069835Y11467089D01*
X5315000Y11467089D01*
X5315000Y11282911D01*
X5350932Y11102271D01*
X5421414Y10932111D01*
X5523738Y10778972D01*
X5653972Y10648738D01*
X5807111Y10546414D01*
X5977271Y10475932D01*
X6157911Y10440000D01*
X6342089Y10440000D01*
X6522729Y10475932D01*
X6692889Y10546414D01*
X6846028Y10648738D01*
X6976262Y10778972D01*
X7078586Y10932111D01*
X7149068Y11102271D01*
X7185000Y11282911D01*
X7185000Y11467089D01*
X7149068Y11647729D01*
X7078586Y11817889D01*
X6976262Y11971028D01*
X6846028Y12101262D01*
X6692889Y12203586D01*
X6522729Y12274068D01*
X6342089Y12310000D01*
X6157911Y12310000D01*
X5977271Y12274068D01*
X5807111Y12203586D01*
X5653972Y12101262D01*
X5523738Y11971028D01*
X5421414Y11817889D01*
X5350932Y11647729D01*
X5315000Y11467089D01*
X5069835Y11467089D01*
X5126449Y11513551D01*
X5268284Y11686377D01*
X5373676Y11883553D01*
X5438577Y12097501D01*
X5455000Y12264248D01*
X5455000Y13475752D01*
X5438577Y13642499D01*
X5373676Y13856447D01*
X5268284Y14053623D01*
X5126449Y14226449D01*
X4953623Y14368284D01*
X4756447Y14473676D01*
X4542499Y14538577D01*
X4320000Y14560491D01*
X4097502Y14538577D01*
X3883554Y14473676D01*
X3686378Y14368284D01*
X3513552Y14226449D01*
X3466638Y14169285D01*
X3344731Y14250741D01*
X3170022Y14323108D01*
X2984552Y14360000D01*
X2795448Y14360000D01*
X2609978Y14323108D01*
X2435269Y14250741D01*
X2278036Y14145681D01*
X2144319Y14011964D01*
X2039259Y13854731D01*
X1966892Y13680022D01*
X1930000Y13494552D01*
X-1930000Y13494552D01*
X-1966892Y13680022D01*
X-2039259Y13854731D01*
X-2144319Y14011964D01*
X-2278036Y14145681D01*
X-2435269Y14250741D01*
X-2609978Y14323108D01*
X-2795448Y14360000D01*
X-2984552Y14360000D01*
X-3170022Y14323108D01*
X-3344731Y14250741D01*
X-3466638Y14169285D01*
X-3513551Y14226449D01*
X-3686377Y14368284D01*
X-3883553Y14473676D01*
X-4097501Y14538577D01*
X-4320000Y14560491D01*
X-4542498Y14538577D01*
X-4756446Y14473676D01*
X-4953622Y14368284D01*
X-5126448Y14226449D01*
X-5268283Y14053623D01*
X-5373676Y13856447D01*
X-5438577Y13642499D01*
X-5455000Y13475752D01*
X-9553965Y13475752D01*
X-7980731Y17405752D01*
X-5455000Y17405752D01*
X-5455000Y16694249D01*
X-5438577Y16527502D01*
X-5373676Y16313554D01*
X-5268284Y16116377D01*
X-5126449Y15943551D01*
X-4953623Y15801716D01*
X-4756447Y15696324D01*
X-4542499Y15631423D01*
X-4320000Y15609509D01*
X-4097502Y15631423D01*
X-3883554Y15696324D01*
X-3686377Y15801716D01*
X-3513551Y15943551D01*
X-3371716Y16116377D01*
X-3266324Y16313553D01*
X-3201423Y16527501D01*
X-3185000Y16694248D01*
X-3185000Y17405751D01*
X-3185000Y17405752D01*
X3185000Y17405752D01*
X3185000Y16694249D01*
X3201423Y16527502D01*
X3266324Y16313554D01*
X3371716Y16116377D01*
X3513551Y15943551D01*
X3686377Y15801716D01*
X3883553Y15696324D01*
X4097501Y15631423D01*
X4320000Y15609509D01*
X4542498Y15631423D01*
X4756446Y15696324D01*
X4953623Y15801716D01*
X5126449Y15943551D01*
X5268284Y16116377D01*
X5373676Y16313553D01*
X5438577Y16527501D01*
X5455000Y16694248D01*
X5455000Y17405751D01*
X5438577Y17572498D01*
X5373676Y17786446D01*
X5268284Y17983623D01*
X5126449Y18156449D01*
X4953623Y18298284D01*
X4756447Y18403676D01*
X4542499Y18468577D01*
X4320000Y18490491D01*
X4097502Y18468577D01*
X3883554Y18403676D01*
X3686378Y18298284D01*
X3513552Y18156449D01*
X3371717Y17983623D01*
X3266324Y17786447D01*
X3201423Y17572499D01*
X3185000Y17405752D01*
X-3185000Y17405752D01*
X-3201423Y17572498D01*
X-3266324Y17786446D01*
X-3371716Y17983623D01*
X-3513551Y18156449D01*
X-3686377Y18298284D01*
X-3883553Y18403676D01*
X-4097501Y18468577D01*
X-4320000Y18490491D01*
X-4542498Y18468577D01*
X-4756446Y18403676D01*
X-4953622Y18298284D01*
X-5126448Y18156449D01*
X-5268283Y17983623D01*
X-5373676Y17786447D01*
X-5438577Y17572499D01*
X-5455000Y17405752D01*
X-7980731Y17405752D01*
X-7136368Y19515000D01*
X7136368Y19515000D01*
X13173102Y4435000D01*
G04 #@! TA.AperFunction,Conductor*
D16*
G36*
X13173102Y4435000D02*
G01*
X13157911Y4435000D01*
X12977271Y4399068D01*
X12807111Y4328586D01*
X12687500Y4248665D01*
X12567889Y4328586D01*
X12397729Y4399068D01*
X12217089Y4435000D01*
X12032911Y4435000D01*
X11852271Y4399068D01*
X11682111Y4328586D01*
X11625000Y4290426D01*
X11567889Y4328586D01*
X11397729Y4399068D01*
X11217089Y4435000D01*
X11032911Y4435000D01*
X10852271Y4399068D01*
X10682111Y4328586D01*
X10625000Y4290426D01*
X10567889Y4328586D01*
X10397729Y4399068D01*
X10217089Y4435000D01*
X10032911Y4435000D01*
X9852271Y4399068D01*
X9682111Y4328586D01*
X9625000Y4290426D01*
X9567889Y4328586D01*
X9397729Y4399068D01*
X9217089Y4435000D01*
X9032911Y4435000D01*
X8852271Y4399068D01*
X8682111Y4328586D01*
X8625000Y4290426D01*
X8567889Y4328586D01*
X8397729Y4399068D01*
X8217089Y4435000D01*
X8032911Y4435000D01*
X7852271Y4399068D01*
X7682111Y4328586D01*
X7625000Y4290426D01*
X7567889Y4328586D01*
X7397729Y4399068D01*
X7217089Y4435000D01*
X7032911Y4435000D01*
X6852271Y4399068D01*
X6682111Y4328586D01*
X6530076Y4227000D01*
X6500000Y4227000D01*
X6475224Y4224560D01*
X6470586Y4223153D01*
X6524068Y4352271D01*
X6560000Y4532911D01*
X6560000Y4717089D01*
X6524068Y4897729D01*
X6453586Y5067889D01*
X6351262Y5221028D01*
X6221028Y5351262D01*
X6067889Y5453586D01*
X5897729Y5524068D01*
X5717089Y5560000D01*
X5532911Y5560000D01*
X5352271Y5524068D01*
X5182111Y5453586D01*
X5028972Y5351262D01*
X4898738Y5221028D01*
X4796414Y5067889D01*
X4725932Y4897729D01*
X4690000Y4717089D01*
X4690000Y4532911D01*
X4725932Y4352271D01*
X4796414Y4182111D01*
X4898738Y4028972D01*
X5028972Y3898738D01*
X5182111Y3796414D01*
X5352271Y3725932D01*
X5532911Y3690000D01*
X5717089Y3690000D01*
X5897729Y3725932D01*
X6067889Y3796414D01*
X6221028Y3898738D01*
X6351262Y4028972D01*
X6373000Y4061505D01*
X6373000Y4057508D01*
X6296414Y3942889D01*
X6225932Y3772729D01*
X6190000Y3592089D01*
X6190000Y3407911D01*
X6225932Y3227271D01*
X6296414Y3057111D01*
X6334574Y3000000D01*
X6296414Y2942889D01*
X6225932Y2772729D01*
X6190000Y2592089D01*
X6190000Y2407911D01*
X6206669Y2324109D01*
X6145521Y2364967D01*
X5993560Y2427911D01*
X5832240Y2460000D01*
X5667760Y2460000D01*
X5506440Y2427911D01*
X5354479Y2364967D01*
X5217719Y2273587D01*
X5101413Y2157281D01*
X5010033Y2020521D01*
X4947089Y1868560D01*
X4915000Y1707240D01*
X4915000Y1542760D01*
X4947089Y1381440D01*
X4980961Y1299666D01*
X4852271Y1274068D01*
X4682111Y1203586D01*
X4528972Y1101262D01*
X4398738Y971028D01*
X4296414Y817889D01*
X4225932Y647729D01*
X4190000Y467089D01*
X4190000Y327000D01*
X2700000Y327000D01*
X2675224Y324560D01*
X2651399Y317333D01*
X2629443Y305597D01*
X2610197Y289803D01*
X2594403Y270557D01*
X2582667Y248601D01*
X2575440Y224776D01*
X2573000Y200000D01*
X2573000Y-1332809D01*
X2543304Y-1183517D01*
X2461515Y-986060D01*
X2342775Y-808353D01*
X2191647Y-657225D01*
X2013940Y-538485D01*
X1816483Y-456696D01*
X1606863Y-415000D01*
X1393137Y-415000D01*
X1183517Y-456696D01*
X986060Y-538485D01*
X912090Y-587910D01*
X961515Y-513940D01*
X1043304Y-316483D01*
X1085000Y-106863D01*
X1085000Y106863D01*
X1043304Y316483D01*
X961515Y513940D01*
X912090Y587910D01*
X986060Y538485D01*
X1183517Y456696D01*
X1393137Y415000D01*
X1606863Y415000D01*
X1816483Y456696D01*
X2013940Y538485D01*
X2191647Y657225D01*
X2342775Y808353D01*
X2461515Y986060D01*
X2543304Y1183517D01*
X2585000Y1393137D01*
X2585000Y1606863D01*
X2543304Y1816483D01*
X2461515Y2013940D01*
X2342775Y2191647D01*
X2191647Y2342775D01*
X2013940Y2461515D01*
X1816483Y2543304D01*
X1606863Y2585000D01*
X1393137Y2585000D01*
X1183517Y2543304D01*
X986060Y2461515D01*
X808353Y2342775D01*
X657225Y2191647D01*
X538485Y2013940D01*
X456696Y1816483D01*
X415000Y1606863D01*
X415000Y1393137D01*
X456696Y1183517D01*
X538485Y986060D01*
X587910Y912090D01*
X513940Y961515D01*
X316483Y1043304D01*
X106863Y1085000D01*
X-106863Y1085000D01*
X-316483Y1043304D01*
X-513940Y961515D01*
X-587910Y912090D01*
X-538485Y986060D01*
X-456696Y1183517D01*
X-415000Y1393137D01*
X-415000Y1606863D01*
X-456696Y1816483D01*
X-538485Y2013940D01*
X-657225Y2191647D01*
X-808353Y2342775D01*
X-986060Y2461515D01*
X-1183517Y2543304D01*
X-1393137Y2585000D01*
X-1606863Y2585000D01*
X-1816483Y2543304D01*
X-2013940Y2461515D01*
X-2191647Y2342775D01*
X-2342775Y2191647D01*
X-2461515Y2013940D01*
X-2543304Y1816483D01*
X-2585000Y1606863D01*
X-2585000Y1393137D01*
X-2543304Y1183517D01*
X-2461515Y986060D01*
X-2342775Y808353D01*
X-2191647Y657225D01*
X-2013940Y538485D01*
X-1816483Y456696D01*
X-1606863Y415000D01*
X-1393137Y415000D01*
X-1183517Y456696D01*
X-986060Y538485D01*
X-912090Y587910D01*
X-961515Y513940D01*
X-1043304Y316483D01*
X-1085000Y106863D01*
X-1085000Y-106863D01*
X-1043304Y-316483D01*
X-961515Y-513940D01*
X-912090Y-587910D01*
X-986060Y-538485D01*
X-1183517Y-456696D01*
X-1393137Y-415000D01*
X-1606863Y-415000D01*
X-1816483Y-456696D01*
X-2013940Y-538485D01*
X-2191647Y-657225D01*
X-2342775Y-808353D01*
X-2461515Y-986060D01*
X-2543304Y-1183517D01*
X-2585000Y-1393137D01*
X-2585000Y-1606863D01*
X-2543304Y-1816483D01*
X-2461515Y-2013940D01*
X-2342775Y-2191647D01*
X-2191647Y-2342775D01*
X-2013940Y-2461515D01*
X-1816483Y-2543304D01*
X-1606863Y-2585000D01*
X-1393137Y-2585000D01*
X-1183517Y-2543304D01*
X-986060Y-2461515D01*
X-808353Y-2342775D01*
X-657225Y-2191647D01*
X-538485Y-2013940D01*
X-456696Y-1816483D01*
X-415000Y-1606863D01*
X-415000Y-1393137D01*
X-456696Y-1183517D01*
X-538485Y-986060D01*
X-587910Y-912090D01*
X-513940Y-961515D01*
X-316483Y-1043304D01*
X-106863Y-1085000D01*
X106863Y-1085000D01*
X316483Y-1043304D01*
X513940Y-961515D01*
X587910Y-912090D01*
X538485Y-986060D01*
X456696Y-1183517D01*
X415000Y-1393137D01*
X415000Y-1606863D01*
X456696Y-1816483D01*
X538485Y-2013940D01*
X657225Y-2191647D01*
X808353Y-2342775D01*
X986060Y-2461515D01*
X1183517Y-2543304D01*
X1393137Y-2585000D01*
X1606863Y-2585000D01*
X1816483Y-2543304D01*
X2013940Y-2461515D01*
X2191647Y-2342775D01*
X2342775Y-2191647D01*
X2461515Y-2013940D01*
X2543304Y-1816483D01*
X2573000Y-1667191D01*
X2573000Y-2200000D01*
X2575440Y-2224776D01*
X2582667Y-2248601D01*
X2594403Y-2270557D01*
X2610197Y-2289803D01*
X2629443Y-2305597D01*
X2651399Y-2317333D01*
X2675224Y-2324560D01*
X2700000Y-2327000D01*
X3747394Y-2327000D01*
X3962947Y-2542553D01*
X3940000Y-2657911D01*
X3940000Y-2842089D01*
X3975932Y-3022729D01*
X4046414Y-3192889D01*
X4148738Y-3346028D01*
X4278972Y-3476262D01*
X4432111Y-3578586D01*
X4602271Y-3649068D01*
X4782911Y-3685000D01*
X4967089Y-3685000D01*
X5147729Y-3649068D01*
X5317889Y-3578586D01*
X5375000Y-3540426D01*
X5432111Y-3578586D01*
X5602271Y-3649068D01*
X5782911Y-3685000D01*
X5967089Y-3685000D01*
X5995843Y-3679280D01*
X6023738Y-3721028D01*
X6153972Y-3851262D01*
X6307111Y-3953586D01*
X6315000Y-3956854D01*
X6315000Y-3967089D01*
X6350932Y-4147729D01*
X6373000Y-4201006D01*
X6373000Y-4298994D01*
X6350932Y-4352271D01*
X6315000Y-4532911D01*
X6315000Y-4717089D01*
X6350932Y-4897729D01*
X6373000Y-4951006D01*
X6373000Y-5200000D01*
X6375440Y-5224776D01*
X6382667Y-5248601D01*
X6394403Y-5270557D01*
X6410197Y-5289803D01*
X6429443Y-5305597D01*
X6451399Y-5317333D01*
X6475224Y-5324560D01*
X6500000Y-5327000D01*
X6629710Y-5327000D01*
X6653972Y-5351262D01*
X6807111Y-5453586D01*
X6977271Y-5524068D01*
X7157911Y-5560000D01*
X7342089Y-5560000D01*
X7522729Y-5524068D01*
X7692889Y-5453586D01*
X7846028Y-5351262D01*
X7870290Y-5327000D01*
X7979710Y-5327000D01*
X8003972Y-5351262D01*
X8157111Y-5453586D01*
X8327271Y-5524068D01*
X8507911Y-5560000D01*
X8692089Y-5560000D01*
X8872729Y-5524068D01*
X9042889Y-5453586D01*
X9150000Y-5382017D01*
X9257111Y-5453586D01*
X9427271Y-5524068D01*
X9607911Y-5560000D01*
X9792089Y-5560000D01*
X9972729Y-5524068D01*
X10142889Y-5453586D01*
X10250000Y-5382017D01*
X10357111Y-5453586D01*
X10527271Y-5524068D01*
X10707911Y-5560000D01*
X10892089Y-5560000D01*
X11072729Y-5524068D01*
X11242889Y-5453586D01*
X11350000Y-5382017D01*
X11457111Y-5453586D01*
X11627271Y-5524068D01*
X11807911Y-5560000D01*
X11992089Y-5560000D01*
X12172729Y-5524068D01*
X12342889Y-5453586D01*
X12496028Y-5351262D01*
X12520290Y-5327000D01*
X12629710Y-5327000D01*
X12653972Y-5351262D01*
X12807111Y-5453586D01*
X12977271Y-5524068D01*
X13157911Y-5560000D01*
X13342089Y-5560000D01*
X13522729Y-5524068D01*
X13692889Y-5453586D01*
X13846028Y-5351262D01*
X13870290Y-5327000D01*
X14000000Y-5327000D01*
X14024776Y-5324560D01*
X14048601Y-5317333D01*
X14070557Y-5305597D01*
X14089803Y-5289803D01*
X14105597Y-5270557D01*
X14117333Y-5248601D01*
X14124560Y-5224776D01*
X14127000Y-5200000D01*
X14127000Y-4951006D01*
X14149068Y-4897729D01*
X14185000Y-4717089D01*
X14185000Y-4532911D01*
X14149068Y-4352271D01*
X14127000Y-4298994D01*
X14127000Y-4057508D01*
X14203586Y-3942889D01*
X14274068Y-3772729D01*
X14286327Y-3711100D01*
X14396426Y-3582651D01*
X14410697Y-3562251D01*
X14420715Y-3539459D01*
X14426093Y-3515150D01*
X14427000Y-3500000D01*
X14427000Y-2857678D01*
X14453586Y-2817889D01*
X14524068Y-2647729D01*
X14560000Y-2467089D01*
X14560000Y-2282911D01*
X14524068Y-2102271D01*
X14453586Y-1932111D01*
X14351262Y-1778972D01*
X14221028Y-1648738D01*
X14067889Y-1546414D01*
X13897729Y-1475932D01*
X13720231Y-1440625D01*
X13489803Y-1210197D01*
X13470557Y-1194403D01*
X13448601Y-1182667D01*
X13424776Y-1175440D01*
X13400000Y-1173000D01*
X12870290Y-1173000D01*
X12867636Y-1170346D01*
X12971028Y-1101262D01*
X13101262Y-971028D01*
X13203586Y-817889D01*
X13233191Y-746415D01*
X13496415Y-483191D01*
X13567889Y-453586D01*
X13721028Y-351262D01*
X13851262Y-221028D01*
X13953586Y-67889D01*
X14024068Y102271D01*
X14060000Y282911D01*
X14060000Y467089D01*
X14024068Y647729D01*
X13953586Y817889D01*
X13928189Y855899D01*
X13976262Y903972D01*
X14078586Y1057111D01*
X14149068Y1227271D01*
X14185000Y1407911D01*
X14185000Y1592089D01*
X14149068Y1772729D01*
X14078586Y1942889D01*
X14040426Y2000000D01*
X14078586Y2057111D01*
X14102191Y2114099D01*
X19546147Y-11485116D01*
X9366264Y-21665000D01*
X-9366263Y-21665000D01*
X-13021968Y-18009295D01*
X-11040384Y-18009295D01*
X-11018470Y-18231793D01*
X-10953569Y-18445741D01*
X-10848176Y-18642917D01*
X-10706341Y-18815743D01*
X-10533515Y-18957578D01*
X-10336339Y-19062971D01*
X-10122391Y-19127872D01*
X-9899893Y-19149786D01*
X-9677395Y-19127872D01*
X-9463447Y-19062971D01*
X-9266271Y-18957578D01*
X-9136750Y-18851283D01*
X-8633641Y-18348174D01*
X-8527345Y-18218653D01*
X-8421953Y-18021477D01*
X-8357052Y-17807530D01*
X-8335138Y-17585031D01*
X8335138Y-17585031D01*
X8357052Y-17807529D01*
X8421953Y-18021477D01*
X8527346Y-18218653D01*
X8633641Y-18348174D01*
X9136750Y-18851283D01*
X9266271Y-18957579D01*
X9463447Y-19062971D01*
X9677394Y-19127872D01*
X9899893Y-19149786D01*
X10122391Y-19127872D01*
X10336339Y-19062971D01*
X10533515Y-18957579D01*
X10706341Y-18815743D01*
X10848177Y-18642917D01*
X10953569Y-18445741D01*
X11018470Y-18231793D01*
X11040384Y-18009295D01*
X11018470Y-17786796D01*
X10953569Y-17572849D01*
X10848177Y-17375673D01*
X10741881Y-17246152D01*
X10238772Y-16743043D01*
X10109251Y-16636748D01*
X9912075Y-16531355D01*
X9698127Y-16466454D01*
X9475629Y-16444540D01*
X9253131Y-16466454D01*
X9039183Y-16531355D01*
X8842007Y-16636748D01*
X8669181Y-16778583D01*
X8527346Y-16951409D01*
X8421953Y-17148585D01*
X8357052Y-17362533D01*
X8335138Y-17585031D01*
X-8335138Y-17585031D01*
X-8357052Y-17362533D01*
X-8421953Y-17148585D01*
X-8527345Y-16951409D01*
X-8669181Y-16778583D01*
X-8842007Y-16636747D01*
X-9039183Y-16531355D01*
X-9253131Y-16466454D01*
X-9475629Y-16444540D01*
X-9698128Y-16466454D01*
X-9912075Y-16531355D01*
X-10109251Y-16636747D01*
X-10238772Y-16743043D01*
X-10741881Y-17246152D01*
X-10848176Y-17375673D01*
X-10953569Y-17572849D01*
X-11018470Y-17786797D01*
X-11040384Y-18009295D01*
X-13021968Y-18009295D01*
X-16920754Y-14110509D01*
X-9077984Y-14110509D01*
X-9077984Y-14299613D01*
X-9041092Y-14485083D01*
X-8968725Y-14659792D01*
X-8863665Y-14817025D01*
X-8729948Y-14950742D01*
X-8572715Y-15055802D01*
X-8398006Y-15128169D01*
X-8254206Y-15156772D01*
X-8261454Y-15230366D01*
X-8239540Y-15452864D01*
X-8174639Y-15666812D01*
X-8069246Y-15863988D01*
X-7927411Y-16036814D01*
X-7754585Y-16178649D01*
X-7557409Y-16284042D01*
X-7343461Y-16348943D01*
X-7120963Y-16370857D01*
X-6898465Y-16348943D01*
X-6684517Y-16284042D01*
X-6559441Y-16217187D01*
X-3666950Y-16217187D01*
X-3666950Y-16430913D01*
X-3625254Y-16640533D01*
X-3543465Y-16837990D01*
X-3424725Y-17015697D01*
X-3273597Y-17166825D01*
X-3095890Y-17285565D01*
X-2898433Y-17367354D01*
X-2688813Y-17409050D01*
X-2475087Y-17409050D01*
X-2265467Y-17367354D01*
X-2068010Y-17285565D01*
X-1890303Y-17166825D01*
X-1739175Y-17015697D01*
X-1620435Y-16837990D01*
X-1538646Y-16640533D01*
X-1496950Y-16430913D01*
X-1496950Y-16217187D01*
X-1538646Y-16007567D01*
X-1620435Y-15810110D01*
X-1739175Y-15632403D01*
X-1890303Y-15481275D01*
X-2068010Y-15362535D01*
X-2265467Y-15280746D01*
X-2475087Y-15239050D01*
X-2688813Y-15239050D01*
X-2898433Y-15280746D01*
X-3095890Y-15362535D01*
X-3273597Y-15481275D01*
X-3424725Y-15632403D01*
X-3543465Y-15810110D01*
X-3625254Y-16007567D01*
X-3666950Y-16217187D01*
X-6559441Y-16217187D01*
X-6487341Y-16178649D01*
X-6357820Y-16072354D01*
X-5501157Y-15215692D01*
X-5428117Y-15126693D01*
X-5399068Y-15272729D01*
X-5328586Y-15442889D01*
X-5226262Y-15596028D01*
X-5096028Y-15726262D01*
X-4942889Y-15828586D01*
X-4772729Y-15899068D01*
X-4592089Y-15935000D01*
X-4407911Y-15935000D01*
X-4227271Y-15899068D01*
X-4057111Y-15828586D01*
X-3903972Y-15726262D01*
X-3773738Y-15596028D01*
X-3671414Y-15442889D01*
X-3600932Y-15272729D01*
X-3565000Y-15092089D01*
X-3565000Y-14907911D01*
X3565000Y-14907911D01*
X3565000Y-15092089D01*
X3600932Y-15272729D01*
X3671414Y-15442889D01*
X3773738Y-15596028D01*
X3903972Y-15726262D01*
X4057111Y-15828586D01*
X4227271Y-15899068D01*
X4407911Y-15935000D01*
X4592089Y-15935000D01*
X4772729Y-15899068D01*
X4942889Y-15828586D01*
X5096028Y-15726262D01*
X5226262Y-15596028D01*
X5328586Y-15442889D01*
X5399068Y-15272729D01*
X5428117Y-15126691D01*
X5501157Y-15215691D01*
X6357819Y-16072354D01*
X6487340Y-16178650D01*
X6684516Y-16284042D01*
X6898464Y-16348943D01*
X7120963Y-16370857D01*
X7343462Y-16348943D01*
X7557409Y-16284042D01*
X7754585Y-16178650D01*
X7927412Y-16036815D01*
X8069247Y-15863988D01*
X8174639Y-15666812D01*
X8239540Y-15452865D01*
X8261454Y-15230366D01*
X8254206Y-15156772D01*
X8398006Y-15128169D01*
X8572715Y-15055802D01*
X8729948Y-14950742D01*
X8863665Y-14817025D01*
X8968725Y-14659792D01*
X9041092Y-14485083D01*
X9077984Y-14299613D01*
X9077984Y-14110509D01*
X9041092Y-13925039D01*
X8968725Y-13750330D01*
X8863665Y-13593097D01*
X8729948Y-13459380D01*
X8572715Y-13354320D01*
X8398006Y-13281953D01*
X8212536Y-13245061D01*
X8023432Y-13245061D01*
X7837962Y-13281953D01*
X7663253Y-13354320D01*
X7506020Y-13459380D01*
X7372303Y-13593097D01*
X7267243Y-13750330D01*
X7261038Y-13765310D01*
X7106288Y-13610560D01*
X6976767Y-13504265D01*
X6779591Y-13398872D01*
X6565643Y-13333971D01*
X6343145Y-13312057D01*
X6120647Y-13333971D01*
X5906699Y-13398872D01*
X5709523Y-13504265D01*
X5536697Y-13646100D01*
X5394862Y-13818926D01*
X5289469Y-14016102D01*
X5224568Y-14230050D01*
X5209126Y-14386836D01*
X5096028Y-14273738D01*
X4942889Y-14171414D01*
X4772729Y-14100932D01*
X4592089Y-14065000D01*
X4407911Y-14065000D01*
X4227271Y-14100932D01*
X4057111Y-14171414D01*
X3903972Y-14273738D01*
X3773738Y-14403972D01*
X3671414Y-14557111D01*
X3600932Y-14727271D01*
X3565000Y-14907911D01*
X-3565000Y-14907911D01*
X-3600932Y-14727271D01*
X-3671414Y-14557111D01*
X-3773738Y-14403972D01*
X-3903972Y-14273738D01*
X-4057111Y-14171414D01*
X-4227271Y-14100932D01*
X-4407911Y-14065000D01*
X-4592089Y-14065000D01*
X-4772729Y-14100932D01*
X-4942889Y-14171414D01*
X-5096028Y-14273738D01*
X-5209126Y-14386836D01*
X-5224568Y-14230049D01*
X-5289469Y-14016102D01*
X-5394861Y-13818926D01*
X-5536696Y-13646099D01*
X-5709523Y-13504264D01*
X-5906699Y-13398872D01*
X-6120646Y-13333971D01*
X-6343145Y-13312057D01*
X-6565644Y-13333971D01*
X-6779592Y-13398872D01*
X-6976768Y-13504264D01*
X-7106289Y-13610560D01*
X-7261038Y-13765309D01*
X-7267243Y-13750330D01*
X-7372303Y-13593097D01*
X-7506020Y-13459380D01*
X-7663253Y-13354320D01*
X-7837962Y-13281953D01*
X-8023432Y-13245061D01*
X-8212536Y-13245061D01*
X-8398006Y-13281953D01*
X-8572715Y-13354320D01*
X-8729948Y-13459380D01*
X-8863665Y-13593097D01*
X-8968725Y-13750330D01*
X-9041092Y-13925039D01*
X-9077984Y-14110509D01*
X-16920754Y-14110509D01*
X-19131370Y-11899893D01*
X-17149786Y-11899893D01*
X-17127872Y-12122391D01*
X-17062971Y-12336339D01*
X-16957578Y-12533515D01*
X-16815743Y-12706341D01*
X-16642917Y-12848176D01*
X-16445741Y-12953569D01*
X-16231793Y-13018470D01*
X-16009295Y-13040384D01*
X-15786797Y-13018470D01*
X-15572849Y-12953569D01*
X-15375673Y-12848176D01*
X-15246152Y-12741881D01*
X-14743043Y-12238772D01*
X-14676682Y-12157911D01*
X-6585000Y-12157911D01*
X-6585000Y-12342089D01*
X-6549068Y-12522729D01*
X-6478586Y-12692889D01*
X-6376262Y-12846028D01*
X-6246028Y-12976262D01*
X-6092889Y-13078586D01*
X-5922729Y-13149068D01*
X-5742089Y-13185000D01*
X-5557911Y-13185000D01*
X-5377271Y-13149068D01*
X-5207111Y-13078586D01*
X-5053972Y-12976262D01*
X-4923738Y-12846028D01*
X-4821414Y-12692889D01*
X-4750932Y-12522729D01*
X-4715000Y-12342089D01*
X-4715000Y-12157911D01*
X-4750932Y-11977271D01*
X-4821414Y-11807111D01*
X-4923738Y-11653972D01*
X-5053972Y-11523738D01*
X-5207111Y-11421414D01*
X-5377271Y-11350932D01*
X-5557911Y-11315000D01*
X-5742089Y-11315000D01*
X-5922729Y-11350932D01*
X-6092889Y-11421414D01*
X-6246028Y-11523738D01*
X-6376262Y-11653972D01*
X-6478586Y-11807111D01*
X-6549068Y-11977271D01*
X-6585000Y-12157911D01*
X-14676682Y-12157911D01*
X-14636747Y-12109251D01*
X-14531355Y-11912075D01*
X-14466454Y-11698128D01*
X-14444540Y-11475629D01*
X-14466454Y-11253131D01*
X-14495338Y-11157911D01*
X-2810000Y-11157911D01*
X-2810000Y-11342089D01*
X-2774068Y-11522729D01*
X-2703586Y-11692889D01*
X-2601262Y-11846028D01*
X-2471028Y-11976262D01*
X-2317889Y-12078586D01*
X-2147729Y-12149068D01*
X-1967089Y-12185000D01*
X-1782911Y-12185000D01*
X-1602271Y-12149068D01*
X-1432111Y-12078586D01*
X-1278972Y-11976262D01*
X-1250000Y-11947290D01*
X-1221028Y-11976262D01*
X-1067889Y-12078586D01*
X-897729Y-12149068D01*
X-717089Y-12185000D01*
X-532911Y-12185000D01*
X-352271Y-12149068D01*
X-182111Y-12078586D01*
X-28972Y-11976262D01*
X0Y-11947290D01*
X28972Y-11976262D01*
X182111Y-12078586D01*
X352271Y-12149068D01*
X532911Y-12185000D01*
X717089Y-12185000D01*
X897729Y-12149068D01*
X1067889Y-12078586D01*
X1221028Y-11976262D01*
X1250000Y-11947290D01*
X1278972Y-11976262D01*
X1432111Y-12078586D01*
X1602271Y-12149068D01*
X1782911Y-12185000D01*
X1967089Y-12185000D01*
X2147729Y-12149068D01*
X2198806Y-12127911D01*
X4695000Y-12127911D01*
X4695000Y-12312089D01*
X4730932Y-12492729D01*
X4801414Y-12662889D01*
X4903738Y-12816028D01*
X5033972Y-12946262D01*
X5187111Y-13048586D01*
X5357271Y-13119068D01*
X5537911Y-13155000D01*
X5722089Y-13155000D01*
X5902729Y-13119068D01*
X6072889Y-13048586D01*
X6226028Y-12946262D01*
X6356262Y-12816028D01*
X6458586Y-12662889D01*
X6529068Y-12492729D01*
X6565000Y-12312089D01*
X6565000Y-12127911D01*
X6529068Y-11947271D01*
X6489806Y-11852484D01*
X6602271Y-11899068D01*
X6782911Y-11935000D01*
X6967089Y-11935000D01*
X7147729Y-11899068D01*
X7317889Y-11828586D01*
X7471028Y-11726262D01*
X7601262Y-11596028D01*
X7681709Y-11475629D01*
X14444540Y-11475629D01*
X14466454Y-11698127D01*
X14531355Y-11912075D01*
X14636748Y-12109251D01*
X14743043Y-12238772D01*
X15246152Y-12741881D01*
X15375673Y-12848177D01*
X15572849Y-12953569D01*
X15786796Y-13018470D01*
X16009295Y-13040384D01*
X16231793Y-13018470D01*
X16445741Y-12953569D01*
X16642917Y-12848177D01*
X16815743Y-12706341D01*
X16957579Y-12533515D01*
X17062971Y-12336339D01*
X17127872Y-12122391D01*
X17149786Y-11899893D01*
X17127872Y-11677394D01*
X17062971Y-11463447D01*
X16957579Y-11266271D01*
X16851283Y-11136750D01*
X16348174Y-10633641D01*
X16218653Y-10527346D01*
X16021477Y-10421953D01*
X15807529Y-10357052D01*
X15585031Y-10335138D01*
X15362533Y-10357052D01*
X15148585Y-10421953D01*
X14951409Y-10527346D01*
X14778583Y-10669181D01*
X14636748Y-10842007D01*
X14531355Y-11039183D01*
X14466454Y-11253131D01*
X14444540Y-11475629D01*
X7681709Y-11475629D01*
X7703586Y-11442889D01*
X7774068Y-11272729D01*
X7810000Y-11092089D01*
X7810000Y-10907911D01*
X7774068Y-10727271D01*
X7703586Y-10557111D01*
X7601262Y-10403972D01*
X7471028Y-10273738D01*
X7317889Y-10171414D01*
X7147729Y-10100932D01*
X6967089Y-10065000D01*
X6782911Y-10065000D01*
X6602271Y-10100932D01*
X6432111Y-10171414D01*
X6278972Y-10273738D01*
X6148738Y-10403972D01*
X6046414Y-10557111D01*
X5975932Y-10727271D01*
X5940000Y-10907911D01*
X5940000Y-11092089D01*
X5975932Y-11272729D01*
X6015194Y-11367516D01*
X5902729Y-11320932D01*
X5722089Y-11285000D01*
X5537911Y-11285000D01*
X5357271Y-11320932D01*
X5187111Y-11391414D01*
X5033972Y-11493738D01*
X4903738Y-11623972D01*
X4801414Y-11777111D01*
X4730932Y-11947271D01*
X4695000Y-12127911D01*
X2198806Y-12127911D01*
X2317889Y-12078586D01*
X2471028Y-11976262D01*
X2601262Y-11846028D01*
X2703586Y-11692889D01*
X2774068Y-11522729D01*
X2810000Y-11342089D01*
X2810000Y-11157911D01*
X2774068Y-10977271D01*
X2703586Y-10807111D01*
X2601262Y-10653972D01*
X2471028Y-10523738D01*
X2317889Y-10421414D01*
X2147729Y-10350932D01*
X1967089Y-10315000D01*
X1782911Y-10315000D01*
X1602271Y-10350932D01*
X1432111Y-10421414D01*
X1278972Y-10523738D01*
X1250000Y-10552710D01*
X1221028Y-10523738D01*
X1067889Y-10421414D01*
X897729Y-10350932D01*
X717089Y-10315000D01*
X532911Y-10315000D01*
X352271Y-10350932D01*
X182111Y-10421414D01*
X28972Y-10523738D01*
X0Y-10552710D01*
X-28972Y-10523738D01*
X-158037Y-10437500D01*
X-28972Y-10351262D01*
X101262Y-10221028D01*
X203586Y-10067889D01*
X222000Y-10023432D01*
X11245061Y-10023432D01*
X11245061Y-10212536D01*
X11281953Y-10398006D01*
X11354320Y-10572715D01*
X11459380Y-10729948D01*
X11593097Y-10863665D01*
X11750330Y-10968725D01*
X11925039Y-11041092D01*
X12110509Y-11077984D01*
X12299613Y-11077984D01*
X12485083Y-11041092D01*
X12659792Y-10968725D01*
X12817025Y-10863665D01*
X12950742Y-10729948D01*
X13055802Y-10572715D01*
X13128169Y-10398006D01*
X13156772Y-10254206D01*
X13230366Y-10261454D01*
X13452865Y-10239540D01*
X13666812Y-10174639D01*
X13863988Y-10069247D01*
X14036815Y-9927412D01*
X14178650Y-9754585D01*
X14284042Y-9557409D01*
X14348943Y-9343462D01*
X14370857Y-9120963D01*
X14348943Y-8898464D01*
X14284042Y-8684516D01*
X14178650Y-8487340D01*
X14072354Y-8357819D01*
X13215691Y-7501157D01*
X13086170Y-7394862D01*
X12888994Y-7289469D01*
X12675046Y-7224568D01*
X12452548Y-7202654D01*
X12230050Y-7224568D01*
X12016102Y-7289469D01*
X11818926Y-7394862D01*
X11646100Y-7536697D01*
X11504265Y-7709523D01*
X11398872Y-7906699D01*
X11333971Y-8120647D01*
X11312057Y-8343145D01*
X11333971Y-8565643D01*
X11398872Y-8779591D01*
X11504265Y-8976767D01*
X11610560Y-9106288D01*
X11765310Y-9261038D01*
X11750330Y-9267243D01*
X11593097Y-9372303D01*
X11459380Y-9506020D01*
X11354320Y-9663253D01*
X11281953Y-9837962D01*
X11245061Y-10023432D01*
X222000Y-10023432D01*
X274068Y-9897729D01*
X310000Y-9717089D01*
X310000Y-9532911D01*
X274068Y-9352271D01*
X203586Y-9182111D01*
X101262Y-9028972D01*
X-28972Y-8898738D01*
X-182111Y-8796414D01*
X-214710Y-8782911D01*
X7815000Y-8782911D01*
X7815000Y-8967089D01*
X7850932Y-9147729D01*
X7921414Y-9317889D01*
X8023738Y-9471028D01*
X8153972Y-9601262D01*
X8307111Y-9703586D01*
X8477271Y-9774068D01*
X8657911Y-9810000D01*
X8842089Y-9810000D01*
X9022729Y-9774068D01*
X9192889Y-9703586D01*
X9346028Y-9601262D01*
X9476262Y-9471028D01*
X9578586Y-9317889D01*
X9649068Y-9147729D01*
X9685000Y-8967089D01*
X9685000Y-8782911D01*
X9649068Y-8602271D01*
X9578586Y-8432111D01*
X9476262Y-8278972D01*
X9346028Y-8148738D01*
X9192889Y-8046414D01*
X9022729Y-7975932D01*
X8842089Y-7940000D01*
X8657911Y-7940000D01*
X8477271Y-7975932D01*
X8307111Y-8046414D01*
X8153972Y-8148738D01*
X8023738Y-8278972D01*
X7921414Y-8432111D01*
X7850932Y-8602271D01*
X7815000Y-8782911D01*
X-214710Y-8782911D01*
X-352271Y-8725932D01*
X-532911Y-8690000D01*
X-717089Y-8690000D01*
X-897729Y-8725932D01*
X-1067889Y-8796414D01*
X-1221028Y-8898738D01*
X-1351262Y-9028972D01*
X-1453586Y-9182111D01*
X-1524068Y-9352271D01*
X-1560000Y-9532911D01*
X-1560000Y-9543146D01*
X-1567889Y-9546414D01*
X-1721028Y-9648738D01*
X-1851262Y-9778972D01*
X-1953586Y-9932111D01*
X-2024068Y-10102271D01*
X-2060000Y-10282911D01*
X-2060000Y-10333481D01*
X-2147729Y-10350932D01*
X-2317889Y-10421414D01*
X-2471028Y-10523738D01*
X-2601262Y-10653972D01*
X-2703586Y-10807111D01*
X-2774068Y-10977271D01*
X-2810000Y-11157911D01*
X-14495338Y-11157911D01*
X-14531355Y-11039183D01*
X-14636747Y-10842007D01*
X-14778583Y-10669181D01*
X-14951409Y-10527345D01*
X-15148585Y-10421953D01*
X-15362533Y-10357052D01*
X-15585031Y-10335138D01*
X-15807530Y-10357052D01*
X-16021477Y-10421953D01*
X-16218653Y-10527345D01*
X-16348174Y-10633641D01*
X-16851283Y-11136750D01*
X-16957578Y-11266271D01*
X-17062971Y-11463447D01*
X-17127872Y-11677395D01*
X-17149786Y-11899893D01*
X-19131370Y-11899893D01*
X-19546148Y-11485116D01*
X-18599745Y-9120963D01*
X-14370857Y-9120963D01*
X-14348943Y-9343461D01*
X-14284042Y-9557409D01*
X-14178649Y-9754585D01*
X-14036814Y-9927411D01*
X-13863988Y-10069246D01*
X-13666812Y-10174639D01*
X-13452864Y-10239540D01*
X-13230366Y-10261454D01*
X-13156772Y-10254206D01*
X-13128169Y-10398006D01*
X-13055802Y-10572715D01*
X-12950742Y-10729948D01*
X-12817025Y-10863665D01*
X-12659792Y-10968725D01*
X-12485083Y-11041092D01*
X-12299613Y-11077984D01*
X-12110509Y-11077984D01*
X-11925039Y-11041092D01*
X-11750330Y-10968725D01*
X-11593097Y-10863665D01*
X-11459380Y-10729948D01*
X-11354320Y-10572715D01*
X-11281953Y-10398006D01*
X-11245061Y-10212536D01*
X-11245061Y-10023432D01*
X-11281953Y-9837962D01*
X-11354320Y-9663253D01*
X-11459380Y-9506020D01*
X-11593097Y-9372303D01*
X-11750330Y-9267243D01*
X-11765309Y-9261038D01*
X-11610560Y-9106289D01*
X-11504264Y-8976768D01*
X-11398872Y-8779592D01*
X-11333971Y-8565644D01*
X-11312057Y-8343145D01*
X-11333971Y-8120646D01*
X-11398872Y-7906699D01*
X-11504264Y-7709523D01*
X-11646099Y-7536696D01*
X-11790839Y-7417911D01*
X-11045000Y-7417911D01*
X-11045000Y-7602089D01*
X-11009068Y-7782729D01*
X-10938586Y-7952889D01*
X-10836262Y-8106028D01*
X-10706028Y-8236262D01*
X-10552889Y-8338586D01*
X-10382729Y-8409068D01*
X-10202089Y-8445000D01*
X-10017911Y-8445000D01*
X-9837271Y-8409068D01*
X-9667111Y-8338586D01*
X-9513972Y-8236262D01*
X-9383738Y-8106028D01*
X-9281414Y-7952889D01*
X-9210932Y-7782729D01*
X-9175000Y-7602089D01*
X-9175000Y-7587911D01*
X9335000Y-7587911D01*
X9335000Y-7772089D01*
X9370932Y-7952729D01*
X9441414Y-8122889D01*
X9543738Y-8276028D01*
X9673972Y-8406262D01*
X9827111Y-8508586D01*
X9997271Y-8579068D01*
X10177911Y-8615000D01*
X10362089Y-8615000D01*
X10542729Y-8579068D01*
X10712889Y-8508586D01*
X10866028Y-8406262D01*
X10996262Y-8276028D01*
X11098586Y-8122889D01*
X11169068Y-7952729D01*
X11205000Y-7772089D01*
X11205000Y-7587911D01*
X11169068Y-7407271D01*
X11098586Y-7237111D01*
X10996262Y-7083972D01*
X10866028Y-6953738D01*
X10712889Y-6851414D01*
X10542729Y-6780932D01*
X10362089Y-6745000D01*
X10177911Y-6745000D01*
X9997271Y-6780932D01*
X9827111Y-6851414D01*
X9673972Y-6953738D01*
X9543738Y-7083972D01*
X9441414Y-7237111D01*
X9370932Y-7407271D01*
X9335000Y-7587911D01*
X-9175000Y-7587911D01*
X-9175000Y-7417911D01*
X-9210932Y-7237271D01*
X-9281414Y-7067111D01*
X-9383738Y-6913972D01*
X-9513972Y-6783738D01*
X-9667111Y-6681414D01*
X-9837271Y-6610932D01*
X-10017911Y-6575000D01*
X-10202089Y-6575000D01*
X-10382729Y-6610932D01*
X-10552889Y-6681414D01*
X-10706028Y-6783738D01*
X-10836262Y-6913972D01*
X-10938586Y-7067111D01*
X-11009068Y-7237271D01*
X-11045000Y-7417911D01*
X-11790839Y-7417911D01*
X-11818926Y-7394861D01*
X-12016102Y-7289469D01*
X-12230049Y-7224568D01*
X-12452548Y-7202654D01*
X-12675047Y-7224568D01*
X-12888995Y-7289469D01*
X-13086171Y-7394861D01*
X-13215692Y-7501157D01*
X-14072354Y-8357820D01*
X-14178649Y-8487341D01*
X-14284042Y-8684517D01*
X-14348943Y-8898465D01*
X-14370857Y-9120963D01*
X-18599745Y-9120963D01*
X-17509670Y-6397911D01*
X-7995000Y-6397911D01*
X-7995000Y-6582089D01*
X-7959068Y-6762729D01*
X-7888586Y-6932889D01*
X-7786262Y-7086028D01*
X-7656028Y-7216262D01*
X-7502889Y-7318586D01*
X-7332729Y-7389068D01*
X-7152089Y-7425000D01*
X-6967911Y-7425000D01*
X-6787271Y-7389068D01*
X-6617111Y-7318586D01*
X-6463972Y-7216262D01*
X-6333738Y-7086028D01*
X-6231414Y-6932889D01*
X-6160932Y-6762729D01*
X-6125000Y-6582089D01*
X-6125000Y-6397911D01*
X-6160932Y-6217271D01*
X-6231414Y-6047111D01*
X-6333738Y-5893972D01*
X-6463972Y-5763738D01*
X-6617111Y-5661414D01*
X-6787271Y-5590932D01*
X-6967911Y-5555000D01*
X-7152089Y-5555000D01*
X-7332729Y-5590932D01*
X-7502889Y-5661414D01*
X-7656028Y-5763738D01*
X-7786262Y-5893972D01*
X-7888586Y-6047111D01*
X-7959068Y-6217271D01*
X-7995000Y-6397911D01*
X-17509670Y-6397911D01*
X-16863162Y-4782911D01*
X-16060000Y-4782911D01*
X-16060000Y-4967089D01*
X-16024068Y-5147729D01*
X-15953586Y-5317889D01*
X-15851262Y-5471028D01*
X-15721028Y-5601262D01*
X-15567889Y-5703586D01*
X-15397729Y-5774068D01*
X-15217089Y-5810000D01*
X-15032911Y-5810000D01*
X-14852271Y-5774068D01*
X-14682111Y-5703586D01*
X-14528972Y-5601262D01*
X-14398738Y-5471028D01*
X-14296414Y-5317889D01*
X-14225932Y-5147729D01*
X-14190000Y-4967089D01*
X-14190000Y-4782911D01*
X-14225932Y-4602271D01*
X-14296414Y-4432111D01*
X-14398738Y-4278972D01*
X-14528972Y-4148738D01*
X-14682111Y-4046414D01*
X-14852271Y-3975932D01*
X-15032911Y-3940000D01*
X-15217089Y-3940000D01*
X-15397729Y-3975932D01*
X-15567889Y-4046414D01*
X-15721028Y-4148738D01*
X-15851262Y-4278972D01*
X-15953586Y-4432111D01*
X-16024068Y-4602271D01*
X-16060000Y-4782911D01*
X-16863162Y-4782911D01*
X-16462848Y-3782911D01*
X-11810000Y-3782911D01*
X-11810000Y-3967089D01*
X-11774068Y-4147729D01*
X-11703586Y-4317889D01*
X-11601262Y-4471028D01*
X-11471028Y-4601262D01*
X-11317889Y-4703586D01*
X-11147729Y-4774068D01*
X-10967089Y-4810000D01*
X-10782911Y-4810000D01*
X-10602271Y-4774068D01*
X-10432111Y-4703586D01*
X-10278972Y-4601262D01*
X-10185621Y-4507911D01*
X-7235000Y-4507911D01*
X-7235000Y-4692089D01*
X-7199068Y-4872729D01*
X-7128586Y-5042889D01*
X-7026262Y-5196028D01*
X-6896028Y-5326262D01*
X-6742889Y-5428586D01*
X-6572729Y-5499068D01*
X-6392089Y-5535000D01*
X-6207911Y-5535000D01*
X-6027271Y-5499068D01*
X-5857111Y-5428586D01*
X-5703972Y-5326262D01*
X-5573738Y-5196028D01*
X-5471414Y-5042889D01*
X-5400932Y-4872729D01*
X-5383066Y-4782911D01*
X-3685000Y-4782911D01*
X-3685000Y-4967089D01*
X-3649068Y-5147729D01*
X-3578586Y-5317889D01*
X-3476262Y-5471028D01*
X-3346028Y-5601262D01*
X-3192889Y-5703586D01*
X-3022729Y-5774068D01*
X-2842089Y-5810000D01*
X-2657911Y-5810000D01*
X-2477271Y-5774068D01*
X-2310000Y-5704783D01*
X-2310000Y-5717089D01*
X-2274068Y-5897729D01*
X-2203586Y-6067889D01*
X-2101262Y-6221028D01*
X-1971028Y-6351262D01*
X-1817889Y-6453586D01*
X-1647729Y-6524068D01*
X-1467089Y-6560000D01*
X-1282911Y-6560000D01*
X-1102271Y-6524068D01*
X-932111Y-6453586D01*
X-778972Y-6351262D01*
X-648738Y-6221028D01*
X-546414Y-6067889D01*
X-475932Y-5897729D01*
X-440000Y-5717089D01*
X-440000Y-5532911D01*
X-475932Y-5352271D01*
X-546414Y-5182111D01*
X-648738Y-5028972D01*
X-778972Y-4898738D01*
X-932111Y-4796414D01*
X-964710Y-4782911D01*
X190000Y-4782911D01*
X190000Y-4967089D01*
X225932Y-5147729D01*
X296414Y-5317889D01*
X398738Y-5471028D01*
X528972Y-5601262D01*
X682111Y-5703586D01*
X852271Y-5774068D01*
X1032911Y-5810000D01*
X1065000Y-5810000D01*
X1065000Y-5842089D01*
X1100932Y-6022729D01*
X1171414Y-6192889D01*
X1273738Y-6346028D01*
X1403972Y-6476262D01*
X1557111Y-6578586D01*
X1727271Y-6649068D01*
X1907911Y-6685000D01*
X2092089Y-6685000D01*
X2190000Y-6665524D01*
X2190000Y-6717089D01*
X2225932Y-6897729D01*
X2296414Y-7067889D01*
X2398738Y-7221028D01*
X2528972Y-7351262D01*
X2682111Y-7453586D01*
X2852271Y-7524068D01*
X3032911Y-7560000D01*
X3217089Y-7560000D01*
X3397729Y-7524068D01*
X3567889Y-7453586D01*
X3721028Y-7351262D01*
X3851262Y-7221028D01*
X3953586Y-7067889D01*
X4024068Y-6897729D01*
X4060000Y-6717089D01*
X4060000Y-6532911D01*
X4024068Y-6352271D01*
X3953586Y-6182111D01*
X3851262Y-6028972D01*
X3721028Y-5898738D01*
X3567889Y-5796414D01*
X3397729Y-5725932D01*
X3217089Y-5690000D01*
X3032911Y-5690000D01*
X2935000Y-5709476D01*
X2935000Y-5657911D01*
X4065000Y-5657911D01*
X4065000Y-5842089D01*
X4100932Y-6022729D01*
X4171414Y-6192889D01*
X4273738Y-6346028D01*
X4403972Y-6476262D01*
X4557111Y-6578586D01*
X4727271Y-6649068D01*
X4907911Y-6685000D01*
X5092089Y-6685000D01*
X5272729Y-6649068D01*
X5442889Y-6578586D01*
X5596028Y-6476262D01*
X5726262Y-6346028D01*
X5828586Y-6192889D01*
X5899068Y-6022729D01*
X5935000Y-5842089D01*
X5935000Y-5657911D01*
X5899068Y-5477271D01*
X5828586Y-5307111D01*
X5726262Y-5153972D01*
X5596028Y-5023738D01*
X5442889Y-4921414D01*
X5272729Y-4850932D01*
X5092089Y-4815000D01*
X4907911Y-4815000D01*
X4727271Y-4850932D01*
X4557111Y-4921414D01*
X4403972Y-5023738D01*
X4273738Y-5153972D01*
X4171414Y-5307111D01*
X4100932Y-5477271D01*
X4065000Y-5657911D01*
X2935000Y-5657911D01*
X2899068Y-5477271D01*
X2828586Y-5307111D01*
X2726262Y-5153972D01*
X2596028Y-5023738D01*
X2442889Y-4921414D01*
X2272729Y-4850932D01*
X2092089Y-4815000D01*
X2060000Y-4815000D01*
X2060000Y-4782911D01*
X2024068Y-4602271D01*
X1953586Y-4432111D01*
X1851262Y-4278972D01*
X1721028Y-4148738D01*
X1567889Y-4046414D01*
X1397729Y-3975932D01*
X1217089Y-3940000D01*
X1032911Y-3940000D01*
X852271Y-3975932D01*
X682111Y-4046414D01*
X528972Y-4148738D01*
X398738Y-4278972D01*
X296414Y-4432111D01*
X225932Y-4602271D01*
X190000Y-4782911D01*
X-964710Y-4782911D01*
X-1102271Y-4725932D01*
X-1282911Y-4690000D01*
X-1467089Y-4690000D01*
X-1647729Y-4725932D01*
X-1815000Y-4795217D01*
X-1815000Y-4782911D01*
X-1850932Y-4602271D01*
X-1921414Y-4432111D01*
X-2023738Y-4278972D01*
X-2153972Y-4148738D01*
X-2307111Y-4046414D01*
X-2477271Y-3975932D01*
X-2657911Y-3940000D01*
X-2842089Y-3940000D01*
X-3022729Y-3975932D01*
X-3192889Y-4046414D01*
X-3346028Y-4148738D01*
X-3476262Y-4278972D01*
X-3578586Y-4432111D01*
X-3649068Y-4602271D01*
X-3685000Y-4782911D01*
X-5383066Y-4782911D01*
X-5365000Y-4692089D01*
X-5365000Y-4507911D01*
X-5400932Y-4327271D01*
X-5471414Y-4157111D01*
X-5573738Y-4003972D01*
X-5703972Y-3873738D01*
X-5857111Y-3771414D01*
X-6027271Y-3700932D01*
X-6207911Y-3665000D01*
X-6392089Y-3665000D01*
X-6572729Y-3700932D01*
X-6742889Y-3771414D01*
X-6896028Y-3873738D01*
X-7026262Y-4003972D01*
X-7128586Y-4157111D01*
X-7199068Y-4327271D01*
X-7235000Y-4507911D01*
X-10185621Y-4507911D01*
X-10148738Y-4471028D01*
X-10046414Y-4317889D01*
X-9975932Y-4147729D01*
X-9940000Y-3967089D01*
X-9940000Y-3782911D01*
X-9975932Y-3602271D01*
X-10046414Y-3432111D01*
X-10148738Y-3278972D01*
X-10278972Y-3148738D01*
X-10432111Y-3046414D01*
X-10602271Y-2975932D01*
X-10782911Y-2940000D01*
X-10967089Y-2940000D01*
X-11147729Y-2975932D01*
X-11317889Y-3046414D01*
X-11471028Y-3148738D01*
X-11601262Y-3278972D01*
X-11703586Y-3432111D01*
X-11774068Y-3602271D01*
X-11810000Y-3782911D01*
X-16462848Y-3782911D01*
X-15990663Y-2603376D01*
X-15953586Y-2692889D01*
X-15851262Y-2846028D01*
X-15721028Y-2976262D01*
X-15567889Y-3078586D01*
X-15397729Y-3149068D01*
X-15217089Y-3185000D01*
X-15032911Y-3185000D01*
X-14852271Y-3149068D01*
X-14682111Y-3078586D01*
X-14528972Y-2976262D01*
X-14398738Y-2846028D01*
X-14296414Y-2692889D01*
X-14225932Y-2522729D01*
X-14190000Y-2342089D01*
X-14190000Y-2157911D01*
X-14225932Y-1977271D01*
X-14296414Y-1807111D01*
X-14398738Y-1653972D01*
X-14528972Y-1523738D01*
X-14682111Y-1421414D01*
X-14852271Y-1350932D01*
X-15032911Y-1315000D01*
X-15217089Y-1315000D01*
X-15397729Y-1350932D01*
X-15507492Y-1396397D01*
X-15211866Y-657911D01*
X-11810001Y-657911D01*
X-11810001Y-842089D01*
X-11774069Y-1022729D01*
X-11703587Y-1192889D01*
X-11601263Y-1346028D01*
X-11471029Y-1476262D01*
X-11317890Y-1578586D01*
X-11147730Y-1649068D01*
X-10967090Y-1685000D01*
X-10782912Y-1685000D01*
X-10602272Y-1649068D01*
X-10432112Y-1578586D01*
X-10431102Y-1577911D01*
X-9005000Y-1577911D01*
X-9005000Y-1762089D01*
X-8969068Y-1942729D01*
X-8898586Y-2112889D01*
X-8796262Y-2266028D01*
X-8666028Y-2396262D01*
X-8512889Y-2498586D01*
X-8342729Y-2569068D01*
X-8162089Y-2605000D01*
X-7977911Y-2605000D01*
X-7797271Y-2569068D01*
X-7627111Y-2498586D01*
X-7473972Y-2396262D01*
X-7343738Y-2266028D01*
X-7241414Y-2112889D01*
X-7170932Y-1942729D01*
X-7135000Y-1762089D01*
X-7135000Y-1577911D01*
X-7170932Y-1397271D01*
X-7241414Y-1227111D01*
X-7343738Y-1073972D01*
X-7473972Y-943738D01*
X-7627111Y-841414D01*
X-7797271Y-770932D01*
X-7977911Y-735000D01*
X-8162089Y-735000D01*
X-8342729Y-770932D01*
X-8512889Y-841414D01*
X-8666028Y-943738D01*
X-8796262Y-1073972D01*
X-8898586Y-1227111D01*
X-8969068Y-1397271D01*
X-9005000Y-1577911D01*
X-10431102Y-1577911D01*
X-10278973Y-1476262D01*
X-10148739Y-1346028D01*
X-10046415Y-1192889D01*
X-9975933Y-1022729D01*
X-9940001Y-842089D01*
X-9940001Y-657911D01*
X-9975933Y-477271D01*
X-10046415Y-307111D01*
X-10148739Y-153972D01*
X-10278973Y-23738D01*
X-10432112Y78586D01*
X-10464711Y92089D01*
X-6560000Y92089D01*
X-6560000Y-92089D01*
X-6524068Y-272729D01*
X-6453586Y-442889D01*
X-6351262Y-596028D01*
X-6221028Y-726262D01*
X-6067889Y-828586D01*
X-5897729Y-899068D01*
X-5891792Y-900249D01*
X-5942889Y-921414D01*
X-6096028Y-1023738D01*
X-6226262Y-1153972D01*
X-6328586Y-1307111D01*
X-6399068Y-1477271D01*
X-6435000Y-1657911D01*
X-6435000Y-1842089D01*
X-6399068Y-2022729D01*
X-6379177Y-2070750D01*
X-6453586Y-2182111D01*
X-6524068Y-2352271D01*
X-6560000Y-2532911D01*
X-6560000Y-2717089D01*
X-6524068Y-2897729D01*
X-6453586Y-3067889D01*
X-6351262Y-3221028D01*
X-6221028Y-3351262D01*
X-6067889Y-3453586D01*
X-5897729Y-3524068D01*
X-5717089Y-3560000D01*
X-5532911Y-3560000D01*
X-5352271Y-3524068D01*
X-5182111Y-3453586D01*
X-5028972Y-3351262D01*
X-4898738Y-3221028D01*
X-4796414Y-3067889D01*
X-4725932Y-2897729D01*
X-4690000Y-2717089D01*
X-4690000Y-2532911D01*
X-4725932Y-2352271D01*
X-4745823Y-2304250D01*
X-4671414Y-2192889D01*
X-4600932Y-2022729D01*
X-4565000Y-1842089D01*
X-4565000Y-1657911D01*
X-4600932Y-1477271D01*
X-4671414Y-1307111D01*
X-4773738Y-1153972D01*
X-4903972Y-1023738D01*
X-5057111Y-921414D01*
X-5077180Y-913101D01*
X-4967089Y-935000D01*
X-4782911Y-935000D01*
X-4602271Y-899068D01*
X-4432111Y-828586D01*
X-4278972Y-726262D01*
X-4148738Y-596028D01*
X-4046414Y-442889D01*
X-3975932Y-272729D01*
X-3940000Y-92089D01*
X-3940000Y92089D01*
X-3975932Y272729D01*
X-4046414Y442889D01*
X-4148738Y596028D01*
X-4278972Y726262D01*
X-4432111Y828586D01*
X-4602271Y899068D01*
X-4782911Y935000D01*
X-4967089Y935000D01*
X-5147729Y899068D01*
X-5250000Y856706D01*
X-5352271Y899068D01*
X-5532911Y935000D01*
X-5717089Y935000D01*
X-5897729Y899068D01*
X-6067889Y828586D01*
X-6221028Y726262D01*
X-6351262Y596028D01*
X-6453586Y442889D01*
X-6524068Y272729D01*
X-6560000Y92089D01*
X-10464711Y92089D01*
X-10602272Y149068D01*
X-10782912Y185000D01*
X-10967090Y185000D01*
X-11147730Y149068D01*
X-11317890Y78586D01*
X-11471029Y-23738D01*
X-11601263Y-153972D01*
X-11703587Y-307111D01*
X-11774069Y-477271D01*
X-11810001Y-657911D01*
X-15211866Y-657911D01*
X-14483605Y1161315D01*
X-14471028Y1148738D01*
X-14317889Y1046414D01*
X-14147729Y975932D01*
X-13967089Y940000D01*
X-13782911Y940000D01*
X-13602271Y975932D01*
X-13432111Y1046414D01*
X-13278972Y1148738D01*
X-13148738Y1278972D01*
X-13046414Y1432111D01*
X-12975932Y1602271D01*
X-12940000Y1782911D01*
X-12940000Y1967089D01*
X-12975932Y2147729D01*
X-13046414Y2317889D01*
X-13148738Y2471028D01*
X-13269799Y2592089D01*
X-10435000Y2592089D01*
X-10435000Y2407911D01*
X-10399068Y2227271D01*
X-10328586Y2057111D01*
X-10226262Y1903972D01*
X-10096028Y1773738D01*
X-9942889Y1671414D01*
X-9772729Y1600932D01*
X-9592089Y1565000D01*
X-9407911Y1565000D01*
X-9227271Y1600932D01*
X-9057111Y1671414D01*
X-8903972Y1773738D01*
X-8773738Y1903972D01*
X-8671414Y2057111D01*
X-8600932Y2227271D01*
X-8565000Y2407911D01*
X-8565000Y2592089D01*
X-8600932Y2772729D01*
X-8671414Y2942889D01*
X-8773738Y3096028D01*
X-8903972Y3226262D01*
X-9057111Y3328586D01*
X-9227271Y3399068D01*
X-9407911Y3435000D01*
X-9592089Y3435000D01*
X-9772729Y3399068D01*
X-9942889Y3328586D01*
X-10096028Y3226262D01*
X-10226262Y3096028D01*
X-10328586Y2942889D01*
X-10399068Y2772729D01*
X-10435000Y2592089D01*
X-13269799Y2592089D01*
X-13278972Y2601262D01*
X-13432111Y2703586D01*
X-13602271Y2774068D01*
X-13782911Y2810000D01*
X-13823613Y2810000D01*
X-12660666Y5715088D01*
X-12437001Y5715088D01*
X-12437001Y5530910D01*
X-12401069Y5350270D01*
X-12330587Y5180110D01*
X-12228263Y5026971D01*
X-12098029Y4896737D01*
X-11944890Y4794413D01*
X-11774730Y4723931D01*
X-11594090Y4687999D01*
X-11409912Y4687999D01*
X-11229272Y4723931D01*
X-11059112Y4794413D01*
X-10905973Y4896737D01*
X-10775739Y5026971D01*
X-10673415Y5180110D01*
X-10602933Y5350270D01*
X-10567001Y5530910D01*
X-10567001Y5592089D01*
X-6560000Y5592089D01*
X-6560000Y5407911D01*
X-6524068Y5227271D01*
X-6453586Y5057111D01*
X-6351262Y4903972D01*
X-6221028Y4773738D01*
X-6067889Y4671414D01*
X-5897729Y4600932D01*
X-5717089Y4565000D01*
X-5532911Y4565000D01*
X-5352271Y4600932D01*
X-5182111Y4671414D01*
X-5028972Y4773738D01*
X-4898738Y4903972D01*
X-4796414Y5057111D01*
X-4725932Y5227271D01*
X-4690000Y5407911D01*
X-4690000Y5592089D01*
X-4725932Y5772729D01*
X-4796414Y5942889D01*
X-4898738Y6096028D01*
X-5028972Y6226262D01*
X-5182111Y6328586D01*
X-5352271Y6399068D01*
X-5532911Y6435000D01*
X-5717089Y6435000D01*
X-5897729Y6399068D01*
X-6067889Y6328586D01*
X-6221028Y6226262D01*
X-6351262Y6096028D01*
X-6453586Y5942889D01*
X-6524068Y5772729D01*
X-6560000Y5592089D01*
X-10567001Y5592089D01*
X-10567001Y5715088D01*
X-10602933Y5895728D01*
X-10673415Y6065888D01*
X-10775739Y6219027D01*
X-10905973Y6349261D01*
X-11059112Y6451585D01*
X-11229272Y6522067D01*
X-11409912Y6557999D01*
X-11594090Y6557999D01*
X-11774730Y6522067D01*
X-11944890Y6451585D01*
X-12098029Y6349261D01*
X-12228263Y6219027D01*
X-12330587Y6065888D01*
X-12401069Y5895728D01*
X-12437001Y5715088D01*
X-12660666Y5715088D01*
X-11308806Y9092089D01*
X-10685000Y9092089D01*
X-10685000Y8907911D01*
X-10649068Y8727271D01*
X-10578586Y8557111D01*
X-10476262Y8403972D01*
X-10346028Y8273738D01*
X-10192889Y8171414D01*
X-10022729Y8100932D01*
X-9842089Y8065000D01*
X-9657911Y8065000D01*
X-9477271Y8100932D01*
X-9307111Y8171414D01*
X-9153972Y8273738D01*
X-9085621Y8342089D01*
X-6310000Y8342089D01*
X-6310000Y8157911D01*
X-6274068Y7977271D01*
X-6203586Y7807111D01*
X-6101262Y7653972D01*
X-5971028Y7523738D01*
X-5817889Y7421414D01*
X-5647729Y7350932D01*
X-5467089Y7315000D01*
X-5282911Y7315000D01*
X-5102271Y7350932D01*
X-4932111Y7421414D01*
X-4778972Y7523738D01*
X-4648738Y7653972D01*
X-4546414Y7807111D01*
X-4475932Y7977271D01*
X-4440000Y8157911D01*
X-4440000Y8231863D01*
X-3335000Y8231863D01*
X-3335000Y8018137D01*
X-3293304Y7808517D01*
X-3211515Y7611060D01*
X-3092775Y7433353D01*
X-2941647Y7282225D01*
X-2763940Y7163485D01*
X-2566483Y7081696D01*
X-2356863Y7040000D01*
X-2143137Y7040000D01*
X-1933517Y7081696D01*
X-1736060Y7163485D01*
X-1685000Y7197602D01*
X-1685000Y7157911D01*
X-1649068Y6977271D01*
X-1578586Y6807111D01*
X-1476262Y6653972D01*
X-1346028Y6523738D01*
X-1192889Y6421414D01*
X-1022729Y6350932D01*
X-842089Y6315000D01*
X-657911Y6315000D01*
X-477271Y6350932D01*
X-307111Y6421414D01*
X-153972Y6523738D01*
X-23738Y6653972D01*
X78586Y6807111D01*
X149068Y6977271D01*
X185000Y7157911D01*
X185000Y7342089D01*
X149068Y7522729D01*
X78586Y7692889D01*
X-23738Y7846028D01*
X-153972Y7976262D01*
X-307111Y8078586D01*
X-477271Y8149068D01*
X-657911Y8185000D01*
X-842089Y8185000D01*
X-1022729Y8149068D01*
X-1165000Y8090138D01*
X-1165000Y8231863D01*
X-1206696Y8441483D01*
X-1288485Y8638940D01*
X-1407225Y8816647D01*
X-1432667Y8842089D01*
X3440000Y8842089D01*
X3440000Y8657911D01*
X3475932Y8477271D01*
X3546414Y8307111D01*
X3648738Y8153972D01*
X3778972Y8023738D01*
X3932111Y7921414D01*
X4102271Y7850932D01*
X4282911Y7815000D01*
X4467089Y7815000D01*
X4647729Y7850932D01*
X4817889Y7921414D01*
X4971028Y8023738D01*
X5101262Y8153972D01*
X5203586Y8307111D01*
X5274068Y8477271D01*
X5310000Y8657911D01*
X5310000Y8842089D01*
X5274068Y9022729D01*
X5203586Y9192889D01*
X5101262Y9346028D01*
X4971028Y9476262D01*
X4817889Y9578586D01*
X4647729Y9649068D01*
X4467089Y9685000D01*
X4282911Y9685000D01*
X4102271Y9649068D01*
X3932111Y9578586D01*
X3778972Y9476262D01*
X3648738Y9346028D01*
X3546414Y9192889D01*
X3475932Y9022729D01*
X3440000Y8842089D01*
X-1432667Y8842089D01*
X-1558353Y8967775D01*
X-1736060Y9086515D01*
X-1933517Y9168304D01*
X-2143137Y9210000D01*
X-2356863Y9210000D01*
X-2566483Y9168304D01*
X-2763940Y9086515D01*
X-2941647Y8967775D01*
X-3092775Y8816647D01*
X-3211515Y8638940D01*
X-3293304Y8441483D01*
X-3335000Y8231863D01*
X-4440000Y8231863D01*
X-4440000Y8342089D01*
X-4475932Y8522729D01*
X-4546414Y8692889D01*
X-4648738Y8846028D01*
X-4778972Y8976262D01*
X-4932111Y9078586D01*
X-5102271Y9149068D01*
X-5282911Y9185000D01*
X-5467089Y9185000D01*
X-5647729Y9149068D01*
X-5817889Y9078586D01*
X-5971028Y8976262D01*
X-6101262Y8846028D01*
X-6203586Y8692889D01*
X-6274068Y8522729D01*
X-6310000Y8342089D01*
X-9085621Y8342089D01*
X-9023738Y8403972D01*
X-8921414Y8557111D01*
X-8850932Y8727271D01*
X-8815000Y8907911D01*
X-8815000Y9092089D01*
X-8850932Y9272729D01*
X-8921414Y9442889D01*
X-9023738Y9596028D01*
X-9153972Y9726262D01*
X-9307111Y9828586D01*
X-9477271Y9899068D01*
X-9657911Y9935000D01*
X-9842089Y9935000D01*
X-10022729Y9899068D01*
X-10192889Y9828586D01*
X-10346028Y9726262D01*
X-10476262Y9596028D01*
X-10578586Y9442889D01*
X-10649068Y9272729D01*
X-10685000Y9092089D01*
X-11308806Y9092089D01*
X-10807787Y10343656D01*
X-4836567Y10343656D01*
X-4836567Y10159478D01*
X-4800635Y9978838D01*
X-4730153Y9808678D01*
X-4627829Y9655539D01*
X-4497595Y9525305D01*
X-4344456Y9422981D01*
X-4174296Y9352499D01*
X-3993656Y9316567D01*
X-3809478Y9316567D01*
X-3628838Y9352499D01*
X-3458678Y9422981D01*
X-3305539Y9525305D01*
X-3175305Y9655539D01*
X-3072981Y9808678D01*
X-3002499Y9978838D01*
X-2979972Y10092089D01*
X-1685000Y10092089D01*
X-1685000Y9907911D01*
X-1649068Y9727271D01*
X-1578586Y9557111D01*
X-1476262Y9403972D01*
X-1346028Y9273738D01*
X-1192889Y9171414D01*
X-1022729Y9100932D01*
X-842089Y9065000D01*
X-657911Y9065000D01*
X-477271Y9100932D01*
X-307111Y9171414D01*
X-153972Y9273738D01*
X-23738Y9403972D01*
X0Y9439498D01*
X23738Y9403972D01*
X153972Y9273738D01*
X307111Y9171414D01*
X477271Y9100932D01*
X657911Y9065000D01*
X842089Y9065000D01*
X1022729Y9100932D01*
X1192889Y9171414D01*
X1346028Y9273738D01*
X1476262Y9403972D01*
X1578586Y9557111D01*
X1649068Y9727271D01*
X1685000Y9907911D01*
X1685000Y10092089D01*
X1649068Y10272729D01*
X1620339Y10342089D01*
X2315000Y10342089D01*
X2315000Y10157911D01*
X2350932Y9977271D01*
X2421414Y9807111D01*
X2523738Y9653972D01*
X2653972Y9523738D01*
X2807111Y9421414D01*
X2977271Y9350932D01*
X3157911Y9315000D01*
X3342089Y9315000D01*
X3522729Y9350932D01*
X3692889Y9421414D01*
X3846028Y9523738D01*
X3976262Y9653972D01*
X4078586Y9807111D01*
X4149068Y9977271D01*
X4185000Y10157911D01*
X4185000Y10342089D01*
X4149068Y10522729D01*
X4078586Y10692889D01*
X3976262Y10846028D01*
X3846028Y10976262D01*
X3692889Y11078586D01*
X3522729Y11149068D01*
X3342089Y11185000D01*
X3157911Y11185000D01*
X2977271Y11149068D01*
X2807111Y11078586D01*
X2653972Y10976262D01*
X2523738Y10846028D01*
X2421414Y10692889D01*
X2350932Y10522729D01*
X2315000Y10342089D01*
X1620339Y10342089D01*
X1578586Y10442889D01*
X1476262Y10596028D01*
X1346028Y10726262D01*
X1192889Y10828586D01*
X1022729Y10899068D01*
X842089Y10935000D01*
X657911Y10935000D01*
X477271Y10899068D01*
X307111Y10828586D01*
X153972Y10726262D01*
X23738Y10596028D01*
X0Y10560502D01*
X-23738Y10596028D01*
X-153972Y10726262D01*
X-307111Y10828586D01*
X-477271Y10899068D01*
X-657911Y10935000D01*
X-842089Y10935000D01*
X-1022729Y10899068D01*
X-1192889Y10828586D01*
X-1346028Y10726262D01*
X-1476262Y10596028D01*
X-1578586Y10442889D01*
X-1649068Y10272729D01*
X-1685000Y10092089D01*
X-2979972Y10092089D01*
X-2966567Y10159478D01*
X-2966567Y10343656D01*
X-3002499Y10524296D01*
X-3072981Y10694456D01*
X-3175305Y10847595D01*
X-3305539Y10977829D01*
X-3458678Y11080153D01*
X-3628838Y11150635D01*
X-3809478Y11186567D01*
X-3993656Y11186567D01*
X-4174296Y11150635D01*
X-4344456Y11080153D01*
X-4497595Y10977829D01*
X-4627829Y10847595D01*
X-4730153Y10694456D01*
X-4800635Y10524296D01*
X-4836567Y10343656D01*
X-10807787Y10343656D01*
X-10358061Y11467089D01*
X-7185000Y11467089D01*
X-7185000Y11282911D01*
X-7149068Y11102271D01*
X-7078586Y10932111D01*
X-6976262Y10778972D01*
X-6846028Y10648738D01*
X-6692889Y10546414D01*
X-6522729Y10475932D01*
X-6342089Y10440000D01*
X-6157911Y10440000D01*
X-5977271Y10475932D01*
X-5807111Y10546414D01*
X-5653972Y10648738D01*
X-5523738Y10778972D01*
X-5421414Y10932111D01*
X-5350932Y11102271D01*
X-5315000Y11282911D01*
X-5315000Y11467089D01*
X-5350932Y11647729D01*
X-5421414Y11817889D01*
X-5523738Y11971028D01*
X-5653972Y12101262D01*
X-5807111Y12203586D01*
X-5977271Y12274068D01*
X-6157911Y12310000D01*
X-6342089Y12310000D01*
X-6522729Y12274068D01*
X-6692889Y12203586D01*
X-6846028Y12101262D01*
X-6976262Y11971028D01*
X-7078586Y11817889D01*
X-7149068Y11647729D01*
X-7185000Y11467089D01*
X-10358061Y11467089D01*
X-9553965Y13475752D01*
X-5455000Y13475752D01*
X-5455000Y12264249D01*
X-5438577Y12097502D01*
X-5373676Y11883554D01*
X-5268284Y11686377D01*
X-5126449Y11513551D01*
X-4953623Y11371716D01*
X-4756447Y11266324D01*
X-4542499Y11201423D01*
X-4320000Y11179509D01*
X-4097502Y11201423D01*
X-3883554Y11266324D01*
X-3686377Y11371716D01*
X-3513551Y11513551D01*
X-3371716Y11686377D01*
X-3266324Y11883553D01*
X-3201423Y12097501D01*
X-3185000Y12264248D01*
X-3185000Y12483096D01*
X-3170022Y12476892D01*
X-2984552Y12440000D01*
X-2795448Y12440000D01*
X-2609978Y12476892D01*
X-2435269Y12549259D01*
X-2278036Y12654319D01*
X-2144319Y12788036D01*
X-2039259Y12945269D01*
X-1966892Y13119978D01*
X-1930000Y13305448D01*
X-1930000Y13494552D01*
X1930000Y13494552D01*
X1930000Y13305448D01*
X1966892Y13119978D01*
X2039259Y12945269D01*
X2144319Y12788036D01*
X2278036Y12654319D01*
X2435269Y12549259D01*
X2609978Y12476892D01*
X2795448Y12440000D01*
X2984552Y12440000D01*
X3170022Y12476892D01*
X3185000Y12483096D01*
X3185000Y12264249D01*
X3201423Y12097502D01*
X3266324Y11883554D01*
X3371716Y11686377D01*
X3513551Y11513551D01*
X3686377Y11371716D01*
X3883553Y11266324D01*
X4097501Y11201423D01*
X4320000Y11179509D01*
X4542498Y11201423D01*
X4756446Y11266324D01*
X4953623Y11371716D01*
X5069835Y11467089D01*
X5315000Y11467089D01*
X5315000Y11282911D01*
X5350932Y11102271D01*
X5421414Y10932111D01*
X5523738Y10778972D01*
X5653972Y10648738D01*
X5807111Y10546414D01*
X5977271Y10475932D01*
X6157911Y10440000D01*
X6342089Y10440000D01*
X6522729Y10475932D01*
X6692889Y10546414D01*
X6846028Y10648738D01*
X6976262Y10778972D01*
X7078586Y10932111D01*
X7149068Y11102271D01*
X7185000Y11282911D01*
X7185000Y11467089D01*
X7149068Y11647729D01*
X7078586Y11817889D01*
X6976262Y11971028D01*
X6846028Y12101262D01*
X6692889Y12203586D01*
X6522729Y12274068D01*
X6342089Y12310000D01*
X6157911Y12310000D01*
X5977271Y12274068D01*
X5807111Y12203586D01*
X5653972Y12101262D01*
X5523738Y11971028D01*
X5421414Y11817889D01*
X5350932Y11647729D01*
X5315000Y11467089D01*
X5069835Y11467089D01*
X5126449Y11513551D01*
X5268284Y11686377D01*
X5373676Y11883553D01*
X5438577Y12097501D01*
X5455000Y12264248D01*
X5455000Y13475752D01*
X5438577Y13642499D01*
X5373676Y13856447D01*
X5268284Y14053623D01*
X5126449Y14226449D01*
X4953623Y14368284D01*
X4756447Y14473676D01*
X4542499Y14538577D01*
X4320000Y14560491D01*
X4097502Y14538577D01*
X3883554Y14473676D01*
X3686378Y14368284D01*
X3513552Y14226449D01*
X3466638Y14169285D01*
X3344731Y14250741D01*
X3170022Y14323108D01*
X2984552Y14360000D01*
X2795448Y14360000D01*
X2609978Y14323108D01*
X2435269Y14250741D01*
X2278036Y14145681D01*
X2144319Y14011964D01*
X2039259Y13854731D01*
X1966892Y13680022D01*
X1930000Y13494552D01*
X-1930000Y13494552D01*
X-1966892Y13680022D01*
X-2039259Y13854731D01*
X-2144319Y14011964D01*
X-2278036Y14145681D01*
X-2435269Y14250741D01*
X-2609978Y14323108D01*
X-2795448Y14360000D01*
X-2984552Y14360000D01*
X-3170022Y14323108D01*
X-3344731Y14250741D01*
X-3466638Y14169285D01*
X-3513551Y14226449D01*
X-3686377Y14368284D01*
X-3883553Y14473676D01*
X-4097501Y14538577D01*
X-4320000Y14560491D01*
X-4542498Y14538577D01*
X-4756446Y14473676D01*
X-4953622Y14368284D01*
X-5126448Y14226449D01*
X-5268283Y14053623D01*
X-5373676Y13856447D01*
X-5438577Y13642499D01*
X-5455000Y13475752D01*
X-9553965Y13475752D01*
X-7980731Y17405752D01*
X-5455000Y17405752D01*
X-5455000Y16694249D01*
X-5438577Y16527502D01*
X-5373676Y16313554D01*
X-5268284Y16116377D01*
X-5126449Y15943551D01*
X-4953623Y15801716D01*
X-4756447Y15696324D01*
X-4542499Y15631423D01*
X-4320000Y15609509D01*
X-4097502Y15631423D01*
X-3883554Y15696324D01*
X-3686377Y15801716D01*
X-3513551Y15943551D01*
X-3371716Y16116377D01*
X-3266324Y16313553D01*
X-3201423Y16527501D01*
X-3185000Y16694248D01*
X-3185000Y17405751D01*
X-3185000Y17405752D01*
X3185000Y17405752D01*
X3185000Y16694249D01*
X3201423Y16527502D01*
X3266324Y16313554D01*
X3371716Y16116377D01*
X3513551Y15943551D01*
X3686377Y15801716D01*
X3883553Y15696324D01*
X4097501Y15631423D01*
X4320000Y15609509D01*
X4542498Y15631423D01*
X4756446Y15696324D01*
X4953623Y15801716D01*
X5126449Y15943551D01*
X5268284Y16116377D01*
X5373676Y16313553D01*
X5438577Y16527501D01*
X5455000Y16694248D01*
X5455000Y17405751D01*
X5438577Y17572498D01*
X5373676Y17786446D01*
X5268284Y17983623D01*
X5126449Y18156449D01*
X4953623Y18298284D01*
X4756447Y18403676D01*
X4542499Y18468577D01*
X4320000Y18490491D01*
X4097502Y18468577D01*
X3883554Y18403676D01*
X3686378Y18298284D01*
X3513552Y18156449D01*
X3371717Y17983623D01*
X3266324Y17786447D01*
X3201423Y17572499D01*
X3185000Y17405752D01*
X-3185000Y17405752D01*
X-3201423Y17572498D01*
X-3266324Y17786446D01*
X-3371716Y17983623D01*
X-3513551Y18156449D01*
X-3686377Y18298284D01*
X-3883553Y18403676D01*
X-4097501Y18468577D01*
X-4320000Y18490491D01*
X-4542498Y18468577D01*
X-4756446Y18403676D01*
X-4953622Y18298284D01*
X-5126448Y18156449D01*
X-5268283Y17983623D01*
X-5373676Y17786447D01*
X-5438577Y17572499D01*
X-5455000Y17405752D01*
X-7980731Y17405752D01*
X-7136368Y19515000D01*
X7136368Y19515000D01*
X13173102Y4435000D01*
G37*
G04 #@! TD.AperFunction*
M02*
