M48
; DRILL file {KiCad (5.1.10-1-10_14)} date Monday, July 26, 2021 at 11:30:27 AM
; FORMAT={-:-/ absolute / metric / decimal}
; #@! TF.CreationDate,2021-07-26T11:30:27-07:00
; #@! TF.GenerationSoftware,Kicad,Pcbnew,(5.1.10-1-10_14)
; #@! TF.FileFunction,Plated,1,4,PTH
FMAT,2
METRIC
T1C0.200
T2C0.300
T3C0.400
T4C0.600
%
G90
G05
T1
X0.75Y-1.85
T2
X-7.9Y-10.1
X-7.5Y-7.6
X-6.223Y-1.8
X-6.0Y16.4
X-5.95Y-16.95
X-5.8Y0.22
X-5.8Y-0.75
X-5.643Y4.743
X-4.74Y-2.67
X-4.35Y6.8
X-3.7Y-6.5
X-3.3Y-9.5
X-1.7Y-4.0
X-1.4Y6.95
X-1.2Y13.7
X0.327Y13.75
X0.625Y-11.875
X1.95Y-11.9
X2.75Y-7.55
X2.9Y-6.2
X3.375Y-11.875
X4.675Y-2.25
X5.75Y0.65
X6.0Y16.4
X6.0Y-17.0
X6.2Y5.65
X6.2Y1.75
X7.357Y-10.593
X7.454Y-5.0
X7.6Y-2.6
X8.6Y-9.35
T3
X-11.7Y-7.5
X-10.024Y-8.574
X-6.4Y-11.85
X-4.3Y11.1
X-3.8Y-15.4
X-2.45Y10.577
X-1.4Y3.4
X-1.4Y0.6
X0.0Y2.0
X1.25Y10.577
X1.4Y3.4
X1.4Y0.6
X4.3Y11.1
X4.4Y9.7
X5.425Y7.65
X5.7Y-13.7
X6.0Y-11.45
X9.45Y-8.0
X11.7Y-7.6
T4
X-15.645Y-11.536G85X-16.069Y-11.96
G05
X-12.513Y-8.403G85X-13.29Y-9.181
G05
X-9.536Y-17.645G85X-9.96Y-18.069
G05
X-6.403Y-14.513G85X-7.181Y-15.29
G05
X-4.32Y16.75G85X-4.32Y17.35
G05
X-4.32Y12.32G85X-4.32Y13.42
G05
X4.32Y16.75G85X4.32Y17.35
G05
X4.32Y12.32G85X4.32Y13.42
G05
X6.403Y-14.513G85X7.181Y-15.29
G05
X9.536Y-17.645G85X9.96Y-18.069
G05
X12.513Y-8.403G85X13.29Y-9.181
G05
X15.645Y-11.536G85X16.069Y-11.96
G05
T0
M30
