G04 #@! TF.GenerationSoftware,KiCad,Pcbnew,(5.1.10-1-10_14)*
G04 #@! TF.CreationDate,2021-07-25T02:22:53-07:00*
G04 #@! TF.ProjectId,Synapse,53796e61-7073-4652-9e6b-696361645f70,1*
G04 #@! TF.SameCoordinates,Original*
G04 #@! TF.FileFunction,Soldermask,Top*
G04 #@! TF.FilePolarity,Negative*
%FSLAX46Y46*%
G04 Gerber Fmt 4.6, Leading zero omitted, Abs format (unit mm)*
G04 Created by KiCad (PCBNEW (5.1.10-1-10_14)) date 2021-07-25 02:22:53*
%MOMM*%
%LPD*%
G01*
G04 APERTURE LIST*
%ADD10R,0.300000X0.450000*%
%ADD11R,0.450000X0.500000*%
%ADD12R,0.450000X0.400000*%
%ADD13R,0.900000X1.700000*%
%ADD14R,0.600000X1.100000*%
%ADD15R,1.150000X1.000000*%
%ADD16C,0.152400*%
%ADD17C,0.650000*%
%ADD18R,0.600000X1.450000*%
%ADD19R,0.300000X1.450000*%
%ADD20O,1.000000X2.100000*%
%ADD21O,1.000000X1.600000*%
%ADD22R,5.600000X5.600000*%
G04 APERTURE END LIST*
G36*
G01*
X5140000Y7415000D02*
X5140000Y7785000D01*
G75*
G02*
X5275000Y7920000I135000J0D01*
G01*
X5545000Y7920000D01*
G75*
G02*
X5680000Y7785000I0J-135000D01*
G01*
X5680000Y7415000D01*
G75*
G02*
X5545000Y7280000I-135000J0D01*
G01*
X5275000Y7280000D01*
G75*
G02*
X5140000Y7415000I0J135000D01*
G01*
G37*
G36*
G01*
X4120000Y7415000D02*
X4120000Y7785000D01*
G75*
G02*
X4255000Y7920000I135000J0D01*
G01*
X4525000Y7920000D01*
G75*
G02*
X4660000Y7785000I0J-135000D01*
G01*
X4660000Y7415000D01*
G75*
G02*
X4525000Y7280000I-135000J0D01*
G01*
X4255000Y7280000D01*
G75*
G02*
X4120000Y7415000I0J135000D01*
G01*
G37*
G36*
G01*
X-6310000Y-7230000D02*
X-5940000Y-7230000D01*
G75*
G02*
X-5805000Y-7365000I0J-135000D01*
G01*
X-5805000Y-7635000D01*
G75*
G02*
X-5940000Y-7770000I-135000J0D01*
G01*
X-6310000Y-7770000D01*
G75*
G02*
X-6445000Y-7635000I0J135000D01*
G01*
X-6445000Y-7365000D01*
G75*
G02*
X-6310000Y-7230000I135000J0D01*
G01*
G37*
G36*
G01*
X-6310000Y-6210000D02*
X-5940000Y-6210000D01*
G75*
G02*
X-5805000Y-6345000I0J-135000D01*
G01*
X-5805000Y-6615000D01*
G75*
G02*
X-5940000Y-6750000I-135000J0D01*
G01*
X-6310000Y-6750000D01*
G75*
G02*
X-6445000Y-6615000I0J135000D01*
G01*
X-6445000Y-6345000D01*
G75*
G02*
X-6310000Y-6210000I135000J0D01*
G01*
G37*
G36*
G01*
X-8175000Y-7230000D02*
X-7805000Y-7230000D01*
G75*
G02*
X-7670000Y-7365000I0J-135000D01*
G01*
X-7670000Y-7635000D01*
G75*
G02*
X-7805000Y-7770000I-135000J0D01*
G01*
X-8175000Y-7770000D01*
G75*
G02*
X-8310000Y-7635000I0J135000D01*
G01*
X-8310000Y-7365000D01*
G75*
G02*
X-8175000Y-7230000I135000J0D01*
G01*
G37*
G36*
G01*
X-8175000Y-6210000D02*
X-7805000Y-6210000D01*
G75*
G02*
X-7670000Y-6345000I0J-135000D01*
G01*
X-7670000Y-6615000D01*
G75*
G02*
X-7805000Y-6750000I-135000J0D01*
G01*
X-8175000Y-6750000D01*
G75*
G02*
X-8310000Y-6615000I0J135000D01*
G01*
X-8310000Y-6345000D01*
G75*
G02*
X-8175000Y-6210000I135000J0D01*
G01*
G37*
G36*
G01*
X4315000Y4577500D02*
X4315000Y4922500D01*
G75*
G02*
X4462500Y5070000I147500J0D01*
G01*
X4757500Y5070000D01*
G75*
G02*
X4905000Y4922500I0J-147500D01*
G01*
X4905000Y4577500D01*
G75*
G02*
X4757500Y4430000I-147500J0D01*
G01*
X4462500Y4430000D01*
G75*
G02*
X4315000Y4577500I0J147500D01*
G01*
G37*
G36*
G01*
X3345000Y4577500D02*
X3345000Y4922500D01*
G75*
G02*
X3492500Y5070000I147500J0D01*
G01*
X3787500Y5070000D01*
G75*
G02*
X3935000Y4922500I0J-147500D01*
G01*
X3935000Y4577500D01*
G75*
G02*
X3787500Y4430000I-147500J0D01*
G01*
X3492500Y4430000D01*
G75*
G02*
X3345000Y4577500I0J147500D01*
G01*
G37*
G36*
G01*
X-8490000Y9472500D02*
X-8490000Y9127500D01*
G75*
G02*
X-8637500Y8980000I-147500J0D01*
G01*
X-8932500Y8980000D01*
G75*
G02*
X-9080000Y9127500I0J147500D01*
G01*
X-9080000Y9472500D01*
G75*
G02*
X-8932500Y9620000I147500J0D01*
G01*
X-8637500Y9620000D01*
G75*
G02*
X-8490000Y9472500I0J-147500D01*
G01*
G37*
G36*
G01*
X-7520000Y9472500D02*
X-7520000Y9127500D01*
G75*
G02*
X-7667500Y8980000I-147500J0D01*
G01*
X-7962500Y8980000D01*
G75*
G02*
X-8110000Y9127500I0J147500D01*
G01*
X-8110000Y9472500D01*
G75*
G02*
X-7962500Y9620000I147500J0D01*
G01*
X-7667500Y9620000D01*
G75*
G02*
X-7520000Y9472500I0J-147500D01*
G01*
G37*
G36*
G01*
X-11190000Y3672500D02*
X-11190000Y3327500D01*
G75*
G02*
X-11337500Y3180000I-147500J0D01*
G01*
X-11632500Y3180000D01*
G75*
G02*
X-11780000Y3327500I0J147500D01*
G01*
X-11780000Y3672500D01*
G75*
G02*
X-11632500Y3820000I147500J0D01*
G01*
X-11337500Y3820000D01*
G75*
G02*
X-11190000Y3672500I0J-147500D01*
G01*
G37*
G36*
G01*
X-10220000Y3672500D02*
X-10220000Y3327500D01*
G75*
G02*
X-10367500Y3180000I-147500J0D01*
G01*
X-10662500Y3180000D01*
G75*
G02*
X-10810000Y3327500I0J147500D01*
G01*
X-10810000Y3672500D01*
G75*
G02*
X-10662500Y3820000I147500J0D01*
G01*
X-10367500Y3820000D01*
G75*
G02*
X-10220000Y3672500I0J-147500D01*
G01*
G37*
D10*
X-8750000Y6725000D03*
X-8250000Y8125000D03*
X-7750000Y6725000D03*
X-8750000Y8125000D03*
X-7750000Y8125000D03*
D11*
X-8875000Y5025000D03*
D12*
X-7725000Y5425000D03*
X-7725000Y4625000D03*
G36*
G01*
X-11400000Y4925000D02*
X-11400000Y4325000D01*
G75*
G02*
X-11450000Y4275000I-50000J0D01*
G01*
X-11750000Y4275000D01*
G75*
G02*
X-11800000Y4325000I0J50000D01*
G01*
X-11800000Y4925000D01*
G75*
G02*
X-11750000Y4975000I50000J0D01*
G01*
X-11450000Y4975000D01*
G75*
G02*
X-11400000Y4925000I0J-50000D01*
G01*
G37*
G36*
G01*
X-10700000Y4925000D02*
X-10700000Y4775000D01*
G75*
G02*
X-10750000Y4725000I-50000J0D01*
G01*
X-11050000Y4725000D01*
G75*
G02*
X-11100000Y4775000I0J50000D01*
G01*
X-11100000Y4925000D01*
G75*
G02*
X-11050000Y4975000I50000J0D01*
G01*
X-10750000Y4975000D01*
G75*
G02*
X-10700000Y4925000I0J-50000D01*
G01*
G37*
G36*
G01*
X-10700000Y4475000D02*
X-10700000Y4325000D01*
G75*
G02*
X-10750000Y4275000I-50000J0D01*
G01*
X-11050000Y4275000D01*
G75*
G02*
X-11100000Y4325000I0J50000D01*
G01*
X-11100000Y4475000D01*
G75*
G02*
X-11050000Y4525000I50000J0D01*
G01*
X-10750000Y4525000D01*
G75*
G02*
X-10700000Y4475000I0J-50000D01*
G01*
G37*
G36*
G01*
X4365000Y2460000D02*
X4365000Y2800000D01*
G75*
G02*
X4505000Y2940000I140000J0D01*
G01*
X4785000Y2940000D01*
G75*
G02*
X4925000Y2800000I0J-140000D01*
G01*
X4925000Y2460000D01*
G75*
G02*
X4785000Y2320000I-140000J0D01*
G01*
X4505000Y2320000D01*
G75*
G02*
X4365000Y2460000I0J140000D01*
G01*
G37*
G36*
G01*
X5325000Y2460000D02*
X5325000Y2800000D01*
G75*
G02*
X5465000Y2940000I140000J0D01*
G01*
X5745000Y2940000D01*
G75*
G02*
X5885000Y2800000I0J-140000D01*
G01*
X5885000Y2460000D01*
G75*
G02*
X5745000Y2320000I-140000J0D01*
G01*
X5465000Y2320000D01*
G75*
G02*
X5325000Y2460000I0J140000D01*
G01*
G37*
D13*
X-8550000Y-250000D03*
X-11950000Y-250000D03*
X-8550000Y-3750000D03*
X-11950000Y-3750000D03*
D14*
X10876000Y-3302000D03*
X9476000Y-3302000D03*
D15*
X9301000Y2315200D03*
X11051000Y2315200D03*
X11051000Y915200D03*
X9301000Y915200D03*
D16*
G36*
X11738370Y-9566440D02*
G01*
X10713066Y-8541136D01*
X11137330Y-8116872D01*
X12162634Y-9142176D01*
X11738370Y-9566440D01*
G37*
G36*
X11172685Y-10132125D02*
G01*
X10147381Y-9106821D01*
X10571645Y-8682557D01*
X11596949Y-9707861D01*
X11172685Y-10132125D01*
G37*
G36*
X7707861Y-13596949D02*
G01*
X6682557Y-12571645D01*
X7106821Y-12147381D01*
X8132125Y-13172685D01*
X7707861Y-13596949D01*
G37*
G36*
X7142176Y-14162634D02*
G01*
X6116872Y-13137330D01*
X6541136Y-12713066D01*
X7566440Y-13738370D01*
X7142176Y-14162634D01*
G37*
G36*
X7142176Y-14162634D02*
G01*
X6116872Y-13137330D01*
X6541136Y-12713066D01*
X7566440Y-13738370D01*
X7142176Y-14162634D01*
G37*
G36*
X7707861Y-13596949D02*
G01*
X6682557Y-12571645D01*
X7106821Y-12147381D01*
X8132125Y-13172685D01*
X7707861Y-13596949D01*
G37*
G36*
X11172685Y-10132125D02*
G01*
X10147381Y-9106821D01*
X10571645Y-8682557D01*
X11596949Y-9707861D01*
X11172685Y-10132125D01*
G37*
G36*
X11738370Y-9566440D02*
G01*
X10713066Y-8541136D01*
X11137330Y-8116872D01*
X12162634Y-9142176D01*
X11738370Y-9566440D01*
G37*
G36*
X8308902Y-12995908D02*
G01*
X7283598Y-11970604D01*
X7495730Y-11758472D01*
X8521034Y-12783776D01*
X8308902Y-12995908D01*
G37*
G36*
X8662456Y-12642355D02*
G01*
X7637152Y-11617051D01*
X7849284Y-11404919D01*
X8874588Y-12430223D01*
X8662456Y-12642355D01*
G37*
G36*
X9016009Y-12288801D02*
G01*
X7990705Y-11263497D01*
X8202837Y-11051365D01*
X9228141Y-12076669D01*
X9016009Y-12288801D01*
G37*
G36*
X9723116Y-11581694D02*
G01*
X8697812Y-10556390D01*
X8909944Y-10344258D01*
X9935248Y-11369562D01*
X9723116Y-11581694D01*
G37*
G36*
X10076669Y-11228141D02*
G01*
X9051365Y-10202837D01*
X9263497Y-9990705D01*
X10288801Y-11016009D01*
X10076669Y-11228141D01*
G37*
G36*
X10430223Y-10874588D02*
G01*
X9404919Y-9849284D01*
X9617051Y-9637152D01*
X10642355Y-10662456D01*
X10430223Y-10874588D01*
G37*
G36*
X10783776Y-10521034D02*
G01*
X9758472Y-9495730D01*
X9970604Y-9283598D01*
X10995908Y-10308902D01*
X10783776Y-10521034D01*
G37*
G36*
X9369562Y-11935248D02*
G01*
X8344258Y-10909944D01*
X8556390Y-10697812D01*
X9581694Y-11723116D01*
X9369562Y-11935248D01*
G37*
G36*
G01*
X12876813Y-9474516D02*
X12098995Y-8696698D01*
G75*
G02*
X12098995Y-7989592I353553J353553D01*
G01*
X12098995Y-7989592D01*
G75*
G02*
X12806101Y-7989592I353553J-353553D01*
G01*
X13583919Y-8767410D01*
G75*
G02*
X13583919Y-9474516I-353553J-353553D01*
G01*
X13583919Y-9474516D01*
G75*
G02*
X12876813Y-9474516I-353553J353553D01*
G01*
G37*
G36*
G01*
X6767410Y-15583919D02*
X5989592Y-14806101D01*
G75*
G02*
X5989592Y-14098995I353553J353553D01*
G01*
X5989592Y-14098995D01*
G75*
G02*
X6696698Y-14098995I353553J-353553D01*
G01*
X7474516Y-14876813D01*
G75*
G02*
X7474516Y-15583919I-353553J-353553D01*
G01*
X7474516Y-15583919D01*
G75*
G02*
X6767410Y-15583919I-353553J353553D01*
G01*
G37*
D17*
X8117984Y-14205061D03*
G36*
G01*
X9546340Y-18362848D02*
X9122076Y-17938584D01*
G75*
G02*
X9122076Y-17231478I353553J353553D01*
G01*
X9122076Y-17231478D01*
G75*
G02*
X9829182Y-17231478I353553J-353553D01*
G01*
X10253446Y-17655742D01*
G75*
G02*
X10253446Y-18362848I-353553J-353553D01*
G01*
X10253446Y-18362848D01*
G75*
G02*
X9546340Y-18362848I-353553J353553D01*
G01*
G37*
X12205061Y-10117984D03*
G36*
G01*
X15655742Y-12253446D02*
X15231478Y-11829182D01*
G75*
G02*
X15231478Y-11122076I353553J353553D01*
G01*
X15231478Y-11122076D01*
G75*
G02*
X15938584Y-11122076I353553J-353553D01*
G01*
X16362848Y-11546340D01*
G75*
G02*
X16362848Y-12253446I-353553J-353553D01*
G01*
X16362848Y-12253446D01*
G75*
G02*
X15655742Y-12253446I-353553J353553D01*
G01*
G37*
G36*
G01*
X-10253446Y-17655742D02*
X-9829182Y-17231478D01*
G75*
G02*
X-9122076Y-17231478I353553J-353553D01*
G01*
X-9122076Y-17231478D01*
G75*
G02*
X-9122076Y-17938584I-353553J-353553D01*
G01*
X-9546340Y-18362848D01*
G75*
G02*
X-10253446Y-18362848I-353553J353553D01*
G01*
X-10253446Y-18362848D01*
G75*
G02*
X-10253446Y-17655742I353553J353553D01*
G01*
G37*
X-8117984Y-14205061D03*
G36*
G01*
X-16362848Y-11546340D02*
X-15938584Y-11122076D01*
G75*
G02*
X-15231478Y-11122076I353553J-353553D01*
G01*
X-15231478Y-11122076D01*
G75*
G02*
X-15231478Y-11829182I-353553J-353553D01*
G01*
X-15655742Y-12253446D01*
G75*
G02*
X-16362848Y-12253446I-353553J353553D01*
G01*
X-16362848Y-12253446D01*
G75*
G02*
X-16362848Y-11546340I353553J353553D01*
G01*
G37*
X-12205061Y-10117984D03*
G36*
G01*
X-13583919Y-8767410D02*
X-12806101Y-7989592D01*
G75*
G02*
X-12098995Y-7989592I353553J-353553D01*
G01*
X-12098995Y-7989592D01*
G75*
G02*
X-12098995Y-8696698I-353553J-353553D01*
G01*
X-12876813Y-9474516D01*
G75*
G02*
X-13583919Y-9474516I-353553J353553D01*
G01*
X-13583919Y-9474516D01*
G75*
G02*
X-13583919Y-8767410I353553J353553D01*
G01*
G37*
G36*
G01*
X-7474516Y-14876813D02*
X-6696698Y-14098995D01*
G75*
G02*
X-5989592Y-14098995I353553J-353553D01*
G01*
X-5989592Y-14098995D01*
G75*
G02*
X-5989592Y-14806101I-353553J-353553D01*
G01*
X-6767410Y-15583919D01*
G75*
G02*
X-7474516Y-15583919I-353553J353553D01*
G01*
X-7474516Y-15583919D01*
G75*
G02*
X-7474516Y-14876813I353553J353553D01*
G01*
G37*
D16*
G36*
X-9935248Y-11369562D02*
G01*
X-8909944Y-10344258D01*
X-8697812Y-10556390D01*
X-9723116Y-11581694D01*
X-9935248Y-11369562D01*
G37*
G36*
X-8521034Y-12783776D02*
G01*
X-7495730Y-11758472D01*
X-7283598Y-11970604D01*
X-8308902Y-12995908D01*
X-8521034Y-12783776D01*
G37*
G36*
X-8874588Y-12430223D02*
G01*
X-7849284Y-11404919D01*
X-7637152Y-11617051D01*
X-8662456Y-12642355D01*
X-8874588Y-12430223D01*
G37*
G36*
X-9228141Y-12076669D02*
G01*
X-8202837Y-11051365D01*
X-7990705Y-11263497D01*
X-9016009Y-12288801D01*
X-9228141Y-12076669D01*
G37*
G36*
X-9581694Y-11723116D02*
G01*
X-8556390Y-10697812D01*
X-8344258Y-10909944D01*
X-9369562Y-11935248D01*
X-9581694Y-11723116D01*
G37*
G36*
X-10288801Y-11016009D02*
G01*
X-9263497Y-9990705D01*
X-9051365Y-10202837D01*
X-10076669Y-11228141D01*
X-10288801Y-11016009D01*
G37*
G36*
X-10642355Y-10662456D02*
G01*
X-9617051Y-9637152D01*
X-9404919Y-9849284D01*
X-10430223Y-10874588D01*
X-10642355Y-10662456D01*
G37*
G36*
X-10995908Y-10308902D02*
G01*
X-9970604Y-9283598D01*
X-9758472Y-9495730D01*
X-10783776Y-10521034D01*
X-10995908Y-10308902D01*
G37*
G36*
X-7566440Y-13738370D02*
G01*
X-6541136Y-12713066D01*
X-6116872Y-13137330D01*
X-7142176Y-14162634D01*
X-7566440Y-13738370D01*
G37*
G36*
X-8132125Y-13172685D02*
G01*
X-7106821Y-12147381D01*
X-6682557Y-12571645D01*
X-7707861Y-13596949D01*
X-8132125Y-13172685D01*
G37*
G36*
X-11596949Y-9707861D02*
G01*
X-10571645Y-8682557D01*
X-10147381Y-9106821D01*
X-11172685Y-10132125D01*
X-11596949Y-9707861D01*
G37*
G36*
X-12162634Y-9142176D02*
G01*
X-11137330Y-8116872D01*
X-10713066Y-8541136D01*
X-11738370Y-9566440D01*
X-12162634Y-9142176D01*
G37*
G36*
X-12162634Y-9142176D02*
G01*
X-11137330Y-8116872D01*
X-10713066Y-8541136D01*
X-11738370Y-9566440D01*
X-12162634Y-9142176D01*
G37*
G36*
X-11596949Y-9707861D02*
G01*
X-10571645Y-8682557D01*
X-10147381Y-9106821D01*
X-11172685Y-10132125D01*
X-11596949Y-9707861D01*
G37*
G36*
X-8132125Y-13172685D02*
G01*
X-7106821Y-12147381D01*
X-6682557Y-12571645D01*
X-7707861Y-13596949D01*
X-8132125Y-13172685D01*
G37*
G36*
X-7566440Y-13738370D02*
G01*
X-6541136Y-12713066D01*
X-6116872Y-13137330D01*
X-7142176Y-14162634D01*
X-7566440Y-13738370D01*
G37*
D18*
X-3250000Y11955000D03*
X-2450000Y11955000D03*
X2450000Y11955000D03*
X3250000Y11955000D03*
X3250000Y11955000D03*
X2450000Y11955000D03*
X-2450000Y11955000D03*
X-3250000Y11955000D03*
D19*
X1750000Y11955000D03*
X1250000Y11955000D03*
X750000Y11955000D03*
X-250000Y11955000D03*
X-750000Y11955000D03*
X-1250000Y11955000D03*
X-1750000Y11955000D03*
X250000Y11955000D03*
D20*
X-4320000Y12870000D03*
X4320000Y12870000D03*
D17*
X2890000Y13400000D03*
D21*
X4320000Y17050000D03*
D17*
X-2890000Y13400000D03*
D21*
X-4320000Y17050000D03*
G36*
G01*
X-1755000Y-8750000D02*
X-2055000Y-8750000D01*
G75*
G02*
X-2205000Y-8600000I0J150000D01*
G01*
X-2205000Y-6950000D01*
G75*
G02*
X-2055000Y-6800000I150000J0D01*
G01*
X-1755000Y-6800000D01*
G75*
G02*
X-1605000Y-6950000I0J-150000D01*
G01*
X-1605000Y-8600000D01*
G75*
G02*
X-1755000Y-8750000I-150000J0D01*
G01*
G37*
G36*
G01*
X-485000Y-8750000D02*
X-785000Y-8750000D01*
G75*
G02*
X-935000Y-8600000I0J150000D01*
G01*
X-935000Y-6950000D01*
G75*
G02*
X-785000Y-6800000I150000J0D01*
G01*
X-485000Y-6800000D01*
G75*
G02*
X-335000Y-6950000I0J-150000D01*
G01*
X-335000Y-8600000D01*
G75*
G02*
X-485000Y-8750000I-150000J0D01*
G01*
G37*
G36*
G01*
X785000Y-8750000D02*
X485000Y-8750000D01*
G75*
G02*
X335000Y-8600000I0J150000D01*
G01*
X335000Y-6950000D01*
G75*
G02*
X485000Y-6800000I150000J0D01*
G01*
X785000Y-6800000D01*
G75*
G02*
X935000Y-6950000I0J-150000D01*
G01*
X935000Y-8600000D01*
G75*
G02*
X785000Y-8750000I-150000J0D01*
G01*
G37*
G36*
G01*
X2055000Y-8750000D02*
X1755000Y-8750000D01*
G75*
G02*
X1605000Y-8600000I0J150000D01*
G01*
X1605000Y-6950000D01*
G75*
G02*
X1755000Y-6800000I150000J0D01*
G01*
X2055000Y-6800000D01*
G75*
G02*
X2205000Y-6950000I0J-150000D01*
G01*
X2205000Y-8600000D01*
G75*
G02*
X2055000Y-8750000I-150000J0D01*
G01*
G37*
G36*
G01*
X2055000Y-13700000D02*
X1755000Y-13700000D01*
G75*
G02*
X1605000Y-13550000I0J150000D01*
G01*
X1605000Y-11900000D01*
G75*
G02*
X1755000Y-11750000I150000J0D01*
G01*
X2055000Y-11750000D01*
G75*
G02*
X2205000Y-11900000I0J-150000D01*
G01*
X2205000Y-13550000D01*
G75*
G02*
X2055000Y-13700000I-150000J0D01*
G01*
G37*
G36*
G01*
X785000Y-13700000D02*
X485000Y-13700000D01*
G75*
G02*
X335000Y-13550000I0J150000D01*
G01*
X335000Y-11900000D01*
G75*
G02*
X485000Y-11750000I150000J0D01*
G01*
X785000Y-11750000D01*
G75*
G02*
X935000Y-11900000I0J-150000D01*
G01*
X935000Y-13550000D01*
G75*
G02*
X785000Y-13700000I-150000J0D01*
G01*
G37*
G36*
G01*
X-485000Y-13700000D02*
X-785000Y-13700000D01*
G75*
G02*
X-935000Y-13550000I0J150000D01*
G01*
X-935000Y-11900000D01*
G75*
G02*
X-785000Y-11750000I150000J0D01*
G01*
X-485000Y-11750000D01*
G75*
G02*
X-335000Y-11900000I0J-150000D01*
G01*
X-335000Y-13550000D01*
G75*
G02*
X-485000Y-13700000I-150000J0D01*
G01*
G37*
G36*
G01*
X-1755000Y-13700000D02*
X-2055000Y-13700000D01*
G75*
G02*
X-2205000Y-13550000I0J150000D01*
G01*
X-2205000Y-11900000D01*
G75*
G02*
X-2055000Y-11750000I150000J0D01*
G01*
X-1755000Y-11750000D01*
G75*
G02*
X-1605000Y-11900000I0J-150000D01*
G01*
X-1605000Y-13550000D01*
G75*
G02*
X-1755000Y-13700000I-150000J0D01*
G01*
G37*
D22*
X0Y0D03*
G36*
G01*
X2875000Y-3062500D02*
X2875000Y-3812500D01*
G75*
G02*
X2812500Y-3875000I-62500J0D01*
G01*
X2687500Y-3875000D01*
G75*
G02*
X2625000Y-3812500I0J62500D01*
G01*
X2625000Y-3062500D01*
G75*
G02*
X2687500Y-3000000I62500J0D01*
G01*
X2812500Y-3000000D01*
G75*
G02*
X2875000Y-3062500I0J-62500D01*
G01*
G37*
G36*
G01*
X2375000Y-3062500D02*
X2375000Y-3812500D01*
G75*
G02*
X2312500Y-3875000I-62500J0D01*
G01*
X2187500Y-3875000D01*
G75*
G02*
X2125000Y-3812500I0J62500D01*
G01*
X2125000Y-3062500D01*
G75*
G02*
X2187500Y-3000000I62500J0D01*
G01*
X2312500Y-3000000D01*
G75*
G02*
X2375000Y-3062500I0J-62500D01*
G01*
G37*
G36*
G01*
X1875000Y-3062500D02*
X1875000Y-3812500D01*
G75*
G02*
X1812500Y-3875000I-62500J0D01*
G01*
X1687500Y-3875000D01*
G75*
G02*
X1625000Y-3812500I0J62500D01*
G01*
X1625000Y-3062500D01*
G75*
G02*
X1687500Y-3000000I62500J0D01*
G01*
X1812500Y-3000000D01*
G75*
G02*
X1875000Y-3062500I0J-62500D01*
G01*
G37*
G36*
G01*
X1375000Y-3062500D02*
X1375000Y-3812500D01*
G75*
G02*
X1312500Y-3875000I-62500J0D01*
G01*
X1187500Y-3875000D01*
G75*
G02*
X1125000Y-3812500I0J62500D01*
G01*
X1125000Y-3062500D01*
G75*
G02*
X1187500Y-3000000I62500J0D01*
G01*
X1312500Y-3000000D01*
G75*
G02*
X1375000Y-3062500I0J-62500D01*
G01*
G37*
G36*
G01*
X875000Y-3062500D02*
X875000Y-3812500D01*
G75*
G02*
X812500Y-3875000I-62500J0D01*
G01*
X687500Y-3875000D01*
G75*
G02*
X625000Y-3812500I0J62500D01*
G01*
X625000Y-3062500D01*
G75*
G02*
X687500Y-3000000I62500J0D01*
G01*
X812500Y-3000000D01*
G75*
G02*
X875000Y-3062500I0J-62500D01*
G01*
G37*
G36*
G01*
X375000Y-3062500D02*
X375000Y-3812500D01*
G75*
G02*
X312500Y-3875000I-62500J0D01*
G01*
X187500Y-3875000D01*
G75*
G02*
X125000Y-3812500I0J62500D01*
G01*
X125000Y-3062500D01*
G75*
G02*
X187500Y-3000000I62500J0D01*
G01*
X312500Y-3000000D01*
G75*
G02*
X375000Y-3062500I0J-62500D01*
G01*
G37*
G36*
G01*
X-125000Y-3062500D02*
X-125000Y-3812500D01*
G75*
G02*
X-187500Y-3875000I-62500J0D01*
G01*
X-312500Y-3875000D01*
G75*
G02*
X-375000Y-3812500I0J62500D01*
G01*
X-375000Y-3062500D01*
G75*
G02*
X-312500Y-3000000I62500J0D01*
G01*
X-187500Y-3000000D01*
G75*
G02*
X-125000Y-3062500I0J-62500D01*
G01*
G37*
G36*
G01*
X-625000Y-3062500D02*
X-625000Y-3812500D01*
G75*
G02*
X-687500Y-3875000I-62500J0D01*
G01*
X-812500Y-3875000D01*
G75*
G02*
X-875000Y-3812500I0J62500D01*
G01*
X-875000Y-3062500D01*
G75*
G02*
X-812500Y-3000000I62500J0D01*
G01*
X-687500Y-3000000D01*
G75*
G02*
X-625000Y-3062500I0J-62500D01*
G01*
G37*
G36*
G01*
X-1125000Y-3062500D02*
X-1125000Y-3812500D01*
G75*
G02*
X-1187500Y-3875000I-62500J0D01*
G01*
X-1312500Y-3875000D01*
G75*
G02*
X-1375000Y-3812500I0J62500D01*
G01*
X-1375000Y-3062500D01*
G75*
G02*
X-1312500Y-3000000I62500J0D01*
G01*
X-1187500Y-3000000D01*
G75*
G02*
X-1125000Y-3062500I0J-62500D01*
G01*
G37*
G36*
G01*
X-1625000Y-3062500D02*
X-1625000Y-3812500D01*
G75*
G02*
X-1687500Y-3875000I-62500J0D01*
G01*
X-1812500Y-3875000D01*
G75*
G02*
X-1875000Y-3812500I0J62500D01*
G01*
X-1875000Y-3062500D01*
G75*
G02*
X-1812500Y-3000000I62500J0D01*
G01*
X-1687500Y-3000000D01*
G75*
G02*
X-1625000Y-3062500I0J-62500D01*
G01*
G37*
G36*
G01*
X-2125000Y-3062500D02*
X-2125000Y-3812500D01*
G75*
G02*
X-2187500Y-3875000I-62500J0D01*
G01*
X-2312500Y-3875000D01*
G75*
G02*
X-2375000Y-3812500I0J62500D01*
G01*
X-2375000Y-3062500D01*
G75*
G02*
X-2312500Y-3000000I62500J0D01*
G01*
X-2187500Y-3000000D01*
G75*
G02*
X-2125000Y-3062500I0J-62500D01*
G01*
G37*
G36*
G01*
X-2625000Y-3062500D02*
X-2625000Y-3812500D01*
G75*
G02*
X-2687500Y-3875000I-62500J0D01*
G01*
X-2812500Y-3875000D01*
G75*
G02*
X-2875000Y-3812500I0J62500D01*
G01*
X-2875000Y-3062500D01*
G75*
G02*
X-2812500Y-3000000I62500J0D01*
G01*
X-2687500Y-3000000D01*
G75*
G02*
X-2625000Y-3062500I0J-62500D01*
G01*
G37*
G36*
G01*
X-3000000Y-2687500D02*
X-3000000Y-2812500D01*
G75*
G02*
X-3062500Y-2875000I-62500J0D01*
G01*
X-3812500Y-2875000D01*
G75*
G02*
X-3875000Y-2812500I0J62500D01*
G01*
X-3875000Y-2687500D01*
G75*
G02*
X-3812500Y-2625000I62500J0D01*
G01*
X-3062500Y-2625000D01*
G75*
G02*
X-3000000Y-2687500I0J-62500D01*
G01*
G37*
G36*
G01*
X-3000000Y-2187500D02*
X-3000000Y-2312500D01*
G75*
G02*
X-3062500Y-2375000I-62500J0D01*
G01*
X-3812500Y-2375000D01*
G75*
G02*
X-3875000Y-2312500I0J62500D01*
G01*
X-3875000Y-2187500D01*
G75*
G02*
X-3812500Y-2125000I62500J0D01*
G01*
X-3062500Y-2125000D01*
G75*
G02*
X-3000000Y-2187500I0J-62500D01*
G01*
G37*
G36*
G01*
X-3000000Y-1687500D02*
X-3000000Y-1812500D01*
G75*
G02*
X-3062500Y-1875000I-62500J0D01*
G01*
X-3812500Y-1875000D01*
G75*
G02*
X-3875000Y-1812500I0J62500D01*
G01*
X-3875000Y-1687500D01*
G75*
G02*
X-3812500Y-1625000I62500J0D01*
G01*
X-3062500Y-1625000D01*
G75*
G02*
X-3000000Y-1687500I0J-62500D01*
G01*
G37*
G36*
G01*
X-3000000Y-1187500D02*
X-3000000Y-1312500D01*
G75*
G02*
X-3062500Y-1375000I-62500J0D01*
G01*
X-3812500Y-1375000D01*
G75*
G02*
X-3875000Y-1312500I0J62500D01*
G01*
X-3875000Y-1187500D01*
G75*
G02*
X-3812500Y-1125000I62500J0D01*
G01*
X-3062500Y-1125000D01*
G75*
G02*
X-3000000Y-1187500I0J-62500D01*
G01*
G37*
G36*
G01*
X-3000000Y-687500D02*
X-3000000Y-812500D01*
G75*
G02*
X-3062500Y-875000I-62500J0D01*
G01*
X-3812500Y-875000D01*
G75*
G02*
X-3875000Y-812500I0J62500D01*
G01*
X-3875000Y-687500D01*
G75*
G02*
X-3812500Y-625000I62500J0D01*
G01*
X-3062500Y-625000D01*
G75*
G02*
X-3000000Y-687500I0J-62500D01*
G01*
G37*
G36*
G01*
X-3000000Y-187500D02*
X-3000000Y-312500D01*
G75*
G02*
X-3062500Y-375000I-62500J0D01*
G01*
X-3812500Y-375000D01*
G75*
G02*
X-3875000Y-312500I0J62500D01*
G01*
X-3875000Y-187500D01*
G75*
G02*
X-3812500Y-125000I62500J0D01*
G01*
X-3062500Y-125000D01*
G75*
G02*
X-3000000Y-187500I0J-62500D01*
G01*
G37*
G36*
G01*
X-3000000Y312500D02*
X-3000000Y187500D01*
G75*
G02*
X-3062500Y125000I-62500J0D01*
G01*
X-3812500Y125000D01*
G75*
G02*
X-3875000Y187500I0J62500D01*
G01*
X-3875000Y312500D01*
G75*
G02*
X-3812500Y375000I62500J0D01*
G01*
X-3062500Y375000D01*
G75*
G02*
X-3000000Y312500I0J-62500D01*
G01*
G37*
G36*
G01*
X-3000000Y812500D02*
X-3000000Y687500D01*
G75*
G02*
X-3062500Y625000I-62500J0D01*
G01*
X-3812500Y625000D01*
G75*
G02*
X-3875000Y687500I0J62500D01*
G01*
X-3875000Y812500D01*
G75*
G02*
X-3812500Y875000I62500J0D01*
G01*
X-3062500Y875000D01*
G75*
G02*
X-3000000Y812500I0J-62500D01*
G01*
G37*
G36*
G01*
X-3000000Y1312500D02*
X-3000000Y1187500D01*
G75*
G02*
X-3062500Y1125000I-62500J0D01*
G01*
X-3812500Y1125000D01*
G75*
G02*
X-3875000Y1187500I0J62500D01*
G01*
X-3875000Y1312500D01*
G75*
G02*
X-3812500Y1375000I62500J0D01*
G01*
X-3062500Y1375000D01*
G75*
G02*
X-3000000Y1312500I0J-62500D01*
G01*
G37*
G36*
G01*
X-3000000Y1812500D02*
X-3000000Y1687500D01*
G75*
G02*
X-3062500Y1625000I-62500J0D01*
G01*
X-3812500Y1625000D01*
G75*
G02*
X-3875000Y1687500I0J62500D01*
G01*
X-3875000Y1812500D01*
G75*
G02*
X-3812500Y1875000I62500J0D01*
G01*
X-3062500Y1875000D01*
G75*
G02*
X-3000000Y1812500I0J-62500D01*
G01*
G37*
G36*
G01*
X-3000000Y2312500D02*
X-3000000Y2187500D01*
G75*
G02*
X-3062500Y2125000I-62500J0D01*
G01*
X-3812500Y2125000D01*
G75*
G02*
X-3875000Y2187500I0J62500D01*
G01*
X-3875000Y2312500D01*
G75*
G02*
X-3812500Y2375000I62500J0D01*
G01*
X-3062500Y2375000D01*
G75*
G02*
X-3000000Y2312500I0J-62500D01*
G01*
G37*
G36*
G01*
X-3000000Y2812500D02*
X-3000000Y2687500D01*
G75*
G02*
X-3062500Y2625000I-62500J0D01*
G01*
X-3812500Y2625000D01*
G75*
G02*
X-3875000Y2687500I0J62500D01*
G01*
X-3875000Y2812500D01*
G75*
G02*
X-3812500Y2875000I62500J0D01*
G01*
X-3062500Y2875000D01*
G75*
G02*
X-3000000Y2812500I0J-62500D01*
G01*
G37*
G36*
G01*
X-2625000Y3812500D02*
X-2625000Y3062500D01*
G75*
G02*
X-2687500Y3000000I-62500J0D01*
G01*
X-2812500Y3000000D01*
G75*
G02*
X-2875000Y3062500I0J62500D01*
G01*
X-2875000Y3812500D01*
G75*
G02*
X-2812500Y3875000I62500J0D01*
G01*
X-2687500Y3875000D01*
G75*
G02*
X-2625000Y3812500I0J-62500D01*
G01*
G37*
G36*
G01*
X-2125000Y3812500D02*
X-2125000Y3062500D01*
G75*
G02*
X-2187500Y3000000I-62500J0D01*
G01*
X-2312500Y3000000D01*
G75*
G02*
X-2375000Y3062500I0J62500D01*
G01*
X-2375000Y3812500D01*
G75*
G02*
X-2312500Y3875000I62500J0D01*
G01*
X-2187500Y3875000D01*
G75*
G02*
X-2125000Y3812500I0J-62500D01*
G01*
G37*
G36*
G01*
X-1625000Y3812500D02*
X-1625000Y3062500D01*
G75*
G02*
X-1687500Y3000000I-62500J0D01*
G01*
X-1812500Y3000000D01*
G75*
G02*
X-1875000Y3062500I0J62500D01*
G01*
X-1875000Y3812500D01*
G75*
G02*
X-1812500Y3875000I62500J0D01*
G01*
X-1687500Y3875000D01*
G75*
G02*
X-1625000Y3812500I0J-62500D01*
G01*
G37*
G36*
G01*
X-1125000Y3812500D02*
X-1125000Y3062500D01*
G75*
G02*
X-1187500Y3000000I-62500J0D01*
G01*
X-1312500Y3000000D01*
G75*
G02*
X-1375000Y3062500I0J62500D01*
G01*
X-1375000Y3812500D01*
G75*
G02*
X-1312500Y3875000I62500J0D01*
G01*
X-1187500Y3875000D01*
G75*
G02*
X-1125000Y3812500I0J-62500D01*
G01*
G37*
G36*
G01*
X-625000Y3812500D02*
X-625000Y3062500D01*
G75*
G02*
X-687500Y3000000I-62500J0D01*
G01*
X-812500Y3000000D01*
G75*
G02*
X-875000Y3062500I0J62500D01*
G01*
X-875000Y3812500D01*
G75*
G02*
X-812500Y3875000I62500J0D01*
G01*
X-687500Y3875000D01*
G75*
G02*
X-625000Y3812500I0J-62500D01*
G01*
G37*
G36*
G01*
X-125000Y3812500D02*
X-125000Y3062500D01*
G75*
G02*
X-187500Y3000000I-62500J0D01*
G01*
X-312500Y3000000D01*
G75*
G02*
X-375000Y3062500I0J62500D01*
G01*
X-375000Y3812500D01*
G75*
G02*
X-312500Y3875000I62500J0D01*
G01*
X-187500Y3875000D01*
G75*
G02*
X-125000Y3812500I0J-62500D01*
G01*
G37*
G36*
G01*
X375000Y3812500D02*
X375000Y3062500D01*
G75*
G02*
X312500Y3000000I-62500J0D01*
G01*
X187500Y3000000D01*
G75*
G02*
X125000Y3062500I0J62500D01*
G01*
X125000Y3812500D01*
G75*
G02*
X187500Y3875000I62500J0D01*
G01*
X312500Y3875000D01*
G75*
G02*
X375000Y3812500I0J-62500D01*
G01*
G37*
G36*
G01*
X875000Y3812500D02*
X875000Y3062500D01*
G75*
G02*
X812500Y3000000I-62500J0D01*
G01*
X687500Y3000000D01*
G75*
G02*
X625000Y3062500I0J62500D01*
G01*
X625000Y3812500D01*
G75*
G02*
X687500Y3875000I62500J0D01*
G01*
X812500Y3875000D01*
G75*
G02*
X875000Y3812500I0J-62500D01*
G01*
G37*
G36*
G01*
X1375000Y3812500D02*
X1375000Y3062500D01*
G75*
G02*
X1312500Y3000000I-62500J0D01*
G01*
X1187500Y3000000D01*
G75*
G02*
X1125000Y3062500I0J62500D01*
G01*
X1125000Y3812500D01*
G75*
G02*
X1187500Y3875000I62500J0D01*
G01*
X1312500Y3875000D01*
G75*
G02*
X1375000Y3812500I0J-62500D01*
G01*
G37*
G36*
G01*
X1875000Y3812500D02*
X1875000Y3062500D01*
G75*
G02*
X1812500Y3000000I-62500J0D01*
G01*
X1687500Y3000000D01*
G75*
G02*
X1625000Y3062500I0J62500D01*
G01*
X1625000Y3812500D01*
G75*
G02*
X1687500Y3875000I62500J0D01*
G01*
X1812500Y3875000D01*
G75*
G02*
X1875000Y3812500I0J-62500D01*
G01*
G37*
G36*
G01*
X2375000Y3812500D02*
X2375000Y3062500D01*
G75*
G02*
X2312500Y3000000I-62500J0D01*
G01*
X2187500Y3000000D01*
G75*
G02*
X2125000Y3062500I0J62500D01*
G01*
X2125000Y3812500D01*
G75*
G02*
X2187500Y3875000I62500J0D01*
G01*
X2312500Y3875000D01*
G75*
G02*
X2375000Y3812500I0J-62500D01*
G01*
G37*
G36*
G01*
X2875000Y3812500D02*
X2875000Y3062500D01*
G75*
G02*
X2812500Y3000000I-62500J0D01*
G01*
X2687500Y3000000D01*
G75*
G02*
X2625000Y3062500I0J62500D01*
G01*
X2625000Y3812500D01*
G75*
G02*
X2687500Y3875000I62500J0D01*
G01*
X2812500Y3875000D01*
G75*
G02*
X2875000Y3812500I0J-62500D01*
G01*
G37*
G36*
G01*
X3875000Y2812500D02*
X3875000Y2687500D01*
G75*
G02*
X3812500Y2625000I-62500J0D01*
G01*
X3062500Y2625000D01*
G75*
G02*
X3000000Y2687500I0J62500D01*
G01*
X3000000Y2812500D01*
G75*
G02*
X3062500Y2875000I62500J0D01*
G01*
X3812500Y2875000D01*
G75*
G02*
X3875000Y2812500I0J-62500D01*
G01*
G37*
G36*
G01*
X3875000Y2312500D02*
X3875000Y2187500D01*
G75*
G02*
X3812500Y2125000I-62500J0D01*
G01*
X3062500Y2125000D01*
G75*
G02*
X3000000Y2187500I0J62500D01*
G01*
X3000000Y2312500D01*
G75*
G02*
X3062500Y2375000I62500J0D01*
G01*
X3812500Y2375000D01*
G75*
G02*
X3875000Y2312500I0J-62500D01*
G01*
G37*
G36*
G01*
X3875000Y1812500D02*
X3875000Y1687500D01*
G75*
G02*
X3812500Y1625000I-62500J0D01*
G01*
X3062500Y1625000D01*
G75*
G02*
X3000000Y1687500I0J62500D01*
G01*
X3000000Y1812500D01*
G75*
G02*
X3062500Y1875000I62500J0D01*
G01*
X3812500Y1875000D01*
G75*
G02*
X3875000Y1812500I0J-62500D01*
G01*
G37*
G36*
G01*
X3875000Y1312500D02*
X3875000Y1187500D01*
G75*
G02*
X3812500Y1125000I-62500J0D01*
G01*
X3062500Y1125000D01*
G75*
G02*
X3000000Y1187500I0J62500D01*
G01*
X3000000Y1312500D01*
G75*
G02*
X3062500Y1375000I62500J0D01*
G01*
X3812500Y1375000D01*
G75*
G02*
X3875000Y1312500I0J-62500D01*
G01*
G37*
G36*
G01*
X3875000Y812500D02*
X3875000Y687500D01*
G75*
G02*
X3812500Y625000I-62500J0D01*
G01*
X3062500Y625000D01*
G75*
G02*
X3000000Y687500I0J62500D01*
G01*
X3000000Y812500D01*
G75*
G02*
X3062500Y875000I62500J0D01*
G01*
X3812500Y875000D01*
G75*
G02*
X3875000Y812500I0J-62500D01*
G01*
G37*
G36*
G01*
X3875000Y312500D02*
X3875000Y187500D01*
G75*
G02*
X3812500Y125000I-62500J0D01*
G01*
X3062500Y125000D01*
G75*
G02*
X3000000Y187500I0J62500D01*
G01*
X3000000Y312500D01*
G75*
G02*
X3062500Y375000I62500J0D01*
G01*
X3812500Y375000D01*
G75*
G02*
X3875000Y312500I0J-62500D01*
G01*
G37*
G36*
G01*
X3875000Y-187500D02*
X3875000Y-312500D01*
G75*
G02*
X3812500Y-375000I-62500J0D01*
G01*
X3062500Y-375000D01*
G75*
G02*
X3000000Y-312500I0J62500D01*
G01*
X3000000Y-187500D01*
G75*
G02*
X3062500Y-125000I62500J0D01*
G01*
X3812500Y-125000D01*
G75*
G02*
X3875000Y-187500I0J-62500D01*
G01*
G37*
G36*
G01*
X3875000Y-687500D02*
X3875000Y-812500D01*
G75*
G02*
X3812500Y-875000I-62500J0D01*
G01*
X3062500Y-875000D01*
G75*
G02*
X3000000Y-812500I0J62500D01*
G01*
X3000000Y-687500D01*
G75*
G02*
X3062500Y-625000I62500J0D01*
G01*
X3812500Y-625000D01*
G75*
G02*
X3875000Y-687500I0J-62500D01*
G01*
G37*
G36*
G01*
X3875000Y-1187500D02*
X3875000Y-1312500D01*
G75*
G02*
X3812500Y-1375000I-62500J0D01*
G01*
X3062500Y-1375000D01*
G75*
G02*
X3000000Y-1312500I0J62500D01*
G01*
X3000000Y-1187500D01*
G75*
G02*
X3062500Y-1125000I62500J0D01*
G01*
X3812500Y-1125000D01*
G75*
G02*
X3875000Y-1187500I0J-62500D01*
G01*
G37*
G36*
G01*
X3875000Y-1687500D02*
X3875000Y-1812500D01*
G75*
G02*
X3812500Y-1875000I-62500J0D01*
G01*
X3062500Y-1875000D01*
G75*
G02*
X3000000Y-1812500I0J62500D01*
G01*
X3000000Y-1687500D01*
G75*
G02*
X3062500Y-1625000I62500J0D01*
G01*
X3812500Y-1625000D01*
G75*
G02*
X3875000Y-1687500I0J-62500D01*
G01*
G37*
G36*
G01*
X3875000Y-2187500D02*
X3875000Y-2312500D01*
G75*
G02*
X3812500Y-2375000I-62500J0D01*
G01*
X3062500Y-2375000D01*
G75*
G02*
X3000000Y-2312500I0J62500D01*
G01*
X3000000Y-2187500D01*
G75*
G02*
X3062500Y-2125000I62500J0D01*
G01*
X3812500Y-2125000D01*
G75*
G02*
X3875000Y-2187500I0J-62500D01*
G01*
G37*
G36*
G01*
X3875000Y-2687500D02*
X3875000Y-2812500D01*
G75*
G02*
X3812500Y-2875000I-62500J0D01*
G01*
X3062500Y-2875000D01*
G75*
G02*
X3000000Y-2812500I0J62500D01*
G01*
X3000000Y-2687500D01*
G75*
G02*
X3062500Y-2625000I62500J0D01*
G01*
X3812500Y-2625000D01*
G75*
G02*
X3875000Y-2687500I0J-62500D01*
G01*
G37*
G36*
G01*
X-6065000Y13240000D02*
X-6435000Y13240000D01*
G75*
G02*
X-6570000Y13375000I0J135000D01*
G01*
X-6570000Y13645000D01*
G75*
G02*
X-6435000Y13780000I135000J0D01*
G01*
X-6065000Y13780000D01*
G75*
G02*
X-5930000Y13645000I0J-135000D01*
G01*
X-5930000Y13375000D01*
G75*
G02*
X-6065000Y13240000I-135000J0D01*
G01*
G37*
G36*
G01*
X-6065000Y12220000D02*
X-6435000Y12220000D01*
G75*
G02*
X-6570000Y12355000I0J135000D01*
G01*
X-6570000Y12625000D01*
G75*
G02*
X-6435000Y12760000I135000J0D01*
G01*
X-6065000Y12760000D01*
G75*
G02*
X-5930000Y12625000I0J-135000D01*
G01*
X-5930000Y12355000D01*
G75*
G02*
X-6065000Y12220000I-135000J0D01*
G01*
G37*
G36*
G01*
X5538891Y-16300520D02*
X5800520Y-16038891D01*
G75*
G02*
X5991438Y-16038891I95459J-95459D01*
G01*
X6182357Y-16229810D01*
G75*
G02*
X6182357Y-16420728I-95459J-95459D01*
G01*
X5920728Y-16682357D01*
G75*
G02*
X5729810Y-16682357I-95459J95459D01*
G01*
X5538891Y-16491438D01*
G75*
G02*
X5538891Y-16300520I95459J95459D01*
G01*
G37*
G36*
G01*
X4817643Y-15579272D02*
X5079272Y-15317643D01*
G75*
G02*
X5270190Y-15317643I95459J-95459D01*
G01*
X5461109Y-15508562D01*
G75*
G02*
X5461109Y-15699480I-95459J-95459D01*
G01*
X5199480Y-15961109D01*
G75*
G02*
X5008562Y-15961109I-95459J95459D01*
G01*
X4817643Y-15770190D01*
G75*
G02*
X4817643Y-15579272I95459J95459D01*
G01*
G37*
G36*
G01*
X-5800520Y-16038891D02*
X-5538891Y-16300520D01*
G75*
G02*
X-5538891Y-16491438I-95459J-95459D01*
G01*
X-5729810Y-16682357D01*
G75*
G02*
X-5920728Y-16682357I-95459J95459D01*
G01*
X-6182357Y-16420728D01*
G75*
G02*
X-6182357Y-16229810I95459J95459D01*
G01*
X-5991438Y-16038891D01*
G75*
G02*
X-5800520Y-16038891I95459J-95459D01*
G01*
G37*
G36*
G01*
X-5079272Y-15317643D02*
X-4817643Y-15579272D01*
G75*
G02*
X-4817643Y-15770190I-95459J-95459D01*
G01*
X-5008562Y-15961109D01*
G75*
G02*
X-5199480Y-15961109I-95459J95459D01*
G01*
X-5461109Y-15699480D01*
G75*
G02*
X-5461109Y-15508562I95459J95459D01*
G01*
X-5270190Y-15317643D01*
G75*
G02*
X-5079272Y-15317643I95459J-95459D01*
G01*
G37*
G36*
G01*
X6435000Y13240000D02*
X6065000Y13240000D01*
G75*
G02*
X5930000Y13375000I0J135000D01*
G01*
X5930000Y13645000D01*
G75*
G02*
X6065000Y13780000I135000J0D01*
G01*
X6435000Y13780000D01*
G75*
G02*
X6570000Y13645000I0J-135000D01*
G01*
X6570000Y13375000D01*
G75*
G02*
X6435000Y13240000I-135000J0D01*
G01*
G37*
G36*
G01*
X6435000Y12220000D02*
X6065000Y12220000D01*
G75*
G02*
X5930000Y12355000I0J135000D01*
G01*
X5930000Y12625000D01*
G75*
G02*
X6065000Y12760000I135000J0D01*
G01*
X6435000Y12760000D01*
G75*
G02*
X6570000Y12625000I0J-135000D01*
G01*
X6570000Y12355000D01*
G75*
G02*
X6435000Y12220000I-135000J0D01*
G01*
G37*
G36*
G01*
X-6615000Y5265000D02*
X-6985000Y5265000D01*
G75*
G02*
X-7120000Y5400000I0J135000D01*
G01*
X-7120000Y5670000D01*
G75*
G02*
X-6985000Y5805000I135000J0D01*
G01*
X-6615000Y5805000D01*
G75*
G02*
X-6480000Y5670000I0J-135000D01*
G01*
X-6480000Y5400000D01*
G75*
G02*
X-6615000Y5265000I-135000J0D01*
G01*
G37*
G36*
G01*
X-6615000Y4245000D02*
X-6985000Y4245000D01*
G75*
G02*
X-7120000Y4380000I0J135000D01*
G01*
X-7120000Y4650000D01*
G75*
G02*
X-6985000Y4785000I135000J0D01*
G01*
X-6615000Y4785000D01*
G75*
G02*
X-6480000Y4650000I0J-135000D01*
G01*
X-6480000Y4380000D01*
G75*
G02*
X-6615000Y4245000I-135000J0D01*
G01*
G37*
G36*
G01*
X-9985000Y4785000D02*
X-9615000Y4785000D01*
G75*
G02*
X-9480000Y4650000I0J-135000D01*
G01*
X-9480000Y4380000D01*
G75*
G02*
X-9615000Y4245000I-135000J0D01*
G01*
X-9985000Y4245000D01*
G75*
G02*
X-10120000Y4380000I0J135000D01*
G01*
X-10120000Y4650000D01*
G75*
G02*
X-9985000Y4785000I135000J0D01*
G01*
G37*
G36*
G01*
X-9985000Y5805000D02*
X-9615000Y5805000D01*
G75*
G02*
X-9480000Y5670000I0J-135000D01*
G01*
X-9480000Y5400000D01*
G75*
G02*
X-9615000Y5265000I-135000J0D01*
G01*
X-9985000Y5265000D01*
G75*
G02*
X-10120000Y5400000I0J135000D01*
G01*
X-10120000Y5670000D01*
G75*
G02*
X-9985000Y5805000I135000J0D01*
G01*
G37*
G36*
G01*
X-13510000Y-1560000D02*
X-13510000Y-1190000D01*
G75*
G02*
X-13375000Y-1055000I135000J0D01*
G01*
X-13105000Y-1055000D01*
G75*
G02*
X-12970000Y-1190000I0J-135000D01*
G01*
X-12970000Y-1560000D01*
G75*
G02*
X-13105000Y-1695000I-135000J0D01*
G01*
X-13375000Y-1695000D01*
G75*
G02*
X-13510000Y-1560000I0J135000D01*
G01*
G37*
G36*
G01*
X-14530000Y-1560000D02*
X-14530000Y-1190000D01*
G75*
G02*
X-14395000Y-1055000I135000J0D01*
G01*
X-14125000Y-1055000D01*
G75*
G02*
X-13990000Y-1190000I0J-135000D01*
G01*
X-13990000Y-1560000D01*
G75*
G02*
X-14125000Y-1695000I-135000J0D01*
G01*
X-14395000Y-1695000D01*
G75*
G02*
X-14530000Y-1560000I0J135000D01*
G01*
G37*
G36*
G01*
X-13990000Y-2440000D02*
X-13990000Y-2810000D01*
G75*
G02*
X-14125000Y-2945000I-135000J0D01*
G01*
X-14395000Y-2945000D01*
G75*
G02*
X-14530000Y-2810000I0J135000D01*
G01*
X-14530000Y-2440000D01*
G75*
G02*
X-14395000Y-2305000I135000J0D01*
G01*
X-14125000Y-2305000D01*
G75*
G02*
X-13990000Y-2440000I0J-135000D01*
G01*
G37*
G36*
G01*
X-12970000Y-2440000D02*
X-12970000Y-2810000D01*
G75*
G02*
X-13105000Y-2945000I-135000J0D01*
G01*
X-13375000Y-2945000D01*
G75*
G02*
X-13510000Y-2810000I0J135000D01*
G01*
X-13510000Y-2440000D01*
G75*
G02*
X-13375000Y-2305000I135000J0D01*
G01*
X-13105000Y-2305000D01*
G75*
G02*
X-12970000Y-2440000I0J-135000D01*
G01*
G37*
G36*
G01*
X-565000Y6115000D02*
X-935000Y6115000D01*
G75*
G02*
X-1070000Y6250000I0J135000D01*
G01*
X-1070000Y6520000D01*
G75*
G02*
X-935000Y6655000I135000J0D01*
G01*
X-565000Y6655000D01*
G75*
G02*
X-430000Y6520000I0J-135000D01*
G01*
X-430000Y6250000D01*
G75*
G02*
X-565000Y6115000I-135000J0D01*
G01*
G37*
G36*
G01*
X-565000Y5095000D02*
X-935000Y5095000D01*
G75*
G02*
X-1070000Y5230000I0J135000D01*
G01*
X-1070000Y5500000D01*
G75*
G02*
X-935000Y5635000I135000J0D01*
G01*
X-565000Y5635000D01*
G75*
G02*
X-430000Y5500000I0J-135000D01*
G01*
X-430000Y5230000D01*
G75*
G02*
X-565000Y5095000I-135000J0D01*
G01*
G37*
G36*
G01*
X4250000Y6556250D02*
X4250000Y6043750D01*
G75*
G02*
X4031250Y5825000I-218750J0D01*
G01*
X3593750Y5825000D01*
G75*
G02*
X3375000Y6043750I0J218750D01*
G01*
X3375000Y6556250D01*
G75*
G02*
X3593750Y6775000I218750J0D01*
G01*
X4031250Y6775000D01*
G75*
G02*
X4250000Y6556250I0J-218750D01*
G01*
G37*
G36*
G01*
X5825000Y6556250D02*
X5825000Y6043750D01*
G75*
G02*
X5606250Y5825000I-218750J0D01*
G01*
X5168750Y5825000D01*
G75*
G02*
X4950000Y6043750I0J218750D01*
G01*
X4950000Y6556250D01*
G75*
G02*
X5168750Y6775000I218750J0D01*
G01*
X5606250Y6775000D01*
G75*
G02*
X5825000Y6556250I0J-218750D01*
G01*
G37*
G36*
G01*
X-3205000Y-9675000D02*
X-3545000Y-9675000D01*
G75*
G02*
X-3685000Y-9535000I0J140000D01*
G01*
X-3685000Y-9255000D01*
G75*
G02*
X-3545000Y-9115000I140000J0D01*
G01*
X-3205000Y-9115000D01*
G75*
G02*
X-3065000Y-9255000I0J-140000D01*
G01*
X-3065000Y-9535000D01*
G75*
G02*
X-3205000Y-9675000I-140000J0D01*
G01*
G37*
G36*
G01*
X-3205000Y-10635000D02*
X-3545000Y-10635000D01*
G75*
G02*
X-3685000Y-10495000I0J140000D01*
G01*
X-3685000Y-10215000D01*
G75*
G02*
X-3545000Y-10075000I140000J0D01*
G01*
X-3205000Y-10075000D01*
G75*
G02*
X-3065000Y-10215000I0J-140000D01*
G01*
X-3065000Y-10495000D01*
G75*
G02*
X-3205000Y-10635000I-140000J0D01*
G01*
G37*
G36*
G01*
X-13550000Y830000D02*
X-13550000Y1170000D01*
G75*
G02*
X-13410000Y1310000I140000J0D01*
G01*
X-13130000Y1310000D01*
G75*
G02*
X-12990000Y1170000I0J-140000D01*
G01*
X-12990000Y830000D01*
G75*
G02*
X-13130000Y690000I-140000J0D01*
G01*
X-13410000Y690000D01*
G75*
G02*
X-13550000Y830000I0J140000D01*
G01*
G37*
G36*
G01*
X-14510000Y830000D02*
X-14510000Y1170000D01*
G75*
G02*
X-14370000Y1310000I140000J0D01*
G01*
X-14090000Y1310000D01*
G75*
G02*
X-13950000Y1170000I0J-140000D01*
G01*
X-13950000Y830000D01*
G75*
G02*
X-14090000Y690000I-140000J0D01*
G01*
X-14370000Y690000D01*
G75*
G02*
X-14510000Y830000I0J140000D01*
G01*
G37*
G36*
G01*
X-6330000Y7900000D02*
X-6670000Y7900000D01*
G75*
G02*
X-6810000Y8040000I0J140000D01*
G01*
X-6810000Y8320000D01*
G75*
G02*
X-6670000Y8460000I140000J0D01*
G01*
X-6330000Y8460000D01*
G75*
G02*
X-6190000Y8320000I0J-140000D01*
G01*
X-6190000Y8040000D01*
G75*
G02*
X-6330000Y7900000I-140000J0D01*
G01*
G37*
G36*
G01*
X-6330000Y6940000D02*
X-6670000Y6940000D01*
G75*
G02*
X-6810000Y7080000I0J140000D01*
G01*
X-6810000Y7360000D01*
G75*
G02*
X-6670000Y7500000I140000J0D01*
G01*
X-6330000Y7500000D01*
G75*
G02*
X-6190000Y7360000I0J-140000D01*
G01*
X-6190000Y7080000D01*
G75*
G02*
X-6330000Y6940000I-140000J0D01*
G01*
G37*
G36*
G01*
X-9830000Y7900000D02*
X-10170000Y7900000D01*
G75*
G02*
X-10310000Y8040000I0J140000D01*
G01*
X-10310000Y8320000D01*
G75*
G02*
X-10170000Y8460000I140000J0D01*
G01*
X-9830000Y8460000D01*
G75*
G02*
X-9690000Y8320000I0J-140000D01*
G01*
X-9690000Y8040000D01*
G75*
G02*
X-9830000Y7900000I-140000J0D01*
G01*
G37*
G36*
G01*
X-9830000Y6940000D02*
X-10170000Y6940000D01*
G75*
G02*
X-10310000Y7080000I0J140000D01*
G01*
X-10310000Y7360000D01*
G75*
G02*
X-10170000Y7500000I140000J0D01*
G01*
X-9830000Y7500000D01*
G75*
G02*
X-9690000Y7360000I0J-140000D01*
G01*
X-9690000Y7080000D01*
G75*
G02*
X-9830000Y6940000I-140000J0D01*
G01*
G37*
G36*
G01*
X-10800000Y2330000D02*
X-10800000Y2670000D01*
G75*
G02*
X-10660000Y2810000I140000J0D01*
G01*
X-10380000Y2810000D01*
G75*
G02*
X-10240000Y2670000I0J-140000D01*
G01*
X-10240000Y2330000D01*
G75*
G02*
X-10380000Y2190000I-140000J0D01*
G01*
X-10660000Y2190000D01*
G75*
G02*
X-10800000Y2330000I0J140000D01*
G01*
G37*
G36*
G01*
X-11760000Y2330000D02*
X-11760000Y2670000D01*
G75*
G02*
X-11620000Y2810000I140000J0D01*
G01*
X-11340000Y2810000D01*
G75*
G02*
X-11200000Y2670000I0J-140000D01*
G01*
X-11200000Y2330000D01*
G75*
G02*
X-11340000Y2190000I-140000J0D01*
G01*
X-11620000Y2190000D01*
G75*
G02*
X-11760000Y2330000I0J140000D01*
G01*
G37*
G36*
G01*
X-13550000Y-5045000D02*
X-13550000Y-4705000D01*
G75*
G02*
X-13410000Y-4565000I140000J0D01*
G01*
X-13130000Y-4565000D01*
G75*
G02*
X-12990000Y-4705000I0J-140000D01*
G01*
X-12990000Y-5045000D01*
G75*
G02*
X-13130000Y-5185000I-140000J0D01*
G01*
X-13410000Y-5185000D01*
G75*
G02*
X-13550000Y-5045000I0J140000D01*
G01*
G37*
G36*
G01*
X-14510000Y-5045000D02*
X-14510000Y-4705000D01*
G75*
G02*
X-14370000Y-4565000I140000J0D01*
G01*
X-14090000Y-4565000D01*
G75*
G02*
X-13950000Y-4705000I0J-140000D01*
G01*
X-13950000Y-5045000D01*
G75*
G02*
X-14090000Y-5185000I-140000J0D01*
G01*
X-14370000Y-5185000D01*
G75*
G02*
X-14510000Y-5045000I0J140000D01*
G01*
G37*
G36*
G01*
X5325000Y3460000D02*
X5325000Y3800000D01*
G75*
G02*
X5465000Y3940000I140000J0D01*
G01*
X5745000Y3940000D01*
G75*
G02*
X5885000Y3800000I0J-140000D01*
G01*
X5885000Y3460000D01*
G75*
G02*
X5745000Y3320000I-140000J0D01*
G01*
X5465000Y3320000D01*
G75*
G02*
X5325000Y3460000I0J140000D01*
G01*
G37*
G36*
G01*
X4365000Y3460000D02*
X4365000Y3800000D01*
G75*
G02*
X4505000Y3940000I140000J0D01*
G01*
X4785000Y3940000D01*
G75*
G02*
X4925000Y3800000I0J-140000D01*
G01*
X4925000Y3460000D01*
G75*
G02*
X4785000Y3320000I-140000J0D01*
G01*
X4505000Y3320000D01*
G75*
G02*
X4365000Y3460000I0J140000D01*
G01*
G37*
G36*
G01*
X12200200Y-3102000D02*
X11860200Y-3102000D01*
G75*
G02*
X11720200Y-2962000I0J140000D01*
G01*
X11720200Y-2682000D01*
G75*
G02*
X11860200Y-2542000I140000J0D01*
G01*
X12200200Y-2542000D01*
G75*
G02*
X12340200Y-2682000I0J-140000D01*
G01*
X12340200Y-2962000D01*
G75*
G02*
X12200200Y-3102000I-140000J0D01*
G01*
G37*
G36*
G01*
X12200200Y-4062000D02*
X11860200Y-4062000D01*
G75*
G02*
X11720200Y-3922000I0J140000D01*
G01*
X11720200Y-3642000D01*
G75*
G02*
X11860200Y-3502000I140000J0D01*
G01*
X12200200Y-3502000D01*
G75*
G02*
X12340200Y-3642000I0J-140000D01*
G01*
X12340200Y-3922000D01*
G75*
G02*
X12200200Y-4062000I-140000J0D01*
G01*
G37*
G36*
G01*
X8491800Y-3102000D02*
X8151800Y-3102000D01*
G75*
G02*
X8011800Y-2962000I0J140000D01*
G01*
X8011800Y-2682000D01*
G75*
G02*
X8151800Y-2542000I140000J0D01*
G01*
X8491800Y-2542000D01*
G75*
G02*
X8631800Y-2682000I0J-140000D01*
G01*
X8631800Y-2962000D01*
G75*
G02*
X8491800Y-3102000I-140000J0D01*
G01*
G37*
G36*
G01*
X8491800Y-4062000D02*
X8151800Y-4062000D01*
G75*
G02*
X8011800Y-3922000I0J140000D01*
G01*
X8011800Y-3642000D01*
G75*
G02*
X8151800Y-3502000I140000J0D01*
G01*
X8491800Y-3502000D01*
G75*
G02*
X8631800Y-3642000I0J-140000D01*
G01*
X8631800Y-3922000D01*
G75*
G02*
X8491800Y-4062000I-140000J0D01*
G01*
G37*
G36*
G01*
X12266600Y2050000D02*
X12606600Y2050000D01*
G75*
G02*
X12746600Y1910000I0J-140000D01*
G01*
X12746600Y1630000D01*
G75*
G02*
X12606600Y1490000I-140000J0D01*
G01*
X12266600Y1490000D01*
G75*
G02*
X12126600Y1630000I0J140000D01*
G01*
X12126600Y1910000D01*
G75*
G02*
X12266600Y2050000I140000J0D01*
G01*
G37*
G36*
G01*
X12266600Y3010000D02*
X12606600Y3010000D01*
G75*
G02*
X12746600Y2870000I0J-140000D01*
G01*
X12746600Y2590000D01*
G75*
G02*
X12606600Y2450000I-140000J0D01*
G01*
X12266600Y2450000D01*
G75*
G02*
X12126600Y2590000I0J140000D01*
G01*
X12126600Y2870000D01*
G75*
G02*
X12266600Y3010000I140000J0D01*
G01*
G37*
G36*
G01*
X8085400Y1450000D02*
X7745400Y1450000D01*
G75*
G02*
X7605400Y1590000I0J140000D01*
G01*
X7605400Y1870000D01*
G75*
G02*
X7745400Y2010000I140000J0D01*
G01*
X8085400Y2010000D01*
G75*
G02*
X8225400Y1870000I0J-140000D01*
G01*
X8225400Y1590000D01*
G75*
G02*
X8085400Y1450000I-140000J0D01*
G01*
G37*
G36*
G01*
X8085400Y490000D02*
X7745400Y490000D01*
G75*
G02*
X7605400Y630000I0J140000D01*
G01*
X7605400Y910000D01*
G75*
G02*
X7745400Y1050000I140000J0D01*
G01*
X8085400Y1050000D01*
G75*
G02*
X8225400Y910000I0J-140000D01*
G01*
X8225400Y630000D01*
G75*
G02*
X8085400Y490000I-140000J0D01*
G01*
G37*
G36*
G01*
X-2300000Y5210000D02*
X-2300000Y5550000D01*
G75*
G02*
X-2160000Y5690000I140000J0D01*
G01*
X-1880000Y5690000D01*
G75*
G02*
X-1740000Y5550000I0J-140000D01*
G01*
X-1740000Y5210000D01*
G75*
G02*
X-1880000Y5070000I-140000J0D01*
G01*
X-2160000Y5070000D01*
G75*
G02*
X-2300000Y5210000I0J140000D01*
G01*
G37*
G36*
G01*
X-3260000Y5210000D02*
X-3260000Y5550000D01*
G75*
G02*
X-3120000Y5690000I140000J0D01*
G01*
X-2840000Y5690000D01*
G75*
G02*
X-2700000Y5550000I0J-140000D01*
G01*
X-2700000Y5210000D01*
G75*
G02*
X-2840000Y5070000I-140000J0D01*
G01*
X-3120000Y5070000D01*
G75*
G02*
X-3260000Y5210000I0J140000D01*
G01*
G37*
G36*
G01*
X2300000Y-4580000D02*
X2300000Y-4920000D01*
G75*
G02*
X2160000Y-5060000I-140000J0D01*
G01*
X1880000Y-5060000D01*
G75*
G02*
X1740000Y-4920000I0J140000D01*
G01*
X1740000Y-4580000D01*
G75*
G02*
X1880000Y-4440000I140000J0D01*
G01*
X2160000Y-4440000D01*
G75*
G02*
X2300000Y-4580000I0J-140000D01*
G01*
G37*
G36*
G01*
X3260000Y-4580000D02*
X3260000Y-4920000D01*
G75*
G02*
X3120000Y-5060000I-140000J0D01*
G01*
X2840000Y-5060000D01*
G75*
G02*
X2700000Y-4920000I0J140000D01*
G01*
X2700000Y-4580000D01*
G75*
G02*
X2840000Y-4440000I140000J0D01*
G01*
X3120000Y-4440000D01*
G75*
G02*
X3260000Y-4580000I0J-140000D01*
G01*
G37*
G36*
G01*
X-4656000Y-2975000D02*
X-4996000Y-2975000D01*
G75*
G02*
X-5136000Y-2835000I0J140000D01*
G01*
X-5136000Y-2555000D01*
G75*
G02*
X-4996000Y-2415000I140000J0D01*
G01*
X-4656000Y-2415000D01*
G75*
G02*
X-4516000Y-2555000I0J-140000D01*
G01*
X-4516000Y-2835000D01*
G75*
G02*
X-4656000Y-2975000I-140000J0D01*
G01*
G37*
G36*
G01*
X-4656000Y-3935000D02*
X-4996000Y-3935000D01*
G75*
G02*
X-5136000Y-3795000I0J140000D01*
G01*
X-5136000Y-3515000D01*
G75*
G02*
X-4996000Y-3375000I140000J0D01*
G01*
X-4656000Y-3375000D01*
G75*
G02*
X-4516000Y-3515000I0J-140000D01*
G01*
X-4516000Y-3795000D01*
G75*
G02*
X-4656000Y-3935000I-140000J0D01*
G01*
G37*
G36*
G01*
X-2750000Y6450000D02*
X-2750000Y6950000D01*
G75*
G02*
X-2525000Y7175000I225000J0D01*
G01*
X-2075000Y7175000D01*
G75*
G02*
X-1850000Y6950000I0J-225000D01*
G01*
X-1850000Y6450000D01*
G75*
G02*
X-2075000Y6225000I-225000J0D01*
G01*
X-2525000Y6225000D01*
G75*
G02*
X-2750000Y6450000I0J225000D01*
G01*
G37*
G36*
G01*
X-4300000Y6450000D02*
X-4300000Y6950000D01*
G75*
G02*
X-4075000Y7175000I225000J0D01*
G01*
X-3625000Y7175000D01*
G75*
G02*
X-3400000Y6950000I0J-225000D01*
G01*
X-3400000Y6450000D01*
G75*
G02*
X-3625000Y6225000I-225000J0D01*
G01*
X-4075000Y6225000D01*
G75*
G02*
X-4300000Y6450000I0J225000D01*
G01*
G37*
G36*
G01*
X3740000Y-4920000D02*
X3740000Y-4580000D01*
G75*
G02*
X3880000Y-4440000I140000J0D01*
G01*
X4160000Y-4440000D01*
G75*
G02*
X4300000Y-4580000I0J-140000D01*
G01*
X4300000Y-4920000D01*
G75*
G02*
X4160000Y-5060000I-140000J0D01*
G01*
X3880000Y-5060000D01*
G75*
G02*
X3740000Y-4920000I0J140000D01*
G01*
G37*
G36*
G01*
X4700000Y-4920000D02*
X4700000Y-4580000D01*
G75*
G02*
X4840000Y-4440000I140000J0D01*
G01*
X5120000Y-4440000D01*
G75*
G02*
X5260000Y-4580000I0J-140000D01*
G01*
X5260000Y-4920000D01*
G75*
G02*
X5120000Y-5060000I-140000J0D01*
G01*
X4840000Y-5060000D01*
G75*
G02*
X4700000Y-4920000I0J140000D01*
G01*
G37*
D16*
G36*
X-5875356Y-15987235D02*
G01*
X-5874971Y-15987311D01*
X-5855328Y-15993270D01*
X-5854966Y-15993420D01*
X-5836862Y-16003096D01*
X-5836536Y-16003314D01*
X-5818383Y-16018212D01*
X-5818238Y-16018344D01*
X-5518344Y-16318238D01*
X-5518212Y-16318383D01*
X-5503314Y-16336536D01*
X-5503096Y-16336862D01*
X-5493420Y-16354966D01*
X-5493270Y-16355328D01*
X-5487311Y-16374971D01*
X-5487235Y-16375356D01*
X-5485223Y-16395783D01*
X-5485223Y-16396175D01*
X-5487235Y-16416602D01*
X-5487311Y-16416987D01*
X-5493270Y-16436630D01*
X-5493420Y-16436992D01*
X-5503096Y-16455096D01*
X-5503314Y-16455422D01*
X-5518212Y-16473575D01*
X-5518344Y-16473720D01*
X-5747528Y-16702904D01*
X-5747673Y-16703036D01*
X-5765826Y-16717934D01*
X-5766152Y-16718152D01*
X-5784256Y-16727828D01*
X-5784618Y-16727978D01*
X-5804261Y-16733937D01*
X-5804646Y-16734013D01*
X-5825073Y-16736025D01*
X-5825465Y-16736025D01*
X-5845892Y-16734013D01*
X-5846277Y-16733937D01*
X-5865920Y-16727978D01*
X-5866282Y-16727828D01*
X-5884386Y-16718152D01*
X-5884712Y-16717934D01*
X-5902865Y-16703036D01*
X-5903010Y-16702904D01*
X-6202904Y-16403010D01*
X-6203036Y-16402865D01*
X-6217934Y-16384712D01*
X-6218152Y-16384386D01*
X-6227828Y-16366282D01*
X-6227978Y-16365920D01*
X-6233937Y-16346277D01*
X-6234013Y-16345892D01*
X-6236025Y-16325465D01*
X-6236025Y-16325269D01*
X-6219889Y-16325269D01*
X-6217334Y-16351211D01*
X-6209765Y-16376162D01*
X-6197475Y-16399155D01*
X-6180871Y-16419386D01*
X-5919386Y-16680871D01*
X-5899155Y-16697475D01*
X-5876162Y-16709765D01*
X-5851211Y-16717334D01*
X-5825269Y-16719889D01*
X-5799327Y-16717334D01*
X-5774376Y-16709765D01*
X-5751383Y-16697475D01*
X-5731152Y-16680871D01*
X-5540377Y-16490096D01*
X-5523773Y-16469865D01*
X-5511483Y-16446872D01*
X-5503914Y-16421921D01*
X-5501359Y-16395979D01*
X-5503914Y-16370037D01*
X-5511483Y-16345086D01*
X-5523773Y-16322093D01*
X-5540377Y-16301862D01*
X-5801862Y-16040377D01*
X-5822093Y-16023773D01*
X-5845086Y-16011483D01*
X-5870037Y-16003914D01*
X-5895979Y-16001359D01*
X-5921921Y-16003914D01*
X-5946872Y-16011483D01*
X-5969865Y-16023773D01*
X-5990096Y-16040377D01*
X-6180871Y-16231152D01*
X-6197475Y-16251383D01*
X-6209765Y-16274376D01*
X-6217334Y-16299327D01*
X-6219889Y-16325269D01*
X-6236025Y-16325269D01*
X-6236025Y-16325073D01*
X-6234013Y-16304646D01*
X-6233937Y-16304261D01*
X-6227978Y-16284618D01*
X-6227828Y-16284256D01*
X-6218152Y-16266152D01*
X-6217934Y-16265826D01*
X-6203036Y-16247673D01*
X-6202904Y-16247528D01*
X-5973720Y-16018344D01*
X-5973575Y-16018212D01*
X-5955422Y-16003314D01*
X-5955096Y-16003096D01*
X-5936992Y-15993420D01*
X-5936630Y-15993270D01*
X-5916987Y-15987311D01*
X-5916602Y-15987235D01*
X-5896175Y-15985223D01*
X-5895783Y-15985223D01*
X-5875356Y-15987235D01*
G37*
G36*
X5916602Y-15987235D02*
G01*
X5916987Y-15987311D01*
X5936630Y-15993270D01*
X5936992Y-15993420D01*
X5955096Y-16003096D01*
X5955422Y-16003314D01*
X5973575Y-16018212D01*
X5973720Y-16018344D01*
X6202904Y-16247528D01*
X6203036Y-16247673D01*
X6217934Y-16265826D01*
X6218152Y-16266152D01*
X6227828Y-16284256D01*
X6227978Y-16284618D01*
X6233937Y-16304261D01*
X6234013Y-16304646D01*
X6236025Y-16325073D01*
X6236025Y-16325465D01*
X6234013Y-16345892D01*
X6233937Y-16346277D01*
X6227978Y-16365920D01*
X6227828Y-16366282D01*
X6218152Y-16384386D01*
X6217934Y-16384712D01*
X6203036Y-16402865D01*
X6202904Y-16403010D01*
X5903010Y-16702904D01*
X5902865Y-16703036D01*
X5884712Y-16717934D01*
X5884386Y-16718152D01*
X5866282Y-16727828D01*
X5865920Y-16727978D01*
X5846277Y-16733937D01*
X5845892Y-16734013D01*
X5825465Y-16736025D01*
X5825073Y-16736025D01*
X5804646Y-16734013D01*
X5804261Y-16733937D01*
X5784618Y-16727978D01*
X5784256Y-16727828D01*
X5766152Y-16718152D01*
X5765826Y-16717934D01*
X5747673Y-16703036D01*
X5747528Y-16702904D01*
X5518344Y-16473720D01*
X5518212Y-16473575D01*
X5503314Y-16455422D01*
X5503096Y-16455096D01*
X5493420Y-16436992D01*
X5493270Y-16436630D01*
X5487311Y-16416987D01*
X5487235Y-16416602D01*
X5485223Y-16396175D01*
X5485223Y-16395979D01*
X5501359Y-16395979D01*
X5503914Y-16421921D01*
X5511483Y-16446872D01*
X5523773Y-16469865D01*
X5540377Y-16490096D01*
X5731152Y-16680871D01*
X5751383Y-16697475D01*
X5774376Y-16709765D01*
X5799327Y-16717334D01*
X5825269Y-16719889D01*
X5851211Y-16717334D01*
X5876162Y-16709765D01*
X5899155Y-16697475D01*
X5919386Y-16680871D01*
X6180871Y-16419386D01*
X6197475Y-16399155D01*
X6209765Y-16376162D01*
X6217334Y-16351211D01*
X6219889Y-16325269D01*
X6217334Y-16299327D01*
X6209765Y-16274376D01*
X6197475Y-16251383D01*
X6180871Y-16231152D01*
X5990096Y-16040377D01*
X5969865Y-16023773D01*
X5946872Y-16011483D01*
X5921921Y-16003914D01*
X5895979Y-16001359D01*
X5870037Y-16003914D01*
X5845086Y-16011483D01*
X5822093Y-16023773D01*
X5801862Y-16040377D01*
X5540377Y-16301862D01*
X5523773Y-16322093D01*
X5511483Y-16345086D01*
X5503914Y-16370037D01*
X5501359Y-16395979D01*
X5485223Y-16395979D01*
X5485223Y-16395783D01*
X5487235Y-16375356D01*
X5487311Y-16374971D01*
X5493270Y-16355328D01*
X5493420Y-16354966D01*
X5503096Y-16336862D01*
X5503314Y-16336536D01*
X5518212Y-16318383D01*
X5518344Y-16318238D01*
X5818238Y-16018344D01*
X5818383Y-16018212D01*
X5836536Y-16003314D01*
X5836862Y-16003096D01*
X5854966Y-15993420D01*
X5855328Y-15993270D01*
X5874971Y-15987311D01*
X5875356Y-15987235D01*
X5895783Y-15985223D01*
X5896175Y-15985223D01*
X5916602Y-15987235D01*
G37*
G36*
X5195354Y-15265987D02*
G01*
X5195739Y-15266063D01*
X5215382Y-15272022D01*
X5215744Y-15272172D01*
X5233848Y-15281848D01*
X5234174Y-15282066D01*
X5252327Y-15296964D01*
X5252472Y-15297096D01*
X5481656Y-15526280D01*
X5481788Y-15526425D01*
X5496686Y-15544578D01*
X5496904Y-15544904D01*
X5506580Y-15563008D01*
X5506730Y-15563370D01*
X5512689Y-15583013D01*
X5512765Y-15583398D01*
X5514777Y-15603825D01*
X5514777Y-15604217D01*
X5512765Y-15624644D01*
X5512689Y-15625029D01*
X5506730Y-15644672D01*
X5506580Y-15645034D01*
X5496904Y-15663138D01*
X5496686Y-15663464D01*
X5481788Y-15681617D01*
X5481656Y-15681762D01*
X5181762Y-15981656D01*
X5181617Y-15981788D01*
X5163464Y-15996686D01*
X5163138Y-15996904D01*
X5145034Y-16006580D01*
X5144672Y-16006730D01*
X5125029Y-16012689D01*
X5124644Y-16012765D01*
X5104217Y-16014777D01*
X5103825Y-16014777D01*
X5083398Y-16012765D01*
X5083013Y-16012689D01*
X5063370Y-16006730D01*
X5063008Y-16006580D01*
X5044904Y-15996904D01*
X5044578Y-15996686D01*
X5026425Y-15981788D01*
X5026280Y-15981656D01*
X4797096Y-15752472D01*
X4796964Y-15752327D01*
X4782066Y-15734174D01*
X4781848Y-15733848D01*
X4772172Y-15715744D01*
X4772022Y-15715382D01*
X4766063Y-15695739D01*
X4765987Y-15695354D01*
X4763975Y-15674927D01*
X4763975Y-15674731D01*
X4780111Y-15674731D01*
X4782666Y-15700673D01*
X4790235Y-15725624D01*
X4802525Y-15748617D01*
X4819129Y-15768848D01*
X5009904Y-15959623D01*
X5030135Y-15976227D01*
X5053128Y-15988517D01*
X5078079Y-15996086D01*
X5104021Y-15998641D01*
X5129963Y-15996086D01*
X5154914Y-15988517D01*
X5177907Y-15976227D01*
X5198138Y-15959623D01*
X5459623Y-15698138D01*
X5476227Y-15677907D01*
X5488517Y-15654914D01*
X5496086Y-15629963D01*
X5498641Y-15604021D01*
X5496086Y-15578079D01*
X5488517Y-15553128D01*
X5476227Y-15530135D01*
X5459623Y-15509904D01*
X5268848Y-15319129D01*
X5248617Y-15302525D01*
X5225624Y-15290235D01*
X5200673Y-15282666D01*
X5174731Y-15280111D01*
X5148789Y-15282666D01*
X5123838Y-15290235D01*
X5100845Y-15302525D01*
X5080614Y-15319129D01*
X4819129Y-15580614D01*
X4802525Y-15600845D01*
X4790235Y-15623838D01*
X4782666Y-15648789D01*
X4780111Y-15674731D01*
X4763975Y-15674731D01*
X4763975Y-15674535D01*
X4765987Y-15654108D01*
X4766063Y-15653723D01*
X4772022Y-15634080D01*
X4772172Y-15633718D01*
X4781848Y-15615614D01*
X4782066Y-15615288D01*
X4796964Y-15597135D01*
X4797096Y-15596990D01*
X5096990Y-15297096D01*
X5097135Y-15296964D01*
X5115288Y-15282066D01*
X5115614Y-15281848D01*
X5133718Y-15272172D01*
X5134080Y-15272022D01*
X5153723Y-15266063D01*
X5154108Y-15265987D01*
X5174535Y-15263975D01*
X5174927Y-15263975D01*
X5195354Y-15265987D01*
G37*
G36*
X-5154108Y-15265987D02*
G01*
X-5153723Y-15266063D01*
X-5134080Y-15272022D01*
X-5133718Y-15272172D01*
X-5115614Y-15281848D01*
X-5115288Y-15282066D01*
X-5097135Y-15296964D01*
X-5096990Y-15297096D01*
X-4797096Y-15596990D01*
X-4796964Y-15597135D01*
X-4782066Y-15615288D01*
X-4781848Y-15615614D01*
X-4772172Y-15633718D01*
X-4772022Y-15634080D01*
X-4766063Y-15653723D01*
X-4765987Y-15654108D01*
X-4763975Y-15674535D01*
X-4763975Y-15674927D01*
X-4765987Y-15695354D01*
X-4766063Y-15695739D01*
X-4772022Y-15715382D01*
X-4772172Y-15715744D01*
X-4781848Y-15733848D01*
X-4782066Y-15734174D01*
X-4796964Y-15752327D01*
X-4797096Y-15752472D01*
X-5026280Y-15981656D01*
X-5026425Y-15981788D01*
X-5044578Y-15996686D01*
X-5044904Y-15996904D01*
X-5063008Y-16006580D01*
X-5063370Y-16006730D01*
X-5083013Y-16012689D01*
X-5083398Y-16012765D01*
X-5103825Y-16014777D01*
X-5104217Y-16014777D01*
X-5124644Y-16012765D01*
X-5125029Y-16012689D01*
X-5144672Y-16006730D01*
X-5145034Y-16006580D01*
X-5163138Y-15996904D01*
X-5163464Y-15996686D01*
X-5181617Y-15981788D01*
X-5181762Y-15981656D01*
X-5481656Y-15681762D01*
X-5481788Y-15681617D01*
X-5496686Y-15663464D01*
X-5496904Y-15663138D01*
X-5506580Y-15645034D01*
X-5506730Y-15644672D01*
X-5512689Y-15625029D01*
X-5512765Y-15624644D01*
X-5514777Y-15604217D01*
X-5514777Y-15604021D01*
X-5498641Y-15604021D01*
X-5496086Y-15629963D01*
X-5488517Y-15654914D01*
X-5476227Y-15677907D01*
X-5459623Y-15698138D01*
X-5198138Y-15959623D01*
X-5177907Y-15976227D01*
X-5154914Y-15988517D01*
X-5129963Y-15996086D01*
X-5104021Y-15998641D01*
X-5078079Y-15996086D01*
X-5053128Y-15988517D01*
X-5030135Y-15976227D01*
X-5009904Y-15959623D01*
X-4819129Y-15768848D01*
X-4802525Y-15748617D01*
X-4790235Y-15725624D01*
X-4782666Y-15700673D01*
X-4780111Y-15674731D01*
X-4782666Y-15648789D01*
X-4790235Y-15623838D01*
X-4802525Y-15600845D01*
X-4819129Y-15580614D01*
X-5080614Y-15319129D01*
X-5100845Y-15302525D01*
X-5123838Y-15290235D01*
X-5148789Y-15282666D01*
X-5174731Y-15280111D01*
X-5200673Y-15282666D01*
X-5225624Y-15290235D01*
X-5248617Y-15302525D01*
X-5268848Y-15319129D01*
X-5459623Y-15509904D01*
X-5476227Y-15530135D01*
X-5488517Y-15553128D01*
X-5496086Y-15578079D01*
X-5498641Y-15604021D01*
X-5514777Y-15604021D01*
X-5514777Y-15603825D01*
X-5512765Y-15583398D01*
X-5512689Y-15583013D01*
X-5506730Y-15563370D01*
X-5506580Y-15563008D01*
X-5496904Y-15544904D01*
X-5496686Y-15544578D01*
X-5481788Y-15526425D01*
X-5481656Y-15526280D01*
X-5252472Y-15297096D01*
X-5252327Y-15296964D01*
X-5234174Y-15282066D01*
X-5233848Y-15281848D01*
X-5215744Y-15272172D01*
X-5215382Y-15272022D01*
X-5195739Y-15266063D01*
X-5195354Y-15265987D01*
X-5174927Y-15263975D01*
X-5174535Y-15263975D01*
X-5154108Y-15265987D01*
G37*
M02*
