G04 #@! TF.GenerationSoftware,KiCad,Pcbnew,(5.1.10-1-10_14)*
G04 #@! TF.CreationDate,2021-07-25T02:22:53-07:00*
G04 #@! TF.ProjectId,Synapse,53796e61-7073-4652-9e6b-696361645f70,1*
G04 #@! TF.SameCoordinates,Original*
G04 #@! TF.FileFunction,Legend,Bot*
G04 #@! TF.FilePolarity,Positive*
%FSLAX46Y46*%
G04 Gerber Fmt 4.6, Leading zero omitted, Abs format (unit mm)*
G04 Created by KiCad (PCBNEW (5.1.10-1-10_14)) date 2021-07-25 02:22:53*
%MOMM*%
%LPD*%
G01*
G04 APERTURE LIST*
%ADD10C,0.153000*%
%ADD11C,0.120000*%
%ADD12C,1.500000*%
%ADD13C,0.650000*%
%ADD14O,1.000000X2.100000*%
%ADD15O,1.000000X1.600000*%
G04 APERTURE END LIST*
D10*
X3695238Y8314595D02*
X3695238Y9114595D01*
X3504761Y9114595D01*
X3390476Y9076500D01*
X3314285Y9000309D01*
X3276190Y8924119D01*
X3238095Y8771738D01*
X3238095Y8657452D01*
X3276190Y8505071D01*
X3314285Y8428880D01*
X3390476Y8352690D01*
X3504761Y8314595D01*
X3695238Y8314595D01*
X2971428Y8847928D02*
X2780952Y8314595D01*
X2590476Y8847928D02*
X2780952Y8314595D01*
X2857142Y8124119D01*
X2895238Y8086023D01*
X2971428Y8047928D01*
X1942857Y8847928D02*
X1942857Y8200309D01*
X1980952Y8124119D01*
X2019047Y8086023D01*
X2095238Y8047928D01*
X2209523Y8047928D01*
X2285714Y8086023D01*
X1942857Y8352690D02*
X2019047Y8314595D01*
X2171428Y8314595D01*
X2247619Y8352690D01*
X2285714Y8390785D01*
X2323809Y8466976D01*
X2323809Y8695547D01*
X2285714Y8771738D01*
X2247619Y8809833D01*
X2171428Y8847928D01*
X2019047Y8847928D01*
X1942857Y8809833D01*
X1561904Y8314595D02*
X1561904Y8847928D01*
X1561904Y8771738D02*
X1523809Y8809833D01*
X1447619Y8847928D01*
X1333333Y8847928D01*
X1257142Y8809833D01*
X1219047Y8733642D01*
X1219047Y8314595D01*
X1219047Y8733642D02*
X1180952Y8809833D01*
X1104761Y8847928D01*
X990476Y8847928D01*
X914285Y8809833D01*
X876190Y8733642D01*
X876190Y8314595D01*
X152380Y8314595D02*
X152380Y8733642D01*
X190476Y8809833D01*
X266666Y8847928D01*
X419047Y8847928D01*
X495238Y8809833D01*
X152380Y8352690D02*
X228571Y8314595D01*
X419047Y8314595D01*
X495238Y8352690D01*
X533333Y8428880D01*
X533333Y8505071D01*
X495238Y8581261D01*
X419047Y8619357D01*
X228571Y8619357D01*
X152380Y8657452D01*
X-1295238Y8314595D02*
X-1028571Y8695547D01*
X-838095Y8314595D02*
X-838095Y9114595D01*
X-1142857Y9114595D01*
X-1219047Y9076500D01*
X-1257142Y9038404D01*
X-1295238Y8962214D01*
X-1295238Y8847928D01*
X-1257142Y8771738D01*
X-1219047Y8733642D01*
X-1142857Y8695547D01*
X-838095Y8695547D01*
X-1980952Y8314595D02*
X-1980952Y8733642D01*
X-1942857Y8809833D01*
X-1866666Y8847928D01*
X-1714285Y8847928D01*
X-1638095Y8809833D01*
X-1980952Y8352690D02*
X-1904761Y8314595D01*
X-1714285Y8314595D01*
X-1638095Y8352690D01*
X-1599999Y8428880D01*
X-1599999Y8505071D01*
X-1638095Y8581261D01*
X-1714285Y8619357D01*
X-1904761Y8619357D01*
X-1980952Y8657452D01*
X-2361904Y8314595D02*
X-2361904Y8847928D01*
X-2361904Y9114595D02*
X-2323809Y9076500D01*
X-2361904Y9038404D01*
X-2399999Y9076500D01*
X-2361904Y9114595D01*
X-2361904Y9038404D01*
X-2704761Y8352690D02*
X-2780952Y8314595D01*
X-2933333Y8314595D01*
X-3009523Y8352690D01*
X-3047619Y8428880D01*
X-3047619Y8466976D01*
X-3009523Y8543166D01*
X-2933333Y8581261D01*
X-2819047Y8581261D01*
X-2742857Y8619357D01*
X-2704761Y8695547D01*
X-2704761Y8733642D01*
X-2742857Y8809833D01*
X-2819047Y8847928D01*
X-2933333Y8847928D01*
X-3009523Y8809833D01*
X-3695238Y8352690D02*
X-3619047Y8314595D01*
X-3466666Y8314595D01*
X-3390476Y8352690D01*
X-3352380Y8428880D01*
X-3352380Y8733642D01*
X-3390476Y8809833D01*
X-3466666Y8847928D01*
X-3619047Y8847928D01*
X-3695238Y8809833D01*
X-3733333Y8733642D01*
X-3733333Y8657452D01*
X-3352380Y8581261D01*
X3885714Y6999690D02*
X3771428Y6961595D01*
X3580952Y6961595D01*
X3504761Y6999690D01*
X3466666Y7037785D01*
X3428571Y7113976D01*
X3428571Y7190166D01*
X3466666Y7266357D01*
X3504761Y7304452D01*
X3580952Y7342547D01*
X3733333Y7380642D01*
X3809523Y7418738D01*
X3847619Y7456833D01*
X3885714Y7533023D01*
X3885714Y7609214D01*
X3847619Y7685404D01*
X3809523Y7723500D01*
X3733333Y7761595D01*
X3542857Y7761595D01*
X3428571Y7723500D01*
X3161904Y7494928D02*
X2971428Y6961595D01*
X2780952Y7494928D02*
X2971428Y6961595D01*
X3047619Y6771119D01*
X3085714Y6733023D01*
X3161904Y6694928D01*
X2476190Y7494928D02*
X2476190Y6961595D01*
X2476190Y7418738D02*
X2438095Y7456833D01*
X2361904Y7494928D01*
X2247619Y7494928D01*
X2171428Y7456833D01*
X2133333Y7380642D01*
X2133333Y6961595D01*
X1409523Y6961595D02*
X1409523Y7380642D01*
X1447619Y7456833D01*
X1523809Y7494928D01*
X1676190Y7494928D01*
X1752380Y7456833D01*
X1409523Y6999690D02*
X1485714Y6961595D01*
X1676190Y6961595D01*
X1752380Y6999690D01*
X1790476Y7075880D01*
X1790476Y7152071D01*
X1752380Y7228261D01*
X1676190Y7266357D01*
X1485714Y7266357D01*
X1409523Y7304452D01*
X1028571Y7494928D02*
X1028571Y6694928D01*
X1028571Y7456833D02*
X952380Y7494928D01*
X799999Y7494928D01*
X723809Y7456833D01*
X685714Y7418738D01*
X647619Y7342547D01*
X647619Y7113976D01*
X685714Y7037785D01*
X723809Y6999690D01*
X799999Y6961595D01*
X952380Y6961595D01*
X1028571Y6999690D01*
X342857Y6999690D02*
X266666Y6961595D01*
X114285Y6961595D01*
X38095Y6999690D01*
X0Y7075880D01*
X0Y7113976D01*
X38095Y7190166D01*
X114285Y7228261D01*
X228571Y7228261D01*
X304761Y7266357D01*
X342857Y7342547D01*
X342857Y7380642D01*
X304761Y7456833D01*
X228571Y7494928D01*
X114285Y7494928D01*
X38095Y7456833D01*
X-647619Y6999690D02*
X-571428Y6961595D01*
X-419047Y6961595D01*
X-342857Y6999690D01*
X-304761Y7075880D01*
X-304761Y7380642D01*
X-342857Y7456833D01*
X-419047Y7494928D01*
X-571428Y7494928D01*
X-647619Y7456833D01*
X-685714Y7380642D01*
X-685714Y7304452D01*
X-304761Y7228261D01*
X-1523809Y7761595D02*
X-1790476Y6961595D01*
X-2057142Y7761595D01*
X-2285714Y7685404D02*
X-2323809Y7723500D01*
X-2399999Y7761595D01*
X-2590476Y7761595D01*
X-2666666Y7723500D01*
X-2704761Y7685404D01*
X-2742857Y7609214D01*
X-2742857Y7533023D01*
X-2704761Y7418738D01*
X-2247619Y6961595D01*
X-2742857Y6961595D01*
X-3085714Y7037785D02*
X-3123809Y6999690D01*
X-3085714Y6961595D01*
X-3047619Y6999690D01*
X-3085714Y7037785D01*
X-3085714Y6961595D01*
X-3619047Y7761595D02*
X-3695238Y7761595D01*
X-3771428Y7723500D01*
X-3809523Y7685404D01*
X-3847619Y7609214D01*
X-3885714Y7456833D01*
X-3885714Y7266357D01*
X-3847619Y7113976D01*
X-3809523Y7037785D01*
X-3771428Y6999690D01*
X-3695238Y6961595D01*
X-3619047Y6961595D01*
X-3542857Y6999690D01*
X-3504761Y7037785D01*
X-3466666Y7113976D01*
X-3428571Y7266357D01*
X-3428571Y7456833D01*
X-3466666Y7609214D01*
X-3504761Y7685404D01*
X-3542857Y7723500D01*
X-3619047Y7761595D01*
X-3265476Y-19725000D02*
X-3189285Y-19686904D01*
X-3075000Y-19686904D01*
X-2960714Y-19725000D01*
X-2884523Y-19801190D01*
X-2846428Y-19877380D01*
X-2808333Y-20029761D01*
X-2808333Y-20144047D01*
X-2846428Y-20296428D01*
X-2884523Y-20372619D01*
X-2960714Y-20448809D01*
X-3075000Y-20486904D01*
X-3151190Y-20486904D01*
X-3265476Y-20448809D01*
X-3303571Y-20410714D01*
X-3303571Y-20144047D01*
X-3151190Y-20144047D01*
X-3646428Y-20486904D02*
X-3646428Y-19686904D01*
X-4103571Y-20486904D01*
X-4103571Y-19686904D01*
X-4484523Y-20486904D02*
X-4484523Y-19686904D01*
X-4675000Y-19686904D01*
X-4789285Y-19725000D01*
X-4865476Y-19801190D01*
X-4903571Y-19877380D01*
X-4941666Y-20029761D01*
X-4941666Y-20144047D01*
X-4903571Y-20296428D01*
X-4865476Y-20372619D01*
X-4789285Y-20448809D01*
X-4675000Y-20486904D01*
X-4484523Y-20486904D01*
X-430952Y-20486904D02*
X-430952Y-19686904D01*
X-621428Y-19686904D01*
X-735714Y-19725000D01*
X-811904Y-19801190D01*
X-850000Y-19877380D01*
X-888095Y-20029761D01*
X-888095Y-20144047D01*
X-850000Y-20296428D01*
X-811904Y-20372619D01*
X-735714Y-20448809D01*
X-621428Y-20486904D01*
X-430952Y-20486904D01*
X-1230952Y-20486904D02*
X-1230952Y-19686904D01*
X-1764285Y-19686904D02*
X-1916666Y-19686904D01*
X-1992857Y-19725000D01*
X-2069047Y-19801190D01*
X-2107142Y-19953571D01*
X-2107142Y-20220238D01*
X-2069047Y-20372619D01*
X-1992857Y-20448809D01*
X-1916666Y-20486904D01*
X-1764285Y-20486904D01*
X-1688095Y-20448809D01*
X-1611904Y-20372619D01*
X-1573809Y-20220238D01*
X-1573809Y-19953571D01*
X-1611904Y-19801190D01*
X-1688095Y-19725000D01*
X-1764285Y-19686904D01*
X1726190Y-20410714D02*
X1764285Y-20448809D01*
X1878571Y-20486904D01*
X1954761Y-20486904D01*
X2069047Y-20448809D01*
X2145238Y-20372619D01*
X2183333Y-20296428D01*
X2221428Y-20144047D01*
X2221428Y-20029761D01*
X2183333Y-19877380D01*
X2145238Y-19801190D01*
X2069047Y-19725000D01*
X1954761Y-19686904D01*
X1878571Y-19686904D01*
X1764285Y-19725000D01*
X1726190Y-19763095D01*
X1002380Y-20486904D02*
X1383333Y-20486904D01*
X1383333Y-19686904D01*
X735714Y-20486904D02*
X735714Y-19686904D01*
X278571Y-20486904D02*
X621428Y-20029761D01*
X278571Y-19686904D02*
X735714Y-20144047D01*
X4865476Y-19686904D02*
X4370238Y-19686904D01*
X4636904Y-19991666D01*
X4522619Y-19991666D01*
X4446428Y-20029761D01*
X4408333Y-20067857D01*
X4370238Y-20144047D01*
X4370238Y-20334523D01*
X4408333Y-20410714D01*
X4446428Y-20448809D01*
X4522619Y-20486904D01*
X4751190Y-20486904D01*
X4827380Y-20448809D01*
X4865476Y-20410714D01*
X4141666Y-19686904D02*
X3875000Y-20486904D01*
X3608333Y-19686904D01*
X3417857Y-19686904D02*
X2922619Y-19686904D01*
X3189285Y-19991666D01*
X3075000Y-19991666D01*
X2998809Y-20029761D01*
X2960714Y-20067857D01*
X2922619Y-20144047D01*
X2922619Y-20334523D01*
X2960714Y-20410714D01*
X2998809Y-20448809D01*
X3075000Y-20486904D01*
X3303571Y-20486904D01*
X3379761Y-20448809D01*
X3417857Y-20410714D01*
D11*
X4760000Y-18000000D02*
G75*
G03*
X4760000Y-18000000I-950000J0D01*
G01*
X2220000Y-18000000D02*
G75*
G03*
X2220000Y-18000000I-950000J0D01*
G01*
X-320000Y-18000000D02*
G75*
G03*
X-320000Y-18000000I-950000J0D01*
G01*
X-2860000Y-18000000D02*
G75*
G03*
X-2860000Y-18000000I-950000J0D01*
G01*
%LPC*%
D12*
X3810000Y-18000000D03*
X1270000Y-18000000D03*
X-1270000Y-18000000D03*
X-3810000Y-18000000D03*
G36*
G01*
X12876813Y-9474516D02*
X12098995Y-8696698D01*
G75*
G02*
X12098995Y-7989592I353553J353553D01*
G01*
X12098995Y-7989592D01*
G75*
G02*
X12806101Y-7989592I353553J-353553D01*
G01*
X13583919Y-8767410D01*
G75*
G02*
X13583919Y-9474516I-353553J-353553D01*
G01*
X13583919Y-9474516D01*
G75*
G02*
X12876813Y-9474516I-353553J353553D01*
G01*
G37*
G36*
G01*
X6767410Y-15583919D02*
X5989592Y-14806101D01*
G75*
G02*
X5989592Y-14098995I353553J353553D01*
G01*
X5989592Y-14098995D01*
G75*
G02*
X6696698Y-14098995I353553J-353553D01*
G01*
X7474516Y-14876813D01*
G75*
G02*
X7474516Y-15583919I-353553J-353553D01*
G01*
X7474516Y-15583919D01*
G75*
G02*
X6767410Y-15583919I-353553J353553D01*
G01*
G37*
D13*
X8117984Y-14205061D03*
G36*
G01*
X9546340Y-18362848D02*
X9122076Y-17938584D01*
G75*
G02*
X9122076Y-17231478I353553J353553D01*
G01*
X9122076Y-17231478D01*
G75*
G02*
X9829182Y-17231478I353553J-353553D01*
G01*
X10253446Y-17655742D01*
G75*
G02*
X10253446Y-18362848I-353553J-353553D01*
G01*
X10253446Y-18362848D01*
G75*
G02*
X9546340Y-18362848I-353553J353553D01*
G01*
G37*
X12205061Y-10117984D03*
G36*
G01*
X15655742Y-12253446D02*
X15231478Y-11829182D01*
G75*
G02*
X15231478Y-11122076I353553J353553D01*
G01*
X15231478Y-11122076D01*
G75*
G02*
X15938584Y-11122076I353553J-353553D01*
G01*
X16362848Y-11546340D01*
G75*
G02*
X16362848Y-12253446I-353553J-353553D01*
G01*
X16362848Y-12253446D01*
G75*
G02*
X15655742Y-12253446I-353553J353553D01*
G01*
G37*
G36*
G01*
X-10253446Y-17655742D02*
X-9829182Y-17231478D01*
G75*
G02*
X-9122076Y-17231478I353553J-353553D01*
G01*
X-9122076Y-17231478D01*
G75*
G02*
X-9122076Y-17938584I-353553J-353553D01*
G01*
X-9546340Y-18362848D01*
G75*
G02*
X-10253446Y-18362848I-353553J353553D01*
G01*
X-10253446Y-18362848D01*
G75*
G02*
X-10253446Y-17655742I353553J353553D01*
G01*
G37*
X-8117984Y-14205061D03*
G36*
G01*
X-16362848Y-11546340D02*
X-15938584Y-11122076D01*
G75*
G02*
X-15231478Y-11122076I353553J-353553D01*
G01*
X-15231478Y-11122076D01*
G75*
G02*
X-15231478Y-11829182I-353553J-353553D01*
G01*
X-15655742Y-12253446D01*
G75*
G02*
X-16362848Y-12253446I-353553J353553D01*
G01*
X-16362848Y-12253446D01*
G75*
G02*
X-16362848Y-11546340I353553J353553D01*
G01*
G37*
X-12205061Y-10117984D03*
G36*
G01*
X-13583919Y-8767410D02*
X-12806101Y-7989592D01*
G75*
G02*
X-12098995Y-7989592I353553J-353553D01*
G01*
X-12098995Y-7989592D01*
G75*
G02*
X-12098995Y-8696698I-353553J-353553D01*
G01*
X-12876813Y-9474516D01*
G75*
G02*
X-13583919Y-9474516I-353553J353553D01*
G01*
X-13583919Y-9474516D01*
G75*
G02*
X-13583919Y-8767410I353553J353553D01*
G01*
G37*
G36*
G01*
X-7474516Y-14876813D02*
X-6696698Y-14098995D01*
G75*
G02*
X-5989592Y-14098995I353553J-353553D01*
G01*
X-5989592Y-14098995D01*
G75*
G02*
X-5989592Y-14806101I-353553J-353553D01*
G01*
X-6767410Y-15583919D01*
G75*
G02*
X-7474516Y-15583919I-353553J353553D01*
G01*
X-7474516Y-15583919D01*
G75*
G02*
X-7474516Y-14876813I353553J353553D01*
G01*
G37*
D14*
X-4320000Y12870000D03*
X4320000Y12870000D03*
D13*
X2890000Y13400000D03*
D15*
X4320000Y17050000D03*
D13*
X-2890000Y13400000D03*
D15*
X-4320000Y17050000D03*
M02*
