M48
; DRILL file {KiCad (5.1.10-1-10_14)} date Monday, July 26, 2021 at 07:28:31 PM
; FORMAT={-:-/ absolute / metric / decimal}
; #@! TF.CreationDate,2021-07-26T19:28:31-07:00
; #@! TF.GenerationSoftware,Kicad,Pcbnew,(5.1.10-1-10_14)
; #@! TF.FileFunction,Plated,1,4,PTH
FMAT,2
METRIC
T1C0.200
T2C0.300
T3C0.600
%
G90
G05
T1
X0.996Y-2.276
T2
X-11.7Y-7.5
X-10.904Y-11.6
X-10.9Y-12.5
X-9.849Y-13.551
X-9.8Y-8.335
X-9.8Y-12.6
X-7.5Y-7.6
X-7.486Y-9.186
X-6.223Y-1.8
X-6.135Y-11.6
X-6.0Y16.4
X-5.95Y-16.95
X-5.8Y0.22
X-5.8Y-0.75
X-5.643Y4.743
X-5.2Y-9.2
X-4.74Y-2.67
X-4.35Y6.8
X-3.8Y-14.6
X-3.7Y-6.5
X-3.25Y10.65
X-2.373Y10.731
X-1.75Y7.425
X-1.7Y-4.0
X-1.4Y3.4
X-1.4Y0.6
X-1.3Y14.5
X-0.623Y13.8
X0.0Y2.0
X0.25Y14.45
X0.625Y-11.875
X1.2Y13.8
X1.4Y3.4
X1.4Y0.6
X1.95Y-11.9
X2.3Y6.7
X2.45Y10.6
X2.75Y-7.55
X2.9Y-6.2
X3.3Y10.6
X3.375Y-11.875
X3.42Y6.565
X4.54Y9.71
X4.675Y-2.25
X5.2Y8.6
X5.2Y7.5
X5.377Y-12.803
X5.39Y-10.91
X5.75Y0.65
X6.0Y16.4
X6.0Y-17.0
X7.5Y4.6
X7.5Y3.1
X7.6Y-2.6
X8.3Y-5.0
X8.9Y-7.5
X9.862Y-12.65
X9.9Y-13.8
X10.206Y-7.494
X11.0Y-11.617
X11.05Y-12.7
T3
X-15.645Y-11.536G85X-16.069Y-11.96
G05
X-12.513Y-8.403G85X-13.29Y-9.181
G05
X-9.536Y-17.645G85X-9.96Y-18.069
G05
X-6.403Y-14.513G85X-7.181Y-15.29
G05
X-4.32Y16.75G85X-4.32Y17.35
G05
X-4.32Y12.32G85X-4.32Y13.42
G05
X4.32Y16.75G85X4.32Y17.35
G05
X4.32Y12.32G85X4.32Y13.42
G05
X6.403Y-14.513G85X7.181Y-15.29
G05
X9.536Y-17.645G85X9.96Y-18.069
G05
X12.513Y-8.403G85X13.29Y-9.181
G05
X15.645Y-11.536G85X16.069Y-11.96
G05
T0
M30
