G04 #@! TF.GenerationSoftware,KiCad,Pcbnew,(5.1.10-1-10_14)*
G04 #@! TF.CreationDate,2021-07-26T04:46:29-07:00*
G04 #@! TF.ProjectId,Synapse,53796e61-7073-4652-9e6b-696361645f70,1*
G04 #@! TF.SameCoordinates,Original*
G04 #@! TF.FileFunction,Soldermask,Bot*
G04 #@! TF.FilePolarity,Negative*
%FSLAX46Y46*%
G04 Gerber Fmt 4.6, Leading zero omitted, Abs format (unit mm)*
G04 Created by KiCad (PCBNEW (5.1.10-1-10_14)) date 2021-07-26 04:46:29*
%MOMM*%
%LPD*%
G01*
G04 APERTURE LIST*
%ADD10C,0.670000*%
%ADD11C,1.500000*%
G04 APERTURE END LIST*
D10*
X12269670Y-10168451D03*
X8168451Y-14269670D03*
G36*
G01*
X9603878Y-18420386D02*
X9179614Y-17996122D01*
G75*
G02*
X9179614Y-17289016I353553J353553D01*
G01*
X9179614Y-17289016D01*
G75*
G02*
X9886720Y-17289016I353553J-353553D01*
G01*
X10310984Y-17713280D01*
G75*
G02*
X10310984Y-18420386I-353553J-353553D01*
G01*
X10310984Y-18420386D01*
G75*
G02*
X9603878Y-18420386I-353553J353553D01*
G01*
G37*
G36*
G01*
X15713280Y-12310984D02*
X15289016Y-11886720D01*
G75*
G02*
X15289016Y-11179614I353553J353553D01*
G01*
X15289016Y-11179614D01*
G75*
G02*
X15996122Y-11179614I353553J-353553D01*
G01*
X16420386Y-11603878D01*
G75*
G02*
X16420386Y-12310984I-353553J-353553D01*
G01*
X16420386Y-12310984D01*
G75*
G02*
X15713280Y-12310984I-353553J353553D01*
G01*
G37*
G36*
G01*
X12757574Y-9355277D02*
X12333310Y-8931013D01*
G75*
G02*
X12333310Y-8223907I353553J353553D01*
G01*
X12333310Y-8223907D01*
G75*
G02*
X13040416Y-8223907I353553J-353553D01*
G01*
X13464680Y-8648171D01*
G75*
G02*
X13464680Y-9355277I-353553J-353553D01*
G01*
X13464680Y-9355277D01*
G75*
G02*
X12757574Y-9355277I-353553J353553D01*
G01*
G37*
G36*
G01*
X6648171Y-15464680D02*
X6223907Y-15040416D01*
G75*
G02*
X6223907Y-14333310I353553J353553D01*
G01*
X6223907Y-14333310D01*
G75*
G02*
X6931013Y-14333310I353553J-353553D01*
G01*
X7355277Y-14757574D01*
G75*
G02*
X7355277Y-15464680I-353553J-353553D01*
G01*
X7355277Y-15464680D01*
G75*
G02*
X6648171Y-15464680I-353553J353553D01*
G01*
G37*
X-8168451Y-14269670D03*
X-12269670Y-10168451D03*
G36*
G01*
X-16420386Y-11603878D02*
X-15996122Y-11179614D01*
G75*
G02*
X-15289016Y-11179614I353553J-353553D01*
G01*
X-15289016Y-11179614D01*
G75*
G02*
X-15289016Y-11886720I-353553J-353553D01*
G01*
X-15713280Y-12310984D01*
G75*
G02*
X-16420386Y-12310984I-353553J353553D01*
G01*
X-16420386Y-12310984D01*
G75*
G02*
X-16420386Y-11603878I353553J353553D01*
G01*
G37*
G36*
G01*
X-10310984Y-17713280D02*
X-9886720Y-17289016D01*
G75*
G02*
X-9179614Y-17289016I353553J-353553D01*
G01*
X-9179614Y-17289016D01*
G75*
G02*
X-9179614Y-17996122I-353553J-353553D01*
G01*
X-9603878Y-18420386D01*
G75*
G02*
X-10310984Y-18420386I-353553J353553D01*
G01*
X-10310984Y-18420386D01*
G75*
G02*
X-10310984Y-17713280I353553J353553D01*
G01*
G37*
G36*
G01*
X-7355277Y-14757574D02*
X-6931013Y-14333310D01*
G75*
G02*
X-6223907Y-14333310I353553J-353553D01*
G01*
X-6223907Y-14333310D01*
G75*
G02*
X-6223907Y-15040416I-353553J-353553D01*
G01*
X-6648171Y-15464680D01*
G75*
G02*
X-7355277Y-15464680I-353553J353553D01*
G01*
X-7355277Y-15464680D01*
G75*
G02*
X-7355277Y-14757574I353553J353553D01*
G01*
G37*
G36*
G01*
X-13464680Y-8648171D02*
X-13040416Y-8223907D01*
G75*
G02*
X-12333310Y-8223907I353553J-353553D01*
G01*
X-12333310Y-8223907D01*
G75*
G02*
X-12333310Y-8931013I-353553J-353553D01*
G01*
X-12757574Y-9355277D01*
G75*
G02*
X-13464680Y-9355277I-353553J353553D01*
G01*
X-13464680Y-9355277D01*
G75*
G02*
X-13464680Y-8648171I353553J353553D01*
G01*
G37*
X-2900000Y13350000D03*
X2900000Y13350000D03*
G36*
G01*
X4820000Y17300000D02*
X4820000Y16700000D01*
G75*
G02*
X4320000Y16200000I-500000J0D01*
G01*
X4320000Y16200000D01*
G75*
G02*
X3820000Y16700000I0J500000D01*
G01*
X3820000Y17300000D01*
G75*
G02*
X4320000Y17800000I500000J0D01*
G01*
X4320000Y17800000D01*
G75*
G02*
X4820000Y17300000I0J-500000D01*
G01*
G37*
G36*
G01*
X-3820000Y17300000D02*
X-3820000Y16700000D01*
G75*
G02*
X-4320000Y16200000I-500000J0D01*
G01*
X-4320000Y16200000D01*
G75*
G02*
X-4820000Y16700000I0J500000D01*
G01*
X-4820000Y17300000D01*
G75*
G02*
X-4320000Y17800000I500000J0D01*
G01*
X-4320000Y17800000D01*
G75*
G02*
X-3820000Y17300000I0J-500000D01*
G01*
G37*
G36*
G01*
X-3820000Y13120000D02*
X-3820000Y12520000D01*
G75*
G02*
X-4320000Y12020000I-500000J0D01*
G01*
X-4320000Y12020000D01*
G75*
G02*
X-4820000Y12520000I0J500000D01*
G01*
X-4820000Y13120000D01*
G75*
G02*
X-4320000Y13620000I500000J0D01*
G01*
X-4320000Y13620000D01*
G75*
G02*
X-3820000Y13120000I0J-500000D01*
G01*
G37*
G36*
G01*
X4820000Y13120000D02*
X4820000Y12520000D01*
G75*
G02*
X4320000Y12020000I-500000J0D01*
G01*
X4320000Y12020000D01*
G75*
G02*
X3820000Y12520000I0J500000D01*
G01*
X3820000Y13120000D01*
G75*
G02*
X4320000Y13620000I500000J0D01*
G01*
X4320000Y13620000D01*
G75*
G02*
X4820000Y13120000I0J-500000D01*
G01*
G37*
D11*
X3810000Y-13240000D03*
X1270000Y-13240000D03*
X-1270000Y-13240000D03*
X-3810000Y-13240000D03*
X3810000Y-10700000D03*
X1270000Y-10700000D03*
X-1270000Y-10700000D03*
X-3810000Y-10700000D03*
M02*
