%FSLAX45Y45*%
G04 Gerber Fmt 4.5, Leading zero omitted, Abs format (unit mm)*
G04 Created by KiCad (PCBNEW (5.1.10-1-10_14)) date 2021-07-26 19:28:31*
%MOMM*%
%LPD*%
G01*
G04 APERTURE LIST*
%TA.AperFunction,Profile*%
%ADD10C,0.100000*%
%TD*%
%ADD11C,0.200000*%
%ADD12C,0.300000*%
G04 APERTURE END LIST*
D10*
X965000Y-2235000D02*
X2035000Y-1165000D01*
X-760000Y2020000D02*
X-760000Y1241000D01*
X-1359601Y-490543D02*
G75*
G03*
X-760000Y1241000I-2200399J1731544D01*
G01*
X1359489Y-490402D02*
G75*
G02*
X760000Y1241000I2200511J1731402D01*
G01*
X760000Y-2030000D02*
G75*
G03*
X-760000Y-2030000I-760000J-760000D01*
G01*
X-965000Y-2235000D02*
X-760000Y-2030000D01*
X-2035000Y-1165000D02*
X-1359601Y-490543D01*
X2035000Y-1165000D02*
X1359601Y-490543D01*
X965000Y-2235000D02*
X760000Y-2030000D01*
X760000Y2020000D02*
X760000Y1241000D01*
X-760000Y2020000D02*
X760000Y2020000D01*
X-2035000Y-1165000D02*
X-965000Y-2235000D01*
D11*
X89643Y-217554D02*
X109643Y-237554D01*
X109643Y-217554D02*
X89643Y-237554D01*
X-1155000Y-750000D02*
G75*
G03*
X-1155000Y-750000I-15000J0D01*
G01*
X-1075421Y-1160000D02*
G75*
G03*
X-1075421Y-1160000I-15000J0D01*
G01*
X-1075000Y-1250000D02*
G75*
G03*
X-1075000Y-1250000I-15000J0D01*
G01*
X-969913Y-1355086D02*
G75*
G03*
X-969913Y-1355086I-15000J0D01*
G01*
X-965000Y-833519D02*
G75*
G03*
X-965000Y-833519I-15000J0D01*
G01*
X-965000Y-1260000D02*
G75*
G03*
X-965000Y-1260000I-15000J0D01*
G01*
X-735000Y-760000D02*
G75*
G03*
X-735000Y-760000I-15000J0D01*
G01*
X-733593Y-918592D02*
G75*
G03*
X-733593Y-918592I-15000J0D01*
G01*
X-607300Y-180000D02*
G75*
G03*
X-607300Y-180000I-15000J0D01*
G01*
X-598517Y-1160001D02*
G75*
G03*
X-598517Y-1160001I-15000J0D01*
G01*
X-585000Y1640000D02*
G75*
G03*
X-585000Y1640000I-15000J0D01*
G01*
X-580000Y-1695000D02*
G75*
G03*
X-580000Y-1695000I-15000J0D01*
G01*
X-565000Y22000D02*
G75*
G03*
X-565000Y22000I-15000J0D01*
G01*
X-565000Y-75000D02*
G75*
G03*
X-565000Y-75000I-15000J0D01*
G01*
X-549336Y474336D02*
G75*
G03*
X-549336Y474336I-15000J0D01*
G01*
X-505000Y-920000D02*
G75*
G03*
X-505000Y-920000I-15000J0D01*
G01*
X-459000Y-267000D02*
G75*
G03*
X-459000Y-267000I-15000J0D01*
G01*
X-420000Y680000D02*
G75*
G03*
X-420000Y680000I-15000J0D01*
G01*
X-365000Y-1460000D02*
G75*
G03*
X-365000Y-1460000I-15000J0D01*
G01*
X-355000Y-650000D02*
G75*
G03*
X-355000Y-650000I-15000J0D01*
G01*
X-310000Y1065000D02*
G75*
G03*
X-310000Y1065000I-15000J0D01*
G01*
X-222299Y1073098D02*
G75*
G03*
X-222299Y1073098I-15000J0D01*
G01*
X-160000Y742500D02*
G75*
G03*
X-160000Y742500I-15000J0D01*
G01*
X-155000Y-400000D02*
G75*
G03*
X-155000Y-400000I-15000J0D01*
G01*
X-125000Y340000D02*
G75*
G03*
X-125000Y340000I-15000J0D01*
G01*
X-125000Y60000D02*
G75*
G03*
X-125000Y60000I-15000J0D01*
G01*
X-114999Y1450000D02*
G75*
G03*
X-114999Y1450000I-15000J0D01*
G01*
X-47299Y1380000D02*
G75*
G03*
X-47299Y1380000I-15000J0D01*
G01*
X15000Y200000D02*
G75*
G03*
X15000Y200000I-15000J0D01*
G01*
X40000Y1445001D02*
G75*
G03*
X40000Y1445001I-15000J0D01*
G01*
X77500Y-1187500D02*
G75*
G03*
X77500Y-1187500I-15000J0D01*
G01*
X135000Y1379999D02*
G75*
G03*
X135000Y1379999I-15000J0D01*
G01*
X155000Y340000D02*
G75*
G03*
X155000Y340000I-15000J0D01*
G01*
X155000Y60000D02*
G75*
G03*
X155000Y60000I-15000J0D01*
G01*
X210000Y-1190000D02*
G75*
G03*
X210000Y-1190000I-15000J0D01*
G01*
X245000Y670000D02*
G75*
G03*
X245000Y670000I-15000J0D01*
G01*
X260000Y1060000D02*
G75*
G03*
X260000Y1060000I-15000J0D01*
G01*
X290000Y-755000D02*
G75*
G03*
X290000Y-755000I-15000J0D01*
G01*
X305000Y-620000D02*
G75*
G03*
X305000Y-620000I-15000J0D01*
G01*
X345000Y1060000D02*
G75*
G03*
X345000Y1060000I-15000J0D01*
G01*
X352500Y-1187500D02*
G75*
G03*
X352500Y-1187500I-15000J0D01*
G01*
X357000Y656506D02*
G75*
G03*
X357000Y656506I-15000J0D01*
G01*
X469000Y971000D02*
G75*
G03*
X469000Y971000I-15000J0D01*
G01*
X482500Y-225000D02*
G75*
G03*
X482500Y-225000I-15000J0D01*
G01*
X535000Y860000D02*
G75*
G03*
X535000Y860000I-15000J0D01*
G01*
X535000Y750000D02*
G75*
G03*
X535000Y750000I-15000J0D01*
G01*
X552735Y-1280259D02*
G75*
G03*
X552735Y-1280259I-15000J0D01*
G01*
X554001Y-1091000D02*
G75*
G03*
X554001Y-1091000I-15000J0D01*
G01*
X590000Y65000D02*
G75*
G03*
X590000Y65000I-15000J0D01*
G01*
X615000Y1640000D02*
G75*
G03*
X615000Y1640000I-15000J0D01*
G01*
X615000Y-1700000D02*
G75*
G03*
X615000Y-1700000I-15000J0D01*
G01*
X765000Y460000D02*
G75*
G03*
X765000Y460000I-15000J0D01*
G01*
X765000Y309998D02*
G75*
G03*
X765000Y309998I-15000J0D01*
G01*
X775000Y-260000D02*
G75*
G03*
X775000Y-260000I-15000J0D01*
G01*
X844999Y-500000D02*
G75*
G03*
X844999Y-500000I-15000J0D01*
G01*
X905000Y-750000D02*
G75*
G03*
X905000Y-750000I-15000J0D01*
G01*
X1001206Y-1264996D02*
G75*
G03*
X1001206Y-1264996I-15000J0D01*
G01*
X1005000Y-1380000D02*
G75*
G03*
X1005000Y-1380000I-15000J0D01*
G01*
X1035553Y-749446D02*
G75*
G03*
X1035553Y-749446I-15000J0D01*
G01*
X1115000Y-1161699D02*
G75*
G03*
X1115000Y-1161699I-15000J0D01*
G01*
X1119998Y-1270000D02*
G75*
G03*
X1119998Y-1270000I-15000J0D01*
G01*
X-1585716Y-1144776D02*
X-1585716Y-1204776D01*
X-1615716Y-1174776D02*
X-1555716Y-1174776D01*
X-1578645Y-1139421D02*
X-1621072Y-1181847D01*
X-1550361Y-1167705D02*
X-1592787Y-1210131D01*
X-1621072Y-1181847D02*
G75*
G03*
X-1592787Y-1210131I14142J-14142D01*
G01*
X-1550361Y-1167705D02*
G75*
G03*
X-1578645Y-1139421I-14142J14142D01*
G01*
X-1290146Y-849205D02*
X-1290146Y-909205D01*
X-1320146Y-879205D02*
X-1260146Y-879205D01*
X-1265397Y-826172D02*
X-1343179Y-903954D01*
X-1237113Y-854457D02*
X-1314894Y-932238D01*
X-1343179Y-903954D02*
G75*
G03*
X-1314895Y-932238I14142J-14142D01*
G01*
X-1237113Y-854457D02*
G75*
G03*
X-1265397Y-826172I-14142J14142D01*
G01*
X-974776Y-1755716D02*
X-974776Y-1815716D01*
X-1004776Y-1785716D02*
X-944776Y-1785716D01*
X-967705Y-1750361D02*
X-1010131Y-1792787D01*
X-939421Y-1778645D02*
X-981847Y-1821072D01*
X-1010131Y-1792787D02*
G75*
G03*
X-981847Y-1821072I14142J-14142D01*
G01*
X-939421Y-1778645D02*
G75*
G03*
X-967705Y-1750361I-14142J14142D01*
G01*
X-679205Y-1460146D02*
X-679205Y-1520146D01*
X-709205Y-1490146D02*
X-649205Y-1490146D01*
X-654457Y-1437113D02*
X-732238Y-1514894D01*
X-626172Y-1465397D02*
X-703954Y-1543179D01*
X-732238Y-1514894D02*
G75*
G03*
X-703954Y-1543179I14142J-14142D01*
G01*
X-626172Y-1465397D02*
G75*
G03*
X-654457Y-1437113I-14142J14142D01*
G01*
X-432000Y1735000D02*
X-432000Y1675000D01*
X-462000Y1705000D02*
X-402000Y1705000D01*
X-412000Y1675000D02*
X-412000Y1735000D01*
X-452000Y1675000D02*
X-452000Y1735000D01*
X-412000Y1735000D02*
G75*
G03*
X-452000Y1735000I-20000J0D01*
G01*
X-452000Y1675000D02*
G75*
G03*
X-412000Y1675000I20000J0D01*
G01*
X-432000Y1317000D02*
X-432000Y1257000D01*
X-462000Y1287000D02*
X-402000Y1287000D01*
X-412000Y1232000D02*
X-412000Y1342000D01*
X-452000Y1232000D02*
X-452000Y1342000D01*
X-412000Y1342000D02*
G75*
G03*
X-452000Y1342000I-20000J0D01*
G01*
X-452000Y1232000D02*
G75*
G03*
X-412000Y1232000I20000J0D01*
G01*
X432000Y1735000D02*
X432000Y1675000D01*
X402000Y1705000D02*
X462000Y1705000D01*
X452000Y1675000D02*
X452000Y1735000D01*
X412000Y1675000D02*
X412000Y1735000D01*
X452000Y1735000D02*
G75*
G03*
X412000Y1735000I-20000J0D01*
G01*
X412000Y1675000D02*
G75*
G03*
X452000Y1675000I20000J0D01*
G01*
X432000Y1317000D02*
X432000Y1257000D01*
X402000Y1287000D02*
X462000Y1287000D01*
X452000Y1232000D02*
X452000Y1342000D01*
X412000Y1232000D02*
X412000Y1342000D01*
X452000Y1342000D02*
G75*
G03*
X412000Y1342000I-20000J0D01*
G01*
X412000Y1232000D02*
G75*
G03*
X452000Y1232000I20000J0D01*
G01*
X679205Y-1460146D02*
X679205Y-1520146D01*
X649205Y-1490146D02*
X709205Y-1490146D01*
X626172Y-1465397D02*
X703954Y-1543179D01*
X654457Y-1437113D02*
X732238Y-1514894D01*
X703954Y-1543179D02*
G75*
G03*
X732238Y-1514894I14142J14142D01*
G01*
X654457Y-1437113D02*
G75*
G03*
X626172Y-1465397I-14142J-14142D01*
G01*
X974776Y-1755716D02*
X974776Y-1815716D01*
X944776Y-1785716D02*
X1004776Y-1785716D01*
X939421Y-1778645D02*
X981847Y-1821072D01*
X967705Y-1750361D02*
X1010131Y-1792787D01*
X981847Y-1821072D02*
G75*
G03*
X1010131Y-1792787I14142J14142D01*
G01*
X967705Y-1750361D02*
G75*
G03*
X939421Y-1778645I-14142J-14142D01*
G01*
X1290146Y-849205D02*
X1290146Y-909205D01*
X1260146Y-879205D02*
X1320146Y-879205D01*
X1237113Y-854457D02*
X1314894Y-932238D01*
X1265397Y-826172D02*
X1343179Y-903954D01*
X1314895Y-932238D02*
G75*
G03*
X1343179Y-903954I14142J14142D01*
G01*
X1265397Y-826172D02*
G75*
G03*
X1237113Y-854457I-14142J-14142D01*
G01*
X1585716Y-1144776D02*
X1585716Y-1204776D01*
X1555716Y-1174776D02*
X1615716Y-1174776D01*
X1550361Y-1167705D02*
X1592787Y-1210131D01*
X1578645Y-1139421D02*
X1621072Y-1181847D01*
X1592787Y-1210131D02*
G75*
G03*
X1621072Y-1181847I14142J14142D01*
G01*
X1578645Y-1139421D02*
G75*
G03*
X1550361Y-1167705I-14142J-14142D01*
G01*
D12*
X-1753571Y-2705714D02*
X-1753571Y-2405714D01*
X-1682143Y-2405714D01*
X-1639286Y-2420000D01*
X-1610714Y-2448572D01*
X-1596429Y-2477143D01*
X-1582143Y-2534286D01*
X-1582143Y-2577143D01*
X-1596429Y-2634286D01*
X-1610714Y-2662857D01*
X-1639286Y-2691429D01*
X-1682143Y-2705714D01*
X-1753571Y-2705714D01*
X-1453571Y-2705714D02*
X-1453571Y-2505714D01*
X-1453571Y-2562857D02*
X-1439286Y-2534286D01*
X-1425000Y-2520000D01*
X-1396429Y-2505714D01*
X-1367857Y-2505714D01*
X-1267857Y-2705714D02*
X-1267857Y-2505714D01*
X-1267857Y-2405714D02*
X-1282143Y-2420000D01*
X-1267857Y-2434286D01*
X-1253572Y-2420000D01*
X-1267857Y-2405714D01*
X-1267857Y-2434286D01*
X-1082143Y-2705714D02*
X-1110714Y-2691429D01*
X-1125000Y-2662857D01*
X-1125000Y-2405714D01*
X-925000Y-2705714D02*
X-953571Y-2691429D01*
X-967857Y-2662857D01*
X-967857Y-2405714D01*
X-582143Y-2705714D02*
X-582143Y-2405714D01*
X-482143Y-2620000D01*
X-382143Y-2405714D01*
X-382143Y-2705714D01*
X-110714Y-2705714D02*
X-110714Y-2548572D01*
X-125000Y-2520000D01*
X-153572Y-2505714D01*
X-210714Y-2505714D01*
X-239286Y-2520000D01*
X-110714Y-2691429D02*
X-139286Y-2705714D01*
X-210714Y-2705714D01*
X-239286Y-2691429D01*
X-253571Y-2662857D01*
X-253571Y-2634286D01*
X-239286Y-2605714D01*
X-210714Y-2591429D01*
X-139286Y-2591429D01*
X-110714Y-2577143D01*
X32143Y-2505714D02*
X32143Y-2805714D01*
X32143Y-2520000D02*
X60714Y-2505714D01*
X117857Y-2505714D01*
X146428Y-2520000D01*
X160714Y-2534286D01*
X175000Y-2562857D01*
X175000Y-2648572D01*
X160714Y-2677143D01*
X146428Y-2691429D01*
X117857Y-2705714D01*
X60714Y-2705714D01*
X32143Y-2691429D01*
X303571Y-2677143D02*
X317857Y-2691429D01*
X303571Y-2705714D01*
X289286Y-2691429D01*
X303571Y-2677143D01*
X303571Y-2705714D01*
X303571Y-2520000D02*
X317857Y-2534286D01*
X303571Y-2548572D01*
X289286Y-2534286D01*
X303571Y-2520000D01*
X303571Y-2548572D01*
X-2060000Y-3190000D02*
X-2040000Y-3210000D01*
X-2040000Y-3190000D02*
X-2060000Y-3210000D01*
X-1696429Y-3035714D02*
X-1667857Y-3035714D01*
X-1639286Y-3050000D01*
X-1625000Y-3064286D01*
X-1610714Y-3092857D01*
X-1596429Y-3150000D01*
X-1596429Y-3221429D01*
X-1610714Y-3278571D01*
X-1625000Y-3307143D01*
X-1639286Y-3321429D01*
X-1667857Y-3335714D01*
X-1696429Y-3335714D01*
X-1725000Y-3321429D01*
X-1739286Y-3307143D01*
X-1753571Y-3278571D01*
X-1767857Y-3221429D01*
X-1767857Y-3150000D01*
X-1753571Y-3092857D01*
X-1739286Y-3064286D01*
X-1725000Y-3050000D01*
X-1696429Y-3035714D01*
X-1467857Y-3307143D02*
X-1453571Y-3321429D01*
X-1467857Y-3335714D01*
X-1482143Y-3321429D01*
X-1467857Y-3307143D01*
X-1467857Y-3335714D01*
X-1339286Y-3064286D02*
X-1325000Y-3050000D01*
X-1296429Y-3035714D01*
X-1225000Y-3035714D01*
X-1196429Y-3050000D01*
X-1182143Y-3064286D01*
X-1167857Y-3092857D01*
X-1167857Y-3121429D01*
X-1182143Y-3164286D01*
X-1353572Y-3335714D01*
X-1167857Y-3335714D01*
X-982143Y-3035714D02*
X-953571Y-3035714D01*
X-925000Y-3050000D01*
X-910714Y-3064286D01*
X-896429Y-3092857D01*
X-882143Y-3150000D01*
X-882143Y-3221429D01*
X-896429Y-3278571D01*
X-910714Y-3307143D01*
X-925000Y-3321429D01*
X-953571Y-3335714D01*
X-982143Y-3335714D01*
X-1010714Y-3321429D01*
X-1025000Y-3307143D01*
X-1039286Y-3278571D01*
X-1053572Y-3221429D01*
X-1053572Y-3150000D01*
X-1039286Y-3092857D01*
X-1025000Y-3064286D01*
X-1010714Y-3050000D01*
X-982143Y-3035714D01*
X-696429Y-3035714D02*
X-667857Y-3035714D01*
X-639286Y-3050000D01*
X-625000Y-3064286D01*
X-610714Y-3092857D01*
X-596429Y-3150000D01*
X-596429Y-3221429D01*
X-610714Y-3278571D01*
X-625000Y-3307143D01*
X-639286Y-3321429D01*
X-667857Y-3335714D01*
X-696429Y-3335714D01*
X-725000Y-3321429D01*
X-739286Y-3307143D01*
X-753571Y-3278571D01*
X-767857Y-3221429D01*
X-767857Y-3150000D01*
X-753571Y-3092857D01*
X-739286Y-3064286D01*
X-725000Y-3050000D01*
X-696429Y-3035714D01*
X-467857Y-3335714D02*
X-467857Y-3135714D01*
X-467857Y-3164286D02*
X-453571Y-3150000D01*
X-425000Y-3135714D01*
X-382143Y-3135714D01*
X-353571Y-3150000D01*
X-339286Y-3178571D01*
X-339286Y-3335714D01*
X-339286Y-3178571D02*
X-325000Y-3150000D01*
X-296429Y-3135714D01*
X-253571Y-3135714D01*
X-225000Y-3150000D01*
X-210714Y-3178571D01*
X-210714Y-3335714D01*
X-67857Y-3335714D02*
X-67857Y-3135714D01*
X-67857Y-3164286D02*
X-53571Y-3150000D01*
X-25000Y-3135714D01*
X17857Y-3135714D01*
X46428Y-3150000D01*
X60714Y-3178571D01*
X60714Y-3335714D01*
X60714Y-3178571D02*
X75000Y-3150000D01*
X103571Y-3135714D01*
X146428Y-3135714D01*
X175000Y-3150000D01*
X189286Y-3178571D01*
X189286Y-3335714D01*
X775000Y-3021429D02*
X517857Y-3407143D01*
X1160714Y-3035714D02*
X1189286Y-3035714D01*
X1217857Y-3050000D01*
X1232143Y-3064286D01*
X1246428Y-3092857D01*
X1260714Y-3150000D01*
X1260714Y-3221429D01*
X1246428Y-3278571D01*
X1232143Y-3307143D01*
X1217857Y-3321429D01*
X1189286Y-3335714D01*
X1160714Y-3335714D01*
X1132143Y-3321429D01*
X1117857Y-3307143D01*
X1103571Y-3278571D01*
X1089286Y-3221429D01*
X1089286Y-3150000D01*
X1103571Y-3092857D01*
X1117857Y-3064286D01*
X1132143Y-3050000D01*
X1160714Y-3035714D01*
X1389286Y-3307143D02*
X1403571Y-3321429D01*
X1389286Y-3335714D01*
X1375000Y-3321429D01*
X1389286Y-3307143D01*
X1389286Y-3335714D01*
X1589286Y-3035714D02*
X1617857Y-3035714D01*
X1646428Y-3050000D01*
X1660714Y-3064286D01*
X1675000Y-3092857D01*
X1689286Y-3150000D01*
X1689286Y-3221429D01*
X1675000Y-3278571D01*
X1660714Y-3307143D01*
X1646428Y-3321429D01*
X1617857Y-3335714D01*
X1589286Y-3335714D01*
X1560714Y-3321429D01*
X1546428Y-3307143D01*
X1532143Y-3278571D01*
X1517857Y-3221429D01*
X1517857Y-3150000D01*
X1532143Y-3092857D01*
X1546428Y-3064286D01*
X1560714Y-3050000D01*
X1589286Y-3035714D01*
X1875000Y-3035714D02*
X1903571Y-3035714D01*
X1932143Y-3050000D01*
X1946428Y-3064286D01*
X1960714Y-3092857D01*
X1975000Y-3150000D01*
X1975000Y-3221429D01*
X1960714Y-3278571D01*
X1946428Y-3307143D01*
X1932143Y-3321429D01*
X1903571Y-3335714D01*
X1875000Y-3335714D01*
X1846428Y-3321429D01*
X1832143Y-3307143D01*
X1817857Y-3278571D01*
X1803571Y-3221429D01*
X1803571Y-3150000D01*
X1817857Y-3092857D01*
X1832143Y-3064286D01*
X1846428Y-3050000D01*
X1875000Y-3035714D01*
X2075000Y-3035714D02*
X2275000Y-3035714D01*
X2146428Y-3335714D01*
X2403571Y-3335714D02*
X2460714Y-3335714D01*
X2489286Y-3321429D01*
X2503571Y-3307143D01*
X2532143Y-3264286D01*
X2546428Y-3207143D01*
X2546428Y-3092857D01*
X2532143Y-3064286D01*
X2517857Y-3050000D01*
X2489286Y-3035714D01*
X2432143Y-3035714D01*
X2403571Y-3050000D01*
X2389286Y-3064286D01*
X2375000Y-3092857D01*
X2375000Y-3164286D01*
X2389286Y-3192857D01*
X2403571Y-3207143D01*
X2432143Y-3221429D01*
X2489286Y-3221429D01*
X2517857Y-3207143D01*
X2532143Y-3192857D01*
X2546428Y-3164286D01*
X2660714Y-3035714D02*
X2660714Y-3092857D01*
X2775000Y-3035714D02*
X2775000Y-3092857D01*
X3217857Y-3450000D02*
X3203571Y-3435714D01*
X3175000Y-3392857D01*
X3160714Y-3364286D01*
X3146428Y-3321429D01*
X3132143Y-3250000D01*
X3132143Y-3192857D01*
X3146428Y-3121429D01*
X3160714Y-3078571D01*
X3175000Y-3050000D01*
X3203571Y-3007143D01*
X3217857Y-2992857D01*
X3489286Y-3335714D02*
X3317857Y-3335714D01*
X3403571Y-3335714D02*
X3403571Y-3035714D01*
X3375000Y-3078571D01*
X3346428Y-3107143D01*
X3317857Y-3121429D01*
X3846428Y-3335714D02*
X3846428Y-3035714D01*
X3975000Y-3335714D02*
X3975000Y-3178571D01*
X3960714Y-3150000D01*
X3932143Y-3135714D01*
X3889286Y-3135714D01*
X3860714Y-3150000D01*
X3846428Y-3164286D01*
X4160714Y-3335714D02*
X4132143Y-3321429D01*
X4117857Y-3307143D01*
X4103571Y-3278571D01*
X4103571Y-3192857D01*
X4117857Y-3164286D01*
X4132143Y-3150000D01*
X4160714Y-3135714D01*
X4203571Y-3135714D01*
X4232143Y-3150000D01*
X4246428Y-3164286D01*
X4260714Y-3192857D01*
X4260714Y-3278571D01*
X4246428Y-3307143D01*
X4232143Y-3321429D01*
X4203571Y-3335714D01*
X4160714Y-3335714D01*
X4432143Y-3335714D02*
X4403571Y-3321429D01*
X4389286Y-3292857D01*
X4389286Y-3035714D01*
X4660714Y-3321429D02*
X4632143Y-3335714D01*
X4575000Y-3335714D01*
X4546428Y-3321429D01*
X4532143Y-3292857D01*
X4532143Y-3178571D01*
X4546428Y-3150000D01*
X4575000Y-3135714D01*
X4632143Y-3135714D01*
X4660714Y-3150000D01*
X4675000Y-3178571D01*
X4675000Y-3207143D01*
X4532143Y-3235714D01*
X4775000Y-3450000D02*
X4789286Y-3435714D01*
X4817857Y-3392857D01*
X4832143Y-3364286D01*
X4846428Y-3321429D01*
X4860714Y-3250000D01*
X4860714Y-3192857D01*
X4846428Y-3121429D01*
X4832143Y-3078571D01*
X4817857Y-3050000D01*
X4789286Y-3007143D01*
X4775000Y-2992857D01*
X-2040000Y-3596000D02*
G75*
G03*
X-2040000Y-3596000I-15000J0D01*
G01*
X-1696429Y-3431714D02*
X-1667857Y-3431714D01*
X-1639286Y-3446000D01*
X-1625000Y-3460286D01*
X-1610714Y-3488857D01*
X-1596429Y-3546000D01*
X-1596429Y-3617429D01*
X-1610714Y-3674571D01*
X-1625000Y-3703143D01*
X-1639286Y-3717429D01*
X-1667857Y-3731714D01*
X-1696429Y-3731714D01*
X-1725000Y-3717429D01*
X-1739286Y-3703143D01*
X-1753571Y-3674571D01*
X-1767857Y-3617429D01*
X-1767857Y-3546000D01*
X-1753571Y-3488857D01*
X-1739286Y-3460286D01*
X-1725000Y-3446000D01*
X-1696429Y-3431714D01*
X-1467857Y-3703143D02*
X-1453571Y-3717429D01*
X-1467857Y-3731714D01*
X-1482143Y-3717429D01*
X-1467857Y-3703143D01*
X-1467857Y-3731714D01*
X-1353572Y-3431714D02*
X-1167857Y-3431714D01*
X-1267857Y-3546000D01*
X-1225000Y-3546000D01*
X-1196429Y-3560286D01*
X-1182143Y-3574571D01*
X-1167857Y-3603143D01*
X-1167857Y-3674571D01*
X-1182143Y-3703143D01*
X-1196429Y-3717429D01*
X-1225000Y-3731714D01*
X-1310714Y-3731714D01*
X-1339286Y-3717429D01*
X-1353572Y-3703143D01*
X-982143Y-3431714D02*
X-953571Y-3431714D01*
X-925000Y-3446000D01*
X-910714Y-3460286D01*
X-896429Y-3488857D01*
X-882143Y-3546000D01*
X-882143Y-3617429D01*
X-896429Y-3674571D01*
X-910714Y-3703143D01*
X-925000Y-3717429D01*
X-953571Y-3731714D01*
X-982143Y-3731714D01*
X-1010714Y-3717429D01*
X-1025000Y-3703143D01*
X-1039286Y-3674571D01*
X-1053572Y-3617429D01*
X-1053572Y-3546000D01*
X-1039286Y-3488857D01*
X-1025000Y-3460286D01*
X-1010714Y-3446000D01*
X-982143Y-3431714D01*
X-696429Y-3431714D02*
X-667857Y-3431714D01*
X-639286Y-3446000D01*
X-625000Y-3460286D01*
X-610714Y-3488857D01*
X-596429Y-3546000D01*
X-596429Y-3617429D01*
X-610714Y-3674571D01*
X-625000Y-3703143D01*
X-639286Y-3717429D01*
X-667857Y-3731714D01*
X-696429Y-3731714D01*
X-725000Y-3717429D01*
X-739286Y-3703143D01*
X-753571Y-3674571D01*
X-767857Y-3617429D01*
X-767857Y-3546000D01*
X-753571Y-3488857D01*
X-739286Y-3460286D01*
X-725000Y-3446000D01*
X-696429Y-3431714D01*
X-467857Y-3731714D02*
X-467857Y-3531714D01*
X-467857Y-3560286D02*
X-453571Y-3546000D01*
X-425000Y-3531714D01*
X-382143Y-3531714D01*
X-353571Y-3546000D01*
X-339286Y-3574571D01*
X-339286Y-3731714D01*
X-339286Y-3574571D02*
X-325000Y-3546000D01*
X-296429Y-3531714D01*
X-253571Y-3531714D01*
X-225000Y-3546000D01*
X-210714Y-3574571D01*
X-210714Y-3731714D01*
X-67857Y-3731714D02*
X-67857Y-3531714D01*
X-67857Y-3560286D02*
X-53571Y-3546000D01*
X-25000Y-3531714D01*
X17857Y-3531714D01*
X46428Y-3546000D01*
X60714Y-3574571D01*
X60714Y-3731714D01*
X60714Y-3574571D02*
X75000Y-3546000D01*
X103571Y-3531714D01*
X146428Y-3531714D01*
X175000Y-3546000D01*
X189286Y-3574571D01*
X189286Y-3731714D01*
X775000Y-3417429D02*
X517857Y-3803143D01*
X1160714Y-3431714D02*
X1189286Y-3431714D01*
X1217857Y-3446000D01*
X1232143Y-3460286D01*
X1246428Y-3488857D01*
X1260714Y-3546000D01*
X1260714Y-3617429D01*
X1246428Y-3674571D01*
X1232143Y-3703143D01*
X1217857Y-3717429D01*
X1189286Y-3731714D01*
X1160714Y-3731714D01*
X1132143Y-3717429D01*
X1117857Y-3703143D01*
X1103571Y-3674571D01*
X1089286Y-3617429D01*
X1089286Y-3546000D01*
X1103571Y-3488857D01*
X1117857Y-3460286D01*
X1132143Y-3446000D01*
X1160714Y-3431714D01*
X1389286Y-3703143D02*
X1403571Y-3717429D01*
X1389286Y-3731714D01*
X1375000Y-3717429D01*
X1389286Y-3703143D01*
X1389286Y-3731714D01*
X1589286Y-3431714D02*
X1617857Y-3431714D01*
X1646428Y-3446000D01*
X1660714Y-3460286D01*
X1675000Y-3488857D01*
X1689286Y-3546000D01*
X1689286Y-3617429D01*
X1675000Y-3674571D01*
X1660714Y-3703143D01*
X1646428Y-3717429D01*
X1617857Y-3731714D01*
X1589286Y-3731714D01*
X1560714Y-3717429D01*
X1546428Y-3703143D01*
X1532143Y-3674571D01*
X1517857Y-3617429D01*
X1517857Y-3546000D01*
X1532143Y-3488857D01*
X1546428Y-3460286D01*
X1560714Y-3446000D01*
X1589286Y-3431714D01*
X1975000Y-3731714D02*
X1803571Y-3731714D01*
X1889286Y-3731714D02*
X1889286Y-3431714D01*
X1860714Y-3474571D01*
X1832143Y-3503143D01*
X1803571Y-3517429D01*
X2260714Y-3731714D02*
X2089286Y-3731714D01*
X2175000Y-3731714D02*
X2175000Y-3431714D01*
X2146428Y-3474571D01*
X2117857Y-3503143D01*
X2089286Y-3517429D01*
X2432143Y-3560286D02*
X2403571Y-3546000D01*
X2389286Y-3531714D01*
X2375000Y-3503143D01*
X2375000Y-3488857D01*
X2389286Y-3460286D01*
X2403571Y-3446000D01*
X2432143Y-3431714D01*
X2489286Y-3431714D01*
X2517857Y-3446000D01*
X2532143Y-3460286D01*
X2546428Y-3488857D01*
X2546428Y-3503143D01*
X2532143Y-3531714D01*
X2517857Y-3546000D01*
X2489286Y-3560286D01*
X2432143Y-3560286D01*
X2403571Y-3574571D01*
X2389286Y-3588857D01*
X2375000Y-3617429D01*
X2375000Y-3674571D01*
X2389286Y-3703143D01*
X2403571Y-3717429D01*
X2432143Y-3731714D01*
X2489286Y-3731714D01*
X2517857Y-3717429D01*
X2532143Y-3703143D01*
X2546428Y-3674571D01*
X2546428Y-3617429D01*
X2532143Y-3588857D01*
X2517857Y-3574571D01*
X2489286Y-3560286D01*
X2660714Y-3431714D02*
X2660714Y-3488857D01*
X2775000Y-3431714D02*
X2775000Y-3488857D01*
X3217857Y-3846000D02*
X3203571Y-3831714D01*
X3175000Y-3788857D01*
X3160714Y-3760286D01*
X3146428Y-3717429D01*
X3132143Y-3646000D01*
X3132143Y-3588857D01*
X3146428Y-3517429D01*
X3160714Y-3474571D01*
X3175000Y-3446000D01*
X3203571Y-3403143D01*
X3217857Y-3388857D01*
X3460714Y-3431714D02*
X3403571Y-3431714D01*
X3375000Y-3446000D01*
X3360714Y-3460286D01*
X3332143Y-3503143D01*
X3317857Y-3560286D01*
X3317857Y-3674571D01*
X3332143Y-3703143D01*
X3346428Y-3717429D01*
X3375000Y-3731714D01*
X3432143Y-3731714D01*
X3460714Y-3717429D01*
X3475000Y-3703143D01*
X3489286Y-3674571D01*
X3489286Y-3603143D01*
X3475000Y-3574571D01*
X3460714Y-3560286D01*
X3432143Y-3546000D01*
X3375000Y-3546000D01*
X3346428Y-3560286D01*
X3332143Y-3574571D01*
X3317857Y-3603143D01*
X3775000Y-3731714D02*
X3603571Y-3731714D01*
X3689286Y-3731714D02*
X3689286Y-3431714D01*
X3660714Y-3474571D01*
X3632143Y-3503143D01*
X3603571Y-3517429D01*
X4132143Y-3731714D02*
X4132143Y-3431714D01*
X4260714Y-3731714D02*
X4260714Y-3574571D01*
X4246428Y-3546000D01*
X4217857Y-3531714D01*
X4175000Y-3531714D01*
X4146428Y-3546000D01*
X4132143Y-3560286D01*
X4446428Y-3731714D02*
X4417857Y-3717429D01*
X4403571Y-3703143D01*
X4389286Y-3674571D01*
X4389286Y-3588857D01*
X4403571Y-3560286D01*
X4417857Y-3546000D01*
X4446428Y-3531714D01*
X4489286Y-3531714D01*
X4517857Y-3546000D01*
X4532143Y-3560286D01*
X4546428Y-3588857D01*
X4546428Y-3674571D01*
X4532143Y-3703143D01*
X4517857Y-3717429D01*
X4489286Y-3731714D01*
X4446428Y-3731714D01*
X4717857Y-3731714D02*
X4689286Y-3717429D01*
X4675000Y-3688857D01*
X4675000Y-3431714D01*
X4946428Y-3717429D02*
X4917857Y-3731714D01*
X4860714Y-3731714D01*
X4832143Y-3717429D01*
X4817857Y-3688857D01*
X4817857Y-3574571D01*
X4832143Y-3546000D01*
X4860714Y-3531714D01*
X4917857Y-3531714D01*
X4946428Y-3546000D01*
X4960714Y-3574571D01*
X4960714Y-3603143D01*
X4817857Y-3631714D01*
X5075000Y-3717429D02*
X5103571Y-3731714D01*
X5160714Y-3731714D01*
X5189286Y-3717429D01*
X5203571Y-3688857D01*
X5203571Y-3674571D01*
X5189286Y-3646000D01*
X5160714Y-3631714D01*
X5117857Y-3631714D01*
X5089286Y-3617429D01*
X5075000Y-3588857D01*
X5075000Y-3574571D01*
X5089286Y-3546000D01*
X5117857Y-3531714D01*
X5160714Y-3531714D01*
X5189286Y-3546000D01*
X5303571Y-3846000D02*
X5317857Y-3831714D01*
X5346428Y-3788857D01*
X5360714Y-3760286D01*
X5375000Y-3717429D01*
X5389286Y-3646000D01*
X5389286Y-3588857D01*
X5375000Y-3517429D01*
X5360714Y-3474571D01*
X5346428Y-3446000D01*
X5317857Y-3403143D01*
X5303571Y-3388857D01*
X-2070000Y-3962000D02*
X-2070000Y-4022000D01*
X-2100000Y-3992000D02*
X-2040000Y-3992000D01*
X-1696429Y-3827714D02*
X-1667857Y-3827714D01*
X-1639286Y-3842000D01*
X-1625000Y-3856286D01*
X-1610714Y-3884857D01*
X-1596429Y-3942000D01*
X-1596429Y-4013429D01*
X-1610714Y-4070571D01*
X-1625000Y-4099143D01*
X-1639286Y-4113429D01*
X-1667857Y-4127714D01*
X-1696429Y-4127714D01*
X-1725000Y-4113429D01*
X-1739286Y-4099143D01*
X-1753571Y-4070571D01*
X-1767857Y-4013429D01*
X-1767857Y-3942000D01*
X-1753571Y-3884857D01*
X-1739286Y-3856286D01*
X-1725000Y-3842000D01*
X-1696429Y-3827714D01*
X-1467857Y-4099143D02*
X-1453571Y-4113429D01*
X-1467857Y-4127714D01*
X-1482143Y-4113429D01*
X-1467857Y-4099143D01*
X-1467857Y-4127714D01*
X-1196429Y-3827714D02*
X-1253572Y-3827714D01*
X-1282143Y-3842000D01*
X-1296429Y-3856286D01*
X-1325000Y-3899143D01*
X-1339286Y-3956286D01*
X-1339286Y-4070571D01*
X-1325000Y-4099143D01*
X-1310714Y-4113429D01*
X-1282143Y-4127714D01*
X-1225000Y-4127714D01*
X-1196429Y-4113429D01*
X-1182143Y-4099143D01*
X-1167857Y-4070571D01*
X-1167857Y-3999143D01*
X-1182143Y-3970571D01*
X-1196429Y-3956286D01*
X-1225000Y-3942000D01*
X-1282143Y-3942000D01*
X-1310714Y-3956286D01*
X-1325000Y-3970571D01*
X-1339286Y-3999143D01*
X-982143Y-3827714D02*
X-953571Y-3827714D01*
X-925000Y-3842000D01*
X-910714Y-3856286D01*
X-896429Y-3884857D01*
X-882143Y-3942000D01*
X-882143Y-4013429D01*
X-896429Y-4070571D01*
X-910714Y-4099143D01*
X-925000Y-4113429D01*
X-953571Y-4127714D01*
X-982143Y-4127714D01*
X-1010714Y-4113429D01*
X-1025000Y-4099143D01*
X-1039286Y-4070571D01*
X-1053572Y-4013429D01*
X-1053572Y-3942000D01*
X-1039286Y-3884857D01*
X-1025000Y-3856286D01*
X-1010714Y-3842000D01*
X-982143Y-3827714D01*
X-696429Y-3827714D02*
X-667857Y-3827714D01*
X-639286Y-3842000D01*
X-625000Y-3856286D01*
X-610714Y-3884857D01*
X-596429Y-3942000D01*
X-596429Y-4013429D01*
X-610714Y-4070571D01*
X-625000Y-4099143D01*
X-639286Y-4113429D01*
X-667857Y-4127714D01*
X-696429Y-4127714D01*
X-725000Y-4113429D01*
X-739286Y-4099143D01*
X-753571Y-4070571D01*
X-767857Y-4013429D01*
X-767857Y-3942000D01*
X-753571Y-3884857D01*
X-739286Y-3856286D01*
X-725000Y-3842000D01*
X-696429Y-3827714D01*
X-467857Y-4127714D02*
X-467857Y-3927714D01*
X-467857Y-3956286D02*
X-453571Y-3942000D01*
X-425000Y-3927714D01*
X-382143Y-3927714D01*
X-353571Y-3942000D01*
X-339286Y-3970571D01*
X-339286Y-4127714D01*
X-339286Y-3970571D02*
X-325000Y-3942000D01*
X-296429Y-3927714D01*
X-253571Y-3927714D01*
X-225000Y-3942000D01*
X-210714Y-3970571D01*
X-210714Y-4127714D01*
X-67857Y-4127714D02*
X-67857Y-3927714D01*
X-67857Y-3956286D02*
X-53571Y-3942000D01*
X-25000Y-3927714D01*
X17857Y-3927714D01*
X46428Y-3942000D01*
X60714Y-3970571D01*
X60714Y-4127714D01*
X60714Y-3970571D02*
X75000Y-3942000D01*
X103571Y-3927714D01*
X146428Y-3927714D01*
X175000Y-3942000D01*
X189286Y-3970571D01*
X189286Y-4127714D01*
X775000Y-3813429D02*
X517857Y-4199143D01*
X1160714Y-3827714D02*
X1189286Y-3827714D01*
X1217857Y-3842000D01*
X1232143Y-3856286D01*
X1246428Y-3884857D01*
X1260714Y-3942000D01*
X1260714Y-4013429D01*
X1246428Y-4070571D01*
X1232143Y-4099143D01*
X1217857Y-4113429D01*
X1189286Y-4127714D01*
X1160714Y-4127714D01*
X1132143Y-4113429D01*
X1117857Y-4099143D01*
X1103571Y-4070571D01*
X1089286Y-4013429D01*
X1089286Y-3942000D01*
X1103571Y-3884857D01*
X1117857Y-3856286D01*
X1132143Y-3842000D01*
X1160714Y-3827714D01*
X1389286Y-4099143D02*
X1403571Y-4113429D01*
X1389286Y-4127714D01*
X1375000Y-4113429D01*
X1389286Y-4099143D01*
X1389286Y-4127714D01*
X1589286Y-3827714D02*
X1617857Y-3827714D01*
X1646428Y-3842000D01*
X1660714Y-3856286D01*
X1675000Y-3884857D01*
X1689286Y-3942000D01*
X1689286Y-4013429D01*
X1675000Y-4070571D01*
X1660714Y-4099143D01*
X1646428Y-4113429D01*
X1617857Y-4127714D01*
X1589286Y-4127714D01*
X1560714Y-4113429D01*
X1546428Y-4099143D01*
X1532143Y-4070571D01*
X1517857Y-4013429D01*
X1517857Y-3942000D01*
X1532143Y-3884857D01*
X1546428Y-3856286D01*
X1560714Y-3842000D01*
X1589286Y-3827714D01*
X1803571Y-3856286D02*
X1817857Y-3842000D01*
X1846428Y-3827714D01*
X1917857Y-3827714D01*
X1946428Y-3842000D01*
X1960714Y-3856286D01*
X1975000Y-3884857D01*
X1975000Y-3913429D01*
X1960714Y-3956286D01*
X1789286Y-4127714D01*
X1975000Y-4127714D01*
X2075000Y-3827714D02*
X2260714Y-3827714D01*
X2160714Y-3942000D01*
X2203571Y-3942000D01*
X2232143Y-3956286D01*
X2246428Y-3970571D01*
X2260714Y-3999143D01*
X2260714Y-4070571D01*
X2246428Y-4099143D01*
X2232143Y-4113429D01*
X2203571Y-4127714D01*
X2117857Y-4127714D01*
X2089286Y-4113429D01*
X2075000Y-4099143D01*
X2517857Y-3827714D02*
X2460714Y-3827714D01*
X2432143Y-3842000D01*
X2417857Y-3856286D01*
X2389286Y-3899143D01*
X2375000Y-3956286D01*
X2375000Y-4070571D01*
X2389286Y-4099143D01*
X2403571Y-4113429D01*
X2432143Y-4127714D01*
X2489286Y-4127714D01*
X2517857Y-4113429D01*
X2532143Y-4099143D01*
X2546428Y-4070571D01*
X2546428Y-3999143D01*
X2532143Y-3970571D01*
X2517857Y-3956286D01*
X2489286Y-3942000D01*
X2432143Y-3942000D01*
X2403571Y-3956286D01*
X2389286Y-3970571D01*
X2375000Y-3999143D01*
X2660714Y-3827714D02*
X2660714Y-3884857D01*
X2775000Y-3827714D02*
X2775000Y-3884857D01*
X3217857Y-4242000D02*
X3203571Y-4227714D01*
X3175000Y-4184857D01*
X3160714Y-4156286D01*
X3146428Y-4113429D01*
X3132143Y-4042000D01*
X3132143Y-3984857D01*
X3146428Y-3913429D01*
X3160714Y-3870571D01*
X3175000Y-3842000D01*
X3203571Y-3799143D01*
X3217857Y-3784857D01*
X3389286Y-3827714D02*
X3417857Y-3827714D01*
X3446428Y-3842000D01*
X3460714Y-3856286D01*
X3475000Y-3884857D01*
X3489286Y-3942000D01*
X3489286Y-4013429D01*
X3475000Y-4070571D01*
X3460714Y-4099143D01*
X3446428Y-4113429D01*
X3417857Y-4127714D01*
X3389286Y-4127714D01*
X3360714Y-4113429D01*
X3346428Y-4099143D01*
X3332143Y-4070571D01*
X3317857Y-4013429D01*
X3317857Y-3942000D01*
X3332143Y-3884857D01*
X3346428Y-3856286D01*
X3360714Y-3842000D01*
X3389286Y-3827714D01*
X3846428Y-4127714D02*
X3846428Y-3827714D01*
X3975000Y-4127714D02*
X3975000Y-3970571D01*
X3960714Y-3942000D01*
X3932143Y-3927714D01*
X3889286Y-3927714D01*
X3860714Y-3942000D01*
X3846428Y-3956286D01*
X4160714Y-4127714D02*
X4132143Y-4113429D01*
X4117857Y-4099143D01*
X4103571Y-4070571D01*
X4103571Y-3984857D01*
X4117857Y-3956286D01*
X4132143Y-3942000D01*
X4160714Y-3927714D01*
X4203571Y-3927714D01*
X4232143Y-3942000D01*
X4246428Y-3956286D01*
X4260714Y-3984857D01*
X4260714Y-4070571D01*
X4246428Y-4099143D01*
X4232143Y-4113429D01*
X4203571Y-4127714D01*
X4160714Y-4127714D01*
X4432143Y-4127714D02*
X4403571Y-4113429D01*
X4389286Y-4084857D01*
X4389286Y-3827714D01*
X4660714Y-4113429D02*
X4632143Y-4127714D01*
X4575000Y-4127714D01*
X4546428Y-4113429D01*
X4532143Y-4084857D01*
X4532143Y-3970571D01*
X4546428Y-3942000D01*
X4575000Y-3927714D01*
X4632143Y-3927714D01*
X4660714Y-3942000D01*
X4675000Y-3970571D01*
X4675000Y-3999143D01*
X4532143Y-4027714D01*
X4789286Y-4113429D02*
X4817857Y-4127714D01*
X4875000Y-4127714D01*
X4903571Y-4113429D01*
X4917857Y-4084857D01*
X4917857Y-4070571D01*
X4903571Y-4042000D01*
X4875000Y-4027714D01*
X4832143Y-4027714D01*
X4803571Y-4013429D01*
X4789286Y-3984857D01*
X4789286Y-3970571D01*
X4803571Y-3942000D01*
X4832143Y-3927714D01*
X4875000Y-3927714D01*
X4903571Y-3942000D01*
X5275000Y-4013429D02*
X5503571Y-4013429D01*
X5389286Y-4127714D02*
X5389286Y-3899143D01*
X6032143Y-4127714D02*
X5860714Y-4127714D01*
X5946428Y-4127714D02*
X5946428Y-3827714D01*
X5917857Y-3870571D01*
X5889286Y-3899143D01*
X5860714Y-3913429D01*
X6146428Y-3856286D02*
X6160714Y-3842000D01*
X6189286Y-3827714D01*
X6260714Y-3827714D01*
X6289286Y-3842000D01*
X6303571Y-3856286D01*
X6317857Y-3884857D01*
X6317857Y-3913429D01*
X6303571Y-3956286D01*
X6132143Y-4127714D01*
X6317857Y-4127714D01*
X6660714Y-4113429D02*
X6689286Y-4127714D01*
X6746428Y-4127714D01*
X6775000Y-4113429D01*
X6789286Y-4084857D01*
X6789286Y-4070571D01*
X6775000Y-4042000D01*
X6746428Y-4027714D01*
X6703571Y-4027714D01*
X6675000Y-4013429D01*
X6660714Y-3984857D01*
X6660714Y-3970571D01*
X6675000Y-3942000D01*
X6703571Y-3927714D01*
X6746428Y-3927714D01*
X6775000Y-3942000D01*
X6960714Y-4127714D02*
X6932143Y-4113429D01*
X6917857Y-4084857D01*
X6917857Y-3827714D01*
X7117857Y-4127714D02*
X7089286Y-4113429D01*
X7075000Y-4099143D01*
X7060714Y-4070571D01*
X7060714Y-3984857D01*
X7075000Y-3956286D01*
X7089286Y-3942000D01*
X7117857Y-3927714D01*
X7160714Y-3927714D01*
X7189286Y-3942000D01*
X7203571Y-3956286D01*
X7217857Y-3984857D01*
X7217857Y-4070571D01*
X7203571Y-4099143D01*
X7189286Y-4113429D01*
X7160714Y-4127714D01*
X7117857Y-4127714D01*
X7303571Y-3927714D02*
X7417857Y-3927714D01*
X7346428Y-3827714D02*
X7346428Y-4084857D01*
X7360714Y-4113429D01*
X7389286Y-4127714D01*
X7417857Y-4127714D01*
X7503571Y-4113429D02*
X7532143Y-4127714D01*
X7589286Y-4127714D01*
X7617857Y-4113429D01*
X7632143Y-4084857D01*
X7632143Y-4070571D01*
X7617857Y-4042000D01*
X7589286Y-4027714D01*
X7546428Y-4027714D01*
X7517857Y-4013429D01*
X7503571Y-3984857D01*
X7503571Y-3970571D01*
X7517857Y-3942000D01*
X7546428Y-3927714D01*
X7589286Y-3927714D01*
X7617857Y-3942000D01*
X7732143Y-4242000D02*
X7746428Y-4227714D01*
X7775000Y-4184857D01*
X7789286Y-4156286D01*
X7803571Y-4113429D01*
X7817857Y-4042000D01*
X7817857Y-3984857D01*
X7803571Y-3913429D01*
X7789286Y-3870571D01*
X7775000Y-3842000D01*
X7746428Y-3799143D01*
X7732143Y-3784857D01*
M02*
