G04 #@! TF.GenerationSoftware,KiCad,Pcbnew,(5.1.10-1-10_14)*
G04 #@! TF.CreationDate,2021-07-26T19:28:28-07:00*
G04 #@! TF.ProjectId,Synapse,53796e61-7073-4652-9e6b-696361645f70,1*
G04 #@! TF.SameCoordinates,Original*
G04 #@! TF.FileFunction,Legend,Bot*
G04 #@! TF.FilePolarity,Positive*
%FSLAX46Y46*%
G04 Gerber Fmt 4.6, Leading zero omitted, Abs format (unit mm)*
G04 Created by KiCad (PCBNEW (5.1.10-1-10_14)) date 2021-07-26 19:28:28*
%MOMM*%
%LPD*%
G01*
G04 APERTURE LIST*
%ADD10C,0.153000*%
%ADD11C,0.120000*%
%ADD12C,1.500000*%
%ADD13C,0.650000*%
%ADD14O,1.000000X2.100000*%
%ADD15O,1.000000X1.600000*%
G04 APERTURE END LIST*
D10*
X3695238Y8314595D02*
X3695238Y9114595D01*
X3504761Y9114595D01*
X3390476Y9076500D01*
X3314285Y9000309D01*
X3276190Y8924119D01*
X3238095Y8771738D01*
X3238095Y8657452D01*
X3276190Y8505071D01*
X3314285Y8428880D01*
X3390476Y8352690D01*
X3504761Y8314595D01*
X3695238Y8314595D01*
X2971428Y8847928D02*
X2780952Y8314595D01*
X2590476Y8847928D02*
X2780952Y8314595D01*
X2857142Y8124119D01*
X2895238Y8086023D01*
X2971428Y8047928D01*
X1942857Y8847928D02*
X1942857Y8200309D01*
X1980952Y8124119D01*
X2019047Y8086023D01*
X2095238Y8047928D01*
X2209523Y8047928D01*
X2285714Y8086023D01*
X1942857Y8352690D02*
X2019047Y8314595D01*
X2171428Y8314595D01*
X2247619Y8352690D01*
X2285714Y8390785D01*
X2323809Y8466976D01*
X2323809Y8695547D01*
X2285714Y8771738D01*
X2247619Y8809833D01*
X2171428Y8847928D01*
X2019047Y8847928D01*
X1942857Y8809833D01*
X1561904Y8314595D02*
X1561904Y8847928D01*
X1561904Y8771738D02*
X1523809Y8809833D01*
X1447619Y8847928D01*
X1333333Y8847928D01*
X1257142Y8809833D01*
X1219047Y8733642D01*
X1219047Y8314595D01*
X1219047Y8733642D02*
X1180952Y8809833D01*
X1104761Y8847928D01*
X990476Y8847928D01*
X914285Y8809833D01*
X876190Y8733642D01*
X876190Y8314595D01*
X152380Y8314595D02*
X152380Y8733642D01*
X190476Y8809833D01*
X266666Y8847928D01*
X419047Y8847928D01*
X495238Y8809833D01*
X152380Y8352690D02*
X228571Y8314595D01*
X419047Y8314595D01*
X495238Y8352690D01*
X533333Y8428880D01*
X533333Y8505071D01*
X495238Y8581261D01*
X419047Y8619357D01*
X228571Y8619357D01*
X152380Y8657452D01*
X-1295238Y8314595D02*
X-1028571Y8695547D01*
X-838095Y8314595D02*
X-838095Y9114595D01*
X-1142857Y9114595D01*
X-1219047Y9076500D01*
X-1257142Y9038404D01*
X-1295238Y8962214D01*
X-1295238Y8847928D01*
X-1257142Y8771738D01*
X-1219047Y8733642D01*
X-1142857Y8695547D01*
X-838095Y8695547D01*
X-1980952Y8314595D02*
X-1980952Y8733642D01*
X-1942857Y8809833D01*
X-1866666Y8847928D01*
X-1714285Y8847928D01*
X-1638095Y8809833D01*
X-1980952Y8352690D02*
X-1904761Y8314595D01*
X-1714285Y8314595D01*
X-1638095Y8352690D01*
X-1599999Y8428880D01*
X-1599999Y8505071D01*
X-1638095Y8581261D01*
X-1714285Y8619357D01*
X-1904761Y8619357D01*
X-1980952Y8657452D01*
X-2361904Y8314595D02*
X-2361904Y8847928D01*
X-2361904Y9114595D02*
X-2323809Y9076500D01*
X-2361904Y9038404D01*
X-2399999Y9076500D01*
X-2361904Y9114595D01*
X-2361904Y9038404D01*
X-2704761Y8352690D02*
X-2780952Y8314595D01*
X-2933333Y8314595D01*
X-3009523Y8352690D01*
X-3047619Y8428880D01*
X-3047619Y8466976D01*
X-3009523Y8543166D01*
X-2933333Y8581261D01*
X-2819047Y8581261D01*
X-2742857Y8619357D01*
X-2704761Y8695547D01*
X-2704761Y8733642D01*
X-2742857Y8809833D01*
X-2819047Y8847928D01*
X-2933333Y8847928D01*
X-3009523Y8809833D01*
X-3695238Y8352690D02*
X-3619047Y8314595D01*
X-3466666Y8314595D01*
X-3390476Y8352690D01*
X-3352380Y8428880D01*
X-3352380Y8733642D01*
X-3390476Y8809833D01*
X-3466666Y8847928D01*
X-3619047Y8847928D01*
X-3695238Y8809833D01*
X-3733333Y8733642D01*
X-3733333Y8657452D01*
X-3352380Y8581261D01*
X3885714Y6999690D02*
X3771428Y6961595D01*
X3580952Y6961595D01*
X3504761Y6999690D01*
X3466666Y7037785D01*
X3428571Y7113976D01*
X3428571Y7190166D01*
X3466666Y7266357D01*
X3504761Y7304452D01*
X3580952Y7342547D01*
X3733333Y7380642D01*
X3809523Y7418738D01*
X3847619Y7456833D01*
X3885714Y7533023D01*
X3885714Y7609214D01*
X3847619Y7685404D01*
X3809523Y7723500D01*
X3733333Y7761595D01*
X3542857Y7761595D01*
X3428571Y7723500D01*
X3161904Y7494928D02*
X2971428Y6961595D01*
X2780952Y7494928D02*
X2971428Y6961595D01*
X3047619Y6771119D01*
X3085714Y6733023D01*
X3161904Y6694928D01*
X2476190Y7494928D02*
X2476190Y6961595D01*
X2476190Y7418738D02*
X2438095Y7456833D01*
X2361904Y7494928D01*
X2247619Y7494928D01*
X2171428Y7456833D01*
X2133333Y7380642D01*
X2133333Y6961595D01*
X1409523Y6961595D02*
X1409523Y7380642D01*
X1447619Y7456833D01*
X1523809Y7494928D01*
X1676190Y7494928D01*
X1752380Y7456833D01*
X1409523Y6999690D02*
X1485714Y6961595D01*
X1676190Y6961595D01*
X1752380Y6999690D01*
X1790476Y7075880D01*
X1790476Y7152071D01*
X1752380Y7228261D01*
X1676190Y7266357D01*
X1485714Y7266357D01*
X1409523Y7304452D01*
X1028571Y7494928D02*
X1028571Y6694928D01*
X1028571Y7456833D02*
X952380Y7494928D01*
X799999Y7494928D01*
X723809Y7456833D01*
X685714Y7418738D01*
X647619Y7342547D01*
X647619Y7113976D01*
X685714Y7037785D01*
X723809Y6999690D01*
X799999Y6961595D01*
X952380Y6961595D01*
X1028571Y6999690D01*
X342857Y6999690D02*
X266666Y6961595D01*
X114285Y6961595D01*
X38095Y6999690D01*
X0Y7075880D01*
X0Y7113976D01*
X38095Y7190166D01*
X114285Y7228261D01*
X228571Y7228261D01*
X304761Y7266357D01*
X342857Y7342547D01*
X342857Y7380642D01*
X304761Y7456833D01*
X228571Y7494928D01*
X114285Y7494928D01*
X38095Y7456833D01*
X-647619Y6999690D02*
X-571428Y6961595D01*
X-419047Y6961595D01*
X-342857Y6999690D01*
X-304761Y7075880D01*
X-304761Y7380642D01*
X-342857Y7456833D01*
X-419047Y7494928D01*
X-571428Y7494928D01*
X-647619Y7456833D01*
X-685714Y7380642D01*
X-685714Y7304452D01*
X-304761Y7228261D01*
X-1523809Y7761595D02*
X-1790476Y6961595D01*
X-2057142Y7761595D01*
X-2285714Y7685404D02*
X-2323809Y7723500D01*
X-2399999Y7761595D01*
X-2590476Y7761595D01*
X-2666666Y7723500D01*
X-2704761Y7685404D01*
X-2742857Y7609214D01*
X-2742857Y7533023D01*
X-2704761Y7418738D01*
X-2247619Y6961595D01*
X-2742857Y6961595D01*
X-3085714Y7037785D02*
X-3123809Y6999690D01*
X-3085714Y6961595D01*
X-3047619Y6999690D01*
X-3085714Y7037785D01*
X-3085714Y6961595D01*
X-3619047Y7761595D02*
X-3695238Y7761595D01*
X-3771428Y7723500D01*
X-3809523Y7685404D01*
X-3847619Y7609214D01*
X-3885714Y7456833D01*
X-3885714Y7266357D01*
X-3847619Y7113976D01*
X-3809523Y7037785D01*
X-3771428Y6999690D01*
X-3695238Y6961595D01*
X-3619047Y6961595D01*
X-3542857Y6999690D01*
X-3504761Y7037785D01*
X-3466666Y7113976D01*
X-3428571Y7266357D01*
X-3428571Y7456833D01*
X-3466666Y7609214D01*
X-3504761Y7685404D01*
X-3542857Y7723500D01*
X-3619047Y7761595D01*
X2241428Y-15419809D02*
X2127142Y-15457904D01*
X1936666Y-15457904D01*
X1860476Y-15419809D01*
X1822380Y-15381714D01*
X1784285Y-15305523D01*
X1784285Y-15229333D01*
X1822380Y-15153142D01*
X1860476Y-15115047D01*
X1936666Y-15076952D01*
X2089047Y-15038857D01*
X2165238Y-15000761D01*
X2203333Y-14962666D01*
X2241428Y-14886476D01*
X2241428Y-14810285D01*
X2203333Y-14734095D01*
X2165238Y-14696000D01*
X2089047Y-14657904D01*
X1898571Y-14657904D01*
X1784285Y-14696000D01*
X1441428Y-15457904D02*
X1441428Y-14657904D01*
X1250952Y-14657904D01*
X1136666Y-14696000D01*
X1060476Y-14772190D01*
X1022380Y-14848380D01*
X984285Y-15000761D01*
X984285Y-15115047D01*
X1022380Y-15267428D01*
X1060476Y-15343619D01*
X1136666Y-15419809D01*
X1250952Y-15457904D01*
X1441428Y-15457904D01*
X679523Y-15229333D02*
X298571Y-15229333D01*
X755714Y-15457904D02*
X489047Y-14657904D01*
X222380Y-15457904D01*
X-317619Y-15419809D02*
X-431904Y-15457904D01*
X-622380Y-15457904D01*
X-698571Y-15419809D01*
X-736666Y-15381714D01*
X-774761Y-15305523D01*
X-774761Y-15229333D01*
X-736666Y-15153142D01*
X-698571Y-15115047D01*
X-622380Y-15076952D01*
X-470000Y-15038857D01*
X-393809Y-15000761D01*
X-355714Y-14962666D01*
X-317619Y-14886476D01*
X-317619Y-14810285D01*
X-355714Y-14734095D01*
X-393809Y-14696000D01*
X-470000Y-14657904D01*
X-660476Y-14657904D01*
X-774761Y-14696000D01*
X-1574761Y-15381714D02*
X-1536666Y-15419809D01*
X-1422380Y-15457904D01*
X-1346190Y-15457904D01*
X-1231904Y-15419809D01*
X-1155714Y-15343619D01*
X-1117619Y-15267428D01*
X-1079523Y-15115047D01*
X-1079523Y-15000761D01*
X-1117619Y-14848380D01*
X-1155714Y-14772190D01*
X-1231904Y-14696000D01*
X-1346190Y-14657904D01*
X-1422380Y-14657904D01*
X-1536666Y-14696000D01*
X-1574761Y-14734095D01*
X-2298571Y-15457904D02*
X-1917619Y-15457904D01*
X-1917619Y-14657904D01*
X-3200476Y-14696000D02*
X-3124285Y-14657904D01*
X-3010000Y-14657904D01*
X-2895714Y-14696000D01*
X-2819523Y-14772190D01*
X-2781428Y-14848380D01*
X-2743333Y-15000761D01*
X-2743333Y-15115047D01*
X-2781428Y-15267428D01*
X-2819523Y-15343619D01*
X-2895714Y-15419809D01*
X-3010000Y-15457904D01*
X-3086190Y-15457904D01*
X-3200476Y-15419809D01*
X-3238571Y-15381714D01*
X-3238571Y-15115047D01*
X-3086190Y-15115047D01*
X-3581428Y-15457904D02*
X-3581428Y-14657904D01*
X-4038571Y-15457904D01*
X-4038571Y-14657904D01*
X-4419523Y-15457904D02*
X-4419523Y-14657904D01*
X-4610000Y-14657904D01*
X-4724285Y-14696000D01*
X-4800476Y-14772190D01*
X-4838571Y-14848380D01*
X-4876666Y-15000761D01*
X-4876666Y-15115047D01*
X-4838571Y-15267428D01*
X-4800476Y-15343619D01*
X-4724285Y-15419809D01*
X-4610000Y-15457904D01*
X-4419523Y-15457904D01*
X3952380Y-14657904D02*
X4333333Y-14657904D01*
X4371428Y-15038857D01*
X4333333Y-15000761D01*
X4257142Y-14962666D01*
X4066666Y-14962666D01*
X3990476Y-15000761D01*
X3952380Y-15038857D01*
X3914285Y-15115047D01*
X3914285Y-15305523D01*
X3952380Y-15381714D01*
X3990476Y-15419809D01*
X4066666Y-15457904D01*
X4257142Y-15457904D01*
X4333333Y-15419809D01*
X4371428Y-15381714D01*
X3685714Y-14657904D02*
X3419047Y-15457904D01*
X3152380Y-14657904D01*
X-3200476Y-8600000D02*
X-3124285Y-8561904D01*
X-3010000Y-8561904D01*
X-2895714Y-8600000D01*
X-2819523Y-8676190D01*
X-2781428Y-8752380D01*
X-2743333Y-8904761D01*
X-2743333Y-9019047D01*
X-2781428Y-9171428D01*
X-2819523Y-9247619D01*
X-2895714Y-9323809D01*
X-3010000Y-9361904D01*
X-3086190Y-9361904D01*
X-3200476Y-9323809D01*
X-3238571Y-9285714D01*
X-3238571Y-9019047D01*
X-3086190Y-9019047D01*
X-3581428Y-9361904D02*
X-3581428Y-8561904D01*
X-4038571Y-9361904D01*
X-4038571Y-8561904D01*
X-4419523Y-9361904D02*
X-4419523Y-8561904D01*
X-4610000Y-8561904D01*
X-4724285Y-8600000D01*
X-4800476Y-8676190D01*
X-4838571Y-8752380D01*
X-4876666Y-8904761D01*
X-4876666Y-9019047D01*
X-4838571Y-9171428D01*
X-4800476Y-9247619D01*
X-4724285Y-9323809D01*
X-4610000Y-9361904D01*
X-4419523Y-9361904D01*
X-793809Y-9285714D02*
X-755714Y-9323809D01*
X-641428Y-9361904D01*
X-565238Y-9361904D01*
X-450952Y-9323809D01*
X-374761Y-9247619D01*
X-336666Y-9171428D01*
X-298571Y-9019047D01*
X-298571Y-8904761D01*
X-336666Y-8752380D01*
X-374761Y-8676190D01*
X-450952Y-8600000D01*
X-565238Y-8561904D01*
X-641428Y-8561904D01*
X-755714Y-8600000D01*
X-793809Y-8638095D01*
X-1517619Y-9361904D02*
X-1136666Y-9361904D01*
X-1136666Y-8561904D01*
X-1784285Y-9361904D02*
X-1784285Y-8561904D01*
X-2241428Y-9361904D02*
X-1898571Y-8904761D01*
X-2241428Y-8561904D02*
X-1784285Y-9019047D01*
X2089047Y-9361904D02*
X2089047Y-8561904D01*
X1898571Y-8561904D01*
X1784285Y-8600000D01*
X1708095Y-8676190D01*
X1670000Y-8752380D01*
X1631904Y-8904761D01*
X1631904Y-9019047D01*
X1670000Y-9171428D01*
X1708095Y-9247619D01*
X1784285Y-9323809D01*
X1898571Y-9361904D01*
X2089047Y-9361904D01*
X1289047Y-9361904D02*
X1289047Y-8561904D01*
X755714Y-8561904D02*
X603333Y-8561904D01*
X527142Y-8600000D01*
X450952Y-8676190D01*
X412857Y-8828571D01*
X412857Y-9095238D01*
X450952Y-9247619D01*
X527142Y-9323809D01*
X603333Y-9361904D01*
X755714Y-9361904D01*
X831904Y-9323809D01*
X908095Y-9247619D01*
X946190Y-9095238D01*
X946190Y-8828571D01*
X908095Y-8676190D01*
X831904Y-8600000D01*
X755714Y-8561904D01*
X4790476Y-8561904D02*
X4295238Y-8561904D01*
X4561904Y-8866666D01*
X4447619Y-8866666D01*
X4371428Y-8904761D01*
X4333333Y-8942857D01*
X4295238Y-9019047D01*
X4295238Y-9209523D01*
X4333333Y-9285714D01*
X4371428Y-9323809D01*
X4447619Y-9361904D01*
X4676190Y-9361904D01*
X4752380Y-9323809D01*
X4790476Y-9285714D01*
X4066666Y-8561904D02*
X3800000Y-9361904D01*
X3533333Y-8561904D01*
X3342857Y-8561904D02*
X2847619Y-8561904D01*
X3114285Y-8866666D01*
X3000000Y-8866666D01*
X2923809Y-8904761D01*
X2885714Y-8942857D01*
X2847619Y-9019047D01*
X2847619Y-9209523D01*
X2885714Y-9285714D01*
X2923809Y-9323809D01*
X3000000Y-9361904D01*
X3228571Y-9361904D01*
X3304761Y-9323809D01*
X3342857Y-9285714D01*
D11*
X-2860000Y-13240000D02*
G75*
G03*
X-2860000Y-13240000I-950000J0D01*
G01*
X-320000Y-13240000D02*
G75*
G03*
X-320000Y-13240000I-950000J0D01*
G01*
X2220000Y-13240000D02*
G75*
G03*
X2220000Y-13240000I-950000J0D01*
G01*
X4760000Y-13240000D02*
G75*
G03*
X4760000Y-13240000I-950000J0D01*
G01*
X-2860000Y-10700000D02*
G75*
G03*
X-2860000Y-10700000I-950000J0D01*
G01*
X-320000Y-10700000D02*
G75*
G03*
X-320000Y-10700000I-950000J0D01*
G01*
X2220000Y-10700000D02*
G75*
G03*
X2220000Y-10700000I-950000J0D01*
G01*
X4760000Y-10700000D02*
G75*
G03*
X4760000Y-10700000I-950000J0D01*
G01*
%LPC*%
D12*
X3810000Y-13240000D03*
X1270000Y-13240000D03*
X-1270000Y-13240000D03*
X-3810000Y-13240000D03*
G36*
G01*
X12936813Y-9534516D02*
X12158995Y-8756698D01*
G75*
G02*
X12158995Y-8049592I353553J353553D01*
G01*
X12158995Y-8049592D01*
G75*
G02*
X12866101Y-8049592I353553J-353553D01*
G01*
X13643919Y-8827410D01*
G75*
G02*
X13643919Y-9534516I-353553J-353553D01*
G01*
X13643919Y-9534516D01*
G75*
G02*
X12936813Y-9534516I-353553J353553D01*
G01*
G37*
G36*
G01*
X6827410Y-15643919D02*
X6049592Y-14866101D01*
G75*
G02*
X6049592Y-14158995I353553J353553D01*
G01*
X6049592Y-14158995D01*
G75*
G02*
X6756698Y-14158995I353553J-353553D01*
G01*
X7534516Y-14936813D01*
G75*
G02*
X7534516Y-15643919I-353553J-353553D01*
G01*
X7534516Y-15643919D01*
G75*
G02*
X6827410Y-15643919I-353553J353553D01*
G01*
G37*
D13*
X8177984Y-14265061D03*
G36*
G01*
X9606340Y-18422848D02*
X9182076Y-17998584D01*
G75*
G02*
X9182076Y-17291478I353553J353553D01*
G01*
X9182076Y-17291478D01*
G75*
G02*
X9889182Y-17291478I353553J-353553D01*
G01*
X10313446Y-17715742D01*
G75*
G02*
X10313446Y-18422848I-353553J-353553D01*
G01*
X10313446Y-18422848D01*
G75*
G02*
X9606340Y-18422848I-353553J353553D01*
G01*
G37*
X12265061Y-10177984D03*
G36*
G01*
X15715742Y-12313446D02*
X15291478Y-11889182D01*
G75*
G02*
X15291478Y-11182076I353553J353553D01*
G01*
X15291478Y-11182076D01*
G75*
G02*
X15998584Y-11182076I353553J-353553D01*
G01*
X16422848Y-11606340D01*
G75*
G02*
X16422848Y-12313446I-353553J-353553D01*
G01*
X16422848Y-12313446D01*
G75*
G02*
X15715742Y-12313446I-353553J353553D01*
G01*
G37*
G36*
G01*
X-7534516Y-14936813D02*
X-6756698Y-14158995D01*
G75*
G02*
X-6049592Y-14158995I353553J-353553D01*
G01*
X-6049592Y-14158995D01*
G75*
G02*
X-6049592Y-14866101I-353553J-353553D01*
G01*
X-6827410Y-15643919D01*
G75*
G02*
X-7534516Y-15643919I-353553J353553D01*
G01*
X-7534516Y-15643919D01*
G75*
G02*
X-7534516Y-14936813I353553J353553D01*
G01*
G37*
G36*
G01*
X-13643919Y-8827410D02*
X-12866101Y-8049592D01*
G75*
G02*
X-12158995Y-8049592I353553J-353553D01*
G01*
X-12158995Y-8049592D01*
G75*
G02*
X-12158995Y-8756698I-353553J-353553D01*
G01*
X-12936813Y-9534516D01*
G75*
G02*
X-13643919Y-9534516I-353553J353553D01*
G01*
X-13643919Y-9534516D01*
G75*
G02*
X-13643919Y-8827410I353553J353553D01*
G01*
G37*
X-12265061Y-10177984D03*
G36*
G01*
X-16422848Y-11606340D02*
X-15998584Y-11182076D01*
G75*
G02*
X-15291478Y-11182076I353553J-353553D01*
G01*
X-15291478Y-11182076D01*
G75*
G02*
X-15291478Y-11889182I-353553J-353553D01*
G01*
X-15715742Y-12313446D01*
G75*
G02*
X-16422848Y-12313446I-353553J353553D01*
G01*
X-16422848Y-12313446D01*
G75*
G02*
X-16422848Y-11606340I353553J353553D01*
G01*
G37*
X-8177984Y-14265061D03*
G36*
G01*
X-10313446Y-17715742D02*
X-9889182Y-17291478D01*
G75*
G02*
X-9182076Y-17291478I353553J-353553D01*
G01*
X-9182076Y-17291478D01*
G75*
G02*
X-9182076Y-17998584I-353553J-353553D01*
G01*
X-9606340Y-18422848D01*
G75*
G02*
X-10313446Y-18422848I-353553J353553D01*
G01*
X-10313446Y-18422848D01*
G75*
G02*
X-10313446Y-17715742I353553J353553D01*
G01*
G37*
D14*
X-4320000Y12870000D03*
X4320000Y12870000D03*
D13*
X2890000Y13400000D03*
D15*
X4320000Y17050000D03*
D13*
X-2890000Y13400000D03*
D15*
X-4320000Y17050000D03*
D12*
X3810000Y-10700000D03*
X1270000Y-10700000D03*
X-1270000Y-10700000D03*
X-3810000Y-10700000D03*
M02*
