M48
; DRILL file {KiCad (5.1.10-1-10_14)} date Sunday, August 15, 2021 at 09:52:48 AM
; FORMAT={-:-/ absolute / metric / decimal}
; #@! TF.CreationDate,2021-08-15T09:52:48-07:00
; #@! TF.GenerationSoftware,Kicad,Pcbnew,(5.1.10-1-10_14)
; #@! TF.FileFunction,Plated,1,4,PTH
FMAT,2
METRIC
T1C0.300
T2C0.400
T3C0.600
%
G90
G05
T1
X-12.2Y-12.2
X-12.155Y-13.43
X-11.3Y-14.25
X-11.189Y-13.221
X-11.1Y-4.7
X-9.299Y-9.3
X-8.7Y-6.0
X-8.672Y-10.754
X-8.425Y-8.673
X-7.627Y-2.364
X-6.757Y3.057
X-6.5Y1.793
X-6.4Y4.3
X-5.6Y-1.5
X-5.6Y-3.4
X-4.75Y4.8
X-4.7Y-11.3
X-4.675Y1.65
X-4.0Y6.6
X-3.52Y9.72
X-2.837Y-6.55
X-2.4Y-8.6
X-2.4Y-10.2
X-2.15Y7.62
X-1.6Y6.9
X-1.55Y10.7
X-1.4Y-3.2
X-0.006Y-3.7
X0.75Y-0.5
X1.45Y9.72
X1.5Y-6.5
X1.55Y10.685
X2.3Y-11.7
X4.787Y-2.345
X5.32Y1.22
X5.5Y6.825
X5.7Y-5.3
X6.27Y4.77
X7.1Y-5.4
X7.2Y3.5
X7.3Y2.5
X7.38Y-2.08
X7.55Y-1.05
X10.85Y-13.75
X11.807Y-13.757
X11.822Y-12.592
X12.6Y-12.55
T2
X-12.25Y-7.35
X-10.722Y-8.878
X-9.4Y-4.4
X-8.7Y-3.3
X-7.25Y-11.25
X-5.577Y-7.2
X-5.5Y-12.75
X-4.0Y11.5
X-2.0Y4.0
X-2.0Y2.0
X-2.0Y0.0
X0.0Y4.0
X0.0Y2.0
X0.0Y0.0
X2.0Y4.0
X2.0Y2.0
X2.0Y0.0
X4.0Y11.5
X6.0Y-12.8
X7.0Y-12.0
X10.5Y-8.6
X11.6Y-7.7
T3
X-16.685Y-12.196G85X-17.109Y-12.62
G05
X-13.553Y-9.063G85X-14.33Y-9.841
G05
X-10.576Y-18.305G85X-11.0Y-18.729
G05
X-7.443Y-15.173G85X-8.221Y-15.95
G05
X-4.32Y17.62G85X-4.32Y18.22
G05
X-4.32Y13.19G85X-4.32Y14.29
G05
X4.32Y17.62G85X4.32Y18.22
G05
X4.32Y13.19G85X4.32Y14.29
G05
X7.443Y-15.173G85X8.221Y-15.95
G05
X10.576Y-18.305G85X11.0Y-18.729
G05
X13.553Y-9.063G85X14.33Y-9.841
G05
X16.685Y-12.196G85X17.109Y-12.62
G05
T0
M30
