G04 #@! TF.GenerationSoftware,KiCad,Pcbnew,(5.1.10-1-10_14)*
G04 #@! TF.CreationDate,2021-07-26T11:30:22-07:00*
G04 #@! TF.ProjectId,Synapse,53796e61-7073-4652-9e6b-696361645f70,1*
G04 #@! TF.SameCoordinates,Original*
G04 #@! TF.FileFunction,Copper,L3,Inr*
G04 #@! TF.FilePolarity,Positive*
%FSLAX46Y46*%
G04 Gerber Fmt 4.6, Leading zero omitted, Abs format (unit mm)*
G04 Created by KiCad (PCBNEW (5.1.10-1-10_14)) date 2021-07-26 11:30:22*
%MOMM*%
%LPD*%
G01*
G04 APERTURE LIST*
G04 #@! TA.AperFunction,ComponentPad*
%ADD10O,1.000000X2.100000*%
G04 #@! TD*
G04 #@! TA.AperFunction,ComponentPad*
%ADD11O,1.000000X1.600000*%
G04 #@! TD*
G04 #@! TA.AperFunction,ViaPad*
%ADD12C,0.400000*%
G04 #@! TD*
G04 #@! TA.AperFunction,ViaPad*
%ADD13C,0.900000*%
G04 #@! TD*
G04 #@! TA.AperFunction,ViaPad*
%ADD14C,0.600000*%
G04 #@! TD*
G04 #@! TA.AperFunction,Conductor*
%ADD15C,0.254000*%
G04 #@! TD*
G04 #@! TA.AperFunction,Conductor*
%ADD16C,0.152400*%
G04 #@! TD*
G04 APERTURE END LIST*
G04 #@! TA.AperFunction,ComponentPad*
G36*
G01*
X12936813Y-9534516D02*
X12158995Y-8756698D01*
G75*
G02*
X12158995Y-8049592I353553J353553D01*
G01*
X12158995Y-8049592D01*
G75*
G02*
X12866101Y-8049592I353553J-353553D01*
G01*
X13643919Y-8827410D01*
G75*
G02*
X13643919Y-9534516I-353553J-353553D01*
G01*
X13643919Y-9534516D01*
G75*
G02*
X12936813Y-9534516I-353553J353553D01*
G01*
G37*
G04 #@! TD.AperFunction*
G04 #@! TA.AperFunction,ComponentPad*
G36*
G01*
X6827410Y-15643919D02*
X6049592Y-14866101D01*
G75*
G02*
X6049592Y-14158995I353553J353553D01*
G01*
X6049592Y-14158995D01*
G75*
G02*
X6756698Y-14158995I353553J-353553D01*
G01*
X7534516Y-14936813D01*
G75*
G02*
X7534516Y-15643919I-353553J-353553D01*
G01*
X7534516Y-15643919D01*
G75*
G02*
X6827410Y-15643919I-353553J353553D01*
G01*
G37*
G04 #@! TD.AperFunction*
G04 #@! TA.AperFunction,ComponentPad*
G36*
G01*
X9606340Y-18422848D02*
X9182076Y-17998584D01*
G75*
G02*
X9182076Y-17291478I353553J353553D01*
G01*
X9182076Y-17291478D01*
G75*
G02*
X9889182Y-17291478I353553J-353553D01*
G01*
X10313446Y-17715742D01*
G75*
G02*
X10313446Y-18422848I-353553J-353553D01*
G01*
X10313446Y-18422848D01*
G75*
G02*
X9606340Y-18422848I-353553J353553D01*
G01*
G37*
G04 #@! TD.AperFunction*
G04 #@! TA.AperFunction,ComponentPad*
G36*
G01*
X15715742Y-12313446D02*
X15291478Y-11889182D01*
G75*
G02*
X15291478Y-11182076I353553J353553D01*
G01*
X15291478Y-11182076D01*
G75*
G02*
X15998584Y-11182076I353553J-353553D01*
G01*
X16422848Y-11606340D01*
G75*
G02*
X16422848Y-12313446I-353553J-353553D01*
G01*
X16422848Y-12313446D01*
G75*
G02*
X15715742Y-12313446I-353553J353553D01*
G01*
G37*
G04 #@! TD.AperFunction*
G04 #@! TA.AperFunction,ComponentPad*
G36*
G01*
X-7534516Y-14936813D02*
X-6756698Y-14158995D01*
G75*
G02*
X-6049592Y-14158995I353553J-353553D01*
G01*
X-6049592Y-14158995D01*
G75*
G02*
X-6049592Y-14866101I-353553J-353553D01*
G01*
X-6827410Y-15643919D01*
G75*
G02*
X-7534516Y-15643919I-353553J353553D01*
G01*
X-7534516Y-15643919D01*
G75*
G02*
X-7534516Y-14936813I353553J353553D01*
G01*
G37*
G04 #@! TD.AperFunction*
G04 #@! TA.AperFunction,ComponentPad*
G36*
G01*
X-13643919Y-8827410D02*
X-12866101Y-8049592D01*
G75*
G02*
X-12158995Y-8049592I353553J-353553D01*
G01*
X-12158995Y-8049592D01*
G75*
G02*
X-12158995Y-8756698I-353553J-353553D01*
G01*
X-12936813Y-9534516D01*
G75*
G02*
X-13643919Y-9534516I-353553J353553D01*
G01*
X-13643919Y-9534516D01*
G75*
G02*
X-13643919Y-8827410I353553J353553D01*
G01*
G37*
G04 #@! TD.AperFunction*
G04 #@! TA.AperFunction,ComponentPad*
G36*
G01*
X-16422848Y-11606340D02*
X-15998584Y-11182076D01*
G75*
G02*
X-15291478Y-11182076I353553J-353553D01*
G01*
X-15291478Y-11182076D01*
G75*
G02*
X-15291478Y-11889182I-353553J-353553D01*
G01*
X-15715742Y-12313446D01*
G75*
G02*
X-16422848Y-12313446I-353553J353553D01*
G01*
X-16422848Y-12313446D01*
G75*
G02*
X-16422848Y-11606340I353553J353553D01*
G01*
G37*
G04 #@! TD.AperFunction*
G04 #@! TA.AperFunction,ComponentPad*
G36*
G01*
X-10313446Y-17715742D02*
X-9889182Y-17291478D01*
G75*
G02*
X-9182076Y-17291478I353553J-353553D01*
G01*
X-9182076Y-17291478D01*
G75*
G02*
X-9182076Y-17998584I-353553J-353553D01*
G01*
X-9606340Y-18422848D01*
G75*
G02*
X-10313446Y-18422848I-353553J353553D01*
G01*
X-10313446Y-18422848D01*
G75*
G02*
X-10313446Y-17715742I353553J353553D01*
G01*
G37*
G04 #@! TD.AperFunction*
D10*
X-4320000Y12870000D03*
X4320000Y12870000D03*
D11*
X4320000Y17050000D03*
X-4320000Y17050000D03*
D12*
X750000Y-1850000D03*
D13*
X-1400000Y3400000D03*
X-1400000Y600000D03*
X1400000Y600000D03*
X1400000Y3400000D03*
X0Y2000000D03*
D14*
X6000000Y16400000D03*
X-6000000Y16400000D03*
X6200000Y1750000D03*
X5750000Y650000D03*
X6000000Y-17000000D03*
X-5950000Y-16950000D03*
D13*
X-3800000Y-15400000D03*
X4300000Y11100000D03*
X-4300000Y11100000D03*
X11700000Y-7600000D03*
X5700000Y-13700000D03*
X-11700000Y-7500000D03*
D14*
X4675000Y-2250000D03*
X2900000Y-6200000D03*
X-1700000Y-4000000D03*
X-5799999Y220000D03*
X-6223000Y-1800000D03*
X7454001Y-5000000D03*
X-3700000Y-6500000D03*
X6200000Y5650000D03*
X7600000Y-2600000D03*
X-5799999Y-750000D03*
X-4740000Y-2670000D03*
X-4350000Y6800000D03*
X-3300000Y-9500000D03*
X3375000Y-11875000D03*
D13*
X5425000Y7650000D03*
X9450000Y-8000000D03*
X6000000Y-11450000D03*
X-10024422Y-8574422D03*
X-6400000Y-11850000D03*
X4400000Y9700000D03*
D14*
X-5643356Y4743356D03*
X-1400000Y6950000D03*
X-7900000Y-10100000D03*
X-7500000Y-7600000D03*
X7356644Y-10593356D03*
X8600000Y-9350000D03*
X1950000Y-11900000D03*
X2750000Y-7550000D03*
X625000Y-11875000D03*
X327000Y13750000D03*
X-1200000Y13700000D03*
D13*
X1250000Y10577000D03*
X-2450000Y10577000D03*
D15*
X6915000Y16592634D02*
X6899068Y16672729D01*
X6828586Y16842889D01*
X6726262Y16996028D01*
X6596028Y17126262D01*
X6442889Y17228586D01*
X6272729Y17299068D01*
X6092089Y17335000D01*
X5907911Y17335000D01*
X5727271Y17299068D01*
X5557111Y17228586D01*
X5455000Y17160358D01*
X5455000Y17405751D01*
X5438577Y17572498D01*
X5373676Y17786446D01*
X5268284Y17983623D01*
X5126449Y18156449D01*
X4953623Y18298284D01*
X4756447Y18403676D01*
X4542499Y18468577D01*
X4320000Y18490491D01*
X4097502Y18468577D01*
X3883554Y18403676D01*
X3686378Y18298284D01*
X3513552Y18156449D01*
X3371717Y17983623D01*
X3266324Y17786447D01*
X3201423Y17572499D01*
X3185000Y17405752D01*
X3185000Y16694249D01*
X3201423Y16527502D01*
X3266324Y16313554D01*
X3371716Y16116377D01*
X3513551Y15943551D01*
X3686377Y15801716D01*
X3883553Y15696324D01*
X4097501Y15631423D01*
X4320000Y15609509D01*
X4542498Y15631423D01*
X4756446Y15696324D01*
X4953623Y15801716D01*
X5126449Y15943551D01*
X5160064Y15984511D01*
X5171414Y15957111D01*
X5273738Y15803972D01*
X5403972Y15673738D01*
X5557111Y15571414D01*
X5727271Y15500932D01*
X5907911Y15465000D01*
X6092089Y15465000D01*
X6272729Y15500932D01*
X6442889Y15571414D01*
X6596028Y15673738D01*
X6726262Y15803972D01*
X6828586Y15957111D01*
X6899068Y16127271D01*
X6915001Y16207366D01*
X6915001Y12376353D01*
X6916113Y12365058D01*
X6976815Y10533440D01*
X6976962Y10531356D01*
X6976966Y10529281D01*
X6980125Y10485165D01*
X7197769Y8395586D01*
X7198273Y8392040D01*
X7198549Y8388456D01*
X7205007Y8344702D01*
X7578713Y6277323D01*
X7579484Y6273817D01*
X7580026Y6270271D01*
X7589747Y6227125D01*
X8117410Y4193586D01*
X8118441Y4190150D01*
X8119248Y4186652D01*
X8132176Y4144356D01*
X8810826Y2156104D01*
X8812114Y2152749D01*
X8813179Y2149328D01*
X8829242Y2108120D01*
X9655057Y176349D01*
X9656595Y173095D01*
X9657912Y169768D01*
X9677019Y129881D01*
X10645353Y-1734533D01*
X10647123Y-1737649D01*
X10648692Y-1740881D01*
X10670655Y-1779081D01*
X10670736Y-1779224D01*
X10670749Y-1779243D01*
X11776135Y-3565786D01*
X11778143Y-3568774D01*
X11779942Y-3571866D01*
X11804799Y-3608448D01*
X13014631Y-5270812D01*
X13023963Y-5288241D01*
X13088169Y-5366365D01*
X19380925Y-11650338D01*
X9650000Y-21381264D01*
X8060574Y-19791840D01*
X8046706Y-19780459D01*
X7222304Y-19038163D01*
X7215277Y-19032574D01*
X7208821Y-19026339D01*
X7161730Y-18989548D01*
X6093365Y-18227491D01*
X6083217Y-18221150D01*
X6073661Y-18213949D01*
X6022438Y-18183170D01*
X4869164Y-17556993D01*
X4858314Y-17551933D01*
X4847955Y-17545953D01*
X4793363Y-17521647D01*
X3572374Y-17040687D01*
X3560993Y-17036989D01*
X3549979Y-17032314D01*
X3492831Y-17014842D01*
X3079360Y-16907911D01*
X5065000Y-16907911D01*
X5065000Y-17092089D01*
X5100932Y-17272729D01*
X5171414Y-17442889D01*
X5273738Y-17596028D01*
X5403972Y-17726262D01*
X5557111Y-17828586D01*
X5727271Y-17899068D01*
X5907911Y-17935000D01*
X6092089Y-17935000D01*
X6272729Y-17899068D01*
X6442889Y-17828586D01*
X6596028Y-17726262D01*
X6677259Y-17645031D01*
X8395138Y-17645031D01*
X8417052Y-17867529D01*
X8481953Y-18081477D01*
X8587346Y-18278653D01*
X8693641Y-18408174D01*
X9196750Y-18911283D01*
X9326271Y-19017579D01*
X9523447Y-19122971D01*
X9737394Y-19187872D01*
X9959893Y-19209786D01*
X10182391Y-19187872D01*
X10396339Y-19122971D01*
X10593515Y-19017579D01*
X10766341Y-18875743D01*
X10908177Y-18702917D01*
X11013569Y-18505741D01*
X11078470Y-18291793D01*
X11100384Y-18069295D01*
X11078470Y-17846796D01*
X11013569Y-17632849D01*
X10908177Y-17435673D01*
X10801881Y-17306152D01*
X10298772Y-16803043D01*
X10169251Y-16696748D01*
X9972075Y-16591355D01*
X9758127Y-16526454D01*
X9535629Y-16504540D01*
X9313131Y-16526454D01*
X9099183Y-16591355D01*
X8902007Y-16696748D01*
X8729181Y-16838583D01*
X8587346Y-17011409D01*
X8481953Y-17208585D01*
X8417052Y-17422533D01*
X8395138Y-17645031D01*
X6677259Y-17645031D01*
X6726262Y-17596028D01*
X6828586Y-17442889D01*
X6899068Y-17272729D01*
X6935000Y-17092089D01*
X6935000Y-16907911D01*
X6899068Y-16727271D01*
X6828586Y-16557111D01*
X6726262Y-16403972D01*
X6596028Y-16273738D01*
X6442889Y-16171414D01*
X6272729Y-16100932D01*
X6092089Y-16065000D01*
X5907911Y-16065000D01*
X5727271Y-16100932D01*
X5557111Y-16171414D01*
X5403972Y-16273738D01*
X5273738Y-16403972D01*
X5171414Y-16557111D01*
X5100932Y-16727271D01*
X5065000Y-16907911D01*
X3079360Y-16907911D01*
X2222329Y-16686268D01*
X2210579Y-16683984D01*
X2199081Y-16680687D01*
X2140230Y-16670309D01*
X839155Y-16499019D01*
X827212Y-16498184D01*
X815399Y-16496313D01*
X755722Y-16493185D01*
X-556530Y-16481733D01*
X-568485Y-16482359D01*
X-580439Y-16481942D01*
X-640049Y-16486110D01*
X-640055Y-16486110D01*
X-1943918Y-16634667D01*
X-1955704Y-16636745D01*
X-1967623Y-16637788D01*
X-2026274Y-16649189D01*
X-2026285Y-16649191D01*
X-2026289Y-16649192D01*
X-3302327Y-16955542D01*
X-3313766Y-16959039D01*
X-3325475Y-16961528D01*
X-3382293Y-16979990D01*
X-3382310Y-16979995D01*
X-3382315Y-16979997D01*
X-4611506Y-17439573D01*
X-4622433Y-17444438D01*
X-4633751Y-17448335D01*
X-4687911Y-17473590D01*
X-5851938Y-18079543D01*
X-5862206Y-18085713D01*
X-5872950Y-18090953D01*
X-5923628Y-18122620D01*
X-7005131Y-18865915D01*
X-7014565Y-18873285D01*
X-7024596Y-18879800D01*
X-7071038Y-18917408D01*
X-8044400Y-19778566D01*
X-8060575Y-19791840D01*
X-9649999Y-21381264D01*
X-12961968Y-18069295D01*
X-11100384Y-18069295D01*
X-11078470Y-18291793D01*
X-11013569Y-18505741D01*
X-10908176Y-18702917D01*
X-10766341Y-18875743D01*
X-10593515Y-19017578D01*
X-10396339Y-19122971D01*
X-10182391Y-19187872D01*
X-9959893Y-19209786D01*
X-9737395Y-19187872D01*
X-9523447Y-19122971D01*
X-9326271Y-19017578D01*
X-9196750Y-18911283D01*
X-8693641Y-18408174D01*
X-8587345Y-18278653D01*
X-8481953Y-18081477D01*
X-8417052Y-17867530D01*
X-8395138Y-17645031D01*
X-8417052Y-17422533D01*
X-8481953Y-17208585D01*
X-8587345Y-17011409D01*
X-8729181Y-16838583D01*
X-8902007Y-16696747D01*
X-9099183Y-16591355D01*
X-9313131Y-16526454D01*
X-9535629Y-16504540D01*
X-9758128Y-16526454D01*
X-9972075Y-16591355D01*
X-10169251Y-16696747D01*
X-10298772Y-16803043D01*
X-10801881Y-17306152D01*
X-10908176Y-17435673D01*
X-11013569Y-17632849D01*
X-11078470Y-17846797D01*
X-11100384Y-18069295D01*
X-12961968Y-18069295D01*
X-16860754Y-14170509D01*
X-9137984Y-14170509D01*
X-9137984Y-14359613D01*
X-9101092Y-14545083D01*
X-9028725Y-14719792D01*
X-8923665Y-14877025D01*
X-8789948Y-15010742D01*
X-8632715Y-15115802D01*
X-8458006Y-15188169D01*
X-8314206Y-15216772D01*
X-8321454Y-15290366D01*
X-8299540Y-15512864D01*
X-8234639Y-15726812D01*
X-8129246Y-15923988D01*
X-7987411Y-16096814D01*
X-7814585Y-16238649D01*
X-7617409Y-16344042D01*
X-7403461Y-16408943D01*
X-7180963Y-16430857D01*
X-6958465Y-16408943D01*
X-6744517Y-16344042D01*
X-6576553Y-16254263D01*
X-6676262Y-16353972D01*
X-6778586Y-16507111D01*
X-6849068Y-16677271D01*
X-6885000Y-16857911D01*
X-6885000Y-17042089D01*
X-6849068Y-17222729D01*
X-6778586Y-17392889D01*
X-6676262Y-17546028D01*
X-6546028Y-17676262D01*
X-6392889Y-17778586D01*
X-6222729Y-17849068D01*
X-6042089Y-17885000D01*
X-5857911Y-17885000D01*
X-5677271Y-17849068D01*
X-5507111Y-17778586D01*
X-5353972Y-17676262D01*
X-5223738Y-17546028D01*
X-5121414Y-17392889D01*
X-5050932Y-17222729D01*
X-5015000Y-17042089D01*
X-5015000Y-16857911D01*
X-5050932Y-16677271D01*
X-5121414Y-16507111D01*
X-5223738Y-16353972D01*
X-5353972Y-16223738D01*
X-5507111Y-16121414D01*
X-5677271Y-16050932D01*
X-5857911Y-16015000D01*
X-6042089Y-16015000D01*
X-6222729Y-16050932D01*
X-6392889Y-16121414D01*
X-6455317Y-16163127D01*
X-6417820Y-16132354D01*
X-5578603Y-15293137D01*
X-4885000Y-15293137D01*
X-4885000Y-15506863D01*
X-4843304Y-15716483D01*
X-4761515Y-15913940D01*
X-4642775Y-16091647D01*
X-4491647Y-16242775D01*
X-4313940Y-16361515D01*
X-4116483Y-16443304D01*
X-3906863Y-16485000D01*
X-3693137Y-16485000D01*
X-3483517Y-16443304D01*
X-3286060Y-16361515D01*
X-3108353Y-16242775D01*
X-2957225Y-16091647D01*
X-2838485Y-15913940D01*
X-2756696Y-15716483D01*
X-2715000Y-15506863D01*
X-2715000Y-15293137D01*
X-2756696Y-15083517D01*
X-2838485Y-14886060D01*
X-2957225Y-14708353D01*
X-3108353Y-14557225D01*
X-3286060Y-14438485D01*
X-3483517Y-14356696D01*
X-3693137Y-14315000D01*
X-3906863Y-14315000D01*
X-4116483Y-14356696D01*
X-4313940Y-14438485D01*
X-4491647Y-14557225D01*
X-4642775Y-14708353D01*
X-4761515Y-14886060D01*
X-4843304Y-15083517D01*
X-4885000Y-15293137D01*
X-5578603Y-15293137D01*
X-5561157Y-15275692D01*
X-5454861Y-15146171D01*
X-5349469Y-14948995D01*
X-5284568Y-14735047D01*
X-5262654Y-14512548D01*
X-5284568Y-14290049D01*
X-5349469Y-14076102D01*
X-5454861Y-13878926D01*
X-5596696Y-13706099D01*
X-5734341Y-13593137D01*
X4615000Y-13593137D01*
X4615000Y-13806863D01*
X4656696Y-14016483D01*
X4738485Y-14213940D01*
X4857225Y-14391647D01*
X5008353Y-14542775D01*
X5186060Y-14661515D01*
X5281208Y-14700926D01*
X5284568Y-14735046D01*
X5349469Y-14948994D01*
X5454862Y-15146170D01*
X5561157Y-15275691D01*
X6417819Y-16132354D01*
X6547340Y-16238650D01*
X6744516Y-16344042D01*
X6958464Y-16408943D01*
X7180963Y-16430857D01*
X7403462Y-16408943D01*
X7617409Y-16344042D01*
X7814585Y-16238650D01*
X7987412Y-16096815D01*
X8129247Y-15923988D01*
X8234639Y-15726812D01*
X8299540Y-15512865D01*
X8321454Y-15290366D01*
X8314206Y-15216772D01*
X8458006Y-15188169D01*
X8632715Y-15115802D01*
X8789948Y-15010742D01*
X8923665Y-14877025D01*
X9028725Y-14719792D01*
X9101092Y-14545083D01*
X9137984Y-14359613D01*
X9137984Y-14170509D01*
X9101092Y-13985039D01*
X9028725Y-13810330D01*
X8923665Y-13653097D01*
X8789948Y-13519380D01*
X8632715Y-13414320D01*
X8458006Y-13341953D01*
X8272536Y-13305061D01*
X8083432Y-13305061D01*
X7897962Y-13341953D01*
X7723253Y-13414320D01*
X7566020Y-13519380D01*
X7432303Y-13653097D01*
X7327243Y-13810330D01*
X7321038Y-13825310D01*
X7166288Y-13670560D01*
X7036767Y-13564265D01*
X6839591Y-13458872D01*
X6753073Y-13432627D01*
X6743304Y-13383517D01*
X6661515Y-13186060D01*
X6542775Y-13008353D01*
X6391647Y-12857225D01*
X6213940Y-12738485D01*
X6016483Y-12656696D01*
X5806863Y-12615000D01*
X5593137Y-12615000D01*
X5383517Y-12656696D01*
X5186060Y-12738485D01*
X5008353Y-12857225D01*
X4857225Y-13008353D01*
X4738485Y-13186060D01*
X4656696Y-13383517D01*
X4615000Y-13593137D01*
X-5734341Y-13593137D01*
X-5769523Y-13564264D01*
X-5966699Y-13458872D01*
X-6180646Y-13393971D01*
X-6403145Y-13372057D01*
X-6625644Y-13393971D01*
X-6839592Y-13458872D01*
X-7036768Y-13564264D01*
X-7166289Y-13670560D01*
X-7321038Y-13825309D01*
X-7327243Y-13810330D01*
X-7432303Y-13653097D01*
X-7566020Y-13519380D01*
X-7723253Y-13414320D01*
X-7897962Y-13341953D01*
X-8083432Y-13305061D01*
X-8272536Y-13305061D01*
X-8458006Y-13341953D01*
X-8632715Y-13414320D01*
X-8789948Y-13519380D01*
X-8923665Y-13653097D01*
X-9028725Y-13810330D01*
X-9101092Y-13985039D01*
X-9137984Y-14170509D01*
X-16860754Y-14170509D01*
X-19071370Y-11959893D01*
X-17209786Y-11959893D01*
X-17187872Y-12182391D01*
X-17122971Y-12396339D01*
X-17017578Y-12593515D01*
X-16875743Y-12766341D01*
X-16702917Y-12908176D01*
X-16505741Y-13013569D01*
X-16291793Y-13078470D01*
X-16069295Y-13100384D01*
X-15846797Y-13078470D01*
X-15632849Y-13013569D01*
X-15435673Y-12908176D01*
X-15306152Y-12801881D01*
X-14803043Y-12298772D01*
X-14696747Y-12169251D01*
X-14591355Y-11972075D01*
X-14526454Y-11758128D01*
X-14524978Y-11743137D01*
X-7485000Y-11743137D01*
X-7485000Y-11956863D01*
X-7443304Y-12166483D01*
X-7361515Y-12363940D01*
X-7242775Y-12541647D01*
X-7091647Y-12692775D01*
X-6913940Y-12811515D01*
X-6716483Y-12893304D01*
X-6506863Y-12935000D01*
X-6293137Y-12935000D01*
X-6083517Y-12893304D01*
X-5886060Y-12811515D01*
X-5708353Y-12692775D01*
X-5557225Y-12541647D01*
X-5438485Y-12363940D01*
X-5356696Y-12166483D01*
X-5315000Y-11956863D01*
X-5315000Y-11782911D01*
X-310000Y-11782911D01*
X-310000Y-11967089D01*
X-274068Y-12147729D01*
X-203586Y-12317889D01*
X-101262Y-12471028D01*
X28972Y-12601262D01*
X182111Y-12703586D01*
X352271Y-12774068D01*
X532911Y-12810000D01*
X717089Y-12810000D01*
X897729Y-12774068D01*
X1067889Y-12703586D01*
X1221028Y-12601262D01*
X1275000Y-12547290D01*
X1353972Y-12626262D01*
X1507111Y-12728586D01*
X1677271Y-12799068D01*
X1857911Y-12835000D01*
X2042089Y-12835000D01*
X2222729Y-12799068D01*
X2392889Y-12728586D01*
X2546028Y-12626262D01*
X2676262Y-12496028D01*
X2778586Y-12342889D01*
X2849068Y-12172729D01*
X2885000Y-11992089D01*
X2885000Y-11807911D01*
X2849068Y-11627271D01*
X2778586Y-11457111D01*
X2702432Y-11343137D01*
X4915000Y-11343137D01*
X4915000Y-11556863D01*
X4956696Y-11766483D01*
X5038485Y-11963940D01*
X5157225Y-12141647D01*
X5308353Y-12292775D01*
X5486060Y-12411515D01*
X5683517Y-12493304D01*
X5893137Y-12535000D01*
X6106863Y-12535000D01*
X6316483Y-12493304D01*
X6513940Y-12411515D01*
X6691647Y-12292775D01*
X6842775Y-12141647D01*
X6961515Y-11963940D01*
X7043304Y-11766483D01*
X7085000Y-11556863D01*
X7085000Y-11535629D01*
X14504540Y-11535629D01*
X14526454Y-11758127D01*
X14591355Y-11972075D01*
X14696748Y-12169251D01*
X14803043Y-12298772D01*
X15306152Y-12801881D01*
X15435673Y-12908177D01*
X15632849Y-13013569D01*
X15846796Y-13078470D01*
X16069295Y-13100384D01*
X16291793Y-13078470D01*
X16505741Y-13013569D01*
X16702917Y-12908177D01*
X16875743Y-12766341D01*
X17017579Y-12593515D01*
X17122971Y-12396339D01*
X17187872Y-12182391D01*
X17209786Y-11959893D01*
X17187872Y-11737394D01*
X17122971Y-11523447D01*
X17017579Y-11326271D01*
X16911283Y-11196750D01*
X16408174Y-10693641D01*
X16278653Y-10587346D01*
X16081477Y-10481953D01*
X15867529Y-10417052D01*
X15645031Y-10395138D01*
X15422533Y-10417052D01*
X15208585Y-10481953D01*
X15011409Y-10587346D01*
X14838583Y-10729181D01*
X14696748Y-10902007D01*
X14591355Y-11099183D01*
X14526454Y-11313131D01*
X14504540Y-11535629D01*
X7085000Y-11535629D01*
X7085000Y-11492640D01*
X7264555Y-11528356D01*
X7448733Y-11528356D01*
X7629373Y-11492424D01*
X7799533Y-11421942D01*
X7952672Y-11319618D01*
X8082906Y-11189384D01*
X8185230Y-11036245D01*
X8255712Y-10866085D01*
X8291644Y-10685445D01*
X8291644Y-10501267D01*
X8255712Y-10320627D01*
X8205113Y-10198469D01*
X8327271Y-10249068D01*
X8507911Y-10285000D01*
X8692089Y-10285000D01*
X8872729Y-10249068D01*
X9042889Y-10178586D01*
X9196028Y-10076262D01*
X9326262Y-9946028D01*
X9428586Y-9792889D01*
X9499068Y-9622729D01*
X9535000Y-9442089D01*
X9535000Y-9257911D01*
X9500605Y-9085000D01*
X9556863Y-9085000D01*
X9766483Y-9043304D01*
X9963940Y-8961515D01*
X10141647Y-8842775D01*
X10292775Y-8691647D01*
X10411515Y-8513940D01*
X10493304Y-8316483D01*
X10535000Y-8106863D01*
X10535000Y-7893137D01*
X10493304Y-7683517D01*
X10414447Y-7493137D01*
X10615000Y-7493137D01*
X10615000Y-7706863D01*
X10656696Y-7916483D01*
X10738485Y-8113940D01*
X10857225Y-8291647D01*
X11008353Y-8442775D01*
X11186060Y-8561515D01*
X11383517Y-8643304D01*
X11400344Y-8646651D01*
X11458872Y-8839591D01*
X11564265Y-9036767D01*
X11670560Y-9166288D01*
X11825310Y-9321038D01*
X11810330Y-9327243D01*
X11653097Y-9432303D01*
X11519380Y-9566020D01*
X11414320Y-9723253D01*
X11341953Y-9897962D01*
X11305061Y-10083432D01*
X11305061Y-10272536D01*
X11341953Y-10458006D01*
X11414320Y-10632715D01*
X11519380Y-10789948D01*
X11653097Y-10923665D01*
X11810330Y-11028725D01*
X11985039Y-11101092D01*
X12170509Y-11137984D01*
X12359613Y-11137984D01*
X12545083Y-11101092D01*
X12719792Y-11028725D01*
X12877025Y-10923665D01*
X13010742Y-10789948D01*
X13115802Y-10632715D01*
X13188169Y-10458006D01*
X13216772Y-10314206D01*
X13290366Y-10321454D01*
X13512865Y-10299540D01*
X13726812Y-10234639D01*
X13923988Y-10129247D01*
X14096815Y-9987412D01*
X14238650Y-9814585D01*
X14344042Y-9617409D01*
X14408943Y-9403462D01*
X14430857Y-9180963D01*
X14408943Y-8958464D01*
X14344042Y-8744516D01*
X14238650Y-8547340D01*
X14132354Y-8417819D01*
X13275691Y-7561157D01*
X13146170Y-7454862D01*
X12948994Y-7349469D01*
X12744057Y-7287301D01*
X12743304Y-7283517D01*
X12661515Y-7086060D01*
X12542775Y-6908353D01*
X12391647Y-6757225D01*
X12213940Y-6638485D01*
X12016483Y-6556696D01*
X11806863Y-6515000D01*
X11593137Y-6515000D01*
X11383517Y-6556696D01*
X11186060Y-6638485D01*
X11008353Y-6757225D01*
X10857225Y-6908353D01*
X10738485Y-7086060D01*
X10656696Y-7283517D01*
X10615000Y-7493137D01*
X10414447Y-7493137D01*
X10411515Y-7486060D01*
X10292775Y-7308353D01*
X10141647Y-7157225D01*
X9963940Y-7038485D01*
X9766483Y-6956696D01*
X9556863Y-6915000D01*
X9343137Y-6915000D01*
X9133517Y-6956696D01*
X8936060Y-7038485D01*
X8758353Y-7157225D01*
X8607225Y-7308353D01*
X8488485Y-7486060D01*
X8406696Y-7683517D01*
X8365000Y-7893137D01*
X8365000Y-8106863D01*
X8406696Y-8316483D01*
X8452101Y-8426101D01*
X8327271Y-8450932D01*
X8157111Y-8521414D01*
X8003972Y-8623738D01*
X7873738Y-8753972D01*
X7771414Y-8907111D01*
X7700932Y-9077271D01*
X7665000Y-9257911D01*
X7665000Y-9442089D01*
X7700932Y-9622729D01*
X7751531Y-9744887D01*
X7629373Y-9694288D01*
X7448733Y-9658356D01*
X7264555Y-9658356D01*
X7083915Y-9694288D01*
X6913755Y-9764770D01*
X6760616Y-9867094D01*
X6630382Y-9997328D01*
X6528058Y-10150467D01*
X6457576Y-10320627D01*
X6431019Y-10454138D01*
X6316483Y-10406696D01*
X6106863Y-10365000D01*
X5893137Y-10365000D01*
X5683517Y-10406696D01*
X5486060Y-10488485D01*
X5308353Y-10607225D01*
X5157225Y-10758353D01*
X5038485Y-10936060D01*
X4956696Y-11133517D01*
X4915000Y-11343137D01*
X2702432Y-11343137D01*
X2676262Y-11303972D01*
X2546028Y-11173738D01*
X2392889Y-11071414D01*
X2222729Y-11000932D01*
X2042089Y-10965000D01*
X1857911Y-10965000D01*
X1677271Y-11000932D01*
X1507111Y-11071414D01*
X1353972Y-11173738D01*
X1300000Y-11227710D01*
X1221028Y-11148738D01*
X1067889Y-11046414D01*
X897729Y-10975932D01*
X717089Y-10940000D01*
X532911Y-10940000D01*
X352271Y-10975932D01*
X182111Y-11046414D01*
X28972Y-11148738D01*
X-101262Y-11278972D01*
X-203586Y-11432111D01*
X-274068Y-11602271D01*
X-310000Y-11782911D01*
X-5315000Y-11782911D01*
X-5315000Y-11743137D01*
X-5356696Y-11533517D01*
X-5438485Y-11336060D01*
X-5557225Y-11158353D01*
X-5708353Y-11007225D01*
X-5886060Y-10888485D01*
X-6083517Y-10806696D01*
X-6293137Y-10765000D01*
X-6506863Y-10765000D01*
X-6716483Y-10806696D01*
X-6913940Y-10888485D01*
X-7091647Y-11007225D01*
X-7242775Y-11158353D01*
X-7361515Y-11336060D01*
X-7443304Y-11533517D01*
X-7485000Y-11743137D01*
X-14524978Y-11743137D01*
X-14504540Y-11535629D01*
X-14526454Y-11313131D01*
X-14591355Y-11099183D01*
X-14696747Y-10902007D01*
X-14838583Y-10729181D01*
X-15011409Y-10587345D01*
X-15208585Y-10481953D01*
X-15422533Y-10417052D01*
X-15645031Y-10395138D01*
X-15867530Y-10417052D01*
X-16081477Y-10481953D01*
X-16278653Y-10587345D01*
X-16408174Y-10693641D01*
X-16911283Y-11196750D01*
X-17017578Y-11326271D01*
X-17122971Y-11523447D01*
X-17187872Y-11737395D01*
X-17209786Y-11959893D01*
X-19071370Y-11959893D01*
X-19380926Y-11650338D01*
X-16908099Y-9180963D01*
X-14430857Y-9180963D01*
X-14408943Y-9403461D01*
X-14344042Y-9617409D01*
X-14238649Y-9814585D01*
X-14096814Y-9987411D01*
X-13923988Y-10129246D01*
X-13726812Y-10234639D01*
X-13512864Y-10299540D01*
X-13290366Y-10321454D01*
X-13216772Y-10314206D01*
X-13188169Y-10458006D01*
X-13115802Y-10632715D01*
X-13010742Y-10789948D01*
X-12877025Y-10923665D01*
X-12719792Y-11028725D01*
X-12545083Y-11101092D01*
X-12359613Y-11137984D01*
X-12170509Y-11137984D01*
X-11985039Y-11101092D01*
X-11810330Y-11028725D01*
X-11653097Y-10923665D01*
X-11519380Y-10789948D01*
X-11414320Y-10632715D01*
X-11341953Y-10458006D01*
X-11305061Y-10272536D01*
X-11305061Y-10083432D01*
X-11320082Y-10007911D01*
X-8835000Y-10007911D01*
X-8835000Y-10192089D01*
X-8799068Y-10372729D01*
X-8728586Y-10542889D01*
X-8626262Y-10696028D01*
X-8496028Y-10826262D01*
X-8342889Y-10928586D01*
X-8172729Y-10999068D01*
X-7992089Y-11035000D01*
X-7807911Y-11035000D01*
X-7627271Y-10999068D01*
X-7457111Y-10928586D01*
X-7303972Y-10826262D01*
X-7173738Y-10696028D01*
X-7071414Y-10542889D01*
X-7000932Y-10372729D01*
X-6965000Y-10192089D01*
X-6965000Y-10007911D01*
X-7000932Y-9827271D01*
X-7071414Y-9657111D01*
X-7173738Y-9503972D01*
X-7303972Y-9373738D01*
X-7457111Y-9271414D01*
X-7627271Y-9200932D01*
X-7807911Y-9165000D01*
X-7992089Y-9165000D01*
X-8172729Y-9200932D01*
X-8342889Y-9271414D01*
X-8496028Y-9373738D01*
X-8626262Y-9503972D01*
X-8728586Y-9657111D01*
X-8799068Y-9827271D01*
X-8835000Y-10007911D01*
X-11320082Y-10007911D01*
X-11341953Y-9897962D01*
X-11414320Y-9723253D01*
X-11519380Y-9566020D01*
X-11653097Y-9432303D01*
X-11810330Y-9327243D01*
X-11825309Y-9321038D01*
X-11670560Y-9166289D01*
X-11564264Y-9036768D01*
X-11458872Y-8839592D01*
X-11393971Y-8625644D01*
X-11385908Y-8543780D01*
X-11383517Y-8543304D01*
X-11186060Y-8461515D01*
X-11096288Y-8401531D01*
X-11109422Y-8467559D01*
X-11109422Y-8681285D01*
X-11067726Y-8890905D01*
X-10985937Y-9088362D01*
X-10867197Y-9266069D01*
X-10716069Y-9417197D01*
X-10538362Y-9535937D01*
X-10340905Y-9617726D01*
X-10131285Y-9659422D01*
X-9917559Y-9659422D01*
X-9707939Y-9617726D01*
X-9510482Y-9535937D01*
X-9332775Y-9417197D01*
X-9181647Y-9266069D01*
X-9062907Y-9088362D01*
X-8981118Y-8890905D01*
X-8939422Y-8681285D01*
X-8939422Y-8467559D01*
X-8981118Y-8257939D01*
X-9062907Y-8060482D01*
X-9181647Y-7882775D01*
X-9332775Y-7731647D01*
X-9510482Y-7612907D01*
X-9707939Y-7531118D01*
X-9824608Y-7507911D01*
X-8435000Y-7507911D01*
X-8435000Y-7692089D01*
X-8399068Y-7872729D01*
X-8328586Y-8042889D01*
X-8226262Y-8196028D01*
X-8096028Y-8326262D01*
X-7942889Y-8428586D01*
X-7772729Y-8499068D01*
X-7592089Y-8535000D01*
X-7407911Y-8535000D01*
X-7227271Y-8499068D01*
X-7057111Y-8428586D01*
X-6903972Y-8326262D01*
X-6773738Y-8196028D01*
X-6671414Y-8042889D01*
X-6600932Y-7872729D01*
X-6565000Y-7692089D01*
X-6565000Y-7507911D01*
X-6600932Y-7327271D01*
X-6671414Y-7157111D01*
X-6773738Y-7003972D01*
X-6903972Y-6873738D01*
X-7057111Y-6771414D01*
X-7227271Y-6700932D01*
X-7407911Y-6665000D01*
X-7592089Y-6665000D01*
X-7772729Y-6700932D01*
X-7942889Y-6771414D01*
X-8096028Y-6873738D01*
X-8226262Y-7003972D01*
X-8328586Y-7157111D01*
X-8399068Y-7327271D01*
X-8435000Y-7507911D01*
X-9824608Y-7507911D01*
X-9917559Y-7489422D01*
X-10131285Y-7489422D01*
X-10340905Y-7531118D01*
X-10538362Y-7612907D01*
X-10628134Y-7672891D01*
X-10615000Y-7606863D01*
X-10615000Y-7393137D01*
X-10656696Y-7183517D01*
X-10738485Y-6986060D01*
X-10857225Y-6808353D01*
X-11008353Y-6657225D01*
X-11186060Y-6538485D01*
X-11383517Y-6456696D01*
X-11593137Y-6415000D01*
X-11806863Y-6415000D01*
X-12016483Y-6456696D01*
X-12213940Y-6538485D01*
X-12391647Y-6657225D01*
X-12542775Y-6808353D01*
X-12661515Y-6986060D01*
X-12743304Y-7183517D01*
X-12765225Y-7293723D01*
X-12948995Y-7349469D01*
X-13146171Y-7454861D01*
X-13275692Y-7561157D01*
X-14132354Y-8417820D01*
X-14238649Y-8547341D01*
X-14344042Y-8744517D01*
X-14408943Y-8958465D01*
X-14430857Y-9180963D01*
X-16908099Y-9180963D01*
X-13088169Y-5366367D01*
X-13023963Y-5288242D01*
X-13015113Y-5271713D01*
X-11944761Y-3814605D01*
X-11943580Y-3812864D01*
X-11942295Y-3811225D01*
X-11917499Y-3774602D01*
X-11334119Y-2850000D01*
X-5328581Y-2850000D01*
X-5328581Y-7100000D01*
X-5326141Y-7124776D01*
X-5318914Y-7148601D01*
X-5307178Y-7170557D01*
X-5291384Y-7189803D01*
X-5272138Y-7205597D01*
X-5250182Y-7217333D01*
X-5226357Y-7224560D01*
X-5201581Y-7227000D01*
X-4294924Y-7227000D01*
X-4142889Y-7328586D01*
X-3972729Y-7399068D01*
X-3792089Y-7435000D01*
X-3607911Y-7435000D01*
X-3427271Y-7399068D01*
X-3257111Y-7328586D01*
X-3105076Y-7227000D01*
X1871755Y-7227000D01*
X1850932Y-7277271D01*
X1815000Y-7457911D01*
X1815000Y-7642089D01*
X1850932Y-7822729D01*
X1921414Y-7992889D01*
X2023738Y-8146028D01*
X2153972Y-8276262D01*
X2307111Y-8378586D01*
X2477271Y-8449068D01*
X2657911Y-8485000D01*
X2842089Y-8485000D01*
X3022729Y-8449068D01*
X3192889Y-8378586D01*
X3346028Y-8276262D01*
X3476262Y-8146028D01*
X3578586Y-7992889D01*
X3649068Y-7822729D01*
X3685000Y-7642089D01*
X3685000Y-7457911D01*
X3649068Y-7277271D01*
X3628056Y-7226543D01*
X3648195Y-7224560D01*
X3672020Y-7217333D01*
X3693976Y-7205597D01*
X3713222Y-7189803D01*
X3729016Y-7170557D01*
X3740752Y-7148601D01*
X3747979Y-7124776D01*
X3750419Y-7100000D01*
X3750419Y-6590179D01*
X3799068Y-6472729D01*
X3835000Y-6292089D01*
X3835000Y-6107911D01*
X3799068Y-5927271D01*
X3750419Y-5809821D01*
X3750419Y-4907911D01*
X6519001Y-4907911D01*
X6519001Y-5092089D01*
X6554933Y-5272729D01*
X6625415Y-5442889D01*
X6727739Y-5596028D01*
X6857973Y-5726262D01*
X7011112Y-5828586D01*
X7181272Y-5899068D01*
X7361912Y-5935000D01*
X7546090Y-5935000D01*
X7726730Y-5899068D01*
X7896890Y-5828586D01*
X8050029Y-5726262D01*
X8180263Y-5596028D01*
X8282587Y-5442889D01*
X8353069Y-5272729D01*
X8389001Y-5092089D01*
X8389001Y-4907911D01*
X8353069Y-4727271D01*
X8282587Y-4557111D01*
X8180263Y-4403972D01*
X8050029Y-4273738D01*
X7896890Y-4171414D01*
X7726730Y-4100932D01*
X7546090Y-4065000D01*
X7361912Y-4065000D01*
X7181272Y-4100932D01*
X7011112Y-4171414D01*
X6857973Y-4273738D01*
X6727739Y-4403972D01*
X6625415Y-4557111D01*
X6554933Y-4727271D01*
X6519001Y-4907911D01*
X3750419Y-4907911D01*
X3750419Y-3375000D01*
X3747979Y-3350224D01*
X3740752Y-3326399D01*
X3729016Y-3304443D01*
X3713222Y-3285197D01*
X3693976Y-3269403D01*
X3672020Y-3257667D01*
X3648195Y-3250440D01*
X3623419Y-3248000D01*
X1499626Y-3248000D01*
X900808Y-2671361D01*
X993560Y-2652911D01*
X1145521Y-2589967D01*
X1282281Y-2498587D01*
X1398587Y-2382281D01*
X1489967Y-2245521D01*
X1526256Y-2157911D01*
X3740000Y-2157911D01*
X3740000Y-2342089D01*
X3775932Y-2522729D01*
X3846414Y-2692889D01*
X3948738Y-2846028D01*
X4078972Y-2976262D01*
X4232111Y-3078586D01*
X4402271Y-3149068D01*
X4582911Y-3185000D01*
X4767089Y-3185000D01*
X4947729Y-3149068D01*
X5117889Y-3078586D01*
X5271028Y-2976262D01*
X5401262Y-2846028D01*
X5503586Y-2692889D01*
X5574068Y-2522729D01*
X5610000Y-2342089D01*
X5610000Y-2157911D01*
X5574068Y-1977271D01*
X5503586Y-1807111D01*
X5401262Y-1653972D01*
X5271028Y-1523738D01*
X5117889Y-1421414D01*
X4947729Y-1350932D01*
X4767089Y-1315000D01*
X4582911Y-1315000D01*
X4402271Y-1350932D01*
X4232111Y-1421414D01*
X4078972Y-1523738D01*
X3948738Y-1653972D01*
X3846414Y-1807111D01*
X3775932Y-1977271D01*
X3740000Y-2157911D01*
X1526256Y-2157911D01*
X1552911Y-2093560D01*
X1585000Y-1932240D01*
X1585000Y-1767760D01*
X1552911Y-1606440D01*
X1489967Y-1454479D01*
X1398587Y-1317719D01*
X1282281Y-1201413D01*
X1145521Y-1110033D01*
X993560Y-1047089D01*
X832240Y-1015000D01*
X667760Y-1015000D01*
X506440Y-1047089D01*
X354479Y-1110033D01*
X226469Y-1195567D01*
X227000Y-750152D01*
X224589Y-725372D01*
X217391Y-701539D01*
X205681Y-679569D01*
X189910Y-660305D01*
X170683Y-644488D01*
X148741Y-632725D01*
X124925Y-625470D01*
X100000Y-623000D01*
X-2100000Y-623000D01*
X-2124776Y-625440D01*
X-2148601Y-632667D01*
X-2170557Y-644403D01*
X-2189803Y-660197D01*
X-2205597Y-679443D01*
X-2217333Y-701399D01*
X-2224560Y-725224D01*
X-2227000Y-749799D01*
X-2228499Y-1698165D01*
X-3230043Y-2723000D01*
X-5201581Y-2723000D01*
X-5226357Y-2725440D01*
X-5250182Y-2732667D01*
X-5272138Y-2744403D01*
X-5291384Y-2760197D01*
X-5307178Y-2779443D01*
X-5318914Y-2801399D01*
X-5326141Y-2825224D01*
X-5328581Y-2850000D01*
X-11334119Y-2850000D01*
X-10796437Y-1997827D01*
X-10794640Y-1994728D01*
X-10792641Y-1991741D01*
X-10770708Y-1953444D01*
X-10770661Y-1953362D01*
X-10770656Y-1953351D01*
X-10640428Y-1707911D01*
X-7158000Y-1707911D01*
X-7158000Y-1892089D01*
X-7122068Y-2072729D01*
X-7051586Y-2242889D01*
X-6949262Y-2396028D01*
X-6819028Y-2526262D01*
X-6665889Y-2628586D01*
X-6495729Y-2699068D01*
X-6315089Y-2735000D01*
X-6130911Y-2735000D01*
X-5950271Y-2699068D01*
X-5780111Y-2628586D01*
X-5626972Y-2526262D01*
X-5496738Y-2396028D01*
X-5394414Y-2242889D01*
X-5323932Y-2072729D01*
X-5288000Y-1892089D01*
X-5288000Y-1707911D01*
X-5323932Y-1527271D01*
X-5394414Y-1357111D01*
X-5496738Y-1203972D01*
X-5626972Y-1073738D01*
X-5780111Y-971414D01*
X-5950271Y-900932D01*
X-6130911Y-865000D01*
X-6315089Y-865000D01*
X-6495729Y-900932D01*
X-6665889Y-971414D01*
X-6819028Y-1073738D01*
X-6949262Y-1203972D01*
X-7051586Y-1357111D01*
X-7122068Y-1527271D01*
X-7158000Y-1707911D01*
X-10640428Y-1707911D01*
X-9785974Y-97531D01*
X-9784408Y-94291D01*
X-9782646Y-91177D01*
X-9763605Y-51258D01*
X-9604486Y312089D01*
X-6734999Y312089D01*
X-6734999Y127911D01*
X-6699067Y-52729D01*
X-6628585Y-222889D01*
X-6526261Y-376028D01*
X-6396027Y-506262D01*
X-6242888Y-608586D01*
X-6072728Y-679068D01*
X-5892088Y-715000D01*
X-5707910Y-715000D01*
X-5527270Y-679068D01*
X-5357110Y-608586D01*
X-5203971Y-506262D01*
X-5073737Y-376028D01*
X-4971413Y-222889D01*
X-4900931Y-52729D01*
X-4864999Y127911D01*
X-4864999Y312089D01*
X-4900931Y492729D01*
X-4971413Y662889D01*
X-5073737Y816028D01*
X-5203971Y946262D01*
X-5357110Y1048586D01*
X-5527270Y1119068D01*
X-5707910Y1155000D01*
X-5892088Y1155000D01*
X-6072728Y1119068D01*
X-6242888Y1048586D01*
X-6396027Y946262D01*
X-6526261Y816028D01*
X-6628585Y662889D01*
X-6699067Y492729D01*
X-6734999Y312089D01*
X-9604486Y312089D01*
X-8920839Y1873180D01*
X-8919525Y1876515D01*
X-8917996Y1879765D01*
X-8902002Y1921000D01*
X-8345087Y3506863D01*
X-2485000Y3506863D01*
X-2485000Y3293137D01*
X-2443304Y3083517D01*
X-2361515Y2886060D01*
X-2242775Y2708353D01*
X-2091647Y2557225D01*
X-1913940Y2438485D01*
X-1716483Y2356696D01*
X-1506863Y2315000D01*
X-1293137Y2315000D01*
X-1083517Y2356696D01*
X-1014869Y2385131D01*
X-1043304Y2316483D01*
X-1085000Y2106863D01*
X-1085000Y1893137D01*
X-1043304Y1683517D01*
X-1014869Y1614869D01*
X-1083517Y1643304D01*
X-1293137Y1685000D01*
X-1506863Y1685000D01*
X-1716483Y1643304D01*
X-1913940Y1561515D01*
X-2091647Y1442775D01*
X-2242775Y1291647D01*
X-2361515Y1113940D01*
X-2443304Y916483D01*
X-2485000Y706863D01*
X-2485000Y493137D01*
X-2443304Y283517D01*
X-2361515Y86060D01*
X-2242775Y-91647D01*
X-2091647Y-242775D01*
X-1913940Y-361515D01*
X-1716483Y-443304D01*
X-1506863Y-485000D01*
X-1293137Y-485000D01*
X-1083517Y-443304D01*
X-886060Y-361515D01*
X-708353Y-242775D01*
X-557225Y-91647D01*
X-438485Y86060D01*
X-356696Y283517D01*
X-315000Y493137D01*
X-315000Y706863D01*
X-356696Y916483D01*
X-385131Y985131D01*
X-316483Y956696D01*
X-106863Y915000D01*
X106863Y915000D01*
X316483Y956696D01*
X385131Y985131D01*
X356696Y916483D01*
X315000Y706863D01*
X315000Y493137D01*
X356696Y283517D01*
X438485Y86060D01*
X557225Y-91647D01*
X708353Y-242775D01*
X886060Y-361515D01*
X1083517Y-443304D01*
X1293137Y-485000D01*
X1506863Y-485000D01*
X1716483Y-443304D01*
X1913940Y-361515D01*
X2091647Y-242775D01*
X2242775Y-91647D01*
X2361515Y86060D01*
X2443304Y283517D01*
X2485000Y493137D01*
X2485000Y706863D01*
X2477994Y742089D01*
X4815000Y742089D01*
X4815000Y557911D01*
X4850932Y377271D01*
X4921414Y207111D01*
X5023738Y53972D01*
X5153972Y-76262D01*
X5307111Y-178586D01*
X5477271Y-249068D01*
X5657911Y-285000D01*
X5842089Y-285000D01*
X6022729Y-249068D01*
X6192889Y-178586D01*
X6346028Y-76262D01*
X6476262Y53972D01*
X6578586Y207111D01*
X6649068Y377271D01*
X6685000Y557911D01*
X6685000Y742089D01*
X6649068Y922729D01*
X6648155Y924933D01*
X6796028Y1023738D01*
X6926262Y1153972D01*
X7028586Y1307111D01*
X7099068Y1477271D01*
X7135000Y1657911D01*
X7135000Y1842089D01*
X7099068Y2022729D01*
X7028586Y2192889D01*
X6926262Y2346028D01*
X6796028Y2476262D01*
X6642889Y2578586D01*
X6472729Y2649068D01*
X6292089Y2685000D01*
X6107911Y2685000D01*
X5927271Y2649068D01*
X5757111Y2578586D01*
X5603972Y2476262D01*
X5473738Y2346028D01*
X5371414Y2192889D01*
X5300932Y2022729D01*
X5265000Y1842089D01*
X5265000Y1657911D01*
X5300932Y1477271D01*
X5301845Y1475067D01*
X5153972Y1376262D01*
X5023738Y1246028D01*
X4921414Y1092889D01*
X4850932Y922729D01*
X4815000Y742089D01*
X2477994Y742089D01*
X2443304Y916483D01*
X2361515Y1113940D01*
X2242775Y1291647D01*
X2091647Y1442775D01*
X1913940Y1561515D01*
X1716483Y1643304D01*
X1506863Y1685000D01*
X1293137Y1685000D01*
X1083517Y1643304D01*
X1014869Y1614869D01*
X1043304Y1683517D01*
X1085000Y1893137D01*
X1085000Y2106863D01*
X1043304Y2316483D01*
X1014869Y2385131D01*
X1083517Y2356696D01*
X1293137Y2315000D01*
X1506863Y2315000D01*
X1716483Y2356696D01*
X1913940Y2438485D01*
X2091647Y2557225D01*
X2242775Y2708353D01*
X2361515Y2886060D01*
X2443304Y3083517D01*
X2485000Y3293137D01*
X2485000Y3506863D01*
X2443304Y3716483D01*
X2361515Y3913940D01*
X2242775Y4091647D01*
X2091647Y4242775D01*
X1913940Y4361515D01*
X1716483Y4443304D01*
X1506863Y4485000D01*
X1293137Y4485000D01*
X1083517Y4443304D01*
X886060Y4361515D01*
X708353Y4242775D01*
X557225Y4091647D01*
X438485Y3913940D01*
X356696Y3716483D01*
X315000Y3506863D01*
X315000Y3293137D01*
X356696Y3083517D01*
X385131Y3014869D01*
X316483Y3043304D01*
X106863Y3085000D01*
X-106863Y3085000D01*
X-316483Y3043304D01*
X-385131Y3014869D01*
X-356696Y3083517D01*
X-315000Y3293137D01*
X-315000Y3506863D01*
X-356696Y3716483D01*
X-438485Y3913940D01*
X-557225Y4091647D01*
X-708353Y4242775D01*
X-886060Y4361515D01*
X-1083517Y4443304D01*
X-1293137Y4485000D01*
X-1506863Y4485000D01*
X-1716483Y4443304D01*
X-1913940Y4361515D01*
X-2091647Y4242775D01*
X-2242775Y4091647D01*
X-2361515Y3913940D01*
X-2443304Y3716483D01*
X-2485000Y3506863D01*
X-8345087Y3506863D01*
X-8205900Y3903208D01*
X-8204837Y3906643D01*
X-8203559Y3909989D01*
X-8190702Y3952307D01*
X-7953240Y4835445D01*
X-6578356Y4835445D01*
X-6578356Y4651267D01*
X-6542424Y4470627D01*
X-6471942Y4300467D01*
X-6369618Y4147328D01*
X-6239384Y4017094D01*
X-6086245Y3914770D01*
X-5916085Y3844288D01*
X-5735445Y3808356D01*
X-5551267Y3808356D01*
X-5370627Y3844288D01*
X-5200467Y3914770D01*
X-5047328Y4017094D01*
X-4917094Y4147328D01*
X-4814770Y4300467D01*
X-4744288Y4470627D01*
X-4708356Y4651267D01*
X-4708356Y4835445D01*
X-4744288Y5016085D01*
X-4814770Y5186245D01*
X-4917094Y5339384D01*
X-5047328Y5469618D01*
X-5200467Y5571942D01*
X-5370627Y5642424D01*
X-5551267Y5678356D01*
X-5735445Y5678356D01*
X-5916085Y5642424D01*
X-6086245Y5571942D01*
X-6239384Y5469618D01*
X-6369618Y5339384D01*
X-6471942Y5186245D01*
X-6542424Y5016085D01*
X-6578356Y4835445D01*
X-7953240Y4835445D01*
X-7645183Y5981129D01*
X-7644382Y5984628D01*
X-7643357Y5988065D01*
X-7633749Y6031047D01*
X-7633708Y6031228D01*
X-7633704Y6031254D01*
X-7441791Y7042089D01*
X-2335000Y7042089D01*
X-2335000Y6857911D01*
X-2299068Y6677271D01*
X-2228586Y6507111D01*
X-2126262Y6353972D01*
X-1996028Y6223738D01*
X-1842889Y6121414D01*
X-1672729Y6050932D01*
X-1492089Y6015000D01*
X-1307911Y6015000D01*
X-1127271Y6050932D01*
X-957111Y6121414D01*
X-803972Y6223738D01*
X-673738Y6353972D01*
X-571414Y6507111D01*
X-500932Y6677271D01*
X-465000Y6857911D01*
X-465000Y7042089D01*
X-500932Y7222729D01*
X-571414Y7392889D01*
X-673738Y7546028D01*
X-803972Y7676262D01*
X-957111Y7778586D01*
X-1127271Y7849068D01*
X-1307911Y7885000D01*
X-1492089Y7885000D01*
X-1672729Y7849068D01*
X-1842889Y7778586D01*
X-1996028Y7676262D01*
X-2126262Y7546028D01*
X-2228586Y7392889D01*
X-2299068Y7222729D01*
X-2335000Y7042089D01*
X-7441791Y7042089D01*
X-7241842Y8095241D01*
X-7241303Y8098803D01*
X-7240542Y8102295D01*
X-7234157Y8146060D01*
X-6998152Y10233646D01*
X-6997883Y10237229D01*
X-6997384Y10240777D01*
X-6994298Y10284898D01*
X-6916261Y12363549D01*
X-6915000Y12376353D01*
X-6915000Y13475752D01*
X-5455000Y13475752D01*
X-5455000Y12264249D01*
X-5438577Y12097502D01*
X-5373676Y11883554D01*
X-5268284Y11686377D01*
X-5237874Y11649322D01*
X-5261515Y11613940D01*
X-5343304Y11416483D01*
X-5385000Y11206863D01*
X-5385000Y10993137D01*
X-5343304Y10783517D01*
X-5261515Y10586060D01*
X-5142775Y10408353D01*
X-4991647Y10257225D01*
X-4813940Y10138485D01*
X-4616483Y10056696D01*
X-4406863Y10015000D01*
X-4193137Y10015000D01*
X-3983517Y10056696D01*
X-3786060Y10138485D01*
X-3608353Y10257225D01*
X-3511846Y10353732D01*
X-3493304Y10260517D01*
X-3411515Y10063060D01*
X-3292775Y9885353D01*
X-3141647Y9734225D01*
X-2963940Y9615485D01*
X-2766483Y9533696D01*
X-2556863Y9492000D01*
X-2343137Y9492000D01*
X-2133517Y9533696D01*
X-1936060Y9615485D01*
X-1758353Y9734225D01*
X-1607225Y9885353D01*
X-1488485Y10063060D01*
X-1406696Y10260517D01*
X-1365000Y10470137D01*
X-1365000Y10683863D01*
X165000Y10683863D01*
X165000Y10470137D01*
X206696Y10260517D01*
X288485Y10063060D01*
X407225Y9885353D01*
X558353Y9734225D01*
X736060Y9615485D01*
X933517Y9533696D01*
X1143137Y9492000D01*
X1356863Y9492000D01*
X1566483Y9533696D01*
X1763940Y9615485D01*
X1941647Y9734225D01*
X2092775Y9885353D01*
X2211515Y10063060D01*
X2293304Y10260517D01*
X2335000Y10470137D01*
X2335000Y10683863D01*
X2293304Y10893483D01*
X2211515Y11090940D01*
X2092775Y11268647D01*
X1941647Y11419775D01*
X1763940Y11538515D01*
X1566483Y11620304D01*
X1356863Y11662000D01*
X1143137Y11662000D01*
X933517Y11620304D01*
X736060Y11538515D01*
X558353Y11419775D01*
X407225Y11268647D01*
X288485Y11090940D01*
X206696Y10893483D01*
X165000Y10683863D01*
X-1365000Y10683863D01*
X-1406696Y10893483D01*
X-1488485Y11090940D01*
X-1607225Y11268647D01*
X-1758353Y11419775D01*
X-1936060Y11538515D01*
X-2133517Y11620304D01*
X-2343137Y11662000D01*
X-2556863Y11662000D01*
X-2766483Y11620304D01*
X-2963940Y11538515D01*
X-3141647Y11419775D01*
X-3238154Y11323268D01*
X-3256696Y11416483D01*
X-3338485Y11613940D01*
X-3380078Y11676188D01*
X-3371716Y11686377D01*
X-3266324Y11883553D01*
X-3201423Y12097501D01*
X-3185000Y12264248D01*
X-3185000Y12483096D01*
X-3170022Y12476892D01*
X-2984552Y12440000D01*
X-2795448Y12440000D01*
X-2609978Y12476892D01*
X-2435269Y12549259D01*
X-2278036Y12654319D01*
X-2144319Y12788036D01*
X-2039259Y12945269D01*
X-1966892Y13119978D01*
X-1960025Y13154502D01*
X-1926262Y13103972D01*
X-1796028Y12973738D01*
X-1642889Y12871414D01*
X-1472729Y12800932D01*
X-1292089Y12765000D01*
X-1107911Y12765000D01*
X-927271Y12800932D01*
X-757111Y12871414D01*
X-603972Y12973738D01*
X-473738Y13103972D01*
X-419796Y13184703D01*
X-399262Y13153972D01*
X-269028Y13023738D01*
X-115889Y12921414D01*
X54271Y12850932D01*
X234911Y12815000D01*
X419089Y12815000D01*
X599729Y12850932D01*
X769889Y12921414D01*
X923028Y13023738D01*
X1053262Y13153972D01*
X1155586Y13307111D01*
X1226068Y13477271D01*
X1229505Y13494552D01*
X1930000Y13494552D01*
X1930000Y13305448D01*
X1966892Y13119978D01*
X2039259Y12945269D01*
X2144319Y12788036D01*
X2278036Y12654319D01*
X2435269Y12549259D01*
X2609978Y12476892D01*
X2795448Y12440000D01*
X2984552Y12440000D01*
X3170022Y12476892D01*
X3185000Y12483096D01*
X3185000Y12264249D01*
X3201423Y12097502D01*
X3266324Y11883554D01*
X3371716Y11686377D01*
X3380078Y11676188D01*
X3338485Y11613940D01*
X3256696Y11416483D01*
X3215000Y11206863D01*
X3215000Y10993137D01*
X3256696Y10783517D01*
X3338485Y10586060D01*
X3457225Y10408353D01*
X3523862Y10341716D01*
X3438485Y10213940D01*
X3356696Y10016483D01*
X3315000Y9806863D01*
X3315000Y9593137D01*
X3356696Y9383517D01*
X3438485Y9186060D01*
X3557225Y9008353D01*
X3708353Y8857225D01*
X3886060Y8738485D01*
X4083517Y8656696D01*
X4293137Y8615000D01*
X4506863Y8615000D01*
X4716483Y8656696D01*
X4913940Y8738485D01*
X5091647Y8857225D01*
X5242775Y9008353D01*
X5361515Y9186060D01*
X5443304Y9383517D01*
X5485000Y9593137D01*
X5485000Y9806863D01*
X5443304Y10016483D01*
X5361515Y10213940D01*
X5242775Y10391647D01*
X5176138Y10458284D01*
X5261515Y10586060D01*
X5343304Y10783517D01*
X5385000Y10993137D01*
X5385000Y11206863D01*
X5343304Y11416483D01*
X5261515Y11613940D01*
X5237874Y11649322D01*
X5268284Y11686377D01*
X5373676Y11883553D01*
X5438577Y12097501D01*
X5455000Y12264248D01*
X5455000Y13475752D01*
X5438577Y13642499D01*
X5373676Y13856447D01*
X5268284Y14053623D01*
X5126449Y14226449D01*
X4953623Y14368284D01*
X4756447Y14473676D01*
X4542499Y14538577D01*
X4320000Y14560491D01*
X4097502Y14538577D01*
X3883554Y14473676D01*
X3686378Y14368284D01*
X3513552Y14226449D01*
X3466638Y14169285D01*
X3344731Y14250741D01*
X3170022Y14323108D01*
X2984552Y14360000D01*
X2795448Y14360000D01*
X2609978Y14323108D01*
X2435269Y14250741D01*
X2278036Y14145681D01*
X2144319Y14011964D01*
X2039259Y13854731D01*
X1966892Y13680022D01*
X1930000Y13494552D01*
X1229505Y13494552D01*
X1262000Y13657911D01*
X1262000Y13842089D01*
X1226068Y14022729D01*
X1155586Y14192889D01*
X1053262Y14346028D01*
X923028Y14476262D01*
X769889Y14578586D01*
X599729Y14649068D01*
X419089Y14685000D01*
X234911Y14685000D01*
X54271Y14649068D01*
X-115889Y14578586D01*
X-269028Y14476262D01*
X-399262Y14346028D01*
X-453204Y14265297D01*
X-473738Y14296028D01*
X-603972Y14426262D01*
X-757111Y14528586D01*
X-927271Y14599068D01*
X-1107911Y14635000D01*
X-1292089Y14635000D01*
X-1472729Y14599068D01*
X-1642889Y14528586D01*
X-1796028Y14426262D01*
X-1926262Y14296028D01*
X-2028586Y14142889D01*
X-2099068Y13972729D01*
X-2103435Y13950776D01*
X-2144319Y14011964D01*
X-2278036Y14145681D01*
X-2435269Y14250741D01*
X-2609978Y14323108D01*
X-2795448Y14360000D01*
X-2984552Y14360000D01*
X-3170022Y14323108D01*
X-3344731Y14250741D01*
X-3466638Y14169285D01*
X-3513551Y14226449D01*
X-3686377Y14368284D01*
X-3883553Y14473676D01*
X-4097501Y14538577D01*
X-4320000Y14560491D01*
X-4542498Y14538577D01*
X-4756446Y14473676D01*
X-4953622Y14368284D01*
X-5126448Y14226449D01*
X-5268283Y14053623D01*
X-5373676Y13856447D01*
X-5438577Y13642499D01*
X-5455000Y13475752D01*
X-6915000Y13475752D01*
X-6915000Y16207366D01*
X-6899068Y16127271D01*
X-6828586Y15957111D01*
X-6726262Y15803972D01*
X-6596028Y15673738D01*
X-6442889Y15571414D01*
X-6272729Y15500932D01*
X-6092089Y15465000D01*
X-5907911Y15465000D01*
X-5727271Y15500932D01*
X-5557111Y15571414D01*
X-5403972Y15673738D01*
X-5273738Y15803972D01*
X-5171414Y15957111D01*
X-5160064Y15984511D01*
X-5126449Y15943551D01*
X-4953623Y15801716D01*
X-4756447Y15696324D01*
X-4542499Y15631423D01*
X-4320000Y15609509D01*
X-4097502Y15631423D01*
X-3883554Y15696324D01*
X-3686377Y15801716D01*
X-3513551Y15943551D01*
X-3371716Y16116377D01*
X-3266324Y16313553D01*
X-3201423Y16527501D01*
X-3185000Y16694248D01*
X-3185000Y17405751D01*
X-3201423Y17572498D01*
X-3266324Y17786446D01*
X-3371716Y17983623D01*
X-3513551Y18156449D01*
X-3686377Y18298284D01*
X-3883553Y18403676D01*
X-4097501Y18468577D01*
X-4320000Y18490491D01*
X-4542498Y18468577D01*
X-4756446Y18403676D01*
X-4953622Y18298284D01*
X-5126448Y18156449D01*
X-5268283Y17983623D01*
X-5373676Y17786447D01*
X-5438577Y17572499D01*
X-5455000Y17405752D01*
X-5455000Y17160358D01*
X-5557111Y17228586D01*
X-5727271Y17299068D01*
X-5907911Y17335000D01*
X-6092089Y17335000D01*
X-6272729Y17299068D01*
X-6442889Y17228586D01*
X-6596028Y17126262D01*
X-6726262Y16996028D01*
X-6828586Y16842889D01*
X-6899068Y16672729D01*
X-6915000Y16592634D01*
X-6915000Y19515000D01*
X6915000Y19515000D01*
X6915000Y16592634D01*
G04 #@! TA.AperFunction,Conductor*
D16*
G36*
X6915000Y16592634D02*
G01*
X6899068Y16672729D01*
X6828586Y16842889D01*
X6726262Y16996028D01*
X6596028Y17126262D01*
X6442889Y17228586D01*
X6272729Y17299068D01*
X6092089Y17335000D01*
X5907911Y17335000D01*
X5727271Y17299068D01*
X5557111Y17228586D01*
X5455000Y17160358D01*
X5455000Y17405751D01*
X5438577Y17572498D01*
X5373676Y17786446D01*
X5268284Y17983623D01*
X5126449Y18156449D01*
X4953623Y18298284D01*
X4756447Y18403676D01*
X4542499Y18468577D01*
X4320000Y18490491D01*
X4097502Y18468577D01*
X3883554Y18403676D01*
X3686378Y18298284D01*
X3513552Y18156449D01*
X3371717Y17983623D01*
X3266324Y17786447D01*
X3201423Y17572499D01*
X3185000Y17405752D01*
X3185000Y16694249D01*
X3201423Y16527502D01*
X3266324Y16313554D01*
X3371716Y16116377D01*
X3513551Y15943551D01*
X3686377Y15801716D01*
X3883553Y15696324D01*
X4097501Y15631423D01*
X4320000Y15609509D01*
X4542498Y15631423D01*
X4756446Y15696324D01*
X4953623Y15801716D01*
X5126449Y15943551D01*
X5160064Y15984511D01*
X5171414Y15957111D01*
X5273738Y15803972D01*
X5403972Y15673738D01*
X5557111Y15571414D01*
X5727271Y15500932D01*
X5907911Y15465000D01*
X6092089Y15465000D01*
X6272729Y15500932D01*
X6442889Y15571414D01*
X6596028Y15673738D01*
X6726262Y15803972D01*
X6828586Y15957111D01*
X6899068Y16127271D01*
X6915001Y16207366D01*
X6915001Y12376353D01*
X6916113Y12365058D01*
X6976815Y10533440D01*
X6976962Y10531356D01*
X6976966Y10529281D01*
X6980125Y10485165D01*
X7197769Y8395586D01*
X7198273Y8392040D01*
X7198549Y8388456D01*
X7205007Y8344702D01*
X7578713Y6277323D01*
X7579484Y6273817D01*
X7580026Y6270271D01*
X7589747Y6227125D01*
X8117410Y4193586D01*
X8118441Y4190150D01*
X8119248Y4186652D01*
X8132176Y4144356D01*
X8810826Y2156104D01*
X8812114Y2152749D01*
X8813179Y2149328D01*
X8829242Y2108120D01*
X9655057Y176349D01*
X9656595Y173095D01*
X9657912Y169768D01*
X9677019Y129881D01*
X10645353Y-1734533D01*
X10647123Y-1737649D01*
X10648692Y-1740881D01*
X10670655Y-1779081D01*
X10670736Y-1779224D01*
X10670749Y-1779243D01*
X11776135Y-3565786D01*
X11778143Y-3568774D01*
X11779942Y-3571866D01*
X11804799Y-3608448D01*
X13014631Y-5270812D01*
X13023963Y-5288241D01*
X13088169Y-5366365D01*
X19380925Y-11650338D01*
X9650000Y-21381264D01*
X8060574Y-19791840D01*
X8046706Y-19780459D01*
X7222304Y-19038163D01*
X7215277Y-19032574D01*
X7208821Y-19026339D01*
X7161730Y-18989548D01*
X6093365Y-18227491D01*
X6083217Y-18221150D01*
X6073661Y-18213949D01*
X6022438Y-18183170D01*
X4869164Y-17556993D01*
X4858314Y-17551933D01*
X4847955Y-17545953D01*
X4793363Y-17521647D01*
X3572374Y-17040687D01*
X3560993Y-17036989D01*
X3549979Y-17032314D01*
X3492831Y-17014842D01*
X3079360Y-16907911D01*
X5065000Y-16907911D01*
X5065000Y-17092089D01*
X5100932Y-17272729D01*
X5171414Y-17442889D01*
X5273738Y-17596028D01*
X5403972Y-17726262D01*
X5557111Y-17828586D01*
X5727271Y-17899068D01*
X5907911Y-17935000D01*
X6092089Y-17935000D01*
X6272729Y-17899068D01*
X6442889Y-17828586D01*
X6596028Y-17726262D01*
X6677259Y-17645031D01*
X8395138Y-17645031D01*
X8417052Y-17867529D01*
X8481953Y-18081477D01*
X8587346Y-18278653D01*
X8693641Y-18408174D01*
X9196750Y-18911283D01*
X9326271Y-19017579D01*
X9523447Y-19122971D01*
X9737394Y-19187872D01*
X9959893Y-19209786D01*
X10182391Y-19187872D01*
X10396339Y-19122971D01*
X10593515Y-19017579D01*
X10766341Y-18875743D01*
X10908177Y-18702917D01*
X11013569Y-18505741D01*
X11078470Y-18291793D01*
X11100384Y-18069295D01*
X11078470Y-17846796D01*
X11013569Y-17632849D01*
X10908177Y-17435673D01*
X10801881Y-17306152D01*
X10298772Y-16803043D01*
X10169251Y-16696748D01*
X9972075Y-16591355D01*
X9758127Y-16526454D01*
X9535629Y-16504540D01*
X9313131Y-16526454D01*
X9099183Y-16591355D01*
X8902007Y-16696748D01*
X8729181Y-16838583D01*
X8587346Y-17011409D01*
X8481953Y-17208585D01*
X8417052Y-17422533D01*
X8395138Y-17645031D01*
X6677259Y-17645031D01*
X6726262Y-17596028D01*
X6828586Y-17442889D01*
X6899068Y-17272729D01*
X6935000Y-17092089D01*
X6935000Y-16907911D01*
X6899068Y-16727271D01*
X6828586Y-16557111D01*
X6726262Y-16403972D01*
X6596028Y-16273738D01*
X6442889Y-16171414D01*
X6272729Y-16100932D01*
X6092089Y-16065000D01*
X5907911Y-16065000D01*
X5727271Y-16100932D01*
X5557111Y-16171414D01*
X5403972Y-16273738D01*
X5273738Y-16403972D01*
X5171414Y-16557111D01*
X5100932Y-16727271D01*
X5065000Y-16907911D01*
X3079360Y-16907911D01*
X2222329Y-16686268D01*
X2210579Y-16683984D01*
X2199081Y-16680687D01*
X2140230Y-16670309D01*
X839155Y-16499019D01*
X827212Y-16498184D01*
X815399Y-16496313D01*
X755722Y-16493185D01*
X-556530Y-16481733D01*
X-568485Y-16482359D01*
X-580439Y-16481942D01*
X-640049Y-16486110D01*
X-640055Y-16486110D01*
X-1943918Y-16634667D01*
X-1955704Y-16636745D01*
X-1967623Y-16637788D01*
X-2026274Y-16649189D01*
X-2026285Y-16649191D01*
X-2026289Y-16649192D01*
X-3302327Y-16955542D01*
X-3313766Y-16959039D01*
X-3325475Y-16961528D01*
X-3382293Y-16979990D01*
X-3382310Y-16979995D01*
X-3382315Y-16979997D01*
X-4611506Y-17439573D01*
X-4622433Y-17444438D01*
X-4633751Y-17448335D01*
X-4687911Y-17473590D01*
X-5851938Y-18079543D01*
X-5862206Y-18085713D01*
X-5872950Y-18090953D01*
X-5923628Y-18122620D01*
X-7005131Y-18865915D01*
X-7014565Y-18873285D01*
X-7024596Y-18879800D01*
X-7071038Y-18917408D01*
X-8044400Y-19778566D01*
X-8060575Y-19791840D01*
X-9649999Y-21381264D01*
X-12961968Y-18069295D01*
X-11100384Y-18069295D01*
X-11078470Y-18291793D01*
X-11013569Y-18505741D01*
X-10908176Y-18702917D01*
X-10766341Y-18875743D01*
X-10593515Y-19017578D01*
X-10396339Y-19122971D01*
X-10182391Y-19187872D01*
X-9959893Y-19209786D01*
X-9737395Y-19187872D01*
X-9523447Y-19122971D01*
X-9326271Y-19017578D01*
X-9196750Y-18911283D01*
X-8693641Y-18408174D01*
X-8587345Y-18278653D01*
X-8481953Y-18081477D01*
X-8417052Y-17867530D01*
X-8395138Y-17645031D01*
X-8417052Y-17422533D01*
X-8481953Y-17208585D01*
X-8587345Y-17011409D01*
X-8729181Y-16838583D01*
X-8902007Y-16696747D01*
X-9099183Y-16591355D01*
X-9313131Y-16526454D01*
X-9535629Y-16504540D01*
X-9758128Y-16526454D01*
X-9972075Y-16591355D01*
X-10169251Y-16696747D01*
X-10298772Y-16803043D01*
X-10801881Y-17306152D01*
X-10908176Y-17435673D01*
X-11013569Y-17632849D01*
X-11078470Y-17846797D01*
X-11100384Y-18069295D01*
X-12961968Y-18069295D01*
X-16860754Y-14170509D01*
X-9137984Y-14170509D01*
X-9137984Y-14359613D01*
X-9101092Y-14545083D01*
X-9028725Y-14719792D01*
X-8923665Y-14877025D01*
X-8789948Y-15010742D01*
X-8632715Y-15115802D01*
X-8458006Y-15188169D01*
X-8314206Y-15216772D01*
X-8321454Y-15290366D01*
X-8299540Y-15512864D01*
X-8234639Y-15726812D01*
X-8129246Y-15923988D01*
X-7987411Y-16096814D01*
X-7814585Y-16238649D01*
X-7617409Y-16344042D01*
X-7403461Y-16408943D01*
X-7180963Y-16430857D01*
X-6958465Y-16408943D01*
X-6744517Y-16344042D01*
X-6576553Y-16254263D01*
X-6676262Y-16353972D01*
X-6778586Y-16507111D01*
X-6849068Y-16677271D01*
X-6885000Y-16857911D01*
X-6885000Y-17042089D01*
X-6849068Y-17222729D01*
X-6778586Y-17392889D01*
X-6676262Y-17546028D01*
X-6546028Y-17676262D01*
X-6392889Y-17778586D01*
X-6222729Y-17849068D01*
X-6042089Y-17885000D01*
X-5857911Y-17885000D01*
X-5677271Y-17849068D01*
X-5507111Y-17778586D01*
X-5353972Y-17676262D01*
X-5223738Y-17546028D01*
X-5121414Y-17392889D01*
X-5050932Y-17222729D01*
X-5015000Y-17042089D01*
X-5015000Y-16857911D01*
X-5050932Y-16677271D01*
X-5121414Y-16507111D01*
X-5223738Y-16353972D01*
X-5353972Y-16223738D01*
X-5507111Y-16121414D01*
X-5677271Y-16050932D01*
X-5857911Y-16015000D01*
X-6042089Y-16015000D01*
X-6222729Y-16050932D01*
X-6392889Y-16121414D01*
X-6455317Y-16163127D01*
X-6417820Y-16132354D01*
X-5578603Y-15293137D01*
X-4885000Y-15293137D01*
X-4885000Y-15506863D01*
X-4843304Y-15716483D01*
X-4761515Y-15913940D01*
X-4642775Y-16091647D01*
X-4491647Y-16242775D01*
X-4313940Y-16361515D01*
X-4116483Y-16443304D01*
X-3906863Y-16485000D01*
X-3693137Y-16485000D01*
X-3483517Y-16443304D01*
X-3286060Y-16361515D01*
X-3108353Y-16242775D01*
X-2957225Y-16091647D01*
X-2838485Y-15913940D01*
X-2756696Y-15716483D01*
X-2715000Y-15506863D01*
X-2715000Y-15293137D01*
X-2756696Y-15083517D01*
X-2838485Y-14886060D01*
X-2957225Y-14708353D01*
X-3108353Y-14557225D01*
X-3286060Y-14438485D01*
X-3483517Y-14356696D01*
X-3693137Y-14315000D01*
X-3906863Y-14315000D01*
X-4116483Y-14356696D01*
X-4313940Y-14438485D01*
X-4491647Y-14557225D01*
X-4642775Y-14708353D01*
X-4761515Y-14886060D01*
X-4843304Y-15083517D01*
X-4885000Y-15293137D01*
X-5578603Y-15293137D01*
X-5561157Y-15275692D01*
X-5454861Y-15146171D01*
X-5349469Y-14948995D01*
X-5284568Y-14735047D01*
X-5262654Y-14512548D01*
X-5284568Y-14290049D01*
X-5349469Y-14076102D01*
X-5454861Y-13878926D01*
X-5596696Y-13706099D01*
X-5734341Y-13593137D01*
X4615000Y-13593137D01*
X4615000Y-13806863D01*
X4656696Y-14016483D01*
X4738485Y-14213940D01*
X4857225Y-14391647D01*
X5008353Y-14542775D01*
X5186060Y-14661515D01*
X5281208Y-14700926D01*
X5284568Y-14735046D01*
X5349469Y-14948994D01*
X5454862Y-15146170D01*
X5561157Y-15275691D01*
X6417819Y-16132354D01*
X6547340Y-16238650D01*
X6744516Y-16344042D01*
X6958464Y-16408943D01*
X7180963Y-16430857D01*
X7403462Y-16408943D01*
X7617409Y-16344042D01*
X7814585Y-16238650D01*
X7987412Y-16096815D01*
X8129247Y-15923988D01*
X8234639Y-15726812D01*
X8299540Y-15512865D01*
X8321454Y-15290366D01*
X8314206Y-15216772D01*
X8458006Y-15188169D01*
X8632715Y-15115802D01*
X8789948Y-15010742D01*
X8923665Y-14877025D01*
X9028725Y-14719792D01*
X9101092Y-14545083D01*
X9137984Y-14359613D01*
X9137984Y-14170509D01*
X9101092Y-13985039D01*
X9028725Y-13810330D01*
X8923665Y-13653097D01*
X8789948Y-13519380D01*
X8632715Y-13414320D01*
X8458006Y-13341953D01*
X8272536Y-13305061D01*
X8083432Y-13305061D01*
X7897962Y-13341953D01*
X7723253Y-13414320D01*
X7566020Y-13519380D01*
X7432303Y-13653097D01*
X7327243Y-13810330D01*
X7321038Y-13825310D01*
X7166288Y-13670560D01*
X7036767Y-13564265D01*
X6839591Y-13458872D01*
X6753073Y-13432627D01*
X6743304Y-13383517D01*
X6661515Y-13186060D01*
X6542775Y-13008353D01*
X6391647Y-12857225D01*
X6213940Y-12738485D01*
X6016483Y-12656696D01*
X5806863Y-12615000D01*
X5593137Y-12615000D01*
X5383517Y-12656696D01*
X5186060Y-12738485D01*
X5008353Y-12857225D01*
X4857225Y-13008353D01*
X4738485Y-13186060D01*
X4656696Y-13383517D01*
X4615000Y-13593137D01*
X-5734341Y-13593137D01*
X-5769523Y-13564264D01*
X-5966699Y-13458872D01*
X-6180646Y-13393971D01*
X-6403145Y-13372057D01*
X-6625644Y-13393971D01*
X-6839592Y-13458872D01*
X-7036768Y-13564264D01*
X-7166289Y-13670560D01*
X-7321038Y-13825309D01*
X-7327243Y-13810330D01*
X-7432303Y-13653097D01*
X-7566020Y-13519380D01*
X-7723253Y-13414320D01*
X-7897962Y-13341953D01*
X-8083432Y-13305061D01*
X-8272536Y-13305061D01*
X-8458006Y-13341953D01*
X-8632715Y-13414320D01*
X-8789948Y-13519380D01*
X-8923665Y-13653097D01*
X-9028725Y-13810330D01*
X-9101092Y-13985039D01*
X-9137984Y-14170509D01*
X-16860754Y-14170509D01*
X-19071370Y-11959893D01*
X-17209786Y-11959893D01*
X-17187872Y-12182391D01*
X-17122971Y-12396339D01*
X-17017578Y-12593515D01*
X-16875743Y-12766341D01*
X-16702917Y-12908176D01*
X-16505741Y-13013569D01*
X-16291793Y-13078470D01*
X-16069295Y-13100384D01*
X-15846797Y-13078470D01*
X-15632849Y-13013569D01*
X-15435673Y-12908176D01*
X-15306152Y-12801881D01*
X-14803043Y-12298772D01*
X-14696747Y-12169251D01*
X-14591355Y-11972075D01*
X-14526454Y-11758128D01*
X-14524978Y-11743137D01*
X-7485000Y-11743137D01*
X-7485000Y-11956863D01*
X-7443304Y-12166483D01*
X-7361515Y-12363940D01*
X-7242775Y-12541647D01*
X-7091647Y-12692775D01*
X-6913940Y-12811515D01*
X-6716483Y-12893304D01*
X-6506863Y-12935000D01*
X-6293137Y-12935000D01*
X-6083517Y-12893304D01*
X-5886060Y-12811515D01*
X-5708353Y-12692775D01*
X-5557225Y-12541647D01*
X-5438485Y-12363940D01*
X-5356696Y-12166483D01*
X-5315000Y-11956863D01*
X-5315000Y-11782911D01*
X-310000Y-11782911D01*
X-310000Y-11967089D01*
X-274068Y-12147729D01*
X-203586Y-12317889D01*
X-101262Y-12471028D01*
X28972Y-12601262D01*
X182111Y-12703586D01*
X352271Y-12774068D01*
X532911Y-12810000D01*
X717089Y-12810000D01*
X897729Y-12774068D01*
X1067889Y-12703586D01*
X1221028Y-12601262D01*
X1275000Y-12547290D01*
X1353972Y-12626262D01*
X1507111Y-12728586D01*
X1677271Y-12799068D01*
X1857911Y-12835000D01*
X2042089Y-12835000D01*
X2222729Y-12799068D01*
X2392889Y-12728586D01*
X2546028Y-12626262D01*
X2676262Y-12496028D01*
X2778586Y-12342889D01*
X2849068Y-12172729D01*
X2885000Y-11992089D01*
X2885000Y-11807911D01*
X2849068Y-11627271D01*
X2778586Y-11457111D01*
X2702432Y-11343137D01*
X4915000Y-11343137D01*
X4915000Y-11556863D01*
X4956696Y-11766483D01*
X5038485Y-11963940D01*
X5157225Y-12141647D01*
X5308353Y-12292775D01*
X5486060Y-12411515D01*
X5683517Y-12493304D01*
X5893137Y-12535000D01*
X6106863Y-12535000D01*
X6316483Y-12493304D01*
X6513940Y-12411515D01*
X6691647Y-12292775D01*
X6842775Y-12141647D01*
X6961515Y-11963940D01*
X7043304Y-11766483D01*
X7085000Y-11556863D01*
X7085000Y-11535629D01*
X14504540Y-11535629D01*
X14526454Y-11758127D01*
X14591355Y-11972075D01*
X14696748Y-12169251D01*
X14803043Y-12298772D01*
X15306152Y-12801881D01*
X15435673Y-12908177D01*
X15632849Y-13013569D01*
X15846796Y-13078470D01*
X16069295Y-13100384D01*
X16291793Y-13078470D01*
X16505741Y-13013569D01*
X16702917Y-12908177D01*
X16875743Y-12766341D01*
X17017579Y-12593515D01*
X17122971Y-12396339D01*
X17187872Y-12182391D01*
X17209786Y-11959893D01*
X17187872Y-11737394D01*
X17122971Y-11523447D01*
X17017579Y-11326271D01*
X16911283Y-11196750D01*
X16408174Y-10693641D01*
X16278653Y-10587346D01*
X16081477Y-10481953D01*
X15867529Y-10417052D01*
X15645031Y-10395138D01*
X15422533Y-10417052D01*
X15208585Y-10481953D01*
X15011409Y-10587346D01*
X14838583Y-10729181D01*
X14696748Y-10902007D01*
X14591355Y-11099183D01*
X14526454Y-11313131D01*
X14504540Y-11535629D01*
X7085000Y-11535629D01*
X7085000Y-11492640D01*
X7264555Y-11528356D01*
X7448733Y-11528356D01*
X7629373Y-11492424D01*
X7799533Y-11421942D01*
X7952672Y-11319618D01*
X8082906Y-11189384D01*
X8185230Y-11036245D01*
X8255712Y-10866085D01*
X8291644Y-10685445D01*
X8291644Y-10501267D01*
X8255712Y-10320627D01*
X8205113Y-10198469D01*
X8327271Y-10249068D01*
X8507911Y-10285000D01*
X8692089Y-10285000D01*
X8872729Y-10249068D01*
X9042889Y-10178586D01*
X9196028Y-10076262D01*
X9326262Y-9946028D01*
X9428586Y-9792889D01*
X9499068Y-9622729D01*
X9535000Y-9442089D01*
X9535000Y-9257911D01*
X9500605Y-9085000D01*
X9556863Y-9085000D01*
X9766483Y-9043304D01*
X9963940Y-8961515D01*
X10141647Y-8842775D01*
X10292775Y-8691647D01*
X10411515Y-8513940D01*
X10493304Y-8316483D01*
X10535000Y-8106863D01*
X10535000Y-7893137D01*
X10493304Y-7683517D01*
X10414447Y-7493137D01*
X10615000Y-7493137D01*
X10615000Y-7706863D01*
X10656696Y-7916483D01*
X10738485Y-8113940D01*
X10857225Y-8291647D01*
X11008353Y-8442775D01*
X11186060Y-8561515D01*
X11383517Y-8643304D01*
X11400344Y-8646651D01*
X11458872Y-8839591D01*
X11564265Y-9036767D01*
X11670560Y-9166288D01*
X11825310Y-9321038D01*
X11810330Y-9327243D01*
X11653097Y-9432303D01*
X11519380Y-9566020D01*
X11414320Y-9723253D01*
X11341953Y-9897962D01*
X11305061Y-10083432D01*
X11305061Y-10272536D01*
X11341953Y-10458006D01*
X11414320Y-10632715D01*
X11519380Y-10789948D01*
X11653097Y-10923665D01*
X11810330Y-11028725D01*
X11985039Y-11101092D01*
X12170509Y-11137984D01*
X12359613Y-11137984D01*
X12545083Y-11101092D01*
X12719792Y-11028725D01*
X12877025Y-10923665D01*
X13010742Y-10789948D01*
X13115802Y-10632715D01*
X13188169Y-10458006D01*
X13216772Y-10314206D01*
X13290366Y-10321454D01*
X13512865Y-10299540D01*
X13726812Y-10234639D01*
X13923988Y-10129247D01*
X14096815Y-9987412D01*
X14238650Y-9814585D01*
X14344042Y-9617409D01*
X14408943Y-9403462D01*
X14430857Y-9180963D01*
X14408943Y-8958464D01*
X14344042Y-8744516D01*
X14238650Y-8547340D01*
X14132354Y-8417819D01*
X13275691Y-7561157D01*
X13146170Y-7454862D01*
X12948994Y-7349469D01*
X12744057Y-7287301D01*
X12743304Y-7283517D01*
X12661515Y-7086060D01*
X12542775Y-6908353D01*
X12391647Y-6757225D01*
X12213940Y-6638485D01*
X12016483Y-6556696D01*
X11806863Y-6515000D01*
X11593137Y-6515000D01*
X11383517Y-6556696D01*
X11186060Y-6638485D01*
X11008353Y-6757225D01*
X10857225Y-6908353D01*
X10738485Y-7086060D01*
X10656696Y-7283517D01*
X10615000Y-7493137D01*
X10414447Y-7493137D01*
X10411515Y-7486060D01*
X10292775Y-7308353D01*
X10141647Y-7157225D01*
X9963940Y-7038485D01*
X9766483Y-6956696D01*
X9556863Y-6915000D01*
X9343137Y-6915000D01*
X9133517Y-6956696D01*
X8936060Y-7038485D01*
X8758353Y-7157225D01*
X8607225Y-7308353D01*
X8488485Y-7486060D01*
X8406696Y-7683517D01*
X8365000Y-7893137D01*
X8365000Y-8106863D01*
X8406696Y-8316483D01*
X8452101Y-8426101D01*
X8327271Y-8450932D01*
X8157111Y-8521414D01*
X8003972Y-8623738D01*
X7873738Y-8753972D01*
X7771414Y-8907111D01*
X7700932Y-9077271D01*
X7665000Y-9257911D01*
X7665000Y-9442089D01*
X7700932Y-9622729D01*
X7751531Y-9744887D01*
X7629373Y-9694288D01*
X7448733Y-9658356D01*
X7264555Y-9658356D01*
X7083915Y-9694288D01*
X6913755Y-9764770D01*
X6760616Y-9867094D01*
X6630382Y-9997328D01*
X6528058Y-10150467D01*
X6457576Y-10320627D01*
X6431019Y-10454138D01*
X6316483Y-10406696D01*
X6106863Y-10365000D01*
X5893137Y-10365000D01*
X5683517Y-10406696D01*
X5486060Y-10488485D01*
X5308353Y-10607225D01*
X5157225Y-10758353D01*
X5038485Y-10936060D01*
X4956696Y-11133517D01*
X4915000Y-11343137D01*
X2702432Y-11343137D01*
X2676262Y-11303972D01*
X2546028Y-11173738D01*
X2392889Y-11071414D01*
X2222729Y-11000932D01*
X2042089Y-10965000D01*
X1857911Y-10965000D01*
X1677271Y-11000932D01*
X1507111Y-11071414D01*
X1353972Y-11173738D01*
X1300000Y-11227710D01*
X1221028Y-11148738D01*
X1067889Y-11046414D01*
X897729Y-10975932D01*
X717089Y-10940000D01*
X532911Y-10940000D01*
X352271Y-10975932D01*
X182111Y-11046414D01*
X28972Y-11148738D01*
X-101262Y-11278972D01*
X-203586Y-11432111D01*
X-274068Y-11602271D01*
X-310000Y-11782911D01*
X-5315000Y-11782911D01*
X-5315000Y-11743137D01*
X-5356696Y-11533517D01*
X-5438485Y-11336060D01*
X-5557225Y-11158353D01*
X-5708353Y-11007225D01*
X-5886060Y-10888485D01*
X-6083517Y-10806696D01*
X-6293137Y-10765000D01*
X-6506863Y-10765000D01*
X-6716483Y-10806696D01*
X-6913940Y-10888485D01*
X-7091647Y-11007225D01*
X-7242775Y-11158353D01*
X-7361515Y-11336060D01*
X-7443304Y-11533517D01*
X-7485000Y-11743137D01*
X-14524978Y-11743137D01*
X-14504540Y-11535629D01*
X-14526454Y-11313131D01*
X-14591355Y-11099183D01*
X-14696747Y-10902007D01*
X-14838583Y-10729181D01*
X-15011409Y-10587345D01*
X-15208585Y-10481953D01*
X-15422533Y-10417052D01*
X-15645031Y-10395138D01*
X-15867530Y-10417052D01*
X-16081477Y-10481953D01*
X-16278653Y-10587345D01*
X-16408174Y-10693641D01*
X-16911283Y-11196750D01*
X-17017578Y-11326271D01*
X-17122971Y-11523447D01*
X-17187872Y-11737395D01*
X-17209786Y-11959893D01*
X-19071370Y-11959893D01*
X-19380926Y-11650338D01*
X-16908099Y-9180963D01*
X-14430857Y-9180963D01*
X-14408943Y-9403461D01*
X-14344042Y-9617409D01*
X-14238649Y-9814585D01*
X-14096814Y-9987411D01*
X-13923988Y-10129246D01*
X-13726812Y-10234639D01*
X-13512864Y-10299540D01*
X-13290366Y-10321454D01*
X-13216772Y-10314206D01*
X-13188169Y-10458006D01*
X-13115802Y-10632715D01*
X-13010742Y-10789948D01*
X-12877025Y-10923665D01*
X-12719792Y-11028725D01*
X-12545083Y-11101092D01*
X-12359613Y-11137984D01*
X-12170509Y-11137984D01*
X-11985039Y-11101092D01*
X-11810330Y-11028725D01*
X-11653097Y-10923665D01*
X-11519380Y-10789948D01*
X-11414320Y-10632715D01*
X-11341953Y-10458006D01*
X-11305061Y-10272536D01*
X-11305061Y-10083432D01*
X-11320082Y-10007911D01*
X-8835000Y-10007911D01*
X-8835000Y-10192089D01*
X-8799068Y-10372729D01*
X-8728586Y-10542889D01*
X-8626262Y-10696028D01*
X-8496028Y-10826262D01*
X-8342889Y-10928586D01*
X-8172729Y-10999068D01*
X-7992089Y-11035000D01*
X-7807911Y-11035000D01*
X-7627271Y-10999068D01*
X-7457111Y-10928586D01*
X-7303972Y-10826262D01*
X-7173738Y-10696028D01*
X-7071414Y-10542889D01*
X-7000932Y-10372729D01*
X-6965000Y-10192089D01*
X-6965000Y-10007911D01*
X-7000932Y-9827271D01*
X-7071414Y-9657111D01*
X-7173738Y-9503972D01*
X-7303972Y-9373738D01*
X-7457111Y-9271414D01*
X-7627271Y-9200932D01*
X-7807911Y-9165000D01*
X-7992089Y-9165000D01*
X-8172729Y-9200932D01*
X-8342889Y-9271414D01*
X-8496028Y-9373738D01*
X-8626262Y-9503972D01*
X-8728586Y-9657111D01*
X-8799068Y-9827271D01*
X-8835000Y-10007911D01*
X-11320082Y-10007911D01*
X-11341953Y-9897962D01*
X-11414320Y-9723253D01*
X-11519380Y-9566020D01*
X-11653097Y-9432303D01*
X-11810330Y-9327243D01*
X-11825309Y-9321038D01*
X-11670560Y-9166289D01*
X-11564264Y-9036768D01*
X-11458872Y-8839592D01*
X-11393971Y-8625644D01*
X-11385908Y-8543780D01*
X-11383517Y-8543304D01*
X-11186060Y-8461515D01*
X-11096288Y-8401531D01*
X-11109422Y-8467559D01*
X-11109422Y-8681285D01*
X-11067726Y-8890905D01*
X-10985937Y-9088362D01*
X-10867197Y-9266069D01*
X-10716069Y-9417197D01*
X-10538362Y-9535937D01*
X-10340905Y-9617726D01*
X-10131285Y-9659422D01*
X-9917559Y-9659422D01*
X-9707939Y-9617726D01*
X-9510482Y-9535937D01*
X-9332775Y-9417197D01*
X-9181647Y-9266069D01*
X-9062907Y-9088362D01*
X-8981118Y-8890905D01*
X-8939422Y-8681285D01*
X-8939422Y-8467559D01*
X-8981118Y-8257939D01*
X-9062907Y-8060482D01*
X-9181647Y-7882775D01*
X-9332775Y-7731647D01*
X-9510482Y-7612907D01*
X-9707939Y-7531118D01*
X-9824608Y-7507911D01*
X-8435000Y-7507911D01*
X-8435000Y-7692089D01*
X-8399068Y-7872729D01*
X-8328586Y-8042889D01*
X-8226262Y-8196028D01*
X-8096028Y-8326262D01*
X-7942889Y-8428586D01*
X-7772729Y-8499068D01*
X-7592089Y-8535000D01*
X-7407911Y-8535000D01*
X-7227271Y-8499068D01*
X-7057111Y-8428586D01*
X-6903972Y-8326262D01*
X-6773738Y-8196028D01*
X-6671414Y-8042889D01*
X-6600932Y-7872729D01*
X-6565000Y-7692089D01*
X-6565000Y-7507911D01*
X-6600932Y-7327271D01*
X-6671414Y-7157111D01*
X-6773738Y-7003972D01*
X-6903972Y-6873738D01*
X-7057111Y-6771414D01*
X-7227271Y-6700932D01*
X-7407911Y-6665000D01*
X-7592089Y-6665000D01*
X-7772729Y-6700932D01*
X-7942889Y-6771414D01*
X-8096028Y-6873738D01*
X-8226262Y-7003972D01*
X-8328586Y-7157111D01*
X-8399068Y-7327271D01*
X-8435000Y-7507911D01*
X-9824608Y-7507911D01*
X-9917559Y-7489422D01*
X-10131285Y-7489422D01*
X-10340905Y-7531118D01*
X-10538362Y-7612907D01*
X-10628134Y-7672891D01*
X-10615000Y-7606863D01*
X-10615000Y-7393137D01*
X-10656696Y-7183517D01*
X-10738485Y-6986060D01*
X-10857225Y-6808353D01*
X-11008353Y-6657225D01*
X-11186060Y-6538485D01*
X-11383517Y-6456696D01*
X-11593137Y-6415000D01*
X-11806863Y-6415000D01*
X-12016483Y-6456696D01*
X-12213940Y-6538485D01*
X-12391647Y-6657225D01*
X-12542775Y-6808353D01*
X-12661515Y-6986060D01*
X-12743304Y-7183517D01*
X-12765225Y-7293723D01*
X-12948995Y-7349469D01*
X-13146171Y-7454861D01*
X-13275692Y-7561157D01*
X-14132354Y-8417820D01*
X-14238649Y-8547341D01*
X-14344042Y-8744517D01*
X-14408943Y-8958465D01*
X-14430857Y-9180963D01*
X-16908099Y-9180963D01*
X-13088169Y-5366367D01*
X-13023963Y-5288242D01*
X-13015113Y-5271713D01*
X-11944761Y-3814605D01*
X-11943580Y-3812864D01*
X-11942295Y-3811225D01*
X-11917499Y-3774602D01*
X-11334119Y-2850000D01*
X-5328581Y-2850000D01*
X-5328581Y-7100000D01*
X-5326141Y-7124776D01*
X-5318914Y-7148601D01*
X-5307178Y-7170557D01*
X-5291384Y-7189803D01*
X-5272138Y-7205597D01*
X-5250182Y-7217333D01*
X-5226357Y-7224560D01*
X-5201581Y-7227000D01*
X-4294924Y-7227000D01*
X-4142889Y-7328586D01*
X-3972729Y-7399068D01*
X-3792089Y-7435000D01*
X-3607911Y-7435000D01*
X-3427271Y-7399068D01*
X-3257111Y-7328586D01*
X-3105076Y-7227000D01*
X1871755Y-7227000D01*
X1850932Y-7277271D01*
X1815000Y-7457911D01*
X1815000Y-7642089D01*
X1850932Y-7822729D01*
X1921414Y-7992889D01*
X2023738Y-8146028D01*
X2153972Y-8276262D01*
X2307111Y-8378586D01*
X2477271Y-8449068D01*
X2657911Y-8485000D01*
X2842089Y-8485000D01*
X3022729Y-8449068D01*
X3192889Y-8378586D01*
X3346028Y-8276262D01*
X3476262Y-8146028D01*
X3578586Y-7992889D01*
X3649068Y-7822729D01*
X3685000Y-7642089D01*
X3685000Y-7457911D01*
X3649068Y-7277271D01*
X3628056Y-7226543D01*
X3648195Y-7224560D01*
X3672020Y-7217333D01*
X3693976Y-7205597D01*
X3713222Y-7189803D01*
X3729016Y-7170557D01*
X3740752Y-7148601D01*
X3747979Y-7124776D01*
X3750419Y-7100000D01*
X3750419Y-6590179D01*
X3799068Y-6472729D01*
X3835000Y-6292089D01*
X3835000Y-6107911D01*
X3799068Y-5927271D01*
X3750419Y-5809821D01*
X3750419Y-4907911D01*
X6519001Y-4907911D01*
X6519001Y-5092089D01*
X6554933Y-5272729D01*
X6625415Y-5442889D01*
X6727739Y-5596028D01*
X6857973Y-5726262D01*
X7011112Y-5828586D01*
X7181272Y-5899068D01*
X7361912Y-5935000D01*
X7546090Y-5935000D01*
X7726730Y-5899068D01*
X7896890Y-5828586D01*
X8050029Y-5726262D01*
X8180263Y-5596028D01*
X8282587Y-5442889D01*
X8353069Y-5272729D01*
X8389001Y-5092089D01*
X8389001Y-4907911D01*
X8353069Y-4727271D01*
X8282587Y-4557111D01*
X8180263Y-4403972D01*
X8050029Y-4273738D01*
X7896890Y-4171414D01*
X7726730Y-4100932D01*
X7546090Y-4065000D01*
X7361912Y-4065000D01*
X7181272Y-4100932D01*
X7011112Y-4171414D01*
X6857973Y-4273738D01*
X6727739Y-4403972D01*
X6625415Y-4557111D01*
X6554933Y-4727271D01*
X6519001Y-4907911D01*
X3750419Y-4907911D01*
X3750419Y-3375000D01*
X3747979Y-3350224D01*
X3740752Y-3326399D01*
X3729016Y-3304443D01*
X3713222Y-3285197D01*
X3693976Y-3269403D01*
X3672020Y-3257667D01*
X3648195Y-3250440D01*
X3623419Y-3248000D01*
X1499626Y-3248000D01*
X900808Y-2671361D01*
X993560Y-2652911D01*
X1145521Y-2589967D01*
X1282281Y-2498587D01*
X1398587Y-2382281D01*
X1489967Y-2245521D01*
X1526256Y-2157911D01*
X3740000Y-2157911D01*
X3740000Y-2342089D01*
X3775932Y-2522729D01*
X3846414Y-2692889D01*
X3948738Y-2846028D01*
X4078972Y-2976262D01*
X4232111Y-3078586D01*
X4402271Y-3149068D01*
X4582911Y-3185000D01*
X4767089Y-3185000D01*
X4947729Y-3149068D01*
X5117889Y-3078586D01*
X5271028Y-2976262D01*
X5401262Y-2846028D01*
X5503586Y-2692889D01*
X5574068Y-2522729D01*
X5610000Y-2342089D01*
X5610000Y-2157911D01*
X5574068Y-1977271D01*
X5503586Y-1807111D01*
X5401262Y-1653972D01*
X5271028Y-1523738D01*
X5117889Y-1421414D01*
X4947729Y-1350932D01*
X4767089Y-1315000D01*
X4582911Y-1315000D01*
X4402271Y-1350932D01*
X4232111Y-1421414D01*
X4078972Y-1523738D01*
X3948738Y-1653972D01*
X3846414Y-1807111D01*
X3775932Y-1977271D01*
X3740000Y-2157911D01*
X1526256Y-2157911D01*
X1552911Y-2093560D01*
X1585000Y-1932240D01*
X1585000Y-1767760D01*
X1552911Y-1606440D01*
X1489967Y-1454479D01*
X1398587Y-1317719D01*
X1282281Y-1201413D01*
X1145521Y-1110033D01*
X993560Y-1047089D01*
X832240Y-1015000D01*
X667760Y-1015000D01*
X506440Y-1047089D01*
X354479Y-1110033D01*
X226469Y-1195567D01*
X227000Y-750152D01*
X224589Y-725372D01*
X217391Y-701539D01*
X205681Y-679569D01*
X189910Y-660305D01*
X170683Y-644488D01*
X148741Y-632725D01*
X124925Y-625470D01*
X100000Y-623000D01*
X-2100000Y-623000D01*
X-2124776Y-625440D01*
X-2148601Y-632667D01*
X-2170557Y-644403D01*
X-2189803Y-660197D01*
X-2205597Y-679443D01*
X-2217333Y-701399D01*
X-2224560Y-725224D01*
X-2227000Y-749799D01*
X-2228499Y-1698165D01*
X-3230043Y-2723000D01*
X-5201581Y-2723000D01*
X-5226357Y-2725440D01*
X-5250182Y-2732667D01*
X-5272138Y-2744403D01*
X-5291384Y-2760197D01*
X-5307178Y-2779443D01*
X-5318914Y-2801399D01*
X-5326141Y-2825224D01*
X-5328581Y-2850000D01*
X-11334119Y-2850000D01*
X-10796437Y-1997827D01*
X-10794640Y-1994728D01*
X-10792641Y-1991741D01*
X-10770708Y-1953444D01*
X-10770661Y-1953362D01*
X-10770656Y-1953351D01*
X-10640428Y-1707911D01*
X-7158000Y-1707911D01*
X-7158000Y-1892089D01*
X-7122068Y-2072729D01*
X-7051586Y-2242889D01*
X-6949262Y-2396028D01*
X-6819028Y-2526262D01*
X-6665889Y-2628586D01*
X-6495729Y-2699068D01*
X-6315089Y-2735000D01*
X-6130911Y-2735000D01*
X-5950271Y-2699068D01*
X-5780111Y-2628586D01*
X-5626972Y-2526262D01*
X-5496738Y-2396028D01*
X-5394414Y-2242889D01*
X-5323932Y-2072729D01*
X-5288000Y-1892089D01*
X-5288000Y-1707911D01*
X-5323932Y-1527271D01*
X-5394414Y-1357111D01*
X-5496738Y-1203972D01*
X-5626972Y-1073738D01*
X-5780111Y-971414D01*
X-5950271Y-900932D01*
X-6130911Y-865000D01*
X-6315089Y-865000D01*
X-6495729Y-900932D01*
X-6665889Y-971414D01*
X-6819028Y-1073738D01*
X-6949262Y-1203972D01*
X-7051586Y-1357111D01*
X-7122068Y-1527271D01*
X-7158000Y-1707911D01*
X-10640428Y-1707911D01*
X-9785974Y-97531D01*
X-9784408Y-94291D01*
X-9782646Y-91177D01*
X-9763605Y-51258D01*
X-9604486Y312089D01*
X-6734999Y312089D01*
X-6734999Y127911D01*
X-6699067Y-52729D01*
X-6628585Y-222889D01*
X-6526261Y-376028D01*
X-6396027Y-506262D01*
X-6242888Y-608586D01*
X-6072728Y-679068D01*
X-5892088Y-715000D01*
X-5707910Y-715000D01*
X-5527270Y-679068D01*
X-5357110Y-608586D01*
X-5203971Y-506262D01*
X-5073737Y-376028D01*
X-4971413Y-222889D01*
X-4900931Y-52729D01*
X-4864999Y127911D01*
X-4864999Y312089D01*
X-4900931Y492729D01*
X-4971413Y662889D01*
X-5073737Y816028D01*
X-5203971Y946262D01*
X-5357110Y1048586D01*
X-5527270Y1119068D01*
X-5707910Y1155000D01*
X-5892088Y1155000D01*
X-6072728Y1119068D01*
X-6242888Y1048586D01*
X-6396027Y946262D01*
X-6526261Y816028D01*
X-6628585Y662889D01*
X-6699067Y492729D01*
X-6734999Y312089D01*
X-9604486Y312089D01*
X-8920839Y1873180D01*
X-8919525Y1876515D01*
X-8917996Y1879765D01*
X-8902002Y1921000D01*
X-8345087Y3506863D01*
X-2485000Y3506863D01*
X-2485000Y3293137D01*
X-2443304Y3083517D01*
X-2361515Y2886060D01*
X-2242775Y2708353D01*
X-2091647Y2557225D01*
X-1913940Y2438485D01*
X-1716483Y2356696D01*
X-1506863Y2315000D01*
X-1293137Y2315000D01*
X-1083517Y2356696D01*
X-1014869Y2385131D01*
X-1043304Y2316483D01*
X-1085000Y2106863D01*
X-1085000Y1893137D01*
X-1043304Y1683517D01*
X-1014869Y1614869D01*
X-1083517Y1643304D01*
X-1293137Y1685000D01*
X-1506863Y1685000D01*
X-1716483Y1643304D01*
X-1913940Y1561515D01*
X-2091647Y1442775D01*
X-2242775Y1291647D01*
X-2361515Y1113940D01*
X-2443304Y916483D01*
X-2485000Y706863D01*
X-2485000Y493137D01*
X-2443304Y283517D01*
X-2361515Y86060D01*
X-2242775Y-91647D01*
X-2091647Y-242775D01*
X-1913940Y-361515D01*
X-1716483Y-443304D01*
X-1506863Y-485000D01*
X-1293137Y-485000D01*
X-1083517Y-443304D01*
X-886060Y-361515D01*
X-708353Y-242775D01*
X-557225Y-91647D01*
X-438485Y86060D01*
X-356696Y283517D01*
X-315000Y493137D01*
X-315000Y706863D01*
X-356696Y916483D01*
X-385131Y985131D01*
X-316483Y956696D01*
X-106863Y915000D01*
X106863Y915000D01*
X316483Y956696D01*
X385131Y985131D01*
X356696Y916483D01*
X315000Y706863D01*
X315000Y493137D01*
X356696Y283517D01*
X438485Y86060D01*
X557225Y-91647D01*
X708353Y-242775D01*
X886060Y-361515D01*
X1083517Y-443304D01*
X1293137Y-485000D01*
X1506863Y-485000D01*
X1716483Y-443304D01*
X1913940Y-361515D01*
X2091647Y-242775D01*
X2242775Y-91647D01*
X2361515Y86060D01*
X2443304Y283517D01*
X2485000Y493137D01*
X2485000Y706863D01*
X2477994Y742089D01*
X4815000Y742089D01*
X4815000Y557911D01*
X4850932Y377271D01*
X4921414Y207111D01*
X5023738Y53972D01*
X5153972Y-76262D01*
X5307111Y-178586D01*
X5477271Y-249068D01*
X5657911Y-285000D01*
X5842089Y-285000D01*
X6022729Y-249068D01*
X6192889Y-178586D01*
X6346028Y-76262D01*
X6476262Y53972D01*
X6578586Y207111D01*
X6649068Y377271D01*
X6685000Y557911D01*
X6685000Y742089D01*
X6649068Y922729D01*
X6648155Y924933D01*
X6796028Y1023738D01*
X6926262Y1153972D01*
X7028586Y1307111D01*
X7099068Y1477271D01*
X7135000Y1657911D01*
X7135000Y1842089D01*
X7099068Y2022729D01*
X7028586Y2192889D01*
X6926262Y2346028D01*
X6796028Y2476262D01*
X6642889Y2578586D01*
X6472729Y2649068D01*
X6292089Y2685000D01*
X6107911Y2685000D01*
X5927271Y2649068D01*
X5757111Y2578586D01*
X5603972Y2476262D01*
X5473738Y2346028D01*
X5371414Y2192889D01*
X5300932Y2022729D01*
X5265000Y1842089D01*
X5265000Y1657911D01*
X5300932Y1477271D01*
X5301845Y1475067D01*
X5153972Y1376262D01*
X5023738Y1246028D01*
X4921414Y1092889D01*
X4850932Y922729D01*
X4815000Y742089D01*
X2477994Y742089D01*
X2443304Y916483D01*
X2361515Y1113940D01*
X2242775Y1291647D01*
X2091647Y1442775D01*
X1913940Y1561515D01*
X1716483Y1643304D01*
X1506863Y1685000D01*
X1293137Y1685000D01*
X1083517Y1643304D01*
X1014869Y1614869D01*
X1043304Y1683517D01*
X1085000Y1893137D01*
X1085000Y2106863D01*
X1043304Y2316483D01*
X1014869Y2385131D01*
X1083517Y2356696D01*
X1293137Y2315000D01*
X1506863Y2315000D01*
X1716483Y2356696D01*
X1913940Y2438485D01*
X2091647Y2557225D01*
X2242775Y2708353D01*
X2361515Y2886060D01*
X2443304Y3083517D01*
X2485000Y3293137D01*
X2485000Y3506863D01*
X2443304Y3716483D01*
X2361515Y3913940D01*
X2242775Y4091647D01*
X2091647Y4242775D01*
X1913940Y4361515D01*
X1716483Y4443304D01*
X1506863Y4485000D01*
X1293137Y4485000D01*
X1083517Y4443304D01*
X886060Y4361515D01*
X708353Y4242775D01*
X557225Y4091647D01*
X438485Y3913940D01*
X356696Y3716483D01*
X315000Y3506863D01*
X315000Y3293137D01*
X356696Y3083517D01*
X385131Y3014869D01*
X316483Y3043304D01*
X106863Y3085000D01*
X-106863Y3085000D01*
X-316483Y3043304D01*
X-385131Y3014869D01*
X-356696Y3083517D01*
X-315000Y3293137D01*
X-315000Y3506863D01*
X-356696Y3716483D01*
X-438485Y3913940D01*
X-557225Y4091647D01*
X-708353Y4242775D01*
X-886060Y4361515D01*
X-1083517Y4443304D01*
X-1293137Y4485000D01*
X-1506863Y4485000D01*
X-1716483Y4443304D01*
X-1913940Y4361515D01*
X-2091647Y4242775D01*
X-2242775Y4091647D01*
X-2361515Y3913940D01*
X-2443304Y3716483D01*
X-2485000Y3506863D01*
X-8345087Y3506863D01*
X-8205900Y3903208D01*
X-8204837Y3906643D01*
X-8203559Y3909989D01*
X-8190702Y3952307D01*
X-7953240Y4835445D01*
X-6578356Y4835445D01*
X-6578356Y4651267D01*
X-6542424Y4470627D01*
X-6471942Y4300467D01*
X-6369618Y4147328D01*
X-6239384Y4017094D01*
X-6086245Y3914770D01*
X-5916085Y3844288D01*
X-5735445Y3808356D01*
X-5551267Y3808356D01*
X-5370627Y3844288D01*
X-5200467Y3914770D01*
X-5047328Y4017094D01*
X-4917094Y4147328D01*
X-4814770Y4300467D01*
X-4744288Y4470627D01*
X-4708356Y4651267D01*
X-4708356Y4835445D01*
X-4744288Y5016085D01*
X-4814770Y5186245D01*
X-4917094Y5339384D01*
X-5047328Y5469618D01*
X-5200467Y5571942D01*
X-5370627Y5642424D01*
X-5551267Y5678356D01*
X-5735445Y5678356D01*
X-5916085Y5642424D01*
X-6086245Y5571942D01*
X-6239384Y5469618D01*
X-6369618Y5339384D01*
X-6471942Y5186245D01*
X-6542424Y5016085D01*
X-6578356Y4835445D01*
X-7953240Y4835445D01*
X-7645183Y5981129D01*
X-7644382Y5984628D01*
X-7643357Y5988065D01*
X-7633749Y6031047D01*
X-7633708Y6031228D01*
X-7633704Y6031254D01*
X-7441791Y7042089D01*
X-2335000Y7042089D01*
X-2335000Y6857911D01*
X-2299068Y6677271D01*
X-2228586Y6507111D01*
X-2126262Y6353972D01*
X-1996028Y6223738D01*
X-1842889Y6121414D01*
X-1672729Y6050932D01*
X-1492089Y6015000D01*
X-1307911Y6015000D01*
X-1127271Y6050932D01*
X-957111Y6121414D01*
X-803972Y6223738D01*
X-673738Y6353972D01*
X-571414Y6507111D01*
X-500932Y6677271D01*
X-465000Y6857911D01*
X-465000Y7042089D01*
X-500932Y7222729D01*
X-571414Y7392889D01*
X-673738Y7546028D01*
X-803972Y7676262D01*
X-957111Y7778586D01*
X-1127271Y7849068D01*
X-1307911Y7885000D01*
X-1492089Y7885000D01*
X-1672729Y7849068D01*
X-1842889Y7778586D01*
X-1996028Y7676262D01*
X-2126262Y7546028D01*
X-2228586Y7392889D01*
X-2299068Y7222729D01*
X-2335000Y7042089D01*
X-7441791Y7042089D01*
X-7241842Y8095241D01*
X-7241303Y8098803D01*
X-7240542Y8102295D01*
X-7234157Y8146060D01*
X-6998152Y10233646D01*
X-6997883Y10237229D01*
X-6997384Y10240777D01*
X-6994298Y10284898D01*
X-6916261Y12363549D01*
X-6915000Y12376353D01*
X-6915000Y13475752D01*
X-5455000Y13475752D01*
X-5455000Y12264249D01*
X-5438577Y12097502D01*
X-5373676Y11883554D01*
X-5268284Y11686377D01*
X-5237874Y11649322D01*
X-5261515Y11613940D01*
X-5343304Y11416483D01*
X-5385000Y11206863D01*
X-5385000Y10993137D01*
X-5343304Y10783517D01*
X-5261515Y10586060D01*
X-5142775Y10408353D01*
X-4991647Y10257225D01*
X-4813940Y10138485D01*
X-4616483Y10056696D01*
X-4406863Y10015000D01*
X-4193137Y10015000D01*
X-3983517Y10056696D01*
X-3786060Y10138485D01*
X-3608353Y10257225D01*
X-3511846Y10353732D01*
X-3493304Y10260517D01*
X-3411515Y10063060D01*
X-3292775Y9885353D01*
X-3141647Y9734225D01*
X-2963940Y9615485D01*
X-2766483Y9533696D01*
X-2556863Y9492000D01*
X-2343137Y9492000D01*
X-2133517Y9533696D01*
X-1936060Y9615485D01*
X-1758353Y9734225D01*
X-1607225Y9885353D01*
X-1488485Y10063060D01*
X-1406696Y10260517D01*
X-1365000Y10470137D01*
X-1365000Y10683863D01*
X165000Y10683863D01*
X165000Y10470137D01*
X206696Y10260517D01*
X288485Y10063060D01*
X407225Y9885353D01*
X558353Y9734225D01*
X736060Y9615485D01*
X933517Y9533696D01*
X1143137Y9492000D01*
X1356863Y9492000D01*
X1566483Y9533696D01*
X1763940Y9615485D01*
X1941647Y9734225D01*
X2092775Y9885353D01*
X2211515Y10063060D01*
X2293304Y10260517D01*
X2335000Y10470137D01*
X2335000Y10683863D01*
X2293304Y10893483D01*
X2211515Y11090940D01*
X2092775Y11268647D01*
X1941647Y11419775D01*
X1763940Y11538515D01*
X1566483Y11620304D01*
X1356863Y11662000D01*
X1143137Y11662000D01*
X933517Y11620304D01*
X736060Y11538515D01*
X558353Y11419775D01*
X407225Y11268647D01*
X288485Y11090940D01*
X206696Y10893483D01*
X165000Y10683863D01*
X-1365000Y10683863D01*
X-1406696Y10893483D01*
X-1488485Y11090940D01*
X-1607225Y11268647D01*
X-1758353Y11419775D01*
X-1936060Y11538515D01*
X-2133517Y11620304D01*
X-2343137Y11662000D01*
X-2556863Y11662000D01*
X-2766483Y11620304D01*
X-2963940Y11538515D01*
X-3141647Y11419775D01*
X-3238154Y11323268D01*
X-3256696Y11416483D01*
X-3338485Y11613940D01*
X-3380078Y11676188D01*
X-3371716Y11686377D01*
X-3266324Y11883553D01*
X-3201423Y12097501D01*
X-3185000Y12264248D01*
X-3185000Y12483096D01*
X-3170022Y12476892D01*
X-2984552Y12440000D01*
X-2795448Y12440000D01*
X-2609978Y12476892D01*
X-2435269Y12549259D01*
X-2278036Y12654319D01*
X-2144319Y12788036D01*
X-2039259Y12945269D01*
X-1966892Y13119978D01*
X-1960025Y13154502D01*
X-1926262Y13103972D01*
X-1796028Y12973738D01*
X-1642889Y12871414D01*
X-1472729Y12800932D01*
X-1292089Y12765000D01*
X-1107911Y12765000D01*
X-927271Y12800932D01*
X-757111Y12871414D01*
X-603972Y12973738D01*
X-473738Y13103972D01*
X-419796Y13184703D01*
X-399262Y13153972D01*
X-269028Y13023738D01*
X-115889Y12921414D01*
X54271Y12850932D01*
X234911Y12815000D01*
X419089Y12815000D01*
X599729Y12850932D01*
X769889Y12921414D01*
X923028Y13023738D01*
X1053262Y13153972D01*
X1155586Y13307111D01*
X1226068Y13477271D01*
X1229505Y13494552D01*
X1930000Y13494552D01*
X1930000Y13305448D01*
X1966892Y13119978D01*
X2039259Y12945269D01*
X2144319Y12788036D01*
X2278036Y12654319D01*
X2435269Y12549259D01*
X2609978Y12476892D01*
X2795448Y12440000D01*
X2984552Y12440000D01*
X3170022Y12476892D01*
X3185000Y12483096D01*
X3185000Y12264249D01*
X3201423Y12097502D01*
X3266324Y11883554D01*
X3371716Y11686377D01*
X3380078Y11676188D01*
X3338485Y11613940D01*
X3256696Y11416483D01*
X3215000Y11206863D01*
X3215000Y10993137D01*
X3256696Y10783517D01*
X3338485Y10586060D01*
X3457225Y10408353D01*
X3523862Y10341716D01*
X3438485Y10213940D01*
X3356696Y10016483D01*
X3315000Y9806863D01*
X3315000Y9593137D01*
X3356696Y9383517D01*
X3438485Y9186060D01*
X3557225Y9008353D01*
X3708353Y8857225D01*
X3886060Y8738485D01*
X4083517Y8656696D01*
X4293137Y8615000D01*
X4506863Y8615000D01*
X4716483Y8656696D01*
X4913940Y8738485D01*
X5091647Y8857225D01*
X5242775Y9008353D01*
X5361515Y9186060D01*
X5443304Y9383517D01*
X5485000Y9593137D01*
X5485000Y9806863D01*
X5443304Y10016483D01*
X5361515Y10213940D01*
X5242775Y10391647D01*
X5176138Y10458284D01*
X5261515Y10586060D01*
X5343304Y10783517D01*
X5385000Y10993137D01*
X5385000Y11206863D01*
X5343304Y11416483D01*
X5261515Y11613940D01*
X5237874Y11649322D01*
X5268284Y11686377D01*
X5373676Y11883553D01*
X5438577Y12097501D01*
X5455000Y12264248D01*
X5455000Y13475752D01*
X5438577Y13642499D01*
X5373676Y13856447D01*
X5268284Y14053623D01*
X5126449Y14226449D01*
X4953623Y14368284D01*
X4756447Y14473676D01*
X4542499Y14538577D01*
X4320000Y14560491D01*
X4097502Y14538577D01*
X3883554Y14473676D01*
X3686378Y14368284D01*
X3513552Y14226449D01*
X3466638Y14169285D01*
X3344731Y14250741D01*
X3170022Y14323108D01*
X2984552Y14360000D01*
X2795448Y14360000D01*
X2609978Y14323108D01*
X2435269Y14250741D01*
X2278036Y14145681D01*
X2144319Y14011964D01*
X2039259Y13854731D01*
X1966892Y13680022D01*
X1930000Y13494552D01*
X1229505Y13494552D01*
X1262000Y13657911D01*
X1262000Y13842089D01*
X1226068Y14022729D01*
X1155586Y14192889D01*
X1053262Y14346028D01*
X923028Y14476262D01*
X769889Y14578586D01*
X599729Y14649068D01*
X419089Y14685000D01*
X234911Y14685000D01*
X54271Y14649068D01*
X-115889Y14578586D01*
X-269028Y14476262D01*
X-399262Y14346028D01*
X-453204Y14265297D01*
X-473738Y14296028D01*
X-603972Y14426262D01*
X-757111Y14528586D01*
X-927271Y14599068D01*
X-1107911Y14635000D01*
X-1292089Y14635000D01*
X-1472729Y14599068D01*
X-1642889Y14528586D01*
X-1796028Y14426262D01*
X-1926262Y14296028D01*
X-2028586Y14142889D01*
X-2099068Y13972729D01*
X-2103435Y13950776D01*
X-2144319Y14011964D01*
X-2278036Y14145681D01*
X-2435269Y14250741D01*
X-2609978Y14323108D01*
X-2795448Y14360000D01*
X-2984552Y14360000D01*
X-3170022Y14323108D01*
X-3344731Y14250741D01*
X-3466638Y14169285D01*
X-3513551Y14226449D01*
X-3686377Y14368284D01*
X-3883553Y14473676D01*
X-4097501Y14538577D01*
X-4320000Y14560491D01*
X-4542498Y14538577D01*
X-4756446Y14473676D01*
X-4953622Y14368284D01*
X-5126448Y14226449D01*
X-5268283Y14053623D01*
X-5373676Y13856447D01*
X-5438577Y13642499D01*
X-5455000Y13475752D01*
X-6915000Y13475752D01*
X-6915000Y16207366D01*
X-6899068Y16127271D01*
X-6828586Y15957111D01*
X-6726262Y15803972D01*
X-6596028Y15673738D01*
X-6442889Y15571414D01*
X-6272729Y15500932D01*
X-6092089Y15465000D01*
X-5907911Y15465000D01*
X-5727271Y15500932D01*
X-5557111Y15571414D01*
X-5403972Y15673738D01*
X-5273738Y15803972D01*
X-5171414Y15957111D01*
X-5160064Y15984511D01*
X-5126449Y15943551D01*
X-4953623Y15801716D01*
X-4756447Y15696324D01*
X-4542499Y15631423D01*
X-4320000Y15609509D01*
X-4097502Y15631423D01*
X-3883554Y15696324D01*
X-3686377Y15801716D01*
X-3513551Y15943551D01*
X-3371716Y16116377D01*
X-3266324Y16313553D01*
X-3201423Y16527501D01*
X-3185000Y16694248D01*
X-3185000Y17405751D01*
X-3201423Y17572498D01*
X-3266324Y17786446D01*
X-3371716Y17983623D01*
X-3513551Y18156449D01*
X-3686377Y18298284D01*
X-3883553Y18403676D01*
X-4097501Y18468577D01*
X-4320000Y18490491D01*
X-4542498Y18468577D01*
X-4756446Y18403676D01*
X-4953622Y18298284D01*
X-5126448Y18156449D01*
X-5268283Y17983623D01*
X-5373676Y17786447D01*
X-5438577Y17572499D01*
X-5455000Y17405752D01*
X-5455000Y17160358D01*
X-5557111Y17228586D01*
X-5727271Y17299068D01*
X-5907911Y17335000D01*
X-6092089Y17335000D01*
X-6272729Y17299068D01*
X-6442889Y17228586D01*
X-6596028Y17126262D01*
X-6726262Y16996028D01*
X-6828586Y16842889D01*
X-6899068Y16672729D01*
X-6915000Y16592634D01*
X-6915000Y19515000D01*
X6915000Y19515000D01*
X6915000Y16592634D01*
G37*
G04 #@! TD.AperFunction*
M02*
