%FSLAX45Y45*%
G04 Gerber Fmt 4.5, Leading zero omitted, Abs format (unit mm)*
G04 Created by KiCad (PCBNEW (5.1.10-1-10_14)) date 2021-07-25 02:24:13*
%MOMM*%
%LPD*%
G01*
G04 APERTURE LIST*
%TA.AperFunction,Profile*%
%ADD10C,0.100000*%
%TD*%
%ADD11C,0.200000*%
%ADD12C,0.300000*%
G04 APERTURE END LIST*
D10*
X-965000Y-2235000D02*
X965000Y-2235000D01*
X-2035000Y-1165000D02*
X-760000Y2020000D01*
X760000Y2020000D02*
X2035000Y-1165000D01*
X965000Y-2235000D02*
X2035000Y-1165000D01*
X-760000Y2020000D02*
X760000Y2020000D01*
X-2035000Y-1165000D02*
X-965000Y-2235000D01*
D11*
X-1253006Y-979298D02*
X-1188006Y-1044298D01*
X-1188006Y-979298D02*
X-1253006Y-1044298D01*
X-844298Y-1388006D02*
X-779298Y-1453006D01*
X-779298Y-1388006D02*
X-844298Y-1453006D01*
X-321500Y1372500D02*
X-256500Y1307500D01*
X-256500Y1372500D02*
X-321500Y1307500D01*
X256500Y1372500D02*
X321500Y1307500D01*
X321500Y1372500D02*
X256500Y1307500D01*
X779298Y-1388006D02*
X844298Y-1453006D01*
X844298Y-1388006D02*
X779298Y-1453006D01*
X1188006Y-979298D02*
X1253006Y-1044298D01*
X1253006Y-979298D02*
X1188006Y-1044298D01*
D12*
X-1753571Y-2705714D02*
X-1753571Y-2405714D01*
X-1682143Y-2405714D01*
X-1639286Y-2420000D01*
X-1610714Y-2448572D01*
X-1596429Y-2477143D01*
X-1582143Y-2534286D01*
X-1582143Y-2577143D01*
X-1596429Y-2634286D01*
X-1610714Y-2662857D01*
X-1639286Y-2691429D01*
X-1682143Y-2705714D01*
X-1753571Y-2705714D01*
X-1453571Y-2705714D02*
X-1453571Y-2505714D01*
X-1453571Y-2562857D02*
X-1439286Y-2534286D01*
X-1425000Y-2520000D01*
X-1396429Y-2505714D01*
X-1367857Y-2505714D01*
X-1267857Y-2705714D02*
X-1267857Y-2505714D01*
X-1267857Y-2405714D02*
X-1282143Y-2420000D01*
X-1267857Y-2434286D01*
X-1253572Y-2420000D01*
X-1267857Y-2405714D01*
X-1267857Y-2434286D01*
X-1082143Y-2705714D02*
X-1110714Y-2691429D01*
X-1125000Y-2662857D01*
X-1125000Y-2405714D01*
X-925000Y-2705714D02*
X-953571Y-2691429D01*
X-967857Y-2662857D01*
X-967857Y-2405714D01*
X-582143Y-2705714D02*
X-582143Y-2405714D01*
X-482143Y-2620000D01*
X-382143Y-2405714D01*
X-382143Y-2705714D01*
X-110714Y-2705714D02*
X-110714Y-2548572D01*
X-125000Y-2520000D01*
X-153572Y-2505714D01*
X-210714Y-2505714D01*
X-239286Y-2520000D01*
X-110714Y-2691429D02*
X-139286Y-2705714D01*
X-210714Y-2705714D01*
X-239286Y-2691429D01*
X-253571Y-2662857D01*
X-253571Y-2634286D01*
X-239286Y-2605714D01*
X-210714Y-2591429D01*
X-139286Y-2591429D01*
X-110714Y-2577143D01*
X32143Y-2505714D02*
X32143Y-2805714D01*
X32143Y-2520000D02*
X60714Y-2505714D01*
X117857Y-2505714D01*
X146428Y-2520000D01*
X160714Y-2534286D01*
X175000Y-2562857D01*
X175000Y-2648572D01*
X160714Y-2677143D01*
X146428Y-2691429D01*
X117857Y-2705714D01*
X60714Y-2705714D01*
X32143Y-2691429D01*
X303571Y-2677143D02*
X317857Y-2691429D01*
X303571Y-2705714D01*
X289286Y-2691429D01*
X303571Y-2677143D01*
X303571Y-2705714D01*
X303571Y-2520000D02*
X317857Y-2534286D01*
X303571Y-2548572D01*
X289286Y-2534286D01*
X303571Y-2520000D01*
X303571Y-2548572D01*
X-2105000Y-3167500D02*
X-2040000Y-3232500D01*
X-2040000Y-3167500D02*
X-2105000Y-3232500D01*
X-1696429Y-3035714D02*
X-1667857Y-3035714D01*
X-1639286Y-3050000D01*
X-1625000Y-3064286D01*
X-1610714Y-3092857D01*
X-1596429Y-3150000D01*
X-1596429Y-3221429D01*
X-1610714Y-3278571D01*
X-1625000Y-3307143D01*
X-1639286Y-3321429D01*
X-1667857Y-3335714D01*
X-1696429Y-3335714D01*
X-1725000Y-3321429D01*
X-1739286Y-3307143D01*
X-1753571Y-3278571D01*
X-1767857Y-3221429D01*
X-1767857Y-3150000D01*
X-1753571Y-3092857D01*
X-1739286Y-3064286D01*
X-1725000Y-3050000D01*
X-1696429Y-3035714D01*
X-1467857Y-3307143D02*
X-1453571Y-3321429D01*
X-1467857Y-3335714D01*
X-1482143Y-3321429D01*
X-1467857Y-3307143D01*
X-1467857Y-3335714D01*
X-1196429Y-3035714D02*
X-1253572Y-3035714D01*
X-1282143Y-3050000D01*
X-1296429Y-3064286D01*
X-1325000Y-3107143D01*
X-1339286Y-3164286D01*
X-1339286Y-3278571D01*
X-1325000Y-3307143D01*
X-1310714Y-3321429D01*
X-1282143Y-3335714D01*
X-1225000Y-3335714D01*
X-1196429Y-3321429D01*
X-1182143Y-3307143D01*
X-1167857Y-3278571D01*
X-1167857Y-3207143D01*
X-1182143Y-3178571D01*
X-1196429Y-3164286D01*
X-1225000Y-3150000D01*
X-1282143Y-3150000D01*
X-1310714Y-3164286D01*
X-1325000Y-3178571D01*
X-1339286Y-3207143D01*
X-896429Y-3035714D02*
X-1039286Y-3035714D01*
X-1053572Y-3178571D01*
X-1039286Y-3164286D01*
X-1010714Y-3150000D01*
X-939286Y-3150000D01*
X-910714Y-3164286D01*
X-896429Y-3178571D01*
X-882143Y-3207143D01*
X-882143Y-3278571D01*
X-896429Y-3307143D01*
X-910714Y-3321429D01*
X-939286Y-3335714D01*
X-1010714Y-3335714D01*
X-1039286Y-3321429D01*
X-1053572Y-3307143D01*
X-696429Y-3035714D02*
X-667857Y-3035714D01*
X-639286Y-3050000D01*
X-625000Y-3064286D01*
X-610714Y-3092857D01*
X-596429Y-3150000D01*
X-596429Y-3221429D01*
X-610714Y-3278571D01*
X-625000Y-3307143D01*
X-639286Y-3321429D01*
X-667857Y-3335714D01*
X-696429Y-3335714D01*
X-725000Y-3321429D01*
X-739286Y-3307143D01*
X-753571Y-3278571D01*
X-767857Y-3221429D01*
X-767857Y-3150000D01*
X-753571Y-3092857D01*
X-739286Y-3064286D01*
X-725000Y-3050000D01*
X-696429Y-3035714D01*
X-467857Y-3335714D02*
X-467857Y-3135714D01*
X-467857Y-3164286D02*
X-453571Y-3150000D01*
X-425000Y-3135714D01*
X-382143Y-3135714D01*
X-353571Y-3150000D01*
X-339286Y-3178571D01*
X-339286Y-3335714D01*
X-339286Y-3178571D02*
X-325000Y-3150000D01*
X-296429Y-3135714D01*
X-253571Y-3135714D01*
X-225000Y-3150000D01*
X-210714Y-3178571D01*
X-210714Y-3335714D01*
X-67857Y-3335714D02*
X-67857Y-3135714D01*
X-67857Y-3164286D02*
X-53571Y-3150000D01*
X-25000Y-3135714D01*
X17857Y-3135714D01*
X46428Y-3150000D01*
X60714Y-3178571D01*
X60714Y-3335714D01*
X60714Y-3178571D02*
X75000Y-3150000D01*
X103571Y-3135714D01*
X146428Y-3135714D01*
X175000Y-3150000D01*
X189286Y-3178571D01*
X189286Y-3335714D01*
X775000Y-3021429D02*
X517857Y-3407143D01*
X1160714Y-3035714D02*
X1189286Y-3035714D01*
X1217857Y-3050000D01*
X1232143Y-3064286D01*
X1246428Y-3092857D01*
X1260714Y-3150000D01*
X1260714Y-3221429D01*
X1246428Y-3278571D01*
X1232143Y-3307143D01*
X1217857Y-3321429D01*
X1189286Y-3335714D01*
X1160714Y-3335714D01*
X1132143Y-3321429D01*
X1117857Y-3307143D01*
X1103571Y-3278571D01*
X1089286Y-3221429D01*
X1089286Y-3150000D01*
X1103571Y-3092857D01*
X1117857Y-3064286D01*
X1132143Y-3050000D01*
X1160714Y-3035714D01*
X1389286Y-3307143D02*
X1403571Y-3321429D01*
X1389286Y-3335714D01*
X1375000Y-3321429D01*
X1389286Y-3307143D01*
X1389286Y-3335714D01*
X1589286Y-3035714D02*
X1617857Y-3035714D01*
X1646428Y-3050000D01*
X1660714Y-3064286D01*
X1675000Y-3092857D01*
X1689286Y-3150000D01*
X1689286Y-3221429D01*
X1675000Y-3278571D01*
X1660714Y-3307143D01*
X1646428Y-3321429D01*
X1617857Y-3335714D01*
X1589286Y-3335714D01*
X1560714Y-3321429D01*
X1546428Y-3307143D01*
X1532143Y-3278571D01*
X1517857Y-3221429D01*
X1517857Y-3150000D01*
X1532143Y-3092857D01*
X1546428Y-3064286D01*
X1560714Y-3050000D01*
X1589286Y-3035714D01*
X1803571Y-3064286D02*
X1817857Y-3050000D01*
X1846428Y-3035714D01*
X1917857Y-3035714D01*
X1946428Y-3050000D01*
X1960714Y-3064286D01*
X1975000Y-3092857D01*
X1975000Y-3121429D01*
X1960714Y-3164286D01*
X1789286Y-3335714D01*
X1975000Y-3335714D01*
X2246428Y-3035714D02*
X2103571Y-3035714D01*
X2089286Y-3178571D01*
X2103571Y-3164286D01*
X2132143Y-3150000D01*
X2203571Y-3150000D01*
X2232143Y-3164286D01*
X2246428Y-3178571D01*
X2260714Y-3207143D01*
X2260714Y-3278571D01*
X2246428Y-3307143D01*
X2232143Y-3321429D01*
X2203571Y-3335714D01*
X2132143Y-3335714D01*
X2103571Y-3321429D01*
X2089286Y-3307143D01*
X2517857Y-3035714D02*
X2460714Y-3035714D01*
X2432143Y-3050000D01*
X2417857Y-3064286D01*
X2389286Y-3107143D01*
X2375000Y-3164286D01*
X2375000Y-3278571D01*
X2389286Y-3307143D01*
X2403571Y-3321429D01*
X2432143Y-3335714D01*
X2489286Y-3335714D01*
X2517857Y-3321429D01*
X2532143Y-3307143D01*
X2546428Y-3278571D01*
X2546428Y-3207143D01*
X2532143Y-3178571D01*
X2517857Y-3164286D01*
X2489286Y-3150000D01*
X2432143Y-3150000D01*
X2403571Y-3164286D01*
X2389286Y-3178571D01*
X2375000Y-3207143D01*
X2660714Y-3035714D02*
X2660714Y-3092857D01*
X2775000Y-3035714D02*
X2775000Y-3092857D01*
X3217857Y-3450000D02*
X3203571Y-3435714D01*
X3175000Y-3392857D01*
X3160714Y-3364286D01*
X3146428Y-3321429D01*
X3132143Y-3250000D01*
X3132143Y-3192857D01*
X3146428Y-3121429D01*
X3160714Y-3078571D01*
X3175000Y-3050000D01*
X3203571Y-3007143D01*
X3217857Y-2992857D01*
X3460714Y-3035714D02*
X3403571Y-3035714D01*
X3375000Y-3050000D01*
X3360714Y-3064286D01*
X3332143Y-3107143D01*
X3317857Y-3164286D01*
X3317857Y-3278571D01*
X3332143Y-3307143D01*
X3346428Y-3321429D01*
X3375000Y-3335714D01*
X3432143Y-3335714D01*
X3460714Y-3321429D01*
X3475000Y-3307143D01*
X3489286Y-3278571D01*
X3489286Y-3207143D01*
X3475000Y-3178571D01*
X3460714Y-3164286D01*
X3432143Y-3150000D01*
X3375000Y-3150000D01*
X3346428Y-3164286D01*
X3332143Y-3178571D01*
X3317857Y-3207143D01*
X3846428Y-3335714D02*
X3846428Y-3035714D01*
X3975000Y-3335714D02*
X3975000Y-3178571D01*
X3960714Y-3150000D01*
X3932143Y-3135714D01*
X3889286Y-3135714D01*
X3860714Y-3150000D01*
X3846428Y-3164286D01*
X4160714Y-3335714D02*
X4132143Y-3321429D01*
X4117857Y-3307143D01*
X4103571Y-3278571D01*
X4103571Y-3192857D01*
X4117857Y-3164286D01*
X4132143Y-3150000D01*
X4160714Y-3135714D01*
X4203571Y-3135714D01*
X4232143Y-3150000D01*
X4246428Y-3164286D01*
X4260714Y-3192857D01*
X4260714Y-3278571D01*
X4246428Y-3307143D01*
X4232143Y-3321429D01*
X4203571Y-3335714D01*
X4160714Y-3335714D01*
X4432143Y-3335714D02*
X4403571Y-3321429D01*
X4389286Y-3292857D01*
X4389286Y-3035714D01*
X4660714Y-3321429D02*
X4632143Y-3335714D01*
X4575000Y-3335714D01*
X4546428Y-3321429D01*
X4532143Y-3292857D01*
X4532143Y-3178571D01*
X4546428Y-3150000D01*
X4575000Y-3135714D01*
X4632143Y-3135714D01*
X4660714Y-3150000D01*
X4675000Y-3178571D01*
X4675000Y-3207143D01*
X4532143Y-3235714D01*
X4789286Y-3321429D02*
X4817857Y-3335714D01*
X4875000Y-3335714D01*
X4903571Y-3321429D01*
X4917857Y-3292857D01*
X4917857Y-3278571D01*
X4903571Y-3250000D01*
X4875000Y-3235714D01*
X4832143Y-3235714D01*
X4803571Y-3221429D01*
X4789286Y-3192857D01*
X4789286Y-3178571D01*
X4803571Y-3150000D01*
X4832143Y-3135714D01*
X4875000Y-3135714D01*
X4903571Y-3150000D01*
X5017857Y-3450000D02*
X5032143Y-3435714D01*
X5060714Y-3392857D01*
X5075000Y-3364286D01*
X5089286Y-3321429D01*
X5103571Y-3250000D01*
X5103571Y-3192857D01*
X5089286Y-3121429D01*
X5075000Y-3078571D01*
X5060714Y-3050000D01*
X5032143Y-3007143D01*
X5017857Y-2992857D01*
X5560714Y-3450000D02*
X5546428Y-3435714D01*
X5517857Y-3392857D01*
X5503571Y-3364286D01*
X5489286Y-3321429D01*
X5475000Y-3250000D01*
X5475000Y-3192857D01*
X5489286Y-3121429D01*
X5503571Y-3078571D01*
X5517857Y-3050000D01*
X5546428Y-3007143D01*
X5560714Y-2992857D01*
X5675000Y-3135714D02*
X5675000Y-3335714D01*
X5675000Y-3164286D02*
X5689286Y-3150000D01*
X5717857Y-3135714D01*
X5760714Y-3135714D01*
X5789286Y-3150000D01*
X5803571Y-3178571D01*
X5803571Y-3335714D01*
X5989286Y-3335714D02*
X5960714Y-3321429D01*
X5946428Y-3307143D01*
X5932143Y-3278571D01*
X5932143Y-3192857D01*
X5946428Y-3164286D01*
X5960714Y-3150000D01*
X5989286Y-3135714D01*
X6032143Y-3135714D01*
X6060714Y-3150000D01*
X6075000Y-3164286D01*
X6089286Y-3192857D01*
X6089286Y-3278571D01*
X6075000Y-3307143D01*
X6060714Y-3321429D01*
X6032143Y-3335714D01*
X5989286Y-3335714D01*
X6175000Y-3135714D02*
X6289286Y-3135714D01*
X6217857Y-3035714D02*
X6217857Y-3292857D01*
X6232143Y-3321429D01*
X6260714Y-3335714D01*
X6289286Y-3335714D01*
X6617857Y-3135714D02*
X6617857Y-3435714D01*
X6617857Y-3150000D02*
X6646428Y-3135714D01*
X6703571Y-3135714D01*
X6732143Y-3150000D01*
X6746428Y-3164286D01*
X6760714Y-3192857D01*
X6760714Y-3278571D01*
X6746428Y-3307143D01*
X6732143Y-3321429D01*
X6703571Y-3335714D01*
X6646428Y-3335714D01*
X6617857Y-3321429D01*
X6932143Y-3335714D02*
X6903571Y-3321429D01*
X6889286Y-3292857D01*
X6889286Y-3035714D01*
X7175000Y-3335714D02*
X7175000Y-3178571D01*
X7160714Y-3150000D01*
X7132143Y-3135714D01*
X7075000Y-3135714D01*
X7046428Y-3150000D01*
X7175000Y-3321429D02*
X7146428Y-3335714D01*
X7075000Y-3335714D01*
X7046428Y-3321429D01*
X7032143Y-3292857D01*
X7032143Y-3264286D01*
X7046428Y-3235714D01*
X7075000Y-3221429D01*
X7146428Y-3221429D01*
X7175000Y-3207143D01*
X7275000Y-3135714D02*
X7389286Y-3135714D01*
X7317857Y-3035714D02*
X7317857Y-3292857D01*
X7332143Y-3321429D01*
X7360714Y-3335714D01*
X7389286Y-3335714D01*
X7603571Y-3321429D02*
X7575000Y-3335714D01*
X7517857Y-3335714D01*
X7489286Y-3321429D01*
X7475000Y-3292857D01*
X7475000Y-3178571D01*
X7489286Y-3150000D01*
X7517857Y-3135714D01*
X7575000Y-3135714D01*
X7603571Y-3150000D01*
X7617857Y-3178571D01*
X7617857Y-3207143D01*
X7475000Y-3235714D01*
X7875000Y-3335714D02*
X7875000Y-3035714D01*
X7875000Y-3321429D02*
X7846428Y-3335714D01*
X7789286Y-3335714D01*
X7760714Y-3321429D01*
X7746428Y-3307143D01*
X7732143Y-3278571D01*
X7732143Y-3192857D01*
X7746428Y-3164286D01*
X7760714Y-3150000D01*
X7789286Y-3135714D01*
X7846428Y-3135714D01*
X7875000Y-3150000D01*
X7989286Y-3450000D02*
X8003571Y-3435714D01*
X8032143Y-3392857D01*
X8046428Y-3364286D01*
X8060714Y-3321429D01*
X8075000Y-3250000D01*
X8075000Y-3192857D01*
X8060714Y-3121429D01*
X8046428Y-3078571D01*
X8032143Y-3050000D01*
X8003571Y-3007143D01*
X7989286Y-2992857D01*
M02*
