%FSLAX45Y45*%
G04 Gerber Fmt 4.5, Leading zero omitted, Abs format (unit mm)*
G04 Created by KiCad (PCBNEW (5.1.10-1-10_14)) date 2021-08-15 09:52:49*
%MOMM*%
%LPD*%
G01*
G04 APERTURE LIST*
%TA.AperFunction,Profile*%
%ADD10C,0.100000*%
%TD*%
%ADD11C,0.200000*%
%ADD12C,0.300000*%
G04 APERTURE END LIST*
D10*
X1073223Y-2225171D02*
X2063173Y-1235222D01*
X700000Y2055768D02*
X700000Y1605768D01*
X2063173Y-1235222D02*
X1744975Y-917024D01*
X1073223Y-2225171D02*
X755025Y-1906973D01*
X-1073223Y-2225171D02*
X-2063173Y-1235222D01*
X-1073223Y-2225171D02*
X-755025Y-1906973D01*
X0Y2055768D02*
X700000Y2055768D01*
X-2063173Y-1235222D02*
X-1744975Y-917024D01*
X-700000Y2055768D02*
X-700000Y1605768D01*
X0Y2055768D02*
X-700000Y2055768D01*
X1744975Y-917024D02*
G75*
G02*
X700000Y1605768I2522792J2522792D01*
G01*
X-755025Y-1906973D02*
G75*
G02*
X755025Y-1906973I755025J-755025D01*
G01*
X-700000Y1605768D02*
G75*
G02*
X-1744975Y-917024I-3567767J0D01*
G01*
D11*
X-1235000Y-1205000D02*
X-1205000Y-1235000D01*
X-1205000Y-1205000D02*
X-1235000Y-1235000D01*
X-1230477Y-1327977D02*
X-1200477Y-1357977D01*
X-1200477Y-1327977D02*
X-1230477Y-1357977D01*
X-1145000Y-1410000D02*
X-1115000Y-1440000D01*
X-1115000Y-1410000D02*
X-1145000Y-1440000D01*
X-1133898Y-1307102D02*
X-1103898Y-1337102D01*
X-1103898Y-1307102D02*
X-1133898Y-1337102D01*
X-1125000Y-455000D02*
X-1095000Y-485000D01*
X-1095000Y-455000D02*
X-1125000Y-485000D01*
X-944900Y-915000D02*
X-914900Y-945000D01*
X-914900Y-915000D02*
X-944900Y-945000D01*
X-885000Y-585000D02*
X-855000Y-615000D01*
X-855000Y-585000D02*
X-885000Y-615000D01*
X-882200Y-1060445D02*
X-852200Y-1090445D01*
X-852200Y-1060445D02*
X-882200Y-1090445D01*
X-857506Y-852299D02*
X-827506Y-882299D01*
X-827506Y-852299D02*
X-857506Y-882299D01*
X-777701Y-221426D02*
X-747701Y-251426D01*
X-747701Y-221426D02*
X-777701Y-251426D01*
X-690664Y320664D02*
X-660664Y290664D01*
X-660664Y320664D02*
X-690664Y290664D01*
X-665000Y194336D02*
X-635000Y164336D01*
X-635000Y194336D02*
X-665000Y164336D01*
X-655000Y445000D02*
X-625000Y415000D01*
X-625000Y445000D02*
X-655000Y415000D01*
X-575000Y-135000D02*
X-545000Y-165000D01*
X-545000Y-135000D02*
X-575000Y-165000D01*
X-575000Y-325000D02*
X-545000Y-355000D01*
X-545000Y-325000D02*
X-575000Y-355000D01*
X-490000Y495000D02*
X-460000Y465000D01*
X-460000Y495000D02*
X-490000Y465000D01*
X-485000Y-1115000D02*
X-455000Y-1145000D01*
X-455000Y-1115000D02*
X-485000Y-1145000D01*
X-482462Y179957D02*
X-452462Y149957D01*
X-452462Y179957D02*
X-482462Y149957D01*
X-415000Y675000D02*
X-385000Y645000D01*
X-385000Y675000D02*
X-415000Y645000D01*
X-367000Y987000D02*
X-337000Y957000D01*
X-337000Y987000D02*
X-367000Y957000D01*
X-298701Y-640000D02*
X-268701Y-670000D01*
X-268701Y-640000D02*
X-298701Y-670000D01*
X-255000Y-845000D02*
X-225000Y-875000D01*
X-225000Y-845000D02*
X-255000Y-875000D01*
X-255000Y-1005002D02*
X-225000Y-1035002D01*
X-225000Y-1005002D02*
X-255000Y-1035002D01*
X-230000Y777000D02*
X-200000Y747000D01*
X-200000Y777000D02*
X-230000Y747000D01*
X-175000Y705000D02*
X-145000Y675000D01*
X-145000Y705000D02*
X-175000Y675000D01*
X-170000Y1085000D02*
X-140000Y1055000D01*
X-140000Y1085000D02*
X-170000Y1055000D01*
X-155000Y-305000D02*
X-125000Y-335000D01*
X-125000Y-305000D02*
X-155000Y-335000D01*
X-15634Y-355000D02*
X14366Y-385000D01*
X14366Y-355000D02*
X-15634Y-385000D01*
X60000Y-35000D02*
X90000Y-65000D01*
X90000Y-35000D02*
X60000Y-65000D01*
X130000Y987000D02*
X160000Y957000D01*
X160000Y987000D02*
X130000Y957000D01*
X135000Y-635000D02*
X165000Y-665000D01*
X165000Y-635000D02*
X135000Y-665000D01*
X140001Y1083500D02*
X170001Y1053500D01*
X170001Y1083500D02*
X140001Y1053500D01*
X215000Y-1155000D02*
X245000Y-1185000D01*
X245000Y-1155000D02*
X215000Y-1185000D01*
X463668Y-219543D02*
X493668Y-249543D01*
X493668Y-219543D02*
X463668Y-249543D01*
X517006Y137000D02*
X547006Y107000D01*
X547006Y137000D02*
X517006Y107000D01*
X535001Y697500D02*
X565001Y667500D01*
X565001Y697500D02*
X535001Y667500D01*
X555000Y-515000D02*
X585000Y-545000D01*
X585000Y-515000D02*
X555000Y-545000D01*
X612000Y492000D02*
X642000Y462000D01*
X642000Y492000D02*
X612000Y462000D01*
X695000Y-525000D02*
X725000Y-555000D01*
X725000Y-525000D02*
X695000Y-555000D01*
X705000Y365000D02*
X735000Y335000D01*
X735000Y365000D02*
X705000Y335000D01*
X715000Y265000D02*
X745000Y235000D01*
X745000Y265000D02*
X715000Y235000D01*
X723000Y-193000D02*
X753000Y-223000D01*
X753000Y-193000D02*
X723000Y-223000D01*
X740000Y-90000D02*
X770000Y-120000D01*
X770000Y-90000D02*
X740000Y-120000D01*
X1070000Y-1360000D02*
X1100000Y-1390000D01*
X1100000Y-1360000D02*
X1070000Y-1390000D01*
X1165664Y-1360664D02*
X1195664Y-1390664D01*
X1195664Y-1360664D02*
X1165664Y-1390664D01*
X1167163Y-1244165D02*
X1197163Y-1274165D01*
X1197163Y-1244165D02*
X1167163Y-1274165D01*
X1245000Y-1240000D02*
X1275000Y-1270000D01*
X1275000Y-1240000D02*
X1245000Y-1270000D01*
X-1205000Y-735000D02*
G75*
G03*
X-1205000Y-735000I-20000J0D01*
G01*
X-1052241Y-887759D02*
G75*
G03*
X-1052241Y-887759I-20000J0D01*
G01*
X-920000Y-440000D02*
G75*
G03*
X-920000Y-440000I-20000J0D01*
G01*
X-850000Y-330000D02*
G75*
G03*
X-850000Y-330000I-20000J0D01*
G01*
X-705000Y-1125000D02*
G75*
G03*
X-705000Y-1125000I-20000J0D01*
G01*
X-537701Y-720000D02*
G75*
G03*
X-537701Y-720000I-20000J0D01*
G01*
X-530000Y-1275000D02*
G75*
G03*
X-530000Y-1275000I-20000J0D01*
G01*
X-380001Y1150000D02*
G75*
G03*
X-380001Y1150000I-20000J0D01*
G01*
X-180000Y400000D02*
G75*
G03*
X-180000Y400000I-20000J0D01*
G01*
X-180000Y200000D02*
G75*
G03*
X-180000Y200000I-20000J0D01*
G01*
X-180000Y0D02*
G75*
G03*
X-180000Y0I-20000J0D01*
G01*
X20000Y400000D02*
G75*
G03*
X20000Y400000I-20000J0D01*
G01*
X20000Y200000D02*
G75*
G03*
X20000Y200000I-20000J0D01*
G01*
X20000Y0D02*
G75*
G03*
X20000Y0I-20000J0D01*
G01*
X220000Y400000D02*
G75*
G03*
X220000Y400000I-20000J0D01*
G01*
X220000Y200000D02*
G75*
G03*
X220000Y200000I-20000J0D01*
G01*
X220000Y0D02*
G75*
G03*
X220000Y0I-20000J0D01*
G01*
X420000Y1150000D02*
G75*
G03*
X420000Y1150000I-20000J0D01*
G01*
X620000Y-1280000D02*
G75*
G03*
X620000Y-1280000I-20000J0D01*
G01*
X719999Y-1200001D02*
G75*
G03*
X719999Y-1200001I-20000J0D01*
G01*
X1070000Y-860000D02*
G75*
G03*
X1070000Y-860000I-20000J0D01*
G01*
X1180000Y-770000D02*
G75*
G03*
X1180000Y-770000I-20000J0D01*
G01*
X-1689716Y-1210776D02*
X-1689716Y-1270776D01*
X-1719716Y-1240776D02*
X-1659716Y-1240776D01*
X-1682645Y-1205421D02*
X-1725072Y-1247847D01*
X-1654361Y-1233705D02*
X-1696787Y-1276131D01*
X-1725072Y-1247847D02*
G75*
G03*
X-1696787Y-1276131I14142J-14142D01*
G01*
X-1654361Y-1233705D02*
G75*
G03*
X-1682645Y-1205421I-14142J14142D01*
G01*
X-1394146Y-915205D02*
X-1394146Y-975205D01*
X-1424146Y-945205D02*
X-1364146Y-945205D01*
X-1369397Y-892172D02*
X-1447179Y-969954D01*
X-1341113Y-920457D02*
X-1418894Y-998238D01*
X-1447179Y-969954D02*
G75*
G03*
X-1418894Y-998238I14142J-14142D01*
G01*
X-1341113Y-920457D02*
G75*
G03*
X-1369397Y-892172I-14142J14142D01*
G01*
X-1078776Y-1821716D02*
X-1078776Y-1881716D01*
X-1108776Y-1851716D02*
X-1048776Y-1851716D01*
X-1071705Y-1816361D02*
X-1114131Y-1858787D01*
X-1043421Y-1844645D02*
X-1085847Y-1887072D01*
X-1114131Y-1858787D02*
G75*
G03*
X-1085847Y-1887072I14142J-14142D01*
G01*
X-1043421Y-1844645D02*
G75*
G03*
X-1071705Y-1816361I-14142J14142D01*
G01*
X-783205Y-1526146D02*
X-783205Y-1586146D01*
X-813205Y-1556146D02*
X-753205Y-1556146D01*
X-758457Y-1503113D02*
X-836238Y-1580894D01*
X-730172Y-1531397D02*
X-807954Y-1609179D01*
X-836238Y-1580894D02*
G75*
G03*
X-807954Y-1609179I14142J-14142D01*
G01*
X-730172Y-1531397D02*
G75*
G03*
X-758457Y-1503113I-14142J14142D01*
G01*
X-432000Y1822000D02*
X-432000Y1762000D01*
X-462000Y1792000D02*
X-402000Y1792000D01*
X-412000Y1762000D02*
X-412000Y1822000D01*
X-452000Y1762000D02*
X-452000Y1822000D01*
X-412000Y1822000D02*
G75*
G03*
X-452000Y1822000I-20000J0D01*
G01*
X-452000Y1762000D02*
G75*
G03*
X-412000Y1762000I20000J0D01*
G01*
X-432000Y1404000D02*
X-432000Y1344000D01*
X-462000Y1374000D02*
X-402000Y1374000D01*
X-412000Y1319000D02*
X-412000Y1429000D01*
X-452000Y1319000D02*
X-452000Y1429000D01*
X-412000Y1429000D02*
G75*
G03*
X-452000Y1429000I-20000J0D01*
G01*
X-452000Y1319000D02*
G75*
G03*
X-412000Y1319000I20000J0D01*
G01*
X432000Y1822000D02*
X432000Y1762000D01*
X402000Y1792000D02*
X462000Y1792000D01*
X452000Y1762000D02*
X452000Y1822000D01*
X412000Y1762000D02*
X412000Y1822000D01*
X452000Y1822000D02*
G75*
G03*
X412000Y1822000I-20000J0D01*
G01*
X412000Y1762000D02*
G75*
G03*
X452000Y1762000I20000J0D01*
G01*
X432000Y1404000D02*
X432000Y1344000D01*
X402000Y1374000D02*
X462000Y1374000D01*
X452000Y1319000D02*
X452000Y1429000D01*
X412000Y1319000D02*
X412000Y1429000D01*
X452000Y1429000D02*
G75*
G03*
X412000Y1429000I-20000J0D01*
G01*
X412000Y1319000D02*
G75*
G03*
X452000Y1319000I20000J0D01*
G01*
X783205Y-1526146D02*
X783205Y-1586146D01*
X753205Y-1556146D02*
X813205Y-1556146D01*
X730172Y-1531397D02*
X807954Y-1609179D01*
X758457Y-1503113D02*
X836238Y-1580894D01*
X807954Y-1609179D02*
G75*
G03*
X836238Y-1580894I14142J14142D01*
G01*
X758457Y-1503113D02*
G75*
G03*
X730172Y-1531397I-14142J-14142D01*
G01*
X1078776Y-1821716D02*
X1078776Y-1881716D01*
X1048776Y-1851716D02*
X1108776Y-1851716D01*
X1043421Y-1844645D02*
X1085847Y-1887072D01*
X1071705Y-1816361D02*
X1114131Y-1858787D01*
X1085847Y-1887072D02*
G75*
G03*
X1114131Y-1858787I14142J14142D01*
G01*
X1071705Y-1816361D02*
G75*
G03*
X1043421Y-1844645I-14142J-14142D01*
G01*
X1394146Y-915205D02*
X1394146Y-975205D01*
X1364146Y-945205D02*
X1424146Y-945205D01*
X1341113Y-920457D02*
X1418894Y-998238D01*
X1369397Y-892172D02*
X1447179Y-969954D01*
X1418894Y-998238D02*
G75*
G03*
X1447179Y-969954I14142J14142D01*
G01*
X1369397Y-892172D02*
G75*
G03*
X1341113Y-920457I-14142J-14142D01*
G01*
X1689716Y-1210776D02*
X1689716Y-1270776D01*
X1659716Y-1240776D02*
X1719716Y-1240776D01*
X1654361Y-1233705D02*
X1696787Y-1276131D01*
X1682645Y-1205421D02*
X1725072Y-1247847D01*
X1696787Y-1276131D02*
G75*
G03*
X1725072Y-1247847I14142J14142D01*
G01*
X1682645Y-1205421D02*
G75*
G03*
X1654361Y-1233705I-14142J-14142D01*
G01*
D12*
X-1781744Y-2695886D02*
X-1781744Y-2395886D01*
X-1710316Y-2395886D01*
X-1667458Y-2410172D01*
X-1638887Y-2438743D01*
X-1624601Y-2467314D01*
X-1610316Y-2524457D01*
X-1610316Y-2567314D01*
X-1624601Y-2624457D01*
X-1638887Y-2653029D01*
X-1667458Y-2681600D01*
X-1710316Y-2695886D01*
X-1781744Y-2695886D01*
X-1481744Y-2695886D02*
X-1481744Y-2495886D01*
X-1481744Y-2553029D02*
X-1467458Y-2524457D01*
X-1453173Y-2510172D01*
X-1424601Y-2495886D01*
X-1396030Y-2495886D01*
X-1296030Y-2695886D02*
X-1296030Y-2495886D01*
X-1296030Y-2395886D02*
X-1310316Y-2410172D01*
X-1296030Y-2424457D01*
X-1281744Y-2410172D01*
X-1296030Y-2395886D01*
X-1296030Y-2424457D01*
X-1110316Y-2695886D02*
X-1138887Y-2681600D01*
X-1153173Y-2653029D01*
X-1153173Y-2395886D01*
X-953173Y-2695886D02*
X-981744Y-2681600D01*
X-996030Y-2653029D01*
X-996030Y-2395886D01*
X-610316Y-2695886D02*
X-610316Y-2395886D01*
X-510316Y-2610172D01*
X-410316Y-2395886D01*
X-410316Y-2695886D01*
X-138887Y-2695886D02*
X-138887Y-2538743D01*
X-153173Y-2510172D01*
X-181744Y-2495886D01*
X-238887Y-2495886D01*
X-267459Y-2510172D01*
X-138887Y-2681600D02*
X-167459Y-2695886D01*
X-238887Y-2695886D01*
X-267459Y-2681600D01*
X-281744Y-2653029D01*
X-281744Y-2624457D01*
X-267459Y-2595886D01*
X-238887Y-2581600D01*
X-167459Y-2581600D01*
X-138887Y-2567314D01*
X3970Y-2495886D02*
X3970Y-2795886D01*
X3970Y-2510172D02*
X32541Y-2495886D01*
X89684Y-2495886D01*
X118256Y-2510172D01*
X132541Y-2524457D01*
X146827Y-2553029D01*
X146827Y-2638743D01*
X132541Y-2667314D01*
X118256Y-2681600D01*
X89684Y-2695886D01*
X32541Y-2695886D01*
X3970Y-2681600D01*
X275399Y-2667314D02*
X289684Y-2681600D01*
X275399Y-2695886D01*
X261113Y-2681600D01*
X275399Y-2667314D01*
X275399Y-2695886D01*
X275399Y-2510172D02*
X289684Y-2524457D01*
X275399Y-2538743D01*
X261113Y-2524457D01*
X275399Y-2510172D01*
X275399Y-2538743D01*
X-2098173Y-3175171D02*
X-2068173Y-3205171D01*
X-2068173Y-3175171D02*
X-2098173Y-3205171D01*
X-1724601Y-3025886D02*
X-1696030Y-3025886D01*
X-1667458Y-3040171D01*
X-1653173Y-3054457D01*
X-1638887Y-3083029D01*
X-1624601Y-3140171D01*
X-1624601Y-3211600D01*
X-1638887Y-3268743D01*
X-1653173Y-3297314D01*
X-1667458Y-3311600D01*
X-1696030Y-3325886D01*
X-1724601Y-3325886D01*
X-1753173Y-3311600D01*
X-1767458Y-3297314D01*
X-1781744Y-3268743D01*
X-1796030Y-3211600D01*
X-1796030Y-3140171D01*
X-1781744Y-3083029D01*
X-1767458Y-3054457D01*
X-1753173Y-3040171D01*
X-1724601Y-3025886D01*
X-1496030Y-3297314D02*
X-1481744Y-3311600D01*
X-1496030Y-3325886D01*
X-1510316Y-3311600D01*
X-1496030Y-3297314D01*
X-1496030Y-3325886D01*
X-1381744Y-3025886D02*
X-1196030Y-3025886D01*
X-1296030Y-3140171D01*
X-1253173Y-3140171D01*
X-1224601Y-3154457D01*
X-1210316Y-3168743D01*
X-1196030Y-3197314D01*
X-1196030Y-3268743D01*
X-1210316Y-3297314D01*
X-1224601Y-3311600D01*
X-1253173Y-3325886D01*
X-1338887Y-3325886D01*
X-1367459Y-3311600D01*
X-1381744Y-3297314D01*
X-1010316Y-3025886D02*
X-981744Y-3025886D01*
X-953173Y-3040171D01*
X-938887Y-3054457D01*
X-924601Y-3083029D01*
X-910316Y-3140171D01*
X-910316Y-3211600D01*
X-924601Y-3268743D01*
X-938887Y-3297314D01*
X-953173Y-3311600D01*
X-981744Y-3325886D01*
X-1010316Y-3325886D01*
X-1038887Y-3311600D01*
X-1053173Y-3297314D01*
X-1067459Y-3268743D01*
X-1081744Y-3211600D01*
X-1081744Y-3140171D01*
X-1067459Y-3083029D01*
X-1053173Y-3054457D01*
X-1038887Y-3040171D01*
X-1010316Y-3025886D01*
X-724601Y-3025886D02*
X-696030Y-3025886D01*
X-667459Y-3040171D01*
X-653173Y-3054457D01*
X-638887Y-3083029D01*
X-624601Y-3140171D01*
X-624601Y-3211600D01*
X-638887Y-3268743D01*
X-653173Y-3297314D01*
X-667459Y-3311600D01*
X-696030Y-3325886D01*
X-724601Y-3325886D01*
X-753173Y-3311600D01*
X-767458Y-3297314D01*
X-781744Y-3268743D01*
X-796030Y-3211600D01*
X-796030Y-3140171D01*
X-781744Y-3083029D01*
X-767458Y-3054457D01*
X-753173Y-3040171D01*
X-724601Y-3025886D01*
X-496030Y-3325886D02*
X-496030Y-3125886D01*
X-496030Y-3154457D02*
X-481744Y-3140171D01*
X-453173Y-3125886D01*
X-410316Y-3125886D01*
X-381744Y-3140171D01*
X-367458Y-3168743D01*
X-367458Y-3325886D01*
X-367458Y-3168743D02*
X-353173Y-3140171D01*
X-324601Y-3125886D01*
X-281744Y-3125886D01*
X-253173Y-3140171D01*
X-238887Y-3168743D01*
X-238887Y-3325886D01*
X-96030Y-3325886D02*
X-96030Y-3125886D01*
X-96030Y-3154457D02*
X-81744Y-3140171D01*
X-53173Y-3125886D01*
X-10316Y-3125886D01*
X18256Y-3140171D01*
X32541Y-3168743D01*
X32541Y-3325886D01*
X32541Y-3168743D02*
X46827Y-3140171D01*
X75399Y-3125886D01*
X118256Y-3125886D01*
X146827Y-3140171D01*
X161113Y-3168743D01*
X161113Y-3325886D01*
X746827Y-3011600D02*
X489684Y-3397314D01*
X1132541Y-3025886D02*
X1161113Y-3025886D01*
X1189684Y-3040171D01*
X1203970Y-3054457D01*
X1218256Y-3083029D01*
X1232541Y-3140171D01*
X1232541Y-3211600D01*
X1218256Y-3268743D01*
X1203970Y-3297314D01*
X1189684Y-3311600D01*
X1161113Y-3325886D01*
X1132541Y-3325886D01*
X1103970Y-3311600D01*
X1089684Y-3297314D01*
X1075399Y-3268743D01*
X1061113Y-3211600D01*
X1061113Y-3140171D01*
X1075399Y-3083029D01*
X1089684Y-3054457D01*
X1103970Y-3040171D01*
X1132541Y-3025886D01*
X1361113Y-3297314D02*
X1375399Y-3311600D01*
X1361113Y-3325886D01*
X1346827Y-3311600D01*
X1361113Y-3297314D01*
X1361113Y-3325886D01*
X1561113Y-3025886D02*
X1589684Y-3025886D01*
X1618256Y-3040171D01*
X1632541Y-3054457D01*
X1646827Y-3083029D01*
X1661113Y-3140171D01*
X1661113Y-3211600D01*
X1646827Y-3268743D01*
X1632541Y-3297314D01*
X1618256Y-3311600D01*
X1589684Y-3325886D01*
X1561113Y-3325886D01*
X1532541Y-3311600D01*
X1518256Y-3297314D01*
X1503970Y-3268743D01*
X1489684Y-3211600D01*
X1489684Y-3140171D01*
X1503970Y-3083029D01*
X1518256Y-3054457D01*
X1532541Y-3040171D01*
X1561113Y-3025886D01*
X1946827Y-3325886D02*
X1775399Y-3325886D01*
X1861113Y-3325886D02*
X1861113Y-3025886D01*
X1832541Y-3068743D01*
X1803970Y-3097314D01*
X1775399Y-3111600D01*
X2232541Y-3325886D02*
X2061113Y-3325886D01*
X2146827Y-3325886D02*
X2146827Y-3025886D01*
X2118256Y-3068743D01*
X2089684Y-3097314D01*
X2061113Y-3111600D01*
X2403970Y-3154457D02*
X2375399Y-3140171D01*
X2361113Y-3125886D01*
X2346827Y-3097314D01*
X2346827Y-3083029D01*
X2361113Y-3054457D01*
X2375399Y-3040171D01*
X2403970Y-3025886D01*
X2461113Y-3025886D01*
X2489684Y-3040171D01*
X2503970Y-3054457D01*
X2518256Y-3083029D01*
X2518256Y-3097314D01*
X2503970Y-3125886D01*
X2489684Y-3140171D01*
X2461113Y-3154457D01*
X2403970Y-3154457D01*
X2375399Y-3168743D01*
X2361113Y-3183029D01*
X2346827Y-3211600D01*
X2346827Y-3268743D01*
X2361113Y-3297314D01*
X2375399Y-3311600D01*
X2403970Y-3325886D01*
X2461113Y-3325886D01*
X2489684Y-3311600D01*
X2503970Y-3297314D01*
X2518256Y-3268743D01*
X2518256Y-3211600D01*
X2503970Y-3183029D01*
X2489684Y-3168743D01*
X2461113Y-3154457D01*
X2632541Y-3025886D02*
X2632541Y-3083029D01*
X2746827Y-3025886D02*
X2746827Y-3083029D01*
X3189684Y-3440171D02*
X3175399Y-3425886D01*
X3146827Y-3383029D01*
X3132541Y-3354457D01*
X3118256Y-3311600D01*
X3103970Y-3240171D01*
X3103970Y-3183029D01*
X3118256Y-3111600D01*
X3132541Y-3068743D01*
X3146827Y-3040171D01*
X3175399Y-2997314D01*
X3189684Y-2983029D01*
X3432541Y-3125886D02*
X3432541Y-3325886D01*
X3361113Y-3011600D02*
X3289684Y-3225886D01*
X3475399Y-3225886D01*
X3561113Y-3025886D02*
X3761113Y-3025886D01*
X3632541Y-3325886D01*
X4103970Y-3325886D02*
X4103970Y-3025886D01*
X4232541Y-3325886D02*
X4232541Y-3168743D01*
X4218256Y-3140171D01*
X4189684Y-3125886D01*
X4146827Y-3125886D01*
X4118256Y-3140171D01*
X4103970Y-3154457D01*
X4418256Y-3325886D02*
X4389684Y-3311600D01*
X4375399Y-3297314D01*
X4361113Y-3268743D01*
X4361113Y-3183029D01*
X4375399Y-3154457D01*
X4389684Y-3140171D01*
X4418256Y-3125886D01*
X4461113Y-3125886D01*
X4489684Y-3140171D01*
X4503970Y-3154457D01*
X4518256Y-3183029D01*
X4518256Y-3268743D01*
X4503970Y-3297314D01*
X4489684Y-3311600D01*
X4461113Y-3325886D01*
X4418256Y-3325886D01*
X4689684Y-3325886D02*
X4661113Y-3311600D01*
X4646827Y-3283029D01*
X4646827Y-3025886D01*
X4918256Y-3311600D02*
X4889684Y-3325886D01*
X4832541Y-3325886D01*
X4803970Y-3311600D01*
X4789684Y-3283029D01*
X4789684Y-3168743D01*
X4803970Y-3140171D01*
X4832541Y-3125886D01*
X4889684Y-3125886D01*
X4918256Y-3140171D01*
X4932541Y-3168743D01*
X4932541Y-3197314D01*
X4789684Y-3225886D01*
X5046827Y-3311600D02*
X5075399Y-3325886D01*
X5132541Y-3325886D01*
X5161113Y-3311600D01*
X5175399Y-3283029D01*
X5175399Y-3268743D01*
X5161113Y-3240171D01*
X5132541Y-3225886D01*
X5089684Y-3225886D01*
X5061113Y-3211600D01*
X5046827Y-3183029D01*
X5046827Y-3168743D01*
X5061113Y-3140171D01*
X5089684Y-3125886D01*
X5132541Y-3125886D01*
X5161113Y-3140171D01*
X5275399Y-3440171D02*
X5289684Y-3425886D01*
X5318256Y-3383029D01*
X5332541Y-3354457D01*
X5346827Y-3311600D01*
X5361113Y-3240171D01*
X5361113Y-3183029D01*
X5346827Y-3111600D01*
X5332541Y-3068743D01*
X5318256Y-3040171D01*
X5289684Y-2997314D01*
X5275399Y-2983029D01*
X-2068173Y-3586171D02*
G75*
G03*
X-2068173Y-3586171I-20000J0D01*
G01*
X-1724601Y-3421886D02*
X-1696030Y-3421886D01*
X-1667458Y-3436171D01*
X-1653173Y-3450457D01*
X-1638887Y-3479029D01*
X-1624601Y-3536171D01*
X-1624601Y-3607600D01*
X-1638887Y-3664743D01*
X-1653173Y-3693314D01*
X-1667458Y-3707600D01*
X-1696030Y-3721886D01*
X-1724601Y-3721886D01*
X-1753173Y-3707600D01*
X-1767458Y-3693314D01*
X-1781744Y-3664743D01*
X-1796030Y-3607600D01*
X-1796030Y-3536171D01*
X-1781744Y-3479029D01*
X-1767458Y-3450457D01*
X-1753173Y-3436171D01*
X-1724601Y-3421886D01*
X-1496030Y-3693314D02*
X-1481744Y-3707600D01*
X-1496030Y-3721886D01*
X-1510316Y-3707600D01*
X-1496030Y-3693314D01*
X-1496030Y-3721886D01*
X-1224601Y-3521886D02*
X-1224601Y-3721886D01*
X-1296030Y-3407600D02*
X-1367459Y-3621886D01*
X-1181744Y-3621886D01*
X-1010316Y-3421886D02*
X-981744Y-3421886D01*
X-953173Y-3436171D01*
X-938887Y-3450457D01*
X-924601Y-3479029D01*
X-910316Y-3536171D01*
X-910316Y-3607600D01*
X-924601Y-3664743D01*
X-938887Y-3693314D01*
X-953173Y-3707600D01*
X-981744Y-3721886D01*
X-1010316Y-3721886D01*
X-1038887Y-3707600D01*
X-1053173Y-3693314D01*
X-1067459Y-3664743D01*
X-1081744Y-3607600D01*
X-1081744Y-3536171D01*
X-1067459Y-3479029D01*
X-1053173Y-3450457D01*
X-1038887Y-3436171D01*
X-1010316Y-3421886D01*
X-724601Y-3421886D02*
X-696030Y-3421886D01*
X-667459Y-3436171D01*
X-653173Y-3450457D01*
X-638887Y-3479029D01*
X-624601Y-3536171D01*
X-624601Y-3607600D01*
X-638887Y-3664743D01*
X-653173Y-3693314D01*
X-667459Y-3707600D01*
X-696030Y-3721886D01*
X-724601Y-3721886D01*
X-753173Y-3707600D01*
X-767458Y-3693314D01*
X-781744Y-3664743D01*
X-796030Y-3607600D01*
X-796030Y-3536171D01*
X-781744Y-3479029D01*
X-767458Y-3450457D01*
X-753173Y-3436171D01*
X-724601Y-3421886D01*
X-496030Y-3721886D02*
X-496030Y-3521886D01*
X-496030Y-3550457D02*
X-481744Y-3536171D01*
X-453173Y-3521886D01*
X-410316Y-3521886D01*
X-381744Y-3536171D01*
X-367458Y-3564743D01*
X-367458Y-3721886D01*
X-367458Y-3564743D02*
X-353173Y-3536171D01*
X-324601Y-3521886D01*
X-281744Y-3521886D01*
X-253173Y-3536171D01*
X-238887Y-3564743D01*
X-238887Y-3721886D01*
X-96030Y-3721886D02*
X-96030Y-3521886D01*
X-96030Y-3550457D02*
X-81744Y-3536171D01*
X-53173Y-3521886D01*
X-10316Y-3521886D01*
X18256Y-3536171D01*
X32541Y-3564743D01*
X32541Y-3721886D01*
X32541Y-3564743D02*
X46827Y-3536171D01*
X75399Y-3521886D01*
X118256Y-3521886D01*
X146827Y-3536171D01*
X161113Y-3564743D01*
X161113Y-3721886D01*
X746827Y-3407600D02*
X489684Y-3793314D01*
X1132541Y-3421886D02*
X1161113Y-3421886D01*
X1189684Y-3436171D01*
X1203970Y-3450457D01*
X1218256Y-3479029D01*
X1232541Y-3536171D01*
X1232541Y-3607600D01*
X1218256Y-3664743D01*
X1203970Y-3693314D01*
X1189684Y-3707600D01*
X1161113Y-3721886D01*
X1132541Y-3721886D01*
X1103970Y-3707600D01*
X1089684Y-3693314D01*
X1075399Y-3664743D01*
X1061113Y-3607600D01*
X1061113Y-3536171D01*
X1075399Y-3479029D01*
X1089684Y-3450457D01*
X1103970Y-3436171D01*
X1132541Y-3421886D01*
X1361113Y-3693314D02*
X1375399Y-3707600D01*
X1361113Y-3721886D01*
X1346827Y-3707600D01*
X1361113Y-3693314D01*
X1361113Y-3721886D01*
X1561113Y-3421886D02*
X1589684Y-3421886D01*
X1618256Y-3436171D01*
X1632541Y-3450457D01*
X1646827Y-3479029D01*
X1661113Y-3536171D01*
X1661113Y-3607600D01*
X1646827Y-3664743D01*
X1632541Y-3693314D01*
X1618256Y-3707600D01*
X1589684Y-3721886D01*
X1561113Y-3721886D01*
X1532541Y-3707600D01*
X1518256Y-3693314D01*
X1503970Y-3664743D01*
X1489684Y-3607600D01*
X1489684Y-3536171D01*
X1503970Y-3479029D01*
X1518256Y-3450457D01*
X1532541Y-3436171D01*
X1561113Y-3421886D01*
X1946827Y-3721886D02*
X1775399Y-3721886D01*
X1861113Y-3721886D02*
X1861113Y-3421886D01*
X1832541Y-3464743D01*
X1803970Y-3493314D01*
X1775399Y-3507600D01*
X2218256Y-3421886D02*
X2075399Y-3421886D01*
X2061113Y-3564743D01*
X2075399Y-3550457D01*
X2103970Y-3536171D01*
X2175399Y-3536171D01*
X2203970Y-3550457D01*
X2218256Y-3564743D01*
X2232541Y-3593314D01*
X2232541Y-3664743D01*
X2218256Y-3693314D01*
X2203970Y-3707600D01*
X2175399Y-3721886D01*
X2103970Y-3721886D01*
X2075399Y-3707600D01*
X2061113Y-3693314D01*
X2332541Y-3421886D02*
X2532541Y-3421886D01*
X2403970Y-3721886D01*
X2632541Y-3421886D02*
X2632541Y-3479029D01*
X2746827Y-3421886D02*
X2746827Y-3479029D01*
X3189684Y-3836171D02*
X3175399Y-3821886D01*
X3146827Y-3779029D01*
X3132541Y-3750457D01*
X3118256Y-3707600D01*
X3103970Y-3636171D01*
X3103970Y-3579029D01*
X3118256Y-3507600D01*
X3132541Y-3464743D01*
X3146827Y-3436171D01*
X3175399Y-3393314D01*
X3189684Y-3379029D01*
X3289684Y-3450457D02*
X3303970Y-3436171D01*
X3332541Y-3421886D01*
X3403970Y-3421886D01*
X3432541Y-3436171D01*
X3446827Y-3450457D01*
X3461113Y-3479029D01*
X3461113Y-3507600D01*
X3446827Y-3550457D01*
X3275399Y-3721886D01*
X3461113Y-3721886D01*
X3575399Y-3450457D02*
X3589684Y-3436171D01*
X3618256Y-3421886D01*
X3689684Y-3421886D01*
X3718256Y-3436171D01*
X3732541Y-3450457D01*
X3746827Y-3479029D01*
X3746827Y-3507600D01*
X3732541Y-3550457D01*
X3561113Y-3721886D01*
X3746827Y-3721886D01*
X4103970Y-3721886D02*
X4103970Y-3421886D01*
X4232541Y-3721886D02*
X4232541Y-3564743D01*
X4218256Y-3536171D01*
X4189684Y-3521886D01*
X4146827Y-3521886D01*
X4118256Y-3536171D01*
X4103970Y-3550457D01*
X4418256Y-3721886D02*
X4389684Y-3707600D01*
X4375399Y-3693314D01*
X4361113Y-3664743D01*
X4361113Y-3579029D01*
X4375399Y-3550457D01*
X4389684Y-3536171D01*
X4418256Y-3521886D01*
X4461113Y-3521886D01*
X4489684Y-3536171D01*
X4503970Y-3550457D01*
X4518256Y-3579029D01*
X4518256Y-3664743D01*
X4503970Y-3693314D01*
X4489684Y-3707600D01*
X4461113Y-3721886D01*
X4418256Y-3721886D01*
X4689684Y-3721886D02*
X4661113Y-3707600D01*
X4646827Y-3679029D01*
X4646827Y-3421886D01*
X4918256Y-3707600D02*
X4889684Y-3721886D01*
X4832541Y-3721886D01*
X4803970Y-3707600D01*
X4789684Y-3679029D01*
X4789684Y-3564743D01*
X4803970Y-3536171D01*
X4832541Y-3521886D01*
X4889684Y-3521886D01*
X4918256Y-3536171D01*
X4932541Y-3564743D01*
X4932541Y-3593314D01*
X4789684Y-3621886D01*
X5046827Y-3707600D02*
X5075399Y-3721886D01*
X5132541Y-3721886D01*
X5161113Y-3707600D01*
X5175399Y-3679029D01*
X5175399Y-3664743D01*
X5161113Y-3636171D01*
X5132541Y-3621886D01*
X5089684Y-3621886D01*
X5061113Y-3607600D01*
X5046827Y-3579029D01*
X5046827Y-3564743D01*
X5061113Y-3536171D01*
X5089684Y-3521886D01*
X5132541Y-3521886D01*
X5161113Y-3536171D01*
X5275399Y-3836171D02*
X5289684Y-3821886D01*
X5318256Y-3779029D01*
X5332541Y-3750457D01*
X5346827Y-3707600D01*
X5361113Y-3636171D01*
X5361113Y-3579029D01*
X5346827Y-3507600D01*
X5332541Y-3464743D01*
X5318256Y-3436171D01*
X5289684Y-3393314D01*
X5275399Y-3379029D01*
X-2098173Y-3952171D02*
X-2098173Y-4012171D01*
X-2128173Y-3982171D02*
X-2068173Y-3982171D01*
X-1724601Y-3817886D02*
X-1696030Y-3817886D01*
X-1667458Y-3832171D01*
X-1653173Y-3846457D01*
X-1638887Y-3875029D01*
X-1624601Y-3932171D01*
X-1624601Y-4003600D01*
X-1638887Y-4060743D01*
X-1653173Y-4089314D01*
X-1667458Y-4103600D01*
X-1696030Y-4117886D01*
X-1724601Y-4117886D01*
X-1753173Y-4103600D01*
X-1767458Y-4089314D01*
X-1781744Y-4060743D01*
X-1796030Y-4003600D01*
X-1796030Y-3932171D01*
X-1781744Y-3875029D01*
X-1767458Y-3846457D01*
X-1753173Y-3832171D01*
X-1724601Y-3817886D01*
X-1496030Y-4089314D02*
X-1481744Y-4103600D01*
X-1496030Y-4117886D01*
X-1510316Y-4103600D01*
X-1496030Y-4089314D01*
X-1496030Y-4117886D01*
X-1224601Y-3817886D02*
X-1281744Y-3817886D01*
X-1310316Y-3832171D01*
X-1324601Y-3846457D01*
X-1353173Y-3889314D01*
X-1367459Y-3946457D01*
X-1367459Y-4060743D01*
X-1353173Y-4089314D01*
X-1338887Y-4103600D01*
X-1310316Y-4117886D01*
X-1253173Y-4117886D01*
X-1224601Y-4103600D01*
X-1210316Y-4089314D01*
X-1196030Y-4060743D01*
X-1196030Y-3989314D01*
X-1210316Y-3960743D01*
X-1224601Y-3946457D01*
X-1253173Y-3932171D01*
X-1310316Y-3932171D01*
X-1338887Y-3946457D01*
X-1353173Y-3960743D01*
X-1367459Y-3989314D01*
X-1010316Y-3817886D02*
X-981744Y-3817886D01*
X-953173Y-3832171D01*
X-938887Y-3846457D01*
X-924601Y-3875029D01*
X-910316Y-3932171D01*
X-910316Y-4003600D01*
X-924601Y-4060743D01*
X-938887Y-4089314D01*
X-953173Y-4103600D01*
X-981744Y-4117886D01*
X-1010316Y-4117886D01*
X-1038887Y-4103600D01*
X-1053173Y-4089314D01*
X-1067459Y-4060743D01*
X-1081744Y-4003600D01*
X-1081744Y-3932171D01*
X-1067459Y-3875029D01*
X-1053173Y-3846457D01*
X-1038887Y-3832171D01*
X-1010316Y-3817886D01*
X-724601Y-3817886D02*
X-696030Y-3817886D01*
X-667459Y-3832171D01*
X-653173Y-3846457D01*
X-638887Y-3875029D01*
X-624601Y-3932171D01*
X-624601Y-4003600D01*
X-638887Y-4060743D01*
X-653173Y-4089314D01*
X-667459Y-4103600D01*
X-696030Y-4117886D01*
X-724601Y-4117886D01*
X-753173Y-4103600D01*
X-767458Y-4089314D01*
X-781744Y-4060743D01*
X-796030Y-4003600D01*
X-796030Y-3932171D01*
X-781744Y-3875029D01*
X-767458Y-3846457D01*
X-753173Y-3832171D01*
X-724601Y-3817886D01*
X-496030Y-4117886D02*
X-496030Y-3917886D01*
X-496030Y-3946457D02*
X-481744Y-3932171D01*
X-453173Y-3917886D01*
X-410316Y-3917886D01*
X-381744Y-3932171D01*
X-367458Y-3960743D01*
X-367458Y-4117886D01*
X-367458Y-3960743D02*
X-353173Y-3932171D01*
X-324601Y-3917886D01*
X-281744Y-3917886D01*
X-253173Y-3932171D01*
X-238887Y-3960743D01*
X-238887Y-4117886D01*
X-96030Y-4117886D02*
X-96030Y-3917886D01*
X-96030Y-3946457D02*
X-81744Y-3932171D01*
X-53173Y-3917886D01*
X-10316Y-3917886D01*
X18256Y-3932171D01*
X32541Y-3960743D01*
X32541Y-4117886D01*
X32541Y-3960743D02*
X46827Y-3932171D01*
X75399Y-3917886D01*
X118256Y-3917886D01*
X146827Y-3932171D01*
X161113Y-3960743D01*
X161113Y-4117886D01*
X746827Y-3803600D02*
X489684Y-4189314D01*
X1132541Y-3817886D02*
X1161113Y-3817886D01*
X1189684Y-3832171D01*
X1203970Y-3846457D01*
X1218256Y-3875029D01*
X1232541Y-3932171D01*
X1232541Y-4003600D01*
X1218256Y-4060743D01*
X1203970Y-4089314D01*
X1189684Y-4103600D01*
X1161113Y-4117886D01*
X1132541Y-4117886D01*
X1103970Y-4103600D01*
X1089684Y-4089314D01*
X1075399Y-4060743D01*
X1061113Y-4003600D01*
X1061113Y-3932171D01*
X1075399Y-3875029D01*
X1089684Y-3846457D01*
X1103970Y-3832171D01*
X1132541Y-3817886D01*
X1361113Y-4089314D02*
X1375399Y-4103600D01*
X1361113Y-4117886D01*
X1346827Y-4103600D01*
X1361113Y-4089314D01*
X1361113Y-4117886D01*
X1561113Y-3817886D02*
X1589684Y-3817886D01*
X1618256Y-3832171D01*
X1632541Y-3846457D01*
X1646827Y-3875029D01*
X1661113Y-3932171D01*
X1661113Y-4003600D01*
X1646827Y-4060743D01*
X1632541Y-4089314D01*
X1618256Y-4103600D01*
X1589684Y-4117886D01*
X1561113Y-4117886D01*
X1532541Y-4103600D01*
X1518256Y-4089314D01*
X1503970Y-4060743D01*
X1489684Y-4003600D01*
X1489684Y-3932171D01*
X1503970Y-3875029D01*
X1518256Y-3846457D01*
X1532541Y-3832171D01*
X1561113Y-3817886D01*
X1775399Y-3846457D02*
X1789684Y-3832171D01*
X1818256Y-3817886D01*
X1889684Y-3817886D01*
X1918256Y-3832171D01*
X1932541Y-3846457D01*
X1946827Y-3875029D01*
X1946827Y-3903600D01*
X1932541Y-3946457D01*
X1761113Y-4117886D01*
X1946827Y-4117886D01*
X2046827Y-3817886D02*
X2232541Y-3817886D01*
X2132541Y-3932171D01*
X2175399Y-3932171D01*
X2203970Y-3946457D01*
X2218256Y-3960743D01*
X2232541Y-3989314D01*
X2232541Y-4060743D01*
X2218256Y-4089314D01*
X2203970Y-4103600D01*
X2175399Y-4117886D01*
X2089684Y-4117886D01*
X2061113Y-4103600D01*
X2046827Y-4089314D01*
X2489684Y-3817886D02*
X2432541Y-3817886D01*
X2403970Y-3832171D01*
X2389684Y-3846457D01*
X2361113Y-3889314D01*
X2346827Y-3946457D01*
X2346827Y-4060743D01*
X2361113Y-4089314D01*
X2375399Y-4103600D01*
X2403970Y-4117886D01*
X2461113Y-4117886D01*
X2489684Y-4103600D01*
X2503970Y-4089314D01*
X2518256Y-4060743D01*
X2518256Y-3989314D01*
X2503970Y-3960743D01*
X2489684Y-3946457D01*
X2461113Y-3932171D01*
X2403970Y-3932171D01*
X2375399Y-3946457D01*
X2361113Y-3960743D01*
X2346827Y-3989314D01*
X2632541Y-3817886D02*
X2632541Y-3875029D01*
X2746827Y-3817886D02*
X2746827Y-3875029D01*
X3189684Y-4232172D02*
X3175399Y-4217886D01*
X3146827Y-4175029D01*
X3132541Y-4146457D01*
X3118256Y-4103600D01*
X3103970Y-4032171D01*
X3103970Y-3975029D01*
X3118256Y-3903600D01*
X3132541Y-3860743D01*
X3146827Y-3832171D01*
X3175399Y-3789314D01*
X3189684Y-3775029D01*
X3361113Y-3817886D02*
X3389684Y-3817886D01*
X3418256Y-3832171D01*
X3432541Y-3846457D01*
X3446827Y-3875029D01*
X3461113Y-3932171D01*
X3461113Y-4003600D01*
X3446827Y-4060743D01*
X3432541Y-4089314D01*
X3418256Y-4103600D01*
X3389684Y-4117886D01*
X3361113Y-4117886D01*
X3332541Y-4103600D01*
X3318256Y-4089314D01*
X3303970Y-4060743D01*
X3289684Y-4003600D01*
X3289684Y-3932171D01*
X3303970Y-3875029D01*
X3318256Y-3846457D01*
X3332541Y-3832171D01*
X3361113Y-3817886D01*
X3818256Y-4117886D02*
X3818256Y-3817886D01*
X3946827Y-4117886D02*
X3946827Y-3960743D01*
X3932541Y-3932171D01*
X3903970Y-3917886D01*
X3861113Y-3917886D01*
X3832541Y-3932171D01*
X3818256Y-3946457D01*
X4132541Y-4117886D02*
X4103970Y-4103600D01*
X4089684Y-4089314D01*
X4075399Y-4060743D01*
X4075399Y-3975029D01*
X4089684Y-3946457D01*
X4103970Y-3932171D01*
X4132541Y-3917886D01*
X4175399Y-3917886D01*
X4203970Y-3932171D01*
X4218256Y-3946457D01*
X4232541Y-3975029D01*
X4232541Y-4060743D01*
X4218256Y-4089314D01*
X4203970Y-4103600D01*
X4175399Y-4117886D01*
X4132541Y-4117886D01*
X4403970Y-4117886D02*
X4375399Y-4103600D01*
X4361113Y-4075029D01*
X4361113Y-3817886D01*
X4632541Y-4103600D02*
X4603970Y-4117886D01*
X4546827Y-4117886D01*
X4518256Y-4103600D01*
X4503970Y-4075029D01*
X4503970Y-3960743D01*
X4518256Y-3932171D01*
X4546827Y-3917886D01*
X4603970Y-3917886D01*
X4632541Y-3932171D01*
X4646827Y-3960743D01*
X4646827Y-3989314D01*
X4503970Y-4017886D01*
X4761113Y-4103600D02*
X4789684Y-4117886D01*
X4846827Y-4117886D01*
X4875399Y-4103600D01*
X4889684Y-4075029D01*
X4889684Y-4060743D01*
X4875399Y-4032171D01*
X4846827Y-4017886D01*
X4803970Y-4017886D01*
X4775399Y-4003600D01*
X4761113Y-3975029D01*
X4761113Y-3960743D01*
X4775399Y-3932171D01*
X4803970Y-3917886D01*
X4846827Y-3917886D01*
X4875399Y-3932171D01*
X5246827Y-4003600D02*
X5475399Y-4003600D01*
X5361113Y-4117886D02*
X5361113Y-3889314D01*
X6003970Y-4117886D02*
X5832541Y-4117886D01*
X5918256Y-4117886D02*
X5918256Y-3817886D01*
X5889684Y-3860743D01*
X5861113Y-3889314D01*
X5832541Y-3903600D01*
X6118256Y-3846457D02*
X6132541Y-3832171D01*
X6161113Y-3817886D01*
X6232541Y-3817886D01*
X6261113Y-3832171D01*
X6275399Y-3846457D01*
X6289684Y-3875029D01*
X6289684Y-3903600D01*
X6275399Y-3946457D01*
X6103970Y-4117886D01*
X6289684Y-4117886D01*
X6632541Y-4103600D02*
X6661113Y-4117886D01*
X6718256Y-4117886D01*
X6746827Y-4103600D01*
X6761113Y-4075029D01*
X6761113Y-4060743D01*
X6746827Y-4032171D01*
X6718256Y-4017886D01*
X6675399Y-4017886D01*
X6646827Y-4003600D01*
X6632541Y-3975029D01*
X6632541Y-3960743D01*
X6646827Y-3932171D01*
X6675399Y-3917886D01*
X6718256Y-3917886D01*
X6746827Y-3932171D01*
X6932541Y-4117886D02*
X6903970Y-4103600D01*
X6889684Y-4075029D01*
X6889684Y-3817886D01*
X7089684Y-4117886D02*
X7061113Y-4103600D01*
X7046827Y-4089314D01*
X7032541Y-4060743D01*
X7032541Y-3975029D01*
X7046827Y-3946457D01*
X7061113Y-3932171D01*
X7089684Y-3917886D01*
X7132541Y-3917886D01*
X7161113Y-3932171D01*
X7175399Y-3946457D01*
X7189684Y-3975029D01*
X7189684Y-4060743D01*
X7175399Y-4089314D01*
X7161113Y-4103600D01*
X7132541Y-4117886D01*
X7089684Y-4117886D01*
X7275399Y-3917886D02*
X7389684Y-3917886D01*
X7318256Y-3817886D02*
X7318256Y-4075029D01*
X7332541Y-4103600D01*
X7361113Y-4117886D01*
X7389684Y-4117886D01*
X7475399Y-4103600D02*
X7503970Y-4117886D01*
X7561113Y-4117886D01*
X7589684Y-4103600D01*
X7603970Y-4075029D01*
X7603970Y-4060743D01*
X7589684Y-4032171D01*
X7561113Y-4017886D01*
X7518256Y-4017886D01*
X7489684Y-4003600D01*
X7475399Y-3975029D01*
X7475399Y-3960743D01*
X7489684Y-3932171D01*
X7518256Y-3917886D01*
X7561113Y-3917886D01*
X7589684Y-3932171D01*
X7703970Y-4232172D02*
X7718256Y-4217886D01*
X7746827Y-4175029D01*
X7761113Y-4146457D01*
X7775399Y-4103600D01*
X7789684Y-4032171D01*
X7789684Y-3975029D01*
X7775399Y-3903600D01*
X7761113Y-3860743D01*
X7746827Y-3832171D01*
X7718256Y-3789314D01*
X7703970Y-3775029D01*
M02*
