G04 #@! TF.GenerationSoftware,KiCad,Pcbnew,(5.1.10-1-10_14)*
G04 #@! TF.CreationDate,2021-08-15T09:52:45-07:00*
G04 #@! TF.ProjectId,Synapse,53796e61-7073-4652-9e6b-696361645f70,1*
G04 #@! TF.SameCoordinates,Original*
G04 #@! TF.FileFunction,Soldermask,Top*
G04 #@! TF.FilePolarity,Negative*
%FSLAX46Y46*%
G04 Gerber Fmt 4.6, Leading zero omitted, Abs format (unit mm)*
G04 Created by KiCad (PCBNEW (5.1.10-1-10_14)) date 2021-08-15 09:52:45*
%MOMM*%
%LPD*%
G01*
G04 APERTURE LIST*
%ADD10C,0.010000*%
%ADD11C,0.152400*%
%ADD12R,1.700000X0.900000*%
%ADD13R,1.060000X1.560000*%
%ADD14R,0.630000X0.320000*%
%ADD15R,5.600000X5.600000*%
%ADD16R,0.575000X1.140000*%
%ADD17R,0.900000X0.800000*%
%ADD18C,0.650000*%
%ADD19O,1.000000X1.600000*%
%ADD20O,1.000000X2.100000*%
%ADD21R,0.300000X1.450000*%
%ADD22R,0.600000X1.450000*%
G04 APERTURE END LIST*
D10*
G36*
X-6150000Y-6305000D02*
G01*
X-6640000Y-6305000D01*
X-6640000Y-6120000D01*
X-6465000Y-5945000D01*
X-6150000Y-5945000D01*
X-6150000Y-6305000D01*
G37*
X-6150000Y-6305000D02*
X-6640000Y-6305000D01*
X-6640000Y-6120000D01*
X-6465000Y-5945000D01*
X-6150000Y-5945000D01*
X-6150000Y-6305000D01*
G36*
X-6150000Y-5295000D02*
G01*
X-6640000Y-5295000D01*
X-6640000Y-5480000D01*
X-6465000Y-5655000D01*
X-6150000Y-5655000D01*
X-6150000Y-5295000D01*
G37*
X-6150000Y-5295000D02*
X-6640000Y-5295000D01*
X-6640000Y-5480000D01*
X-6465000Y-5655000D01*
X-6150000Y-5655000D01*
X-6150000Y-5295000D01*
G36*
X-7450000Y-5295000D02*
G01*
X-6960000Y-5295000D01*
X-6960000Y-5480000D01*
X-7135000Y-5655000D01*
X-7450000Y-5655000D01*
X-7450000Y-5295000D01*
G37*
X-7450000Y-5295000D02*
X-6960000Y-5295000D01*
X-6960000Y-5480000D01*
X-7135000Y-5655000D01*
X-7450000Y-5655000D01*
X-7450000Y-5295000D01*
G36*
X-7450000Y-6305000D02*
G01*
X-6960000Y-6305000D01*
X-6960000Y-6120000D01*
X-7135000Y-5945000D01*
X-7450000Y-5945000D01*
X-7450000Y-6305000D01*
G37*
X-7450000Y-6305000D02*
X-6960000Y-6305000D01*
X-6960000Y-6120000D01*
X-7135000Y-5945000D01*
X-7450000Y-5945000D01*
X-7450000Y-6305000D01*
G36*
X-6150000Y-6305000D02*
G01*
X-6640000Y-6305000D01*
X-6640000Y-6120000D01*
X-6465000Y-5945000D01*
X-6150000Y-5945000D01*
X-6150000Y-6305000D01*
G37*
X-6150000Y-6305000D02*
X-6640000Y-6305000D01*
X-6640000Y-6120000D01*
X-6465000Y-5945000D01*
X-6150000Y-5945000D01*
X-6150000Y-6305000D01*
G36*
X-6150000Y-5295000D02*
G01*
X-6640000Y-5295000D01*
X-6640000Y-5480000D01*
X-6465000Y-5655000D01*
X-6150000Y-5655000D01*
X-6150000Y-5295000D01*
G37*
X-6150000Y-5295000D02*
X-6640000Y-5295000D01*
X-6640000Y-5480000D01*
X-6465000Y-5655000D01*
X-6150000Y-5655000D01*
X-6150000Y-5295000D01*
G36*
X-7450000Y-5295000D02*
G01*
X-6960000Y-5295000D01*
X-6960000Y-5480000D01*
X-7135000Y-5655000D01*
X-7450000Y-5655000D01*
X-7450000Y-5295000D01*
G37*
X-7450000Y-5295000D02*
X-6960000Y-5295000D01*
X-6960000Y-5480000D01*
X-7135000Y-5655000D01*
X-7450000Y-5655000D01*
X-7450000Y-5295000D01*
G36*
X-7450000Y-6305000D02*
G01*
X-6960000Y-6305000D01*
X-6960000Y-6120000D01*
X-7135000Y-5945000D01*
X-7450000Y-5945000D01*
X-7450000Y-6305000D01*
G37*
X-7450000Y-6305000D02*
X-6960000Y-6305000D01*
X-6960000Y-6120000D01*
X-7135000Y-5945000D01*
X-7450000Y-5945000D01*
X-7450000Y-6305000D01*
D11*
G36*
X-6800000Y-5432304D02*
G01*
X-6432304Y-5800000D01*
X-6800000Y-6167696D01*
X-7167696Y-5800000D01*
X-6800000Y-5432304D01*
G37*
G36*
G01*
X6200000Y3330000D02*
X6200000Y3670000D01*
G75*
G02*
X6340000Y3810000I140000J0D01*
G01*
X6620000Y3810000D01*
G75*
G02*
X6760000Y3670000I0J-140000D01*
G01*
X6760000Y3330000D01*
G75*
G02*
X6620000Y3190000I-140000J0D01*
G01*
X6340000Y3190000D01*
G75*
G02*
X6200000Y3330000I0J140000D01*
G01*
G37*
G36*
G01*
X5240000Y3330000D02*
X5240000Y3670000D01*
G75*
G02*
X5380000Y3810000I140000J0D01*
G01*
X5660000Y3810000D01*
G75*
G02*
X5800000Y3670000I0J-140000D01*
G01*
X5800000Y3330000D01*
G75*
G02*
X5660000Y3190000I-140000J0D01*
G01*
X5380000Y3190000D01*
G75*
G02*
X5240000Y3330000I0J140000D01*
G01*
G37*
G36*
G01*
X-2277500Y10390000D02*
X-2622500Y10390000D01*
G75*
G02*
X-2770000Y10537500I0J147500D01*
G01*
X-2770000Y10832500D01*
G75*
G02*
X-2622500Y10980000I147500J0D01*
G01*
X-2277500Y10980000D01*
G75*
G02*
X-2130000Y10832500I0J-147500D01*
G01*
X-2130000Y10537500D01*
G75*
G02*
X-2277500Y10390000I-147500J0D01*
G01*
G37*
G36*
G01*
X-2277500Y9420000D02*
X-2622500Y9420000D01*
G75*
G02*
X-2770000Y9567500I0J147500D01*
G01*
X-2770000Y9862500D01*
G75*
G02*
X-2622500Y10010000I147500J0D01*
G01*
X-2277500Y10010000D01*
G75*
G02*
X-2130000Y9862500I0J-147500D01*
G01*
X-2130000Y9567500D01*
G75*
G02*
X-2277500Y9420000I-147500J0D01*
G01*
G37*
G36*
G01*
X2622500Y10390000D02*
X2277500Y10390000D01*
G75*
G02*
X2130000Y10537500I0J147500D01*
G01*
X2130000Y10832500D01*
G75*
G02*
X2277500Y10980000I147500J0D01*
G01*
X2622500Y10980000D01*
G75*
G02*
X2770000Y10832500I0J-147500D01*
G01*
X2770000Y10537500D01*
G75*
G02*
X2622500Y10390000I-147500J0D01*
G01*
G37*
G36*
G01*
X2622500Y9420000D02*
X2277500Y9420000D01*
G75*
G02*
X2130000Y9567500I0J147500D01*
G01*
X2130000Y9862500D01*
G75*
G02*
X2277500Y10010000I147500J0D01*
G01*
X2622500Y10010000D01*
G75*
G02*
X2770000Y9862500I0J-147500D01*
G01*
X2770000Y9567500D01*
G75*
G02*
X2622500Y9420000I-147500J0D01*
G01*
G37*
G36*
G01*
X5985000Y1047500D02*
X5985000Y1392500D01*
G75*
G02*
X6132500Y1540000I147500J0D01*
G01*
X6427500Y1540000D01*
G75*
G02*
X6575000Y1392500I0J-147500D01*
G01*
X6575000Y1047500D01*
G75*
G02*
X6427500Y900000I-147500J0D01*
G01*
X6132500Y900000D01*
G75*
G02*
X5985000Y1047500I0J147500D01*
G01*
G37*
G36*
G01*
X6955000Y1047500D02*
X6955000Y1392500D01*
G75*
G02*
X7102500Y1540000I147500J0D01*
G01*
X7397500Y1540000D01*
G75*
G02*
X7545000Y1392500I0J-147500D01*
G01*
X7545000Y1047500D01*
G75*
G02*
X7397500Y900000I-147500J0D01*
G01*
X7102500Y900000D01*
G75*
G02*
X6955000Y1047500I0J147500D01*
G01*
G37*
G36*
G01*
X4172500Y9290000D02*
X3827500Y9290000D01*
G75*
G02*
X3680000Y9437500I0J147500D01*
G01*
X3680000Y9732500D01*
G75*
G02*
X3827500Y9880000I147500J0D01*
G01*
X4172500Y9880000D01*
G75*
G02*
X4320000Y9732500I0J-147500D01*
G01*
X4320000Y9437500D01*
G75*
G02*
X4172500Y9290000I-147500J0D01*
G01*
G37*
G36*
G01*
X4172500Y8320000D02*
X3827500Y8320000D01*
G75*
G02*
X3680000Y8467500I0J147500D01*
G01*
X3680000Y8762500D01*
G75*
G02*
X3827500Y8910000I147500J0D01*
G01*
X4172500Y8910000D01*
G75*
G02*
X4320000Y8762500I0J-147500D01*
G01*
X4320000Y8467500D01*
G75*
G02*
X4172500Y8320000I-147500J0D01*
G01*
G37*
D12*
X6600000Y-3500000D03*
X6600000Y-6900000D03*
D13*
X0Y-11700000D03*
D14*
X-1335000Y-12450000D03*
X-1335000Y-11950000D03*
X-1335000Y-11450000D03*
X-1335000Y-10950000D03*
X1335000Y-10950000D03*
X1335000Y-11450000D03*
X1335000Y-11950000D03*
X1335000Y-12450000D03*
G36*
G01*
X-3960000Y-12570000D02*
X-3960000Y-12230000D01*
G75*
G02*
X-3820000Y-12090000I140000J0D01*
G01*
X-3540000Y-12090000D01*
G75*
G02*
X-3400000Y-12230000I0J-140000D01*
G01*
X-3400000Y-12570000D01*
G75*
G02*
X-3540000Y-12710000I-140000J0D01*
G01*
X-3820000Y-12710000D01*
G75*
G02*
X-3960000Y-12570000I0J140000D01*
G01*
G37*
G36*
G01*
X-3000000Y-12570000D02*
X-3000000Y-12230000D01*
G75*
G02*
X-2860000Y-12090000I140000J0D01*
G01*
X-2580000Y-12090000D01*
G75*
G02*
X-2440000Y-12230000I0J-140000D01*
G01*
X-2440000Y-12570000D01*
G75*
G02*
X-2580000Y-12710000I-140000J0D01*
G01*
X-2860000Y-12710000D01*
G75*
G02*
X-3000000Y-12570000I0J140000D01*
G01*
G37*
G36*
G01*
X-7000000Y-7030000D02*
X-7000000Y-7370000D01*
G75*
G02*
X-7140000Y-7510000I-140000J0D01*
G01*
X-7420000Y-7510000D01*
G75*
G02*
X-7560000Y-7370000I0J140000D01*
G01*
X-7560000Y-7030000D01*
G75*
G02*
X-7420000Y-6890000I140000J0D01*
G01*
X-7140000Y-6890000D01*
G75*
G02*
X-7000000Y-7030000I0J-140000D01*
G01*
G37*
G36*
G01*
X-6040000Y-7030000D02*
X-6040000Y-7370000D01*
G75*
G02*
X-6180000Y-7510000I-140000J0D01*
G01*
X-6460000Y-7510000D01*
G75*
G02*
X-6600000Y-7370000I0J140000D01*
G01*
X-6600000Y-7030000D01*
G75*
G02*
X-6460000Y-6890000I140000J0D01*
G01*
X-6180000Y-6890000D01*
G75*
G02*
X-6040000Y-7030000I0J-140000D01*
G01*
G37*
G36*
G01*
X-6600000Y-4570000D02*
X-6600000Y-4230000D01*
G75*
G02*
X-6460000Y-4090000I140000J0D01*
G01*
X-6180000Y-4090000D01*
G75*
G02*
X-6040000Y-4230000I0J-140000D01*
G01*
X-6040000Y-4570000D01*
G75*
G02*
X-6180000Y-4710000I-140000J0D01*
G01*
X-6460000Y-4710000D01*
G75*
G02*
X-6600000Y-4570000I0J140000D01*
G01*
G37*
G36*
G01*
X-7560000Y-4570000D02*
X-7560000Y-4230000D01*
G75*
G02*
X-7420000Y-4090000I140000J0D01*
G01*
X-7140000Y-4090000D01*
G75*
G02*
X-7000000Y-4230000I0J-140000D01*
G01*
X-7000000Y-4570000D01*
G75*
G02*
X-7140000Y-4710000I-140000J0D01*
G01*
X-7420000Y-4710000D01*
G75*
G02*
X-7560000Y-4570000I0J140000D01*
G01*
G37*
G36*
G01*
X-2687500Y-1875000D02*
X-2812500Y-1875000D01*
G75*
G02*
X-2875000Y-1812500I0J62500D01*
G01*
X-2875000Y-1062500D01*
G75*
G02*
X-2812500Y-1000000I62500J0D01*
G01*
X-2687500Y-1000000D01*
G75*
G02*
X-2625000Y-1062500I0J-62500D01*
G01*
X-2625000Y-1812500D01*
G75*
G02*
X-2687500Y-1875000I-62500J0D01*
G01*
G37*
G36*
G01*
X-2187500Y-1875000D02*
X-2312500Y-1875000D01*
G75*
G02*
X-2375000Y-1812500I0J62500D01*
G01*
X-2375000Y-1062500D01*
G75*
G02*
X-2312500Y-1000000I62500J0D01*
G01*
X-2187500Y-1000000D01*
G75*
G02*
X-2125000Y-1062500I0J-62500D01*
G01*
X-2125000Y-1812500D01*
G75*
G02*
X-2187500Y-1875000I-62500J0D01*
G01*
G37*
G36*
G01*
X-1687500Y-1875000D02*
X-1812500Y-1875000D01*
G75*
G02*
X-1875000Y-1812500I0J62500D01*
G01*
X-1875000Y-1062500D01*
G75*
G02*
X-1812500Y-1000000I62500J0D01*
G01*
X-1687500Y-1000000D01*
G75*
G02*
X-1625000Y-1062500I0J-62500D01*
G01*
X-1625000Y-1812500D01*
G75*
G02*
X-1687500Y-1875000I-62500J0D01*
G01*
G37*
G36*
G01*
X-1187500Y-1875000D02*
X-1312500Y-1875000D01*
G75*
G02*
X-1375000Y-1812500I0J62500D01*
G01*
X-1375000Y-1062500D01*
G75*
G02*
X-1312500Y-1000000I62500J0D01*
G01*
X-1187500Y-1000000D01*
G75*
G02*
X-1125000Y-1062500I0J-62500D01*
G01*
X-1125000Y-1812500D01*
G75*
G02*
X-1187500Y-1875000I-62500J0D01*
G01*
G37*
G36*
G01*
X-687500Y-1875000D02*
X-812500Y-1875000D01*
G75*
G02*
X-875000Y-1812500I0J62500D01*
G01*
X-875000Y-1062500D01*
G75*
G02*
X-812500Y-1000000I62500J0D01*
G01*
X-687500Y-1000000D01*
G75*
G02*
X-625000Y-1062500I0J-62500D01*
G01*
X-625000Y-1812500D01*
G75*
G02*
X-687500Y-1875000I-62500J0D01*
G01*
G37*
G36*
G01*
X-187500Y-1875000D02*
X-312500Y-1875000D01*
G75*
G02*
X-375000Y-1812500I0J62500D01*
G01*
X-375000Y-1062500D01*
G75*
G02*
X-312500Y-1000000I62500J0D01*
G01*
X-187500Y-1000000D01*
G75*
G02*
X-125000Y-1062500I0J-62500D01*
G01*
X-125000Y-1812500D01*
G75*
G02*
X-187500Y-1875000I-62500J0D01*
G01*
G37*
G36*
G01*
X312500Y-1875000D02*
X187500Y-1875000D01*
G75*
G02*
X125000Y-1812500I0J62500D01*
G01*
X125000Y-1062500D01*
G75*
G02*
X187500Y-1000000I62500J0D01*
G01*
X312500Y-1000000D01*
G75*
G02*
X375000Y-1062500I0J-62500D01*
G01*
X375000Y-1812500D01*
G75*
G02*
X312500Y-1875000I-62500J0D01*
G01*
G37*
G36*
G01*
X812500Y-1875000D02*
X687500Y-1875000D01*
G75*
G02*
X625000Y-1812500I0J62500D01*
G01*
X625000Y-1062500D01*
G75*
G02*
X687500Y-1000000I62500J0D01*
G01*
X812500Y-1000000D01*
G75*
G02*
X875000Y-1062500I0J-62500D01*
G01*
X875000Y-1812500D01*
G75*
G02*
X812500Y-1875000I-62500J0D01*
G01*
G37*
G36*
G01*
X1312500Y-1875000D02*
X1187500Y-1875000D01*
G75*
G02*
X1125000Y-1812500I0J62500D01*
G01*
X1125000Y-1062500D01*
G75*
G02*
X1187500Y-1000000I62500J0D01*
G01*
X1312500Y-1000000D01*
G75*
G02*
X1375000Y-1062500I0J-62500D01*
G01*
X1375000Y-1812500D01*
G75*
G02*
X1312500Y-1875000I-62500J0D01*
G01*
G37*
G36*
G01*
X1812500Y-1875000D02*
X1687500Y-1875000D01*
G75*
G02*
X1625000Y-1812500I0J62500D01*
G01*
X1625000Y-1062500D01*
G75*
G02*
X1687500Y-1000000I62500J0D01*
G01*
X1812500Y-1000000D01*
G75*
G02*
X1875000Y-1062500I0J-62500D01*
G01*
X1875000Y-1812500D01*
G75*
G02*
X1812500Y-1875000I-62500J0D01*
G01*
G37*
G36*
G01*
X2312500Y-1875000D02*
X2187500Y-1875000D01*
G75*
G02*
X2125000Y-1812500I0J62500D01*
G01*
X2125000Y-1062500D01*
G75*
G02*
X2187500Y-1000000I62500J0D01*
G01*
X2312500Y-1000000D01*
G75*
G02*
X2375000Y-1062500I0J-62500D01*
G01*
X2375000Y-1812500D01*
G75*
G02*
X2312500Y-1875000I-62500J0D01*
G01*
G37*
G36*
G01*
X2812500Y-1875000D02*
X2687500Y-1875000D01*
G75*
G02*
X2625000Y-1812500I0J62500D01*
G01*
X2625000Y-1062500D01*
G75*
G02*
X2687500Y-1000000I62500J0D01*
G01*
X2812500Y-1000000D01*
G75*
G02*
X2875000Y-1062500I0J-62500D01*
G01*
X2875000Y-1812500D01*
G75*
G02*
X2812500Y-1875000I-62500J0D01*
G01*
G37*
G36*
G01*
X3812500Y-875000D02*
X3062500Y-875000D01*
G75*
G02*
X3000000Y-812500I0J62500D01*
G01*
X3000000Y-687500D01*
G75*
G02*
X3062500Y-625000I62500J0D01*
G01*
X3812500Y-625000D01*
G75*
G02*
X3875000Y-687500I0J-62500D01*
G01*
X3875000Y-812500D01*
G75*
G02*
X3812500Y-875000I-62500J0D01*
G01*
G37*
G36*
G01*
X3812500Y-375000D02*
X3062500Y-375000D01*
G75*
G02*
X3000000Y-312500I0J62500D01*
G01*
X3000000Y-187500D01*
G75*
G02*
X3062500Y-125000I62500J0D01*
G01*
X3812500Y-125000D01*
G75*
G02*
X3875000Y-187500I0J-62500D01*
G01*
X3875000Y-312500D01*
G75*
G02*
X3812500Y-375000I-62500J0D01*
G01*
G37*
G36*
G01*
X3812500Y125000D02*
X3062500Y125000D01*
G75*
G02*
X3000000Y187500I0J62500D01*
G01*
X3000000Y312500D01*
G75*
G02*
X3062500Y375000I62500J0D01*
G01*
X3812500Y375000D01*
G75*
G02*
X3875000Y312500I0J-62500D01*
G01*
X3875000Y187500D01*
G75*
G02*
X3812500Y125000I-62500J0D01*
G01*
G37*
G36*
G01*
X3812500Y625000D02*
X3062500Y625000D01*
G75*
G02*
X3000000Y687500I0J62500D01*
G01*
X3000000Y812500D01*
G75*
G02*
X3062500Y875000I62500J0D01*
G01*
X3812500Y875000D01*
G75*
G02*
X3875000Y812500I0J-62500D01*
G01*
X3875000Y687500D01*
G75*
G02*
X3812500Y625000I-62500J0D01*
G01*
G37*
G36*
G01*
X3812500Y1125000D02*
X3062500Y1125000D01*
G75*
G02*
X3000000Y1187500I0J62500D01*
G01*
X3000000Y1312500D01*
G75*
G02*
X3062500Y1375000I62500J0D01*
G01*
X3812500Y1375000D01*
G75*
G02*
X3875000Y1312500I0J-62500D01*
G01*
X3875000Y1187500D01*
G75*
G02*
X3812500Y1125000I-62500J0D01*
G01*
G37*
G36*
G01*
X3812500Y1625000D02*
X3062500Y1625000D01*
G75*
G02*
X3000000Y1687500I0J62500D01*
G01*
X3000000Y1812500D01*
G75*
G02*
X3062500Y1875000I62500J0D01*
G01*
X3812500Y1875000D01*
G75*
G02*
X3875000Y1812500I0J-62500D01*
G01*
X3875000Y1687500D01*
G75*
G02*
X3812500Y1625000I-62500J0D01*
G01*
G37*
G36*
G01*
X3812500Y2125000D02*
X3062500Y2125000D01*
G75*
G02*
X3000000Y2187500I0J62500D01*
G01*
X3000000Y2312500D01*
G75*
G02*
X3062500Y2375000I62500J0D01*
G01*
X3812500Y2375000D01*
G75*
G02*
X3875000Y2312500I0J-62500D01*
G01*
X3875000Y2187500D01*
G75*
G02*
X3812500Y2125000I-62500J0D01*
G01*
G37*
G36*
G01*
X3812500Y2625000D02*
X3062500Y2625000D01*
G75*
G02*
X3000000Y2687500I0J62500D01*
G01*
X3000000Y2812500D01*
G75*
G02*
X3062500Y2875000I62500J0D01*
G01*
X3812500Y2875000D01*
G75*
G02*
X3875000Y2812500I0J-62500D01*
G01*
X3875000Y2687500D01*
G75*
G02*
X3812500Y2625000I-62500J0D01*
G01*
G37*
G36*
G01*
X3812500Y3125000D02*
X3062500Y3125000D01*
G75*
G02*
X3000000Y3187500I0J62500D01*
G01*
X3000000Y3312500D01*
G75*
G02*
X3062500Y3375000I62500J0D01*
G01*
X3812500Y3375000D01*
G75*
G02*
X3875000Y3312500I0J-62500D01*
G01*
X3875000Y3187500D01*
G75*
G02*
X3812500Y3125000I-62500J0D01*
G01*
G37*
G36*
G01*
X3812500Y3625000D02*
X3062500Y3625000D01*
G75*
G02*
X3000000Y3687500I0J62500D01*
G01*
X3000000Y3812500D01*
G75*
G02*
X3062500Y3875000I62500J0D01*
G01*
X3812500Y3875000D01*
G75*
G02*
X3875000Y3812500I0J-62500D01*
G01*
X3875000Y3687500D01*
G75*
G02*
X3812500Y3625000I-62500J0D01*
G01*
G37*
G36*
G01*
X3812500Y4125000D02*
X3062500Y4125000D01*
G75*
G02*
X3000000Y4187500I0J62500D01*
G01*
X3000000Y4312500D01*
G75*
G02*
X3062500Y4375000I62500J0D01*
G01*
X3812500Y4375000D01*
G75*
G02*
X3875000Y4312500I0J-62500D01*
G01*
X3875000Y4187500D01*
G75*
G02*
X3812500Y4125000I-62500J0D01*
G01*
G37*
G36*
G01*
X3812500Y4625000D02*
X3062500Y4625000D01*
G75*
G02*
X3000000Y4687500I0J62500D01*
G01*
X3000000Y4812500D01*
G75*
G02*
X3062500Y4875000I62500J0D01*
G01*
X3812500Y4875000D01*
G75*
G02*
X3875000Y4812500I0J-62500D01*
G01*
X3875000Y4687500D01*
G75*
G02*
X3812500Y4625000I-62500J0D01*
G01*
G37*
G36*
G01*
X2812500Y5000000D02*
X2687500Y5000000D01*
G75*
G02*
X2625000Y5062500I0J62500D01*
G01*
X2625000Y5812500D01*
G75*
G02*
X2687500Y5875000I62500J0D01*
G01*
X2812500Y5875000D01*
G75*
G02*
X2875000Y5812500I0J-62500D01*
G01*
X2875000Y5062500D01*
G75*
G02*
X2812500Y5000000I-62500J0D01*
G01*
G37*
G36*
G01*
X2312500Y5000000D02*
X2187500Y5000000D01*
G75*
G02*
X2125000Y5062500I0J62500D01*
G01*
X2125000Y5812500D01*
G75*
G02*
X2187500Y5875000I62500J0D01*
G01*
X2312500Y5875000D01*
G75*
G02*
X2375000Y5812500I0J-62500D01*
G01*
X2375000Y5062500D01*
G75*
G02*
X2312500Y5000000I-62500J0D01*
G01*
G37*
G36*
G01*
X1812500Y5000000D02*
X1687500Y5000000D01*
G75*
G02*
X1625000Y5062500I0J62500D01*
G01*
X1625000Y5812500D01*
G75*
G02*
X1687500Y5875000I62500J0D01*
G01*
X1812500Y5875000D01*
G75*
G02*
X1875000Y5812500I0J-62500D01*
G01*
X1875000Y5062500D01*
G75*
G02*
X1812500Y5000000I-62500J0D01*
G01*
G37*
G36*
G01*
X1312500Y5000000D02*
X1187500Y5000000D01*
G75*
G02*
X1125000Y5062500I0J62500D01*
G01*
X1125000Y5812500D01*
G75*
G02*
X1187500Y5875000I62500J0D01*
G01*
X1312500Y5875000D01*
G75*
G02*
X1375000Y5812500I0J-62500D01*
G01*
X1375000Y5062500D01*
G75*
G02*
X1312500Y5000000I-62500J0D01*
G01*
G37*
G36*
G01*
X812500Y5000000D02*
X687500Y5000000D01*
G75*
G02*
X625000Y5062500I0J62500D01*
G01*
X625000Y5812500D01*
G75*
G02*
X687500Y5875000I62500J0D01*
G01*
X812500Y5875000D01*
G75*
G02*
X875000Y5812500I0J-62500D01*
G01*
X875000Y5062500D01*
G75*
G02*
X812500Y5000000I-62500J0D01*
G01*
G37*
G36*
G01*
X312500Y5000000D02*
X187500Y5000000D01*
G75*
G02*
X125000Y5062500I0J62500D01*
G01*
X125000Y5812500D01*
G75*
G02*
X187500Y5875000I62500J0D01*
G01*
X312500Y5875000D01*
G75*
G02*
X375000Y5812500I0J-62500D01*
G01*
X375000Y5062500D01*
G75*
G02*
X312500Y5000000I-62500J0D01*
G01*
G37*
G36*
G01*
X-187500Y5000000D02*
X-312500Y5000000D01*
G75*
G02*
X-375000Y5062500I0J62500D01*
G01*
X-375000Y5812500D01*
G75*
G02*
X-312500Y5875000I62500J0D01*
G01*
X-187500Y5875000D01*
G75*
G02*
X-125000Y5812500I0J-62500D01*
G01*
X-125000Y5062500D01*
G75*
G02*
X-187500Y5000000I-62500J0D01*
G01*
G37*
G36*
G01*
X-687500Y5000000D02*
X-812500Y5000000D01*
G75*
G02*
X-875000Y5062500I0J62500D01*
G01*
X-875000Y5812500D01*
G75*
G02*
X-812500Y5875000I62500J0D01*
G01*
X-687500Y5875000D01*
G75*
G02*
X-625000Y5812500I0J-62500D01*
G01*
X-625000Y5062500D01*
G75*
G02*
X-687500Y5000000I-62500J0D01*
G01*
G37*
G36*
G01*
X-1187500Y5000000D02*
X-1312500Y5000000D01*
G75*
G02*
X-1375000Y5062500I0J62500D01*
G01*
X-1375000Y5812500D01*
G75*
G02*
X-1312500Y5875000I62500J0D01*
G01*
X-1187500Y5875000D01*
G75*
G02*
X-1125000Y5812500I0J-62500D01*
G01*
X-1125000Y5062500D01*
G75*
G02*
X-1187500Y5000000I-62500J0D01*
G01*
G37*
G36*
G01*
X-1687500Y5000000D02*
X-1812500Y5000000D01*
G75*
G02*
X-1875000Y5062500I0J62500D01*
G01*
X-1875000Y5812500D01*
G75*
G02*
X-1812500Y5875000I62500J0D01*
G01*
X-1687500Y5875000D01*
G75*
G02*
X-1625000Y5812500I0J-62500D01*
G01*
X-1625000Y5062500D01*
G75*
G02*
X-1687500Y5000000I-62500J0D01*
G01*
G37*
G36*
G01*
X-2187500Y5000000D02*
X-2312500Y5000000D01*
G75*
G02*
X-2375000Y5062500I0J62500D01*
G01*
X-2375000Y5812500D01*
G75*
G02*
X-2312500Y5875000I62500J0D01*
G01*
X-2187500Y5875000D01*
G75*
G02*
X-2125000Y5812500I0J-62500D01*
G01*
X-2125000Y5062500D01*
G75*
G02*
X-2187500Y5000000I-62500J0D01*
G01*
G37*
G36*
G01*
X-2687500Y5000000D02*
X-2812500Y5000000D01*
G75*
G02*
X-2875000Y5062500I0J62500D01*
G01*
X-2875000Y5812500D01*
G75*
G02*
X-2812500Y5875000I62500J0D01*
G01*
X-2687500Y5875000D01*
G75*
G02*
X-2625000Y5812500I0J-62500D01*
G01*
X-2625000Y5062500D01*
G75*
G02*
X-2687500Y5000000I-62500J0D01*
G01*
G37*
G36*
G01*
X-3062500Y4625000D02*
X-3812500Y4625000D01*
G75*
G02*
X-3875000Y4687500I0J62500D01*
G01*
X-3875000Y4812500D01*
G75*
G02*
X-3812500Y4875000I62500J0D01*
G01*
X-3062500Y4875000D01*
G75*
G02*
X-3000000Y4812500I0J-62500D01*
G01*
X-3000000Y4687500D01*
G75*
G02*
X-3062500Y4625000I-62500J0D01*
G01*
G37*
G36*
G01*
X-3062500Y4125000D02*
X-3812500Y4125000D01*
G75*
G02*
X-3875000Y4187500I0J62500D01*
G01*
X-3875000Y4312500D01*
G75*
G02*
X-3812500Y4375000I62500J0D01*
G01*
X-3062500Y4375000D01*
G75*
G02*
X-3000000Y4312500I0J-62500D01*
G01*
X-3000000Y4187500D01*
G75*
G02*
X-3062500Y4125000I-62500J0D01*
G01*
G37*
G36*
G01*
X-3062500Y3625000D02*
X-3812500Y3625000D01*
G75*
G02*
X-3875000Y3687500I0J62500D01*
G01*
X-3875000Y3812500D01*
G75*
G02*
X-3812500Y3875000I62500J0D01*
G01*
X-3062500Y3875000D01*
G75*
G02*
X-3000000Y3812500I0J-62500D01*
G01*
X-3000000Y3687500D01*
G75*
G02*
X-3062500Y3625000I-62500J0D01*
G01*
G37*
G36*
G01*
X-3062500Y3125000D02*
X-3812500Y3125000D01*
G75*
G02*
X-3875000Y3187500I0J62500D01*
G01*
X-3875000Y3312500D01*
G75*
G02*
X-3812500Y3375000I62500J0D01*
G01*
X-3062500Y3375000D01*
G75*
G02*
X-3000000Y3312500I0J-62500D01*
G01*
X-3000000Y3187500D01*
G75*
G02*
X-3062500Y3125000I-62500J0D01*
G01*
G37*
G36*
G01*
X-3062500Y2625000D02*
X-3812500Y2625000D01*
G75*
G02*
X-3875000Y2687500I0J62500D01*
G01*
X-3875000Y2812500D01*
G75*
G02*
X-3812500Y2875000I62500J0D01*
G01*
X-3062500Y2875000D01*
G75*
G02*
X-3000000Y2812500I0J-62500D01*
G01*
X-3000000Y2687500D01*
G75*
G02*
X-3062500Y2625000I-62500J0D01*
G01*
G37*
G36*
G01*
X-3062500Y2125000D02*
X-3812500Y2125000D01*
G75*
G02*
X-3875000Y2187500I0J62500D01*
G01*
X-3875000Y2312500D01*
G75*
G02*
X-3812500Y2375000I62500J0D01*
G01*
X-3062500Y2375000D01*
G75*
G02*
X-3000000Y2312500I0J-62500D01*
G01*
X-3000000Y2187500D01*
G75*
G02*
X-3062500Y2125000I-62500J0D01*
G01*
G37*
G36*
G01*
X-3062500Y1625000D02*
X-3812500Y1625000D01*
G75*
G02*
X-3875000Y1687500I0J62500D01*
G01*
X-3875000Y1812500D01*
G75*
G02*
X-3812500Y1875000I62500J0D01*
G01*
X-3062500Y1875000D01*
G75*
G02*
X-3000000Y1812500I0J-62500D01*
G01*
X-3000000Y1687500D01*
G75*
G02*
X-3062500Y1625000I-62500J0D01*
G01*
G37*
G36*
G01*
X-3062500Y1125000D02*
X-3812500Y1125000D01*
G75*
G02*
X-3875000Y1187500I0J62500D01*
G01*
X-3875000Y1312500D01*
G75*
G02*
X-3812500Y1375000I62500J0D01*
G01*
X-3062500Y1375000D01*
G75*
G02*
X-3000000Y1312500I0J-62500D01*
G01*
X-3000000Y1187500D01*
G75*
G02*
X-3062500Y1125000I-62500J0D01*
G01*
G37*
G36*
G01*
X-3062500Y625000D02*
X-3812500Y625000D01*
G75*
G02*
X-3875000Y687500I0J62500D01*
G01*
X-3875000Y812500D01*
G75*
G02*
X-3812500Y875000I62500J0D01*
G01*
X-3062500Y875000D01*
G75*
G02*
X-3000000Y812500I0J-62500D01*
G01*
X-3000000Y687500D01*
G75*
G02*
X-3062500Y625000I-62500J0D01*
G01*
G37*
G36*
G01*
X-3062500Y125000D02*
X-3812500Y125000D01*
G75*
G02*
X-3875000Y187500I0J62500D01*
G01*
X-3875000Y312500D01*
G75*
G02*
X-3812500Y375000I62500J0D01*
G01*
X-3062500Y375000D01*
G75*
G02*
X-3000000Y312500I0J-62500D01*
G01*
X-3000000Y187500D01*
G75*
G02*
X-3062500Y125000I-62500J0D01*
G01*
G37*
G36*
G01*
X-3062500Y-375000D02*
X-3812500Y-375000D01*
G75*
G02*
X-3875000Y-312500I0J62500D01*
G01*
X-3875000Y-187500D01*
G75*
G02*
X-3812500Y-125000I62500J0D01*
G01*
X-3062500Y-125000D01*
G75*
G02*
X-3000000Y-187500I0J-62500D01*
G01*
X-3000000Y-312500D01*
G75*
G02*
X-3062500Y-375000I-62500J0D01*
G01*
G37*
G36*
G01*
X-3062500Y-875000D02*
X-3812500Y-875000D01*
G75*
G02*
X-3875000Y-812500I0J62500D01*
G01*
X-3875000Y-687500D01*
G75*
G02*
X-3812500Y-625000I62500J0D01*
G01*
X-3062500Y-625000D01*
G75*
G02*
X-3000000Y-687500I0J-62500D01*
G01*
X-3000000Y-812500D01*
G75*
G02*
X-3062500Y-875000I-62500J0D01*
G01*
G37*
D15*
X0Y2000000D03*
D16*
X-3262500Y-3900000D03*
X-2437500Y-3900000D03*
D17*
X800000Y-5450000D03*
X2200000Y-5450000D03*
X2200000Y-4350000D03*
X800000Y-4350000D03*
D11*
G36*
X12838370Y-10286440D02*
G01*
X11813066Y-9261136D01*
X12237330Y-8836872D01*
X13262634Y-9862176D01*
X12838370Y-10286440D01*
G37*
G36*
X12272685Y-10852125D02*
G01*
X11247381Y-9826821D01*
X11671645Y-9402557D01*
X12696949Y-10427861D01*
X12272685Y-10852125D01*
G37*
G36*
X8807861Y-14316949D02*
G01*
X7782557Y-13291645D01*
X8206821Y-12867381D01*
X9232125Y-13892685D01*
X8807861Y-14316949D01*
G37*
G36*
X8242176Y-14882634D02*
G01*
X7216872Y-13857330D01*
X7641136Y-13433066D01*
X8666440Y-14458370D01*
X8242176Y-14882634D01*
G37*
G36*
X8242176Y-14882634D02*
G01*
X7216872Y-13857330D01*
X7641136Y-13433066D01*
X8666440Y-14458370D01*
X8242176Y-14882634D01*
G37*
G36*
X8807861Y-14316949D02*
G01*
X7782557Y-13291645D01*
X8206821Y-12867381D01*
X9232125Y-13892685D01*
X8807861Y-14316949D01*
G37*
G36*
X12272685Y-10852125D02*
G01*
X11247381Y-9826821D01*
X11671645Y-9402557D01*
X12696949Y-10427861D01*
X12272685Y-10852125D01*
G37*
G36*
X12838370Y-10286440D02*
G01*
X11813066Y-9261136D01*
X12237330Y-8836872D01*
X13262634Y-9862176D01*
X12838370Y-10286440D01*
G37*
G36*
X9408902Y-13715908D02*
G01*
X8383598Y-12690604D01*
X8595730Y-12478472D01*
X9621034Y-13503776D01*
X9408902Y-13715908D01*
G37*
G36*
X9762456Y-13362355D02*
G01*
X8737152Y-12337051D01*
X8949284Y-12124919D01*
X9974588Y-13150223D01*
X9762456Y-13362355D01*
G37*
G36*
X10116009Y-13008801D02*
G01*
X9090705Y-11983497D01*
X9302837Y-11771365D01*
X10328141Y-12796669D01*
X10116009Y-13008801D01*
G37*
G36*
X10823116Y-12301694D02*
G01*
X9797812Y-11276390D01*
X10009944Y-11064258D01*
X11035248Y-12089562D01*
X10823116Y-12301694D01*
G37*
G36*
X11176669Y-11948141D02*
G01*
X10151365Y-10922837D01*
X10363497Y-10710705D01*
X11388801Y-11736009D01*
X11176669Y-11948141D01*
G37*
G36*
X11530223Y-11594588D02*
G01*
X10504919Y-10569284D01*
X10717051Y-10357152D01*
X11742355Y-11382456D01*
X11530223Y-11594588D01*
G37*
G36*
X11883776Y-11241034D02*
G01*
X10858472Y-10215730D01*
X11070604Y-10003598D01*
X12095908Y-11028902D01*
X11883776Y-11241034D01*
G37*
G36*
X10469562Y-12655248D02*
G01*
X9444258Y-11629944D01*
X9656390Y-11417812D01*
X10681694Y-12443116D01*
X10469562Y-12655248D01*
G37*
G36*
G01*
X13976813Y-10194516D02*
X13198995Y-9416698D01*
G75*
G02*
X13198995Y-8709592I353553J353553D01*
G01*
X13198995Y-8709592D01*
G75*
G02*
X13906101Y-8709592I353553J-353553D01*
G01*
X14683919Y-9487410D01*
G75*
G02*
X14683919Y-10194516I-353553J-353553D01*
G01*
X14683919Y-10194516D01*
G75*
G02*
X13976813Y-10194516I-353553J353553D01*
G01*
G37*
G36*
G01*
X7867410Y-16303919D02*
X7089592Y-15526101D01*
G75*
G02*
X7089592Y-14818995I353553J353553D01*
G01*
X7089592Y-14818995D01*
G75*
G02*
X7796698Y-14818995I353553J-353553D01*
G01*
X8574516Y-15596813D01*
G75*
G02*
X8574516Y-16303919I-353553J-353553D01*
G01*
X8574516Y-16303919D01*
G75*
G02*
X7867410Y-16303919I-353553J353553D01*
G01*
G37*
D18*
X9217984Y-14925061D03*
G36*
G01*
X10646340Y-19082848D02*
X10222076Y-18658584D01*
G75*
G02*
X10222076Y-17951478I353553J353553D01*
G01*
X10222076Y-17951478D01*
G75*
G02*
X10929182Y-17951478I353553J-353553D01*
G01*
X11353446Y-18375742D01*
G75*
G02*
X11353446Y-19082848I-353553J-353553D01*
G01*
X11353446Y-19082848D01*
G75*
G02*
X10646340Y-19082848I-353553J353553D01*
G01*
G37*
X13305061Y-10837984D03*
G36*
G01*
X16755742Y-12973446D02*
X16331478Y-12549182D01*
G75*
G02*
X16331478Y-11842076I353553J353553D01*
G01*
X16331478Y-11842076D01*
G75*
G02*
X17038584Y-11842076I353553J-353553D01*
G01*
X17462848Y-12266340D01*
G75*
G02*
X17462848Y-12973446I-353553J-353553D01*
G01*
X17462848Y-12973446D01*
G75*
G02*
X16755742Y-12973446I-353553J353553D01*
G01*
G37*
G36*
G01*
X-6650000Y150000D02*
X-7150000Y150000D01*
G75*
G02*
X-7375000Y375000I0J225000D01*
G01*
X-7375000Y825000D01*
G75*
G02*
X-7150000Y1050000I225000J0D01*
G01*
X-6650000Y1050000D01*
G75*
G02*
X-6425000Y825000I0J-225000D01*
G01*
X-6425000Y375000D01*
G75*
G02*
X-6650000Y150000I-225000J0D01*
G01*
G37*
G36*
G01*
X-6650000Y-1400000D02*
X-7150000Y-1400000D01*
G75*
G02*
X-7375000Y-1175000I0J225000D01*
G01*
X-7375000Y-725000D01*
G75*
G02*
X-7150000Y-500000I225000J0D01*
G01*
X-6650000Y-500000D01*
G75*
G02*
X-6425000Y-725000I0J-225000D01*
G01*
X-6425000Y-1175000D01*
G75*
G02*
X-6650000Y-1400000I-225000J0D01*
G01*
G37*
G36*
G01*
X-11353446Y-18375742D02*
X-10929182Y-17951478D01*
G75*
G02*
X-10222076Y-17951478I353553J-353553D01*
G01*
X-10222076Y-17951478D01*
G75*
G02*
X-10222076Y-18658584I-353553J-353553D01*
G01*
X-10646340Y-19082848D01*
G75*
G02*
X-11353446Y-19082848I-353553J353553D01*
G01*
X-11353446Y-19082848D01*
G75*
G02*
X-11353446Y-18375742I353553J353553D01*
G01*
G37*
X-9217984Y-14925061D03*
G36*
G01*
X-17462848Y-12266340D02*
X-17038584Y-11842076D01*
G75*
G02*
X-16331478Y-11842076I353553J-353553D01*
G01*
X-16331478Y-11842076D01*
G75*
G02*
X-16331478Y-12549182I-353553J-353553D01*
G01*
X-16755742Y-12973446D01*
G75*
G02*
X-17462848Y-12973446I-353553J353553D01*
G01*
X-17462848Y-12973446D01*
G75*
G02*
X-17462848Y-12266340I353553J353553D01*
G01*
G37*
X-13305061Y-10837984D03*
G36*
G01*
X-14683919Y-9487410D02*
X-13906101Y-8709592D01*
G75*
G02*
X-13198995Y-8709592I353553J-353553D01*
G01*
X-13198995Y-8709592D01*
G75*
G02*
X-13198995Y-9416698I-353553J-353553D01*
G01*
X-13976813Y-10194516D01*
G75*
G02*
X-14683919Y-10194516I-353553J353553D01*
G01*
X-14683919Y-10194516D01*
G75*
G02*
X-14683919Y-9487410I353553J353553D01*
G01*
G37*
G36*
G01*
X-8574516Y-15596813D02*
X-7796698Y-14818995D01*
G75*
G02*
X-7089592Y-14818995I353553J-353553D01*
G01*
X-7089592Y-14818995D01*
G75*
G02*
X-7089592Y-15526101I-353553J-353553D01*
G01*
X-7867410Y-16303919D01*
G75*
G02*
X-8574516Y-16303919I-353553J353553D01*
G01*
X-8574516Y-16303919D01*
G75*
G02*
X-8574516Y-15596813I353553J353553D01*
G01*
G37*
D11*
G36*
X-11035248Y-12089562D02*
G01*
X-10009944Y-11064258D01*
X-9797812Y-11276390D01*
X-10823116Y-12301694D01*
X-11035248Y-12089562D01*
G37*
G36*
X-9621034Y-13503776D02*
G01*
X-8595730Y-12478472D01*
X-8383598Y-12690604D01*
X-9408902Y-13715908D01*
X-9621034Y-13503776D01*
G37*
G36*
X-9974588Y-13150223D02*
G01*
X-8949284Y-12124919D01*
X-8737152Y-12337051D01*
X-9762456Y-13362355D01*
X-9974588Y-13150223D01*
G37*
G36*
X-10328141Y-12796669D02*
G01*
X-9302837Y-11771365D01*
X-9090705Y-11983497D01*
X-10116009Y-13008801D01*
X-10328141Y-12796669D01*
G37*
G36*
X-10681694Y-12443116D02*
G01*
X-9656390Y-11417812D01*
X-9444258Y-11629944D01*
X-10469562Y-12655248D01*
X-10681694Y-12443116D01*
G37*
G36*
X-11388801Y-11736009D02*
G01*
X-10363497Y-10710705D01*
X-10151365Y-10922837D01*
X-11176669Y-11948141D01*
X-11388801Y-11736009D01*
G37*
G36*
X-11742355Y-11382456D02*
G01*
X-10717051Y-10357152D01*
X-10504919Y-10569284D01*
X-11530223Y-11594588D01*
X-11742355Y-11382456D01*
G37*
G36*
X-12095908Y-11028902D02*
G01*
X-11070604Y-10003598D01*
X-10858472Y-10215730D01*
X-11883776Y-11241034D01*
X-12095908Y-11028902D01*
G37*
G36*
X-8666440Y-14458370D02*
G01*
X-7641136Y-13433066D01*
X-7216872Y-13857330D01*
X-8242176Y-14882634D01*
X-8666440Y-14458370D01*
G37*
G36*
X-9232125Y-13892685D02*
G01*
X-8206821Y-12867381D01*
X-7782557Y-13291645D01*
X-8807861Y-14316949D01*
X-9232125Y-13892685D01*
G37*
G36*
X-12696949Y-10427861D02*
G01*
X-11671645Y-9402557D01*
X-11247381Y-9826821D01*
X-12272685Y-10852125D01*
X-12696949Y-10427861D01*
G37*
G36*
X-13262634Y-9862176D02*
G01*
X-12237330Y-8836872D01*
X-11813066Y-9261136D01*
X-12838370Y-10286440D01*
X-13262634Y-9862176D01*
G37*
G36*
X-13262634Y-9862176D02*
G01*
X-12237330Y-8836872D01*
X-11813066Y-9261136D01*
X-12838370Y-10286440D01*
X-13262634Y-9862176D01*
G37*
G36*
X-12696949Y-10427861D02*
G01*
X-11671645Y-9402557D01*
X-11247381Y-9826821D01*
X-12272685Y-10852125D01*
X-12696949Y-10427861D01*
G37*
G36*
X-9232125Y-13892685D02*
G01*
X-8206821Y-12867381D01*
X-7782557Y-13291645D01*
X-8807861Y-14316949D01*
X-9232125Y-13892685D01*
G37*
G36*
X-8666440Y-14458370D02*
G01*
X-7641136Y-13433066D01*
X-7216872Y-13857330D01*
X-8242176Y-14882634D01*
X-8666440Y-14458370D01*
G37*
D19*
X-4320000Y17920000D03*
D18*
X-2890000Y14270000D03*
D19*
X4320000Y17920000D03*
D18*
X2890000Y14270000D03*
D20*
X4320000Y13740000D03*
X-4320000Y13740000D03*
D21*
X250000Y12825000D03*
X-1750000Y12825000D03*
X-1250000Y12825000D03*
X-750000Y12825000D03*
X-250000Y12825000D03*
X750000Y12825000D03*
X1250000Y12825000D03*
X1750000Y12825000D03*
D22*
X-3250000Y12825000D03*
X-2450000Y12825000D03*
X2450000Y12825000D03*
X3250000Y12825000D03*
X3250000Y12825000D03*
X2450000Y12825000D03*
X-2450000Y12825000D03*
X-3250000Y12825000D03*
G36*
G01*
X-5815000Y14720000D02*
X-6185000Y14720000D01*
G75*
G02*
X-6320000Y14855000I0J135000D01*
G01*
X-6320000Y15125000D01*
G75*
G02*
X-6185000Y15260000I135000J0D01*
G01*
X-5815000Y15260000D01*
G75*
G02*
X-5680000Y15125000I0J-135000D01*
G01*
X-5680000Y14855000D01*
G75*
G02*
X-5815000Y14720000I-135000J0D01*
G01*
G37*
G36*
G01*
X-5815000Y15740000D02*
X-6185000Y15740000D01*
G75*
G02*
X-6320000Y15875000I0J135000D01*
G01*
X-6320000Y16145000D01*
G75*
G02*
X-6185000Y16280000I135000J0D01*
G01*
X-5815000Y16280000D01*
G75*
G02*
X-5680000Y16145000I0J-135000D01*
G01*
X-5680000Y15875000D01*
G75*
G02*
X-5815000Y15740000I-135000J0D01*
G01*
G37*
G36*
G01*
X7788891Y-18300520D02*
X8050520Y-18038891D01*
G75*
G02*
X8241438Y-18038891I95459J-95459D01*
G01*
X8432357Y-18229810D01*
G75*
G02*
X8432357Y-18420728I-95459J-95459D01*
G01*
X8170728Y-18682357D01*
G75*
G02*
X7979810Y-18682357I-95459J95459D01*
G01*
X7788891Y-18491438D01*
G75*
G02*
X7788891Y-18300520I95459J95459D01*
G01*
G37*
G36*
G01*
X7067643Y-17579272D02*
X7329272Y-17317643D01*
G75*
G02*
X7520190Y-17317643I95459J-95459D01*
G01*
X7711109Y-17508562D01*
G75*
G02*
X7711109Y-17699480I-95459J-95459D01*
G01*
X7449480Y-17961109D01*
G75*
G02*
X7258562Y-17961109I-95459J95459D01*
G01*
X7067643Y-17770190D01*
G75*
G02*
X7067643Y-17579272I95459J95459D01*
G01*
G37*
G36*
G01*
X-8050520Y-18038891D02*
X-7788891Y-18300520D01*
G75*
G02*
X-7788891Y-18491438I-95459J-95459D01*
G01*
X-7979810Y-18682357D01*
G75*
G02*
X-8170728Y-18682357I-95459J95459D01*
G01*
X-8432357Y-18420728D01*
G75*
G02*
X-8432357Y-18229810I95459J95459D01*
G01*
X-8241438Y-18038891D01*
G75*
G02*
X-8050520Y-18038891I95459J-95459D01*
G01*
G37*
G36*
G01*
X-7329272Y-17317643D02*
X-7067643Y-17579272D01*
G75*
G02*
X-7067643Y-17770190I-95459J-95459D01*
G01*
X-7258562Y-17961109D01*
G75*
G02*
X-7449480Y-17961109I-95459J95459D01*
G01*
X-7711109Y-17699480D01*
G75*
G02*
X-7711109Y-17508562I95459J95459D01*
G01*
X-7520190Y-17317643D01*
G75*
G02*
X-7329272Y-17317643I95459J-95459D01*
G01*
G37*
G36*
G01*
X6185000Y15740000D02*
X5815000Y15740000D01*
G75*
G02*
X5680000Y15875000I0J135000D01*
G01*
X5680000Y16145000D01*
G75*
G02*
X5815000Y16280000I135000J0D01*
G01*
X6185000Y16280000D01*
G75*
G02*
X6320000Y16145000I0J-135000D01*
G01*
X6320000Y15875000D01*
G75*
G02*
X6185000Y15740000I-135000J0D01*
G01*
G37*
G36*
G01*
X6185000Y14720000D02*
X5815000Y14720000D01*
G75*
G02*
X5680000Y14855000I0J135000D01*
G01*
X5680000Y15125000D01*
G75*
G02*
X5815000Y15260000I135000J0D01*
G01*
X6185000Y15260000D01*
G75*
G02*
X6320000Y15125000I0J-135000D01*
G01*
X6320000Y14855000D01*
G75*
G02*
X6185000Y14720000I-135000J0D01*
G01*
G37*
G36*
G01*
X-10360000Y-5885000D02*
X-10360000Y-5515000D01*
G75*
G02*
X-10225000Y-5380000I135000J0D01*
G01*
X-9955000Y-5380000D01*
G75*
G02*
X-9820000Y-5515000I0J-135000D01*
G01*
X-9820000Y-5885000D01*
G75*
G02*
X-9955000Y-6020000I-135000J0D01*
G01*
X-10225000Y-6020000D01*
G75*
G02*
X-10360000Y-5885000I0J135000D01*
G01*
G37*
G36*
G01*
X-11380000Y-5885000D02*
X-11380000Y-5515000D01*
G75*
G02*
X-11245000Y-5380000I135000J0D01*
G01*
X-10975000Y-5380000D01*
G75*
G02*
X-10840000Y-5515000I0J-135000D01*
G01*
X-10840000Y-5885000D01*
G75*
G02*
X-10975000Y-6020000I-135000J0D01*
G01*
X-11245000Y-6020000D01*
G75*
G02*
X-11380000Y-5885000I0J135000D01*
G01*
G37*
G36*
G01*
X-10360000Y-6985000D02*
X-10360000Y-6615000D01*
G75*
G02*
X-10225000Y-6480000I135000J0D01*
G01*
X-9955000Y-6480000D01*
G75*
G02*
X-9820000Y-6615000I0J-135000D01*
G01*
X-9820000Y-6985000D01*
G75*
G02*
X-9955000Y-7120000I-135000J0D01*
G01*
X-10225000Y-7120000D01*
G75*
G02*
X-10360000Y-6985000I0J135000D01*
G01*
G37*
G36*
G01*
X-11380000Y-6985000D02*
X-11380000Y-6615000D01*
G75*
G02*
X-11245000Y-6480000I135000J0D01*
G01*
X-10975000Y-6480000D01*
G75*
G02*
X-10840000Y-6615000I0J-135000D01*
G01*
X-10840000Y-6985000D01*
G75*
G02*
X-10975000Y-7120000I-135000J0D01*
G01*
X-11245000Y-7120000D01*
G75*
G02*
X-11380000Y-6985000I0J135000D01*
G01*
G37*
G36*
G01*
X5115000Y9880000D02*
X5485000Y9880000D01*
G75*
G02*
X5620000Y9745000I0J-135000D01*
G01*
X5620000Y9475000D01*
G75*
G02*
X5485000Y9340000I-135000J0D01*
G01*
X5115000Y9340000D01*
G75*
G02*
X4980000Y9475000I0J135000D01*
G01*
X4980000Y9745000D01*
G75*
G02*
X5115000Y9880000I135000J0D01*
G01*
G37*
G36*
G01*
X5115000Y8860000D02*
X5485000Y8860000D01*
G75*
G02*
X5620000Y8725000I0J-135000D01*
G01*
X5620000Y8455000D01*
G75*
G02*
X5485000Y8320000I-135000J0D01*
G01*
X5115000Y8320000D01*
G75*
G02*
X4980000Y8455000I0J135000D01*
G01*
X4980000Y8725000D01*
G75*
G02*
X5115000Y8860000I135000J0D01*
G01*
G37*
G36*
G01*
X9167000Y-7430000D02*
X8797000Y-7430000D01*
G75*
G02*
X8662000Y-7295000I0J135000D01*
G01*
X8662000Y-7025000D01*
G75*
G02*
X8797000Y-6890000I135000J0D01*
G01*
X9167000Y-6890000D01*
G75*
G02*
X9302000Y-7025000I0J-135000D01*
G01*
X9302000Y-7295000D01*
G75*
G02*
X9167000Y-7430000I-135000J0D01*
G01*
G37*
G36*
G01*
X9167000Y-6410000D02*
X8797000Y-6410000D01*
G75*
G02*
X8662000Y-6275000I0J135000D01*
G01*
X8662000Y-6005000D01*
G75*
G02*
X8797000Y-5870000I135000J0D01*
G01*
X9167000Y-5870000D01*
G75*
G02*
X9302000Y-6005000I0J-135000D01*
G01*
X9302000Y-6275000D01*
G75*
G02*
X9167000Y-6410000I-135000J0D01*
G01*
G37*
G36*
G01*
X6240000Y2315000D02*
X6240000Y2685000D01*
G75*
G02*
X6375000Y2820000I135000J0D01*
G01*
X6645000Y2820000D01*
G75*
G02*
X6780000Y2685000I0J-135000D01*
G01*
X6780000Y2315000D01*
G75*
G02*
X6645000Y2180000I-135000J0D01*
G01*
X6375000Y2180000D01*
G75*
G02*
X6240000Y2315000I0J135000D01*
G01*
G37*
G36*
G01*
X5220000Y2315000D02*
X5220000Y2685000D01*
G75*
G02*
X5355000Y2820000I135000J0D01*
G01*
X5625000Y2820000D01*
G75*
G02*
X5760000Y2685000I0J-135000D01*
G01*
X5760000Y2315000D01*
G75*
G02*
X5625000Y2180000I-135000J0D01*
G01*
X5355000Y2180000D01*
G75*
G02*
X5220000Y2315000I0J135000D01*
G01*
G37*
G36*
G01*
X5880000Y-1910000D02*
X5880000Y-2250000D01*
G75*
G02*
X5740000Y-2390000I-140000J0D01*
G01*
X5460000Y-2390000D01*
G75*
G02*
X5320000Y-2250000I0J140000D01*
G01*
X5320000Y-1910000D01*
G75*
G02*
X5460000Y-1770000I140000J0D01*
G01*
X5740000Y-1770000D01*
G75*
G02*
X5880000Y-1910000I0J-140000D01*
G01*
G37*
G36*
G01*
X6840000Y-1910000D02*
X6840000Y-2250000D01*
G75*
G02*
X6700000Y-2390000I-140000J0D01*
G01*
X6420000Y-2390000D01*
G75*
G02*
X6280000Y-2250000I0J140000D01*
G01*
X6280000Y-1910000D01*
G75*
G02*
X6420000Y-1770000I140000J0D01*
G01*
X6700000Y-1770000D01*
G75*
G02*
X6840000Y-1910000I0J-140000D01*
G01*
G37*
G36*
G01*
X-6250000Y-2280000D02*
X-6250000Y-2620000D01*
G75*
G02*
X-6390000Y-2760000I-140000J0D01*
G01*
X-6670000Y-2760000D01*
G75*
G02*
X-6810000Y-2620000I0J140000D01*
G01*
X-6810000Y-2280000D01*
G75*
G02*
X-6670000Y-2140000I140000J0D01*
G01*
X-6390000Y-2140000D01*
G75*
G02*
X-6250000Y-2280000I0J-140000D01*
G01*
G37*
G36*
G01*
X-5290000Y-2280000D02*
X-5290000Y-2620000D01*
G75*
G02*
X-5430000Y-2760000I-140000J0D01*
G01*
X-5710000Y-2760000D01*
G75*
G02*
X-5850000Y-2620000I0J140000D01*
G01*
X-5850000Y-2280000D01*
G75*
G02*
X-5710000Y-2140000I140000J0D01*
G01*
X-5430000Y-2140000D01*
G75*
G02*
X-5290000Y-2280000I0J-140000D01*
G01*
G37*
G36*
G01*
X-2470000Y-4940000D02*
X-2130000Y-4940000D01*
G75*
G02*
X-1990000Y-5080000I0J-140000D01*
G01*
X-1990000Y-5360000D01*
G75*
G02*
X-2130000Y-5500000I-140000J0D01*
G01*
X-2470000Y-5500000D01*
G75*
G02*
X-2610000Y-5360000I0J140000D01*
G01*
X-2610000Y-5080000D01*
G75*
G02*
X-2470000Y-4940000I140000J0D01*
G01*
G37*
G36*
G01*
X-2470000Y-5900000D02*
X-2130000Y-5900000D01*
G75*
G02*
X-1990000Y-6040000I0J-140000D01*
G01*
X-1990000Y-6320000D01*
G75*
G02*
X-2130000Y-6460000I-140000J0D01*
G01*
X-2470000Y-6460000D01*
G75*
G02*
X-2610000Y-6320000I0J140000D01*
G01*
X-2610000Y-6040000D01*
G75*
G02*
X-2470000Y-5900000I140000J0D01*
G01*
G37*
G36*
G01*
X-3570000Y-4940000D02*
X-3230000Y-4940000D01*
G75*
G02*
X-3090000Y-5080000I0J-140000D01*
G01*
X-3090000Y-5360000D01*
G75*
G02*
X-3230000Y-5500000I-140000J0D01*
G01*
X-3570000Y-5500000D01*
G75*
G02*
X-3710000Y-5360000I0J140000D01*
G01*
X-3710000Y-5080000D01*
G75*
G02*
X-3570000Y-4940000I140000J0D01*
G01*
G37*
G36*
G01*
X-3570000Y-5900000D02*
X-3230000Y-5900000D01*
G75*
G02*
X-3090000Y-6040000I0J-140000D01*
G01*
X-3090000Y-6320000D01*
G75*
G02*
X-3230000Y-6460000I-140000J0D01*
G01*
X-3570000Y-6460000D01*
G75*
G02*
X-3710000Y-6320000I0J140000D01*
G01*
X-3710000Y-6040000D01*
G75*
G02*
X-3570000Y-5900000I140000J0D01*
G01*
G37*
G36*
G01*
X6510000Y-770000D02*
X6850000Y-770000D01*
G75*
G02*
X6990000Y-910000I0J-140000D01*
G01*
X6990000Y-1190000D01*
G75*
G02*
X6850000Y-1330000I-140000J0D01*
G01*
X6510000Y-1330000D01*
G75*
G02*
X6370000Y-1190000I0J140000D01*
G01*
X6370000Y-910000D01*
G75*
G02*
X6510000Y-770000I140000J0D01*
G01*
G37*
G36*
G01*
X6510000Y190000D02*
X6850000Y190000D01*
G75*
G02*
X6990000Y50000I0J-140000D01*
G01*
X6990000Y-230000D01*
G75*
G02*
X6850000Y-370000I-140000J0D01*
G01*
X6510000Y-370000D01*
G75*
G02*
X6370000Y-230000I0J140000D01*
G01*
X6370000Y50000D01*
G75*
G02*
X6510000Y190000I140000J0D01*
G01*
G37*
G36*
G01*
X5410000Y-770000D02*
X5750000Y-770000D01*
G75*
G02*
X5890000Y-910000I0J-140000D01*
G01*
X5890000Y-1190000D01*
G75*
G02*
X5750000Y-1330000I-140000J0D01*
G01*
X5410000Y-1330000D01*
G75*
G02*
X5270000Y-1190000I0J140000D01*
G01*
X5270000Y-910000D01*
G75*
G02*
X5410000Y-770000I140000J0D01*
G01*
G37*
G36*
G01*
X5410000Y190000D02*
X5750000Y190000D01*
G75*
G02*
X5890000Y50000I0J-140000D01*
G01*
X5890000Y-230000D01*
G75*
G02*
X5750000Y-370000I-140000J0D01*
G01*
X5410000Y-370000D01*
G75*
G02*
X5270000Y-230000I0J140000D01*
G01*
X5270000Y50000D01*
G75*
G02*
X5410000Y190000I140000J0D01*
G01*
G37*
G36*
G01*
X10030000Y-5910000D02*
X10370000Y-5910000D01*
G75*
G02*
X10510000Y-6050000I0J-140000D01*
G01*
X10510000Y-6330000D01*
G75*
G02*
X10370000Y-6470000I-140000J0D01*
G01*
X10030000Y-6470000D01*
G75*
G02*
X9890000Y-6330000I0J140000D01*
G01*
X9890000Y-6050000D01*
G75*
G02*
X10030000Y-5910000I140000J0D01*
G01*
G37*
G36*
G01*
X10030000Y-6870000D02*
X10370000Y-6870000D01*
G75*
G02*
X10510000Y-7010000I0J-140000D01*
G01*
X10510000Y-7290000D01*
G75*
G02*
X10370000Y-7430000I-140000J0D01*
G01*
X10030000Y-7430000D01*
G75*
G02*
X9890000Y-7290000I0J140000D01*
G01*
X9890000Y-7010000D01*
G75*
G02*
X10030000Y-6870000I140000J0D01*
G01*
G37*
G36*
G01*
X3330000Y-4540000D02*
X3670000Y-4540000D01*
G75*
G02*
X3810000Y-4680000I0J-140000D01*
G01*
X3810000Y-4960000D01*
G75*
G02*
X3670000Y-5100000I-140000J0D01*
G01*
X3330000Y-5100000D01*
G75*
G02*
X3190000Y-4960000I0J140000D01*
G01*
X3190000Y-4680000D01*
G75*
G02*
X3330000Y-4540000I140000J0D01*
G01*
G37*
G36*
G01*
X3330000Y-5500000D02*
X3670000Y-5500000D01*
G75*
G02*
X3810000Y-5640000I0J-140000D01*
G01*
X3810000Y-5920000D01*
G75*
G02*
X3670000Y-6060000I-140000J0D01*
G01*
X3330000Y-6060000D01*
G75*
G02*
X3190000Y-5920000I0J140000D01*
G01*
X3190000Y-5640000D01*
G75*
G02*
X3330000Y-5500000I140000J0D01*
G01*
G37*
G36*
G01*
X-670000Y-4520000D02*
X-330000Y-4520000D01*
G75*
G02*
X-190000Y-4660000I0J-140000D01*
G01*
X-190000Y-4940000D01*
G75*
G02*
X-330000Y-5080000I-140000J0D01*
G01*
X-670000Y-5080000D01*
G75*
G02*
X-810000Y-4940000I0J140000D01*
G01*
X-810000Y-4660000D01*
G75*
G02*
X-670000Y-4520000I140000J0D01*
G01*
G37*
G36*
G01*
X-670000Y-5480000D02*
X-330000Y-5480000D01*
G75*
G02*
X-190000Y-5620000I0J-140000D01*
G01*
X-190000Y-5900000D01*
G75*
G02*
X-330000Y-6040000I-140000J0D01*
G01*
X-670000Y-6040000D01*
G75*
G02*
X-810000Y-5900000I0J140000D01*
G01*
X-810000Y-5620000D01*
G75*
G02*
X-670000Y-5480000I140000J0D01*
G01*
G37*
G36*
G01*
X-5430000Y-1060000D02*
X-5770000Y-1060000D01*
G75*
G02*
X-5910000Y-920000I0J140000D01*
G01*
X-5910000Y-640000D01*
G75*
G02*
X-5770000Y-500000I140000J0D01*
G01*
X-5430000Y-500000D01*
G75*
G02*
X-5290000Y-640000I0J-140000D01*
G01*
X-5290000Y-920000D01*
G75*
G02*
X-5430000Y-1060000I-140000J0D01*
G01*
G37*
G36*
G01*
X-5430000Y-100000D02*
X-5770000Y-100000D01*
G75*
G02*
X-5910000Y40000I0J140000D01*
G01*
X-5910000Y320000D01*
G75*
G02*
X-5770000Y460000I140000J0D01*
G01*
X-5430000Y460000D01*
G75*
G02*
X-5290000Y320000I0J-140000D01*
G01*
X-5290000Y40000D01*
G75*
G02*
X-5430000Y-100000I-140000J0D01*
G01*
G37*
G36*
G01*
X-3300000Y7450000D02*
X-3300000Y7790000D01*
G75*
G02*
X-3160000Y7930000I140000J0D01*
G01*
X-2880000Y7930000D01*
G75*
G02*
X-2740000Y7790000I0J-140000D01*
G01*
X-2740000Y7450000D01*
G75*
G02*
X-2880000Y7310000I-140000J0D01*
G01*
X-3160000Y7310000D01*
G75*
G02*
X-3300000Y7450000I0J140000D01*
G01*
G37*
G36*
G01*
X-4260000Y7450000D02*
X-4260000Y7790000D01*
G75*
G02*
X-4120000Y7930000I140000J0D01*
G01*
X-3840000Y7930000D01*
G75*
G02*
X-3700000Y7790000I0J-140000D01*
G01*
X-3700000Y7450000D01*
G75*
G02*
X-3840000Y7310000I-140000J0D01*
G01*
X-4120000Y7310000D01*
G75*
G02*
X-4260000Y7450000I0J140000D01*
G01*
G37*
G36*
G01*
X5330000Y5050000D02*
X5670000Y5050000D01*
G75*
G02*
X5810000Y4910000I0J-140000D01*
G01*
X5810000Y4630000D01*
G75*
G02*
X5670000Y4490000I-140000J0D01*
G01*
X5330000Y4490000D01*
G75*
G02*
X5190000Y4630000I0J140000D01*
G01*
X5190000Y4910000D01*
G75*
G02*
X5330000Y5050000I140000J0D01*
G01*
G37*
G36*
G01*
X5330000Y6010000D02*
X5670000Y6010000D01*
G75*
G02*
X5810000Y5870000I0J-140000D01*
G01*
X5810000Y5590000D01*
G75*
G02*
X5670000Y5450000I-140000J0D01*
G01*
X5330000Y5450000D01*
G75*
G02*
X5190000Y5590000I0J140000D01*
G01*
X5190000Y5870000D01*
G75*
G02*
X5330000Y6010000I140000J0D01*
G01*
G37*
D11*
G36*
X-8125356Y-17987235D02*
G01*
X-8124971Y-17987311D01*
X-8105328Y-17993270D01*
X-8104966Y-17993420D01*
X-8086862Y-18003096D01*
X-8086536Y-18003314D01*
X-8068383Y-18018212D01*
X-8068238Y-18018344D01*
X-7768344Y-18318238D01*
X-7768212Y-18318383D01*
X-7753314Y-18336536D01*
X-7753096Y-18336862D01*
X-7743420Y-18354966D01*
X-7743270Y-18355328D01*
X-7737311Y-18374971D01*
X-7737235Y-18375356D01*
X-7735223Y-18395783D01*
X-7735223Y-18396175D01*
X-7737235Y-18416602D01*
X-7737311Y-18416987D01*
X-7743270Y-18436630D01*
X-7743420Y-18436992D01*
X-7753096Y-18455096D01*
X-7753314Y-18455422D01*
X-7768212Y-18473575D01*
X-7768344Y-18473720D01*
X-7997528Y-18702904D01*
X-7997673Y-18703036D01*
X-8015826Y-18717934D01*
X-8016152Y-18718152D01*
X-8034256Y-18727828D01*
X-8034618Y-18727978D01*
X-8054261Y-18733937D01*
X-8054646Y-18734013D01*
X-8075073Y-18736025D01*
X-8075465Y-18736025D01*
X-8095892Y-18734013D01*
X-8096277Y-18733937D01*
X-8115920Y-18727978D01*
X-8116282Y-18727828D01*
X-8134386Y-18718152D01*
X-8134712Y-18717934D01*
X-8152865Y-18703036D01*
X-8153010Y-18702904D01*
X-8452904Y-18403010D01*
X-8453036Y-18402865D01*
X-8467934Y-18384712D01*
X-8468152Y-18384386D01*
X-8477828Y-18366282D01*
X-8477978Y-18365920D01*
X-8483937Y-18346277D01*
X-8484013Y-18345892D01*
X-8486025Y-18325465D01*
X-8486025Y-18325269D01*
X-8469889Y-18325269D01*
X-8467334Y-18351211D01*
X-8459765Y-18376162D01*
X-8447475Y-18399155D01*
X-8430871Y-18419386D01*
X-8169386Y-18680871D01*
X-8149155Y-18697475D01*
X-8126162Y-18709765D01*
X-8101211Y-18717334D01*
X-8075269Y-18719889D01*
X-8049327Y-18717334D01*
X-8024376Y-18709765D01*
X-8001383Y-18697475D01*
X-7981152Y-18680871D01*
X-7790377Y-18490096D01*
X-7773773Y-18469865D01*
X-7761483Y-18446872D01*
X-7753914Y-18421921D01*
X-7751359Y-18395979D01*
X-7753914Y-18370037D01*
X-7761483Y-18345086D01*
X-7773773Y-18322093D01*
X-7790377Y-18301862D01*
X-8051862Y-18040377D01*
X-8072093Y-18023773D01*
X-8095086Y-18011483D01*
X-8120037Y-18003914D01*
X-8145979Y-18001359D01*
X-8171921Y-18003914D01*
X-8196872Y-18011483D01*
X-8219865Y-18023773D01*
X-8240096Y-18040377D01*
X-8430871Y-18231152D01*
X-8447475Y-18251383D01*
X-8459765Y-18274376D01*
X-8467334Y-18299327D01*
X-8469889Y-18325269D01*
X-8486025Y-18325269D01*
X-8486025Y-18325073D01*
X-8484013Y-18304646D01*
X-8483937Y-18304261D01*
X-8477978Y-18284618D01*
X-8477828Y-18284256D01*
X-8468152Y-18266152D01*
X-8467934Y-18265826D01*
X-8453036Y-18247673D01*
X-8452904Y-18247528D01*
X-8223720Y-18018344D01*
X-8223575Y-18018212D01*
X-8205422Y-18003314D01*
X-8205096Y-18003096D01*
X-8186992Y-17993420D01*
X-8186630Y-17993270D01*
X-8166987Y-17987311D01*
X-8166602Y-17987235D01*
X-8146175Y-17985223D01*
X-8145783Y-17985223D01*
X-8125356Y-17987235D01*
G37*
G36*
X8166602Y-17987235D02*
G01*
X8166987Y-17987311D01*
X8186630Y-17993270D01*
X8186992Y-17993420D01*
X8205096Y-18003096D01*
X8205422Y-18003314D01*
X8223575Y-18018212D01*
X8223720Y-18018344D01*
X8452904Y-18247528D01*
X8453036Y-18247673D01*
X8467934Y-18265826D01*
X8468152Y-18266152D01*
X8477828Y-18284256D01*
X8477978Y-18284618D01*
X8483937Y-18304261D01*
X8484013Y-18304646D01*
X8486025Y-18325073D01*
X8486025Y-18325465D01*
X8484013Y-18345892D01*
X8483937Y-18346277D01*
X8477978Y-18365920D01*
X8477828Y-18366282D01*
X8468152Y-18384386D01*
X8467934Y-18384712D01*
X8453036Y-18402865D01*
X8452904Y-18403010D01*
X8153010Y-18702904D01*
X8152865Y-18703036D01*
X8134712Y-18717934D01*
X8134386Y-18718152D01*
X8116282Y-18727828D01*
X8115920Y-18727978D01*
X8096277Y-18733937D01*
X8095892Y-18734013D01*
X8075465Y-18736025D01*
X8075073Y-18736025D01*
X8054646Y-18734013D01*
X8054261Y-18733937D01*
X8034618Y-18727978D01*
X8034256Y-18727828D01*
X8016152Y-18718152D01*
X8015826Y-18717934D01*
X7997673Y-18703036D01*
X7997528Y-18702904D01*
X7768344Y-18473720D01*
X7768212Y-18473575D01*
X7753314Y-18455422D01*
X7753096Y-18455096D01*
X7743420Y-18436992D01*
X7743270Y-18436630D01*
X7737311Y-18416987D01*
X7737235Y-18416602D01*
X7735223Y-18396175D01*
X7735223Y-18395979D01*
X7751359Y-18395979D01*
X7753914Y-18421921D01*
X7761483Y-18446872D01*
X7773773Y-18469865D01*
X7790377Y-18490096D01*
X7981152Y-18680871D01*
X8001383Y-18697475D01*
X8024376Y-18709765D01*
X8049327Y-18717334D01*
X8075269Y-18719889D01*
X8101211Y-18717334D01*
X8126162Y-18709765D01*
X8149155Y-18697475D01*
X8169386Y-18680871D01*
X8430871Y-18419386D01*
X8447475Y-18399155D01*
X8459765Y-18376162D01*
X8467334Y-18351211D01*
X8469889Y-18325269D01*
X8467334Y-18299327D01*
X8459765Y-18274376D01*
X8447475Y-18251383D01*
X8430871Y-18231152D01*
X8240096Y-18040377D01*
X8219865Y-18023773D01*
X8196872Y-18011483D01*
X8171921Y-18003914D01*
X8145979Y-18001359D01*
X8120037Y-18003914D01*
X8095086Y-18011483D01*
X8072093Y-18023773D01*
X8051862Y-18040377D01*
X7790377Y-18301862D01*
X7773773Y-18322093D01*
X7761483Y-18345086D01*
X7753914Y-18370037D01*
X7751359Y-18395979D01*
X7735223Y-18395979D01*
X7735223Y-18395783D01*
X7737235Y-18375356D01*
X7737311Y-18374971D01*
X7743270Y-18355328D01*
X7743420Y-18354966D01*
X7753096Y-18336862D01*
X7753314Y-18336536D01*
X7768212Y-18318383D01*
X7768344Y-18318238D01*
X8068238Y-18018344D01*
X8068383Y-18018212D01*
X8086536Y-18003314D01*
X8086862Y-18003096D01*
X8104966Y-17993420D01*
X8105328Y-17993270D01*
X8124971Y-17987311D01*
X8125356Y-17987235D01*
X8145783Y-17985223D01*
X8146175Y-17985223D01*
X8166602Y-17987235D01*
G37*
G36*
X-7404108Y-17265987D02*
G01*
X-7403723Y-17266063D01*
X-7384080Y-17272022D01*
X-7383718Y-17272172D01*
X-7365614Y-17281848D01*
X-7365288Y-17282066D01*
X-7347135Y-17296964D01*
X-7346990Y-17297096D01*
X-7047096Y-17596990D01*
X-7046964Y-17597135D01*
X-7032066Y-17615288D01*
X-7031848Y-17615614D01*
X-7022172Y-17633718D01*
X-7022022Y-17634080D01*
X-7016063Y-17653723D01*
X-7015987Y-17654108D01*
X-7013975Y-17674535D01*
X-7013975Y-17674927D01*
X-7015987Y-17695354D01*
X-7016063Y-17695739D01*
X-7022022Y-17715382D01*
X-7022172Y-17715744D01*
X-7031848Y-17733848D01*
X-7032066Y-17734174D01*
X-7046964Y-17752327D01*
X-7047096Y-17752472D01*
X-7276280Y-17981656D01*
X-7276425Y-17981788D01*
X-7294578Y-17996686D01*
X-7294904Y-17996904D01*
X-7313008Y-18006580D01*
X-7313370Y-18006730D01*
X-7333013Y-18012689D01*
X-7333398Y-18012765D01*
X-7353825Y-18014777D01*
X-7354217Y-18014777D01*
X-7374644Y-18012765D01*
X-7375029Y-18012689D01*
X-7394672Y-18006730D01*
X-7395034Y-18006580D01*
X-7413138Y-17996904D01*
X-7413464Y-17996686D01*
X-7431617Y-17981788D01*
X-7431762Y-17981656D01*
X-7731656Y-17681762D01*
X-7731788Y-17681617D01*
X-7746686Y-17663464D01*
X-7746904Y-17663138D01*
X-7756580Y-17645034D01*
X-7756730Y-17644672D01*
X-7762689Y-17625029D01*
X-7762765Y-17624644D01*
X-7764777Y-17604217D01*
X-7764777Y-17604021D01*
X-7748641Y-17604021D01*
X-7746086Y-17629963D01*
X-7738517Y-17654914D01*
X-7726227Y-17677907D01*
X-7709623Y-17698138D01*
X-7448138Y-17959623D01*
X-7427907Y-17976227D01*
X-7404914Y-17988517D01*
X-7379963Y-17996086D01*
X-7354021Y-17998641D01*
X-7328079Y-17996086D01*
X-7303128Y-17988517D01*
X-7280135Y-17976227D01*
X-7259904Y-17959623D01*
X-7069129Y-17768848D01*
X-7052525Y-17748617D01*
X-7040235Y-17725624D01*
X-7032666Y-17700673D01*
X-7030111Y-17674731D01*
X-7032666Y-17648789D01*
X-7040235Y-17623838D01*
X-7052525Y-17600845D01*
X-7069129Y-17580614D01*
X-7330614Y-17319129D01*
X-7350845Y-17302525D01*
X-7373838Y-17290235D01*
X-7398789Y-17282666D01*
X-7424731Y-17280111D01*
X-7450673Y-17282666D01*
X-7475624Y-17290235D01*
X-7498617Y-17302525D01*
X-7518848Y-17319129D01*
X-7709623Y-17509904D01*
X-7726227Y-17530135D01*
X-7738517Y-17553128D01*
X-7746086Y-17578079D01*
X-7748641Y-17604021D01*
X-7764777Y-17604021D01*
X-7764777Y-17603825D01*
X-7762765Y-17583398D01*
X-7762689Y-17583013D01*
X-7756730Y-17563370D01*
X-7756580Y-17563008D01*
X-7746904Y-17544904D01*
X-7746686Y-17544578D01*
X-7731788Y-17526425D01*
X-7731656Y-17526280D01*
X-7502472Y-17297096D01*
X-7502327Y-17296964D01*
X-7484174Y-17282066D01*
X-7483848Y-17281848D01*
X-7465744Y-17272172D01*
X-7465382Y-17272022D01*
X-7445739Y-17266063D01*
X-7445354Y-17265987D01*
X-7424927Y-17263975D01*
X-7424535Y-17263975D01*
X-7404108Y-17265987D01*
G37*
G36*
X7445354Y-17265987D02*
G01*
X7445739Y-17266063D01*
X7465382Y-17272022D01*
X7465744Y-17272172D01*
X7483848Y-17281848D01*
X7484174Y-17282066D01*
X7502327Y-17296964D01*
X7502472Y-17297096D01*
X7731656Y-17526280D01*
X7731788Y-17526425D01*
X7746686Y-17544578D01*
X7746904Y-17544904D01*
X7756580Y-17563008D01*
X7756730Y-17563370D01*
X7762689Y-17583013D01*
X7762765Y-17583398D01*
X7764777Y-17603825D01*
X7764777Y-17604217D01*
X7762765Y-17624644D01*
X7762689Y-17625029D01*
X7756730Y-17644672D01*
X7756580Y-17645034D01*
X7746904Y-17663138D01*
X7746686Y-17663464D01*
X7731788Y-17681617D01*
X7731656Y-17681762D01*
X7431762Y-17981656D01*
X7431617Y-17981788D01*
X7413464Y-17996686D01*
X7413138Y-17996904D01*
X7395034Y-18006580D01*
X7394672Y-18006730D01*
X7375029Y-18012689D01*
X7374644Y-18012765D01*
X7354217Y-18014777D01*
X7353825Y-18014777D01*
X7333398Y-18012765D01*
X7333013Y-18012689D01*
X7313370Y-18006730D01*
X7313008Y-18006580D01*
X7294904Y-17996904D01*
X7294578Y-17996686D01*
X7276425Y-17981788D01*
X7276280Y-17981656D01*
X7047096Y-17752472D01*
X7046964Y-17752327D01*
X7032066Y-17734174D01*
X7031848Y-17733848D01*
X7022172Y-17715744D01*
X7022022Y-17715382D01*
X7016063Y-17695739D01*
X7015987Y-17695354D01*
X7013975Y-17674927D01*
X7013975Y-17674731D01*
X7030111Y-17674731D01*
X7032666Y-17700673D01*
X7040235Y-17725624D01*
X7052525Y-17748617D01*
X7069129Y-17768848D01*
X7259904Y-17959623D01*
X7280135Y-17976227D01*
X7303128Y-17988517D01*
X7328079Y-17996086D01*
X7354021Y-17998641D01*
X7379963Y-17996086D01*
X7404914Y-17988517D01*
X7427907Y-17976227D01*
X7448138Y-17959623D01*
X7709623Y-17698138D01*
X7726227Y-17677907D01*
X7738517Y-17654914D01*
X7746086Y-17629963D01*
X7748641Y-17604021D01*
X7746086Y-17578079D01*
X7738517Y-17553128D01*
X7726227Y-17530135D01*
X7709623Y-17509904D01*
X7518848Y-17319129D01*
X7498617Y-17302525D01*
X7475624Y-17290235D01*
X7450673Y-17282666D01*
X7424731Y-17280111D01*
X7398789Y-17282666D01*
X7373838Y-17290235D01*
X7350845Y-17302525D01*
X7330614Y-17319129D01*
X7069129Y-17580614D01*
X7052525Y-17600845D01*
X7040235Y-17623838D01*
X7032666Y-17648789D01*
X7030111Y-17674731D01*
X7013975Y-17674731D01*
X7013975Y-17674535D01*
X7015987Y-17654108D01*
X7016063Y-17653723D01*
X7022022Y-17634080D01*
X7022172Y-17633718D01*
X7031848Y-17615614D01*
X7032066Y-17615288D01*
X7046964Y-17597135D01*
X7047096Y-17596990D01*
X7346990Y-17297096D01*
X7347135Y-17296964D01*
X7365288Y-17282066D01*
X7365614Y-17281848D01*
X7383718Y-17272172D01*
X7384080Y-17272022D01*
X7403723Y-17266063D01*
X7404108Y-17265987D01*
X7424535Y-17263975D01*
X7424927Y-17263975D01*
X7445354Y-17265987D01*
G37*
M02*
