G04 #@! TF.GenerationSoftware,KiCad,Pcbnew,(5.1.10-1-10_14)*
G04 #@! TF.CreationDate,2021-07-26T11:30:22-07:00*
G04 #@! TF.ProjectId,Synapse,53796e61-7073-4652-9e6b-696361645f70,1*
G04 #@! TF.SameCoordinates,Original*
G04 #@! TF.FileFunction,Copper,L1,Top*
G04 #@! TF.FilePolarity,Positive*
%FSLAX46Y46*%
G04 Gerber Fmt 4.6, Leading zero omitted, Abs format (unit mm)*
G04 Created by KiCad (PCBNEW (5.1.10-1-10_14)) date 2021-07-26 11:30:22*
%MOMM*%
%LPD*%
G01*
G04 APERTURE LIST*
G04 #@! TA.AperFunction,SMDPad,CuDef*
%ADD10R,0.450000X0.300000*%
G04 #@! TD*
G04 #@! TA.AperFunction,SMDPad,CuDef*
%ADD11C,0.152400*%
G04 #@! TD*
G04 #@! TA.AperFunction,SMDPad,CuDef*
%ADD12R,0.600000X1.450000*%
G04 #@! TD*
G04 #@! TA.AperFunction,SMDPad,CuDef*
%ADD13R,0.300000X1.450000*%
G04 #@! TD*
G04 #@! TA.AperFunction,ComponentPad*
%ADD14O,1.000000X2.100000*%
G04 #@! TD*
G04 #@! TA.AperFunction,ComponentPad*
%ADD15O,1.000000X1.600000*%
G04 #@! TD*
G04 #@! TA.AperFunction,SMDPad,CuDef*
%ADD16R,1.150000X1.000000*%
G04 #@! TD*
G04 #@! TA.AperFunction,SMDPad,CuDef*
%ADD17R,0.600000X1.100000*%
G04 #@! TD*
G04 #@! TA.AperFunction,SMDPad,CuDef*
%ADD18R,5.600000X5.600000*%
G04 #@! TD*
G04 #@! TA.AperFunction,SMDPad,CuDef*
%ADD19R,0.900000X1.700000*%
G04 #@! TD*
G04 #@! TA.AperFunction,ViaPad*
%ADD20C,0.400000*%
G04 #@! TD*
G04 #@! TA.AperFunction,ViaPad*
%ADD21C,0.900000*%
G04 #@! TD*
G04 #@! TA.AperFunction,ViaPad*
%ADD22C,0.600000*%
G04 #@! TD*
G04 #@! TA.AperFunction,Conductor*
%ADD23C,0.300000*%
G04 #@! TD*
G04 #@! TA.AperFunction,Conductor*
%ADD24C,0.400000*%
G04 #@! TD*
G04 #@! TA.AperFunction,Conductor*
%ADD25C,0.600000*%
G04 #@! TD*
G04 #@! TA.AperFunction,Conductor*
%ADD26C,0.254000*%
G04 #@! TD*
G04 #@! TA.AperFunction,Conductor*
%ADD27C,0.152400*%
G04 #@! TD*
G04 APERTURE END LIST*
D10*
X900000Y8460000D03*
X2300000Y7960000D03*
X900000Y7460000D03*
X2300000Y8460000D03*
X2300000Y7460000D03*
G04 #@! TA.AperFunction,SMDPad,CuDef*
D11*
G36*
X11798370Y-9626440D02*
G01*
X10773066Y-8601136D01*
X11197330Y-8176872D01*
X12222634Y-9202176D01*
X11798370Y-9626440D01*
G37*
G04 #@! TD.AperFunction*
G04 #@! TA.AperFunction,SMDPad,CuDef*
G36*
X11232685Y-10192125D02*
G01*
X10207381Y-9166821D01*
X10631645Y-8742557D01*
X11656949Y-9767861D01*
X11232685Y-10192125D01*
G37*
G04 #@! TD.AperFunction*
G04 #@! TA.AperFunction,SMDPad,CuDef*
G36*
X7767861Y-13656949D02*
G01*
X6742557Y-12631645D01*
X7166821Y-12207381D01*
X8192125Y-13232685D01*
X7767861Y-13656949D01*
G37*
G04 #@! TD.AperFunction*
G04 #@! TA.AperFunction,SMDPad,CuDef*
G36*
X7202176Y-14222634D02*
G01*
X6176872Y-13197330D01*
X6601136Y-12773066D01*
X7626440Y-13798370D01*
X7202176Y-14222634D01*
G37*
G04 #@! TD.AperFunction*
G04 #@! TA.AperFunction,SMDPad,CuDef*
G36*
X7202176Y-14222634D02*
G01*
X6176872Y-13197330D01*
X6601136Y-12773066D01*
X7626440Y-13798370D01*
X7202176Y-14222634D01*
G37*
G04 #@! TD.AperFunction*
G04 #@! TA.AperFunction,SMDPad,CuDef*
G36*
X7767861Y-13656949D02*
G01*
X6742557Y-12631645D01*
X7166821Y-12207381D01*
X8192125Y-13232685D01*
X7767861Y-13656949D01*
G37*
G04 #@! TD.AperFunction*
G04 #@! TA.AperFunction,SMDPad,CuDef*
G36*
X11232685Y-10192125D02*
G01*
X10207381Y-9166821D01*
X10631645Y-8742557D01*
X11656949Y-9767861D01*
X11232685Y-10192125D01*
G37*
G04 #@! TD.AperFunction*
G04 #@! TA.AperFunction,SMDPad,CuDef*
G36*
X11798370Y-9626440D02*
G01*
X10773066Y-8601136D01*
X11197330Y-8176872D01*
X12222634Y-9202176D01*
X11798370Y-9626440D01*
G37*
G04 #@! TD.AperFunction*
G04 #@! TA.AperFunction,SMDPad,CuDef*
G36*
X8368902Y-13055908D02*
G01*
X7343598Y-12030604D01*
X7555730Y-11818472D01*
X8581034Y-12843776D01*
X8368902Y-13055908D01*
G37*
G04 #@! TD.AperFunction*
G04 #@! TA.AperFunction,SMDPad,CuDef*
G36*
X8722456Y-12702355D02*
G01*
X7697152Y-11677051D01*
X7909284Y-11464919D01*
X8934588Y-12490223D01*
X8722456Y-12702355D01*
G37*
G04 #@! TD.AperFunction*
G04 #@! TA.AperFunction,SMDPad,CuDef*
G36*
X9076009Y-12348801D02*
G01*
X8050705Y-11323497D01*
X8262837Y-11111365D01*
X9288141Y-12136669D01*
X9076009Y-12348801D01*
G37*
G04 #@! TD.AperFunction*
G04 #@! TA.AperFunction,SMDPad,CuDef*
G36*
X9783116Y-11641694D02*
G01*
X8757812Y-10616390D01*
X8969944Y-10404258D01*
X9995248Y-11429562D01*
X9783116Y-11641694D01*
G37*
G04 #@! TD.AperFunction*
G04 #@! TA.AperFunction,SMDPad,CuDef*
G36*
X10136669Y-11288141D02*
G01*
X9111365Y-10262837D01*
X9323497Y-10050705D01*
X10348801Y-11076009D01*
X10136669Y-11288141D01*
G37*
G04 #@! TD.AperFunction*
G04 #@! TA.AperFunction,SMDPad,CuDef*
G36*
X10490223Y-10934588D02*
G01*
X9464919Y-9909284D01*
X9677051Y-9697152D01*
X10702355Y-10722456D01*
X10490223Y-10934588D01*
G37*
G04 #@! TD.AperFunction*
G04 #@! TA.AperFunction,SMDPad,CuDef*
G36*
X10843776Y-10581034D02*
G01*
X9818472Y-9555730D01*
X10030604Y-9343598D01*
X11055908Y-10368902D01*
X10843776Y-10581034D01*
G37*
G04 #@! TD.AperFunction*
G04 #@! TA.AperFunction,SMDPad,CuDef*
G36*
X9429562Y-11995248D02*
G01*
X8404258Y-10969944D01*
X8616390Y-10757812D01*
X9641694Y-11783116D01*
X9429562Y-11995248D01*
G37*
G04 #@! TD.AperFunction*
G04 #@! TA.AperFunction,ComponentPad*
G36*
G01*
X12936813Y-9534516D02*
X12158995Y-8756698D01*
G75*
G02*
X12158995Y-8049592I353553J353553D01*
G01*
X12158995Y-8049592D01*
G75*
G02*
X12866101Y-8049592I353553J-353553D01*
G01*
X13643919Y-8827410D01*
G75*
G02*
X13643919Y-9534516I-353553J-353553D01*
G01*
X13643919Y-9534516D01*
G75*
G02*
X12936813Y-9534516I-353553J353553D01*
G01*
G37*
G04 #@! TD.AperFunction*
G04 #@! TA.AperFunction,ComponentPad*
G36*
G01*
X6827410Y-15643919D02*
X6049592Y-14866101D01*
G75*
G02*
X6049592Y-14158995I353553J353553D01*
G01*
X6049592Y-14158995D01*
G75*
G02*
X6756698Y-14158995I353553J-353553D01*
G01*
X7534516Y-14936813D01*
G75*
G02*
X7534516Y-15643919I-353553J-353553D01*
G01*
X7534516Y-15643919D01*
G75*
G02*
X6827410Y-15643919I-353553J353553D01*
G01*
G37*
G04 #@! TD.AperFunction*
G04 #@! TA.AperFunction,ComponentPad*
G36*
G01*
X9606340Y-18422848D02*
X9182076Y-17998584D01*
G75*
G02*
X9182076Y-17291478I353553J353553D01*
G01*
X9182076Y-17291478D01*
G75*
G02*
X9889182Y-17291478I353553J-353553D01*
G01*
X10313446Y-17715742D01*
G75*
G02*
X10313446Y-18422848I-353553J-353553D01*
G01*
X10313446Y-18422848D01*
G75*
G02*
X9606340Y-18422848I-353553J353553D01*
G01*
G37*
G04 #@! TD.AperFunction*
G04 #@! TA.AperFunction,ComponentPad*
G36*
G01*
X15715742Y-12313446D02*
X15291478Y-11889182D01*
G75*
G02*
X15291478Y-11182076I353553J353553D01*
G01*
X15291478Y-11182076D01*
G75*
G02*
X15998584Y-11182076I353553J-353553D01*
G01*
X16422848Y-11606340D01*
G75*
G02*
X16422848Y-12313446I-353553J-353553D01*
G01*
X16422848Y-12313446D01*
G75*
G02*
X15715742Y-12313446I-353553J353553D01*
G01*
G37*
G04 #@! TD.AperFunction*
G04 #@! TA.AperFunction,SMDPad,CuDef*
G36*
X-7626440Y-13798370D02*
G01*
X-6601136Y-12773066D01*
X-6176872Y-13197330D01*
X-7202176Y-14222634D01*
X-7626440Y-13798370D01*
G37*
G04 #@! TD.AperFunction*
G04 #@! TA.AperFunction,SMDPad,CuDef*
G36*
X-8192125Y-13232685D02*
G01*
X-7166821Y-12207381D01*
X-6742557Y-12631645D01*
X-7767861Y-13656949D01*
X-8192125Y-13232685D01*
G37*
G04 #@! TD.AperFunction*
G04 #@! TA.AperFunction,SMDPad,CuDef*
G36*
X-11656949Y-9767861D02*
G01*
X-10631645Y-8742557D01*
X-10207381Y-9166821D01*
X-11232685Y-10192125D01*
X-11656949Y-9767861D01*
G37*
G04 #@! TD.AperFunction*
G04 #@! TA.AperFunction,SMDPad,CuDef*
G36*
X-12222634Y-9202176D02*
G01*
X-11197330Y-8176872D01*
X-10773066Y-8601136D01*
X-11798370Y-9626440D01*
X-12222634Y-9202176D01*
G37*
G04 #@! TD.AperFunction*
G04 #@! TA.AperFunction,SMDPad,CuDef*
G36*
X-12222634Y-9202176D02*
G01*
X-11197330Y-8176872D01*
X-10773066Y-8601136D01*
X-11798370Y-9626440D01*
X-12222634Y-9202176D01*
G37*
G04 #@! TD.AperFunction*
G04 #@! TA.AperFunction,SMDPad,CuDef*
G36*
X-11656949Y-9767861D02*
G01*
X-10631645Y-8742557D01*
X-10207381Y-9166821D01*
X-11232685Y-10192125D01*
X-11656949Y-9767861D01*
G37*
G04 #@! TD.AperFunction*
G04 #@! TA.AperFunction,SMDPad,CuDef*
G36*
X-8192125Y-13232685D02*
G01*
X-7166821Y-12207381D01*
X-6742557Y-12631645D01*
X-7767861Y-13656949D01*
X-8192125Y-13232685D01*
G37*
G04 #@! TD.AperFunction*
G04 #@! TA.AperFunction,SMDPad,CuDef*
G36*
X-7626440Y-13798370D02*
G01*
X-6601136Y-12773066D01*
X-6176872Y-13197330D01*
X-7202176Y-14222634D01*
X-7626440Y-13798370D01*
G37*
G04 #@! TD.AperFunction*
G04 #@! TA.AperFunction,SMDPad,CuDef*
G36*
X-11055908Y-10368902D02*
G01*
X-10030604Y-9343598D01*
X-9818472Y-9555730D01*
X-10843776Y-10581034D01*
X-11055908Y-10368902D01*
G37*
G04 #@! TD.AperFunction*
G04 #@! TA.AperFunction,SMDPad,CuDef*
G36*
X-10702355Y-10722456D02*
G01*
X-9677051Y-9697152D01*
X-9464919Y-9909284D01*
X-10490223Y-10934588D01*
X-10702355Y-10722456D01*
G37*
G04 #@! TD.AperFunction*
G04 #@! TA.AperFunction,SMDPad,CuDef*
G36*
X-10348801Y-11076009D02*
G01*
X-9323497Y-10050705D01*
X-9111365Y-10262837D01*
X-10136669Y-11288141D01*
X-10348801Y-11076009D01*
G37*
G04 #@! TD.AperFunction*
G04 #@! TA.AperFunction,SMDPad,CuDef*
G36*
X-9641694Y-11783116D02*
G01*
X-8616390Y-10757812D01*
X-8404258Y-10969944D01*
X-9429562Y-11995248D01*
X-9641694Y-11783116D01*
G37*
G04 #@! TD.AperFunction*
G04 #@! TA.AperFunction,SMDPad,CuDef*
G36*
X-9288141Y-12136669D02*
G01*
X-8262837Y-11111365D01*
X-8050705Y-11323497D01*
X-9076009Y-12348801D01*
X-9288141Y-12136669D01*
G37*
G04 #@! TD.AperFunction*
G04 #@! TA.AperFunction,SMDPad,CuDef*
G36*
X-8934588Y-12490223D02*
G01*
X-7909284Y-11464919D01*
X-7697152Y-11677051D01*
X-8722456Y-12702355D01*
X-8934588Y-12490223D01*
G37*
G04 #@! TD.AperFunction*
G04 #@! TA.AperFunction,SMDPad,CuDef*
G36*
X-8581034Y-12843776D02*
G01*
X-7555730Y-11818472D01*
X-7343598Y-12030604D01*
X-8368902Y-13055908D01*
X-8581034Y-12843776D01*
G37*
G04 #@! TD.AperFunction*
G04 #@! TA.AperFunction,SMDPad,CuDef*
G36*
X-9995248Y-11429562D02*
G01*
X-8969944Y-10404258D01*
X-8757812Y-10616390D01*
X-9783116Y-11641694D01*
X-9995248Y-11429562D01*
G37*
G04 #@! TD.AperFunction*
G04 #@! TA.AperFunction,ComponentPad*
G36*
G01*
X-7534516Y-14936813D02*
X-6756698Y-14158995D01*
G75*
G02*
X-6049592Y-14158995I353553J-353553D01*
G01*
X-6049592Y-14158995D01*
G75*
G02*
X-6049592Y-14866101I-353553J-353553D01*
G01*
X-6827410Y-15643919D01*
G75*
G02*
X-7534516Y-15643919I-353553J353553D01*
G01*
X-7534516Y-15643919D01*
G75*
G02*
X-7534516Y-14936813I353553J353553D01*
G01*
G37*
G04 #@! TD.AperFunction*
G04 #@! TA.AperFunction,ComponentPad*
G36*
G01*
X-13643919Y-8827410D02*
X-12866101Y-8049592D01*
G75*
G02*
X-12158995Y-8049592I353553J-353553D01*
G01*
X-12158995Y-8049592D01*
G75*
G02*
X-12158995Y-8756698I-353553J-353553D01*
G01*
X-12936813Y-9534516D01*
G75*
G02*
X-13643919Y-9534516I-353553J353553D01*
G01*
X-13643919Y-9534516D01*
G75*
G02*
X-13643919Y-8827410I353553J353553D01*
G01*
G37*
G04 #@! TD.AperFunction*
G04 #@! TA.AperFunction,ComponentPad*
G36*
G01*
X-16422848Y-11606340D02*
X-15998584Y-11182076D01*
G75*
G02*
X-15291478Y-11182076I353553J-353553D01*
G01*
X-15291478Y-11182076D01*
G75*
G02*
X-15291478Y-11889182I-353553J-353553D01*
G01*
X-15715742Y-12313446D01*
G75*
G02*
X-16422848Y-12313446I-353553J353553D01*
G01*
X-16422848Y-12313446D01*
G75*
G02*
X-16422848Y-11606340I353553J353553D01*
G01*
G37*
G04 #@! TD.AperFunction*
G04 #@! TA.AperFunction,ComponentPad*
G36*
G01*
X-10313446Y-17715742D02*
X-9889182Y-17291478D01*
G75*
G02*
X-9182076Y-17291478I353553J-353553D01*
G01*
X-9182076Y-17291478D01*
G75*
G02*
X-9182076Y-17998584I-353553J-353553D01*
G01*
X-9606340Y-18422848D01*
G75*
G02*
X-10313446Y-18422848I-353553J353553D01*
G01*
X-10313446Y-18422848D01*
G75*
G02*
X-10313446Y-17715742I353553J353553D01*
G01*
G37*
G04 #@! TD.AperFunction*
D12*
X-3250000Y11955000D03*
X-2450000Y11955000D03*
X2450000Y11955000D03*
X3250000Y11955000D03*
X3250000Y11955000D03*
X2450000Y11955000D03*
X-2450000Y11955000D03*
X-3250000Y11955000D03*
D13*
X1750000Y11955000D03*
X1250000Y11955000D03*
X750000Y11955000D03*
X-250000Y11955000D03*
X-750000Y11955000D03*
X-1250000Y11955000D03*
X-1750000Y11955000D03*
X250000Y11955000D03*
D14*
X-4320000Y12870000D03*
X4320000Y12870000D03*
D15*
X4320000Y17050000D03*
X-4320000Y17050000D03*
D16*
X-275000Y-4400000D03*
X1475000Y-4400000D03*
X1475000Y-5800000D03*
X-275000Y-5800000D03*
D17*
X-3000000Y-4000000D03*
X-4400000Y-4000000D03*
D18*
X0Y2000000D03*
G04 #@! TA.AperFunction,SMDPad,CuDef*
G36*
G01*
X-3062500Y-875000D02*
X-3812500Y-875000D01*
G75*
G02*
X-3875000Y-812500I0J62500D01*
G01*
X-3875000Y-687500D01*
G75*
G02*
X-3812500Y-625000I62500J0D01*
G01*
X-3062500Y-625000D01*
G75*
G02*
X-3000000Y-687500I0J-62500D01*
G01*
X-3000000Y-812500D01*
G75*
G02*
X-3062500Y-875000I-62500J0D01*
G01*
G37*
G04 #@! TD.AperFunction*
G04 #@! TA.AperFunction,SMDPad,CuDef*
G36*
G01*
X-3062500Y-375000D02*
X-3812500Y-375000D01*
G75*
G02*
X-3875000Y-312500I0J62500D01*
G01*
X-3875000Y-187500D01*
G75*
G02*
X-3812500Y-125000I62500J0D01*
G01*
X-3062500Y-125000D01*
G75*
G02*
X-3000000Y-187500I0J-62500D01*
G01*
X-3000000Y-312500D01*
G75*
G02*
X-3062500Y-375000I-62500J0D01*
G01*
G37*
G04 #@! TD.AperFunction*
G04 #@! TA.AperFunction,SMDPad,CuDef*
G36*
G01*
X-3062500Y125000D02*
X-3812500Y125000D01*
G75*
G02*
X-3875000Y187500I0J62500D01*
G01*
X-3875000Y312500D01*
G75*
G02*
X-3812500Y375000I62500J0D01*
G01*
X-3062500Y375000D01*
G75*
G02*
X-3000000Y312500I0J-62500D01*
G01*
X-3000000Y187500D01*
G75*
G02*
X-3062500Y125000I-62500J0D01*
G01*
G37*
G04 #@! TD.AperFunction*
G04 #@! TA.AperFunction,SMDPad,CuDef*
G36*
G01*
X-3062500Y625000D02*
X-3812500Y625000D01*
G75*
G02*
X-3875000Y687500I0J62500D01*
G01*
X-3875000Y812500D01*
G75*
G02*
X-3812500Y875000I62500J0D01*
G01*
X-3062500Y875000D01*
G75*
G02*
X-3000000Y812500I0J-62500D01*
G01*
X-3000000Y687500D01*
G75*
G02*
X-3062500Y625000I-62500J0D01*
G01*
G37*
G04 #@! TD.AperFunction*
G04 #@! TA.AperFunction,SMDPad,CuDef*
G36*
G01*
X-3062500Y1125000D02*
X-3812500Y1125000D01*
G75*
G02*
X-3875000Y1187500I0J62500D01*
G01*
X-3875000Y1312500D01*
G75*
G02*
X-3812500Y1375000I62500J0D01*
G01*
X-3062500Y1375000D01*
G75*
G02*
X-3000000Y1312500I0J-62500D01*
G01*
X-3000000Y1187500D01*
G75*
G02*
X-3062500Y1125000I-62500J0D01*
G01*
G37*
G04 #@! TD.AperFunction*
G04 #@! TA.AperFunction,SMDPad,CuDef*
G36*
G01*
X-3062500Y1625000D02*
X-3812500Y1625000D01*
G75*
G02*
X-3875000Y1687500I0J62500D01*
G01*
X-3875000Y1812500D01*
G75*
G02*
X-3812500Y1875000I62500J0D01*
G01*
X-3062500Y1875000D01*
G75*
G02*
X-3000000Y1812500I0J-62500D01*
G01*
X-3000000Y1687500D01*
G75*
G02*
X-3062500Y1625000I-62500J0D01*
G01*
G37*
G04 #@! TD.AperFunction*
G04 #@! TA.AperFunction,SMDPad,CuDef*
G36*
G01*
X-3062500Y2125000D02*
X-3812500Y2125000D01*
G75*
G02*
X-3875000Y2187500I0J62500D01*
G01*
X-3875000Y2312500D01*
G75*
G02*
X-3812500Y2375000I62500J0D01*
G01*
X-3062500Y2375000D01*
G75*
G02*
X-3000000Y2312500I0J-62500D01*
G01*
X-3000000Y2187500D01*
G75*
G02*
X-3062500Y2125000I-62500J0D01*
G01*
G37*
G04 #@! TD.AperFunction*
G04 #@! TA.AperFunction,SMDPad,CuDef*
G36*
G01*
X-3062500Y2625000D02*
X-3812500Y2625000D01*
G75*
G02*
X-3875000Y2687500I0J62500D01*
G01*
X-3875000Y2812500D01*
G75*
G02*
X-3812500Y2875000I62500J0D01*
G01*
X-3062500Y2875000D01*
G75*
G02*
X-3000000Y2812500I0J-62500D01*
G01*
X-3000000Y2687500D01*
G75*
G02*
X-3062500Y2625000I-62500J0D01*
G01*
G37*
G04 #@! TD.AperFunction*
G04 #@! TA.AperFunction,SMDPad,CuDef*
G36*
G01*
X-3062500Y3125000D02*
X-3812500Y3125000D01*
G75*
G02*
X-3875000Y3187500I0J62500D01*
G01*
X-3875000Y3312500D01*
G75*
G02*
X-3812500Y3375000I62500J0D01*
G01*
X-3062500Y3375000D01*
G75*
G02*
X-3000000Y3312500I0J-62500D01*
G01*
X-3000000Y3187500D01*
G75*
G02*
X-3062500Y3125000I-62500J0D01*
G01*
G37*
G04 #@! TD.AperFunction*
G04 #@! TA.AperFunction,SMDPad,CuDef*
G36*
G01*
X-3062500Y3625000D02*
X-3812500Y3625000D01*
G75*
G02*
X-3875000Y3687500I0J62500D01*
G01*
X-3875000Y3812500D01*
G75*
G02*
X-3812500Y3875000I62500J0D01*
G01*
X-3062500Y3875000D01*
G75*
G02*
X-3000000Y3812500I0J-62500D01*
G01*
X-3000000Y3687500D01*
G75*
G02*
X-3062500Y3625000I-62500J0D01*
G01*
G37*
G04 #@! TD.AperFunction*
G04 #@! TA.AperFunction,SMDPad,CuDef*
G36*
G01*
X-3062500Y4125000D02*
X-3812500Y4125000D01*
G75*
G02*
X-3875000Y4187500I0J62500D01*
G01*
X-3875000Y4312500D01*
G75*
G02*
X-3812500Y4375000I62500J0D01*
G01*
X-3062500Y4375000D01*
G75*
G02*
X-3000000Y4312500I0J-62500D01*
G01*
X-3000000Y4187500D01*
G75*
G02*
X-3062500Y4125000I-62500J0D01*
G01*
G37*
G04 #@! TD.AperFunction*
G04 #@! TA.AperFunction,SMDPad,CuDef*
G36*
G01*
X-3062500Y4625000D02*
X-3812500Y4625000D01*
G75*
G02*
X-3875000Y4687500I0J62500D01*
G01*
X-3875000Y4812500D01*
G75*
G02*
X-3812500Y4875000I62500J0D01*
G01*
X-3062500Y4875000D01*
G75*
G02*
X-3000000Y4812500I0J-62500D01*
G01*
X-3000000Y4687500D01*
G75*
G02*
X-3062500Y4625000I-62500J0D01*
G01*
G37*
G04 #@! TD.AperFunction*
G04 #@! TA.AperFunction,SMDPad,CuDef*
G36*
G01*
X-2687500Y5000000D02*
X-2812500Y5000000D01*
G75*
G02*
X-2875000Y5062500I0J62500D01*
G01*
X-2875000Y5812500D01*
G75*
G02*
X-2812500Y5875000I62500J0D01*
G01*
X-2687500Y5875000D01*
G75*
G02*
X-2625000Y5812500I0J-62500D01*
G01*
X-2625000Y5062500D01*
G75*
G02*
X-2687500Y5000000I-62500J0D01*
G01*
G37*
G04 #@! TD.AperFunction*
G04 #@! TA.AperFunction,SMDPad,CuDef*
G36*
G01*
X-2187500Y5000000D02*
X-2312500Y5000000D01*
G75*
G02*
X-2375000Y5062500I0J62500D01*
G01*
X-2375000Y5812500D01*
G75*
G02*
X-2312500Y5875000I62500J0D01*
G01*
X-2187500Y5875000D01*
G75*
G02*
X-2125000Y5812500I0J-62500D01*
G01*
X-2125000Y5062500D01*
G75*
G02*
X-2187500Y5000000I-62500J0D01*
G01*
G37*
G04 #@! TD.AperFunction*
G04 #@! TA.AperFunction,SMDPad,CuDef*
G36*
G01*
X-1687500Y5000000D02*
X-1812500Y5000000D01*
G75*
G02*
X-1875000Y5062500I0J62500D01*
G01*
X-1875000Y5812500D01*
G75*
G02*
X-1812500Y5875000I62500J0D01*
G01*
X-1687500Y5875000D01*
G75*
G02*
X-1625000Y5812500I0J-62500D01*
G01*
X-1625000Y5062500D01*
G75*
G02*
X-1687500Y5000000I-62500J0D01*
G01*
G37*
G04 #@! TD.AperFunction*
G04 #@! TA.AperFunction,SMDPad,CuDef*
G36*
G01*
X-1187500Y5000000D02*
X-1312500Y5000000D01*
G75*
G02*
X-1375000Y5062500I0J62500D01*
G01*
X-1375000Y5812500D01*
G75*
G02*
X-1312500Y5875000I62500J0D01*
G01*
X-1187500Y5875000D01*
G75*
G02*
X-1125000Y5812500I0J-62500D01*
G01*
X-1125000Y5062500D01*
G75*
G02*
X-1187500Y5000000I-62500J0D01*
G01*
G37*
G04 #@! TD.AperFunction*
G04 #@! TA.AperFunction,SMDPad,CuDef*
G36*
G01*
X-687500Y5000000D02*
X-812500Y5000000D01*
G75*
G02*
X-875000Y5062500I0J62500D01*
G01*
X-875000Y5812500D01*
G75*
G02*
X-812500Y5875000I62500J0D01*
G01*
X-687500Y5875000D01*
G75*
G02*
X-625000Y5812500I0J-62500D01*
G01*
X-625000Y5062500D01*
G75*
G02*
X-687500Y5000000I-62500J0D01*
G01*
G37*
G04 #@! TD.AperFunction*
G04 #@! TA.AperFunction,SMDPad,CuDef*
G36*
G01*
X-187500Y5000000D02*
X-312500Y5000000D01*
G75*
G02*
X-375000Y5062500I0J62500D01*
G01*
X-375000Y5812500D01*
G75*
G02*
X-312500Y5875000I62500J0D01*
G01*
X-187500Y5875000D01*
G75*
G02*
X-125000Y5812500I0J-62500D01*
G01*
X-125000Y5062500D01*
G75*
G02*
X-187500Y5000000I-62500J0D01*
G01*
G37*
G04 #@! TD.AperFunction*
G04 #@! TA.AperFunction,SMDPad,CuDef*
G36*
G01*
X312500Y5000000D02*
X187500Y5000000D01*
G75*
G02*
X125000Y5062500I0J62500D01*
G01*
X125000Y5812500D01*
G75*
G02*
X187500Y5875000I62500J0D01*
G01*
X312500Y5875000D01*
G75*
G02*
X375000Y5812500I0J-62500D01*
G01*
X375000Y5062500D01*
G75*
G02*
X312500Y5000000I-62500J0D01*
G01*
G37*
G04 #@! TD.AperFunction*
G04 #@! TA.AperFunction,SMDPad,CuDef*
G36*
G01*
X812500Y5000000D02*
X687500Y5000000D01*
G75*
G02*
X625000Y5062500I0J62500D01*
G01*
X625000Y5812500D01*
G75*
G02*
X687500Y5875000I62500J0D01*
G01*
X812500Y5875000D01*
G75*
G02*
X875000Y5812500I0J-62500D01*
G01*
X875000Y5062500D01*
G75*
G02*
X812500Y5000000I-62500J0D01*
G01*
G37*
G04 #@! TD.AperFunction*
G04 #@! TA.AperFunction,SMDPad,CuDef*
G36*
G01*
X1312500Y5000000D02*
X1187500Y5000000D01*
G75*
G02*
X1125000Y5062500I0J62500D01*
G01*
X1125000Y5812500D01*
G75*
G02*
X1187500Y5875000I62500J0D01*
G01*
X1312500Y5875000D01*
G75*
G02*
X1375000Y5812500I0J-62500D01*
G01*
X1375000Y5062500D01*
G75*
G02*
X1312500Y5000000I-62500J0D01*
G01*
G37*
G04 #@! TD.AperFunction*
G04 #@! TA.AperFunction,SMDPad,CuDef*
G36*
G01*
X1812500Y5000000D02*
X1687500Y5000000D01*
G75*
G02*
X1625000Y5062500I0J62500D01*
G01*
X1625000Y5812500D01*
G75*
G02*
X1687500Y5875000I62500J0D01*
G01*
X1812500Y5875000D01*
G75*
G02*
X1875000Y5812500I0J-62500D01*
G01*
X1875000Y5062500D01*
G75*
G02*
X1812500Y5000000I-62500J0D01*
G01*
G37*
G04 #@! TD.AperFunction*
G04 #@! TA.AperFunction,SMDPad,CuDef*
G36*
G01*
X2312500Y5000000D02*
X2187500Y5000000D01*
G75*
G02*
X2125000Y5062500I0J62500D01*
G01*
X2125000Y5812500D01*
G75*
G02*
X2187500Y5875000I62500J0D01*
G01*
X2312500Y5875000D01*
G75*
G02*
X2375000Y5812500I0J-62500D01*
G01*
X2375000Y5062500D01*
G75*
G02*
X2312500Y5000000I-62500J0D01*
G01*
G37*
G04 #@! TD.AperFunction*
G04 #@! TA.AperFunction,SMDPad,CuDef*
G36*
G01*
X2812500Y5000000D02*
X2687500Y5000000D01*
G75*
G02*
X2625000Y5062500I0J62500D01*
G01*
X2625000Y5812500D01*
G75*
G02*
X2687500Y5875000I62500J0D01*
G01*
X2812500Y5875000D01*
G75*
G02*
X2875000Y5812500I0J-62500D01*
G01*
X2875000Y5062500D01*
G75*
G02*
X2812500Y5000000I-62500J0D01*
G01*
G37*
G04 #@! TD.AperFunction*
G04 #@! TA.AperFunction,SMDPad,CuDef*
G36*
G01*
X3812500Y4625000D02*
X3062500Y4625000D01*
G75*
G02*
X3000000Y4687500I0J62500D01*
G01*
X3000000Y4812500D01*
G75*
G02*
X3062500Y4875000I62500J0D01*
G01*
X3812500Y4875000D01*
G75*
G02*
X3875000Y4812500I0J-62500D01*
G01*
X3875000Y4687500D01*
G75*
G02*
X3812500Y4625000I-62500J0D01*
G01*
G37*
G04 #@! TD.AperFunction*
G04 #@! TA.AperFunction,SMDPad,CuDef*
G36*
G01*
X3812500Y4125000D02*
X3062500Y4125000D01*
G75*
G02*
X3000000Y4187500I0J62500D01*
G01*
X3000000Y4312500D01*
G75*
G02*
X3062500Y4375000I62500J0D01*
G01*
X3812500Y4375000D01*
G75*
G02*
X3875000Y4312500I0J-62500D01*
G01*
X3875000Y4187500D01*
G75*
G02*
X3812500Y4125000I-62500J0D01*
G01*
G37*
G04 #@! TD.AperFunction*
G04 #@! TA.AperFunction,SMDPad,CuDef*
G36*
G01*
X3812500Y3625000D02*
X3062500Y3625000D01*
G75*
G02*
X3000000Y3687500I0J62500D01*
G01*
X3000000Y3812500D01*
G75*
G02*
X3062500Y3875000I62500J0D01*
G01*
X3812500Y3875000D01*
G75*
G02*
X3875000Y3812500I0J-62500D01*
G01*
X3875000Y3687500D01*
G75*
G02*
X3812500Y3625000I-62500J0D01*
G01*
G37*
G04 #@! TD.AperFunction*
G04 #@! TA.AperFunction,SMDPad,CuDef*
G36*
G01*
X3812500Y3125000D02*
X3062500Y3125000D01*
G75*
G02*
X3000000Y3187500I0J62500D01*
G01*
X3000000Y3312500D01*
G75*
G02*
X3062500Y3375000I62500J0D01*
G01*
X3812500Y3375000D01*
G75*
G02*
X3875000Y3312500I0J-62500D01*
G01*
X3875000Y3187500D01*
G75*
G02*
X3812500Y3125000I-62500J0D01*
G01*
G37*
G04 #@! TD.AperFunction*
G04 #@! TA.AperFunction,SMDPad,CuDef*
G36*
G01*
X3812500Y2625000D02*
X3062500Y2625000D01*
G75*
G02*
X3000000Y2687500I0J62500D01*
G01*
X3000000Y2812500D01*
G75*
G02*
X3062500Y2875000I62500J0D01*
G01*
X3812500Y2875000D01*
G75*
G02*
X3875000Y2812500I0J-62500D01*
G01*
X3875000Y2687500D01*
G75*
G02*
X3812500Y2625000I-62500J0D01*
G01*
G37*
G04 #@! TD.AperFunction*
G04 #@! TA.AperFunction,SMDPad,CuDef*
G36*
G01*
X3812500Y2125000D02*
X3062500Y2125000D01*
G75*
G02*
X3000000Y2187500I0J62500D01*
G01*
X3000000Y2312500D01*
G75*
G02*
X3062500Y2375000I62500J0D01*
G01*
X3812500Y2375000D01*
G75*
G02*
X3875000Y2312500I0J-62500D01*
G01*
X3875000Y2187500D01*
G75*
G02*
X3812500Y2125000I-62500J0D01*
G01*
G37*
G04 #@! TD.AperFunction*
G04 #@! TA.AperFunction,SMDPad,CuDef*
G36*
G01*
X3812500Y1625000D02*
X3062500Y1625000D01*
G75*
G02*
X3000000Y1687500I0J62500D01*
G01*
X3000000Y1812500D01*
G75*
G02*
X3062500Y1875000I62500J0D01*
G01*
X3812500Y1875000D01*
G75*
G02*
X3875000Y1812500I0J-62500D01*
G01*
X3875000Y1687500D01*
G75*
G02*
X3812500Y1625000I-62500J0D01*
G01*
G37*
G04 #@! TD.AperFunction*
G04 #@! TA.AperFunction,SMDPad,CuDef*
G36*
G01*
X3812500Y1125000D02*
X3062500Y1125000D01*
G75*
G02*
X3000000Y1187500I0J62500D01*
G01*
X3000000Y1312500D01*
G75*
G02*
X3062500Y1375000I62500J0D01*
G01*
X3812500Y1375000D01*
G75*
G02*
X3875000Y1312500I0J-62500D01*
G01*
X3875000Y1187500D01*
G75*
G02*
X3812500Y1125000I-62500J0D01*
G01*
G37*
G04 #@! TD.AperFunction*
G04 #@! TA.AperFunction,SMDPad,CuDef*
G36*
G01*
X3812500Y625000D02*
X3062500Y625000D01*
G75*
G02*
X3000000Y687500I0J62500D01*
G01*
X3000000Y812500D01*
G75*
G02*
X3062500Y875000I62500J0D01*
G01*
X3812500Y875000D01*
G75*
G02*
X3875000Y812500I0J-62500D01*
G01*
X3875000Y687500D01*
G75*
G02*
X3812500Y625000I-62500J0D01*
G01*
G37*
G04 #@! TD.AperFunction*
G04 #@! TA.AperFunction,SMDPad,CuDef*
G36*
G01*
X3812500Y125000D02*
X3062500Y125000D01*
G75*
G02*
X3000000Y187500I0J62500D01*
G01*
X3000000Y312500D01*
G75*
G02*
X3062500Y375000I62500J0D01*
G01*
X3812500Y375000D01*
G75*
G02*
X3875000Y312500I0J-62500D01*
G01*
X3875000Y187500D01*
G75*
G02*
X3812500Y125000I-62500J0D01*
G01*
G37*
G04 #@! TD.AperFunction*
G04 #@! TA.AperFunction,SMDPad,CuDef*
G36*
G01*
X3812500Y-375000D02*
X3062500Y-375000D01*
G75*
G02*
X3000000Y-312500I0J62500D01*
G01*
X3000000Y-187500D01*
G75*
G02*
X3062500Y-125000I62500J0D01*
G01*
X3812500Y-125000D01*
G75*
G02*
X3875000Y-187500I0J-62500D01*
G01*
X3875000Y-312500D01*
G75*
G02*
X3812500Y-375000I-62500J0D01*
G01*
G37*
G04 #@! TD.AperFunction*
G04 #@! TA.AperFunction,SMDPad,CuDef*
G36*
G01*
X3812500Y-875000D02*
X3062500Y-875000D01*
G75*
G02*
X3000000Y-812500I0J62500D01*
G01*
X3000000Y-687500D01*
G75*
G02*
X3062500Y-625000I62500J0D01*
G01*
X3812500Y-625000D01*
G75*
G02*
X3875000Y-687500I0J-62500D01*
G01*
X3875000Y-812500D01*
G75*
G02*
X3812500Y-875000I-62500J0D01*
G01*
G37*
G04 #@! TD.AperFunction*
G04 #@! TA.AperFunction,SMDPad,CuDef*
G36*
G01*
X2812500Y-1875000D02*
X2687500Y-1875000D01*
G75*
G02*
X2625000Y-1812500I0J62500D01*
G01*
X2625000Y-1062500D01*
G75*
G02*
X2687500Y-1000000I62500J0D01*
G01*
X2812500Y-1000000D01*
G75*
G02*
X2875000Y-1062500I0J-62500D01*
G01*
X2875000Y-1812500D01*
G75*
G02*
X2812500Y-1875000I-62500J0D01*
G01*
G37*
G04 #@! TD.AperFunction*
G04 #@! TA.AperFunction,SMDPad,CuDef*
G36*
G01*
X2312500Y-1875000D02*
X2187500Y-1875000D01*
G75*
G02*
X2125000Y-1812500I0J62500D01*
G01*
X2125000Y-1062500D01*
G75*
G02*
X2187500Y-1000000I62500J0D01*
G01*
X2312500Y-1000000D01*
G75*
G02*
X2375000Y-1062500I0J-62500D01*
G01*
X2375000Y-1812500D01*
G75*
G02*
X2312500Y-1875000I-62500J0D01*
G01*
G37*
G04 #@! TD.AperFunction*
G04 #@! TA.AperFunction,SMDPad,CuDef*
G36*
G01*
X1812500Y-1875000D02*
X1687500Y-1875000D01*
G75*
G02*
X1625000Y-1812500I0J62500D01*
G01*
X1625000Y-1062500D01*
G75*
G02*
X1687500Y-1000000I62500J0D01*
G01*
X1812500Y-1000000D01*
G75*
G02*
X1875000Y-1062500I0J-62500D01*
G01*
X1875000Y-1812500D01*
G75*
G02*
X1812500Y-1875000I-62500J0D01*
G01*
G37*
G04 #@! TD.AperFunction*
G04 #@! TA.AperFunction,SMDPad,CuDef*
G36*
G01*
X1312500Y-1875000D02*
X1187500Y-1875000D01*
G75*
G02*
X1125000Y-1812500I0J62500D01*
G01*
X1125000Y-1062500D01*
G75*
G02*
X1187500Y-1000000I62500J0D01*
G01*
X1312500Y-1000000D01*
G75*
G02*
X1375000Y-1062500I0J-62500D01*
G01*
X1375000Y-1812500D01*
G75*
G02*
X1312500Y-1875000I-62500J0D01*
G01*
G37*
G04 #@! TD.AperFunction*
G04 #@! TA.AperFunction,SMDPad,CuDef*
G36*
G01*
X812500Y-1875000D02*
X687500Y-1875000D01*
G75*
G02*
X625000Y-1812500I0J62500D01*
G01*
X625000Y-1062500D01*
G75*
G02*
X687500Y-1000000I62500J0D01*
G01*
X812500Y-1000000D01*
G75*
G02*
X875000Y-1062500I0J-62500D01*
G01*
X875000Y-1812500D01*
G75*
G02*
X812500Y-1875000I-62500J0D01*
G01*
G37*
G04 #@! TD.AperFunction*
G04 #@! TA.AperFunction,SMDPad,CuDef*
G36*
G01*
X312500Y-1875000D02*
X187500Y-1875000D01*
G75*
G02*
X125000Y-1812500I0J62500D01*
G01*
X125000Y-1062500D01*
G75*
G02*
X187500Y-1000000I62500J0D01*
G01*
X312500Y-1000000D01*
G75*
G02*
X375000Y-1062500I0J-62500D01*
G01*
X375000Y-1812500D01*
G75*
G02*
X312500Y-1875000I-62500J0D01*
G01*
G37*
G04 #@! TD.AperFunction*
G04 #@! TA.AperFunction,SMDPad,CuDef*
G36*
G01*
X-187500Y-1875000D02*
X-312500Y-1875000D01*
G75*
G02*
X-375000Y-1812500I0J62500D01*
G01*
X-375000Y-1062500D01*
G75*
G02*
X-312500Y-1000000I62500J0D01*
G01*
X-187500Y-1000000D01*
G75*
G02*
X-125000Y-1062500I0J-62500D01*
G01*
X-125000Y-1812500D01*
G75*
G02*
X-187500Y-1875000I-62500J0D01*
G01*
G37*
G04 #@! TD.AperFunction*
G04 #@! TA.AperFunction,SMDPad,CuDef*
G36*
G01*
X-687500Y-1875000D02*
X-812500Y-1875000D01*
G75*
G02*
X-875000Y-1812500I0J62500D01*
G01*
X-875000Y-1062500D01*
G75*
G02*
X-812500Y-1000000I62500J0D01*
G01*
X-687500Y-1000000D01*
G75*
G02*
X-625000Y-1062500I0J-62500D01*
G01*
X-625000Y-1812500D01*
G75*
G02*
X-687500Y-1875000I-62500J0D01*
G01*
G37*
G04 #@! TD.AperFunction*
G04 #@! TA.AperFunction,SMDPad,CuDef*
G36*
G01*
X-1187500Y-1875000D02*
X-1312500Y-1875000D01*
G75*
G02*
X-1375000Y-1812500I0J62500D01*
G01*
X-1375000Y-1062500D01*
G75*
G02*
X-1312500Y-1000000I62500J0D01*
G01*
X-1187500Y-1000000D01*
G75*
G02*
X-1125000Y-1062500I0J-62500D01*
G01*
X-1125000Y-1812500D01*
G75*
G02*
X-1187500Y-1875000I-62500J0D01*
G01*
G37*
G04 #@! TD.AperFunction*
G04 #@! TA.AperFunction,SMDPad,CuDef*
G36*
G01*
X-1687500Y-1875000D02*
X-1812500Y-1875000D01*
G75*
G02*
X-1875000Y-1812500I0J62500D01*
G01*
X-1875000Y-1062500D01*
G75*
G02*
X-1812500Y-1000000I62500J0D01*
G01*
X-1687500Y-1000000D01*
G75*
G02*
X-1625000Y-1062500I0J-62500D01*
G01*
X-1625000Y-1812500D01*
G75*
G02*
X-1687500Y-1875000I-62500J0D01*
G01*
G37*
G04 #@! TD.AperFunction*
G04 #@! TA.AperFunction,SMDPad,CuDef*
G36*
G01*
X-2187500Y-1875000D02*
X-2312500Y-1875000D01*
G75*
G02*
X-2375000Y-1812500I0J62500D01*
G01*
X-2375000Y-1062500D01*
G75*
G02*
X-2312500Y-1000000I62500J0D01*
G01*
X-2187500Y-1000000D01*
G75*
G02*
X-2125000Y-1062500I0J-62500D01*
G01*
X-2125000Y-1812500D01*
G75*
G02*
X-2187500Y-1875000I-62500J0D01*
G01*
G37*
G04 #@! TD.AperFunction*
G04 #@! TA.AperFunction,SMDPad,CuDef*
G36*
G01*
X-2687500Y-1875000D02*
X-2812500Y-1875000D01*
G75*
G02*
X-2875000Y-1812500I0J62500D01*
G01*
X-2875000Y-1062500D01*
G75*
G02*
X-2812500Y-1000000I62500J0D01*
G01*
X-2687500Y-1000000D01*
G75*
G02*
X-2625000Y-1062500I0J-62500D01*
G01*
X-2625000Y-1812500D01*
G75*
G02*
X-2687500Y-1875000I-62500J0D01*
G01*
G37*
G04 #@! TD.AperFunction*
G04 #@! TA.AperFunction,SMDPad,CuDef*
G36*
G01*
X-1755000Y-11200000D02*
X-2055000Y-11200000D01*
G75*
G02*
X-2205000Y-11050000I0J150000D01*
G01*
X-2205000Y-9400000D01*
G75*
G02*
X-2055000Y-9250000I150000J0D01*
G01*
X-1755000Y-9250000D01*
G75*
G02*
X-1605000Y-9400000I0J-150000D01*
G01*
X-1605000Y-11050000D01*
G75*
G02*
X-1755000Y-11200000I-150000J0D01*
G01*
G37*
G04 #@! TD.AperFunction*
G04 #@! TA.AperFunction,SMDPad,CuDef*
G36*
G01*
X-485000Y-11200000D02*
X-785000Y-11200000D01*
G75*
G02*
X-935000Y-11050000I0J150000D01*
G01*
X-935000Y-9400000D01*
G75*
G02*
X-785000Y-9250000I150000J0D01*
G01*
X-485000Y-9250000D01*
G75*
G02*
X-335000Y-9400000I0J-150000D01*
G01*
X-335000Y-11050000D01*
G75*
G02*
X-485000Y-11200000I-150000J0D01*
G01*
G37*
G04 #@! TD.AperFunction*
G04 #@! TA.AperFunction,SMDPad,CuDef*
G36*
G01*
X785000Y-11200000D02*
X485000Y-11200000D01*
G75*
G02*
X335000Y-11050000I0J150000D01*
G01*
X335000Y-9400000D01*
G75*
G02*
X485000Y-9250000I150000J0D01*
G01*
X785000Y-9250000D01*
G75*
G02*
X935000Y-9400000I0J-150000D01*
G01*
X935000Y-11050000D01*
G75*
G02*
X785000Y-11200000I-150000J0D01*
G01*
G37*
G04 #@! TD.AperFunction*
G04 #@! TA.AperFunction,SMDPad,CuDef*
G36*
G01*
X2055000Y-11200000D02*
X1755000Y-11200000D01*
G75*
G02*
X1605000Y-11050000I0J150000D01*
G01*
X1605000Y-9400000D01*
G75*
G02*
X1755000Y-9250000I150000J0D01*
G01*
X2055000Y-9250000D01*
G75*
G02*
X2205000Y-9400000I0J-150000D01*
G01*
X2205000Y-11050000D01*
G75*
G02*
X2055000Y-11200000I-150000J0D01*
G01*
G37*
G04 #@! TD.AperFunction*
G04 #@! TA.AperFunction,SMDPad,CuDef*
G36*
G01*
X2055000Y-16150000D02*
X1755000Y-16150000D01*
G75*
G02*
X1605000Y-16000000I0J150000D01*
G01*
X1605000Y-14350000D01*
G75*
G02*
X1755000Y-14200000I150000J0D01*
G01*
X2055000Y-14200000D01*
G75*
G02*
X2205000Y-14350000I0J-150000D01*
G01*
X2205000Y-16000000D01*
G75*
G02*
X2055000Y-16150000I-150000J0D01*
G01*
G37*
G04 #@! TD.AperFunction*
G04 #@! TA.AperFunction,SMDPad,CuDef*
G36*
G01*
X785000Y-16150000D02*
X485000Y-16150000D01*
G75*
G02*
X335000Y-16000000I0J150000D01*
G01*
X335000Y-14350000D01*
G75*
G02*
X485000Y-14200000I150000J0D01*
G01*
X785000Y-14200000D01*
G75*
G02*
X935000Y-14350000I0J-150000D01*
G01*
X935000Y-16000000D01*
G75*
G02*
X785000Y-16150000I-150000J0D01*
G01*
G37*
G04 #@! TD.AperFunction*
G04 #@! TA.AperFunction,SMDPad,CuDef*
G36*
G01*
X-485000Y-16150000D02*
X-785000Y-16150000D01*
G75*
G02*
X-935000Y-16000000I0J150000D01*
G01*
X-935000Y-14350000D01*
G75*
G02*
X-785000Y-14200000I150000J0D01*
G01*
X-485000Y-14200000D01*
G75*
G02*
X-335000Y-14350000I0J-150000D01*
G01*
X-335000Y-16000000D01*
G75*
G02*
X-485000Y-16150000I-150000J0D01*
G01*
G37*
G04 #@! TD.AperFunction*
G04 #@! TA.AperFunction,SMDPad,CuDef*
G36*
G01*
X-1755000Y-16150000D02*
X-2055000Y-16150000D01*
G75*
G02*
X-2205000Y-16000000I0J150000D01*
G01*
X-2205000Y-14350000D01*
G75*
G02*
X-2055000Y-14200000I150000J0D01*
G01*
X-1755000Y-14200000D01*
G75*
G02*
X-1605000Y-14350000I0J-150000D01*
G01*
X-1605000Y-16000000D01*
G75*
G02*
X-1755000Y-16150000I-150000J0D01*
G01*
G37*
G04 #@! TD.AperFunction*
D19*
X9300000Y-5000000D03*
X5900000Y-5000000D03*
X-5900000Y-5000000D03*
X-9300000Y-5000000D03*
G04 #@! TA.AperFunction,SMDPad,CuDef*
G36*
G01*
X-6185000Y15780000D02*
X-5815000Y15780000D01*
G75*
G02*
X-5680000Y15645000I0J-135000D01*
G01*
X-5680000Y15375000D01*
G75*
G02*
X-5815000Y15240000I-135000J0D01*
G01*
X-6185000Y15240000D01*
G75*
G02*
X-6320000Y15375000I0J135000D01*
G01*
X-6320000Y15645000D01*
G75*
G02*
X-6185000Y15780000I135000J0D01*
G01*
G37*
G04 #@! TD.AperFunction*
G04 #@! TA.AperFunction,SMDPad,CuDef*
G36*
G01*
X-6185000Y14760000D02*
X-5815000Y14760000D01*
G75*
G02*
X-5680000Y14625000I0J-135000D01*
G01*
X-5680000Y14355000D01*
G75*
G02*
X-5815000Y14220000I-135000J0D01*
G01*
X-6185000Y14220000D01*
G75*
G02*
X-6320000Y14355000I0J135000D01*
G01*
X-6320000Y14625000D01*
G75*
G02*
X-6185000Y14760000I135000J0D01*
G01*
G37*
G04 #@! TD.AperFunction*
G04 #@! TA.AperFunction,SMDPad,CuDef*
G36*
G01*
X7038891Y-18300520D02*
X7300520Y-18038891D01*
G75*
G02*
X7491438Y-18038891I95459J-95459D01*
G01*
X7682357Y-18229810D01*
G75*
G02*
X7682357Y-18420728I-95459J-95459D01*
G01*
X7420728Y-18682357D01*
G75*
G02*
X7229810Y-18682357I-95459J95459D01*
G01*
X7038891Y-18491438D01*
G75*
G02*
X7038891Y-18300520I95459J95459D01*
G01*
G37*
G04 #@! TD.AperFunction*
G04 #@! TA.AperFunction,SMDPad,CuDef*
G36*
G01*
X6317643Y-17579272D02*
X6579272Y-17317643D01*
G75*
G02*
X6770190Y-17317643I95459J-95459D01*
G01*
X6961109Y-17508562D01*
G75*
G02*
X6961109Y-17699480I-95459J-95459D01*
G01*
X6699480Y-17961109D01*
G75*
G02*
X6508562Y-17961109I-95459J95459D01*
G01*
X6317643Y-17770190D01*
G75*
G02*
X6317643Y-17579272I95459J95459D01*
G01*
G37*
G04 #@! TD.AperFunction*
G04 #@! TA.AperFunction,SMDPad,CuDef*
G36*
G01*
X-7300520Y-18038891D02*
X-7038891Y-18300520D01*
G75*
G02*
X-7038891Y-18491438I-95459J-95459D01*
G01*
X-7229810Y-18682357D01*
G75*
G02*
X-7420728Y-18682357I-95459J95459D01*
G01*
X-7682357Y-18420728D01*
G75*
G02*
X-7682357Y-18229810I95459J95459D01*
G01*
X-7491438Y-18038891D01*
G75*
G02*
X-7300520Y-18038891I95459J-95459D01*
G01*
G37*
G04 #@! TD.AperFunction*
G04 #@! TA.AperFunction,SMDPad,CuDef*
G36*
G01*
X-6579272Y-17317643D02*
X-6317643Y-17579272D01*
G75*
G02*
X-6317643Y-17770190I-95459J-95459D01*
G01*
X-6508562Y-17961109D01*
G75*
G02*
X-6699480Y-17961109I-95459J95459D01*
G01*
X-6961109Y-17699480D01*
G75*
G02*
X-6961109Y-17508562I95459J95459D01*
G01*
X-6770190Y-17317643D01*
G75*
G02*
X-6579272Y-17317643I95459J-95459D01*
G01*
G37*
G04 #@! TD.AperFunction*
G04 #@! TA.AperFunction,SMDPad,CuDef*
G36*
G01*
X5815000Y14760000D02*
X6185000Y14760000D01*
G75*
G02*
X6320000Y14625000I0J-135000D01*
G01*
X6320000Y14355000D01*
G75*
G02*
X6185000Y14220000I-135000J0D01*
G01*
X5815000Y14220000D01*
G75*
G02*
X5680000Y14355000I0J135000D01*
G01*
X5680000Y14625000D01*
G75*
G02*
X5815000Y14760000I135000J0D01*
G01*
G37*
G04 #@! TD.AperFunction*
G04 #@! TA.AperFunction,SMDPad,CuDef*
G36*
G01*
X5815000Y15780000D02*
X6185000Y15780000D01*
G75*
G02*
X6320000Y15645000I0J-135000D01*
G01*
X6320000Y15375000D01*
G75*
G02*
X6185000Y15240000I-135000J0D01*
G01*
X5815000Y15240000D01*
G75*
G02*
X5680000Y15375000I0J135000D01*
G01*
X5680000Y15645000D01*
G75*
G02*
X5815000Y15780000I135000J0D01*
G01*
G37*
G04 #@! TD.AperFunction*
G04 #@! TA.AperFunction,SMDPad,CuDef*
G36*
G01*
X3315000Y-10640000D02*
X3685000Y-10640000D01*
G75*
G02*
X3820000Y-10775000I0J-135000D01*
G01*
X3820000Y-11045000D01*
G75*
G02*
X3685000Y-11180000I-135000J0D01*
G01*
X3315000Y-11180000D01*
G75*
G02*
X3180000Y-11045000I0J135000D01*
G01*
X3180000Y-10775000D01*
G75*
G02*
X3315000Y-10640000I135000J0D01*
G01*
G37*
G04 #@! TD.AperFunction*
G04 #@! TA.AperFunction,SMDPad,CuDef*
G36*
G01*
X3315000Y-9620000D02*
X3685000Y-9620000D01*
G75*
G02*
X3820000Y-9755000I0J-135000D01*
G01*
X3820000Y-10025000D01*
G75*
G02*
X3685000Y-10160000I-135000J0D01*
G01*
X3315000Y-10160000D01*
G75*
G02*
X3180000Y-10025000I0J135000D01*
G01*
X3180000Y-9755000D01*
G75*
G02*
X3315000Y-9620000I135000J0D01*
G01*
G37*
G04 #@! TD.AperFunction*
G04 #@! TA.AperFunction,SMDPad,CuDef*
G36*
G01*
X4785000Y-10160000D02*
X4415000Y-10160000D01*
G75*
G02*
X4280000Y-10025000I0J135000D01*
G01*
X4280000Y-9755000D01*
G75*
G02*
X4415000Y-9620000I135000J0D01*
G01*
X4785000Y-9620000D01*
G75*
G02*
X4920000Y-9755000I0J-135000D01*
G01*
X4920000Y-10025000D01*
G75*
G02*
X4785000Y-10160000I-135000J0D01*
G01*
G37*
G04 #@! TD.AperFunction*
G04 #@! TA.AperFunction,SMDPad,CuDef*
G36*
G01*
X4785000Y-11180000D02*
X4415000Y-11180000D01*
G75*
G02*
X4280000Y-11045000I0J135000D01*
G01*
X4280000Y-10775000D01*
G75*
G02*
X4415000Y-10640000I135000J0D01*
G01*
X4785000Y-10640000D01*
G75*
G02*
X4920000Y-10775000I0J-135000D01*
G01*
X4920000Y-11045000D01*
G75*
G02*
X4785000Y-11180000I-135000J0D01*
G01*
G37*
G04 #@! TD.AperFunction*
G04 #@! TA.AperFunction,SMDPad,CuDef*
G36*
G01*
X6340000Y-2985000D02*
X6340000Y-2615000D01*
G75*
G02*
X6475000Y-2480000I135000J0D01*
G01*
X6745000Y-2480000D01*
G75*
G02*
X6880000Y-2615000I0J-135000D01*
G01*
X6880000Y-2985000D01*
G75*
G02*
X6745000Y-3120000I-135000J0D01*
G01*
X6475000Y-3120000D01*
G75*
G02*
X6340000Y-2985000I0J135000D01*
G01*
G37*
G04 #@! TD.AperFunction*
G04 #@! TA.AperFunction,SMDPad,CuDef*
G36*
G01*
X5320000Y-2985000D02*
X5320000Y-2615000D01*
G75*
G02*
X5455000Y-2480000I135000J0D01*
G01*
X5725000Y-2480000D01*
G75*
G02*
X5860000Y-2615000I0J-135000D01*
G01*
X5860000Y-2985000D01*
G75*
G02*
X5725000Y-3120000I-135000J0D01*
G01*
X5455000Y-3120000D01*
G75*
G02*
X5320000Y-2985000I0J135000D01*
G01*
G37*
G04 #@! TD.AperFunction*
G04 #@! TA.AperFunction,SMDPad,CuDef*
G36*
G01*
X-3240000Y8185000D02*
X-3240000Y7815000D01*
G75*
G02*
X-3375000Y7680000I-135000J0D01*
G01*
X-3645000Y7680000D01*
G75*
G02*
X-3780000Y7815000I0J135000D01*
G01*
X-3780000Y8185000D01*
G75*
G02*
X-3645000Y8320000I135000J0D01*
G01*
X-3375000Y8320000D01*
G75*
G02*
X-3240000Y8185000I0J-135000D01*
G01*
G37*
G04 #@! TD.AperFunction*
G04 #@! TA.AperFunction,SMDPad,CuDef*
G36*
G01*
X-2220000Y8185000D02*
X-2220000Y7815000D01*
G75*
G02*
X-2355000Y7680000I-135000J0D01*
G01*
X-2625000Y7680000D01*
G75*
G02*
X-2760000Y7815000I0J135000D01*
G01*
X-2760000Y8185000D01*
G75*
G02*
X-2625000Y8320000I135000J0D01*
G01*
X-2355000Y8320000D01*
G75*
G02*
X-2220000Y8185000I0J-135000D01*
G01*
G37*
G04 #@! TD.AperFunction*
G04 #@! TA.AperFunction,SMDPad,CuDef*
G36*
G01*
X-7340000Y-2515000D02*
X-7340000Y-2885000D01*
G75*
G02*
X-7475000Y-3020000I-135000J0D01*
G01*
X-7745000Y-3020000D01*
G75*
G02*
X-7880000Y-2885000I0J135000D01*
G01*
X-7880000Y-2515000D01*
G75*
G02*
X-7745000Y-2380000I135000J0D01*
G01*
X-7475000Y-2380000D01*
G75*
G02*
X-7340000Y-2515000I0J-135000D01*
G01*
G37*
G04 #@! TD.AperFunction*
G04 #@! TA.AperFunction,SMDPad,CuDef*
G36*
G01*
X-6320000Y-2515000D02*
X-6320000Y-2885000D01*
G75*
G02*
X-6455000Y-3020000I-135000J0D01*
G01*
X-6725000Y-3020000D01*
G75*
G02*
X-6860000Y-2885000I0J135000D01*
G01*
X-6860000Y-2515000D01*
G75*
G02*
X-6725000Y-2380000I135000J0D01*
G01*
X-6455000Y-2380000D01*
G75*
G02*
X-6320000Y-2515000I0J-135000D01*
G01*
G37*
G04 #@! TD.AperFunction*
G04 #@! TA.AperFunction,SMDPad,CuDef*
G36*
G01*
X4615000Y860000D02*
X4985000Y860000D01*
G75*
G02*
X5120000Y725000I0J-135000D01*
G01*
X5120000Y455000D01*
G75*
G02*
X4985000Y320000I-135000J0D01*
G01*
X4615000Y320000D01*
G75*
G02*
X4480000Y455000I0J135000D01*
G01*
X4480000Y725000D01*
G75*
G02*
X4615000Y860000I135000J0D01*
G01*
G37*
G04 #@! TD.AperFunction*
G04 #@! TA.AperFunction,SMDPad,CuDef*
G36*
G01*
X4615000Y1880000D02*
X4985000Y1880000D01*
G75*
G02*
X5120000Y1745000I0J-135000D01*
G01*
X5120000Y1475000D01*
G75*
G02*
X4985000Y1340000I-135000J0D01*
G01*
X4615000Y1340000D01*
G75*
G02*
X4480000Y1475000I0J135000D01*
G01*
X4480000Y1745000D01*
G75*
G02*
X4615000Y1880000I135000J0D01*
G01*
G37*
G04 #@! TD.AperFunction*
G04 #@! TA.AperFunction,SMDPad,CuDef*
G36*
G01*
X2750000Y9872500D02*
X2750000Y9527500D01*
G75*
G02*
X2602500Y9380000I-147500J0D01*
G01*
X2307500Y9380000D01*
G75*
G02*
X2160000Y9527500I0J147500D01*
G01*
X2160000Y9872500D01*
G75*
G02*
X2307500Y10020000I147500J0D01*
G01*
X2602500Y10020000D01*
G75*
G02*
X2750000Y9872500I0J-147500D01*
G01*
G37*
G04 #@! TD.AperFunction*
G04 #@! TA.AperFunction,SMDPad,CuDef*
G36*
G01*
X3720000Y9872500D02*
X3720000Y9527500D01*
G75*
G02*
X3572500Y9380000I-147500J0D01*
G01*
X3277500Y9380000D01*
G75*
G02*
X3130000Y9527500I0J147500D01*
G01*
X3130000Y9872500D01*
G75*
G02*
X3277500Y10020000I147500J0D01*
G01*
X3572500Y10020000D01*
G75*
G02*
X3720000Y9872500I0J-147500D01*
G01*
G37*
G04 #@! TD.AperFunction*
G04 #@! TA.AperFunction,SMDPad,CuDef*
G36*
G01*
X7772500Y-930000D02*
X7427500Y-930000D01*
G75*
G02*
X7280000Y-782500I0J147500D01*
G01*
X7280000Y-487500D01*
G75*
G02*
X7427500Y-340000I147500J0D01*
G01*
X7772500Y-340000D01*
G75*
G02*
X7920000Y-487500I0J-147500D01*
G01*
X7920000Y-782500D01*
G75*
G02*
X7772500Y-930000I-147500J0D01*
G01*
G37*
G04 #@! TD.AperFunction*
G04 #@! TA.AperFunction,SMDPad,CuDef*
G36*
G01*
X7772500Y-1900000D02*
X7427500Y-1900000D01*
G75*
G02*
X7280000Y-1752500I0J147500D01*
G01*
X7280000Y-1457500D01*
G75*
G02*
X7427500Y-1310000I147500J0D01*
G01*
X7772500Y-1310000D01*
G75*
G02*
X7920000Y-1457500I0J-147500D01*
G01*
X7920000Y-1752500D01*
G75*
G02*
X7772500Y-1900000I-147500J0D01*
G01*
G37*
G04 #@! TD.AperFunction*
G04 #@! TA.AperFunction,SMDPad,CuDef*
G36*
G01*
X-5956250Y7250000D02*
X-5443750Y7250000D01*
G75*
G02*
X-5225000Y7031250I0J-218750D01*
G01*
X-5225000Y6593750D01*
G75*
G02*
X-5443750Y6375000I-218750J0D01*
G01*
X-5956250Y6375000D01*
G75*
G02*
X-6175000Y6593750I0J218750D01*
G01*
X-6175000Y7031250D01*
G75*
G02*
X-5956250Y7250000I218750J0D01*
G01*
G37*
G04 #@! TD.AperFunction*
G04 #@! TA.AperFunction,SMDPad,CuDef*
G36*
G01*
X-5956250Y8825000D02*
X-5443750Y8825000D01*
G75*
G02*
X-5225000Y8606250I0J-218750D01*
G01*
X-5225000Y8168750D01*
G75*
G02*
X-5443750Y7950000I-218750J0D01*
G01*
X-5956250Y7950000D01*
G75*
G02*
X-6175000Y8168750I0J218750D01*
G01*
X-6175000Y8606250D01*
G75*
G02*
X-5956250Y8825000I218750J0D01*
G01*
G37*
G04 #@! TD.AperFunction*
G04 #@! TA.AperFunction,SMDPad,CuDef*
G36*
G01*
X5900000Y-7030000D02*
X5900000Y-7370000D01*
G75*
G02*
X5760000Y-7510000I-140000J0D01*
G01*
X5480000Y-7510000D01*
G75*
G02*
X5340000Y-7370000I0J140000D01*
G01*
X5340000Y-7030000D01*
G75*
G02*
X5480000Y-6890000I140000J0D01*
G01*
X5760000Y-6890000D01*
G75*
G02*
X5900000Y-7030000I0J-140000D01*
G01*
G37*
G04 #@! TD.AperFunction*
G04 #@! TA.AperFunction,SMDPad,CuDef*
G36*
G01*
X6860000Y-7030000D02*
X6860000Y-7370000D01*
G75*
G02*
X6720000Y-7510000I-140000J0D01*
G01*
X6440000Y-7510000D01*
G75*
G02*
X6300000Y-7370000I0J140000D01*
G01*
X6300000Y-7030000D01*
G75*
G02*
X6440000Y-6890000I140000J0D01*
G01*
X6720000Y-6890000D01*
G75*
G02*
X6860000Y-7030000I0J-140000D01*
G01*
G37*
G04 #@! TD.AperFunction*
G04 #@! TA.AperFunction,SMDPad,CuDef*
G36*
G01*
X-4440000Y-1630000D02*
X-4440000Y-1970000D01*
G75*
G02*
X-4580000Y-2110000I-140000J0D01*
G01*
X-4860000Y-2110000D01*
G75*
G02*
X-5000000Y-1970000I0J140000D01*
G01*
X-5000000Y-1630000D01*
G75*
G02*
X-4860000Y-1490000I140000J0D01*
G01*
X-4580000Y-1490000D01*
G75*
G02*
X-4440000Y-1630000I0J-140000D01*
G01*
G37*
G04 #@! TD.AperFunction*
G04 #@! TA.AperFunction,SMDPad,CuDef*
G36*
G01*
X-5400000Y-1630000D02*
X-5400000Y-1970000D01*
G75*
G02*
X-5540000Y-2110000I-140000J0D01*
G01*
X-5820000Y-2110000D01*
G75*
G02*
X-5960000Y-1970000I0J140000D01*
G01*
X-5960000Y-1630000D01*
G75*
G02*
X-5820000Y-1490000I140000J0D01*
G01*
X-5540000Y-1490000D01*
G75*
G02*
X-5400000Y-1630000I0J-140000D01*
G01*
G37*
G04 #@! TD.AperFunction*
G04 #@! TA.AperFunction,SMDPad,CuDef*
G36*
G01*
X-3170000Y-6200000D02*
X-2830000Y-6200000D01*
G75*
G02*
X-2690000Y-6340000I0J-140000D01*
G01*
X-2690000Y-6620000D01*
G75*
G02*
X-2830000Y-6760000I-140000J0D01*
G01*
X-3170000Y-6760000D01*
G75*
G02*
X-3310000Y-6620000I0J140000D01*
G01*
X-3310000Y-6340000D01*
G75*
G02*
X-3170000Y-6200000I140000J0D01*
G01*
G37*
G04 #@! TD.AperFunction*
G04 #@! TA.AperFunction,SMDPad,CuDef*
G36*
G01*
X-3170000Y-5240000D02*
X-2830000Y-5240000D01*
G75*
G02*
X-2690000Y-5380000I0J-140000D01*
G01*
X-2690000Y-5660000D01*
G75*
G02*
X-2830000Y-5800000I-140000J0D01*
G01*
X-3170000Y-5800000D01*
G75*
G02*
X-3310000Y-5660000I0J140000D01*
G01*
X-3310000Y-5380000D01*
G75*
G02*
X-3170000Y-5240000I140000J0D01*
G01*
G37*
G04 #@! TD.AperFunction*
G04 #@! TA.AperFunction,SMDPad,CuDef*
G36*
G01*
X-4570000Y-6200000D02*
X-4230000Y-6200000D01*
G75*
G02*
X-4090000Y-6340000I0J-140000D01*
G01*
X-4090000Y-6620000D01*
G75*
G02*
X-4230000Y-6760000I-140000J0D01*
G01*
X-4570000Y-6760000D01*
G75*
G02*
X-4710000Y-6620000I0J140000D01*
G01*
X-4710000Y-6340000D01*
G75*
G02*
X-4570000Y-6200000I140000J0D01*
G01*
G37*
G04 #@! TD.AperFunction*
G04 #@! TA.AperFunction,SMDPad,CuDef*
G36*
G01*
X-4570000Y-5240000D02*
X-4230000Y-5240000D01*
G75*
G02*
X-4090000Y-5380000I0J-140000D01*
G01*
X-4090000Y-5660000D01*
G75*
G02*
X-4230000Y-5800000I-140000J0D01*
G01*
X-4570000Y-5800000D01*
G75*
G02*
X-4710000Y-5660000I0J140000D01*
G01*
X-4710000Y-5380000D01*
G75*
G02*
X-4570000Y-5240000I140000J0D01*
G01*
G37*
G04 #@! TD.AperFunction*
G04 #@! TA.AperFunction,SMDPad,CuDef*
G36*
G01*
X6330000Y-1300000D02*
X6670000Y-1300000D01*
G75*
G02*
X6810000Y-1440000I0J-140000D01*
G01*
X6810000Y-1720000D01*
G75*
G02*
X6670000Y-1860000I-140000J0D01*
G01*
X6330000Y-1860000D01*
G75*
G02*
X6190000Y-1720000I0J140000D01*
G01*
X6190000Y-1440000D01*
G75*
G02*
X6330000Y-1300000I140000J0D01*
G01*
G37*
G04 #@! TD.AperFunction*
G04 #@! TA.AperFunction,SMDPad,CuDef*
G36*
G01*
X6330000Y-340000D02*
X6670000Y-340000D01*
G75*
G02*
X6810000Y-480000I0J-140000D01*
G01*
X6810000Y-760000D01*
G75*
G02*
X6670000Y-900000I-140000J0D01*
G01*
X6330000Y-900000D01*
G75*
G02*
X6190000Y-760000I0J140000D01*
G01*
X6190000Y-480000D01*
G75*
G02*
X6330000Y-340000I140000J0D01*
G01*
G37*
G04 #@! TD.AperFunction*
G04 #@! TA.AperFunction,SMDPad,CuDef*
G36*
G01*
X5230000Y-1300000D02*
X5570000Y-1300000D01*
G75*
G02*
X5710000Y-1440000I0J-140000D01*
G01*
X5710000Y-1720000D01*
G75*
G02*
X5570000Y-1860000I-140000J0D01*
G01*
X5230000Y-1860000D01*
G75*
G02*
X5090000Y-1720000I0J140000D01*
G01*
X5090000Y-1440000D01*
G75*
G02*
X5230000Y-1300000I140000J0D01*
G01*
G37*
G04 #@! TD.AperFunction*
G04 #@! TA.AperFunction,SMDPad,CuDef*
G36*
G01*
X5230000Y-340000D02*
X5570000Y-340000D01*
G75*
G02*
X5710000Y-480000I0J-140000D01*
G01*
X5710000Y-760000D01*
G75*
G02*
X5570000Y-900000I-140000J0D01*
G01*
X5230000Y-900000D01*
G75*
G02*
X5090000Y-760000I0J140000D01*
G01*
X5090000Y-480000D01*
G75*
G02*
X5230000Y-340000I140000J0D01*
G01*
G37*
G04 #@! TD.AperFunction*
G04 #@! TA.AperFunction,SMDPad,CuDef*
G36*
G01*
X-9300000Y-2530000D02*
X-9300000Y-2870000D01*
G75*
G02*
X-9440000Y-3010000I-140000J0D01*
G01*
X-9720000Y-3010000D01*
G75*
G02*
X-9860000Y-2870000I0J140000D01*
G01*
X-9860000Y-2530000D01*
G75*
G02*
X-9720000Y-2390000I140000J0D01*
G01*
X-9440000Y-2390000D01*
G75*
G02*
X-9300000Y-2530000I0J-140000D01*
G01*
G37*
G04 #@! TD.AperFunction*
G04 #@! TA.AperFunction,SMDPad,CuDef*
G36*
G01*
X-8340000Y-2530000D02*
X-8340000Y-2870000D01*
G75*
G02*
X-8480000Y-3010000I-140000J0D01*
G01*
X-8760000Y-3010000D01*
G75*
G02*
X-8900000Y-2870000I0J140000D01*
G01*
X-8900000Y-2530000D01*
G75*
G02*
X-8760000Y-2390000I140000J0D01*
G01*
X-8480000Y-2390000D01*
G75*
G02*
X-8340000Y-2530000I0J-140000D01*
G01*
G37*
G04 #@! TD.AperFunction*
G04 #@! TA.AperFunction,SMDPad,CuDef*
G36*
G01*
X2730000Y-5050000D02*
X3070000Y-5050000D01*
G75*
G02*
X3210000Y-5190000I0J-140000D01*
G01*
X3210000Y-5470000D01*
G75*
G02*
X3070000Y-5610000I-140000J0D01*
G01*
X2730000Y-5610000D01*
G75*
G02*
X2590000Y-5470000I0J140000D01*
G01*
X2590000Y-5190000D01*
G75*
G02*
X2730000Y-5050000I140000J0D01*
G01*
G37*
G04 #@! TD.AperFunction*
G04 #@! TA.AperFunction,SMDPad,CuDef*
G36*
G01*
X2730000Y-4090000D02*
X3070000Y-4090000D01*
G75*
G02*
X3210000Y-4230000I0J-140000D01*
G01*
X3210000Y-4510000D01*
G75*
G02*
X3070000Y-4650000I-140000J0D01*
G01*
X2730000Y-4650000D01*
G75*
G02*
X2590000Y-4510000I0J140000D01*
G01*
X2590000Y-4230000D01*
G75*
G02*
X2730000Y-4090000I140000J0D01*
G01*
G37*
G04 #@! TD.AperFunction*
G04 #@! TA.AperFunction,SMDPad,CuDef*
G36*
G01*
X-1530000Y-5150000D02*
X-1870000Y-5150000D01*
G75*
G02*
X-2010000Y-5010000I0J140000D01*
G01*
X-2010000Y-4730000D01*
G75*
G02*
X-1870000Y-4590000I140000J0D01*
G01*
X-1530000Y-4590000D01*
G75*
G02*
X-1390000Y-4730000I0J-140000D01*
G01*
X-1390000Y-5010000D01*
G75*
G02*
X-1530000Y-5150000I-140000J0D01*
G01*
G37*
G04 #@! TD.AperFunction*
G04 #@! TA.AperFunction,SMDPad,CuDef*
G36*
G01*
X-1530000Y-6110000D02*
X-1870000Y-6110000D01*
G75*
G02*
X-2010000Y-5970000I0J140000D01*
G01*
X-2010000Y-5690000D01*
G75*
G02*
X-1870000Y-5550000I140000J0D01*
G01*
X-1530000Y-5550000D01*
G75*
G02*
X-1390000Y-5690000I0J-140000D01*
G01*
X-1390000Y-5970000D01*
G75*
G02*
X-1530000Y-6110000I-140000J0D01*
G01*
G37*
G04 #@! TD.AperFunction*
G04 #@! TA.AperFunction,SMDPad,CuDef*
G36*
G01*
X-4580000Y-1010000D02*
X-4920000Y-1010000D01*
G75*
G02*
X-5060000Y-870000I0J140000D01*
G01*
X-5060000Y-590000D01*
G75*
G02*
X-4920000Y-450000I140000J0D01*
G01*
X-4580000Y-450000D01*
G75*
G02*
X-4440000Y-590000I0J-140000D01*
G01*
X-4440000Y-870000D01*
G75*
G02*
X-4580000Y-1010000I-140000J0D01*
G01*
G37*
G04 #@! TD.AperFunction*
G04 #@! TA.AperFunction,SMDPad,CuDef*
G36*
G01*
X-4580000Y-50000D02*
X-4920000Y-50000D01*
G75*
G02*
X-5060000Y90000I0J140000D01*
G01*
X-5060000Y370000D01*
G75*
G02*
X-4920000Y510000I140000J0D01*
G01*
X-4580000Y510000D01*
G75*
G02*
X-4440000Y370000I0J-140000D01*
G01*
X-4440000Y90000D01*
G75*
G02*
X-4580000Y-50000I-140000J0D01*
G01*
G37*
G04 #@! TD.AperFunction*
G04 #@! TA.AperFunction,SMDPad,CuDef*
G36*
G01*
X-2800000Y6630000D02*
X-2800000Y6970000D01*
G75*
G02*
X-2660000Y7110000I140000J0D01*
G01*
X-2380000Y7110000D01*
G75*
G02*
X-2240000Y6970000I0J-140000D01*
G01*
X-2240000Y6630000D01*
G75*
G02*
X-2380000Y6490000I-140000J0D01*
G01*
X-2660000Y6490000D01*
G75*
G02*
X-2800000Y6630000I0J140000D01*
G01*
G37*
G04 #@! TD.AperFunction*
G04 #@! TA.AperFunction,SMDPad,CuDef*
G36*
G01*
X-3760000Y6630000D02*
X-3760000Y6970000D01*
G75*
G02*
X-3620000Y7110000I140000J0D01*
G01*
X-3340000Y7110000D01*
G75*
G02*
X-3200000Y6970000I0J-140000D01*
G01*
X-3200000Y6630000D01*
G75*
G02*
X-3340000Y6490000I-140000J0D01*
G01*
X-3620000Y6490000D01*
G75*
G02*
X-3760000Y6630000I0J140000D01*
G01*
G37*
G04 #@! TD.AperFunction*
G04 #@! TA.AperFunction,SMDPad,CuDef*
G36*
G01*
X4630000Y4075000D02*
X4970000Y4075000D01*
G75*
G02*
X5110000Y3935000I0J-140000D01*
G01*
X5110000Y3655000D01*
G75*
G02*
X4970000Y3515000I-140000J0D01*
G01*
X4630000Y3515000D01*
G75*
G02*
X4490000Y3655000I0J140000D01*
G01*
X4490000Y3935000D01*
G75*
G02*
X4630000Y4075000I140000J0D01*
G01*
G37*
G04 #@! TD.AperFunction*
G04 #@! TA.AperFunction,SMDPad,CuDef*
G36*
G01*
X4630000Y5035000D02*
X4970000Y5035000D01*
G75*
G02*
X5110000Y4895000I0J-140000D01*
G01*
X5110000Y4615000D01*
G75*
G02*
X4970000Y4475000I-140000J0D01*
G01*
X4630000Y4475000D01*
G75*
G02*
X4490000Y4615000I0J140000D01*
G01*
X4490000Y4895000D01*
G75*
G02*
X4630000Y5035000I140000J0D01*
G01*
G37*
G04 #@! TD.AperFunction*
G04 #@! TA.AperFunction,SMDPad,CuDef*
G36*
G01*
X5950000Y3375000D02*
X6450000Y3375000D01*
G75*
G02*
X6675000Y3150000I0J-225000D01*
G01*
X6675000Y2700000D01*
G75*
G02*
X6450000Y2475000I-225000J0D01*
G01*
X5950000Y2475000D01*
G75*
G02*
X5725000Y2700000I0J225000D01*
G01*
X5725000Y3150000D01*
G75*
G02*
X5950000Y3375000I225000J0D01*
G01*
G37*
G04 #@! TD.AperFunction*
G04 #@! TA.AperFunction,SMDPad,CuDef*
G36*
G01*
X5950000Y4925000D02*
X6450000Y4925000D01*
G75*
G02*
X6675000Y4700000I0J-225000D01*
G01*
X6675000Y4250000D01*
G75*
G02*
X6450000Y4025000I-225000J0D01*
G01*
X5950000Y4025000D01*
G75*
G02*
X5725000Y4250000I0J225000D01*
G01*
X5725000Y4700000D01*
G75*
G02*
X5950000Y4925000I225000J0D01*
G01*
G37*
G04 #@! TD.AperFunction*
G04 #@! TA.AperFunction,SMDPad,CuDef*
G36*
G01*
X-3110000Y-11840000D02*
X-3450000Y-11840000D01*
G75*
G02*
X-3590000Y-11700000I0J140000D01*
G01*
X-3590000Y-11420000D01*
G75*
G02*
X-3450000Y-11280000I140000J0D01*
G01*
X-3110000Y-11280000D01*
G75*
G02*
X-2970000Y-11420000I0J-140000D01*
G01*
X-2970000Y-11700000D01*
G75*
G02*
X-3110000Y-11840000I-140000J0D01*
G01*
G37*
G04 #@! TD.AperFunction*
G04 #@! TA.AperFunction,SMDPad,CuDef*
G36*
G01*
X-3110000Y-12800000D02*
X-3450000Y-12800000D01*
G75*
G02*
X-3590000Y-12660000I0J140000D01*
G01*
X-3590000Y-12380000D01*
G75*
G02*
X-3450000Y-12240000I140000J0D01*
G01*
X-3110000Y-12240000D01*
G75*
G02*
X-2970000Y-12380000I0J-140000D01*
G01*
X-2970000Y-12660000D01*
G75*
G02*
X-3110000Y-12800000I-140000J0D01*
G01*
G37*
G04 #@! TD.AperFunction*
G04 #@! TA.AperFunction,SMDPad,CuDef*
G36*
G01*
X4100000Y7330000D02*
X4100000Y7670000D01*
G75*
G02*
X4240000Y7810000I140000J0D01*
G01*
X4520000Y7810000D01*
G75*
G02*
X4660000Y7670000I0J-140000D01*
G01*
X4660000Y7330000D01*
G75*
G02*
X4520000Y7190000I-140000J0D01*
G01*
X4240000Y7190000D01*
G75*
G02*
X4100000Y7330000I0J140000D01*
G01*
G37*
G04 #@! TD.AperFunction*
G04 #@! TA.AperFunction,SMDPad,CuDef*
G36*
G01*
X3140000Y7330000D02*
X3140000Y7670000D01*
G75*
G02*
X3280000Y7810000I140000J0D01*
G01*
X3560000Y7810000D01*
G75*
G02*
X3700000Y7670000I0J-140000D01*
G01*
X3700000Y7330000D01*
G75*
G02*
X3560000Y7190000I-140000J0D01*
G01*
X3280000Y7190000D01*
G75*
G02*
X3140000Y7330000I0J140000D01*
G01*
G37*
G04 #@! TD.AperFunction*
G04 #@! TA.AperFunction,SMDPad,CuDef*
G36*
G01*
X4100000Y8430000D02*
X4100000Y8770000D01*
G75*
G02*
X4240000Y8910000I140000J0D01*
G01*
X4520000Y8910000D01*
G75*
G02*
X4660000Y8770000I0J-140000D01*
G01*
X4660000Y8430000D01*
G75*
G02*
X4520000Y8290000I-140000J0D01*
G01*
X4240000Y8290000D01*
G75*
G02*
X4100000Y8430000I0J140000D01*
G01*
G37*
G04 #@! TD.AperFunction*
G04 #@! TA.AperFunction,SMDPad,CuDef*
G36*
G01*
X3140000Y8430000D02*
X3140000Y8770000D01*
G75*
G02*
X3280000Y8910000I140000J0D01*
G01*
X3560000Y8910000D01*
G75*
G02*
X3700000Y8770000I0J-140000D01*
G01*
X3700000Y8430000D01*
G75*
G02*
X3560000Y8290000I-140000J0D01*
G01*
X3280000Y8290000D01*
G75*
G02*
X3140000Y8430000I0J140000D01*
G01*
G37*
G04 #@! TD.AperFunction*
D20*
X750000Y-1850000D03*
D21*
X-1400000Y3400000D03*
X-1400000Y600000D03*
X1400000Y600000D03*
X1400000Y3400000D03*
X0Y2000000D03*
D22*
X6000000Y16400000D03*
X-6000000Y16400000D03*
X6200000Y1750000D03*
X5750000Y650000D03*
X6000000Y-17000000D03*
X-5950000Y-16950000D03*
D21*
X-3800000Y-15400000D03*
X4300000Y11100000D03*
X-4300000Y11100000D03*
X11700000Y-7600000D03*
X5700000Y-13700000D03*
X-11700000Y-7500000D03*
D22*
X4675000Y-2250000D03*
X2900000Y-6200000D03*
X-1700000Y-4000000D03*
X-5799999Y220000D03*
X-6223000Y-1800000D03*
X7454001Y-5000000D03*
X-3700000Y-6500000D03*
X6200000Y5650000D03*
X7600000Y-2600000D03*
X-5799999Y-750000D03*
X-4740000Y-2670000D03*
X-4350000Y6800000D03*
X-3300000Y-9500000D03*
X3375000Y-11875000D03*
D21*
X5425000Y7650000D03*
X9450000Y-8000000D03*
X6000000Y-11450000D03*
X-10024422Y-8574422D03*
X-6400000Y-11850000D03*
X4400000Y9700000D03*
D22*
X-5643356Y4743356D03*
X-1400000Y6950000D03*
X-7900000Y-10100000D03*
X-7500000Y-7600000D03*
X7356644Y-10593356D03*
X8600000Y-9350000D03*
X1950000Y-11900000D03*
X2750000Y-7550000D03*
X625000Y-11875000D03*
X327000Y13750000D03*
X-1200000Y13700000D03*
D21*
X1250000Y10577000D03*
X-2450000Y10577000D03*
D23*
X4129024Y-1580000D02*
X3130004Y-2579020D01*
X6500000Y-1580000D02*
X4129024Y-1580000D01*
D24*
X6000000Y15510000D02*
X6000000Y16400000D01*
X-6000000Y15510000D02*
X-6000000Y16400000D01*
X5330000Y3795000D02*
X6200000Y2925000D01*
X4800000Y3795000D02*
X5330000Y3795000D01*
D23*
X3437500Y4250000D02*
X4345000Y4250000D01*
X4345000Y4250000D02*
X4800000Y3795000D01*
D24*
X6200000Y2925000D02*
X6200000Y1750000D01*
X5690000Y590000D02*
X5750000Y650000D01*
X4800000Y590000D02*
X5690000Y590000D01*
X6639376Y-17639376D02*
X6000000Y-17000000D01*
X-6639376Y-17639376D02*
X-5950000Y-16950000D01*
X-2550404Y-12520000D02*
X-600000Y-10569596D01*
X-3280000Y-12520000D02*
X-2550404Y-12520000D01*
X-635000Y-10225000D02*
X-635000Y-15165000D01*
D25*
X-635000Y-15175000D02*
X-635000Y-10635000D01*
X-2408984Y-12520000D02*
X-600000Y-10711016D01*
X-3280000Y-12520000D02*
X-2408984Y-12520000D01*
X3250000Y11955000D02*
X3255000Y11955000D01*
X3445000Y11955000D02*
X4300000Y11100000D01*
X3250000Y11955000D02*
X3445000Y11955000D01*
X-3445000Y11955000D02*
X-4300000Y11100000D01*
X-3250000Y11955000D02*
X-3445000Y11955000D01*
X11497850Y-7802150D02*
X11700000Y-7600000D01*
X11497850Y-8901656D02*
X11497850Y-7802150D01*
X5902150Y-13497850D02*
X5700000Y-13700000D01*
X6901656Y-13497850D02*
X5902150Y-13497850D01*
X-5702150Y-13497850D02*
X-3800000Y-15400000D01*
X-6901656Y-13497850D02*
X-5702150Y-13497850D01*
X-11497850Y-7702150D02*
X-11700000Y-7500000D01*
X-11497850Y-8901656D02*
X-11497850Y-7702150D01*
D23*
X3130004Y-2579020D02*
X1369995Y-2579020D01*
X750000Y-1959025D02*
X1369995Y-2579020D01*
X750000Y-1437500D02*
X750000Y-1959025D01*
D25*
X5345000Y-1580000D02*
X4675000Y-2250000D01*
X5400000Y-1580000D02*
X5345000Y-1580000D01*
D24*
X-1700000Y-4870000D02*
X-720000Y-4870000D01*
X-720000Y-4870000D02*
X-250000Y-4400000D01*
X2900000Y-5330000D02*
X1970000Y-5330000D01*
X1970000Y-5330000D02*
X1500000Y-5800000D01*
X2500000Y-5800000D02*
X2900000Y-6200000D01*
X1475000Y-5800000D02*
X2500000Y-5800000D01*
X-1300000Y-4400000D02*
X-1700000Y-4000000D01*
X-275000Y-4400000D02*
X-1300000Y-4400000D01*
D23*
X-3437500Y-250000D02*
X-1950000Y-250000D01*
X3437500Y4250000D02*
X2500000Y4250000D01*
X-4750000Y230000D02*
X-4270000Y-250000D01*
X-4270000Y-250000D02*
X-3500000Y-250000D01*
D24*
X-5789999Y230000D02*
X-5799999Y220000D01*
X-4750000Y230000D02*
X-5789999Y230000D01*
X-5680000Y-1800000D02*
X-6223000Y-1800000D01*
D25*
X4660000Y8600000D02*
X5277001Y9217001D01*
X5277001Y10122999D02*
X4300000Y11100000D01*
X4380000Y8600000D02*
X4660000Y8600000D01*
X4380000Y7500000D02*
X4380000Y8580000D01*
D24*
X5014580Y6135980D02*
X3564020Y6135980D01*
X6277001Y7398401D02*
X5014580Y6135980D01*
X5277001Y9777001D02*
X6277001Y8777001D01*
X6277001Y8777001D02*
X6277001Y7398401D01*
D25*
X5277001Y9217001D02*
X5277001Y9777001D01*
X5277001Y9777001D02*
X5277001Y10122999D01*
D24*
X3564020Y6135980D02*
X2300000Y7400000D01*
D23*
X-2250000Y5437500D02*
X-2250000Y6500000D01*
X-2250000Y6500000D02*
X-2500000Y6750000D01*
D24*
X-6710000Y-1800000D02*
X-6223000Y-1800000D01*
X-7610000Y-2700000D02*
X-6710000Y-1800000D01*
X-8620000Y-2700000D02*
X-7600000Y-2700000D01*
X9300000Y-5000000D02*
X7454001Y-5000000D01*
X7454001Y-6325999D02*
X7454001Y-5000000D01*
X6580000Y-7200000D02*
X7454001Y-6325999D01*
X-2520000Y6800000D02*
X-2520000Y7980000D01*
X-3720000Y-6480000D02*
X-3700000Y-6500000D01*
X-4400000Y-6480000D02*
X-3720000Y-6480000D01*
X-3680000Y-6480000D02*
X-3700000Y-6500000D01*
X-3000000Y-6480000D02*
X-3680000Y-6480000D01*
D23*
X-2250000Y5437500D02*
X-2250000Y4650000D01*
D24*
X-3280000Y-14880000D02*
X-3800000Y-15400000D01*
X-3280000Y-12520000D02*
X-3280000Y-14880000D01*
D25*
X-2700000Y-16500000D02*
X-1900000Y-16500000D01*
X-3800000Y-15400000D02*
X-2700000Y-16500000D01*
X-1905000Y-15175000D02*
X-1905000Y-16495000D01*
X-1905000Y-16495000D02*
X-1900000Y-16500000D01*
X-635000Y-16500000D02*
X-1900000Y-16500000D01*
X-635000Y-15175000D02*
X-635000Y-16500000D01*
X635000Y-16460000D02*
X675000Y-16500000D01*
X635000Y-15175000D02*
X635000Y-16460000D01*
X1905000Y-16420000D02*
X1825000Y-16500000D01*
X1905000Y-15175000D02*
X1905000Y-16420000D01*
X1825000Y-16500000D02*
X675000Y-16500000D01*
X2900000Y-16500000D02*
X5700000Y-13700000D01*
X1825000Y-16500000D02*
X2900000Y-16500000D01*
D23*
X4795000Y4750000D02*
X4800000Y4755000D01*
X3437500Y4750000D02*
X4795000Y4750000D01*
D24*
X4800000Y4755000D02*
X5970000Y4755000D01*
X5970000Y4755000D02*
X6200000Y4525000D01*
X6200000Y4475000D02*
X6200000Y5650000D01*
X7600000Y-1605000D02*
X7600000Y-2600000D01*
D23*
X-3437500Y-750000D02*
X-4750000Y-750000D01*
D24*
X-5779999Y-730000D02*
X-5799999Y-750000D01*
X-4750000Y-730000D02*
X-5779999Y-730000D01*
X-4720000Y-2650000D02*
X-4740000Y-2670000D01*
X-4720000Y-1800000D02*
X-4720000Y-2650000D01*
D23*
X-2750000Y-1437500D02*
X-2750000Y-2251260D01*
X-3168740Y-2670000D02*
X-4740000Y-2670000D01*
X-2750000Y-2251260D02*
X-3168740Y-2670000D01*
X-3455000Y6490000D02*
X-2750000Y5785000D01*
X-3455000Y6800000D02*
X-3455000Y6490000D01*
X-2750000Y5785000D02*
X-2750000Y5500000D01*
D24*
X2300000Y7960000D02*
X2940000Y7960000D01*
X2940000Y7960000D02*
X3450000Y7450000D01*
X-3455000Y6800000D02*
X-4350000Y6800000D01*
X-4350000Y6800000D02*
X-5700000Y6800000D01*
X-1905000Y-10225000D02*
X-1905000Y-11129290D01*
X-1905000Y-11129290D02*
X-2325710Y-11550000D01*
X-2325710Y-11550000D02*
X-3250000Y-11550000D01*
X-2575000Y-10225000D02*
X-3300000Y-9500000D01*
X-1905000Y-10225000D02*
X-2575000Y-10225000D01*
X7400000Y-2800000D02*
X7600000Y-2600000D01*
X6610000Y-2800000D02*
X7400000Y-2800000D01*
D25*
X3420000Y7190000D02*
X3847010Y6762990D01*
X3847010Y6762990D02*
X4754864Y6762990D01*
X4754864Y6762990D02*
X5425000Y7433126D01*
X5425000Y7433126D02*
X5425000Y7650000D01*
X3420000Y7500000D02*
X3420000Y7190000D01*
D24*
X-4740000Y-2670000D02*
X-5470000Y-2670000D01*
X-5470000Y-2670000D02*
X-5850000Y-3050000D01*
X-5850000Y-3050000D02*
X-5850000Y-4950000D01*
D23*
X-250000Y-2166790D02*
X1500000Y-3916790D01*
X-250000Y-1437500D02*
X-250000Y-2166790D01*
X1500000Y-3916790D02*
X1500000Y-4375000D01*
D24*
X2900000Y-4370000D02*
X1520000Y-4370000D01*
D23*
X577001Y-5121601D02*
X-101398Y-5800000D01*
X577001Y-3632401D02*
X577001Y-5121601D01*
X-750000Y-2305400D02*
X577001Y-3632401D01*
X-750000Y-1437500D02*
X-750000Y-2305400D01*
D24*
X-1700000Y-5830000D02*
X-330000Y-5830000D01*
D23*
X-3067857Y-3172999D02*
X-3547999Y-3172999D01*
X-1750000Y-1855142D02*
X-3067857Y-3172999D01*
X-1750000Y-1437500D02*
X-1750000Y-1855142D01*
X-3547999Y-3172999D02*
X-4400000Y-4025000D01*
X-4400000Y-5520000D02*
X-4400000Y-4050000D01*
X-3000000Y-4000000D02*
X-1250000Y-2250000D01*
X-1250000Y-2250000D02*
X-1250000Y-1425000D01*
X-3000000Y-5520000D02*
X-3000000Y-4000000D01*
X1546868Y-2152010D02*
X2953132Y-2152010D01*
X1250000Y-1855142D02*
X1546868Y-2152010D01*
X1250000Y-1437500D02*
X1250000Y-1855142D01*
X2953132Y-2152010D02*
X4505142Y-600000D01*
X4505142Y-600000D02*
X7600000Y-600000D01*
D24*
X-9300000Y-5000000D02*
X-9300000Y-3000000D01*
X-9300000Y-3000000D02*
X-9600000Y-2700000D01*
X-6590000Y-2700000D02*
X-8890000Y-5000000D01*
X-8890000Y-5000000D02*
X-9300000Y-5000000D01*
X-9500000Y-2552039D02*
X-9500000Y-2800000D01*
D23*
X-3437500Y1250000D02*
X-5623961Y1250000D01*
D24*
X-5724971Y1222990D02*
X-4000000Y1222990D01*
X-9580000Y-2632039D02*
X-5724971Y1222990D01*
X-9580000Y-2700000D02*
X-9580000Y-2632039D01*
X3500000Y-9890000D02*
X4510000Y-10900000D01*
X5460000Y-10910000D02*
X6000000Y-11450000D01*
X4600000Y-10910000D02*
X5460000Y-10910000D01*
D25*
X7467341Y-12932165D02*
X7467341Y-12917341D01*
X7467341Y-12917341D02*
X6000000Y-11450000D01*
X-7467341Y-12932165D02*
X-7467341Y-12917341D01*
X10917341Y-9467341D02*
X9450000Y-8000000D01*
X10932165Y-9467341D02*
X10917341Y-9467341D01*
X-7467341Y-12917341D02*
X-6400000Y-11850000D01*
X-10917341Y-9467341D02*
X-10024422Y-8574422D01*
X-10932165Y-9467341D02*
X-10917341Y-9467341D01*
X3425000Y9700000D02*
X3425000Y8625000D01*
D24*
X3420000Y8600000D02*
X2400000Y8600000D01*
X2400000Y8600000D02*
X2300000Y8500000D01*
D25*
X3425000Y9700000D02*
X4400000Y9700000D01*
D24*
X5590000Y-2800000D02*
X5590000Y-4690000D01*
X5590000Y-4690000D02*
X5900000Y-5000000D01*
X5900000Y-5000000D02*
X5900000Y-6900000D01*
X5900000Y-6900000D02*
X5600000Y-7200000D01*
D23*
X250000Y-2062907D02*
X1193122Y-3006030D01*
X250000Y-1437500D02*
X250000Y-2062907D01*
X1193122Y-3006030D02*
X5393970Y-3006030D01*
X5393970Y-3006030D02*
X5600000Y-2800000D01*
X-5643356Y4743356D02*
X-3456644Y4743356D01*
X-1750000Y6600000D02*
X-1400000Y6950000D01*
X-1750000Y5437500D02*
X-1750000Y6600000D01*
X4800000Y1825000D02*
X4800000Y1610000D01*
X3875000Y2750000D02*
X4800000Y1825000D01*
X3437500Y2750000D02*
X3875000Y2750000D01*
X9376530Y-11022976D02*
X9372976Y-11022976D01*
X8467652Y-10072348D02*
X8467652Y-10107652D01*
X8467652Y-10107652D02*
X9370000Y-11010000D01*
X9376530Y-11022976D02*
X9382976Y-11022976D01*
X9376530Y-11022976D02*
X9376530Y-11026530D01*
X-7900000Y-10253554D02*
X-7900000Y-10100000D01*
X-9022976Y-11376530D02*
X-7900000Y-10253554D01*
D24*
X-7500000Y-7600000D02*
X-7500000Y-8100000D01*
X-7500000Y-8100000D02*
X-7605000Y-8205000D01*
D23*
X-9897858Y-11918704D02*
X-10272258Y-11544304D01*
X-9565150Y-11918704D02*
X-9897858Y-11918704D01*
X-9022976Y-11376530D02*
X-9565150Y-11918704D01*
X7532696Y-10593356D02*
X7356644Y-10593356D01*
X8669423Y-11730083D02*
X7532696Y-10593356D01*
D24*
X8197652Y-9752348D02*
X8197652Y-9802348D01*
X8600000Y-9350000D02*
X8197652Y-9752348D01*
X8197652Y-9802348D02*
X8467652Y-10072348D01*
X6600304Y-8205000D02*
X8197652Y-9802348D01*
D23*
X-10272258Y-11247258D02*
X-10272258Y-11544304D01*
X-9730083Y-10705083D02*
X-10272258Y-11247258D01*
X-9730083Y-10669423D02*
X-9730083Y-10705083D01*
D24*
X-7605000Y-8205000D02*
X-8545000Y-8205000D01*
X-9325000Y-7425000D02*
X-9500000Y-7250000D01*
X-8545000Y-8205000D02*
X-9325000Y-7425000D01*
X-9325000Y-7425000D02*
X-10187010Y-6562990D01*
X-10187010Y-2336556D02*
X-10172366Y-2321912D01*
X-10187010Y-2336556D02*
X-6100454Y1750000D01*
D23*
X-3437500Y1750000D02*
X-4050000Y1750000D01*
X-4050000Y1750000D02*
X-6029742Y1750000D01*
D24*
X-10187010Y-2336556D02*
X-10187010Y-6562990D01*
X-6100454Y1750000D02*
X-4050000Y1750000D01*
X1905000Y-11855000D02*
X1950000Y-11900000D01*
X1905000Y-10225000D02*
X1905000Y-11855000D01*
X2750000Y-7550000D02*
X2750000Y-8100000D01*
X2750000Y-8100000D02*
X2855000Y-8205000D01*
X2855000Y-8205000D02*
X6600304Y-8205000D01*
X-7605000Y-8205000D02*
X2855000Y-8205000D01*
X2940000Y-10910000D02*
X1950000Y-11900000D01*
X3500000Y-10910000D02*
X2940000Y-10910000D01*
X635000Y-10225000D02*
X635000Y-8834011D01*
D23*
X9022976Y-11376530D02*
X9016530Y-11376530D01*
X9022976Y-11376530D02*
X9022976Y-11372976D01*
D24*
X6484011Y-8834011D02*
X4665989Y-8834011D01*
X6770000Y-9120000D02*
X8249357Y-10599357D01*
X6770000Y-9120000D02*
X6484011Y-8834011D01*
D23*
X9022976Y-11372976D02*
X8000000Y-10350000D01*
D24*
X8000000Y-10350000D02*
X6770000Y-9120000D01*
D23*
X9022976Y-11376530D02*
X9026530Y-11376530D01*
X-8477001Y-9022999D02*
X-8665989Y-8834011D01*
X-8477001Y-10123447D02*
X-8477001Y-9022999D01*
X-9376530Y-11022976D02*
X-8477001Y-10123447D01*
X-7145989Y-10309870D02*
X-7145989Y-8834011D01*
D24*
X-7145989Y-8834011D02*
X-8665989Y-8834011D01*
D23*
X9816562Y-12000000D02*
X9600000Y-12000000D01*
X10272258Y-11544304D02*
X9816562Y-12000000D01*
X10272258Y-11211598D02*
X10272258Y-11544304D01*
X9730083Y-10669423D02*
X10272258Y-11211598D01*
X9600000Y-12000000D02*
X9025000Y-11425000D01*
D24*
X4600000Y-8900000D02*
X4665989Y-8834011D01*
X4600000Y-9890000D02*
X4600000Y-8900000D01*
X4665989Y-8834011D02*
X-7145989Y-8834011D01*
X-8665989Y-8834011D02*
X-10027010Y-7472990D01*
X-6318748Y2277010D02*
X-4250000Y2277010D01*
X-10714020Y-2118262D02*
X-6318748Y2277010D01*
X-10714020Y-6781284D02*
X-10714020Y-2118262D01*
X-10027010Y-7468294D02*
X-10714020Y-6781284D01*
X-10027010Y-7472990D02*
X-10027010Y-7468294D01*
D23*
X-4250000Y2277010D02*
X-3127010Y2277010D01*
D24*
X635000Y-11865000D02*
X625000Y-11875000D01*
X635000Y-10225000D02*
X635000Y-11865000D01*
D23*
X-7145989Y-10309870D02*
X-7249870Y-10309870D01*
X-7249870Y-10309870D02*
X-8660000Y-11720000D01*
X-1250000Y5437500D02*
X-1250000Y5978883D01*
X-750000Y6551122D02*
X-1250000Y6051122D01*
X-750000Y11955000D02*
X-750000Y6551122D01*
X-750000Y11955000D02*
X-750000Y13250000D01*
X250000Y13673000D02*
X327000Y13750000D01*
X250000Y11955000D02*
X250000Y13673000D01*
X-750000Y13250000D02*
X-1200000Y13700000D01*
X-750000Y5437500D02*
X-750000Y5875000D01*
X-250000Y6355142D02*
X-750000Y5855142D01*
X-250000Y11955000D02*
X-250000Y6355142D01*
X-250000Y14026962D02*
X-250000Y11955000D01*
X50039Y14327001D02*
X-250000Y14026962D01*
X603961Y14327001D02*
X50039Y14327001D01*
X904001Y14026961D02*
X603961Y14327001D01*
X904001Y13473039D02*
X904001Y14026961D01*
X750000Y13319038D02*
X904001Y13473039D01*
X750000Y11955000D02*
X750000Y13319038D01*
D24*
X-5700000Y8387500D02*
X-3887500Y8387500D01*
X-3887500Y8387500D02*
X-3500000Y8000000D01*
D25*
X2450000Y10300000D02*
X1527000Y10300000D01*
X1527000Y10300000D02*
X1250000Y10577000D01*
X2450000Y11955000D02*
X2450000Y10300000D01*
X2450000Y10300000D02*
X2450000Y9750000D01*
X-2450000Y10577000D02*
X-2450000Y11900000D01*
D23*
X1250000Y12980000D02*
X2770000Y14500000D01*
X1250000Y11955000D02*
X1250000Y12980000D01*
X2770000Y14500000D02*
X6000000Y14500000D01*
X-1750000Y13150962D02*
X-3099038Y14500000D01*
X-1750000Y11955000D02*
X-1750000Y13150962D01*
X-3099038Y14500000D02*
X-6000000Y14500000D01*
X-8779985Y-16941263D02*
X-8779985Y-13229985D01*
X-7360624Y-18360624D02*
X-8779985Y-16941263D01*
X-8779985Y-13229985D02*
X-8000000Y-12450000D01*
X-10699268Y-11721177D02*
X-9190460Y-13229985D01*
X-9190460Y-13229985D02*
X-8779985Y-13229985D01*
X-10699268Y-10931501D02*
X-10699268Y-11721177D01*
X-10083637Y-10315870D02*
X-10699268Y-10931501D01*
X7360624Y-18360624D02*
X8858044Y-16863204D01*
X8858044Y-12608044D02*
X8300000Y-12050000D01*
X10979365Y-11470635D02*
X8858044Y-13591956D01*
X10979365Y-10504491D02*
X10979365Y-11470635D01*
X10437190Y-9962316D02*
X10979365Y-10504491D01*
X8858044Y-13591956D02*
X8858044Y-12608044D01*
X8858044Y-16863204D02*
X8858044Y-13591956D01*
D26*
X6915001Y12376353D02*
X6916113Y12365058D01*
X6976815Y10533440D01*
X6976962Y10531356D01*
X6976966Y10529281D01*
X6980125Y10485165D01*
X7197769Y8395586D01*
X7198273Y8392040D01*
X7198549Y8388456D01*
X7205007Y8344702D01*
X7578713Y6277323D01*
X7579484Y6273817D01*
X7580026Y6270271D01*
X7589747Y6227125D01*
X8117410Y4193586D01*
X8118441Y4190150D01*
X8119248Y4186652D01*
X8132176Y4144356D01*
X8810826Y2156104D01*
X8812114Y2152749D01*
X8813179Y2149328D01*
X8829242Y2108120D01*
X9655057Y176349D01*
X9656595Y173095D01*
X9657912Y169768D01*
X9677019Y129881D01*
X10645353Y-1734533D01*
X10647123Y-1737649D01*
X10648692Y-1740881D01*
X10670655Y-1779081D01*
X10670736Y-1779224D01*
X10670749Y-1779243D01*
X11776135Y-3565786D01*
X11778143Y-3568774D01*
X11779942Y-3571866D01*
X11804799Y-3608448D01*
X13014631Y-5270812D01*
X13023963Y-5288241D01*
X13088169Y-5366365D01*
X19380925Y-11650338D01*
X9650000Y-21381264D01*
X8060574Y-19791840D01*
X8046706Y-19780459D01*
X7541254Y-19325348D01*
X7621111Y-19301123D01*
X7754765Y-19229684D01*
X7871913Y-19133542D01*
X8133542Y-18871913D01*
X8229684Y-18754765D01*
X8232481Y-18749532D01*
X9034997Y-18749532D01*
X9247129Y-18961664D01*
X9434917Y-19083570D01*
X9642879Y-19166499D01*
X9863025Y-19207263D01*
X10086893Y-19204295D01*
X10305880Y-19157711D01*
X10520095Y-19056411D01*
X10554537Y-18843544D01*
X9747761Y-18036768D01*
X9034997Y-18749532D01*
X8232481Y-18749532D01*
X8301123Y-18621111D01*
X8340674Y-18490731D01*
X8576480Y-18254925D01*
X8643260Y-18357795D01*
X8855392Y-18569927D01*
X9568156Y-17857163D01*
X9927366Y-17857163D01*
X10734142Y-18663939D01*
X10947009Y-18629497D01*
X11048309Y-18415282D01*
X11094893Y-18196295D01*
X11097861Y-17972427D01*
X11057097Y-17752281D01*
X10974168Y-17544319D01*
X10852262Y-17356531D01*
X10640130Y-17144399D01*
X9927366Y-17857163D01*
X9568156Y-17857163D01*
X9554014Y-17843021D01*
X9733619Y-17663416D01*
X9747761Y-17677558D01*
X10460525Y-16964794D01*
X10248393Y-16752662D01*
X10060605Y-16630756D01*
X9852643Y-16547827D01*
X9643044Y-16509016D01*
X9643044Y-13917113D01*
X10920027Y-12640130D01*
X15144399Y-12640130D01*
X15356531Y-12852262D01*
X15544319Y-12974168D01*
X15752281Y-13057097D01*
X15972427Y-13097861D01*
X16196295Y-13094893D01*
X16415282Y-13048309D01*
X16629497Y-12947009D01*
X16663939Y-12734142D01*
X15857163Y-11927366D01*
X15144399Y-12640130D01*
X10920027Y-12640130D01*
X11507181Y-12052977D01*
X11537129Y-12028399D01*
X11562279Y-11997755D01*
X11597103Y-11955321D01*
X11635227Y-11908868D01*
X11708119Y-11772495D01*
X11715622Y-11747761D01*
X11750587Y-11632497D01*
X14507063Y-11632497D01*
X14547827Y-11852643D01*
X14630756Y-12060605D01*
X14752662Y-12248393D01*
X14964794Y-12460525D01*
X15677558Y-11747761D01*
X16036768Y-11747761D01*
X16843544Y-12554537D01*
X17056411Y-12520095D01*
X17157711Y-12305880D01*
X17204295Y-12086893D01*
X17207263Y-11863025D01*
X17166499Y-11642879D01*
X17083570Y-11434917D01*
X16961664Y-11247129D01*
X16749532Y-11034997D01*
X16036768Y-11747761D01*
X15677558Y-11747761D01*
X14870782Y-10940985D01*
X14657915Y-10975427D01*
X14556615Y-11189642D01*
X14510031Y-11408629D01*
X14507063Y-11632497D01*
X11750587Y-11632497D01*
X11753007Y-11624522D01*
X11761930Y-11533914D01*
X11764365Y-11509196D01*
X11764365Y-11509191D01*
X11768162Y-11470635D01*
X11764365Y-11432080D01*
X11764365Y-10998012D01*
X11810330Y-11028725D01*
X11985039Y-11101092D01*
X12170509Y-11137984D01*
X12359613Y-11137984D01*
X12545083Y-11101092D01*
X12719792Y-11028725D01*
X12877025Y-10923665D01*
X13010742Y-10789948D01*
X13029830Y-10761380D01*
X15050387Y-10761380D01*
X15857163Y-11568156D01*
X16569927Y-10855392D01*
X16357795Y-10643260D01*
X16170007Y-10521354D01*
X15962045Y-10438425D01*
X15741899Y-10397661D01*
X15518031Y-10400629D01*
X15299044Y-10447213D01*
X15084829Y-10548513D01*
X15050387Y-10761380D01*
X13029830Y-10761380D01*
X13115802Y-10632715D01*
X13188169Y-10458006D01*
X13215892Y-10318634D01*
X13417366Y-10315963D01*
X13636353Y-10269378D01*
X13850568Y-10168079D01*
X13885010Y-9955212D01*
X12901457Y-8971659D01*
X12887315Y-8985802D01*
X12757738Y-8856225D01*
X12753172Y-8847683D01*
X12713979Y-8799927D01*
X12721852Y-8792054D01*
X13081062Y-8792054D01*
X14064615Y-9775607D01*
X14277482Y-9741165D01*
X14378781Y-9526950D01*
X14425366Y-9307963D01*
X14428334Y-9084095D01*
X14387570Y-8863949D01*
X14304641Y-8655987D01*
X14182734Y-8468199D01*
X13793826Y-8079290D01*
X13081062Y-8792054D01*
X12721852Y-8792054D01*
X11738299Y-7808501D01*
X11731296Y-7809634D01*
X11648515Y-7725687D01*
X11551823Y-7646334D01*
X11519200Y-7628896D01*
X11917904Y-7628896D01*
X12901457Y-8612449D01*
X13614221Y-7899685D01*
X13225312Y-7510777D01*
X13037524Y-7388870D01*
X12829562Y-7305941D01*
X12609416Y-7265177D01*
X12385548Y-7268145D01*
X12166561Y-7314730D01*
X11952346Y-7416029D01*
X11917904Y-7628896D01*
X11519200Y-7628896D01*
X11441509Y-7587369D01*
X11321811Y-7551060D01*
X11197330Y-7538800D01*
X11072848Y-7551060D01*
X10953150Y-7587369D01*
X10842836Y-7646334D01*
X10746145Y-7725687D01*
X10738241Y-7737935D01*
X10738241Y-7962439D01*
X10625989Y-7850187D01*
X10624233Y-7851944D01*
X10502615Y-7730326D01*
X10493304Y-7683517D01*
X10411515Y-7486060D01*
X10292775Y-7308353D01*
X10141647Y-7157225D01*
X9963940Y-7038485D01*
X9766483Y-6956696D01*
X9556863Y-6915000D01*
X9343137Y-6915000D01*
X9133517Y-6956696D01*
X8936060Y-7038485D01*
X8758353Y-7157225D01*
X8607225Y-7308353D01*
X8488485Y-7486060D01*
X8406696Y-7683517D01*
X8365000Y-7893137D01*
X8365000Y-8106863D01*
X8406696Y-8316483D01*
X8452101Y-8426101D01*
X8327271Y-8450932D01*
X8157111Y-8521414D01*
X8121428Y-8545257D01*
X7408089Y-7831918D01*
X7450614Y-7751476D01*
X7486375Y-7631613D01*
X7498065Y-7507077D01*
X7495000Y-7485750D01*
X7336250Y-7327000D01*
X6707000Y-7327000D01*
X6707000Y-7347000D01*
X6607870Y-7347000D01*
X6675172Y-7221087D01*
X6720094Y-7073000D01*
X7336250Y-7073000D01*
X7495000Y-6914250D01*
X7498065Y-6892923D01*
X7486375Y-6768387D01*
X7450614Y-6648524D01*
X7392156Y-6537941D01*
X7313247Y-6440887D01*
X7216921Y-6361092D01*
X7106878Y-6301623D01*
X6987348Y-6264765D01*
X6865750Y-6255000D01*
X6735000Y-6385750D01*
X6735000Y-6355501D01*
X6801185Y-6301185D01*
X6880537Y-6204494D01*
X6939502Y-6094180D01*
X6975812Y-5974482D01*
X6988072Y-5850000D01*
X8211928Y-5850000D01*
X8224188Y-5974482D01*
X8260498Y-6094180D01*
X8319463Y-6204494D01*
X8398815Y-6301185D01*
X8495506Y-6380537D01*
X8605820Y-6439502D01*
X8725518Y-6475812D01*
X8850000Y-6488072D01*
X9014250Y-6485000D01*
X9173000Y-6326250D01*
X9173000Y-5127000D01*
X9427000Y-5127000D01*
X9427000Y-6326250D01*
X9585750Y-6485000D01*
X9750000Y-6488072D01*
X9874482Y-6475812D01*
X9994180Y-6439502D01*
X10104494Y-6380537D01*
X10201185Y-6301185D01*
X10280537Y-6204494D01*
X10339502Y-6094180D01*
X10375812Y-5974482D01*
X10388072Y-5850000D01*
X10385000Y-5285750D01*
X10226250Y-5127000D01*
X9427000Y-5127000D01*
X9173000Y-5127000D01*
X8373750Y-5127000D01*
X8215000Y-5285750D01*
X8211928Y-5850000D01*
X6988072Y-5850000D01*
X6988072Y-4150000D01*
X8211928Y-4150000D01*
X8215000Y-4714250D01*
X8373750Y-4873000D01*
X9173000Y-4873000D01*
X9173000Y-3673750D01*
X9427000Y-3673750D01*
X9427000Y-4873000D01*
X10226250Y-4873000D01*
X10385000Y-4714250D01*
X10388072Y-4150000D01*
X10375812Y-4025518D01*
X10339502Y-3905820D01*
X10280537Y-3795506D01*
X10201185Y-3698815D01*
X10104494Y-3619463D01*
X9994180Y-3560498D01*
X9874482Y-3524188D01*
X9750000Y-3511928D01*
X9585750Y-3515000D01*
X9427000Y-3673750D01*
X9173000Y-3673750D01*
X9014250Y-3515000D01*
X8850000Y-3511928D01*
X8725518Y-3524188D01*
X8605820Y-3560498D01*
X8495506Y-3619463D01*
X8398815Y-3698815D01*
X8319463Y-3795506D01*
X8260498Y-3905820D01*
X8224188Y-4025518D01*
X8211928Y-4150000D01*
X6988072Y-4150000D01*
X6975812Y-4025518D01*
X6939502Y-3905820D01*
X6880537Y-3795506D01*
X6841977Y-3748521D01*
X6895819Y-3743218D01*
X7040842Y-3699225D01*
X7160999Y-3635000D01*
X7358982Y-3635000D01*
X7400000Y-3639040D01*
X7441018Y-3635000D01*
X7441019Y-3635000D01*
X7563689Y-3622918D01*
X7721087Y-3575172D01*
X7857977Y-3502002D01*
X7872729Y-3499068D01*
X8042889Y-3428586D01*
X8196028Y-3326262D01*
X8326262Y-3196028D01*
X8428586Y-3042889D01*
X8499068Y-2872729D01*
X8535000Y-2692089D01*
X8535000Y-2507911D01*
X8499068Y-2327271D01*
X8435000Y-2172596D01*
X8435000Y-2171502D01*
X8498274Y-2053125D01*
X8542977Y-1905757D01*
X8558072Y-1752500D01*
X8558072Y-1457500D01*
X8542977Y-1304243D01*
X8498274Y-1156875D01*
X8478564Y-1120000D01*
X8498274Y-1083125D01*
X8542977Y-935757D01*
X8558072Y-782500D01*
X8558072Y-487500D01*
X8542977Y-334243D01*
X8498274Y-186875D01*
X8425679Y-51060D01*
X8327983Y67983D01*
X8208940Y165679D01*
X8073125Y238274D01*
X7925757Y282977D01*
X7772500Y298072D01*
X7427500Y298072D01*
X7274243Y282977D01*
X7126875Y238274D01*
X7047849Y196034D01*
X6967755Y238845D01*
X6821794Y283122D01*
X6670000Y298072D01*
X6330000Y298072D01*
X6178206Y283122D01*
X6032245Y238845D01*
X5950000Y194884D01*
X5867755Y238845D01*
X5752192Y273901D01*
X5755000Y304250D01*
X5596250Y463000D01*
X4927000Y463000D01*
X4927000Y443000D01*
X4673000Y443000D01*
X4673000Y463000D01*
X4653000Y463000D01*
X4653000Y701928D01*
X4985000Y701928D01*
X5135819Y716782D01*
X5136538Y717000D01*
X5596250Y717000D01*
X5755000Y875750D01*
X5744226Y992202D01*
X5706441Y1111442D01*
X5684416Y1151451D01*
X5699225Y1179158D01*
X5743218Y1324181D01*
X5758072Y1475000D01*
X5758072Y1745000D01*
X5748980Y1837317D01*
X5914250Y1840000D01*
X6073000Y1998750D01*
X6073000Y2798000D01*
X6327000Y2798000D01*
X6327000Y1998750D01*
X6485750Y1840000D01*
X6675000Y1836928D01*
X6799482Y1849188D01*
X6919180Y1885498D01*
X7029494Y1944463D01*
X7126185Y2023815D01*
X7205537Y2120506D01*
X7264502Y2230820D01*
X7300812Y2350518D01*
X7313072Y2475000D01*
X7310000Y2639250D01*
X7151250Y2798000D01*
X6327000Y2798000D01*
X6073000Y2798000D01*
X6053000Y2798000D01*
X6053000Y3052000D01*
X6073000Y3052000D01*
X6073000Y3072000D01*
X6327000Y3072000D01*
X6327000Y3052000D01*
X7151250Y3052000D01*
X7310000Y3210750D01*
X7313072Y3375000D01*
X7300812Y3499482D01*
X7264502Y3619180D01*
X7205537Y3729494D01*
X7169300Y3773649D01*
X7247375Y3919717D01*
X7296488Y4081623D01*
X7313072Y4250000D01*
X7313072Y4700000D01*
X7296488Y4868377D01*
X7247375Y5030283D01*
X7167618Y5179497D01*
X7067619Y5301346D01*
X7099068Y5377271D01*
X7135000Y5557911D01*
X7135000Y5742089D01*
X7099068Y5922729D01*
X7028586Y6092889D01*
X6926262Y6246028D01*
X6796028Y6376262D01*
X6642889Y6478586D01*
X6472729Y6549068D01*
X6292089Y6585000D01*
X6107911Y6585000D01*
X5927271Y6549068D01*
X5817950Y6503786D01*
X6053665Y6739501D01*
X6089344Y6768782D01*
X6140328Y6830906D01*
X6267775Y6958353D01*
X6386515Y7136060D01*
X6468304Y7333517D01*
X6510000Y7543137D01*
X6510000Y7756863D01*
X6468304Y7966483D01*
X6386515Y8163940D01*
X6267775Y8341647D01*
X6116647Y8492775D01*
X5938940Y8611515D01*
X5741483Y8693304D01*
X5531863Y8735000D01*
X5318137Y8735000D01*
X5277928Y8727002D01*
X5136252Y8727002D01*
X5295000Y8885750D01*
X5298065Y8907077D01*
X5286375Y9031613D01*
X5277714Y9060643D01*
X5361515Y9186060D01*
X5443304Y9383517D01*
X5485000Y9593137D01*
X5485000Y9806863D01*
X5443304Y10016483D01*
X5361515Y10213940D01*
X5242775Y10391647D01*
X5091647Y10542775D01*
X4913940Y10661515D01*
X4716483Y10743304D01*
X4506863Y10785000D01*
X4293137Y10785000D01*
X4083517Y10743304D01*
X3886060Y10661515D01*
X3846377Y10635000D01*
X3776056Y10635000D01*
X3794180Y10640498D01*
X3904494Y10699463D01*
X4001185Y10778815D01*
X4080537Y10875506D01*
X4139502Y10985820D01*
X4175812Y11105518D01*
X4188072Y11230000D01*
X4187247Y11347896D01*
X4193000Y11352046D01*
X4193000Y12743000D01*
X4447000Y12743000D01*
X4447000Y11352046D01*
X4621874Y11225881D01*
X4844976Y11305724D01*
X5032764Y11427631D01*
X5193161Y11583831D01*
X5320003Y11768322D01*
X5408415Y11974013D01*
X5455000Y12193000D01*
X5455000Y12743000D01*
X4447000Y12743000D01*
X4193000Y12743000D01*
X4181867Y12743000D01*
X4175812Y12804482D01*
X4173000Y12813752D01*
X4173000Y12997000D01*
X4193000Y12997000D01*
X4193000Y13017000D01*
X4447000Y13017000D01*
X4447000Y12997000D01*
X5455000Y12997000D01*
X5455000Y13547000D01*
X5424261Y13691498D01*
X5519158Y13640775D01*
X5664181Y13596782D01*
X5815000Y13581928D01*
X6185000Y13581928D01*
X6335819Y13596782D01*
X6480842Y13640775D01*
X6614496Y13712214D01*
X6731644Y13808356D01*
X6827786Y13925504D01*
X6899225Y14059158D01*
X6915001Y14111163D01*
X6915001Y12376353D01*
G04 #@! TA.AperFunction,Conductor*
D27*
G36*
X6915001Y12376353D02*
G01*
X6916113Y12365058D01*
X6976815Y10533440D01*
X6976962Y10531356D01*
X6976966Y10529281D01*
X6980125Y10485165D01*
X7197769Y8395586D01*
X7198273Y8392040D01*
X7198549Y8388456D01*
X7205007Y8344702D01*
X7578713Y6277323D01*
X7579484Y6273817D01*
X7580026Y6270271D01*
X7589747Y6227125D01*
X8117410Y4193586D01*
X8118441Y4190150D01*
X8119248Y4186652D01*
X8132176Y4144356D01*
X8810826Y2156104D01*
X8812114Y2152749D01*
X8813179Y2149328D01*
X8829242Y2108120D01*
X9655057Y176349D01*
X9656595Y173095D01*
X9657912Y169768D01*
X9677019Y129881D01*
X10645353Y-1734533D01*
X10647123Y-1737649D01*
X10648692Y-1740881D01*
X10670655Y-1779081D01*
X10670736Y-1779224D01*
X10670749Y-1779243D01*
X11776135Y-3565786D01*
X11778143Y-3568774D01*
X11779942Y-3571866D01*
X11804799Y-3608448D01*
X13014631Y-5270812D01*
X13023963Y-5288241D01*
X13088169Y-5366365D01*
X19380925Y-11650338D01*
X9650000Y-21381264D01*
X8060574Y-19791840D01*
X8046706Y-19780459D01*
X7541254Y-19325348D01*
X7621111Y-19301123D01*
X7754765Y-19229684D01*
X7871913Y-19133542D01*
X8133542Y-18871913D01*
X8229684Y-18754765D01*
X8232481Y-18749532D01*
X9034997Y-18749532D01*
X9247129Y-18961664D01*
X9434917Y-19083570D01*
X9642879Y-19166499D01*
X9863025Y-19207263D01*
X10086893Y-19204295D01*
X10305880Y-19157711D01*
X10520095Y-19056411D01*
X10554537Y-18843544D01*
X9747761Y-18036768D01*
X9034997Y-18749532D01*
X8232481Y-18749532D01*
X8301123Y-18621111D01*
X8340674Y-18490731D01*
X8576480Y-18254925D01*
X8643260Y-18357795D01*
X8855392Y-18569927D01*
X9568156Y-17857163D01*
X9927366Y-17857163D01*
X10734142Y-18663939D01*
X10947009Y-18629497D01*
X11048309Y-18415282D01*
X11094893Y-18196295D01*
X11097861Y-17972427D01*
X11057097Y-17752281D01*
X10974168Y-17544319D01*
X10852262Y-17356531D01*
X10640130Y-17144399D01*
X9927366Y-17857163D01*
X9568156Y-17857163D01*
X9554014Y-17843021D01*
X9733619Y-17663416D01*
X9747761Y-17677558D01*
X10460525Y-16964794D01*
X10248393Y-16752662D01*
X10060605Y-16630756D01*
X9852643Y-16547827D01*
X9643044Y-16509016D01*
X9643044Y-13917113D01*
X10920027Y-12640130D01*
X15144399Y-12640130D01*
X15356531Y-12852262D01*
X15544319Y-12974168D01*
X15752281Y-13057097D01*
X15972427Y-13097861D01*
X16196295Y-13094893D01*
X16415282Y-13048309D01*
X16629497Y-12947009D01*
X16663939Y-12734142D01*
X15857163Y-11927366D01*
X15144399Y-12640130D01*
X10920027Y-12640130D01*
X11507181Y-12052977D01*
X11537129Y-12028399D01*
X11562279Y-11997755D01*
X11597103Y-11955321D01*
X11635227Y-11908868D01*
X11708119Y-11772495D01*
X11715622Y-11747761D01*
X11750587Y-11632497D01*
X14507063Y-11632497D01*
X14547827Y-11852643D01*
X14630756Y-12060605D01*
X14752662Y-12248393D01*
X14964794Y-12460525D01*
X15677558Y-11747761D01*
X16036768Y-11747761D01*
X16843544Y-12554537D01*
X17056411Y-12520095D01*
X17157711Y-12305880D01*
X17204295Y-12086893D01*
X17207263Y-11863025D01*
X17166499Y-11642879D01*
X17083570Y-11434917D01*
X16961664Y-11247129D01*
X16749532Y-11034997D01*
X16036768Y-11747761D01*
X15677558Y-11747761D01*
X14870782Y-10940985D01*
X14657915Y-10975427D01*
X14556615Y-11189642D01*
X14510031Y-11408629D01*
X14507063Y-11632497D01*
X11750587Y-11632497D01*
X11753007Y-11624522D01*
X11761930Y-11533914D01*
X11764365Y-11509196D01*
X11764365Y-11509191D01*
X11768162Y-11470635D01*
X11764365Y-11432080D01*
X11764365Y-10998012D01*
X11810330Y-11028725D01*
X11985039Y-11101092D01*
X12170509Y-11137984D01*
X12359613Y-11137984D01*
X12545083Y-11101092D01*
X12719792Y-11028725D01*
X12877025Y-10923665D01*
X13010742Y-10789948D01*
X13029830Y-10761380D01*
X15050387Y-10761380D01*
X15857163Y-11568156D01*
X16569927Y-10855392D01*
X16357795Y-10643260D01*
X16170007Y-10521354D01*
X15962045Y-10438425D01*
X15741899Y-10397661D01*
X15518031Y-10400629D01*
X15299044Y-10447213D01*
X15084829Y-10548513D01*
X15050387Y-10761380D01*
X13029830Y-10761380D01*
X13115802Y-10632715D01*
X13188169Y-10458006D01*
X13215892Y-10318634D01*
X13417366Y-10315963D01*
X13636353Y-10269378D01*
X13850568Y-10168079D01*
X13885010Y-9955212D01*
X12901457Y-8971659D01*
X12887315Y-8985802D01*
X12757738Y-8856225D01*
X12753172Y-8847683D01*
X12713979Y-8799927D01*
X12721852Y-8792054D01*
X13081062Y-8792054D01*
X14064615Y-9775607D01*
X14277482Y-9741165D01*
X14378781Y-9526950D01*
X14425366Y-9307963D01*
X14428334Y-9084095D01*
X14387570Y-8863949D01*
X14304641Y-8655987D01*
X14182734Y-8468199D01*
X13793826Y-8079290D01*
X13081062Y-8792054D01*
X12721852Y-8792054D01*
X11738299Y-7808501D01*
X11731296Y-7809634D01*
X11648515Y-7725687D01*
X11551823Y-7646334D01*
X11519200Y-7628896D01*
X11917904Y-7628896D01*
X12901457Y-8612449D01*
X13614221Y-7899685D01*
X13225312Y-7510777D01*
X13037524Y-7388870D01*
X12829562Y-7305941D01*
X12609416Y-7265177D01*
X12385548Y-7268145D01*
X12166561Y-7314730D01*
X11952346Y-7416029D01*
X11917904Y-7628896D01*
X11519200Y-7628896D01*
X11441509Y-7587369D01*
X11321811Y-7551060D01*
X11197330Y-7538800D01*
X11072848Y-7551060D01*
X10953150Y-7587369D01*
X10842836Y-7646334D01*
X10746145Y-7725687D01*
X10738241Y-7737935D01*
X10738241Y-7962439D01*
X10625989Y-7850187D01*
X10624233Y-7851944D01*
X10502615Y-7730326D01*
X10493304Y-7683517D01*
X10411515Y-7486060D01*
X10292775Y-7308353D01*
X10141647Y-7157225D01*
X9963940Y-7038485D01*
X9766483Y-6956696D01*
X9556863Y-6915000D01*
X9343137Y-6915000D01*
X9133517Y-6956696D01*
X8936060Y-7038485D01*
X8758353Y-7157225D01*
X8607225Y-7308353D01*
X8488485Y-7486060D01*
X8406696Y-7683517D01*
X8365000Y-7893137D01*
X8365000Y-8106863D01*
X8406696Y-8316483D01*
X8452101Y-8426101D01*
X8327271Y-8450932D01*
X8157111Y-8521414D01*
X8121428Y-8545257D01*
X7408089Y-7831918D01*
X7450614Y-7751476D01*
X7486375Y-7631613D01*
X7498065Y-7507077D01*
X7495000Y-7485750D01*
X7336250Y-7327000D01*
X6707000Y-7327000D01*
X6707000Y-7347000D01*
X6607870Y-7347000D01*
X6675172Y-7221087D01*
X6720094Y-7073000D01*
X7336250Y-7073000D01*
X7495000Y-6914250D01*
X7498065Y-6892923D01*
X7486375Y-6768387D01*
X7450614Y-6648524D01*
X7392156Y-6537941D01*
X7313247Y-6440887D01*
X7216921Y-6361092D01*
X7106878Y-6301623D01*
X6987348Y-6264765D01*
X6865750Y-6255000D01*
X6735000Y-6385750D01*
X6735000Y-6355501D01*
X6801185Y-6301185D01*
X6880537Y-6204494D01*
X6939502Y-6094180D01*
X6975812Y-5974482D01*
X6988072Y-5850000D01*
X8211928Y-5850000D01*
X8224188Y-5974482D01*
X8260498Y-6094180D01*
X8319463Y-6204494D01*
X8398815Y-6301185D01*
X8495506Y-6380537D01*
X8605820Y-6439502D01*
X8725518Y-6475812D01*
X8850000Y-6488072D01*
X9014250Y-6485000D01*
X9173000Y-6326250D01*
X9173000Y-5127000D01*
X9427000Y-5127000D01*
X9427000Y-6326250D01*
X9585750Y-6485000D01*
X9750000Y-6488072D01*
X9874482Y-6475812D01*
X9994180Y-6439502D01*
X10104494Y-6380537D01*
X10201185Y-6301185D01*
X10280537Y-6204494D01*
X10339502Y-6094180D01*
X10375812Y-5974482D01*
X10388072Y-5850000D01*
X10385000Y-5285750D01*
X10226250Y-5127000D01*
X9427000Y-5127000D01*
X9173000Y-5127000D01*
X8373750Y-5127000D01*
X8215000Y-5285750D01*
X8211928Y-5850000D01*
X6988072Y-5850000D01*
X6988072Y-4150000D01*
X8211928Y-4150000D01*
X8215000Y-4714250D01*
X8373750Y-4873000D01*
X9173000Y-4873000D01*
X9173000Y-3673750D01*
X9427000Y-3673750D01*
X9427000Y-4873000D01*
X10226250Y-4873000D01*
X10385000Y-4714250D01*
X10388072Y-4150000D01*
X10375812Y-4025518D01*
X10339502Y-3905820D01*
X10280537Y-3795506D01*
X10201185Y-3698815D01*
X10104494Y-3619463D01*
X9994180Y-3560498D01*
X9874482Y-3524188D01*
X9750000Y-3511928D01*
X9585750Y-3515000D01*
X9427000Y-3673750D01*
X9173000Y-3673750D01*
X9014250Y-3515000D01*
X8850000Y-3511928D01*
X8725518Y-3524188D01*
X8605820Y-3560498D01*
X8495506Y-3619463D01*
X8398815Y-3698815D01*
X8319463Y-3795506D01*
X8260498Y-3905820D01*
X8224188Y-4025518D01*
X8211928Y-4150000D01*
X6988072Y-4150000D01*
X6975812Y-4025518D01*
X6939502Y-3905820D01*
X6880537Y-3795506D01*
X6841977Y-3748521D01*
X6895819Y-3743218D01*
X7040842Y-3699225D01*
X7160999Y-3635000D01*
X7358982Y-3635000D01*
X7400000Y-3639040D01*
X7441018Y-3635000D01*
X7441019Y-3635000D01*
X7563689Y-3622918D01*
X7721087Y-3575172D01*
X7857977Y-3502002D01*
X7872729Y-3499068D01*
X8042889Y-3428586D01*
X8196028Y-3326262D01*
X8326262Y-3196028D01*
X8428586Y-3042889D01*
X8499068Y-2872729D01*
X8535000Y-2692089D01*
X8535000Y-2507911D01*
X8499068Y-2327271D01*
X8435000Y-2172596D01*
X8435000Y-2171502D01*
X8498274Y-2053125D01*
X8542977Y-1905757D01*
X8558072Y-1752500D01*
X8558072Y-1457500D01*
X8542977Y-1304243D01*
X8498274Y-1156875D01*
X8478564Y-1120000D01*
X8498274Y-1083125D01*
X8542977Y-935757D01*
X8558072Y-782500D01*
X8558072Y-487500D01*
X8542977Y-334243D01*
X8498274Y-186875D01*
X8425679Y-51060D01*
X8327983Y67983D01*
X8208940Y165679D01*
X8073125Y238274D01*
X7925757Y282977D01*
X7772500Y298072D01*
X7427500Y298072D01*
X7274243Y282977D01*
X7126875Y238274D01*
X7047849Y196034D01*
X6967755Y238845D01*
X6821794Y283122D01*
X6670000Y298072D01*
X6330000Y298072D01*
X6178206Y283122D01*
X6032245Y238845D01*
X5950000Y194884D01*
X5867755Y238845D01*
X5752192Y273901D01*
X5755000Y304250D01*
X5596250Y463000D01*
X4927000Y463000D01*
X4927000Y443000D01*
X4673000Y443000D01*
X4673000Y463000D01*
X4653000Y463000D01*
X4653000Y701928D01*
X4985000Y701928D01*
X5135819Y716782D01*
X5136538Y717000D01*
X5596250Y717000D01*
X5755000Y875750D01*
X5744226Y992202D01*
X5706441Y1111442D01*
X5684416Y1151451D01*
X5699225Y1179158D01*
X5743218Y1324181D01*
X5758072Y1475000D01*
X5758072Y1745000D01*
X5748980Y1837317D01*
X5914250Y1840000D01*
X6073000Y1998750D01*
X6073000Y2798000D01*
X6327000Y2798000D01*
X6327000Y1998750D01*
X6485750Y1840000D01*
X6675000Y1836928D01*
X6799482Y1849188D01*
X6919180Y1885498D01*
X7029494Y1944463D01*
X7126185Y2023815D01*
X7205537Y2120506D01*
X7264502Y2230820D01*
X7300812Y2350518D01*
X7313072Y2475000D01*
X7310000Y2639250D01*
X7151250Y2798000D01*
X6327000Y2798000D01*
X6073000Y2798000D01*
X6053000Y2798000D01*
X6053000Y3052000D01*
X6073000Y3052000D01*
X6073000Y3072000D01*
X6327000Y3072000D01*
X6327000Y3052000D01*
X7151250Y3052000D01*
X7310000Y3210750D01*
X7313072Y3375000D01*
X7300812Y3499482D01*
X7264502Y3619180D01*
X7205537Y3729494D01*
X7169300Y3773649D01*
X7247375Y3919717D01*
X7296488Y4081623D01*
X7313072Y4250000D01*
X7313072Y4700000D01*
X7296488Y4868377D01*
X7247375Y5030283D01*
X7167618Y5179497D01*
X7067619Y5301346D01*
X7099068Y5377271D01*
X7135000Y5557911D01*
X7135000Y5742089D01*
X7099068Y5922729D01*
X7028586Y6092889D01*
X6926262Y6246028D01*
X6796028Y6376262D01*
X6642889Y6478586D01*
X6472729Y6549068D01*
X6292089Y6585000D01*
X6107911Y6585000D01*
X5927271Y6549068D01*
X5817950Y6503786D01*
X6053665Y6739501D01*
X6089344Y6768782D01*
X6140328Y6830906D01*
X6267775Y6958353D01*
X6386515Y7136060D01*
X6468304Y7333517D01*
X6510000Y7543137D01*
X6510000Y7756863D01*
X6468304Y7966483D01*
X6386515Y8163940D01*
X6267775Y8341647D01*
X6116647Y8492775D01*
X5938940Y8611515D01*
X5741483Y8693304D01*
X5531863Y8735000D01*
X5318137Y8735000D01*
X5277928Y8727002D01*
X5136252Y8727002D01*
X5295000Y8885750D01*
X5298065Y8907077D01*
X5286375Y9031613D01*
X5277714Y9060643D01*
X5361515Y9186060D01*
X5443304Y9383517D01*
X5485000Y9593137D01*
X5485000Y9806863D01*
X5443304Y10016483D01*
X5361515Y10213940D01*
X5242775Y10391647D01*
X5091647Y10542775D01*
X4913940Y10661515D01*
X4716483Y10743304D01*
X4506863Y10785000D01*
X4293137Y10785000D01*
X4083517Y10743304D01*
X3886060Y10661515D01*
X3846377Y10635000D01*
X3776056Y10635000D01*
X3794180Y10640498D01*
X3904494Y10699463D01*
X4001185Y10778815D01*
X4080537Y10875506D01*
X4139502Y10985820D01*
X4175812Y11105518D01*
X4188072Y11230000D01*
X4187247Y11347896D01*
X4193000Y11352046D01*
X4193000Y12743000D01*
X4447000Y12743000D01*
X4447000Y11352046D01*
X4621874Y11225881D01*
X4844976Y11305724D01*
X5032764Y11427631D01*
X5193161Y11583831D01*
X5320003Y11768322D01*
X5408415Y11974013D01*
X5455000Y12193000D01*
X5455000Y12743000D01*
X4447000Y12743000D01*
X4193000Y12743000D01*
X4181867Y12743000D01*
X4175812Y12804482D01*
X4173000Y12813752D01*
X4173000Y12997000D01*
X4193000Y12997000D01*
X4193000Y13017000D01*
X4447000Y13017000D01*
X4447000Y12997000D01*
X5455000Y12997000D01*
X5455000Y13547000D01*
X5424261Y13691498D01*
X5519158Y13640775D01*
X5664181Y13596782D01*
X5815000Y13581928D01*
X6185000Y13581928D01*
X6335819Y13596782D01*
X6480842Y13640775D01*
X6614496Y13712214D01*
X6731644Y13808356D01*
X6827786Y13925504D01*
X6899225Y14059158D01*
X6915001Y14111163D01*
X6915001Y12376353D01*
G37*
G04 #@! TD.AperFunction*
D26*
X-11549020Y-6740265D02*
X-11553060Y-6781284D01*
X-11542401Y-6889502D01*
X-11536938Y-6944972D01*
X-11489192Y-7102370D01*
X-11411656Y-7247429D01*
X-11307311Y-7374575D01*
X-11275442Y-7400729D01*
X-11130821Y-7545350D01*
X-11197330Y-7538800D01*
X-11321811Y-7551060D01*
X-11441509Y-7587369D01*
X-11551823Y-7646334D01*
X-11648515Y-7725687D01*
X-11731296Y-7809634D01*
X-11738299Y-7808501D01*
X-12721852Y-8792054D01*
X-12713979Y-8799927D01*
X-12753172Y-8847683D01*
X-12757738Y-8856225D01*
X-12887315Y-8985802D01*
X-12901457Y-8971659D01*
X-13885010Y-9955212D01*
X-13850568Y-10168079D01*
X-13636353Y-10269378D01*
X-13417366Y-10315963D01*
X-13215892Y-10318634D01*
X-13188169Y-10458006D01*
X-13115802Y-10632715D01*
X-13010742Y-10789948D01*
X-12877025Y-10923665D01*
X-12719792Y-11028725D01*
X-12545083Y-11101092D01*
X-12359613Y-11137984D01*
X-12170509Y-11137984D01*
X-11985039Y-11101092D01*
X-11810330Y-11028725D01*
X-11653097Y-10923665D01*
X-11526217Y-10796785D01*
X-11507093Y-10820087D01*
X-11479782Y-10847398D01*
X-11484268Y-10892941D01*
X-11484268Y-10892948D01*
X-11488065Y-10931501D01*
X-11484268Y-10970054D01*
X-11484268Y-11682624D01*
X-11488065Y-11721177D01*
X-11484268Y-11759730D01*
X-11484268Y-11759738D01*
X-11472909Y-11875064D01*
X-11461278Y-11913406D01*
X-11428022Y-12023036D01*
X-11401788Y-12072116D01*
X-11355129Y-12159410D01*
X-11321681Y-12200166D01*
X-11281613Y-12248989D01*
X-11281609Y-12248993D01*
X-11257031Y-12278941D01*
X-11227083Y-12303519D01*
X-9772807Y-13757795D01*
X-9748224Y-13787749D01*
X-9628693Y-13885847D01*
X-9564984Y-13919900D01*
X-9564985Y-16507958D01*
X-9632497Y-16507063D01*
X-9852643Y-16547827D01*
X-10060605Y-16630756D01*
X-10248393Y-16752662D01*
X-10460525Y-16964794D01*
X-9747761Y-17677558D01*
X-9733619Y-17663416D01*
X-9554014Y-17843021D01*
X-9568156Y-17857163D01*
X-8855392Y-18569927D01*
X-8643260Y-18357795D01*
X-8576480Y-18254925D01*
X-8340674Y-18490731D01*
X-8301123Y-18621111D01*
X-8229684Y-18754765D01*
X-8133542Y-18871913D01*
X-7871913Y-19133542D01*
X-7754765Y-19229684D01*
X-7621111Y-19301123D01*
X-7534460Y-19327409D01*
X-8044400Y-19778566D01*
X-8060575Y-19791840D01*
X-9649999Y-21381264D01*
X-12187719Y-18843544D01*
X-10554537Y-18843544D01*
X-10520095Y-19056411D01*
X-10305880Y-19157711D01*
X-10086893Y-19204295D01*
X-9863025Y-19207263D01*
X-9642879Y-19166499D01*
X-9434917Y-19083570D01*
X-9247129Y-18961664D01*
X-9034997Y-18749532D01*
X-9747761Y-18036768D01*
X-10554537Y-18843544D01*
X-12187719Y-18843544D01*
X-13058836Y-17972427D01*
X-11097861Y-17972427D01*
X-11094893Y-18196295D01*
X-11048309Y-18415282D01*
X-10947009Y-18629497D01*
X-10734142Y-18663939D01*
X-9927366Y-17857163D01*
X-10640130Y-17144399D01*
X-10852262Y-17356531D01*
X-10974168Y-17544319D01*
X-11057097Y-17752281D01*
X-11097861Y-17972427D01*
X-13058836Y-17972427D01*
X-18297121Y-12734142D01*
X-16663939Y-12734142D01*
X-16629497Y-12947009D01*
X-16415282Y-13048309D01*
X-16196295Y-13094893D01*
X-15972427Y-13097861D01*
X-15752281Y-13057097D01*
X-15544319Y-12974168D01*
X-15356531Y-12852262D01*
X-15144399Y-12640130D01*
X-15857163Y-11927366D01*
X-16663939Y-12734142D01*
X-18297121Y-12734142D01*
X-19168238Y-11863025D01*
X-17207263Y-11863025D01*
X-17204295Y-12086893D01*
X-17157711Y-12305880D01*
X-17056411Y-12520095D01*
X-16843544Y-12554537D01*
X-16036768Y-11747761D01*
X-15677558Y-11747761D01*
X-14964794Y-12460525D01*
X-14752662Y-12248393D01*
X-14630756Y-12060605D01*
X-14547827Y-11852643D01*
X-14507063Y-11632497D01*
X-14510031Y-11408629D01*
X-14556615Y-11189642D01*
X-14657915Y-10975427D01*
X-14870782Y-10940985D01*
X-15677558Y-11747761D01*
X-16036768Y-11747761D01*
X-16749532Y-11034997D01*
X-16961664Y-11247129D01*
X-17083570Y-11434917D01*
X-17166499Y-11642879D01*
X-17207263Y-11863025D01*
X-19168238Y-11863025D01*
X-19380926Y-11650338D01*
X-18584869Y-10855392D01*
X-16569927Y-10855392D01*
X-15857163Y-11568156D01*
X-15050387Y-10761380D01*
X-15084829Y-10548513D01*
X-15299044Y-10447213D01*
X-15518031Y-10400629D01*
X-15741899Y-10397661D01*
X-15962045Y-10438425D01*
X-16170007Y-10521354D01*
X-16357795Y-10643260D01*
X-16569927Y-10855392D01*
X-18584869Y-10855392D01*
X-16811096Y-9084095D01*
X-14428334Y-9084095D01*
X-14425366Y-9307963D01*
X-14378781Y-9526950D01*
X-14277482Y-9741165D01*
X-14064615Y-9775607D01*
X-13081062Y-8792054D01*
X-13793826Y-8079290D01*
X-14182734Y-8468199D01*
X-14304641Y-8655987D01*
X-14387570Y-8863949D01*
X-14428334Y-9084095D01*
X-16811096Y-9084095D01*
X-15625030Y-7899685D01*
X-13614221Y-7899685D01*
X-12901457Y-8612449D01*
X-11917904Y-7628896D01*
X-11952346Y-7416029D01*
X-12166561Y-7314730D01*
X-12385548Y-7268145D01*
X-12609416Y-7265177D01*
X-12829562Y-7305941D01*
X-13037524Y-7388870D01*
X-13225312Y-7510777D01*
X-13614221Y-7899685D01*
X-15625030Y-7899685D01*
X-13088169Y-5366367D01*
X-13023963Y-5288242D01*
X-13015113Y-5271713D01*
X-11944761Y-3814605D01*
X-11943580Y-3812864D01*
X-11942295Y-3811225D01*
X-11917499Y-3774602D01*
X-11549019Y-3190597D01*
X-11549020Y-6740265D01*
G04 #@! TA.AperFunction,Conductor*
D27*
G36*
X-11549020Y-6740265D02*
G01*
X-11553060Y-6781284D01*
X-11542401Y-6889502D01*
X-11536938Y-6944972D01*
X-11489192Y-7102370D01*
X-11411656Y-7247429D01*
X-11307311Y-7374575D01*
X-11275442Y-7400729D01*
X-11130821Y-7545350D01*
X-11197330Y-7538800D01*
X-11321811Y-7551060D01*
X-11441509Y-7587369D01*
X-11551823Y-7646334D01*
X-11648515Y-7725687D01*
X-11731296Y-7809634D01*
X-11738299Y-7808501D01*
X-12721852Y-8792054D01*
X-12713979Y-8799927D01*
X-12753172Y-8847683D01*
X-12757738Y-8856225D01*
X-12887315Y-8985802D01*
X-12901457Y-8971659D01*
X-13885010Y-9955212D01*
X-13850568Y-10168079D01*
X-13636353Y-10269378D01*
X-13417366Y-10315963D01*
X-13215892Y-10318634D01*
X-13188169Y-10458006D01*
X-13115802Y-10632715D01*
X-13010742Y-10789948D01*
X-12877025Y-10923665D01*
X-12719792Y-11028725D01*
X-12545083Y-11101092D01*
X-12359613Y-11137984D01*
X-12170509Y-11137984D01*
X-11985039Y-11101092D01*
X-11810330Y-11028725D01*
X-11653097Y-10923665D01*
X-11526217Y-10796785D01*
X-11507093Y-10820087D01*
X-11479782Y-10847398D01*
X-11484268Y-10892941D01*
X-11484268Y-10892948D01*
X-11488065Y-10931501D01*
X-11484268Y-10970054D01*
X-11484268Y-11682624D01*
X-11488065Y-11721177D01*
X-11484268Y-11759730D01*
X-11484268Y-11759738D01*
X-11472909Y-11875064D01*
X-11461278Y-11913406D01*
X-11428022Y-12023036D01*
X-11401788Y-12072116D01*
X-11355129Y-12159410D01*
X-11321681Y-12200166D01*
X-11281613Y-12248989D01*
X-11281609Y-12248993D01*
X-11257031Y-12278941D01*
X-11227083Y-12303519D01*
X-9772807Y-13757795D01*
X-9748224Y-13787749D01*
X-9628693Y-13885847D01*
X-9564984Y-13919900D01*
X-9564985Y-16507958D01*
X-9632497Y-16507063D01*
X-9852643Y-16547827D01*
X-10060605Y-16630756D01*
X-10248393Y-16752662D01*
X-10460525Y-16964794D01*
X-9747761Y-17677558D01*
X-9733619Y-17663416D01*
X-9554014Y-17843021D01*
X-9568156Y-17857163D01*
X-8855392Y-18569927D01*
X-8643260Y-18357795D01*
X-8576480Y-18254925D01*
X-8340674Y-18490731D01*
X-8301123Y-18621111D01*
X-8229684Y-18754765D01*
X-8133542Y-18871913D01*
X-7871913Y-19133542D01*
X-7754765Y-19229684D01*
X-7621111Y-19301123D01*
X-7534460Y-19327409D01*
X-8044400Y-19778566D01*
X-8060575Y-19791840D01*
X-9649999Y-21381264D01*
X-12187719Y-18843544D01*
X-10554537Y-18843544D01*
X-10520095Y-19056411D01*
X-10305880Y-19157711D01*
X-10086893Y-19204295D01*
X-9863025Y-19207263D01*
X-9642879Y-19166499D01*
X-9434917Y-19083570D01*
X-9247129Y-18961664D01*
X-9034997Y-18749532D01*
X-9747761Y-18036768D01*
X-10554537Y-18843544D01*
X-12187719Y-18843544D01*
X-13058836Y-17972427D01*
X-11097861Y-17972427D01*
X-11094893Y-18196295D01*
X-11048309Y-18415282D01*
X-10947009Y-18629497D01*
X-10734142Y-18663939D01*
X-9927366Y-17857163D01*
X-10640130Y-17144399D01*
X-10852262Y-17356531D01*
X-10974168Y-17544319D01*
X-11057097Y-17752281D01*
X-11097861Y-17972427D01*
X-13058836Y-17972427D01*
X-18297121Y-12734142D01*
X-16663939Y-12734142D01*
X-16629497Y-12947009D01*
X-16415282Y-13048309D01*
X-16196295Y-13094893D01*
X-15972427Y-13097861D01*
X-15752281Y-13057097D01*
X-15544319Y-12974168D01*
X-15356531Y-12852262D01*
X-15144399Y-12640130D01*
X-15857163Y-11927366D01*
X-16663939Y-12734142D01*
X-18297121Y-12734142D01*
X-19168238Y-11863025D01*
X-17207263Y-11863025D01*
X-17204295Y-12086893D01*
X-17157711Y-12305880D01*
X-17056411Y-12520095D01*
X-16843544Y-12554537D01*
X-16036768Y-11747761D01*
X-15677558Y-11747761D01*
X-14964794Y-12460525D01*
X-14752662Y-12248393D01*
X-14630756Y-12060605D01*
X-14547827Y-11852643D01*
X-14507063Y-11632497D01*
X-14510031Y-11408629D01*
X-14556615Y-11189642D01*
X-14657915Y-10975427D01*
X-14870782Y-10940985D01*
X-15677558Y-11747761D01*
X-16036768Y-11747761D01*
X-16749532Y-11034997D01*
X-16961664Y-11247129D01*
X-17083570Y-11434917D01*
X-17166499Y-11642879D01*
X-17207263Y-11863025D01*
X-19168238Y-11863025D01*
X-19380926Y-11650338D01*
X-18584869Y-10855392D01*
X-16569927Y-10855392D01*
X-15857163Y-11568156D01*
X-15050387Y-10761380D01*
X-15084829Y-10548513D01*
X-15299044Y-10447213D01*
X-15518031Y-10400629D01*
X-15741899Y-10397661D01*
X-15962045Y-10438425D01*
X-16170007Y-10521354D01*
X-16357795Y-10643260D01*
X-16569927Y-10855392D01*
X-18584869Y-10855392D01*
X-16811096Y-9084095D01*
X-14428334Y-9084095D01*
X-14425366Y-9307963D01*
X-14378781Y-9526950D01*
X-14277482Y-9741165D01*
X-14064615Y-9775607D01*
X-13081062Y-8792054D01*
X-13793826Y-8079290D01*
X-14182734Y-8468199D01*
X-14304641Y-8655987D01*
X-14387570Y-8863949D01*
X-14428334Y-9084095D01*
X-16811096Y-9084095D01*
X-15625030Y-7899685D01*
X-13614221Y-7899685D01*
X-12901457Y-8612449D01*
X-11917904Y-7628896D01*
X-11952346Y-7416029D01*
X-12166561Y-7314730D01*
X-12385548Y-7268145D01*
X-12609416Y-7265177D01*
X-12829562Y-7305941D01*
X-13037524Y-7388870D01*
X-13225312Y-7510777D01*
X-13614221Y-7899685D01*
X-15625030Y-7899685D01*
X-13088169Y-5366367D01*
X-13023963Y-5288242D01*
X-13015113Y-5271713D01*
X-11944761Y-3814605D01*
X-11943580Y-3812864D01*
X-11942295Y-3811225D01*
X-11917499Y-3774602D01*
X-11549019Y-3190597D01*
X-11549020Y-6740265D01*
G37*
G04 #@! TD.AperFunction*
D26*
X-4199068Y-9772729D02*
X-4128586Y-9942889D01*
X-4026262Y-10096028D01*
X-3896028Y-10226262D01*
X-3742889Y-10328586D01*
X-3588214Y-10392654D01*
X-3338940Y-10641928D01*
X-3450000Y-10641928D01*
X-3601794Y-10656878D01*
X-3747755Y-10701155D01*
X-3882274Y-10773057D01*
X-4000180Y-10869820D01*
X-4096943Y-10987726D01*
X-4168845Y-11122245D01*
X-4213122Y-11268206D01*
X-4228072Y-11420000D01*
X-4228072Y-11700000D01*
X-4213122Y-11851794D01*
X-4173172Y-11983491D01*
X-4178377Y-11993122D01*
X-4215235Y-12112652D01*
X-4225000Y-12234250D01*
X-4066250Y-12393000D01*
X-3796108Y-12393000D01*
X-3747755Y-12418845D01*
X-3601794Y-12463122D01*
X-3450000Y-12478072D01*
X-3110000Y-12478072D01*
X-2958206Y-12463122D01*
X-2812245Y-12418845D01*
X-2763892Y-12393000D01*
X-2493750Y-12393000D01*
X-2485750Y-12385000D01*
X-2366728Y-12385000D01*
X-2325710Y-12389040D01*
X-2284692Y-12385000D01*
X-2284691Y-12385000D01*
X-2162021Y-12372918D01*
X-2004623Y-12325172D01*
X-1859564Y-12247636D01*
X-1732419Y-12143291D01*
X-1706265Y-12111422D01*
X-1343574Y-11748732D01*
X-1311709Y-11722581D01*
X-1306670Y-11716441D01*
X-1289494Y-11730537D01*
X-1179180Y-11789502D01*
X-1059482Y-11825812D01*
X-935000Y-11838072D01*
X-920750Y-11835000D01*
X-762000Y-11676250D01*
X-762000Y-10352000D01*
X-782000Y-10352000D01*
X-782000Y-10098000D01*
X-762000Y-10098000D01*
X-762000Y-10078000D01*
X-508000Y-10078000D01*
X-508000Y-10098000D01*
X-488000Y-10098000D01*
X-488000Y-10352000D01*
X-508000Y-10352000D01*
X-508000Y-11676250D01*
X-349250Y-11835000D01*
X-335000Y-11838072D01*
X-310000Y-11835610D01*
X-310000Y-11967089D01*
X-274068Y-12147729D01*
X-203586Y-12317889D01*
X-101262Y-12471028D01*
X28972Y-12601262D01*
X182111Y-12703586D01*
X352271Y-12774068D01*
X532911Y-12810000D01*
X717089Y-12810000D01*
X897729Y-12774068D01*
X1067889Y-12703586D01*
X1221028Y-12601262D01*
X1275000Y-12547290D01*
X1353972Y-12626262D01*
X1507111Y-12728586D01*
X1677271Y-12799068D01*
X1857911Y-12835000D01*
X2042089Y-12835000D01*
X2222729Y-12799068D01*
X2392889Y-12728586D01*
X2546028Y-12626262D01*
X2675000Y-12497290D01*
X2778972Y-12601262D01*
X2932111Y-12703586D01*
X3102271Y-12774068D01*
X3282911Y-12810000D01*
X3467089Y-12810000D01*
X3647729Y-12774068D01*
X3817889Y-12703586D01*
X3971028Y-12601262D01*
X4101262Y-12471028D01*
X4203586Y-12317889D01*
X4274068Y-12147729D01*
X4310000Y-11967089D01*
X4310000Y-11807731D01*
X4415000Y-11818072D01*
X4785000Y-11818072D01*
X4935819Y-11803218D01*
X4967883Y-11793491D01*
X5038485Y-11963940D01*
X5157225Y-12141647D01*
X5308353Y-12292775D01*
X5486060Y-12411515D01*
X5683517Y-12493304D01*
X5730326Y-12502615D01*
X5851944Y-12624233D01*
X5850187Y-12625989D01*
X5962439Y-12738241D01*
X5737935Y-12738241D01*
X5725687Y-12746145D01*
X5646334Y-12842836D01*
X5587369Y-12953150D01*
X5551060Y-13072848D01*
X5538800Y-13197330D01*
X5551060Y-13321811D01*
X5587369Y-13441509D01*
X5646334Y-13551823D01*
X5725687Y-13648515D01*
X5809634Y-13731296D01*
X5808501Y-13738299D01*
X6792054Y-14721852D01*
X6799927Y-14713979D01*
X6847683Y-14753172D01*
X6856225Y-14757738D01*
X6985802Y-14887315D01*
X6971659Y-14901457D01*
X7955212Y-15885010D01*
X8073044Y-15865945D01*
X8073044Y-16538047D01*
X7444946Y-17166145D01*
X7292212Y-17166145D01*
X6967149Y-17491208D01*
X6966483Y-17491564D01*
X6849335Y-17587706D01*
X6614576Y-17822466D01*
X6445629Y-17653519D01*
X6459771Y-17639376D01*
X6021895Y-17201500D01*
X5797389Y-17201500D01*
X5776605Y-17218008D01*
X5696065Y-17313712D01*
X5635743Y-17423288D01*
X5597956Y-17542529D01*
X5584159Y-17666850D01*
X5594882Y-17791473D01*
X5629710Y-17911611D01*
X5671828Y-17992804D01*
X4869164Y-17556993D01*
X4858314Y-17551933D01*
X4847955Y-17545953D01*
X4793363Y-17521647D01*
X3572374Y-17040687D01*
X3560993Y-17036989D01*
X3549979Y-17032314D01*
X3492831Y-17014842D01*
X2652003Y-16797389D01*
X6201500Y-16797389D01*
X6201500Y-17021895D01*
X6639376Y-17459771D01*
X7112607Y-16986540D01*
X7112607Y-16762033D01*
X7022645Y-16687308D01*
X6911611Y-16629710D01*
X6791473Y-16594882D01*
X6666850Y-16584159D01*
X6542529Y-16597956D01*
X6423288Y-16635743D01*
X6313712Y-16696065D01*
X6218008Y-16776605D01*
X6201500Y-16797389D01*
X2652003Y-16797389D01*
X2439511Y-16742435D01*
X2449180Y-16739502D01*
X2559494Y-16680537D01*
X2656185Y-16601185D01*
X2735537Y-16504494D01*
X2794502Y-16394180D01*
X2830812Y-16274482D01*
X2843072Y-16150000D01*
X2841485Y-15793826D01*
X6079290Y-15793826D01*
X6468199Y-16182734D01*
X6655987Y-16304641D01*
X6863949Y-16387570D01*
X7084095Y-16428334D01*
X7307963Y-16425366D01*
X7526950Y-16378781D01*
X7741165Y-16277482D01*
X7775607Y-16064615D01*
X6792054Y-15081062D01*
X6079290Y-15793826D01*
X2841485Y-15793826D01*
X2840000Y-15460750D01*
X2681250Y-15302000D01*
X2032000Y-15302000D01*
X2032000Y-15322000D01*
X1778000Y-15322000D01*
X1778000Y-15302000D01*
X762000Y-15302000D01*
X762000Y-15322000D01*
X508000Y-15322000D01*
X508000Y-15302000D01*
X-508000Y-15302000D01*
X-508000Y-15322000D01*
X-762000Y-15322000D01*
X-762000Y-15302000D01*
X-1778000Y-15302000D01*
X-1778000Y-15322000D01*
X-2032000Y-15322000D01*
X-2032000Y-15302000D01*
X-2681250Y-15302000D01*
X-2840000Y-15460750D01*
X-2843072Y-16150000D01*
X-2830812Y-16274482D01*
X-2794502Y-16394180D01*
X-2735537Y-16504494D01*
X-2656185Y-16601185D01*
X-2559494Y-16680537D01*
X-2449180Y-16739502D01*
X-2428538Y-16745764D01*
X-3302327Y-16955542D01*
X-3313766Y-16959039D01*
X-3325475Y-16961528D01*
X-3382293Y-16979990D01*
X-3382310Y-16979995D01*
X-3382315Y-16979997D01*
X-4611506Y-17439573D01*
X-4622433Y-17444438D01*
X-4633751Y-17448335D01*
X-4687911Y-17473590D01*
X-5666839Y-17983187D01*
X-5629710Y-17911611D01*
X-5594882Y-17791473D01*
X-5584159Y-17666850D01*
X-5597956Y-17542529D01*
X-5635743Y-17423288D01*
X-5696065Y-17313712D01*
X-5776605Y-17218008D01*
X-5797389Y-17201500D01*
X-6021895Y-17201500D01*
X-6459771Y-17639376D01*
X-6445629Y-17653519D01*
X-6614576Y-17822466D01*
X-6849335Y-17587706D01*
X-6966483Y-17491564D01*
X-6967149Y-17491208D01*
X-7292212Y-17166145D01*
X-7444946Y-17166145D01*
X-7849058Y-16762033D01*
X-7112607Y-16762033D01*
X-7112607Y-16986540D01*
X-6639376Y-17459771D01*
X-6201500Y-17021895D01*
X-6201500Y-16797389D01*
X-6218008Y-16776605D01*
X-6313712Y-16696065D01*
X-6423288Y-16635743D01*
X-6542529Y-16597956D01*
X-6666850Y-16584159D01*
X-6791473Y-16594882D01*
X-6911611Y-16629710D01*
X-7022645Y-16687308D01*
X-7112607Y-16762033D01*
X-7849058Y-16762033D01*
X-7994985Y-16616106D01*
X-7994985Y-16064615D01*
X-7775607Y-16064615D01*
X-7741165Y-16277482D01*
X-7526950Y-16378781D01*
X-7307963Y-16425366D01*
X-7084095Y-16428334D01*
X-6863949Y-16387570D01*
X-6655987Y-16304641D01*
X-6468199Y-16182734D01*
X-6079290Y-15793826D01*
X-6792054Y-15081062D01*
X-7775607Y-16064615D01*
X-7994985Y-16064615D01*
X-7994985Y-15878575D01*
X-7955212Y-15885010D01*
X-6971659Y-14901457D01*
X-6612449Y-14901457D01*
X-5899685Y-15614221D01*
X-5510777Y-15225312D01*
X-5388870Y-15037524D01*
X-5305941Y-14829562D01*
X-5265177Y-14609416D01*
X-5268145Y-14385548D01*
X-5307616Y-14200000D01*
X-2843072Y-14200000D01*
X-2840000Y-14889250D01*
X-2681250Y-15048000D01*
X-2032000Y-15048000D01*
X-2032000Y-13723750D01*
X-1778000Y-13723750D01*
X-1778000Y-15048000D01*
X-762000Y-15048000D01*
X-762000Y-13723750D01*
X-508000Y-13723750D01*
X-508000Y-15048000D01*
X508000Y-15048000D01*
X508000Y-13723750D01*
X762000Y-13723750D01*
X762000Y-15048000D01*
X1778000Y-15048000D01*
X1778000Y-13723750D01*
X2032000Y-13723750D01*
X2032000Y-15048000D01*
X2681250Y-15048000D01*
X2840000Y-14889250D01*
X2841247Y-14609416D01*
X5265177Y-14609416D01*
X5305941Y-14829562D01*
X5388870Y-15037524D01*
X5510777Y-15225312D01*
X5899685Y-15614221D01*
X6612449Y-14901457D01*
X5628896Y-13917904D01*
X5416029Y-13952346D01*
X5314730Y-14166561D01*
X5268145Y-14385548D01*
X5265177Y-14609416D01*
X2841247Y-14609416D01*
X2843072Y-14200000D01*
X2830812Y-14075518D01*
X2794502Y-13955820D01*
X2735537Y-13845506D01*
X2656185Y-13748815D01*
X2559494Y-13669463D01*
X2449180Y-13610498D01*
X2329482Y-13574188D01*
X2205000Y-13561928D01*
X2190750Y-13565000D01*
X2032000Y-13723750D01*
X1778000Y-13723750D01*
X1619250Y-13565000D01*
X1605000Y-13561928D01*
X1480518Y-13574188D01*
X1360820Y-13610498D01*
X1270000Y-13659043D01*
X1179180Y-13610498D01*
X1059482Y-13574188D01*
X935000Y-13561928D01*
X920750Y-13565000D01*
X762000Y-13723750D01*
X508000Y-13723750D01*
X349250Y-13565000D01*
X335000Y-13561928D01*
X210518Y-13574188D01*
X90820Y-13610498D01*
X0Y-13659043D01*
X-90820Y-13610498D01*
X-210518Y-13574188D01*
X-335000Y-13561928D01*
X-349250Y-13565000D01*
X-508000Y-13723750D01*
X-762000Y-13723750D01*
X-920750Y-13565000D01*
X-935000Y-13561928D01*
X-1059482Y-13574188D01*
X-1179180Y-13610498D01*
X-1270000Y-13659043D01*
X-1360820Y-13610498D01*
X-1480518Y-13574188D01*
X-1605000Y-13561928D01*
X-1619250Y-13565000D01*
X-1778000Y-13723750D01*
X-2032000Y-13723750D01*
X-2190750Y-13565000D01*
X-2205000Y-13561928D01*
X-2329482Y-13574188D01*
X-2449180Y-13610498D01*
X-2559494Y-13669463D01*
X-2656185Y-13748815D01*
X-2735537Y-13845506D01*
X-2794502Y-13955820D01*
X-2830812Y-14075518D01*
X-2843072Y-14200000D01*
X-5307616Y-14200000D01*
X-5314730Y-14166561D01*
X-5416029Y-13952346D01*
X-5628896Y-13917904D01*
X-6612449Y-14901457D01*
X-6971659Y-14901457D01*
X-6985802Y-14887315D01*
X-6856225Y-14757738D01*
X-6847683Y-14753172D01*
X-6799927Y-14713979D01*
X-6792054Y-14721852D01*
X-5808501Y-13738299D01*
X-5809634Y-13731296D01*
X-5725687Y-13648515D01*
X-5646334Y-13551823D01*
X-5587369Y-13441509D01*
X-5551060Y-13321811D01*
X-5538800Y-13197330D01*
X-5551060Y-13072848D01*
X-5587369Y-12953150D01*
X-5646334Y-12842836D01*
X-5676769Y-12805750D01*
X-4225000Y-12805750D01*
X-4215235Y-12927348D01*
X-4178377Y-13046878D01*
X-4118908Y-13156921D01*
X-4039113Y-13253247D01*
X-3942059Y-13332156D01*
X-3831476Y-13390614D01*
X-3711613Y-13426375D01*
X-3587077Y-13438065D01*
X-3565750Y-13435000D01*
X-3407000Y-13276250D01*
X-3407000Y-12647000D01*
X-3153000Y-12647000D01*
X-3153000Y-13276250D01*
X-2994250Y-13435000D01*
X-2972923Y-13438065D01*
X-2848387Y-13426375D01*
X-2728524Y-13390614D01*
X-2617941Y-13332156D01*
X-2520887Y-13253247D01*
X-2441092Y-13156921D01*
X-2381623Y-13046878D01*
X-2344765Y-12927348D01*
X-2335000Y-12805750D01*
X-2493750Y-12647000D01*
X-3153000Y-12647000D01*
X-3407000Y-12647000D01*
X-4066250Y-12647000D01*
X-4225000Y-12805750D01*
X-5676769Y-12805750D01*
X-5725687Y-12746145D01*
X-5737935Y-12738241D01*
X-5776398Y-12738241D01*
X-5708353Y-12692775D01*
X-5557225Y-12541647D01*
X-5438485Y-12363940D01*
X-5356696Y-12166483D01*
X-5315000Y-11956863D01*
X-5315000Y-11743137D01*
X-5356696Y-11533517D01*
X-5438485Y-11336060D01*
X-5557225Y-11158353D01*
X-5708353Y-11007225D01*
X-5886060Y-10888485D01*
X-6083517Y-10806696D01*
X-6293137Y-10765000D01*
X-6503994Y-10765000D01*
X-6490127Y-10748103D01*
X-6417235Y-10611730D01*
X-6372348Y-10463757D01*
X-6362913Y-10367962D01*
X-6360989Y-10348431D01*
X-6360989Y-10348430D01*
X-6357191Y-10309870D01*
X-6360989Y-10271309D01*
X-6360989Y-9669011D01*
X-4219699Y-9669011D01*
X-4199068Y-9772729D01*
G04 #@! TA.AperFunction,Conductor*
D27*
G36*
X-4199068Y-9772729D02*
G01*
X-4128586Y-9942889D01*
X-4026262Y-10096028D01*
X-3896028Y-10226262D01*
X-3742889Y-10328586D01*
X-3588214Y-10392654D01*
X-3338940Y-10641928D01*
X-3450000Y-10641928D01*
X-3601794Y-10656878D01*
X-3747755Y-10701155D01*
X-3882274Y-10773057D01*
X-4000180Y-10869820D01*
X-4096943Y-10987726D01*
X-4168845Y-11122245D01*
X-4213122Y-11268206D01*
X-4228072Y-11420000D01*
X-4228072Y-11700000D01*
X-4213122Y-11851794D01*
X-4173172Y-11983491D01*
X-4178377Y-11993122D01*
X-4215235Y-12112652D01*
X-4225000Y-12234250D01*
X-4066250Y-12393000D01*
X-3796108Y-12393000D01*
X-3747755Y-12418845D01*
X-3601794Y-12463122D01*
X-3450000Y-12478072D01*
X-3110000Y-12478072D01*
X-2958206Y-12463122D01*
X-2812245Y-12418845D01*
X-2763892Y-12393000D01*
X-2493750Y-12393000D01*
X-2485750Y-12385000D01*
X-2366728Y-12385000D01*
X-2325710Y-12389040D01*
X-2284692Y-12385000D01*
X-2284691Y-12385000D01*
X-2162021Y-12372918D01*
X-2004623Y-12325172D01*
X-1859564Y-12247636D01*
X-1732419Y-12143291D01*
X-1706265Y-12111422D01*
X-1343574Y-11748732D01*
X-1311709Y-11722581D01*
X-1306670Y-11716441D01*
X-1289494Y-11730537D01*
X-1179180Y-11789502D01*
X-1059482Y-11825812D01*
X-935000Y-11838072D01*
X-920750Y-11835000D01*
X-762000Y-11676250D01*
X-762000Y-10352000D01*
X-782000Y-10352000D01*
X-782000Y-10098000D01*
X-762000Y-10098000D01*
X-762000Y-10078000D01*
X-508000Y-10078000D01*
X-508000Y-10098000D01*
X-488000Y-10098000D01*
X-488000Y-10352000D01*
X-508000Y-10352000D01*
X-508000Y-11676250D01*
X-349250Y-11835000D01*
X-335000Y-11838072D01*
X-310000Y-11835610D01*
X-310000Y-11967089D01*
X-274068Y-12147729D01*
X-203586Y-12317889D01*
X-101262Y-12471028D01*
X28972Y-12601262D01*
X182111Y-12703586D01*
X352271Y-12774068D01*
X532911Y-12810000D01*
X717089Y-12810000D01*
X897729Y-12774068D01*
X1067889Y-12703586D01*
X1221028Y-12601262D01*
X1275000Y-12547290D01*
X1353972Y-12626262D01*
X1507111Y-12728586D01*
X1677271Y-12799068D01*
X1857911Y-12835000D01*
X2042089Y-12835000D01*
X2222729Y-12799068D01*
X2392889Y-12728586D01*
X2546028Y-12626262D01*
X2675000Y-12497290D01*
X2778972Y-12601262D01*
X2932111Y-12703586D01*
X3102271Y-12774068D01*
X3282911Y-12810000D01*
X3467089Y-12810000D01*
X3647729Y-12774068D01*
X3817889Y-12703586D01*
X3971028Y-12601262D01*
X4101262Y-12471028D01*
X4203586Y-12317889D01*
X4274068Y-12147729D01*
X4310000Y-11967089D01*
X4310000Y-11807731D01*
X4415000Y-11818072D01*
X4785000Y-11818072D01*
X4935819Y-11803218D01*
X4967883Y-11793491D01*
X5038485Y-11963940D01*
X5157225Y-12141647D01*
X5308353Y-12292775D01*
X5486060Y-12411515D01*
X5683517Y-12493304D01*
X5730326Y-12502615D01*
X5851944Y-12624233D01*
X5850187Y-12625989D01*
X5962439Y-12738241D01*
X5737935Y-12738241D01*
X5725687Y-12746145D01*
X5646334Y-12842836D01*
X5587369Y-12953150D01*
X5551060Y-13072848D01*
X5538800Y-13197330D01*
X5551060Y-13321811D01*
X5587369Y-13441509D01*
X5646334Y-13551823D01*
X5725687Y-13648515D01*
X5809634Y-13731296D01*
X5808501Y-13738299D01*
X6792054Y-14721852D01*
X6799927Y-14713979D01*
X6847683Y-14753172D01*
X6856225Y-14757738D01*
X6985802Y-14887315D01*
X6971659Y-14901457D01*
X7955212Y-15885010D01*
X8073044Y-15865945D01*
X8073044Y-16538047D01*
X7444946Y-17166145D01*
X7292212Y-17166145D01*
X6967149Y-17491208D01*
X6966483Y-17491564D01*
X6849335Y-17587706D01*
X6614576Y-17822466D01*
X6445629Y-17653519D01*
X6459771Y-17639376D01*
X6021895Y-17201500D01*
X5797389Y-17201500D01*
X5776605Y-17218008D01*
X5696065Y-17313712D01*
X5635743Y-17423288D01*
X5597956Y-17542529D01*
X5584159Y-17666850D01*
X5594882Y-17791473D01*
X5629710Y-17911611D01*
X5671828Y-17992804D01*
X4869164Y-17556993D01*
X4858314Y-17551933D01*
X4847955Y-17545953D01*
X4793363Y-17521647D01*
X3572374Y-17040687D01*
X3560993Y-17036989D01*
X3549979Y-17032314D01*
X3492831Y-17014842D01*
X2652003Y-16797389D01*
X6201500Y-16797389D01*
X6201500Y-17021895D01*
X6639376Y-17459771D01*
X7112607Y-16986540D01*
X7112607Y-16762033D01*
X7022645Y-16687308D01*
X6911611Y-16629710D01*
X6791473Y-16594882D01*
X6666850Y-16584159D01*
X6542529Y-16597956D01*
X6423288Y-16635743D01*
X6313712Y-16696065D01*
X6218008Y-16776605D01*
X6201500Y-16797389D01*
X2652003Y-16797389D01*
X2439511Y-16742435D01*
X2449180Y-16739502D01*
X2559494Y-16680537D01*
X2656185Y-16601185D01*
X2735537Y-16504494D01*
X2794502Y-16394180D01*
X2830812Y-16274482D01*
X2843072Y-16150000D01*
X2841485Y-15793826D01*
X6079290Y-15793826D01*
X6468199Y-16182734D01*
X6655987Y-16304641D01*
X6863949Y-16387570D01*
X7084095Y-16428334D01*
X7307963Y-16425366D01*
X7526950Y-16378781D01*
X7741165Y-16277482D01*
X7775607Y-16064615D01*
X6792054Y-15081062D01*
X6079290Y-15793826D01*
X2841485Y-15793826D01*
X2840000Y-15460750D01*
X2681250Y-15302000D01*
X2032000Y-15302000D01*
X2032000Y-15322000D01*
X1778000Y-15322000D01*
X1778000Y-15302000D01*
X762000Y-15302000D01*
X762000Y-15322000D01*
X508000Y-15322000D01*
X508000Y-15302000D01*
X-508000Y-15302000D01*
X-508000Y-15322000D01*
X-762000Y-15322000D01*
X-762000Y-15302000D01*
X-1778000Y-15302000D01*
X-1778000Y-15322000D01*
X-2032000Y-15322000D01*
X-2032000Y-15302000D01*
X-2681250Y-15302000D01*
X-2840000Y-15460750D01*
X-2843072Y-16150000D01*
X-2830812Y-16274482D01*
X-2794502Y-16394180D01*
X-2735537Y-16504494D01*
X-2656185Y-16601185D01*
X-2559494Y-16680537D01*
X-2449180Y-16739502D01*
X-2428538Y-16745764D01*
X-3302327Y-16955542D01*
X-3313766Y-16959039D01*
X-3325475Y-16961528D01*
X-3382293Y-16979990D01*
X-3382310Y-16979995D01*
X-3382315Y-16979997D01*
X-4611506Y-17439573D01*
X-4622433Y-17444438D01*
X-4633751Y-17448335D01*
X-4687911Y-17473590D01*
X-5666839Y-17983187D01*
X-5629710Y-17911611D01*
X-5594882Y-17791473D01*
X-5584159Y-17666850D01*
X-5597956Y-17542529D01*
X-5635743Y-17423288D01*
X-5696065Y-17313712D01*
X-5776605Y-17218008D01*
X-5797389Y-17201500D01*
X-6021895Y-17201500D01*
X-6459771Y-17639376D01*
X-6445629Y-17653519D01*
X-6614576Y-17822466D01*
X-6849335Y-17587706D01*
X-6966483Y-17491564D01*
X-6967149Y-17491208D01*
X-7292212Y-17166145D01*
X-7444946Y-17166145D01*
X-7849058Y-16762033D01*
X-7112607Y-16762033D01*
X-7112607Y-16986540D01*
X-6639376Y-17459771D01*
X-6201500Y-17021895D01*
X-6201500Y-16797389D01*
X-6218008Y-16776605D01*
X-6313712Y-16696065D01*
X-6423288Y-16635743D01*
X-6542529Y-16597956D01*
X-6666850Y-16584159D01*
X-6791473Y-16594882D01*
X-6911611Y-16629710D01*
X-7022645Y-16687308D01*
X-7112607Y-16762033D01*
X-7849058Y-16762033D01*
X-7994985Y-16616106D01*
X-7994985Y-16064615D01*
X-7775607Y-16064615D01*
X-7741165Y-16277482D01*
X-7526950Y-16378781D01*
X-7307963Y-16425366D01*
X-7084095Y-16428334D01*
X-6863949Y-16387570D01*
X-6655987Y-16304641D01*
X-6468199Y-16182734D01*
X-6079290Y-15793826D01*
X-6792054Y-15081062D01*
X-7775607Y-16064615D01*
X-7994985Y-16064615D01*
X-7994985Y-15878575D01*
X-7955212Y-15885010D01*
X-6971659Y-14901457D01*
X-6612449Y-14901457D01*
X-5899685Y-15614221D01*
X-5510777Y-15225312D01*
X-5388870Y-15037524D01*
X-5305941Y-14829562D01*
X-5265177Y-14609416D01*
X-5268145Y-14385548D01*
X-5307616Y-14200000D01*
X-2843072Y-14200000D01*
X-2840000Y-14889250D01*
X-2681250Y-15048000D01*
X-2032000Y-15048000D01*
X-2032000Y-13723750D01*
X-1778000Y-13723750D01*
X-1778000Y-15048000D01*
X-762000Y-15048000D01*
X-762000Y-13723750D01*
X-508000Y-13723750D01*
X-508000Y-15048000D01*
X508000Y-15048000D01*
X508000Y-13723750D01*
X762000Y-13723750D01*
X762000Y-15048000D01*
X1778000Y-15048000D01*
X1778000Y-13723750D01*
X2032000Y-13723750D01*
X2032000Y-15048000D01*
X2681250Y-15048000D01*
X2840000Y-14889250D01*
X2841247Y-14609416D01*
X5265177Y-14609416D01*
X5305941Y-14829562D01*
X5388870Y-15037524D01*
X5510777Y-15225312D01*
X5899685Y-15614221D01*
X6612449Y-14901457D01*
X5628896Y-13917904D01*
X5416029Y-13952346D01*
X5314730Y-14166561D01*
X5268145Y-14385548D01*
X5265177Y-14609416D01*
X2841247Y-14609416D01*
X2843072Y-14200000D01*
X2830812Y-14075518D01*
X2794502Y-13955820D01*
X2735537Y-13845506D01*
X2656185Y-13748815D01*
X2559494Y-13669463D01*
X2449180Y-13610498D01*
X2329482Y-13574188D01*
X2205000Y-13561928D01*
X2190750Y-13565000D01*
X2032000Y-13723750D01*
X1778000Y-13723750D01*
X1619250Y-13565000D01*
X1605000Y-13561928D01*
X1480518Y-13574188D01*
X1360820Y-13610498D01*
X1270000Y-13659043D01*
X1179180Y-13610498D01*
X1059482Y-13574188D01*
X935000Y-13561928D01*
X920750Y-13565000D01*
X762000Y-13723750D01*
X508000Y-13723750D01*
X349250Y-13565000D01*
X335000Y-13561928D01*
X210518Y-13574188D01*
X90820Y-13610498D01*
X0Y-13659043D01*
X-90820Y-13610498D01*
X-210518Y-13574188D01*
X-335000Y-13561928D01*
X-349250Y-13565000D01*
X-508000Y-13723750D01*
X-762000Y-13723750D01*
X-920750Y-13565000D01*
X-935000Y-13561928D01*
X-1059482Y-13574188D01*
X-1179180Y-13610498D01*
X-1270000Y-13659043D01*
X-1360820Y-13610498D01*
X-1480518Y-13574188D01*
X-1605000Y-13561928D01*
X-1619250Y-13565000D01*
X-1778000Y-13723750D01*
X-2032000Y-13723750D01*
X-2190750Y-13565000D01*
X-2205000Y-13561928D01*
X-2329482Y-13574188D01*
X-2449180Y-13610498D01*
X-2559494Y-13669463D01*
X-2656185Y-13748815D01*
X-2735537Y-13845506D01*
X-2794502Y-13955820D01*
X-2830812Y-14075518D01*
X-2843072Y-14200000D01*
X-5307616Y-14200000D01*
X-5314730Y-14166561D01*
X-5416029Y-13952346D01*
X-5628896Y-13917904D01*
X-6612449Y-14901457D01*
X-6971659Y-14901457D01*
X-6985802Y-14887315D01*
X-6856225Y-14757738D01*
X-6847683Y-14753172D01*
X-6799927Y-14713979D01*
X-6792054Y-14721852D01*
X-5808501Y-13738299D01*
X-5809634Y-13731296D01*
X-5725687Y-13648515D01*
X-5646334Y-13551823D01*
X-5587369Y-13441509D01*
X-5551060Y-13321811D01*
X-5538800Y-13197330D01*
X-5551060Y-13072848D01*
X-5587369Y-12953150D01*
X-5646334Y-12842836D01*
X-5676769Y-12805750D01*
X-4225000Y-12805750D01*
X-4215235Y-12927348D01*
X-4178377Y-13046878D01*
X-4118908Y-13156921D01*
X-4039113Y-13253247D01*
X-3942059Y-13332156D01*
X-3831476Y-13390614D01*
X-3711613Y-13426375D01*
X-3587077Y-13438065D01*
X-3565750Y-13435000D01*
X-3407000Y-13276250D01*
X-3407000Y-12647000D01*
X-3153000Y-12647000D01*
X-3153000Y-13276250D01*
X-2994250Y-13435000D01*
X-2972923Y-13438065D01*
X-2848387Y-13426375D01*
X-2728524Y-13390614D01*
X-2617941Y-13332156D01*
X-2520887Y-13253247D01*
X-2441092Y-13156921D01*
X-2381623Y-13046878D01*
X-2344765Y-12927348D01*
X-2335000Y-12805750D01*
X-2493750Y-12647000D01*
X-3153000Y-12647000D01*
X-3407000Y-12647000D01*
X-4066250Y-12647000D01*
X-4225000Y-12805750D01*
X-5676769Y-12805750D01*
X-5725687Y-12746145D01*
X-5737935Y-12738241D01*
X-5776398Y-12738241D01*
X-5708353Y-12692775D01*
X-5557225Y-12541647D01*
X-5438485Y-12363940D01*
X-5356696Y-12166483D01*
X-5315000Y-11956863D01*
X-5315000Y-11743137D01*
X-5356696Y-11533517D01*
X-5438485Y-11336060D01*
X-5557225Y-11158353D01*
X-5708353Y-11007225D01*
X-5886060Y-10888485D01*
X-6083517Y-10806696D01*
X-6293137Y-10765000D01*
X-6503994Y-10765000D01*
X-6490127Y-10748103D01*
X-6417235Y-10611730D01*
X-6372348Y-10463757D01*
X-6362913Y-10367962D01*
X-6360989Y-10348431D01*
X-6360989Y-10348430D01*
X-6357191Y-10309870D01*
X-6360989Y-10271309D01*
X-6360989Y-9669011D01*
X-4219699Y-9669011D01*
X-4199068Y-9772729D01*
G37*
G04 #@! TD.AperFunction*
D26*
X-7705000Y-2634132D02*
X-7705000Y-2572998D01*
X-7737000Y-2572998D01*
X-7737000Y-2553000D01*
X-7623867Y-2553000D01*
X-7705000Y-2634132D01*
G04 #@! TA.AperFunction,Conductor*
D27*
G36*
X-7705000Y-2634132D02*
G01*
X-7705000Y-2572998D01*
X-7737000Y-2572998D01*
X-7737000Y-2553000D01*
X-7623867Y-2553000D01*
X-7705000Y-2634132D01*
G37*
G04 #@! TD.AperFunction*
D26*
X4455000Y-1865750D02*
X4464765Y-1987348D01*
X4501623Y-2106878D01*
X4561092Y-2216921D01*
X4564496Y-2221030D01*
X3994269Y-2221030D01*
X4508297Y-1707002D01*
X4613748Y-1707002D01*
X4455000Y-1865750D01*
G04 #@! TA.AperFunction,Conductor*
D27*
G36*
X4455000Y-1865750D02*
G01*
X4464765Y-1987348D01*
X4501623Y-2106878D01*
X4561092Y-2216921D01*
X4564496Y-2221030D01*
X3994269Y-2221030D01*
X4508297Y-1707002D01*
X4613748Y-1707002D01*
X4455000Y-1865750D01*
G37*
G04 #@! TD.AperFunction*
D26*
X-5638072Y-1848412D02*
X-5791087Y-1894828D01*
X-5827000Y-1914024D01*
X-5827000Y-1685000D01*
X-5707910Y-1685000D01*
X-5638072Y-1671108D01*
X-5638072Y-1848412D01*
G04 #@! TA.AperFunction,Conductor*
D27*
G36*
X-5638072Y-1848412D02*
G01*
X-5791087Y-1894828D01*
X-5827000Y-1914024D01*
X-5827000Y-1685000D01*
X-5707910Y-1685000D01*
X-5638072Y-1671108D01*
X-5638072Y-1848412D01*
G37*
G04 #@! TD.AperFunction*
D26*
X-6699067Y-1022729D02*
X-6628585Y-1192889D01*
X-6563207Y-1290734D01*
X-6586375Y-1368387D01*
X-6598065Y-1492923D01*
X-6595000Y-1514250D01*
X-6436252Y-1672998D01*
X-6595000Y-1672998D01*
X-6595000Y-1741928D01*
X-6725000Y-1741928D01*
X-6875819Y-1756782D01*
X-7020842Y-1800775D01*
X-7048549Y-1815584D01*
X-7088558Y-1793559D01*
X-7207798Y-1755774D01*
X-7324250Y-1745000D01*
X-7482998Y-1903748D01*
X-7482998Y-1745000D01*
X-7512094Y-1745000D01*
X-6714124Y-947031D01*
X-6699067Y-1022729D01*
G04 #@! TA.AperFunction,Conductor*
D27*
G36*
X-6699067Y-1022729D02*
G01*
X-6628585Y-1192889D01*
X-6563207Y-1290734D01*
X-6586375Y-1368387D01*
X-6598065Y-1492923D01*
X-6595000Y-1514250D01*
X-6436252Y-1672998D01*
X-6595000Y-1672998D01*
X-6595000Y-1741928D01*
X-6725000Y-1741928D01*
X-6875819Y-1756782D01*
X-7020842Y-1800775D01*
X-7048549Y-1815584D01*
X-7088558Y-1793559D01*
X-7207798Y-1755774D01*
X-7324250Y-1745000D01*
X-7482998Y-1903748D01*
X-7482998Y-1745000D01*
X-7512094Y-1745000D01*
X-6714124Y-947031D01*
X-6699067Y-1022729D01*
G37*
G04 #@! TD.AperFunction*
D26*
X6032245Y-1478845D02*
X6178206Y-1523122D01*
X6330000Y-1538072D01*
X6641928Y-1538072D01*
X6641928Y-1707000D01*
X6627000Y-1707000D01*
X6627000Y-1727000D01*
X6373000Y-1727000D01*
X6373000Y-1707000D01*
X5527000Y-1707000D01*
X5527000Y-1727000D01*
X5273000Y-1727000D01*
X5273000Y-1707000D01*
X5253000Y-1707000D01*
X5253000Y-1538072D01*
X5570000Y-1538072D01*
X5721794Y-1523122D01*
X5867755Y-1478845D01*
X5916108Y-1453000D01*
X5983892Y-1453000D01*
X6032245Y-1478845D01*
G04 #@! TA.AperFunction,Conductor*
D27*
G36*
X6032245Y-1478845D02*
G01*
X6178206Y-1523122D01*
X6330000Y-1538072D01*
X6641928Y-1538072D01*
X6641928Y-1707000D01*
X6627000Y-1707000D01*
X6627000Y-1727000D01*
X6373000Y-1727000D01*
X6373000Y-1707000D01*
X5527000Y-1707000D01*
X5527000Y-1727000D01*
X5273000Y-1727000D01*
X5273000Y-1707000D01*
X5253000Y-1707000D01*
X5253000Y-1538072D01*
X5570000Y-1538072D01*
X5721794Y-1523122D01*
X5867755Y-1478845D01*
X5916108Y-1453000D01*
X5983892Y-1453000D01*
X6032245Y-1478845D01*
G37*
G04 #@! TD.AperFunction*
D26*
X-6899225Y14059158D02*
X-6827786Y13925504D01*
X-6731644Y13808356D01*
X-6614496Y13712214D01*
X-6480842Y13640775D01*
X-6335819Y13596782D01*
X-6185000Y13581928D01*
X-5815000Y13581928D01*
X-5664181Y13596782D01*
X-5519158Y13640775D01*
X-5424261Y13691498D01*
X-5455000Y13547000D01*
X-5455000Y12997000D01*
X-4447000Y12997000D01*
X-4447000Y13017000D01*
X-4193000Y13017000D01*
X-4193000Y12997000D01*
X-4173000Y12997000D01*
X-4173000Y12813752D01*
X-4175812Y12804482D01*
X-4181867Y12743000D01*
X-4193000Y12743000D01*
X-4193000Y11352046D01*
X-4187247Y11347896D01*
X-4188072Y11230000D01*
X-4175812Y11105518D01*
X-4139502Y10985820D01*
X-4080537Y10875506D01*
X-4001185Y10778815D01*
X-3904494Y10699463D01*
X-3794180Y10640498D01*
X-3674482Y10604188D01*
X-3550000Y10591928D01*
X-3535750Y10595000D01*
X-3535000Y10595750D01*
X-3535000Y10470137D01*
X-3493304Y10260517D01*
X-3411515Y10063060D01*
X-3292775Y9885353D01*
X-3141647Y9734225D01*
X-2963940Y9615485D01*
X-2766483Y9533696D01*
X-2556863Y9492000D01*
X-2343137Y9492000D01*
X-2133517Y9533696D01*
X-1936060Y9615485D01*
X-1758353Y9734225D01*
X-1607225Y9885353D01*
X-1535000Y9993446D01*
X-1534999Y7876465D01*
X-1672729Y7849068D01*
X-1706026Y7835276D01*
X-1743750Y7873000D01*
X-2363000Y7873000D01*
X-2363000Y7616250D01*
X-2393000Y7586250D01*
X-2393000Y7053904D01*
X-2405861Y7038233D01*
X-2424626Y7003125D01*
X-2478754Y6901859D01*
X-2523641Y6753886D01*
X-2531270Y6676427D01*
X-2561928Y6707085D01*
X-2561928Y6970000D01*
X-2576878Y7121794D01*
X-2617000Y7254058D01*
X-2617000Y7663462D01*
X-2616782Y7664181D01*
X-2601928Y7815000D01*
X-2601928Y8185000D01*
X-2616782Y8335819D01*
X-2617000Y8336538D01*
X-2617000Y8796250D01*
X-2363000Y8796250D01*
X-2363000Y8127000D01*
X-1743750Y8127000D01*
X-1585000Y8285750D01*
X-1581977Y8312119D01*
X-1592699Y8436742D01*
X-1627527Y8556879D01*
X-1685124Y8667914D01*
X-1763276Y8765578D01*
X-1858980Y8846118D01*
X-1968558Y8906441D01*
X-2087798Y8944226D01*
X-2204250Y8955000D01*
X-2363000Y8796250D01*
X-2617000Y8796250D01*
X-2775750Y8955000D01*
X-2892202Y8944226D01*
X-3011442Y8906441D01*
X-3051451Y8884416D01*
X-3079158Y8899225D01*
X-3224181Y8943218D01*
X-3266521Y8947388D01*
X-3268055Y8948922D01*
X-3294209Y8980791D01*
X-3421354Y9085136D01*
X-3566413Y9162672D01*
X-3723811Y9210418D01*
X-3846481Y9222500D01*
X-3846482Y9222500D01*
X-3887500Y9226540D01*
X-3928518Y9222500D01*
X-4850539Y9222500D01*
X-4967725Y9318671D01*
X-5115858Y9397850D01*
X-5276592Y9446608D01*
X-5443750Y9463072D01*
X-5956250Y9463072D01*
X-6123408Y9446608D01*
X-6284142Y9397850D01*
X-6432275Y9318671D01*
X-6562115Y9212115D01*
X-6668671Y9082275D01*
X-6747850Y8934142D01*
X-6796608Y8773408D01*
X-6813072Y8606250D01*
X-6813072Y8168750D01*
X-6796608Y8001592D01*
X-6747850Y7840858D01*
X-6668671Y7692725D01*
X-6592574Y7600000D01*
X-6668671Y7507275D01*
X-6747850Y7359142D01*
X-6796608Y7198408D01*
X-6813072Y7031250D01*
X-6813072Y6593750D01*
X-6796608Y6426592D01*
X-6747850Y6265858D01*
X-6668671Y6117725D01*
X-6562115Y5987885D01*
X-6432275Y5881329D01*
X-6284142Y5802150D01*
X-6123408Y5753392D01*
X-5956250Y5736928D01*
X-5443750Y5736928D01*
X-5276592Y5753392D01*
X-5115858Y5802150D01*
X-4967725Y5881329D01*
X-4865771Y5965000D01*
X-4777404Y5965000D01*
X-4622729Y5900932D01*
X-4442089Y5865000D01*
X-4257911Y5865000D01*
X-4077271Y5900932D01*
X-4009051Y5929189D01*
X-3982811Y5907654D01*
X-3603513Y5528356D01*
X-5135236Y5528356D01*
X-5200467Y5571942D01*
X-5370627Y5642424D01*
X-5551267Y5678356D01*
X-5735445Y5678356D01*
X-5916085Y5642424D01*
X-6086245Y5571942D01*
X-6239384Y5469618D01*
X-6369618Y5339384D01*
X-6471942Y5186245D01*
X-6542424Y5016085D01*
X-6578356Y4835445D01*
X-6578356Y4651267D01*
X-6542424Y4470627D01*
X-6471942Y4300467D01*
X-6369618Y4147328D01*
X-6239384Y4017094D01*
X-6086245Y3914770D01*
X-5916085Y3844288D01*
X-5735445Y3808356D01*
X-5551267Y3808356D01*
X-5370627Y3844288D01*
X-5200467Y3914770D01*
X-5135236Y3958356D01*
X-4496826Y3958356D01*
X-4499611Y3949175D01*
X-4513072Y3812500D01*
X-4513072Y3687500D01*
X-4499611Y3550825D01*
X-4484193Y3500000D01*
X-4499611Y3449175D01*
X-4513072Y3312500D01*
X-4513072Y3187500D01*
X-4505637Y3112010D01*
X-6277741Y3112010D01*
X-6318749Y3116049D01*
X-6359757Y3112010D01*
X-6359767Y3112010D01*
X-6482437Y3099928D01*
X-6639835Y3052182D01*
X-6784894Y2974646D01*
X-6912039Y2870301D01*
X-6938189Y2838437D01*
X-9713524Y63102D01*
X-8920839Y1873180D01*
X-8919525Y1876515D01*
X-8917996Y1879765D01*
X-8902002Y1921000D01*
X-8205900Y3903208D01*
X-8204837Y3906643D01*
X-8203559Y3909989D01*
X-8190702Y3952307D01*
X-7645183Y5981129D01*
X-7644382Y5984628D01*
X-7643357Y5988065D01*
X-7633749Y6031047D01*
X-7633708Y6031228D01*
X-7633704Y6031254D01*
X-7241842Y8095241D01*
X-7241303Y8098803D01*
X-7240542Y8102295D01*
X-7234157Y8146060D01*
X-6998152Y10233646D01*
X-6997883Y10237229D01*
X-6997384Y10240777D01*
X-6994298Y10284898D01*
X-6916261Y12363549D01*
X-6915000Y12376353D01*
X-6915000Y12743000D01*
X-5455000Y12743000D01*
X-5455000Y12193000D01*
X-5408415Y11974013D01*
X-5320003Y11768322D01*
X-5193161Y11583831D01*
X-5032764Y11427631D01*
X-4844976Y11305724D01*
X-4621874Y11225881D01*
X-4447000Y11352046D01*
X-4447000Y12743000D01*
X-5455000Y12743000D01*
X-6915000Y12743000D01*
X-6915000Y14111160D01*
X-6899225Y14059158D01*
G04 #@! TA.AperFunction,Conductor*
D27*
G36*
X-6899225Y14059158D02*
G01*
X-6827786Y13925504D01*
X-6731644Y13808356D01*
X-6614496Y13712214D01*
X-6480842Y13640775D01*
X-6335819Y13596782D01*
X-6185000Y13581928D01*
X-5815000Y13581928D01*
X-5664181Y13596782D01*
X-5519158Y13640775D01*
X-5424261Y13691498D01*
X-5455000Y13547000D01*
X-5455000Y12997000D01*
X-4447000Y12997000D01*
X-4447000Y13017000D01*
X-4193000Y13017000D01*
X-4193000Y12997000D01*
X-4173000Y12997000D01*
X-4173000Y12813752D01*
X-4175812Y12804482D01*
X-4181867Y12743000D01*
X-4193000Y12743000D01*
X-4193000Y11352046D01*
X-4187247Y11347896D01*
X-4188072Y11230000D01*
X-4175812Y11105518D01*
X-4139502Y10985820D01*
X-4080537Y10875506D01*
X-4001185Y10778815D01*
X-3904494Y10699463D01*
X-3794180Y10640498D01*
X-3674482Y10604188D01*
X-3550000Y10591928D01*
X-3535750Y10595000D01*
X-3535000Y10595750D01*
X-3535000Y10470137D01*
X-3493304Y10260517D01*
X-3411515Y10063060D01*
X-3292775Y9885353D01*
X-3141647Y9734225D01*
X-2963940Y9615485D01*
X-2766483Y9533696D01*
X-2556863Y9492000D01*
X-2343137Y9492000D01*
X-2133517Y9533696D01*
X-1936060Y9615485D01*
X-1758353Y9734225D01*
X-1607225Y9885353D01*
X-1535000Y9993446D01*
X-1534999Y7876465D01*
X-1672729Y7849068D01*
X-1706026Y7835276D01*
X-1743750Y7873000D01*
X-2363000Y7873000D01*
X-2363000Y7616250D01*
X-2393000Y7586250D01*
X-2393000Y7053904D01*
X-2405861Y7038233D01*
X-2424626Y7003125D01*
X-2478754Y6901859D01*
X-2523641Y6753886D01*
X-2531270Y6676427D01*
X-2561928Y6707085D01*
X-2561928Y6970000D01*
X-2576878Y7121794D01*
X-2617000Y7254058D01*
X-2617000Y7663462D01*
X-2616782Y7664181D01*
X-2601928Y7815000D01*
X-2601928Y8185000D01*
X-2616782Y8335819D01*
X-2617000Y8336538D01*
X-2617000Y8796250D01*
X-2363000Y8796250D01*
X-2363000Y8127000D01*
X-1743750Y8127000D01*
X-1585000Y8285750D01*
X-1581977Y8312119D01*
X-1592699Y8436742D01*
X-1627527Y8556879D01*
X-1685124Y8667914D01*
X-1763276Y8765578D01*
X-1858980Y8846118D01*
X-1968558Y8906441D01*
X-2087798Y8944226D01*
X-2204250Y8955000D01*
X-2363000Y8796250D01*
X-2617000Y8796250D01*
X-2775750Y8955000D01*
X-2892202Y8944226D01*
X-3011442Y8906441D01*
X-3051451Y8884416D01*
X-3079158Y8899225D01*
X-3224181Y8943218D01*
X-3266521Y8947388D01*
X-3268055Y8948922D01*
X-3294209Y8980791D01*
X-3421354Y9085136D01*
X-3566413Y9162672D01*
X-3723811Y9210418D01*
X-3846481Y9222500D01*
X-3846482Y9222500D01*
X-3887500Y9226540D01*
X-3928518Y9222500D01*
X-4850539Y9222500D01*
X-4967725Y9318671D01*
X-5115858Y9397850D01*
X-5276592Y9446608D01*
X-5443750Y9463072D01*
X-5956250Y9463072D01*
X-6123408Y9446608D01*
X-6284142Y9397850D01*
X-6432275Y9318671D01*
X-6562115Y9212115D01*
X-6668671Y9082275D01*
X-6747850Y8934142D01*
X-6796608Y8773408D01*
X-6813072Y8606250D01*
X-6813072Y8168750D01*
X-6796608Y8001592D01*
X-6747850Y7840858D01*
X-6668671Y7692725D01*
X-6592574Y7600000D01*
X-6668671Y7507275D01*
X-6747850Y7359142D01*
X-6796608Y7198408D01*
X-6813072Y7031250D01*
X-6813072Y6593750D01*
X-6796608Y6426592D01*
X-6747850Y6265858D01*
X-6668671Y6117725D01*
X-6562115Y5987885D01*
X-6432275Y5881329D01*
X-6284142Y5802150D01*
X-6123408Y5753392D01*
X-5956250Y5736928D01*
X-5443750Y5736928D01*
X-5276592Y5753392D01*
X-5115858Y5802150D01*
X-4967725Y5881329D01*
X-4865771Y5965000D01*
X-4777404Y5965000D01*
X-4622729Y5900932D01*
X-4442089Y5865000D01*
X-4257911Y5865000D01*
X-4077271Y5900932D01*
X-4009051Y5929189D01*
X-3982811Y5907654D01*
X-3603513Y5528356D01*
X-5135236Y5528356D01*
X-5200467Y5571942D01*
X-5370627Y5642424D01*
X-5551267Y5678356D01*
X-5735445Y5678356D01*
X-5916085Y5642424D01*
X-6086245Y5571942D01*
X-6239384Y5469618D01*
X-6369618Y5339384D01*
X-6471942Y5186245D01*
X-6542424Y5016085D01*
X-6578356Y4835445D01*
X-6578356Y4651267D01*
X-6542424Y4470627D01*
X-6471942Y4300467D01*
X-6369618Y4147328D01*
X-6239384Y4017094D01*
X-6086245Y3914770D01*
X-5916085Y3844288D01*
X-5735445Y3808356D01*
X-5551267Y3808356D01*
X-5370627Y3844288D01*
X-5200467Y3914770D01*
X-5135236Y3958356D01*
X-4496826Y3958356D01*
X-4499611Y3949175D01*
X-4513072Y3812500D01*
X-4513072Y3687500D01*
X-4499611Y3550825D01*
X-4484193Y3500000D01*
X-4499611Y3449175D01*
X-4513072Y3312500D01*
X-4513072Y3187500D01*
X-4505637Y3112010D01*
X-6277741Y3112010D01*
X-6318749Y3116049D01*
X-6359757Y3112010D01*
X-6359767Y3112010D01*
X-6482437Y3099928D01*
X-6639835Y3052182D01*
X-6784894Y2974646D01*
X-6912039Y2870301D01*
X-6938189Y2838437D01*
X-9713524Y63102D01*
X-8920839Y1873180D01*
X-8919525Y1876515D01*
X-8917996Y1879765D01*
X-8902002Y1921000D01*
X-8205900Y3903208D01*
X-8204837Y3906643D01*
X-8203559Y3909989D01*
X-8190702Y3952307D01*
X-7645183Y5981129D01*
X-7644382Y5984628D01*
X-7643357Y5988065D01*
X-7633749Y6031047D01*
X-7633708Y6031228D01*
X-7633704Y6031254D01*
X-7241842Y8095241D01*
X-7241303Y8098803D01*
X-7240542Y8102295D01*
X-7234157Y8146060D01*
X-6998152Y10233646D01*
X-6997883Y10237229D01*
X-6997384Y10240777D01*
X-6994298Y10284898D01*
X-6916261Y12363549D01*
X-6915000Y12376353D01*
X-6915000Y12743000D01*
X-5455000Y12743000D01*
X-5455000Y12193000D01*
X-5408415Y11974013D01*
X-5320003Y11768322D01*
X-5193161Y11583831D01*
X-5032764Y11427631D01*
X-4844976Y11305724D01*
X-4621874Y11225881D01*
X-4447000Y11352046D01*
X-4447000Y12743000D01*
X-5455000Y12743000D01*
X-6915000Y12743000D01*
X-6915000Y14111160D01*
X-6899225Y14059158D01*
G37*
G04 #@! TD.AperFunction*
D26*
X-4623000Y357000D02*
X-4603000Y357000D01*
X-4603000Y188072D01*
X-4897000Y188072D01*
X-4897000Y357000D01*
X-4877000Y357000D01*
X-4877000Y377000D01*
X-4623000Y377000D01*
X-4623000Y357000D01*
G04 #@! TA.AperFunction,Conductor*
D27*
G36*
X-4623000Y357000D02*
G01*
X-4603000Y357000D01*
X-4603000Y188072D01*
X-4897000Y188072D01*
X-4897000Y357000D01*
X-4877000Y357000D01*
X-4877000Y377000D01*
X-4623000Y377000D01*
X-4623000Y357000D01*
G37*
G04 #@! TD.AperFunction*
D26*
X127000Y2127000D02*
X147000Y2127000D01*
X147000Y1873000D01*
X127000Y1873000D01*
X127000Y1853000D01*
X-127000Y1853000D01*
X-127000Y1873000D01*
X-147000Y1873000D01*
X-147000Y2127000D01*
X-127000Y2127000D01*
X-127000Y2147000D01*
X127000Y2147000D01*
X127000Y2127000D01*
G04 #@! TA.AperFunction,Conductor*
D27*
G36*
X127000Y2127000D02*
G01*
X147000Y2127000D01*
X147000Y1873000D01*
X127000Y1873000D01*
X127000Y1853000D01*
X-127000Y1853000D01*
X-127000Y1873000D01*
X-147000Y1873000D01*
X-147000Y2127000D01*
X-127000Y2127000D01*
X-127000Y2147000D01*
X127000Y2147000D01*
X127000Y2127000D01*
G37*
G04 #@! TD.AperFunction*
D26*
X4947000Y3668000D02*
X4927000Y3668000D01*
X4927000Y3648000D01*
X4673000Y3648000D01*
X4673000Y3668000D01*
X4653000Y3668000D01*
X4653000Y3836928D01*
X4947000Y3836928D01*
X4947000Y3668000D01*
G04 #@! TA.AperFunction,Conductor*
D27*
G36*
X4947000Y3668000D02*
G01*
X4927000Y3668000D01*
X4927000Y3648000D01*
X4673000Y3648000D01*
X4673000Y3668000D01*
X4653000Y3668000D01*
X4653000Y3836928D01*
X4947000Y3836928D01*
X4947000Y3668000D01*
G37*
G04 #@! TD.AperFunction*
D26*
X4527000Y8473000D02*
X4507000Y8473000D01*
X4507000Y8453000D01*
X4347583Y8453000D01*
X4360000Y8579068D01*
X4360000Y8615000D01*
X4506863Y8615000D01*
X4527000Y8619005D01*
X4527000Y8473000D01*
G04 #@! TA.AperFunction,Conductor*
D27*
G36*
X4527000Y8473000D02*
G01*
X4507000Y8473000D01*
X4507000Y8453000D01*
X4347583Y8453000D01*
X4360000Y8579068D01*
X4360000Y8615000D01*
X4506863Y8615000D01*
X4527000Y8619005D01*
X4527000Y8473000D01*
G37*
G04 #@! TD.AperFunction*
D26*
X6915001Y16004430D02*
X6906441Y16031442D01*
X6846118Y16141020D01*
X6765578Y16236724D01*
X6667914Y16314876D01*
X6556879Y16372473D01*
X6436742Y16407301D01*
X6312119Y16418023D01*
X6285750Y16415000D01*
X6127000Y16256250D01*
X6127000Y15637000D01*
X6147000Y15637000D01*
X6147000Y15398072D01*
X5815000Y15398072D01*
X5664181Y15383218D01*
X5663462Y15383000D01*
X5203750Y15383000D01*
X5105750Y15285000D01*
X2808556Y15285000D01*
X2770000Y15288797D01*
X2731444Y15285000D01*
X2731439Y15285000D01*
X2691026Y15281020D01*
X2616113Y15273642D01*
X2468140Y15228754D01*
X2331767Y15155862D01*
X2212236Y15057764D01*
X2187653Y15027810D01*
X1582565Y14422722D01*
X1559863Y14465194D01*
X1461765Y14584725D01*
X1431806Y14609312D01*
X1186309Y14854810D01*
X1161725Y14884765D01*
X1042194Y14982863D01*
X905821Y15055755D01*
X757848Y15100642D01*
X642522Y15112001D01*
X642514Y15112001D01*
X603961Y15115798D01*
X565408Y15112001D01*
X88591Y15112001D01*
X50038Y15115798D01*
X11485Y15112001D01*
X11478Y15112001D01*
X-89471Y15102058D01*
X-103849Y15100642D01*
X-131786Y15092167D01*
X-251821Y15055755D01*
X-388194Y14982863D01*
X-507725Y14884765D01*
X-532308Y14854811D01*
X-777810Y14609309D01*
X-807764Y14584726D01*
X-829298Y14558487D01*
X-927271Y14599068D01*
X-1107911Y14635000D01*
X-1292089Y14635000D01*
X-1472729Y14599068D01*
X-1642889Y14528586D01*
X-1796028Y14426262D01*
X-1855586Y14366705D01*
X-2516691Y15027810D01*
X-2541274Y15057764D01*
X-2660805Y15155862D01*
X-2797178Y15228754D01*
X-2945151Y15273641D01*
X-3060477Y15285000D01*
X-3060485Y15285000D01*
X-3099038Y15288797D01*
X-3137591Y15285000D01*
X-5105750Y15285000D01*
X-5203750Y15383000D01*
X-5663462Y15383000D01*
X-5664181Y15383218D01*
X-5815000Y15398072D01*
X-6147000Y15398072D01*
X-6147000Y15637000D01*
X-6127000Y15637000D01*
X-6127000Y16256250D01*
X-5873000Y16256250D01*
X-5873000Y15637000D01*
X-5203750Y15637000D01*
X-5045000Y15795750D01*
X-5052504Y15876854D01*
X-5032764Y15857631D01*
X-4844976Y15735724D01*
X-4621874Y15655881D01*
X-4447000Y15782046D01*
X-4447000Y16923000D01*
X-4193000Y16923000D01*
X-4193000Y15782046D01*
X-4018126Y15655881D01*
X-3795024Y15735724D01*
X-3607236Y15857631D01*
X-3446839Y16013831D01*
X-3319997Y16198322D01*
X-3231585Y16404013D01*
X-3185000Y16623000D01*
X-3185000Y16923000D01*
X3185000Y16923000D01*
X3185000Y16623000D01*
X3231585Y16404013D01*
X3319997Y16198322D01*
X3446839Y16013831D01*
X3607236Y15857631D01*
X3795024Y15735724D01*
X4018126Y15655881D01*
X4193000Y15782046D01*
X4193000Y16923000D01*
X4447000Y16923000D01*
X4447000Y15782046D01*
X4621874Y15655881D01*
X4844976Y15735724D01*
X5032764Y15857631D01*
X5052504Y15876854D01*
X5045000Y15795750D01*
X5203750Y15637000D01*
X5873000Y15637000D01*
X5873000Y16256250D01*
X5714250Y16415000D01*
X5687881Y16418023D01*
X5563258Y16407301D01*
X5443121Y16372473D01*
X5381010Y16340254D01*
X5408415Y16404013D01*
X5455000Y16623000D01*
X5455000Y16923000D01*
X4447000Y16923000D01*
X4193000Y16923000D01*
X3185000Y16923000D01*
X-3185000Y16923000D01*
X-4193000Y16923000D01*
X-4447000Y16923000D01*
X-5455000Y16923000D01*
X-5455000Y16623000D01*
X-5408415Y16404013D01*
X-5381010Y16340254D01*
X-5443121Y16372473D01*
X-5563258Y16407301D01*
X-5687881Y16418023D01*
X-5714250Y16415000D01*
X-5873000Y16256250D01*
X-6127000Y16256250D01*
X-6285750Y16415000D01*
X-6312119Y16418023D01*
X-6436742Y16407301D01*
X-6556879Y16372473D01*
X-6667914Y16314876D01*
X-6765578Y16236724D01*
X-6846118Y16141020D01*
X-6906441Y16031442D01*
X-6915000Y16004432D01*
X-6915000Y17477000D01*
X-5455000Y17477000D01*
X-5455000Y17177000D01*
X-4447000Y17177000D01*
X-4447000Y18317954D01*
X-4193000Y18317954D01*
X-4193000Y17177000D01*
X-3185000Y17177000D01*
X-3185000Y17477000D01*
X3185000Y17477000D01*
X3185000Y17177000D01*
X4193000Y17177000D01*
X4193000Y18317954D01*
X4447000Y18317954D01*
X4447000Y17177000D01*
X5455000Y17177000D01*
X5455000Y17477000D01*
X5408415Y17695987D01*
X5320003Y17901678D01*
X5193161Y18086169D01*
X5032764Y18242369D01*
X4844976Y18364276D01*
X4621874Y18444119D01*
X4447000Y18317954D01*
X4193000Y18317954D01*
X4018126Y18444119D01*
X3795024Y18364276D01*
X3607236Y18242369D01*
X3446839Y18086169D01*
X3319997Y17901678D01*
X3231585Y17695987D01*
X3185000Y17477000D01*
X-3185000Y17477000D01*
X-3231585Y17695987D01*
X-3319997Y17901678D01*
X-3446839Y18086169D01*
X-3607236Y18242369D01*
X-3795024Y18364276D01*
X-4018126Y18444119D01*
X-4193000Y18317954D01*
X-4447000Y18317954D01*
X-4621874Y18444119D01*
X-4844976Y18364276D01*
X-5032764Y18242369D01*
X-5193161Y18086169D01*
X-5320003Y17901678D01*
X-5408415Y17695987D01*
X-5455000Y17477000D01*
X-6915000Y17477000D01*
X-6915000Y19515000D01*
X6915000Y19515000D01*
X6915001Y16004430D01*
G04 #@! TA.AperFunction,Conductor*
D27*
G36*
X6915001Y16004430D02*
G01*
X6906441Y16031442D01*
X6846118Y16141020D01*
X6765578Y16236724D01*
X6667914Y16314876D01*
X6556879Y16372473D01*
X6436742Y16407301D01*
X6312119Y16418023D01*
X6285750Y16415000D01*
X6127000Y16256250D01*
X6127000Y15637000D01*
X6147000Y15637000D01*
X6147000Y15398072D01*
X5815000Y15398072D01*
X5664181Y15383218D01*
X5663462Y15383000D01*
X5203750Y15383000D01*
X5105750Y15285000D01*
X2808556Y15285000D01*
X2770000Y15288797D01*
X2731444Y15285000D01*
X2731439Y15285000D01*
X2691026Y15281020D01*
X2616113Y15273642D01*
X2468140Y15228754D01*
X2331767Y15155862D01*
X2212236Y15057764D01*
X2187653Y15027810D01*
X1582565Y14422722D01*
X1559863Y14465194D01*
X1461765Y14584725D01*
X1431806Y14609312D01*
X1186309Y14854810D01*
X1161725Y14884765D01*
X1042194Y14982863D01*
X905821Y15055755D01*
X757848Y15100642D01*
X642522Y15112001D01*
X642514Y15112001D01*
X603961Y15115798D01*
X565408Y15112001D01*
X88591Y15112001D01*
X50038Y15115798D01*
X11485Y15112001D01*
X11478Y15112001D01*
X-89471Y15102058D01*
X-103849Y15100642D01*
X-131786Y15092167D01*
X-251821Y15055755D01*
X-388194Y14982863D01*
X-507725Y14884765D01*
X-532308Y14854811D01*
X-777810Y14609309D01*
X-807764Y14584726D01*
X-829298Y14558487D01*
X-927271Y14599068D01*
X-1107911Y14635000D01*
X-1292089Y14635000D01*
X-1472729Y14599068D01*
X-1642889Y14528586D01*
X-1796028Y14426262D01*
X-1855586Y14366705D01*
X-2516691Y15027810D01*
X-2541274Y15057764D01*
X-2660805Y15155862D01*
X-2797178Y15228754D01*
X-2945151Y15273641D01*
X-3060477Y15285000D01*
X-3060485Y15285000D01*
X-3099038Y15288797D01*
X-3137591Y15285000D01*
X-5105750Y15285000D01*
X-5203750Y15383000D01*
X-5663462Y15383000D01*
X-5664181Y15383218D01*
X-5815000Y15398072D01*
X-6147000Y15398072D01*
X-6147000Y15637000D01*
X-6127000Y15637000D01*
X-6127000Y16256250D01*
X-5873000Y16256250D01*
X-5873000Y15637000D01*
X-5203750Y15637000D01*
X-5045000Y15795750D01*
X-5052504Y15876854D01*
X-5032764Y15857631D01*
X-4844976Y15735724D01*
X-4621874Y15655881D01*
X-4447000Y15782046D01*
X-4447000Y16923000D01*
X-4193000Y16923000D01*
X-4193000Y15782046D01*
X-4018126Y15655881D01*
X-3795024Y15735724D01*
X-3607236Y15857631D01*
X-3446839Y16013831D01*
X-3319997Y16198322D01*
X-3231585Y16404013D01*
X-3185000Y16623000D01*
X-3185000Y16923000D01*
X3185000Y16923000D01*
X3185000Y16623000D01*
X3231585Y16404013D01*
X3319997Y16198322D01*
X3446839Y16013831D01*
X3607236Y15857631D01*
X3795024Y15735724D01*
X4018126Y15655881D01*
X4193000Y15782046D01*
X4193000Y16923000D01*
X4447000Y16923000D01*
X4447000Y15782046D01*
X4621874Y15655881D01*
X4844976Y15735724D01*
X5032764Y15857631D01*
X5052504Y15876854D01*
X5045000Y15795750D01*
X5203750Y15637000D01*
X5873000Y15637000D01*
X5873000Y16256250D01*
X5714250Y16415000D01*
X5687881Y16418023D01*
X5563258Y16407301D01*
X5443121Y16372473D01*
X5381010Y16340254D01*
X5408415Y16404013D01*
X5455000Y16623000D01*
X5455000Y16923000D01*
X4447000Y16923000D01*
X4193000Y16923000D01*
X3185000Y16923000D01*
X-3185000Y16923000D01*
X-4193000Y16923000D01*
X-4447000Y16923000D01*
X-5455000Y16923000D01*
X-5455000Y16623000D01*
X-5408415Y16404013D01*
X-5381010Y16340254D01*
X-5443121Y16372473D01*
X-5563258Y16407301D01*
X-5687881Y16418023D01*
X-5714250Y16415000D01*
X-5873000Y16256250D01*
X-6127000Y16256250D01*
X-6285750Y16415000D01*
X-6312119Y16418023D01*
X-6436742Y16407301D01*
X-6556879Y16372473D01*
X-6667914Y16314876D01*
X-6765578Y16236724D01*
X-6846118Y16141020D01*
X-6906441Y16031442D01*
X-6915000Y16004432D01*
X-6915000Y17477000D01*
X-5455000Y17477000D01*
X-5455000Y17177000D01*
X-4447000Y17177000D01*
X-4447000Y18317954D01*
X-4193000Y18317954D01*
X-4193000Y17177000D01*
X-3185000Y17177000D01*
X-3185000Y17477000D01*
X3185000Y17477000D01*
X3185000Y17177000D01*
X4193000Y17177000D01*
X4193000Y18317954D01*
X4447000Y18317954D01*
X4447000Y17177000D01*
X5455000Y17177000D01*
X5455000Y17477000D01*
X5408415Y17695987D01*
X5320003Y17901678D01*
X5193161Y18086169D01*
X5032764Y18242369D01*
X4844976Y18364276D01*
X4621874Y18444119D01*
X4447000Y18317954D01*
X4193000Y18317954D01*
X4018126Y18444119D01*
X3795024Y18364276D01*
X3607236Y18242369D01*
X3446839Y18086169D01*
X3319997Y17901678D01*
X3231585Y17695987D01*
X3185000Y17477000D01*
X-3185000Y17477000D01*
X-3231585Y17695987D01*
X-3319997Y17901678D01*
X-3446839Y18086169D01*
X-3607236Y18242369D01*
X-3795024Y18364276D01*
X-4018126Y18444119D01*
X-4193000Y18317954D01*
X-4447000Y18317954D01*
X-4621874Y18444119D01*
X-4844976Y18364276D01*
X-5032764Y18242369D01*
X-5193161Y18086169D01*
X-5320003Y17901678D01*
X-5408415Y17695987D01*
X-5455000Y17477000D01*
X-6915000Y17477000D01*
X-6915000Y19515000D01*
X6915000Y19515000D01*
X6915001Y16004430D01*
G37*
G04 #@! TD.AperFunction*
M02*
